999
dxfrw 0.6.3
  0
SECTION
  2
HEADER
  9
$ACADVER
  1
AC1021
  9
$DWGCODEPAGE
  3
ANSI_1252
  9
$INSBASE
 10
0
 20
0
 30
0
  9
$EXTMIN
 10
1e+020
 20
1e+020
 30
1e+020
  9
$EXTMAX
 10
-1e+020
 20
-1e+020
 30
-1e+020
  9
$LIMMIN
 10
0
 20
0
  9
$LIMMAX
 10
420
 20
297
  9
$ORTHOMODE
 70
    0
  9
$REGENMODE
 70
    1
  9
$FILLMODE
 70
    1
  9
$QTEXTMODE
 70
    0
  9
$MIRRTEXT
 70
    0
  9
$LTSCALE
 40
1
  9
$ATTMODE
 70
    0
  9
$TEXTSIZE
 40
2.5
  9
$TRACEWID
 40
15.68
  9
$TEXTSTYLE
  7
STANDARD
  9
$CLAYER
  8
0
  9
$CELTYPE
  6
BYLAYER
  9
$CECOLOR
 62
  256
  9
$CELTSCALE
 40
1
  9
$DISPSILH
 70
    0
  9
$DIMSCALE
 40
1
  9
$DIMASZ
 40
2.5
  9
$DIMEXO
 40
0.625
  9
$DIMDLI
 40
3.75
  9
$DIMRND
 40
0
  9
$DIMDLE
 40
0
  9
$DIMEXE
 40
1.25
  9
$DIMTP
 40
0
  9
$DIMTM
 40
0
  9
$DIMTXT
 40
2.5
  9
$DIMCEN
 40
2.5
  9
$DIMTSZ
 40
0
  9
$DIMTOL
 70
    0
  9
$DIMLIM
 70
    0
  9
$DIMTIH
 70
    0
  9
$DIMTOH
 70
    0
  9
$DIMSE1
 70
    0
  9
$DIMSE2
 70
    0
  9
$DIMTAD
 70
    1
  9
$DIMZIN
 70
    8
  9
$DIMBLK
  1

  9
$DIMASO
 70
    1
  9
$DIMSHO
 70
    1
  9
$DIMPOST
  1

  9
$DIMAPOST
  1

  9
$DIMALT
 70
    0
  9
$DIMALTD
 70
    3
  9
$DIMALTF
 40
0.03937
  9
$DIMLFAC
 40
1
  9
$DIMTOFL
 70
    1
  9
$DIMTVP
 40
0
  9
$DIMTIX
 70
    0
  9
$DIMSOXD
 70
    0
  9
$DIMSAH
 70
    0
  9
$DIMBLK1
  1

  9
$DIMBLK2
  1

  9
$DIMSTYLE
  2
STANDARD
  9
$DIMCLRD
 70
    0
  9
$DIMCLRE
 70
    0
  9
$DIMCLRT
 70
    0
  9
$DIMTFAC
 40
1
  9
$DIMGAP
 40
0.625
  9
$DIMJUST
 70
    0
  9
$DIMSD1
 70
    0
  9
$DIMSD2
 70
    0
  9
$DIMTOLJ
 70
    0
  9
$DIMTZIN
 70
    8
  9
$DIMALTZ
 70
    0
  9
$DIMALTTZ
 70
    0
  9
$DIMUPT
 70
    0
  9
$DIMDEC
 70
    2
  9
$DIMTDEC
 70
    2
  9
$DIMALTU
 70
    2
  9
$DIMALTTD
 70
    3
  9
$DIMTXSTY
  7
STANDARD
  9
$DIMAUNIT
 70
    0
  9
$DIMADEC
 70
    0
  9
$DIMALTRND
 40
0
  9
$DIMAZIN
 70
    0
  9
$DIMDSEP
 70
   44
  9
$DIMATFIT
 70
    3
  9
$DIMFRAC
 70
    0
  9
$DIMLDRBLK
  1
STANDARD
  9
$DIMLUNIT
 70
    2
  9
$DIMLWD
 70
   -2
  9
$DIMLWE
 70
   -2
  9
$DIMTMOVE
 70
    0
  9
$DIMFXL
 40
1
  9
$DIMFXLON
 70
    0
  9
$DIMJOGANG
 40
0.7854
  9
$DIMTFILL
 70
    0
  9
$DIMTFILLCLR
 70
    0
  9
$DIMARCSYM
 70
    0
  9
$DIMLTYPE
  6

  9
$DIMLTEX1
  6

  9
$DIMLTEX2
  6

  9
$LUNITS
 70
    2
  9
$LUPREC
 70
    4
  9
$SKETCHINC
 40
1
  9
$FILLETRAD
 40
0
  9
$AUNITS
 70
    0
  9
$AUPREC
 70
    2
  9
$MENU
  1
.
  9
$ELEVATION
 40
0
  9
$PELEVATION
 40
0
  9
$THICKNESS
 40
0
  9
$LIMCHECK
 70
    0
  9
$CHAMFERA
 40
0
  9
$CHAMFERB
 40
0
  9
$CHAMFERC
 40
0
  9
$CHAMFERD
 40
0
  9
$SKPOLY
 70
    0
  9
$USRTIMER
 70
    1
  9
$ANGBASE
 50
0
  9
$ANGDIR
 70
    0
  9
$PDMODE
 70
   34
  9
$PDSIZE
 40
0
  9
$PLINEWID
 40
0
  9
$SPLFRAME
 70
    0
  9
$SPLINETYPE
 70
    2
  9
$SPLINESEGS
 70
    8
  9
$HANDSEED
  5
20000
  9
$SURFTAB1
 70
    6
  9
$SURFTAB2
 70
    6
  9
$SURFTYPE
 70
    6
  9
$SURFU
 70
    6
  9
$SURFV
 70
    6
  9
$UCSBASE
  2

  9
$UCSNAME
  2

  9
$UCSORG
 10
0
 20
0
 30
0
  9
$UCSXDIR
 10
1
 20
0
 30
0
  9
$UCSYDIR
 10
0
 20
1
 30
0
  9
$UCSORTHOREF
  2

  9
$UCSORTHOVIEW
 70
    0
  9
$UCSORGTOP
 10
0
 20
0
 30
0
  9
$UCSORGBOTTOM
 10
0
 20
0
 30
0
  9
$UCSORGLEFT
 10
0
 20
0
 30
0
  9
$UCSORGRIGHT
 10
0
 20
0
 30
0
  9
$UCSORGFRONT
 10
0
 20
0
 30
0
  9
$UCSORGBACK
 10
0
 20
0
 30
0
  9
$PUCSBASE
  2

  9
$PUCSNAME
  2

  9
$PUCSORG
 10
0
 20
0
 30
0
  9
$PUCSXDIR
 10
1
 20
0
 30
0
  9
$PUCSYDIR
 10
0
 20
1
 30
0
  9
$PUCSORTHOREF
  2

  9
$PUCSORTHOVIEW
 70
    0
  9
$PUCSORGTOP
 10
0
 20
0
 30
0
  9
$PUCSORGBOTTOM
 10
0
 20
0
 30
0
  9
$PUCSORGLEFT
 10
0
 20
0
 30
0
  9
$PUCSORGRIGHT
 10
0
 20
0
 30
0
  9
$PUCSORGFRONT
 10
0
 20
0
 30
0
  9
$PUCSORGBACK
 10
0
 20
0
 30
0
  9
$USERI1
 70
    0
  9
$USERI2
 70
    0
  9
$USERI3
 70
    0
  9
$USERI4
 70
    0
  9
$USERI5
 70
    0
  9
$USERR1
 40
0
  9
$USERR2
 40
0
  9
$USERR3
 40
0
  9
$USERR4
 40
0
  9
$USERR5
 40
0
  9
$WORLDVIEW
 70
    1
  9
$SHADEDGE
 70
    3
  9
$SHADEDIF
 70
   70
  9
$TILEMODE
 70
    1
  9
$MAXACTVP
 70
   64
  9
$PINSBASE
 10
0
 20
0
 30
0
  9
$PLIMCHECK
 70
    0
  9
$PEXTMIN
 10
0
 20
0
 30
0
  9
$PEXTMAX
 10
0
 20
0
 30
0
  9
$PLIMMIN
 10
0
 20
0
  9
$PLIMMAX
 10
297
 20
210
  9
$UNITMODE
 70
    0
  9
$VISRETAIN
 70
    1
  9
$PLINEGEN
 70
    0
  9
$PSLTSCALE
 70
    1
  9
$TREEDEPTH
 70
 3020
  9
$CMLSTYLE
  2
Standard
  9
$CMLJUST
 70
    0
  9
$CMLSCALE
 40
20
  9
$PROXYGRAPHICS
 70
    1
  9
$MEASUREMENT
 70
    1
  9
$CELWEIGHT
370
   -1
  9
$ENDCAPS
280
    0
  9
$JOINSTYLE
280
    0
  9
$LWDISPLAY
290
    0
  9
$INSUNITS
 70
    0
  9
$HYPERLINKBASE
  1

  9
$STYLESHEET
  1

  9
$XEDIT
290
    1
  9
$CEPSNTYPE
380
    0
  9
$PSTYLEMODE
290
    1
  9
$EXTNAMES
290
    1
  9
$PSVPSCALE
 40
0
  9
$OLESTARTUP
290
    0
  9
$SORTENTS
280
  127
  9
$INDEXCTL
280
    0
  9
$HIDETEXT
280
    1
  9
$XCLIPFRAME
290
    0
  9
$HALOGAP
280
    0
  9
$OBSCOLOR
 70
  257
  9
$OBSLTYPE
280
    0
  9
$INTERSECTIONDISPLAY
280
    0
  9
$INTERSECTIONCOLOR
 70
  257
  9
$DIMASSOC
280
    1
  9
$PROJECTNAME
  1

  9
$CAMERADISPLAY
290
    0
  9
$LENSLENGTH
 40
50
  9
$CAMERAHEIGHT
 40
0
  9
$STEPSPERSEC
 40
2
  9
$STEPSIZE
 40
50
  9
$3DDWFPREC
 40
2
  9
$PSOLWIDTH
 40
5
  9
$PSOLHEIGHT
 40
80
  9
$LOFTANG1
 40
1.570796326794897
  9
$LOFTANG2
 40
1.570796326794897
  9
$LOFTMAG1
 40
0
  9
$LOFTMAG2
 40
0
  9
$LOFTPARAM
 70
    7
  9
$LOFTNORMALS
280
    1
  9
$LATITUDE
 40
1
  9
$LONGITUDE
 40
1
  9
$NORTHDIRECTION
 40
0
  9
$TIMEZONE
 70
-8000
  9
$LIGHTGLYPHDISPLAY
280
    1
  9
$TILEMODELIGHTSYNCH
280
    1
  9
$SOLIDHIST
280
    1
  9
$SHOWHIST
280
    1
  9
$DWFFRAME
280
    2
  9
$DGNFRAME
280
    0
  9
$REALWORLDSCALE
290
    1
  9
$INTERFERECOLOR
 62
    1
  9
$CSHADOW
280
    0
  9
$SHADOWPLANELOCATION
 40
0
  0
ENDSEC
  0
SECTION
  2
CLASSES
  0
ENDSEC
  0
SECTION
  2
TABLES
  0
TABLE
  2
VPORT
  5
8
330
0
100
AcDbSymbolTable
 70
    1
  0
VPORT
  5
31
330
2
100
AcDbSymbolTableRecord
100
AcDbViewportTableRecord
  2
*ACTIVE
 70
    0
 10
0
 20
0
 11
1
 21
1
 12
0.651828
 22
-0.16
 13
0
 23
0
 14
10
 24
10
 15
10
 25
10
 16
0
 26
0
 36
1
 17
0
 27
0
 37
0
 40
5.13732
 41
2.4426877
 42
50
 43
0
 44
0
 50
0
 51
0
 71
    0
 72
  100
 73
    1
 74
    3
 75
    0
 76
    0
 77
    0
 78
    0
281
    0
 65
    1
110
0
120
0
130
0
111
1
121
0
131
0
112
0
122
1
132
0
 79
    0
146
0
348
10020
 60
    7
 61
    5
292
1
282
    1
141
0
142
0
 63
  250
421
3358443
  0
ENDTAB
  0
TABLE
  2
LTYPE
  5
5
330
0
100
AcDbSymbolTable
 70
    4
  0
LTYPE
  5
14
330
5
100
AcDbSymbolTableRecord
100
AcDbLinetypeTableRecord
  2
ByBlock
 70
    0
  3

 72
   65
 73
    0
 40
0
  0
LTYPE
  5
15
330
5
100
AcDbSymbolTableRecord
100
AcDbLinetypeTableRecord
  2
ByLayer
 70
    0
  3

 72
   65
 73
    0
 40
0
  0
LTYPE
  5
16
330
5
100
AcDbSymbolTableRecord
100
AcDbLinetypeTableRecord
  2
Continuous
 70
    0
  3
Solid line
 72
   65
 73
    0
 40
0
  0
LTYPE
  5
32
330
5
100
AcDbSymbolTableRecord
100
AcDbLinetypeTableRecord
  2
DASHED
 70
    0
  3

 72
   65
 73
    2
 40
2
 49
1
 74
    0
 49
-1
 74
    0
  0
LTYPE
  5
33
330
5
100
AcDbSymbolTableRecord
100
AcDbLinetypeTableRecord
  2
DASHEDX2
 70
    0
  3

 72
   65
 73
    2
 40
3
 49
2
 74
    0
 49
-1
 74
    0
  0
LTYPE
  5
34
330
5
100
AcDbSymbolTableRecord
100
AcDbLinetypeTableRecord
  2
DASHDOT
 70
    0
  3

 72
   65
 73
    4
 40
3
 49
1
 74
    0
 49
-1
 74
    0
 49
0
 74
    0
 49
-1
 74
    0
  0
LTYPE
  5
35
330
5
100
AcDbSymbolTableRecord
100
AcDbLinetypeTableRecord
  2
DIVIDE
 70
    0
  3

 72
   65
 73
    6
 40
4
 49
1
 74
    0
 49
-1
 74
    0
 49
0
 74
    0
 49
-1
 74
    0
 49
0
 74
    0
 49
-1
 74
    0
  0
LTYPE
  5
36
330
5
100
AcDbSymbolTableRecord
100
AcDbLinetypeTableRecord
  2
DOT
 70
    0
  3

 72
   65
 73
    2
 40
1
 49
1
 74
    0
 49
0
 74
    0
  0
ENDTAB
  0
TABLE
  2
LAYER
  5
2
330
0
100
AcDbSymbolTable
 70
    1
  0
LAYER
  5
37
330
2
100
AcDbSymbolTableRecord
100
AcDbLayerTableRecord
  2
dimensions
 70
    0
 62
    7
  6
CONTINUOUS
370
   -3
390
F
  0
LAYER
  5
38
330
2
100
AcDbSymbolTableRecord
100
AcDbLayerTableRecord
  2
text
 70
    0
 62
    7
  6
CONTINUOUS
370
   -3
390
F
  0
LAYER
  5
39
330
2
100
AcDbSymbolTableRecord
100
AcDbLayerTableRecord
  2
s005-#def-solid-edge
 70
    0
 62
    7
  6
CONTINUOUS
370
   -3
390
F
  0
LAYER
  5
3A
330
2
100
AcDbSymbolTableRecord
100
AcDbLayerTableRecord
  2
s00e-#def-invisible
 70
    0
 62
    7
  6
CONTINUOUS
370
   -3
390
F
  0
LAYER
  5
3B
330
2
100
AcDbSymbolTableRecord
100
AcDbLayerTableRecord
  2
s00f-#def-silhouette
 70
    0
 62
    7
  6
CONTINUOUS
370
   -3
390
F
  0
LAYER
  5
10
330
2
100
AcDbSymbolTableRecord
100
AcDbLayerTableRecord
  2
0
 70
    0
 62
    7
  6
CONTINUOUS
370
   -3
390
F
  0
ENDTAB
  0
TABLE
  2
STYLE
  5
3
330
0
100
AcDbSymbolTable
 70
    3
  0
STYLE
  5
3C
330
2
100
AcDbSymbolTableRecord
100
AcDbTextStyleTableRecord
  2
unicode
 70
    0
 40
0
 41
1
 50
0
 71
    0
 42
1
  3
unicode
  4

  0
STYLE
  5
3D
330
2
100
AcDbSymbolTableRecord
100
AcDbTextStyleTableRecord
  2
Standard
 70
    0
 40
0
 41
1
 50
0
 71
    0
 42
1
  3
txt
  4

  0
ENDTAB
  0
TABLE
  2
VIEW
  5
6
330
0
100
AcDbSymbolTable
 70
    0
  0
ENDTAB
  0
TABLE
  2
UCS
  5
7
330
0
100
AcDbSymbolTable
 70
    0
  0
ENDTAB
  0
TABLE
  2
APPID
  5
9
330
0
100
AcDbSymbolTable
 70
    1
  0
APPID
  5
12
330
9
100
AcDbSymbolTableRecord
100
AcDbRegAppTableRecord
  2
ACAD
 70
    0
  0
ENDTAB
  0
TABLE
  2
DIMSTYLE
  5
A
330
0
100
AcDbSymbolTable
 70
    1
100
AcDbDimStyleTable
 71
    1
  0
DIMSTYLE
105
3E
330
A
100
AcDbSymbolTableRecord
100
AcDbDimStyleTableRecord
  2
Standard
 70
    0
 40
1
 41
2.5
 42
0.625
 43
3.75
 44
1.25
 45
0
 46
0
 47
0
 48
0
140
2.5
141
2.5
142
0
143
0.03937007874015748
144
1
145
0
146
1
147
0.625
148
0
 71
    0
 72
    0
 73
    0
 74
    0
 75
    0
 76
    0
 77
    1
 78
    8
 79
    0
170
    0
171
    3
172
    1
173
    0
174
    0
175
    0
176
    0
177
    0
178
    0
179
    0
271
    2
272
    2
273
    2
274
    3
275
    0
276
    0
277
    2
278
   44
279
    0
280
    0
281
    0
282
    0
283
    0
284
    8
285
    0
286
    0
288
    0
289
    3
341

371
   -2
372
   -2
  0
ENDTAB
  0
TABLE
  2
BLOCK_RECORD
  5
1
330
0
100
AcDbSymbolTable
 70
    2
  0
BLOCK_RECORD
  5
1F
330
1
100
AcDbSymbolTableRecord
100
AcDbBlockTableRecord
  2
*Model_Space
 70
    0
280
    1
281
    0
  0
BLOCK_RECORD
  5
1E
330
1
100
AcDbSymbolTableRecord
100
AcDbBlockTableRecord
  2
*Paper_Space
 70
    0
280
    1
281
    0
  0
ENDTAB
  0
ENDSEC
  0
SECTION
  2
BLOCKS
  0
BLOCK
  5
20
330
1F
100
AcDbEntity
  8
0
100
AcDbBlockBegin
  2
*Model_Space
 70
    0
 10
0
 20
0
 30
0
  3
*Model_Space
  1

  0
ENDBLK
  5
21
330
1F
100
AcDbEntity
  8
0
100
AcDbBlockEnd
  0
BLOCK
  5
1C
330
1B
100
AcDbEntity
  8
0
100
AcDbBlockBegin
  2
*Paper_Space
 70
    0
 10
0
 20
0
 30
0
  3
*Paper_Space
  1

  0
ENDBLK
  5
1D
330
1F
100
AcDbEntity
  8
0
100
AcDbBlockEnd
  0
ENDSEC
  0
SECTION
  2
ENTITIES
  0
LWPOLYLINE
  5
3F
100
AcDbEntity
  8
s00e-#def-invisible
  6
DASHED
 62
  256
420
    0
370
    9
100
AcDbPolyline
 90
    7
 70
    0
 43
0
 10
-12.94957341727215
 20
1.841915194472353
 10
-15.09750640159589
 20
-6.037013777741462
 10
-11.86376913081759
 20
-12.72922721118828
 10
-22.86025560429382
 20
-14.73112242254692
 10
-26.75927851423088
 20
-14.92246249500455
 10
-30.01552614384815
 20
-13.87088718477126
 10
-31.74612981765914
 20
-11.68253849455448
  0
LWPOLYLINE
  5
40
100
AcDbEntity
  8
s00e-#def-invisible
  6
DASHED
 62
  256
420
    0
370
    9
100
AcDbPolyline
 90
   16
 70
    0
 43
0
 10
-22.19383680732263
 20
-12.30162306791767
 10
-22.1983040217552
 20
-12.30298823962295
 10
-24.87888227233692
 20
-12.43453453943757
 10
-27.1175525176988
 20
-11.71157651365218
 10
-28.30734254344385
 20
-10.20708678912815
 10
-28.30209499068514
 20
-8.337395994999289
 10
-27.23523469116211
 20
-6.274440063029276
 10
-25.05804252524579
 20
-4.156995869596051
 10
-22.17079298815455
 20
-2.500871209990626
 10
-19.28571705858525
 20
-1.619197834757493
 10
-16.60513880800352
 20
-1.487651534942879
 10
-14.36646856264165
 20
-2.210609560728262
 10
-13.17667853689659
 20
-3.715099285252309
 10
-13.18192608965531
 20
-5.584790079381152
 10
-14.24878638917834
 20
-7.64774601135117
 10
-15.69714286104192
 20
-9.056355710292579
  0
LWPOLYLINE
  5
41
100
AcDbEntity
  8
s005-#def-solid-edge
  6
CONTINUOUS
 62
  256
420
    0
370
    9
100
AcDbPolyline
 90
    9
 70
    0
 43
0
 10
-9.583637125033675
 20
-11.15089198872941
 10
-9.588884677679413
 20
-13.02058278321095
 10
-10.65574497752955
 20
-15.08353871561376
 10
-12.83293714311876
 20
-17.20098290861418
 10
-15.72018667961178
 20
-18.85710756796294
 10
-18.60526260977931
 20
-19.73878094345274
 10
-21.28584086087445
 20
-19.87032724321307
 10
-23.52451110572289
 20
-19.14736921748198
 10
-24.71430113135498
 20
-17.64287949331062
  0
LWPOLYLINE
  5
42
100
AcDbEntity
  8
s005-#def-solid-edge
  6
CONTINUOUS
 62
  256
420
    0
370
    9
100
AcDbPolyline
 90
    8
 70
    0
 43
0
 10
-28.15308840551891
 20
-19.11833119889725
 10
-28.14545560167056
 20
-16.39878095237866
 10
-26.59365880188854
 20
-13.39811777797456
 10
-23.42683383375879
 20
-10.31819895179213
 10
-19.22719814431438
 20
-7.909290356375754
 10
-15.03072406407073
 20
-6.626856355663321
 10
-4.034237590594485
 20
-4.624961144304692
 10
-8.270727718841684
 20
-20.16501991501807
  0
LWPOLYLINE
  5
43
100
AcDbEntity
  8
s00e-#def-invisible
  6
DASHED
 62
  256
420
    0
370
    9
100
AcDbPolyline
 90
    4
 70
    0
 43
0
 10
-15.09750640159589
 20
-6.037013777741462
 10
-2.268272182540287
 20
-3.701469364489716
 10
-1.032629228468174
 20
0.8310477769683597
 10
9.027886725064329
 20
-19.98917179375506
  0
LWPOLYLINE
  5
44
100
AcDbEntity
  8
s00e-#def-invisible
  6
DASHED
 62
  256
420
    0
370
    9
100
AcDbPolyline
 90
    3
 70
    0
 43
0
 10
3.881378275355048
 20
7.87930756409455
 10
0.7325749916348165
 20
7.306072264765602
 10
1.968217945706918
 20
11.83858940622367
  0
LWPOLYLINE
  5
45
100
AcDbEntity
  8
s005-#def-solid-edge
  6
CONTINUOUS
 62
  256
420
    0
370
    9
100
AcDbPolyline
 90
    3
 70
    0
 43
0
 10
-4.034237590594485
 20
-4.624961144304692
 10
-0.8005003198161766
 20
-11.31717457775149
 10
-5.036990448063381
 20
-26.85723334846489
  0
LWPOLYLINE
  5
46
100
AcDbEntity
  8
s005-#def-solid-edge
  6
CONTINUOUS
 62
  256
420
    0
370
    9
100
AcDbPolyline
 90
    6
 70
    0
 43
0
 10
10.79309094516734
 20
-13.51414730595782
 10
19.9568296730642
 20
-11.84590129649229
 10
22.82952574034325
 20
-11.00606164338594
 10
25.32420028055879
 20
-9.582220605657364
 10
27.2020409594892
 20
-7.675096935418818
 10
28.3293390656607
 20
-5.467756931952046
  0
LWPOLYLINE
  5
47
100
AcDbEntity
  8
s005-#def-solid-edge
  6
CONTINUOUS
 62
  256
420
    0
370
    9
100
AcDbPolyline
 90
    5
 70
    0
 43
0
 10
-1.671242622807107
 20
1.280275258834848
 10
-0.3144015400486069
 20
2.11965559019354
 10
1.568628274951719
 20
1.870089291825083
 10
2.874793494919587
 20
0.6777689166024743
 10
2.838960248697845
 20
-0.7588604303626685
  0
LWPOLYLINE
  5
48
100
AcDbEntity
  8
s00e-#def-invisible
  6
DASHED
 62
  256
420
    0
370
    9
100
AcDbPolyline
 90
   10
 70
    0
 43
0
 10
26.5641348455577
 20
-11.94278141974929
 10
16.03580060577566
 20
-13.85945016199166
 10
13.13548277520585
 20
-13.93304447523544
 10
10.0101051977746
 20
-13.0608380072126
 10
7.403161453629998
 20
-11.34136926178675
 10
5.830376493877445
 20
-9.245412806500253
 10
5.28703419765392
 20
-6.962047732701123
 10
5.945042881787009
 20
-4.648198896211801
 10
7.790254183232335
 20
-2.871103571347604
 10
8.883718118754992
 20
-2.473025694757377
  0
LWPOLYLINE
  5
49
100
AcDbEntity
  8
s00e-#def-invisible
  6
DASHED
 62
  256
420
    0
370
    9
100
AcDbPolyline
 90
    6
 70
    0
 43
0
 10
-1.032629228468174
 20
0.8310477769683597
 10
8.13110949942868
 20
2.499293786433894
 10
11.2852736580564
 20
2.756635733547936
 10
14.64130179662558
 20
2.397907057298923
 10
17.90953360799169
 20
1.427618793576583
 10
20.81526858639627
 20
-0.04551309362161327
  0
LWPOLYLINE
  5
4A
100
AcDbEntity
  8
s005-#def-solid-edge
  6
CONTINUOUS
 62
  256
420
    0
370
    9
100
AcDbPolyline
 90
    5
 70
    0
 43
0
 10
7.37523538521773
 20
0.64877659410665
 10
7.710247101890012
 20
1.826825591585445
 10
9.555458403335333
 20
3.60392091644964
 10
12.05213856671722
 20
4.512842651933259
 10
22.58047280649927
 20
6.429511394175631
  0
LWPOLYLINE
  5
4B
100
AcDbEntity
  8
s00e-#def-invisible
  6
DASHED
 62
  256
420
    0
370
    9
100
AcDbPolyline
 90
    5
 70
    0
 43
0
 10
7.37523538521773
 20
0.64877659410665
 10
7.052238417758968
 20
-0.4870232444276788
 10
7.595580713980452
 20
-2.770388318702999
 10
9.168365674157705
 20
-4.866344774387997
 10
10.44803711902488
 20
-5.710381036640965
  0
LWPOLYLINE
  5
4C
100
AcDbEntity
  8
s00f-#def-silhouette
  6
CONTINUOUS
 62
  256
420
    0
370
   40
100
AcDbPolyline
 90
    5
 70
    0
 43
0
 10
10.79309094516734
 20
-13.51414730595782
 10
12.02873389923944
 20
-8.981630164499746
 10
1.968217945706918
 20
11.83858940622367
 10
-10.86101627334869
 20
9.503044992971926
 10
-12.94957341727215
 20
1.841915194472353
  0
LWPOLYLINE
  5
4D
100
AcDbEntity
  8
s00f-#def-silhouette
  6
CONTINUOUS
 62
  256
420
    0
370
   40
100
AcDbPolyline
 90
    9
 70
    0
 43
0
 10
3.881378275355048
 20
7.87930756409455
 10
9.896313719531683
 20
8.974318274231131
 10
13.05047787815994
 20
9.231660221345177
 10
16.40650601672858
 20
8.872931545096169
 10
19.6747378280942
 20
7.902643281374016
 10
22.58047280649927
 20
6.429511394175631
 10
20.81526858639627
 20
-0.04551309362161327
 10
10.28693434661422
 20
-1.962181835863984
 10
8.883718118754992
 20
-2.473025694757377
  0
LWPOLYLINE
  5
4E
100
AcDbEntity
  8
s00f-#def-silhouette
  6
CONTINUOUS
 62
  256
420
    0
370
   40
100
AcDbPolyline
 90
   25
 70
    0
 43
0
 10
-7.627279002570386
 20
2.810831559525111
 10
-18.62376547604663
 20
0.8089363481664673
 10
-22.82023955542017
 20
-0.4734976521726271
 10
-27.01987524573469
 20
-2.882406247962337
 10
-30.18670021434024
 20
-5.962325074774297
 10
-31.73849701364646
 20
-8.962988248548864
 10
-31.74612981765914
 20
-11.68253849455448
 10
-28.15308840551891
 20
-19.11833119889725
 10
-26.42248473187225
 20
-21.30667988860105
 10
-23.1662371030018
 20
-22.35825519875537
 10
-19.26721419231793
 20
-22.16691512637672
 10
-8.270727718841684
 20
-20.16501991501807
 10
-5.036990448063381
 20
-26.85723334846489
 10
7.792243770992226
 20
-24.52168893521314
 10
9.027886725064329
 20
-19.98917179375506
 10
18.19162545296128
 20
-18.32092578428951
 10
21.06432152024025
 20
-17.48108613118318
 10
23.5589960604558
 20
-16.05724509345461
 10
25.43683673938619
 20
-14.15012142321605
 10
26.5641348455577
 20
-11.94278141974929
 10
28.3293390656607
 20
-5.467756931952046
 10
17.80100482587866
 20
-7.384425674194407
 10
14.90068699530885
 20
-7.458019987438181
 10
11.7753094178776
 20
-6.585813519415353
 10
10.44803711902488
 20
-5.710381036640965
  0
LWPOLYLINE
  5
4F
100
AcDbEntity
  8
s00e-#def-invisible
  6
DASHED
 62
  256
420
    0
370
    9
100
AcDbPolyline
 90
   10
 70
    0
 43
0
 10
2.838960248697845
 20
-0.7588604303626685
 10
-1.397529879549364
 20
-16.29891920107606
 10
-2.754370962307856
 20
-17.13829953243474
 10
-4.637400777308187
 20
-16.88873323406629
 10
-5.943565997276046
 20
-15.69641285884369
 10
-5.907732751054308
 20
-14.25978351187853
 10
-4.550891668295805
 20
-13.42040318051985
 10
-2.667861853295488
 20
-13.66996947888829
 10
-1.361696633327615
 20
-14.86228985411091
 10
-1.397529879549364
 20
-16.29891920107606
  0
LWPOLYLINE
  5
50
100
AcDbEntity
  8
s00f-#def-silhouette
  6
CONTINUOUS
 62
  256
420
    0
370
   40
100
AcDbPolyline
 90
    5
 70
    0
 43
0
 10
2.838960248697845
 20
-0.7588604303626685
 10
1.482119165939347
 20
-1.598240761721357
 10
-0.400910649060986
 20
-1.348674463352907
 10
-1.707075869028849
 20
-0.1563540881302927
 10
-1.671242622807107
 20
1.280275258834848
  0
LWPOLYLINE
  5
51
100
AcDbEntity
  8
s00f-#def-silhouette
  6
CONTINUOUS
 62
  256
420
    0
370
   40
100
AcDbPolyline
 90
    9
 70
    0
 43
0
 10
-9.583637125033675
 20
-11.15089198872941
 10
-10.77342715066575
 20
-9.646402264558057
 10
-13.01209739551419
 20
-8.923444238826967
 10
-15.69267564660935
 20
-9.054990538587287
 10
-18.57775157677686
 20
-9.936663914077082
 10
-21.46500111326989
 20
-11.59278857342584
 10
-23.6421932788591
 20
-13.71023276642627
 10
-24.70905357870924
 20
-15.77318869882908
 10
-24.71430113135498
 20
-17.64287949331062
  0
LWPOLYLINE
  5
52
100
AcDbEntity
  8
s00f-#def-silhouette
  6
CONTINUOUS
 62
  256
420
    0
370
   40
100
AcDbPolyline
 90
    4
 70
    0
 43
0
 10
-15.69714286104192
 20
-9.056355710292579
 10
-16.42597855509466
 20
-9.765190204784398
 10
-19.31322809218589
 20
-11.42131486438982
 10
-22.19383680732263
 20
-12.30162306791767
  0
LINE
  5
53
100
AcDbEntity
  8
s00e-#def-invisible
  6
DASHED
 62
  256
420
    0
370
    9
100
AcDbLine
 10
-2.268272182540287
 20
-3.701469364489716
 11
7.792243770992226
 21
-24.52168893521314
  0
LINE
  5
54
100
AcDbEntity
  8
s00e-#def-invisible
  6
DASHED
 62
  256
420
    0
370
    9
100
AcDbLine
 10
-7.627279002570386
 20
2.810831559525111
 11
-11.86376913081759
 21
-12.72922721118828
  0
LINE
  5
55
100
AcDbEntity
  8
s005-#def-solid-edge
  6
CONTINUOUS
 62
  256
420
    0
370
    9
100
AcDbLine
 10
-7.627279002570386
 20
2.810831559525111
 11
-10.86101627334869
 21
9.503044992971926
  0
LINE
  5
56
100
AcDbEntity
  8
s005-#def-solid-edge
  6
CONTINUOUS
 62
  256
420
    0
370
    9
100
AcDbLine
 10
-0.8005003198161766
 20
-11.31717457775149
 11
12.02873389923944
 21
-8.981630164499746
  0
LINE
  5
57
100
AcDbEntity
  8
s00e-#def-invisible
  6
DASHED
 62
  256
420
    0
370
    9
100
AcDbLine
 10
0.7325749916348165
 20
7.306072264765602
 11
10.79309094516734
 21
-13.51414730595782
  0
LINE
  5
58
100
AcDbEntity
  8
s00e-#def-invisible
  6
DASHED
 62
  256
420
    0
370
    9
100
AcDbLine
 10
5.28703419765392
 20
-6.962047732701123
 11
7.052238417758968
 21
-0.4870232444276788
  0
LINE
  5
59
100
AcDbEntity
  8
s00e-#def-invisible
  6
DASHED
 62
  256
420
    0
370
    9
100
AcDbLine
 10
-5.907732751054308
 20
-14.25978351187853
 11
-1.671242622807107
 21
1.280275258834848
  0
LINE
  5
5A
100
AcDbEntity
  8
s00e-#def-invisible
  6
DASHED
 62
  256
420
    0
370
    9
100
AcDbLine
 10
-13.17667853689659
 20
-3.715099285252309
 11
-9.583637125033675
 21
-11.15089198872941
  0
LINE
  5
5B
100
AcDbEntity
  8
s00e-#def-invisible
  6
DASHED
 62
  256
420
    0
370
    9
100
AcDbLine
 10
-24.71430113135498
 20
-17.64287949331062
 11
-28.30734254344385
 21
-10.20708678912815
  0
DIMENSION
  5
5C
100
AcDbEntity
  8
dimensions
  6
BYLAYER
 62
  256
370
   -1
100
AcDbDimension
 10
-2.688142152371892
 20
-14.68173127826554
 30
-108.2627185426988
 11
-2.688142152371892
 21
-14.68173127826554
 31
-108.2627185426988
 70
   33
  1
28.00
 71
    5
  3
STANDARD
 53
0
210
0
220
0
230
1
100
AcDbAlignedDimension
 13
7.792243770992229
 23
-24.52168893521313
 33
-102.2166283733773
 14
-2.268272182540287
 24
-3.701469364489713
 34
-118.0060069480895
  0
DIMENSION
  5
5D
100
AcDbEntity
  8
dimensions
  6
BYLAYER
 62
  256
370
   -1
100
AcDbDimension
 10
-5.585308330607596
 20
2.734383422808849
 30
-107.4023716579305
 11
-5.585308330607596
 21
2.734383422808849
 31
-107.4023716579305
 70
   33
  1
24.00
 71
    5
  3
STANDARD
 53
0
210
0
220
0
230
1
100
AcDbAlignedDimension
 13
-2.268272182540287
 23
-3.701469364489713
 33
-118.0060069480895
 14
1.968217945706915
 24
11.83858940622367
 34
-100.2139096912725
  0
DIMENSION
  5
5E
100
AcDbEntity
  8
dimensions
  6
BYLAYER
 62
  256
370
   -1
100
AcDbDimension
 10
-15.19985441732802
 20
-17.44090612975864
 30
-103.0578612993096
 11
-15.19985441732802
 21
-17.44090612975864
 31
-103.0578612993096
 70
   33
  1
10.00
 71
    5
  3
STANDARD
 53
0
210
0
220
0
230
1
100
AcDbAlignedDimension
 13
-19.26721419231793
 23
-22.1669151263767
 33
-97.83019758729743
 14
-22.86025560429382
 24
-14.73112242254692
 34
-103.4692613639804
  0
DIMENSION
  5
5F
100
AcDbEntity
  8
dimensions
  6
BYLAYER
 62
  256
370
   -1
100
AcDbDimension
 10
5.687647895011095
 20
4.671998248143915
 30
-112.1021354845096
 11
5.687647895011095
 21
4.671998248143915
 31
-112.1021354845096
 70
   33
  1
10.00
 71
    5
  3
STANDARD
 53
0
210
0
220
0
230
1
100
AcDbAlignedDimension
 13
0.7325749916348165
 23
7.306072264765602
 33
-105.4032713911774
 14
-1.032629228468185
 24
0.8310477769683615
 34
-112.8166452481846
  0
DIMENSION
  5
60
100
AcDbEntity
  8
dimensions
  6
BYLAYER
 62
  256
370
   -1
100
AcDbDimension
 10
3.929236908984779
 20
-30.37055202980389
 30
-96.17911368065963
 11
3.929236908984779
 21
-30.37055202980389
 31
-96.17911368065963
 70
   33
  1
14.00
 71
    5
  3
STANDARD
 53
0
210
0
220
0
230
1
100
AcDbAlignedDimension
 13
7.792243770992229
 23
-24.52168893521313
 33
-102.2166283733773
 14
-5.036990448063381
 24
-26.85723334846489
 34
-97.12192704294176
  0
DIMENSION
  5
61
100
AcDbEntity
  8
dimensions
  6
BYLAYER
 62
  256
370
   -1
100
AcDbDimension
 10
-19.7582211247824
 20
-1.715023833563375
 30
-88.28247221501874
 11
-17.7668230542581
 21
8.904130963727328
 31
-75.54868148820961
 70
   35
  1
  16.50
 71
    5
  3
STANDARD
 53
0
210
0
220
0
230
1
100
AcDbDiametricDimension
 15
-21.72579995555805
 25
-12.20716224081708
 35
-100.863953256125
 40
0
  0
DIMENSION
  5
62
100
AcDbEntity
  8
dimensions
  6
BYLAYER
 62
  256
370
   -1
100
AcDbDimension
 10
-5.974755034079916
 20
-14.38235862027459
 30
-107.7944999994171
 11
-9.072023810345328
 21
-13.18594192123693
 31
-108.1019869214569
 70
   35
  1
  5.00
 71
    5
  3
STANDARD
 53
0
210
0
220
0
230
1
100
AcDbDiametricDimension
 15
-1.330507596523752
 25
-16.17634409268
 35
-107.3334339916142
 40
0
  0
ENDSEC
  0
SECTION
  2
OBJECTS
  0
DICTIONARY
  5
C
330
0
100
AcDbDictionary
281
    1
  3
ACAD_GROUP
350
D
  0
DICTIONARY
  5
D
330
C
100
AcDbDictionary
281
    1
  0
ENDSEC
  0
EOF
