999
dxfrw 0.6.3
  0
SECTION
  2
HEADER
  9
$ACADVER
  1
AC1018
  9
$DWGCODEPAGE
  3
ANSI_1252
  9
$INSBASE
 10
0
 20
0
 30
0
  9
$EXTMIN
 10
1e+020
 20
1e+020
 30
1e+020
  9
$EXTMAX
 10
-1e+020
 20
-1e+020
 30
-1e+020
  9
$LIMMIN
 10
0
 20
0
  9
$LIMMAX
 10
420
 20
297
  9
$ORTHOMODE
 70
    0
  9
$REGENMODE
 70
    1
  9
$FILLMODE
 70
    1
  9
$QTEXTMODE
 70
    0
  9
$MIRRTEXT
 70
    0
  9
$LTSCALE
 40
1
  9
$ATTMODE
 70
    0
  9
$TEXTSIZE
 40
2.5
  9
$TRACEWID
 40
15.68
  9
$TEXTSTYLE
  7
STANDARD
  9
$CLAYER
  8
0
  9
$CELTYPE
  6
BYLAYER
  9
$CECOLOR
 62
  256
  9
$CELTSCALE
 40
1
  9
$DISPSILH
 70
    0
  9
$DIMSCALE
 40
1
  9
$DIMASZ
 40
2.5
  9
$DIMEXO
 40
0.625
  9
$DIMDLI
 40
3.75
  9
$DIMRND
 40
0
  9
$DIMDLE
 40
0
  9
$DIMEXE
 40
1.25
  9
$DIMTP
 40
0
  9
$DIMTM
 40
0
  9
$DIMTXT
 40
2.5
  9
$DIMCEN
 40
2.5
  9
$DIMTSZ
 40
0
  9
$DIMTOL
 70
    0
  9
$DIMLIM
 70
    0
  9
$DIMTIH
 70
    0
  9
$DIMTOH
 70
    0
  9
$DIMSE1
 70
    0
  9
$DIMSE2
 70
    0
  9
$DIMTAD
 70
    1
  9
$DIMZIN
 70
    8
  9
$DIMBLK
  1

  9
$DIMASO
 70
    1
  9
$DIMSHO
 70
    1
  9
$DIMPOST
  1

  9
$DIMAPOST
  1

  9
$DIMALT
 70
    0
  9
$DIMALTD
 70
    3
  9
$DIMALTF
 40
0.03937
  9
$DIMLFAC
 40
1
  9
$DIMTOFL
 70
    1
  9
$DIMTVP
 40
0
  9
$DIMTIX
 70
    0
  9
$DIMSOXD
 70
    0
  9
$DIMSAH
 70
    0
  9
$DIMBLK1
  1

  9
$DIMBLK2
  1

  9
$DIMSTYLE
  2
STANDARD
  9
$DIMCLRD
 70
    0
  9
$DIMCLRE
 70
    0
  9
$DIMCLRT
 70
    0
  9
$DIMTFAC
 40
1
  9
$DIMGAP
 40
0.625
  9
$DIMJUST
 70
    0
  9
$DIMSD1
 70
    0
  9
$DIMSD2
 70
    0
  9
$DIMTOLJ
 70
    0
  9
$DIMTZIN
 70
    8
  9
$DIMALTZ
 70
    0
  9
$DIMALTTZ
 70
    0
  9
$DIMUPT
 70
    0
  9
$DIMDEC
 70
    2
  9
$DIMTDEC
 70
    2
  9
$DIMALTU
 70
    2
  9
$DIMALTTD
 70
    3
  9
$DIMTXSTY
  7
STANDARD
  9
$DIMAUNIT
 70
    0
  9
$DIMADEC
 70
    0
  9
$DIMALTRND
 40
0
  9
$DIMAZIN
 70
    0
  9
$DIMDSEP
 70
   44
  9
$DIMATFIT
 70
    3
  9
$DIMFRAC
 70
    0
  9
$DIMLDRBLK
  1
STANDARD
  9
$DIMLUNIT
 70
    2
  9
$DIMLWD
 70
   -2
  9
$DIMLWE
 70
   -2
  9
$DIMTMOVE
 70
    0
  9
$LUNITS
 70
    2
  9
$LUPREC
 70
    4
  9
$SKETCHINC
 40
1
  9
$FILLETRAD
 40
0
  9
$AUNITS
 70
    0
  9
$AUPREC
 70
    2
  9
$MENU
  1
.
  9
$ELEVATION
 40
0
  9
$PELEVATION
 40
0
  9
$THICKNESS
 40
0
  9
$LIMCHECK
 70
    0
  9
$CHAMFERA
 40
0
  9
$CHAMFERB
 40
0
  9
$CHAMFERC
 40
0
  9
$CHAMFERD
 40
0
  9
$SKPOLY
 70
    0
  9
$USRTIMER
 70
    1
  9
$ANGBASE
 50
0
  9
$ANGDIR
 70
    0
  9
$PDMODE
 70
   34
  9
$PDSIZE
 40
0
  9
$PLINEWID
 40
0
  9
$SPLFRAME
 70
    0
  9
$SPLINETYPE
 70
    2
  9
$SPLINESEGS
 70
    8
  9
$HANDSEED
  5
20000
  9
$SURFTAB1
 70
    6
  9
$SURFTAB2
 70
    6
  9
$SURFTYPE
 70
    6
  9
$SURFU
 70
    6
  9
$SURFV
 70
    6
  9
$UCSBASE
  2

  9
$UCSNAME
  2

  9
$UCSORG
 10
0
 20
0
 30
0
  9
$UCSXDIR
 10
1
 20
0
 30
0
  9
$UCSYDIR
 10
0
 20
1
 30
0
  9
$UCSORTHOREF
  2

  9
$UCSORTHOVIEW
 70
    0
  9
$UCSORGTOP
 10
0
 20
0
 30
0
  9
$UCSORGBOTTOM
 10
0
 20
0
 30
0
  9
$UCSORGLEFT
 10
0
 20
0
 30
0
  9
$UCSORGRIGHT
 10
0
 20
0
 30
0
  9
$UCSORGFRONT
 10
0
 20
0
 30
0
  9
$UCSORGBACK
 10
0
 20
0
 30
0
  9
$PUCSBASE
  2

  9
$PUCSNAME
  2

  9
$PUCSORG
 10
0
 20
0
 30
0
  9
$PUCSXDIR
 10
1
 20
0
 30
0
  9
$PUCSYDIR
 10
0
 20
1
 30
0
  9
$PUCSORTHOREF
  2

  9
$PUCSORTHOVIEW
 70
    0
  9
$PUCSORGTOP
 10
0
 20
0
 30
0
  9
$PUCSORGBOTTOM
 10
0
 20
0
 30
0
  9
$PUCSORGLEFT
 10
0
 20
0
 30
0
  9
$PUCSORGRIGHT
 10
0
 20
0
 30
0
  9
$PUCSORGFRONT
 10
0
 20
0
 30
0
  9
$PUCSORGBACK
 10
0
 20
0
 30
0
  9
$USERI1
 70
    0
  9
$USERI2
 70
    0
  9
$USERI3
 70
    0
  9
$USERI4
 70
    0
  9
$USERI5
 70
    0
  9
$USERR1
 40
0
  9
$USERR2
 40
0
  9
$USERR3
 40
0
  9
$USERR4
 40
0
  9
$USERR5
 40
0
  9
$WORLDVIEW
 70
    1
  9
$SHADEDGE
 70
    3
  9
$SHADEDIF
 70
   70
  9
$TILEMODE
 70
    1
  9
$MAXACTVP
 70
   64
  9
$PINSBASE
 10
0
 20
0
 30
0
  9
$PLIMCHECK
 70
    0
  9
$PEXTMIN
 10
0
 20
0
 30
0
  9
$PEXTMAX
 10
0
 20
0
 30
0
  9
$PLIMMIN
 10
0
 20
0
  9
$PLIMMAX
 10
297
 20
210
  9
$UNITMODE
 70
    0
  9
$VISRETAIN
 70
    1
  9
$PLINEGEN
 70
    0
  9
$PSLTSCALE
 70
    1
  9
$TREEDEPTH
 70
 3020
  9
$CMLSTYLE
  2
Standard
  9
$CMLJUST
 70
    0
  9
$CMLSCALE
 40
20
  9
$PROXYGRAPHICS
 70
    1
  9
$MEASUREMENT
 70
    1
  9
$CELWEIGHT
370
   -1
  9
$ENDCAPS
280
    0
  9
$JOINSTYLE
280
    0
  9
$LWDISPLAY
290
    0
  9
$INSUNITS
 70
    0
  9
$HYPERLINKBASE
  1

  9
$STYLESHEET
  1

  9
$XEDIT
290
    1
  9
$CEPSNTYPE
380
    0
  9
$PSTYLEMODE
290
    1
  9
$EXTNAMES
290
    1
  9
$PSVPSCALE
 40
0
  9
$OLESTARTUP
290
    0
  9
$SORTENTS
280
  127
  9
$INDEXCTL
280
    0
  9
$HIDETEXT
280
    1
  9
$XCLIPFRAME
290
    0
  9
$HALOGAP
280
    0
  9
$OBSCOLOR
 70
  257
  9
$OBSLTYPE
280
    0
  9
$INTERSECTIONDISPLAY
280
    0
  9
$INTERSECTIONCOLOR
 70
  257
  9
$DIMASSOC
280
    1
  9
$PROJECTNAME
  1

  0
ENDSEC
  0
SECTION
  2
CLASSES
  0
ENDSEC
  0
SECTION
  2
TABLES
  0
TABLE
  2
VPORT
  5
8
330
0
100
AcDbSymbolTable
 70
    1
  0
VPORT
  5
31
330
2
100
AcDbSymbolTableRecord
100
AcDbViewportTableRecord
  2
*ACTIVE
 70
    0
 10
0
 20
0
 11
1
 21
1
 12
0.651828
 22
-0.16
 13
0
 23
0
 14
10
 24
10
 15
10
 25
10
 16
0
 26
0
 36
1
 17
0
 27
0
 37
0
 40
5.13732
 41
2.4426877
 42
50
 43
0
 44
0
 50
0
 51
0
 71
    0
 72
  100
 73
    1
 74
    3
 75
    0
 76
    0
 77
    0
 78
    0
281
    0
 65
    1
110
0
120
0
130
0
111
1
121
0
131
0
112
0
122
1
132
0
 79
    0
146
0
  0
ENDTAB
  0
TABLE
  2
LTYPE
  5
5
330
0
100
AcDbSymbolTable
 70
    4
  0
LTYPE
  5
14
330
5
100
AcDbSymbolTableRecord
100
AcDbLinetypeTableRecord
  2
ByBlock
 70
    0
  3

 72
   65
 73
    0
 40
0
  0
LTYPE
  5
15
330
5
100
AcDbSymbolTableRecord
100
AcDbLinetypeTableRecord
  2
ByLayer
 70
    0
  3

 72
   65
 73
    0
 40
0
  0
LTYPE
  5
16
330
5
100
AcDbSymbolTableRecord
100
AcDbLinetypeTableRecord
  2
Continuous
 70
    0
  3
Solid line
 72
   65
 73
    0
 40
0
  0
ENDTAB
  0
TABLE
  2
LAYER
  5
2
330
0
100
AcDbSymbolTable
 70
    1
  0
LAYER
  5
10
330
2
100
AcDbSymbolTableRecord
100
AcDbLayerTableRecord
  2
0
 70
    0
 62
    7
  6
CONTINUOUS
370
   -3
390
F
  0
ENDTAB
  0
TABLE
  2
STYLE
  5
3
330
0
100
AcDbSymbolTable
 70
    3
  0
STYLE
  5
32
330
2
100
AcDbSymbolTableRecord
100
AcDbTextStyleTableRecord
  2
Standard
 70
    0
 40
0
 41
1
 50
0
 71
    0
 42
1
  3
txt
  4

  0
ENDTAB
  0
TABLE
  2
VIEW
  5
6
330
0
100
AcDbSymbolTable
 70
    0
  0
ENDTAB
  0
TABLE
  2
UCS
  5
7
330
0
100
AcDbSymbolTable
 70
    0
  0
ENDTAB
  0
TABLE
  2
APPID
  5
9
330
0
100
AcDbSymbolTable
 70
    1
  0
APPID
  5
12
330
9
100
AcDbSymbolTableRecord
100
AcDbRegAppTableRecord
  2
ACAD
 70
    0
  0
ENDTAB
  0
TABLE
  2
DIMSTYLE
  5
A
330
0
100
AcDbSymbolTable
 70
    1
100
AcDbDimStyleTable
 71
    1
  0
DIMSTYLE
105
33
330
A
100
AcDbSymbolTableRecord
100
AcDbDimStyleTableRecord
  2
Standard
 70
    0
 40
1
 41
2.5
 42
0.625
 43
3.75
 44
1.25
 45
0
 46
0
 47
0
 48
0
140
2.5
141
2.5
142
0
143
0.03937007874015748
144
1
145
0
146
1
147
0.625
148
0
 71
    0
 72
    0
 73
    0
 74
    0
 75
    0
 76
    0
 77
    1
 78
    8
 79
    0
170
    0
171
    3
172
    1
173
    0
174
    0
175
    0
176
    0
177
    0
178
    0
179
    0
271
    2
272
    2
273
    2
274
    3
275
    0
276
    0
277
    2
278
   44
279
    0
280
    0
281
    0
282
    0
283
    0
284
    8
285
    0
286
    0
288
    0
289
    3
341

371
   -2
372
   -2
  0
ENDTAB
  0
TABLE
  2
BLOCK_RECORD
  5
1
330
0
100
AcDbSymbolTable
 70
    2
  0
BLOCK_RECORD
  5
1F
330
1
100
AcDbSymbolTableRecord
100
AcDbBlockTableRecord
  2
*Model_Space
  0
BLOCK_RECORD
  5
1E
330
1
100
AcDbSymbolTableRecord
100
AcDbBlockTableRecord
  2
*Paper_Space
  0
ENDTAB
  0
ENDSEC
  0
SECTION
  2
BLOCKS
  0
BLOCK
  5
20
330
1F
100
AcDbEntity
  8
0
100
AcDbBlockBegin
  2
*Model_Space
 70
    0
 10
0
 20
0
 30
0
  3
*Model_Space
  1

  0
ENDBLK
  5
21
330
1F
100
AcDbEntity
  8
0
100
AcDbBlockEnd
  0
BLOCK
  5
1C
330
1B
100
AcDbEntity
  8
0
100
AcDbBlockBegin
  2
*Paper_Space
 70
    0
 10
0
 20
0
 30
0
  3
*Paper_Space
  1

  0
ENDBLK
  5
1D
330
1F
100
AcDbEntity
  8
0
100
AcDbBlockEnd
  0
ENDSEC
  0
SECTION
  2
ENTITIES
  0
LINE
  5
34
100
AcDbEntity
  8
0
  6
BYLAYER
 62
  256
420
    0
370
   -1
100
AcDbLine
 10
1.585559538474708
 20
3.880997364108778
 11
10.35900875175661
 21
8.662258151459715
  0
LINE
  5
35
100
AcDbEntity
  8
0
  6
BYLAYER
 62
  256
420
    0
370
   -1
100
AcDbLine
 10
10.35900875175661
 20
8.662258151459715
 11
11.8187822969739
 21
9.615990647459361
  0
LINE
  5
36
100
AcDbEntity
  8
0
  6
BYLAYER
 62
  256
420
    0
370
   -1
100
AcDbLine
 10
11.8187822969739
 20
9.615990647459361
 11
13.0136832196831
 21
10.77431026674692
  0
LINE
  5
37
100
AcDbEntity
  8
0
  6
BYLAYER
 62
  256
420
    0
370
   -1
100
AcDbLine
 10
13.0136832196831
 20
10.77431026674692
 11
13.8254948273199
 21
12.09604022727933
  0
LINE
  5
38
100
AcDbEntity
  8
0
  6
BYLAYER
 62
  256
420
    0
370
   -1
100
AcDbLine
 10
13.8254948273199
 20
12.09604022727933
 11
14.16501344891511
 21
13.51191133997931
  0
LINE
  5
39
100
AcDbEntity
  8
0
  6
BYLAYER
 62
  256
420
    0
370
   -1
100
AcDbLine
 10
14.16501344891511
 20
13.51191133997931
 11
13.99559384791786
 21
14.93478957816939
  0
LINE
  5
3A
100
AcDbEntity
  8
0
  6
BYLAYER
 62
  256
420
    0
370
   -1
100
AcDbLine
 10
13.99559384791786
 20
14.93478957816939
 11
13.34338724138738
 21
16.27667632569691
  0
LINE
  5
3B
100
AcDbEntity
  8
0
  6
BYLAYER
 62
  256
420
    0
370
   -1
100
AcDbLine
 10
13.34338724138738
 20
16.27667632569691
 11
13.99559384791786
 21
14.93478957816939
  0
LINE
  5
3C
100
AcDbEntity
  8
0
  6
BYLAYER
 62
  256
420
    0
370
   -1
100
AcDbLine
 10
13.99559384791786
 20
14.93478957816939
 11
14.16501344891511
 21
13.51191133997931
  0
LINE
  5
3D
100
AcDbEntity
  8
0
  6
BYLAYER
 62
  256
420
    0
370
   -1
100
AcDbLine
 10
14.16501344891511
 20
13.51191133997931
 11
13.8254948273199
 21
12.09604022727933
  0
LINE
  5
3E
100
AcDbEntity
  8
0
  6
BYLAYER
 62
  256
420
    0
370
   -1
100
AcDbLine
 10
13.8254948273199
 20
12.09604022727933
 11
13.0136832196831
 21
10.77431026674692
  0
LINE
  5
3F
100
AcDbEntity
  8
0
  6
BYLAYER
 62
  256
420
    0
370
   -1
100
AcDbLine
 10
13.0136832196831
 20
10.77431026674692
 11
11.8187822969739
 21
9.615990647459361
  0
LINE
  5
40
100
AcDbEntity
  8
0
  6
BYLAYER
 62
  256
420
    0
370
   -1
100
AcDbLine
 10
11.8187822969739
 20
9.615990647459361
 11
10.35900875175661
 21
8.662258151459715
  0
LINE
  5
41
100
AcDbEntity
  8
0
  6
BYLAYER
 62
  256
420
    0
370
   -1
100
AcDbLine
 10
10.35900875175661
 20
8.662258151459715
 11
10.43512677185544
 21
0.497647155601868
  0
LINE
  5
42
100
AcDbEntity
  8
0
  6
BYLAYER
 62
  256
420
    0
370
   -1
100
AcDbLine
 10
10.43512677185544
 20
0.497647155601868
 11
11.89490031663786
 21
1.451379651259458
  0
LINE
  5
43
100
AcDbEntity
  8
0
  6
BYLAYER
 62
  256
420
    0
370
   -1
100
AcDbLine
 10
11.89490031663786
 20
1.451379651259458
 11
13.08980123978193
 21
2.609699270889072
  0
LINE
  5
44
100
AcDbEntity
  8
0
  6
BYLAYER
 62
  256
420
    0
370
   -1
100
AcDbLine
 10
13.08980123978193
 20
2.609699270889072
 11
13.90161284741873
 21
3.931429231421483
  0
LINE
  5
45
100
AcDbEntity
  8
0
  6
BYLAYER
 62
  256
420
    0
370
   -1
100
AcDbLine
 10
13.90161284741873
 20
3.931429231421483
 11
14.24113146901395
 21
5.347300344121459
  0
LINE
  5
46
100
AcDbEntity
  8
0
  6
BYLAYER
 62
  256
420
    0
370
   -1
100
AcDbLine
 10
14.24113146901395
 20
5.347300344121459
 11
13.90161284741873
 21
3.931429231421483
  0
LINE
  5
47
100
AcDbEntity
  8
0
  6
BYLAYER
 62
  256
420
    0
370
   -1
100
AcDbLine
 10
13.90161284741873
 20
3.931429231421483
 11
13.08980123978193
 21
2.609699270889072
  0
LINE
  5
48
100
AcDbEntity
  8
0
  6
BYLAYER
 62
  256
420
    0
370
   -1
100
AcDbLine
 10
13.08980123978193
 20
2.609699270889072
 11
11.89490031663786
 21
1.451379651259458
  0
LINE
  5
49
100
AcDbEntity
  8
0
  6
BYLAYER
 62
  256
420
    0
370
   -1
100
AcDbLine
 10
11.89490031663786
 20
1.451379651259458
 11
10.43512677185544
 21
0.497647155601868
  0
LINE
  5
4A
100
AcDbEntity
  8
0
  6
BYLAYER
 62
  256
420
    0
370
   -1
100
AcDbLine
 10
10.43512677185544
 20
0.497647155601868
 11
1.66167755857354
 21
-4.283613631749073
  0
LINE
  5
4B
100
AcDbEntity
  8
0
  6
BYLAYER
 62
  256
420
    0
370
   -1
100
AcDbLine
 10
1.66167755857354
 20
-4.283613631749073
 11
10.43512677185544
 21
0.497647155601868
  0
LINE
  5
4C
100
AcDbEntity
  8
0
  6
BYLAYER
 62
  256
420
    0
370
   -1
100
AcDbLine
 10
10.43512677185544
 20
0.497647155601868
 11
10.35900875175661
 21
8.662258151459715
  0
LINE
  5
4D
100
AcDbEntity
  8
0
  6
BYLAYER
 62
  256
420
    0
370
   -1
100
AcDbLine
 10
10.35900875175661
 20
8.662258151459715
 11
1.585559538474708
 21
3.880997364108778
  0
LINE
  5
4E
100
AcDbEntity
  8
0
  6
BYLAYER
 62
  256
420
    0
370
   -1
100
AcDbLine
 10
9.625826441233848
 20
11.68140868449292
 11
7.800737744255837
 21
10.22937285489228
  0
LINE
  5
4F
100
AcDbEntity
  8
0
  6
BYLAYER
 62
  256
420
    0
370
   -1
100
AcDbLine
 10
7.800737744255837
 20
10.22937285489228
 11
9.625826441233848
 21
11.68140868449292
  0
LINE
  5
50
100
AcDbEntity
  8
0
  6
BYLAYER
 62
  256
420
    0
370
   -1
100
AcDbLine
 10
10.41736597355231
 20
13.5635094219995
 11
9.625826441233848
 21
11.68140868449292
  0
LINE
  5
51
100
AcDbEntity
  8
0
  6
BYLAYER
 62
  256
420
    0
370
   -1
100
AcDbLine
 10
9.625826441233848
 20
11.68140868449292
 11
10.41736597355231
 21
13.5635094219995
  0
LINE
  5
52
100
AcDbEntity
  8
0
  6
BYLAYER
 62
  256
420
    0
370
   -1
100
AcDbLine
 10
9.852497955876139
 20
15.46428534968159
 11
10.41736597355231
 21
13.5635094219995
  0
LINE
  5
53
100
AcDbEntity
  8
0
  6
BYLAYER
 62
  256
420
    0
370
   -1
100
AcDbLine
 10
10.41736597355231
 20
13.5635094219995
 11
9.852497955876139
 21
15.46428534968159
  0
LINE
  5
54
100
AcDbEntity
  8
0
  6
BYLAYER
 62
  256
420
    0
370
   -1
100
AcDbLine
 10
13.34338724138738
 20
16.27667632569691
 11
12.28915580327868
 21
17.46596228269233
  0
LINE
  5
55
100
AcDbEntity
  8
0
  6
BYLAYER
 62
  256
420
    0
370
   -1
100
AcDbLine
 10
12.28915580327868
 20
17.46596228269233
 11
13.34338724138738
 21
16.27667632569691
  0
LINE
  5
56
100
AcDbEntity
  8
0
  6
BYLAYER
 62
  256
420
    0
370
   -1
100
AcDbLine
 10
8.204287861885451
 20
16.9641419937477
 11
9.852497955876139
 21
15.46428534968159
  0
LINE
  5
57
100
AcDbEntity
  8
0
  6
BYLAYER
 62
  256
420
    0
370
   -1
100
AcDbLine
 10
9.852497955876139
 20
15.46428534968159
 11
8.204287861885451
 21
16.9641419937477
  0
LINE
  5
58
100
AcDbEntity
  8
0
  6
BYLAYER
 62
  256
420
    0
370
   -1
100
AcDbLine
 10
7.800737744255837
 20
10.22937285489228
 11
5.185318610928086
 21
9.261468082969017
  0
LINE
  5
59
100
AcDbEntity
  8
0
  6
BYLAYER
 62
  256
420
    0
370
   -1
100
AcDbLine
 10
5.185318610928086
 20
9.261468082969017
 11
7.800737744255837
 21
10.22937285489228
  0
LINE
  5
5A
100
AcDbEntity
  8
0
  6
BYLAYER
 62
  256
420
    0
370
   -1
100
AcDbLine
 10
5.185318610928086
 20
9.261468082969017
 11
1.887188503029617
 21
8.914824274633379
  0
LINE
  5
5B
100
AcDbEntity
  8
0
  6
BYLAYER
 62
  256
420
    0
370
   -1
100
AcDbLine
 10
1.887188503029617
 20
8.914824274633379
 11
5.185318610928086
 21
9.261468082969017
  0
LINE
  5
5C
100
AcDbEntity
  8
0
  6
BYLAYER
 62
  256
420
    0
370
   -1
100
AcDbLine
 10
12.28915580327868
 20
17.46596228269233
 11
10.94599074103605
 21
18.45828598979487
  0
LINE
  5
5D
100
AcDbEntity
  8
0
  6
BYLAYER
 62
  256
420
    0
370
   -1
100
AcDbLine
 10
10.94599074103605
 20
18.45828598979487
 11
12.28915580327868
 21
17.46596228269233
  0
LINE
  5
5E
100
AcDbEntity
  8
0
  6
BYLAYER
 62
  256
420
    0
370
   -1
100
AcDbLine
 10
5.709079451945859
 20
18.00241052892418
 11
8.204287861885451
 21
16.9641419937477
  0
LINE
  5
5F
100
AcDbEntity
  8
0
  6
BYLAYER
 62
  256
420
    0
370
   -1
100
AcDbLine
 10
8.204287861885451
 20
16.9641419937477
 11
5.709079451945859
 21
18.00241052892418
  0
LINE
  5
60
100
AcDbEntity
  8
0
  6
BYLAYER
 62
  256
420
    0
370
   -1
100
AcDbLine
 10
10.94599074103605
 20
18.45828598979487
 11
9.309886673531119
 21
19.29096692244049
  0
LINE
  5
61
100
AcDbEntity
  8
0
  6
BYLAYER
 62
  256
420
    0
370
   -1
100
AcDbLine
 10
9.309886673531119
 20
19.29096692244049
 11
10.94599074103605
 21
18.45828598979487
  0
LINE
  5
62
100
AcDbEntity
  8
0
  6
BYLAYER
 62
  256
420
    0
370
   -1
100
AcDbLine
 10
2.457894552478672
 20
18.43922613025448
 11
5.709079451945859
 21
18.00241052892418
  0
LINE
  5
63
100
AcDbEntity
  8
0
  6
BYLAYER
 62
  256
420
    0
370
   -1
100
AcDbLine
 10
5.709079451945859
 20
18.00241052892418
 11
2.457894552478672
 21
18.43922613025448
  0
LINE
  5
64
100
AcDbEntity
  8
0
  6
BYLAYER
 62
  256
420
    0
370
   -1
100
AcDbLine
 10
9.309886673531119
 20
19.29096692244049
 11
7.316596691068708
 21
19.96849476800476
  0
LINE
  5
65
100
AcDbEntity
  8
0
  6
BYLAYER
 62
  256
420
    0
370
   -1
100
AcDbLine
 10
7.316596691068708
 20
19.96849476800476
 11
9.309886673531119
 21
19.29096692244049
  0
LINE
  5
66
100
AcDbEntity
  8
0
  6
BYLAYER
 62
  256
420
    0
370
   -1
100
AcDbLine
 10
5.785197472634042
 20
9.837799532908536
 11
6.235895644423088
 21
9.650261799064147
  0
LINE
  5
67
100
AcDbEntity
  8
0
  6
BYLAYER
 62
  256
420
    0
370
   -1
100
AcDbLine
 10
6.235895644423088
 20
9.650261799064147
 11
5.785197472634042
 21
9.837799532908536
  0
LINE
  5
68
100
AcDbEntity
  8
0
  6
BYLAYER
 62
  256
420
    0
370
   -1
100
AcDbLine
 10
7.316596691068708
 20
19.96849476800476
 11
5.036164426433924
 21
20.42304846067544
  0
LINE
  5
69
100
AcDbEntity
  8
0
  6
BYLAYER
 62
  256
420
    0
370
   -1
100
AcDbLine
 10
5.036164426433924
 20
20.42304846067544
 11
7.316596691068708
 21
19.96849476800476
  0
LINE
  5
6A
100
AcDbEntity
  8
0
  6
BYLAYER
 62
  256
420
    0
370
   -1
100
AcDbLine
 10
-0.8402355554197971
 20
18.09258232191884
 11
2.457894552478672
 21
18.43922613025448
  0
LINE
  5
6B
100
AcDbEntity
  8
0
  6
BYLAYER
 62
  256
420
    0
370
   -1
100
AcDbLine
 10
2.457894552478672
 20
18.43922613025448
 11
-0.8402355554197971
 21
18.09258232191884
  0
LINE
  5
6C
100
AcDbEntity
  8
0
  6
BYLAYER
 62
  256
420
    0
370
   -1
100
AcDbLine
 10
2.534012572577506
 20
10.27461513439664
 11
5.785197472634042
 21
9.837799532908536
  0
LINE
  5
6D
100
AcDbEntity
  8
0
  6
BYLAYER
 62
  256
420
    0
370
   -1
100
AcDbLine
 10
5.785197472634042
 20
9.837799532908536
 11
2.534012572577506
 21
10.27461513439664
  0
LINE
  5
6E
100
AcDbEntity
  8
0
  6
BYLAYER
 62
  256
420
    0
370
   -1
100
AcDbLine
 10
-3.455654688747547
 20
17.12467754999558
 11
-0.8402355554197971
 21
18.09258232191884
  0
LINE
  5
6F
100
AcDbEntity
  8
0
  6
BYLAYER
 62
  256
420
    0
370
   -1
100
AcDbLine
 10
-0.8402355554197971
 20
18.09258232191884
 11
-3.455654688747547
 21
17.12467754999558
  0
LINE
  5
70
100
AcDbEntity
  8
0
  6
BYLAYER
 62
  256
420
    0
370
   -1
100
AcDbLine
 10
5.036164426433924
 20
20.42304846067544
 11
2.587600472808009
 21
20.60386291562291
  0
LINE
  5
71
100
AcDbEntity
  8
0
  6
BYLAYER
 62
  256
420
    0
370
   -1
100
AcDbLine
 10
2.587600472808009
 20
20.60386291562291
 11
5.036164426433924
 21
20.42304846067544
  0
LINE
  5
72
100
AcDbEntity
  8
0
  6
BYLAYER
 62
  256
420
    0
370
   -1
100
AcDbLine
 10
2.534012572577506
 20
10.27461513439664
 11
1.526939146804535
 21
10.16876856191925
  0
LINE
  5
73
100
AcDbEntity
  8
0
  6
BYLAYER
 62
  256
420
    0
370
   -1
100
AcDbLine
 10
1.526939146804535
 20
10.16876856191925
 11
2.534012572577506
 21
10.27461513439664
  0
LINE
  5
74
100
AcDbEntity
  8
0
  6
BYLAYER
 62
  256
420
    0
370
   -1
100
AcDbLine
 10
-8.718637428443131
 20
5.651009675138088
 11
1.517053320385752
 21
11.22914726038084
  0
LINE
  5
75
100
AcDbEntity
  8
0
  6
BYLAYER
 62
  256
420
    0
370
   -1
100
AcDbLine
 10
1.517053320385752
 20
11.22914726038084
 11
-14.85588112761917
 21
21.25868136234928
  0
LINE
  5
76
100
AcDbEntity
  8
0
  6
BYLAYER
 62
  256
420
    0
370
   -1
100
AcDbLine
 10
-14.85588112761917
 20
21.25868136234928
 11
1.517053320385752
 21
11.22914726038084
  0
LINE
  5
77
100
AcDbEntity
  8
0
  6
BYLAYER
 62
  256
420
    0
370
   -1
100
AcDbLine
 10
1.517053320385752
 20
11.22914726038084
 11
1.585559538474708
 21
3.880997364108778
  0
LINE
  5
78
100
AcDbEntity
  8
0
  6
BYLAYER
 62
  256
420
    0
370
   -1
100
AcDbLine
 10
1.585559538474708
 20
3.880997364108778
 11
1.517053320385752
 21
11.22914726038084
  0
LINE
  5
79
100
AcDbEntity
  8
0
  6
BYLAYER
 62
  256
420
    0
370
   -1
100
AcDbLine
 10
1.517053320385752
 20
11.22914726038084
 11
-8.718637428443131
 21
5.651009675138088
  0
LINE
  5
7A
100
AcDbEntity
  8
0
  6
BYLAYER
 62
  256
420
    0
370
   -1
100
AcDbLine
 10
-8.718637428443131
 20
5.651009675138088
 11
-13.49407664244457
 21
8.57629045487888
  0
LINE
  5
7B
100
AcDbEntity
  8
0
  6
BYLAYER
 62
  256
420
    0
370
   -1
100
AcDbLine
 10
-13.49407664244457
 20
8.57629045487888
 11
-13.28094618616783
 21
-14.2846203335231
  0
LINE
  5
7C
100
AcDbEntity
  8
0
  6
BYLAYER
 62
  256
420
    0
370
   -1
100
AcDbLine
 10
-13.28094618616783
 20
-14.2846203335231
 11
-8.505506972166398
 21
-17.2099011132639
  0
LINE
  5
7D
100
AcDbEntity
  8
0
  6
BYLAYER
 62
  256
420
    0
370
   -1
100
AcDbLine
 10
-8.505506972166398
 20
-17.2099011132639
 11
-8.718637428443131
 21
5.651009675138088
  0
LINE
  5
7E
100
AcDbEntity
  8
0
  6
BYLAYER
 62
  256
420
    0
370
   -1
100
AcDbLine
 10
-13.28094618616783
 20
-14.2846203335231
 11
-13.49407664244457
 21
8.57629045487888
  0
LINE
  5
7F
100
AcDbEntity
  8
0
  6
BYLAYER
 62
  256
420
    0
370
   -1
100
AcDbLine
 10
-13.49407664244457
 20
8.57629045487888
 11
-20.80528432017949
 21
4.591906465419763
  0
LINE
  5
80
100
AcDbEntity
  8
0
  6
BYLAYER
 62
  256
420
    0
370
   -1
100
AcDbLine
 10
-20.80528432017949
 20
4.591906465419763
 11
-27.62734034018154
 21
8.770879007906611
  0
LINE
  5
81
100
AcDbEntity
  8
0
  6
BYLAYER
 62
  256
420
    0
370
   -1
100
AcDbLine
 10
-27.62734034018154
 20
8.770879007906611
 11
-30.02859740321602
 21
7.140847181884913
  0
LINE
  5
82
100
AcDbEntity
  8
0
  6
BYLAYER
 62
  256
420
    0
370
   -1
100
AcDbLine
 10
-30.02859740321602
 20
7.140847181884913
 11
-32.3534392060046
 21
4.89026345635482
  0
LINE
  5
83
100
AcDbEntity
  8
0
  6
BYLAYER
 62
  256
420
    0
370
   -1
100
AcDbLine
 10
-32.3534392060046
 20
4.89026345635482
 11
-30.02859740321602
 21
7.140847181884913
  0
LINE
  5
84
100
AcDbEntity
  8
0
  6
BYLAYER
 62
  256
420
    0
370
   -1
100
AcDbLine
 10
-30.02859740321602
 20
7.140847181884913
 11
-27.62734034018154
 21
8.770879007906611
  0
LINE
  5
85
100
AcDbEntity
  8
0
  6
BYLAYER
 62
  256
420
    0
370
   -1
100
AcDbLine
 10
-27.62734034018154
 20
8.770879007906611
 11
-20.31613266244662
 21
12.75526299736573
  0
LINE
  5
86
100
AcDbEntity
  8
0
  6
BYLAYER
 62
  256
420
    0
370
   -1
100
AcDbLine
 10
-20.31613266244662
 20
12.75526299736573
 11
-25.09157187644806
 21
15.68054377710652
  0
LINE
  5
87
100
AcDbEntity
  8
0
  6
BYLAYER
 62
  256
420
    0
370
   -1
100
AcDbLine
 10
-25.09157187644806
 20
15.68054377710652
 11
-25.04029762344457
 21
10.18073795802292
  0
LINE
  5
88
100
AcDbEntity
  8
0
  6
BYLAYER
 62
  256
420
    0
370
   -1
100
AcDbLine
 10
-25.04029762344457
 20
10.18073795802292
 11
-25.09157187644806
 21
15.68054377710652
  0
LINE
  5
89
100
AcDbEntity
  8
0
  6
BYLAYER
 62
  256
420
    0
370
   -1
100
AcDbLine
 10
-25.09157187644806
 20
15.68054377710652
 11
-14.85588112761917
 21
21.25868136234928
  0
LINE
  5
8A
100
AcDbEntity
  8
0
  6
BYLAYER
 62
  256
420
    0
370
   -1
100
AcDbLine
 10
-14.85588112761917
 20
21.25868136234928
 11
-25.09157187644806
 21
15.68054377710652
  0
LINE
  5
8B
100
AcDbEntity
  8
0
  6
BYLAYER
 62
  256
420
    0
370
   -1
100
AcDbLine
 10
-25.09157187644806
 20
15.68054377710652
 11
-20.31613266244662
 21
12.75526299736573
  0
LINE
  5
8C
100
AcDbEntity
  8
0
  6
BYLAYER
 62
  256
420
    0
370
   -1
100
AcDbLine
 10
-20.31613266244662
 20
12.75526299736573
 11
-27.62734034018154
 21
8.770879007906611
  0
LINE
  5
8D
100
AcDbEntity
  8
0
  6
BYLAYER
 62
  256
420
    0
370
   -1
100
AcDbLine
 10
-27.62734034018154
 20
8.770879007906611
 11
-20.80528432017949
 21
4.591906465419763
  0
LINE
  5
8E
100
AcDbEntity
  8
0
  6
BYLAYER
 62
  256
420
    0
370
   -1
100
AcDbLine
 10
-20.80528432017949
 20
4.591906465419763
 11
-13.49407664244457
 21
8.57629045487888
  0
LINE
  5
8F
100
AcDbEntity
  8
0
  6
BYLAYER
 62
  256
420
    0
370
   -1
100
AcDbLine
 10
-13.49407664244457
 20
8.57629045487888
 11
-8.718637428443131
 21
5.651009675138088
  0
LINE
  5
90
100
AcDbEntity
  8
0
  6
BYLAYER
 62
  256
420
    0
370
   -1
100
AcDbLine
 10
-8.718637428443131
 20
5.651009675138088
 11
-8.505506972166398
 21
-17.2099011132639
  0
LINE
  5
91
100
AcDbEntity
  8
0
  6
BYLAYER
 62
  256
420
    0
370
   -1
100
AcDbLine
 10
-8.505506972166398
 20
-17.2099011132639
 11
-13.28094618616783
 21
-14.2846203335231
  0
LINE
  5
92
100
AcDbEntity
  8
0
  6
BYLAYER
 62
  256
420
    0
370
   -1
100
AcDbLine
 10
1.538192421323559
 20
8.96171392810013
 11
1.887188503029617
 21
8.914824274633379
  0
LINE
  5
93
100
AcDbEntity
  8
0
  6
BYLAYER
 62
  256
420
    0
370
   -1
100
AcDbLine
 10
1.887188503029617
 20
8.914824274633379
 11
1.538192421323559
 21
8.96171392810013
  0
LINE
  5
94
100
AcDbEntity
  8
0
  6
BYLAYER
 62
  256
420
    0
370
   -1
100
AcDbLine
 10
1.66167755857354
 20
-4.283613631749073
 11
1.730183776662496
 21
-11.63176352802114
  0
LINE
  5
95
100
AcDbEntity
  8
0
  6
BYLAYER
 62
  256
420
    0
370
   -1
100
AcDbLine
 10
1.730183776662496
 20
-11.63176352802114
 11
-8.505506972166398
 21
-17.2099011132639
  0
LINE
  5
96
100
AcDbEntity
  8
0
  6
BYLAYER
 62
  256
420
    0
370
   -1
100
AcDbLine
 10
-8.505506972166398
 20
-17.2099011132639
 11
1.730183776662496
 21
-11.63176352802114
  0
LINE
  5
97
100
AcDbEntity
  8
0
  6
BYLAYER
 62
  256
420
    0
370
   -1
100
AcDbLine
 10
1.730183776662496
 20
-11.63176352802114
 11
1.66167755857354
 21
-4.283613631749073
  0
LINE
  5
98
100
AcDbEntity
  8
0
  6
BYLAYER
 62
  256
420
    0
370
   -1
100
AcDbLine
 10
-8.475538926580311
 20
17.35028852716358
 11
-6.013925696248318
 21
18.69179225342815
  0
LINE
  5
99
100
AcDbEntity
  8
0
  6
BYLAYER
 62
  256
420
    0
370
   -1
100
AcDbLine
 10
-6.013925696248318
 20
18.69179225342815
 11
-8.475538926580311
 21
17.35028852716358
  0
LINE
  5
9A
100
AcDbEntity
  8
0
  6
BYLAYER
 62
  256
420
    0
370
   -1
100
AcDbLine
 10
-5.280743385725559
 20
15.67264172039494
 11
-5.37417168485612
 21
15.45049050302925
  0
LINE
  5
9B
100
AcDbEntity
  8
0
  6
BYLAYER
 62
  256
420
    0
370
   -1
100
AcDbLine
 10
-5.37417168485612
 20
15.45049050302925
 11
-5.280743385725559
 21
15.67264172039494
  0
LINE
  5
9C
100
AcDbEntity
  8
0
  6
BYLAYER
 62
  256
420
    0
370
   -1
100
AcDbLine
 10
-4.280812042906352
 20
19.47808537229353
 11
-6.013925696248318
 21
18.69179225342815
  0
LINE
  5
9D
100
AcDbEntity
  8
0
  6
BYLAYER
 62
  256
420
    0
370
   -1
100
AcDbLine
 10
-6.013925696248318
 20
18.69179225342815
 11
-4.280812042906352
 21
19.47808537229353
  0
LINE
  5
9E
100
AcDbEntity
  8
0
  6
BYLAYER
 62
  256
420
    0
370
   -1
100
AcDbLine
 10
2.587600472808009
 20
20.60386291562291
 11
0.1214221888625646
 21
20.49071525024128
  0
LINE
  5
9F
100
AcDbEntity
  8
0
  6
BYLAYER
 62
  256
420
    0
370
   -1
100
AcDbLine
 10
0.1214221888625646
 20
20.49071525024128
 11
2.587600472808009
 21
20.60386291562291
  0
LINE
  5
A0
100
AcDbEntity
  8
0
  6
BYLAYER
 62
  256
420
    0
370
   -1
100
AcDbLine
 10
0.1214221888625646
 20
20.49071525024128
 11
-2.209679684132079
 21
20.09965373986272
  0
LINE
  5
A1
100
AcDbEntity
  8
0
  6
BYLAYER
 62
  256
420
    0
370
   -1
100
AcDbLine
 10
-2.209679684132079
 20
20.09965373986272
 11
0.1214221888625646
 21
20.49071525024128
  0
LINE
  5
A2
100
AcDbEntity
  8
0
  6
BYLAYER
 62
  256
420
    0
370
   -1
100
AcDbLine
 10
-5.280743385725559
 20
15.67264172039494
 11
-3.455654688747547
 21
17.12467754999558
  0
LINE
  5
A3
100
AcDbEntity
  8
0
  6
BYLAYER
 62
  256
420
    0
370
   -1
100
AcDbLine
 10
-3.455654688747547
 20
17.12467754999558
 11
-5.280743385725559
 21
15.67264172039494
  0
LINE
  5
A4
100
AcDbEntity
  8
0
  6
BYLAYER
 62
  256
420
    0
370
   -1
100
AcDbLine
 10
-4.280812042906352
 20
19.47808537229353
 11
-2.209679684132079
 21
20.09965373986272
  0
LINE
  5
A5
100
AcDbEntity
  8
0
  6
BYLAYER
 62
  256
420
    0
370
   -1
100
AcDbLine
 10
-2.209679684132079
 20
20.09965373986272
 11
-4.280812042906352
 21
19.47808537229353
  0
LINE
  5
A6
100
AcDbEntity
  8
0
  6
BYLAYER
 62
  256
420
    0
370
   -1
100
AcDbLine
 10
-15.28283371212508
 20
-1.470561941944819
 11
-14.84975294985318
 21
-3.651041737213934
  0
LINE
  5
A7
100
AcDbEntity
  8
0
  6
BYLAYER
 62
  256
420
    0
370
   -1
100
AcDbLine
 10
-14.84975294985318
 20
-3.651041737213934
 11
-15.28283371212508
 21
-1.470561941944819
  0
LINE
  5
A8
100
AcDbEntity
  8
0
  6
BYLAYER
 62
  256
420
    0
370
   -1
100
AcDbLine
 10
-16.60593432451541
 20
0.03396046219396354
 11
-15.28283371212508
 21
-1.470561941944819
  0
LINE
  5
A9
100
AcDbEntity
  8
0
  6
BYLAYER
 62
  256
420
    0
370
   -1
100
AcDbLine
 10
-15.28283371212508
 20
-1.470561941944819
 11
-16.60593432451541
 21
0.03396046219396354
  0
LINE
  5
AA
100
AcDbEntity
  8
0
  6
BYLAYER
 62
  256
420
    0
370
   -1
100
AcDbLine
 10
-20.80528432017949
 20
4.591906465419763
 11
-23.20654138321397
 21
2.961874639398069
  0
LINE
  5
AB
100
AcDbEntity
  8
0
  6
BYLAYER
 62
  256
420
    0
370
   -1
100
AcDbLine
 10
-23.20654138321397
 20
2.961874639398069
 11
-20.80528432017949
 21
4.591906465419763
  0
LINE
  5
AC
100
AcDbEntity
  8
0
  6
BYLAYER
 62
  256
420
    0
370
   -1
100
AcDbLine
 10
-16.60593432451541
 20
0.03396046219396354
 11
-18.60236451436557
 21
0.4078434344645672
  0
LINE
  5
AD
100
AcDbEntity
  8
0
  6
BYLAYER
 62
  256
420
    0
370
   -1
100
AcDbLine
 10
-18.60236451436557
 20
0.4078434344645672
 11
-16.60593432451541
 21
0.03396046219396354
  0
LINE
  5
AE
100
AcDbEntity
  8
0
  6
BYLAYER
 62
  256
420
    0
370
   -1
100
AcDbLine
 10
-21.88580278956346
 20
-0.9205987563919899
 11
-22.06005990732601
 21
-2.100149580587519
  0
LINE
  5
AF
100
AcDbEntity
  8
0
  6
BYLAYER
 62
  256
420
    0
370
   -1
100
AcDbLine
 10
-22.06005990732601
 20
-2.100149580587519
 11
-21.88580278956346
 21
-0.9205987563919899
  0
LINE
  5
B0
100
AcDbEntity
  8
0
  6
BYLAYER
 62
  256
420
    0
370
   -1
100
AcDbLine
 10
-24.88008190662265
 20
-7.004404293115333
 11
-24.92137787852314
 21
-2.574894095325518
  0
LINE
  5
B1
100
AcDbEntity
  8
0
  6
BYLAYER
 62
  256
420
    0
370
   -1
100
AcDbLine
 10
-24.92137787852314
 20
-2.574894095325518
 11
-24.88008190662265
 21
-7.004404293115333
  0
LINE
  5
B2
100
AcDbEntity
  8
0
  6
BYLAYER
 62
  256
420
    0
370
   -1
100
AcDbLine
 10
-25.53138318600254
 20
0.7112909138679768
 11
-23.20654138321397
 21
2.961874639398069
  0
LINE
  5
B3
100
AcDbEntity
  8
0
  6
BYLAYER
 62
  256
420
    0
370
   -1
100
AcDbLine
 10
-23.20654138321397
 20
2.961874639398069
 11
-25.53138318600254
 21
0.7112909138679768
  0
LINE
  5
B4
100
AcDbEntity
  8
0
  6
BYLAYER
 62
  256
420
    0
370
   -1
100
AcDbLine
 10
-18.60236451436557
 20
0.4078434344645672
 11
-20.75961350812019
 21
-0.3068601320949433
  0
LINE
  5
B5
100
AcDbEntity
  8
0
  6
BYLAYER
 62
  256
420
    0
370
   -1
100
AcDbLine
 10
-20.75961350812019
 20
-0.3068601320949433
 11
-29.15955161343979
 21
-4.884568819157146
  0
LINE
  5
B6
100
AcDbEntity
  8
0
  6
BYLAYER
 62
  256
420
    0
370
   -1
100
AcDbLine
 10
-29.15955161343979
 20
-4.884568819157146
 11
-35.98160763344185
 21
-0.705596276670299
  0
LINE
  5
B7
100
AcDbEntity
  8
0
  6
BYLAYER
 62
  256
420
    0
370
   -1
100
AcDbLine
 10
-35.98160763344185
 20
-0.705596276670299
 11
-29.15955161343979
 21
-4.884568819157146
  0
LINE
  5
B8
100
AcDbEntity
  8
0
  6
BYLAYER
 62
  256
420
    0
370
   -1
100
AcDbLine
 10
-29.15955161343979
 20
-4.884568819157146
 11
-20.75961350812019
 21
-0.3068601320949433
  0
LINE
  5
B9
100
AcDbEntity
  8
0
  6
BYLAYER
 62
  256
420
    0
370
   -1
100
AcDbLine
 10
-20.75961350812019
 20
-0.3068601320949433
 11
-18.60236451436557
 21
0.4078434344645672
  0
LINE
  5
BA
100
AcDbEntity
  8
0
  6
BYLAYER
 62
  256
420
    0
370
   -1
100
AcDbLine
 10
-27.56952972657674
 20
-1.987183099768313
 11
-29.15955161343979
 21
-4.884568819157146
  0
LINE
  5
BB
100
AcDbEntity
  8
0
  6
BYLAYER
 62
  256
420
    0
370
   -1
100
AcDbLine
 10
-29.15955161343979
 20
-4.884568819157146
 11
-27.56952972657674
 21
-1.987183099768313
  0
LINE
  5
BC
100
AcDbEntity
  8
0
  6
BYLAYER
 62
  256
420
    0
370
   -1
100
AcDbLine
 10
-25.53138318600254
 20
0.7112909138679768
 11
-27.56952972657674
 21
-1.987183099768313
  0
LINE
  5
BD
100
AcDbEntity
  8
0
  6
BYLAYER
 62
  256
420
    0
370
   -1
100
AcDbLine
 10
-27.56952972657674
 20
-1.987183099768313
 11
-25.53138318600254
 21
0.7112909138679768
  0
LINE
  5
BE
100
AcDbEntity
  8
0
  6
BYLAYER
 62
  256
420
    0
370
   -1
100
AcDbLine
 10
-14.84975294985318
 20
-3.651041737213934
 11
-15.23800388732395
 21
-6.279122123074373
  0
LINE
  5
BF
100
AcDbEntity
  8
0
  6
BYLAYER
 62
  256
420
    0
370
   -1
100
AcDbLine
 10
-15.23800388732395
 20
-6.279122123074373
 11
-16.5198166154236
 21
-9.203242419280173
  0
LINE
  5
C0
100
AcDbEntity
  8
0
  6
BYLAYER
 62
  256
420
    0
370
   -1
100
AcDbLine
 10
-16.5198166154236
 20
-9.203242419280173
 11
-15.23800388732395
 21
-6.279122123074373
  0
LINE
  5
C1
100
AcDbEntity
  8
0
  6
BYLAYER
 62
  256
420
    0
370
   -1
100
AcDbLine
 10
-15.23800388732395
 20
-6.279122123074373
 11
-14.84975294985318
 21
-3.651041737213934
  0
LINE
  5
C2
100
AcDbEntity
  8
0
  6
BYLAYER
 62
  256
420
    0
370
   -1
100
AcDbLine
 10
-22.06005990732601
 20
-2.100149580587519
 11
-23.34187263542566
 21
-5.024269876793326
  0
LINE
  5
C3
100
AcDbEntity
  8
0
  6
BYLAYER
 62
  256
420
    0
370
   -1
100
AcDbLine
 10
-23.34187263542566
 20
-5.024269876793326
 11
-25.31118270302693
 21
-7.559359681727486
  0
LINE
  5
C4
100
AcDbEntity
  8
0
  6
BYLAYER
 62
  256
420
    0
370
   -1
100
AcDbLine
 10
-25.31118270302693
 20
-7.559359681727486
 11
-27.45988069596411
 21
-9.191265182980654
  0
LINE
  5
C5
100
AcDbEntity
  8
0
  6
BYLAYER
 62
  256
420
    0
370
   -1
100
AcDbLine
 10
-27.45988069596411
 20
-9.191265182980654
 11
-25.31118270302693
 21
-7.559359681727486
  0
LINE
  5
C6
100
AcDbEntity
  8
0
  6
BYLAYER
 62
  256
420
    0
370
   -1
100
AcDbLine
 10
-25.31118270302693
 20
-7.559359681727486
 11
-23.34187263542566
 21
-5.024269876793326
  0
LINE
  5
C7
100
AcDbEntity
  8
0
  6
BYLAYER
 62
  256
420
    0
370
   -1
100
AcDbLine
 10
-23.34187263542566
 20
-5.024269876793326
 11
-22.06005990732601
 21
-2.100149580587519
  0
LINE
  5
C8
100
AcDbEntity
  8
0
  6
BYLAYER
 62
  256
420
    0
370
   -1
100
AcDbLine
 10
-18.48912668302488
 20
-11.73833222421434
 11
-16.5198166154236
 21
-9.203242419280173
  0
LINE
  5
C9
100
AcDbEntity
  8
0
  6
BYLAYER
 62
  256
420
    0
370
   -1
100
AcDbLine
 10
-16.5198166154236
 20
-9.203242419280173
 11
-18.48912668302488
 21
-11.73833222421434
  0
LINE
  5
CA
100
AcDbEntity
  8
0
  6
BYLAYER
 62
  256
420
    0
370
   -1
100
AcDbLine
 10
-29.03776278128165
 20
-17.9479464125297
 11
-27.41006498755765
 21
-19.09177357593035
  0
LINE
  5
CB
100
AcDbEntity
  8
0
  6
BYLAYER
 62
  256
420
    0
370
   -1
100
AcDbLine
 10
-27.41006498755765
 20
-19.09177357593035
 11
-25.34246322840143
 21
-19.5527406671449
  0
LINE
  5
CC
100
AcDbEntity
  8
0
  6
BYLAYER
 62
  256
420
    0
370
   -1
100
AcDbLine
 10
-25.34246322840143
 20
-19.5527406671449
 11
-22.99937378441029
 21
-19.25944500319947
  0
LINE
  5
CD
100
AcDbEntity
  8
0
  6
BYLAYER
 62
  256
420
    0
370
   -1
100
AcDbLine
 10
-22.99937378441029
 20
-19.25944500319947
 11
-20.59215386390281
 21
-18.26900432298226
  0
LINE
  5
CE
100
AcDbEntity
  8
0
  6
BYLAYER
 62
  256
420
    0
370
   -1
100
AcDbLine
 10
-20.59215386390281
 20
-18.26900432298226
 11
-13.28094618616783
 21
-14.2846203335231
  0
LINE
  5
CF
100
AcDbEntity
  8
0
  6
BYLAYER
 62
  256
420
    0
370
   -1
100
AcDbLine
 10
-13.28094618616783
 20
-14.2846203335231
 11
-20.59215386390281
 21
-18.26900432298226
  0
LINE
  5
D0
100
AcDbEntity
  8
0
  6
BYLAYER
 62
  256
420
    0
370
   -1
100
AcDbLine
 10
-20.59215386390281
 20
-18.26900432298226
 11
-22.99937378441029
 21
-19.25944500319947
  0
LINE
  5
D1
100
AcDbEntity
  8
0
  6
BYLAYER
 62
  256
420
    0
370
   -1
100
AcDbLine
 10
-22.99937378441029
 20
-19.25944500319947
 11
-25.34246322840143
 21
-19.5527406671449
  0
LINE
  5
D2
100
AcDbEntity
  8
0
  6
BYLAYER
 62
  256
420
    0
370
   -1
100
AcDbLine
 10
-25.34246322840143
 20
-19.5527406671449
 11
-27.41006498755765
 21
-19.09177357593035
  0
LINE
  5
D3
100
AcDbEntity
  8
0
  6
BYLAYER
 62
  256
420
    0
370
   -1
100
AcDbLine
 10
-27.41006498755765
 20
-19.09177357593035
 11
-29.03776278128165
 21
-17.9479464125297
  0
LINE
  5
D4
100
AcDbEntity
  8
0
  6
BYLAYER
 62
  256
420
    0
370
   -1
100
AcDbLine
 10
-20.63782467596205
 20
-13.3702377254675
 11
-29.03776278128165
 21
-17.9479464125297
  0
LINE
  5
D5
100
AcDbEntity
  8
0
  6
BYLAYER
 62
  256
420
    0
370
   -1
100
AcDbLine
 10
-29.03776278128165
 20
-17.9479464125297
 11
-20.63782467596205
 21
-13.3702377254675
  0
LINE
  5
D6
100
AcDbEntity
  8
0
  6
BYLAYER
 62
  256
420
    0
370
   -1
100
AcDbLine
 10
-18.48912668302488
 20
-11.73833222421434
 11
-20.63782467596205
 21
-13.3702377254675
  0
LINE
  5
D7
100
AcDbEntity
  8
0
  6
BYLAYER
 62
  256
420
    0
370
   -1
100
AcDbLine
 10
-20.63782467596205
 20
-13.3702377254675
 11
-18.48912668302488
 21
-11.73833222421434
  0
LINE
  5
D8
100
AcDbEntity
  8
0
  6
BYLAYER
 62
  256
420
    0
370
   -1
100
AcDbLine
 10
-27.45988069596411
 20
-9.191265182980654
 11
-20.63782467596205
 21
-13.3702377254675
  0
LINE
  5
D9
100
AcDbEntity
  8
0
  6
BYLAYER
 62
  256
420
    0
370
   -1
100
AcDbLine
 10
-20.63782467596205
 20
-13.3702377254675
 11
-27.45988069596411
 21
-9.191265182980654
  0
LINE
  5
DA
100
AcDbEntity
  8
0
  6
BYLAYER
 62
  256
420
    0
370
   -1
100
AcDbLine
 10
-27.45988069596411
 20
-9.191265182980654
 11
-35.85981880128372
 21
-13.76897387004286
  0
LINE
  5
DB
100
AcDbEntity
  8
0
  6
BYLAYER
 62
  256
420
    0
370
   -1
100
AcDbLine
 10
-35.85981880128372
 20
-13.76897387004286
 11
-29.03776278128165
 21
-17.9479464125297
  0
LINE
  5
DC
100
AcDbEntity
  8
0
  6
BYLAYER
 62
  256
420
    0
370
   -1
100
AcDbLine
 10
-29.03776278128165
 20
-17.9479464125297
 11
-35.85981880128372
 21
-13.76897387004286
  0
LINE
  5
DD
100
AcDbEntity
  8
0
  6
BYLAYER
 62
  256
420
    0
370
   -1
100
AcDbLine
 10
-35.85981880128372
 20
-13.76897387004286
 11
-27.45988069596411
 21
-9.191265182980654
  0
LINE
  5
DE
100
AcDbEntity
  8
0
  6
BYLAYER
 62
  256
420
    0
370
   -1
100
AcDbLine
 10
-34.23212100755971
 20
-14.9128010334435
 11
-35.85981880128372
 21
-13.76897387004286
  0
LINE
  5
DF
100
AcDbEntity
  8
0
  6
BYLAYER
 62
  256
420
    0
370
   -1
100
AcDbLine
 10
-35.85981880128372
 20
-13.76897387004286
 11
-34.23212100755971
 21
-14.9128010334435
  0
LINE
  5
E0
100
AcDbEntity
  8
0
  6
BYLAYER
 62
  256
420
    0
370
   -1
100
AcDbLine
 10
14.16501344891511
 20
13.51191133997931
 11
14.24113146901395
 21
5.347300344121459
  0
LINE
  5
E1
100
AcDbEntity
  8
0
  6
BYLAYER
 62
  256
420
    0
370
   -1
100
AcDbLine
 10
14.24113146901395
 20
5.347300344121459
 11
13.90161284741873
 21
3.931429231421483
  0
LINE
  5
E2
100
AcDbEntity
  8
0
  6
BYLAYER
 62
  256
420
    0
370
   -1
100
AcDbLine
 10
13.90161284741873
 20
3.931429231421483
 11
13.08980123978193
 21
2.609699270889072
  0
LINE
  5
E3
100
AcDbEntity
  8
0
  6
BYLAYER
 62
  256
420
    0
370
   -1
100
AcDbLine
 10
13.08980123978193
 20
2.609699270889072
 11
11.89490031663786
 21
1.451379651259458
  0
LINE
  5
E4
100
AcDbEntity
  8
0
  6
BYLAYER
 62
  256
420
    0
370
   -1
100
AcDbLine
 10
11.89490031663786
 20
1.451379651259458
 11
10.43512677185544
 21
0.497647155601868
  0
LINE
  5
E5
100
AcDbEntity
  8
0
  6
BYLAYER
 62
  256
420
    0
370
   -1
100
AcDbLine
 10
10.43512677185544
 20
0.497647155601868
 11
1.66167755857354
 21
-4.283613631749073
  0
LINE
  5
E6
100
AcDbEntity
  8
0
  6
BYLAYER
 62
  256
420
    0
370
   -1
100
AcDbLine
 10
1.66167755857354
 20
-4.283613631749073
 11
1.730183776662496
 21
-11.63176352802114
  0
LINE
  5
E7
100
AcDbEntity
  8
0
  6
BYLAYER
 62
  256
420
    0
370
   -1
100
AcDbLine
 10
1.730183776662496
 20
-11.63176352802114
 11
-8.505506972166398
 21
-17.2099011132639
  0
LINE
  5
E8
100
AcDbEntity
  8
0
  6
BYLAYER
 62
  256
420
    0
370
   -1
100
AcDbLine
 10
-8.505506972166398
 20
-17.2099011132639
 11
-13.28094618616783
 21
-14.2846203335231
  0
LINE
  5
E9
100
AcDbEntity
  8
0
  6
BYLAYER
 62
  256
420
    0
370
   -1
100
AcDbLine
 10
-13.28094618616783
 20
-14.2846203335231
 11
-20.59215386390281
 21
-18.26900432298226
  0
LINE
  5
EA
100
AcDbEntity
  8
0
  6
BYLAYER
 62
  256
420
    0
370
   -1
100
AcDbLine
 10
-20.59215386390281
 20
-18.26900432298226
 11
-22.99937378441029
 21
-19.25944500319947
  0
LINE
  5
EB
100
AcDbEntity
  8
0
  6
BYLAYER
 62
  256
420
    0
370
   -1
100
AcDbLine
 10
-22.99937378441029
 20
-19.25944500319947
 11
-25.34246322840143
 21
-19.5527406671449
  0
LINE
  5
EC
100
AcDbEntity
  8
0
  6
BYLAYER
 62
  256
420
    0
370
   -1
100
AcDbLine
 10
-25.34246322840143
 20
-19.5527406671449
 11
-27.41006498755765
 21
-19.09177357593035
  0
LINE
  5
ED
100
AcDbEntity
  8
0
  6
BYLAYER
 62
  256
420
    0
370
   -1
100
AcDbLine
 10
-27.41006498755765
 20
-19.09177357593035
 11
-34.23212100755971
 21
-14.9128010334435
  0
LINE
  5
EE
100
AcDbEntity
  8
0
  6
BYLAYER
 62
  256
420
    0
370
   -1
100
AcDbLine
 10
-34.23212100755971
 20
-14.9128010334435
 11
-35.85981880128372
 21
-13.76897387004286
  0
LINE
  5
EF
100
AcDbEntity
  8
0
  6
BYLAYER
 62
  256
420
    0
370
   -1
100
AcDbLine
 10
-35.85981880128372
 20
-13.76897387004286
 11
-27.45988069596411
 21
-9.191265182980654
  0
LINE
  5
F0
100
AcDbEntity
  8
0
  6
BYLAYER
 62
  256
420
    0
370
   -1
100
AcDbLine
 10
-27.45988069596411
 20
-9.191265182980654
 11
-25.31118270302693
 21
-7.559359681727486
  0
LINE
  5
F1
100
AcDbEntity
  8
0
  6
BYLAYER
 62
  256
420
    0
370
   -1
100
AcDbLine
 10
-25.31118270302693
 20
-7.559359681727486
 11
-23.34187263542566
 21
-5.024269876793326
  0
LINE
  5
F2
100
AcDbEntity
  8
0
  6
BYLAYER
 62
  256
420
    0
370
   -1
100
AcDbLine
 10
-23.34187263542566
 20
-5.024269876793326
 11
-22.06005990732601
 21
-2.100149580587519
  0
LINE
  5
F3
100
AcDbEntity
  8
0
  6
BYLAYER
 62
  256
420
    0
370
   -1
100
AcDbLine
 10
-22.06005990732601
 20
-2.100149580587519
 11
-21.88580278956346
 21
-0.9205987563919899
  0
LINE
  5
F4
100
AcDbEntity
  8
0
  6
BYLAYER
 62
  256
420
    0
370
   -1
100
AcDbLine
 10
13.99559384791786
 20
14.93478957816939
 11
14.16501344891511
 21
13.51191133997931
  0
LINE
  5
F5
100
AcDbEntity
  8
0
  6
BYLAYER
 62
  256
420
    0
370
   -1
100
AcDbLine
 10
13.34338724138738
 20
16.27667632569691
 11
13.99559384791786
 21
14.93478957816939
  0
LINE
  5
F6
100
AcDbEntity
  8
0
  6
BYLAYER
 62
  256
420
    0
370
   -1
100
AcDbLine
 10
12.28915580327868
 20
17.46596228269233
 11
13.34338724138738
 21
16.27667632569691
  0
LINE
  5
F7
100
AcDbEntity
  8
0
  6
BYLAYER
 62
  256
420
    0
370
   -1
100
AcDbLine
 10
9.625826441233848
 20
11.68140868449292
 11
10.41736597355231
 21
13.5635094219995
  0
LINE
  5
F8
100
AcDbEntity
  8
0
  6
BYLAYER
 62
  256
420
    0
370
   -1
100
AcDbLine
 10
7.800737744255837
 20
10.22937285489228
 11
9.625826441233848
 21
11.68140868449292
  0
LINE
  5
F9
100
AcDbEntity
  8
0
  6
BYLAYER
 62
  256
420
    0
370
   -1
100
AcDbLine
 10
5.185318610928086
 20
9.261468082969017
 11
7.800737744255837
 21
10.22937285489228
  0
LINE
  5
FA
100
AcDbEntity
  8
0
  6
BYLAYER
 62
  256
420
    0
370
   -1
100
AcDbLine
 10
1.887188503029617
 20
8.914824274633379
 11
5.185318610928086
 21
9.261468082969017
  0
LINE
  5
FB
100
AcDbEntity
  8
0
  6
BYLAYER
 62
  256
420
    0
370
   -1
100
AcDbLine
 10
10.94599074103605
 20
18.45828598979487
 11
12.28915580327868
 21
17.46596228269233
  0
LINE
  5
FC
100
AcDbEntity
  8
0
  6
BYLAYER
 62
  256
420
    0
370
   -1
100
AcDbLine
 10
9.309886673531119
 20
19.29096692244049
 11
10.94599074103605
 21
18.45828598979487
  0
LINE
  5
FD
100
AcDbEntity
  8
0
  6
BYLAYER
 62
  256
420
    0
370
   -1
100
AcDbLine
 10
7.316596691068708
 20
19.96849476800476
 11
9.309886673531119
 21
19.29096692244049
  0
LINE
  5
FE
100
AcDbEntity
  8
0
  6
BYLAYER
 62
  256
420
    0
370
   -1
100
AcDbLine
 10
6.235895644423088
 20
9.650261799064147
 11
5.785197472634042
 21
9.837799532908536
  0
LINE
  5
FF
100
AcDbEntity
  8
0
  6
BYLAYER
 62
  256
420
    0
370
   -1
100
AcDbLine
 10
5.785197472634042
 20
9.837799532908536
 11
2.534012572577506
 21
10.27461513439664
  0
LINE
  5
100
100
AcDbEntity
  8
0
  6
BYLAYER
 62
  256
420
    0
370
   -1
100
AcDbLine
 10
2.534012572577506
 20
10.27461513439664
 11
1.526939146804535
 21
10.16876856191925
  0
LINE
  5
101
100
AcDbEntity
  8
0
  6
BYLAYER
 62
  256
420
    0
370
   -1
100
AcDbLine
 10
5.036164426433924
 20
20.42304846067544
 11
7.316596691068708
 21
19.96849476800476
  0
LINE
  5
102
100
AcDbEntity
  8
0
  6
BYLAYER
 62
  256
420
    0
370
   -1
100
AcDbLine
 10
2.587600472808009
 20
20.60386291562291
 11
5.036164426433924
 21
20.42304846067544
  0
LINE
  5
103
100
AcDbEntity
  8
0
  6
BYLAYER
 62
  256
420
    0
370
   -1
100
AcDbLine
 10
-14.85588112761917
 20
21.25868136234928
 11
1.517053320385752
 21
11.22914726038084
  0
LINE
  5
104
100
AcDbEntity
  8
0
  6
BYLAYER
 62
  256
420
    0
370
   -1
100
AcDbLine
 10
1.517053320385752
 20
11.22914726038084
 11
1.585559538474708
 21
3.880997364108778
  0
LINE
  5
105
100
AcDbEntity
  8
0
  6
BYLAYER
 62
  256
420
    0
370
   -1
100
AcDbLine
 10
1.538192421323559
 20
8.96171392810013
 11
1.887188503029617
 21
8.914824274633379
  0
LINE
  5
106
100
AcDbEntity
  8
0
  6
BYLAYER
 62
  256
420
    0
370
   -1
100
AcDbLine
 10
-8.475538926580311
 20
17.35028852716358
 11
-6.013925696248318
 21
18.69179225342815
  0
LINE
  5
107
100
AcDbEntity
  8
0
  6
BYLAYER
 62
  256
420
    0
370
   -1
100
AcDbLine
 10
-6.013925696248318
 20
18.69179225342815
 11
-4.280812042906352
 21
19.47808537229353
  0
LINE
  5
108
100
AcDbEntity
  8
0
  6
BYLAYER
 62
  256
420
    0
370
   -1
100
AcDbLine
 10
-4.280812042906352
 20
19.47808537229353
 11
-2.209679684132079
 21
20.09965373986272
  0
LINE
  5
109
100
AcDbEntity
  8
0
  6
BYLAYER
 62
  256
420
    0
370
   -1
100
AcDbLine
 10
-2.209679684132079
 20
20.09965373986272
 11
0.1214221888625646
 21
20.49071525024128
  0
LINE
  5
10A
100
AcDbEntity
  8
0
  6
BYLAYER
 62
  256
420
    0
370
   -1
100
AcDbLine
 10
0.1214221888625646
 20
20.49071525024128
 11
2.587600472808009
 21
20.60386291562291
  0
LINE
  5
10B
100
AcDbEntity
  8
0
  6
BYLAYER
 62
  256
420
    0
370
   -1
100
AcDbLine
 10
-16.60593432451541
 20
0.03396046219396354
 11
-18.60236451436557
 21
0.4078434344645672
  0
LINE
  5
10C
100
AcDbEntity
  8
0
  6
BYLAYER
 62
  256
420
    0
370
   -1
100
AcDbLine
 10
-18.60236451436557
 20
0.4078434344645672
 11
-20.75961350812019
 21
-0.3068601320949433
  0
LINE
  5
10D
100
AcDbEntity
  8
0
  6
BYLAYER
 62
  256
420
    0
370
   -1
100
AcDbLine
 10
-20.75961350812019
 20
-0.3068601320949433
 11
-29.15955161343979
 21
-4.884568819157146
  0
LINE
  5
10E
100
AcDbEntity
  8
0
  6
BYLAYER
 62
  256
420
    0
370
   -1
100
AcDbLine
 10
-29.15955161343979
 20
-4.884568819157146
 11
-35.98160763344185
 21
-0.705596276670299
  0
LINE
  5
10F
100
AcDbEntity
  8
0
  6
BYLAYER
 62
  256
420
    0
370
   -1
100
AcDbLine
 10
-35.98160763344185
 20
-0.705596276670299
 11
-34.3915857465788
 21
2.191789442718537
  0
LINE
  5
110
100
AcDbEntity
  8
0
  6
BYLAYER
 62
  256
420
    0
370
   -1
100
AcDbLine
 10
-34.3915857465788
 20
2.191789442718537
 11
-32.3534392060046
 21
4.89026345635482
  0
LINE
  5
111
100
AcDbEntity
  8
0
  6
BYLAYER
 62
  256
420
    0
370
   -1
100
AcDbLine
 10
-32.3534392060046
 20
4.89026345635482
 11
-30.02859740321602
 21
7.140847181884913
  0
LINE
  5
112
100
AcDbEntity
  8
0
  6
BYLAYER
 62
  256
420
    0
370
   -1
100
AcDbLine
 10
-30.02859740321602
 20
7.140847181884913
 11
-27.62734034018154
 21
8.770879007906611
  0
LINE
  5
113
100
AcDbEntity
  8
0
  6
BYLAYER
 62
  256
420
    0
370
   -1
100
AcDbLine
 10
-27.62734034018154
 20
8.770879007906611
 11
-20.31613266244662
 21
12.75526299736573
  0
LINE
  5
114
100
AcDbEntity
  8
0
  6
BYLAYER
 62
  256
420
    0
370
   -1
100
AcDbLine
 10
-25.09157187644806
 20
15.68054377710652
 11
-14.85588112761917
 21
21.25868136234928
  0
LINE
  5
115
100
AcDbEntity
  8
0
  6
BYLAYER
 62
  256
420
    0
370
   -1
100
AcDbLine
 10
-24.88008190662265
 20
-7.004404293115333
 11
-24.92137787852314
 21
-2.574894095325518
  0
LINE
  5
116
100
AcDbEntity
  8
0
  6
BYLAYER
 62
  256
420
    0
370
   -1
100
AcDbLine
 10
-25.04029762344457
 20
10.18073795802292
 11
-25.09157187644806
 21
15.68054377710652
  0
LINE
  5
117
100
AcDbEntity
  8
0
  6
BYLAYER
 62
  256
420
    0
370
   -1
100
AcDbLine
 10
-35.98160763344185
 20
-0.705596276670299
 11
-34.3915857465788
 21
2.191789442718537
  0
LINE
  5
118
100
AcDbEntity
  8
0
  6
BYLAYER
 62
  256
420
    0
370
   -1
100
AcDbLine
 10
-34.3915857465788
 20
2.191789442718537
 11
-32.3534392060046
 21
4.89026345635482
  0
LINE
  5
119
100
AcDbEntity
  8
0
  6
BYLAYER
 62
  256
420
    0
370
   -1
100
AcDbLine
 10
-32.3534392060046
 20
4.89026345635482
 11
-34.3915857465788
 21
2.191789442718537
  0
LINE
  5
11A
100
AcDbEntity
  8
0
  6
BYLAYER
 62
  256
420
    0
370
   -1
100
AcDbLine
 10
-34.3915857465788
 20
2.191789442718537
 11
-35.98160763344185
 21
-0.705596276670299
  0
DIMENSION
  5
11B
100
AcDbEntity
  8
0
  6
BYLAYER
 62
  256
370
   -1
100
AcDbDimension
 10
-4.429703951878656
 20
-3.065598734329619
 30
0
 11
-4.429703951878656
 21
-3.065598734329619
 31
0
 70
   33
  1
28.00
 71
    5
  3
STANDARD
 53
0
210
0
220
0
230
1
100
AcDbAlignedDimension
 13
-8.505506972166398
 23
-17.2099011132639
 33
0
 14
-8.718637428443131
 24
5.651009675138088
 34
0
  0
DIMENSION
  5
11C
100
AcDbEntity
  8
0
  6
BYLAYER
 62
  256
370
   -1
100
AcDbDimension
 10
-12.26623351248131
 20
12.75193902183271
 30
0
 11
-12.26623351248131
 21
12.75193902183271
 31
0
 70
   33
  1
24.00
 71
    5
  3
STANDARD
 53
0
210
0
220
0
230
1
100
AcDbAlignedDimension
 13
-8.718637428443131
 23
5.651009675138088
 33
0
 14
-25.09157187644806
 24
15.68054377710652
 34
0
  0
DIMENSION
  5
11D
100
AcDbEntity
  8
0
  6
BYLAYER
 62
  256
370
   -1
100
AcDbDimension
 10
5.771152692590906
 20
1.982603859181417
 30
0
 11
5.771152692590906
 21
1.982603859181417
 31
0
 70
   33
  1
10.00
 71
    5
  3
STANDARD
 53
0
210
0
220
0
230
1
100
AcDbAlignedDimension
 13
10.43512677185544
 23
0.497647155601868
 33
0
 14
10.35900875175661
 24
8.662258151459715
 34
0
  0
DIMENSION
  5
11E
100
AcDbEntity
  8
0
  6
BYLAYER
 62
  256
370
   -1
100
AcDbDimension
 10
-21.14249398321912
 20
7.758745598755329
 30
0
 11
-21.14249398321912
 21
7.758745598755329
 31
0
 70
   33
  1
10.00
 71
    5
  3
STANDARD
 53
0
210
0
220
0
230
1
100
AcDbAlignedDimension
 13
-20.31613266244662
 23
12.75526299736573
 33
0
 14
-13.49407664244457
 24
8.57629045487888
 34
0
  0
DIMENSION
  5
11F
100
AcDbEntity
  8
0
  6
BYLAYER
 62
  256
370
   -1
100
AcDbDimension
 10
-3.553820905271635
 20
-19.72977406041615
 30
0
 11
-3.553820905271635
 21
-19.72977406041615
 31
0
 70
   33
  1
14.00
 71
    5
  3
STANDARD
 53
0
210
0
220
0
230
1
100
AcDbAlignedDimension
 13
-8.505506972166398
 23
-17.2099011132639
 33
0
 14
1.730183776662496
 24
-11.63176352802114
 34
0
  0
DIMENSION
  5
120
100
AcDbEntity
  8
0
  6
BYLAYER
 62
  256
370
   -1
100
AcDbDimension
 10
-3.070043533688972
 20
17.32223847160832
 30
0
 11
-13.68214568951638
 21
24.70092191475338
 31
0
 70
   35
  1
  16.50
 71
    5
  3
STANDARD
 53
0
210
0
220
0
230
1
100
AcDbDiametricDimension
 15
7.415126589197262
 25
10.03181193327955
 35
0
 40
0
  0
ENDSEC
  0
SECTION
  2
OBJECTS
  0
DICTIONARY
  5
C
330
0
100
AcDbDictionary
281
    1
  3
ACAD_GROUP
350
D
  0
DICTIONARY
  5
D
330
C
100
AcDbDictionary
281
    1
  0
ENDSEC
  0
EOF
