999
dxfrw 0.6.3
  0
SECTION
  2
HEADER
  9
$ACADVER
  1
AC1021
  9
$DWGCODEPAGE
  3
ANSI_1252
  9
$INSBASE
 10
0
 20
0
 30
0
  9
$EXTMIN
 10
1e+020
 20
1e+020
 30
1e+020
  9
$EXTMAX
 10
-1e+020
 20
-1e+020
 30
-1e+020
  9
$LIMMIN
 10
0
 20
0
  9
$LIMMAX
 10
420
 20
297
  9
$ORTHOMODE
 70
    0
  9
$REGENMODE
 70
    1
  9
$FILLMODE
 70
    1
  9
$QTEXTMODE
 70
    0
  9
$MIRRTEXT
 70
    0
  9
$LTSCALE
 40
1
  9
$ATTMODE
 70
    0
  9
$TEXTSIZE
 40
2.5
  9
$TRACEWID
 40
15.68
  9
$TEXTSTYLE
  7
STANDARD
  9
$CLAYER
  8
0
  9
$CELTYPE
  6
BYLAYER
  9
$CECOLOR
 62
  256
  9
$CELTSCALE
 40
1
  9
$DISPSILH
 70
    0
  9
$DIMSCALE
 40
1
  9
$DIMASZ
 40
2.5
  9
$DIMEXO
 40
0.625
  9
$DIMDLI
 40
3.75
  9
$DIMRND
 40
0
  9
$DIMDLE
 40
0
  9
$DIMEXE
 40
1.25
  9
$DIMTP
 40
0
  9
$DIMTM
 40
0
  9
$DIMTXT
 40
2.5
  9
$DIMCEN
 40
2.5
  9
$DIMTSZ
 40
0
  9
$DIMTOL
 70
    0
  9
$DIMLIM
 70
    0
  9
$DIMTIH
 70
    0
  9
$DIMTOH
 70
    0
  9
$DIMSE1
 70
    0
  9
$DIMSE2
 70
    0
  9
$DIMTAD
 70
    1
  9
$DIMZIN
 70
    8
  9
$DIMBLK
  1

  9
$DIMASO
 70
    1
  9
$DIMSHO
 70
    1
  9
$DIMPOST
  1

  9
$DIMAPOST
  1

  9
$DIMALT
 70
    0
  9
$DIMALTD
 70
    3
  9
$DIMALTF
 40
0.03937
  9
$DIMLFAC
 40
1
  9
$DIMTOFL
 70
    1
  9
$DIMTVP
 40
0
  9
$DIMTIX
 70
    0
  9
$DIMSOXD
 70
    0
  9
$DIMSAH
 70
    0
  9
$DIMBLK1
  1

  9
$DIMBLK2
  1

  9
$DIMSTYLE
  2
STANDARD
  9
$DIMCLRD
 70
    0
  9
$DIMCLRE
 70
    0
  9
$DIMCLRT
 70
    0
  9
$DIMTFAC
 40
1
  9
$DIMGAP
 40
0.625
  9
$DIMJUST
 70
    0
  9
$DIMSD1
 70
    0
  9
$DIMSD2
 70
    0
  9
$DIMTOLJ
 70
    0
  9
$DIMTZIN
 70
    8
  9
$DIMALTZ
 70
    0
  9
$DIMALTTZ
 70
    0
  9
$DIMUPT
 70
    0
  9
$DIMDEC
 70
    2
  9
$DIMTDEC
 70
    2
  9
$DIMALTU
 70
    2
  9
$DIMALTTD
 70
    3
  9
$DIMTXSTY
  7
STANDARD
  9
$DIMAUNIT
 70
    0
  9
$DIMADEC
 70
    0
  9
$DIMALTRND
 40
0
  9
$DIMAZIN
 70
    0
  9
$DIMDSEP
 70
   44
  9
$DIMATFIT
 70
    3
  9
$DIMFRAC
 70
    0
  9
$DIMLDRBLK
  1
STANDARD
  9
$DIMLUNIT
 70
    2
  9
$DIMLWD
 70
   -2
  9
$DIMLWE
 70
   -2
  9
$DIMTMOVE
 70
    0
  9
$DIMFXL
 40
1
  9
$DIMFXLON
 70
    0
  9
$DIMJOGANG
 40
0.7854
  9
$DIMTFILL
 70
    0
  9
$DIMTFILLCLR
 70
    0
  9
$DIMARCSYM
 70
    0
  9
$DIMLTYPE
  6

  9
$DIMLTEX1
  6

  9
$DIMLTEX2
  6

  9
$LUNITS
 70
    2
  9
$LUPREC
 70
    4
  9
$SKETCHINC
 40
1
  9
$FILLETRAD
 40
0
  9
$AUNITS
 70
    0
  9
$AUPREC
 70
    2
  9
$MENU
  1
.
  9
$ELEVATION
 40
0
  9
$PELEVATION
 40
0
  9
$THICKNESS
 40
0
  9
$LIMCHECK
 70
    0
  9
$CHAMFERA
 40
0
  9
$CHAMFERB
 40
0
  9
$CHAMFERC
 40
0
  9
$CHAMFERD
 40
0
  9
$SKPOLY
 70
    0
  9
$USRTIMER
 70
    1
  9
$ANGBASE
 50
0
  9
$ANGDIR
 70
    0
  9
$PDMODE
 70
   34
  9
$PDSIZE
 40
0
  9
$PLINEWID
 40
0
  9
$SPLFRAME
 70
    0
  9
$SPLINETYPE
 70
    2
  9
$SPLINESEGS
 70
    8
  9
$HANDSEED
  5
20000
  9
$SURFTAB1
 70
    6
  9
$SURFTAB2
 70
    6
  9
$SURFTYPE
 70
    6
  9
$SURFU
 70
    6
  9
$SURFV
 70
    6
  9
$UCSBASE
  2

  9
$UCSNAME
  2

  9
$UCSORG
 10
0
 20
0
 30
0
  9
$UCSXDIR
 10
1
 20
0
 30
0
  9
$UCSYDIR
 10
0
 20
1
 30
0
  9
$UCSORTHOREF
  2

  9
$UCSORTHOVIEW
 70
    0
  9
$UCSORGTOP
 10
0
 20
0
 30
0
  9
$UCSORGBOTTOM
 10
0
 20
0
 30
0
  9
$UCSORGLEFT
 10
0
 20
0
 30
0
  9
$UCSORGRIGHT
 10
0
 20
0
 30
0
  9
$UCSORGFRONT
 10
0
 20
0
 30
0
  9
$UCSORGBACK
 10
0
 20
0
 30
0
  9
$PUCSBASE
  2

  9
$PUCSNAME
  2

  9
$PUCSORG
 10
0
 20
0
 30
0
  9
$PUCSXDIR
 10
1
 20
0
 30
0
  9
$PUCSYDIR
 10
0
 20
1
 30
0
  9
$PUCSORTHOREF
  2

  9
$PUCSORTHOVIEW
 70
    0
  9
$PUCSORGTOP
 10
0
 20
0
 30
0
  9
$PUCSORGBOTTOM
 10
0
 20
0
 30
0
  9
$PUCSORGLEFT
 10
0
 20
0
 30
0
  9
$PUCSORGRIGHT
 10
0
 20
0
 30
0
  9
$PUCSORGFRONT
 10
0
 20
0
 30
0
  9
$PUCSORGBACK
 10
0
 20
0
 30
0
  9
$USERI1
 70
    0
  9
$USERI2
 70
    0
  9
$USERI3
 70
    0
  9
$USERI4
 70
    0
  9
$USERI5
 70
    0
  9
$USERR1
 40
0
  9
$USERR2
 40
0
  9
$USERR3
 40
0
  9
$USERR4
 40
0
  9
$USERR5
 40
0
  9
$WORLDVIEW
 70
    1
  9
$SHADEDGE
 70
    3
  9
$SHADEDIF
 70
   70
  9
$TILEMODE
 70
    1
  9
$MAXACTVP
 70
   64
  9
$PINSBASE
 10
0
 20
0
 30
0
  9
$PLIMCHECK
 70
    0
  9
$PEXTMIN
 10
0
 20
0
 30
0
  9
$PEXTMAX
 10
0
 20
0
 30
0
  9
$PLIMMIN
 10
0
 20
0
  9
$PLIMMAX
 10
297
 20
210
  9
$UNITMODE
 70
    0
  9
$VISRETAIN
 70
    1
  9
$PLINEGEN
 70
    0
  9
$PSLTSCALE
 70
    1
  9
$TREEDEPTH
 70
 3020
  9
$CMLSTYLE
  2
Standard
  9
$CMLJUST
 70
    0
  9
$CMLSCALE
 40
20
  9
$PROXYGRAPHICS
 70
    1
  9
$MEASUREMENT
 70
    1
  9
$CELWEIGHT
370
   -1
  9
$ENDCAPS
280
    0
  9
$JOINSTYLE
280
    0
  9
$LWDISPLAY
290
    0
  9
$INSUNITS
 70
    0
  9
$HYPERLINKBASE
  1

  9
$STYLESHEET
  1

  9
$XEDIT
290
    1
  9
$CEPSNTYPE
380
    0
  9
$PSTYLEMODE
290
    1
  9
$EXTNAMES
290
    1
  9
$PSVPSCALE
 40
0
  9
$OLESTARTUP
290
    0
  9
$SORTENTS
280
  127
  9
$INDEXCTL
280
    0
  9
$HIDETEXT
280
    1
  9
$XCLIPFRAME
290
    0
  9
$HALOGAP
280
    0
  9
$OBSCOLOR
 70
  257
  9
$OBSLTYPE
280
    0
  9
$INTERSECTIONDISPLAY
280
    0
  9
$INTERSECTIONCOLOR
 70
  257
  9
$DIMASSOC
280
    1
  9
$PROJECTNAME
  1

  9
$CAMERADISPLAY
290
    0
  9
$LENSLENGTH
 40
50
  9
$CAMERAHEIGHT
 40
0
  9
$STEPSPERSEC
 40
2
  9
$STEPSIZE
 40
50
  9
$3DDWFPREC
 40
2
  9
$PSOLWIDTH
 40
5
  9
$PSOLHEIGHT
 40
80
  9
$LOFTANG1
 40
1.570796326794897
  9
$LOFTANG2
 40
1.570796326794897
  9
$LOFTMAG1
 40
0
  9
$LOFTMAG2
 40
0
  9
$LOFTPARAM
 70
    7
  9
$LOFTNORMALS
280
    1
  9
$LATITUDE
 40
1
  9
$LONGITUDE
 40
1
  9
$NORTHDIRECTION
 40
0
  9
$TIMEZONE
 70
-8000
  9
$LIGHTGLYPHDISPLAY
280
    1
  9
$TILEMODELIGHTSYNCH
280
    1
  9
$SOLIDHIST
280
    1
  9
$SHOWHIST
280
    1
  9
$DWFFRAME
280
    2
  9
$DGNFRAME
280
    0
  9
$REALWORLDSCALE
290
    1
  9
$INTERFERECOLOR
 62
    1
  9
$CSHADOW
280
    0
  9
$SHADOWPLANELOCATION
 40
0
  0
ENDSEC
  0
SECTION
  2
CLASSES
  0
ENDSEC
  0
SECTION
  2
TABLES
  0
TABLE
  2
VPORT
  5
8
330
0
100
AcDbSymbolTable
 70
    1
  0
VPORT
  5
31
330
2
100
AcDbSymbolTableRecord
100
AcDbViewportTableRecord
  2
*ACTIVE
 70
    0
 10
0
 20
0
 11
1
 21
1
 12
0.651828
 22
-0.16
 13
0
 23
0
 14
10
 24
10
 15
10
 25
10
 16
0
 26
0
 36
1
 17
0
 27
0
 37
0
 40
5.13732
 41
2.4426877
 42
50
 43
0
 44
0
 50
0
 51
0
 71
    0
 72
  100
 73
    1
 74
    3
 75
    0
 76
    0
 77
    0
 78
    0
281
    0
 65
    1
110
0
120
0
130
0
111
1
121
0
131
0
112
0
122
1
132
0
 79
    0
146
0
348
10020
 60
    7
 61
    5
292
1
282
    1
141
0
142
0
 63
  250
421
3358443
  0
ENDTAB
  0
TABLE
  2
LTYPE
  5
5
330
0
100
AcDbSymbolTable
 70
    4
  0
LTYPE
  5
14
330
5
100
AcDbSymbolTableRecord
100
AcDbLinetypeTableRecord
  2
ByBlock
 70
    0
  3

 72
   65
 73
    0
 40
0
  0
LTYPE
  5
15
330
5
100
AcDbSymbolTableRecord
100
AcDbLinetypeTableRecord
  2
ByLayer
 70
    0
  3

 72
   65
 73
    0
 40
0
  0
LTYPE
  5
16
330
5
100
AcDbSymbolTableRecord
100
AcDbLinetypeTableRecord
  2
Continuous
 70
    0
  3
Solid line
 72
   65
 73
    0
 40
0
  0
LTYPE
  5
32
330
5
100
AcDbSymbolTableRecord
100
AcDbLinetypeTableRecord
  2
DASHED
 70
    0
  3

 72
   65
 73
    2
 40
2
 49
1
 74
    0
 49
-1
 74
    0
  0
LTYPE
  5
33
330
5
100
AcDbSymbolTableRecord
100
AcDbLinetypeTableRecord
  2
DASHEDX2
 70
    0
  3

 72
   65
 73
    2
 40
3
 49
2
 74
    0
 49
-1
 74
    0
  0
LTYPE
  5
34
330
5
100
AcDbSymbolTableRecord
100
AcDbLinetypeTableRecord
  2
DASHDOT
 70
    0
  3

 72
   65
 73
    4
 40
3
 49
1
 74
    0
 49
-1
 74
    0
 49
0
 74
    0
 49
-1
 74
    0
  0
LTYPE
  5
35
330
5
100
AcDbSymbolTableRecord
100
AcDbLinetypeTableRecord
  2
DIVIDE
 70
    0
  3

 72
   65
 73
    6
 40
4
 49
1
 74
    0
 49
-1
 74
    0
 49
0
 74
    0
 49
-1
 74
    0
 49
0
 74
    0
 49
-1
 74
    0
  0
LTYPE
  5
36
330
5
100
AcDbSymbolTableRecord
100
AcDbLinetypeTableRecord
  2
DOT
 70
    0
  3

 72
   65
 73
    2
 40
1
 49
1
 74
    0
 49
0
 74
    0
  0
ENDTAB
  0
TABLE
  2
LAYER
  5
2
330
0
100
AcDbSymbolTable
 70
    1
  0
LAYER
  5
37
330
2
100
AcDbSymbolTableRecord
100
AcDbLayerTableRecord
  2
dimensions
 70
    0
 62
    7
  6
CONTINUOUS
370
   -3
390
F
  0
LAYER
  5
38
330
2
100
AcDbSymbolTableRecord
100
AcDbLayerTableRecord
  2
text
 70
    0
 62
    7
  6
CONTINUOUS
370
   -3
390
F
  0
LAYER
  5
39
330
2
100
AcDbSymbolTableRecord
100
AcDbLayerTableRecord
  2
s005-#def-solid-edge
 70
    0
 62
    7
  6
CONTINUOUS
370
   -3
390
F
  0
LAYER
  5
3A
330
2
100
AcDbSymbolTableRecord
100
AcDbLayerTableRecord
  2
s00e-#def-invisible
 70
    0
 62
    7
  6
CONTINUOUS
370
   -3
390
F
  0
LAYER
  5
3B
330
2
100
AcDbSymbolTableRecord
100
AcDbLayerTableRecord
  2
s00f-#def-silhouette
 70
    0
 62
    7
  6
CONTINUOUS
370
   -3
390
F
  0
LAYER
  5
3C
330
2
100
AcDbSymbolTableRecord
100
AcDbLayerTableRecord
  2
s100-new-custom-style
 70
    0
 62
    7
  6
CONTINUOUS
370
   -3
390
F
  0
LAYER
  5
3D
330
2
100
AcDbSymbolTableRecord
100
AcDbLayerTableRecord
  2
s101-new-custom-style
 70
    0
 62
    7
  6
CONTINUOUS
370
   -3
390
F
  0
LAYER
  5
10
330
2
100
AcDbSymbolTableRecord
100
AcDbLayerTableRecord
  2
0
 70
    0
 62
    7
  6
CONTINUOUS
370
   -3
390
F
  0
ENDTAB
  0
TABLE
  2
STYLE
  5
3
330
0
100
AcDbSymbolTable
 70
    3
  0
STYLE
  5
3E
330
2
100
AcDbSymbolTableRecord
100
AcDbTextStyleTableRecord
  2
unicode
 70
    0
 40
0
 41
1
 50
0
 71
    0
 42
1
  3
unicode
  4

  0
STYLE
  5
3F
330
2
100
AcDbSymbolTableRecord
100
AcDbTextStyleTableRecord
  2
Standard
 70
    0
 40
0
 41
1
 50
0
 71
    0
 42
1
  3
txt
  4

  0
ENDTAB
  0
TABLE
  2
VIEW
  5
6
330
0
100
AcDbSymbolTable
 70
    0
  0
ENDTAB
  0
TABLE
  2
UCS
  5
7
330
0
100
AcDbSymbolTable
 70
    0
  0
ENDTAB
  0
TABLE
  2
APPID
  5
9
330
0
100
AcDbSymbolTable
 70
    1
  0
APPID
  5
12
330
9
100
AcDbSymbolTableRecord
100
AcDbRegAppTableRecord
  2
ACAD
 70
    0
  0
ENDTAB
  0
TABLE
  2
DIMSTYLE
  5
A
330
0
100
AcDbSymbolTable
 70
    1
100
AcDbDimStyleTable
 71
    1
  0
DIMSTYLE
105
40
330
A
100
AcDbSymbolTableRecord
100
AcDbDimStyleTableRecord
  2
Standard
 70
    0
 40
1
 41
2.5
 42
0.625
 43
3.75
 44
1.25
 45
0
 46
0
 47
0
 48
0
140
2.5
141
2.5
142
0
143
0.03937007874015748
144
1
145
0
146
1
147
0.625
148
0
 71
    0
 72
    0
 73
    0
 74
    0
 75
    0
 76
    0
 77
    1
 78
    8
 79
    0
170
    0
171
    3
172
    1
173
    0
174
    0
175
    0
176
    0
177
    0
178
    0
179
    0
271
    2
272
    2
273
    2
274
    3
275
    0
276
    0
277
    2
278
   44
279
    0
280
    0
281
    0
282
    0
283
    0
284
    8
285
    0
286
    0
288
    0
289
    3
341

371
   -2
372
   -2
  0
ENDTAB
  0
TABLE
  2
BLOCK_RECORD
  5
1
330
0
100
AcDbSymbolTable
 70
    2
  0
BLOCK_RECORD
  5
1F
330
1
100
AcDbSymbolTableRecord
100
AcDbBlockTableRecord
  2
*Model_Space
 70
    0
280
    1
281
    0
  0
BLOCK_RECORD
  5
1E
330
1
100
AcDbSymbolTableRecord
100
AcDbBlockTableRecord
  2
*Paper_Space
 70
    0
280
    1
281
    0
  0
ENDTAB
  0
ENDSEC
  0
SECTION
  2
BLOCKS
  0
BLOCK
  5
20
330
1F
100
AcDbEntity
  8
0
100
AcDbBlockBegin
  2
*Model_Space
 70
    0
 10
0
 20
0
 30
0
  3
*Model_Space
  1

  0
ENDBLK
  5
21
330
1F
100
AcDbEntity
  8
0
100
AcDbBlockEnd
  0
BLOCK
  5
1C
330
1B
100
AcDbEntity
  8
0
100
AcDbBlockBegin
  2
*Paper_Space
 70
    0
 10
0
 20
0
 30
0
  3
*Paper_Space
  1

  0
ENDBLK
  5
1D
330
1F
100
AcDbEntity
  8
0
100
AcDbBlockEnd
  0
ENDSEC
  0
SECTION
  2
ENTITIES
  0
LWPOLYLINE
  5
41
100
AcDbEntity
  8
s101-new-custom-style
  6
CONTINUOUS
 62
  256
420
    0
370
   13
100
AcDbPolyline
 90
   10
 70
    0
 43
0
 10
56.2379467102763
 20
-22.30713318514481
 10
-36.2620532897237
 20
-22.30713318514481
 10
-36.2620532897237
 20
-24.80713318514481
 10
-36.2620532897237
 20
-27.30713318514481
 10
-36.2620532897237
 20
-29.80713318514481
 10
-36.2620532897237
 20
-32.30713318514481
 10
-36.2620532897237
 20
-34.80713318514481
 10
-36.2620532897237
 20
-37.30713318514481
 10
-36.2620532897237
 20
-39.80713318514482
 10
-36.2620532897237
 20
-42.30713318514482
  0
LWPOLYLINE
  5
42
100
AcDbEntity
  8
s101-new-custom-style
  6
CONTINUOUS
 62
  256
420
    0
370
   13
100
AcDbPolyline
 90
    3
 70
    0
 43
0
 10
-36.2620532897237
 20
-29.80713318514481
 10
-3.762053289723694
 20
-29.80713318514481
 10
56.2379467102763
 20
-29.80713318514481
  0
LWPOLYLINE
  5
43
100
AcDbEntity
  8
s101-new-custom-style
  6
CONTINUOUS
 62
  256
420
    0
370
   13
100
AcDbPolyline
 90
    5
 70
    0
 43
0
 10
31.2379467102763
 20
-32.30713318514481
 10
33.7379467102763
 20
-32.30713318514481
 10
36.2379467102763
 20
-32.30713318514481
 10
38.7379467102763
 20
-32.30713318514481
 10
56.2379467102763
 20
-32.30713318514481
  0
LWPOLYLINE
  5
44
100
AcDbEntity
  8
s101-new-custom-style
  6
CONTINUOUS
 62
  256
420
    0
370
   13
100
AcDbPolyline
 90
    3
 70
    0
 43
0
 10
38.7379467102763
 20
-29.80713318514481
 10
38.7379467102763
 20
-32.30713318514481
 10
38.7379467102763
 20
-34.80713318514481
  0
LWPOLYLINE
  5
45
100
AcDbEntity
  8
s101-new-custom-style
  6
CONTINUOUS
 62
  256
420
    0
370
   13
100
AcDbPolyline
 90
    3
 70
    0
 43
0
 10
-44.76205328972368
 20
57.69286681485518
 10
-44.76205328972368
 20
50.69286681485518
 10
-79.76205328972368
 20
50.69286681485518
  0
LWPOLYLINE
  5
46
100
AcDbEntity
  8
s005-#def-solid-edge
  6
CONTINUOUS
 62
  256
420
    0
370
    9
100
AcDbPolyline
 90
    4
 70
    0
 43
0
 10
26.4253714971623
 20
-1.070727484970446
 10
25.84970638254549
 20
-2.439528021587609
 10
24.52236914858304
 20
-3.495554079230239
 10
20.13564454194209
 20
-5.886184472905706
  0
LWPOLYLINE
  5
47
100
AcDbEntity
  8
s00e-#def-invisible
  6
DASHED
 62
  256
420
    0
370
    9
100
AcDbPolyline
 90
   16
 70
    0
 43
0
 10
20.1063343461071
 20
-2.742298874012298
 10
18.96080600504415
 20
-2.862697491929627
 10
17.65309643838037
 20
-3.346649877891233
 10
16.74055208989137
 20
-4.072667792691552
 10
16.34478232373214
 20
-5.013718161444844
 10
16.62721633245115
 20
-5.964106125111375
 10
17.45132137956557
 20
-6.714034447318941
 10
18.69892558453535
 20
-7.233168714907176
 10
20.32451803426896
 20
-7.451576515572327
 10
21.97358308791466
 20
-7.278254611475152
 10
23.28129265488207
 20
-6.794302225442877
 10
24.19383700337107
 20
-6.068284310642559
 10
24.5896067695303
 20
-5.127233941889271
 10
24.3071727608113
 20
-4.17684597822274
 10
23.48306771369688
 20
-3.426917656015172
 10
22.46081259487072
 20
-3.001552255444889
  0
LWPOLYLINE
  5
48
100
AcDbEntity
  8
s005-#def-solid-edge
  6
CONTINUOUS
 62
  256
420
    0
370
    9
100
AcDbPolyline
 90
    9
 70
    0
 43
0
 10
24.55154775948088
 20
-1.04492844396035
 10
24.26911375064276
 20
-0.09454048011924066
 10
23.44500870364746
 20
0.6553878419137504
 10
22.19740449897234
 20
1.174522109423091
 10
20.57181204894407
 20
1.392929910167144
 10
18.92274699499473
 20
1.219608005999298
 10
17.61503742833096
 20
0.7356556200376918
 10
16.70249307998177
 20
0.009637705408382047
 10
16.65577893032429
 20
-0.1014379034746387
  0
LWPOLYLINE
  5
49
100
AcDbEntity
  8
s00e-#def-invisible
  6
DASHED
 62
  256
420
    0
370
    9
100
AcDbPolyline
 90
    9
 70
    0
 43
0
 10
26.46343050721169
 20
-5.153032982899365
 10
26.05261740362042
 20
-3.770650490293503
 10
24.85391915327217
 20
-2.679845657991589
 10
23.03922212786156
 20
-1.924741268772332
 10
20.67472401915815
 20
-1.607057195077566
 10
18.27608394112804
 20
-1.859161782855288
 10
16.37396093462999
 20
-2.563092526174948
 10
11.98723632798904
 20
-4.953722919850421
 10
20.1737035519915
 20
-9.968489970834632
  0
LWPOLYLINE
  5
4A
100
AcDbEntity
  8
s005-#def-solid-edge
  6
CONTINUOUS
 62
  256
420
    0
370
    9
100
AcDbPolyline
 90
    5
 70
    0
 43
0
 10
16.95625373983366
 20
-10.39570121052072
 10
17.60526611227193
 20
-10.34244799266309
 10
18.24870487173106
 20
-9.691354976071324
 10
18.50965231947644
 20
-8.823823619498469
 10
18.23524897968547
 20
-8.248042025840984
  0
LWPOLYLINE
  5
4B
100
AcDbEntity
  8
s005-#def-solid-edge
  6
CONTINUOUS
 62
  256
420
    0
370
    9
100
AcDbPolyline
 90
    4
 70
    0
 43
0
 10
20.10139143289761
 20
-2.212109524769673
 10
14.98354605848317
 20
-5.001178317391052
 10
12.59582645148245
 20
-3.538537927520659
 10
12.70239167962082
 20
-14.96899332172164
  0
LWPOLYLINE
  5
4C
100
AcDbEntity
  8
s00e-#def-invisible
  6
DASHED
 62
  256
420
    0
370
    9
100
AcDbPolyline
 90
    3
 70
    0
 43
0
 10
11.91492420889515
 20
2.802657526214541
 10
11.94917731793962
 20
-0.8714174219214925
 10
20.13564454194209
 20
-5.886184472905706
  0
LWPOLYLINE
  5
4D
100
AcDbEntity
  8
s00e-#def-invisible
  6
DASHED
 62
  256
420
    0
370
    9
100
AcDbPolyline
 90
    6
 70
    0
 43
0
 10
16.65577893032429
 20
-0.1014379034746387
 10
16.30672331368272
 20
-0.9314126635159159
 10
16.58915732252085
 20
-1.881800627357029
 10
17.41326236951615
 20
-2.631728949390014
 10
18.66086657419127
 20
-3.150863216899356
 10
20.11196098336647
 20
-3.345826190905804
  0
LWPOLYLINE
  5
4E
100
AcDbEntity
  8
s00e-#def-invisible
  6
DASHED
 62
  256
420
    0
370
    9
100
AcDbPolyline
 90
    3
 70
    0
 43
0
 10
11.98723632798904
 20
-4.953722919850421
 10
12.02148943703351
 20
-8.627797867986448
 10
20.20795666103598
 20
-13.64256491897067
  0
LWPOLYLINE
  5
4F
100
AcDbEntity
  8
s00e-#def-invisible
  6
DASHED
 62
  256
420
    0
370
    9
100
AcDbPolyline
 90
    7
 70
    0
 43
0
 10
12.02148943703351
 20
-8.627797867986448
 10
6.903644062619071
 20
-11.41686666060783
 10
9.291363669619789
 20
-12.87950705047823
 10
5.635759830752331
 20
-14.87169904520778
 10
4.432149870498362
 20
-15.36691938531646
 10
3.260605148502989
 20
-15.51356721728912
 10
2.22680426892488
 20
-15.28308367168185
  0
LWPOLYLINE
  5
50
100
AcDbEntity
  8
s005-#def-solid-edge
  6
CONTINUOUS
 62
  256
420
    0
370
    9
100
AcDbPolyline
 90
    9
 70
    0
 43
0
 10
1.412955372062877
 20
-14.71117008998154
 10
4.823983382063904
 20
-16.80065636122495
 10
9.023952434723706
 20
-14.51180201769385
 10
10.09830143140643
 20
-13.69584926685504
 10
11.08295646499293
 20
-12.42830436460018
 10
11.72386282904275
 20
-10.96624421649728
 10
11.91798829777814
 20
-9.652204023567062
 10
11.70144791664219
 20
-8.561964125932509
 10
11.03989761044703
 20
-7.809702923863114
  0
LWPOLYLINE
  5
51
100
AcDbEntity
  8
s005-#def-solid-edge
  6
CONTINUOUS
 62
  256
420
    0
370
    9
100
AcDbPolyline
 90
    6
 70
    0
 43
0
 10
12.59582645148245
 20
-3.538537927520659
 10
8.940222612614994
 20
-5.530729922250217
 10
7.739594081097751
 20
-6.345745835261063
 10
6.577173179703459
 20
-7.471037698026105
 10
5.55809990941636
 20
-8.820274704844252
 10
4.763088965984831
 20
-10.26896756453867
  0
LWPOLYLINE
  5
52
100
AcDbEntity
  8
s00e-#def-invisible
  6
DASHED
 62
  256
420
    0
370
    9
100
AcDbPolyline
 90
    7
 70
    0
 43
0
 10
8.399963377898695
 20
-8.286982533169343
 10
8.506960287777114
 20
-7.562717752323643
 10
8.290419906553806
 20
-6.472477854495361
 10
7.628869600446
 20
-5.720216652619692
 10
6.630654505736816
 20
-5.533275166462271
 10
5.552030008643614
 20
-5.890626949764148
 10
1.352060955983808
 20
-8.179481293295243
  0
LWPOLYLINE
  5
53
100
AcDbEntity
  8
s00e-#def-invisible
  6
DASHED
 62
  256
420
    0
370
    9
100
AcDbPolyline
 90
    8
 70
    0
 43
0
 10
-54.76876428616884
 20
-7.467511962482657
 10
-59.76876428616884
 20
-7.467511962482657
 10
-59.76876428616885
 20
-7.757135220720201
 10
-59.76876428616883
 20
-8.67569649008815
 10
-59.76876428616884
 20
-10.07412128523666
 10
-59.76876428616884
 20
-11.59251196248266
 10
-59.76876428616885
 20
-13.11090263972866
 10
-59.76876428616884
 20
-17.59251196248266
  0
LWPOLYLINE
  5
54
100
AcDbEntity
  8
s00e-#def-invisible
  6
DASHED
 62
  256
420
    0
370
    9
100
AcDbPolyline
 90
    4
 70
    0
 43
0
 10
-59.76876428616884
 20
-5.592511962482657
 10
-59.76876428616885
 20
-6.013782156108078
 10
-59.76876428616885
 20
-7.349871275363373
 10
-59.76876428616884
 20
-7.467511962482657
  0
LWPOLYLINE
  5
55
100
AcDbEntity
  8
s00f-#def-silhouette
  6
CONTINUOUS
 62
  256
420
    0
370
   25
100
AcDbPolyline
 90
    6
 70
    0
 43
0
 10
24.55154775948088
 20
-1.04492844396035
 10
24.15577799332166
 20
-1.98597881271364
 10
23.24323364483266
 20
-2.711996727513956
 10
21.93552407816889
 20
-3.195949113475564
 10
20.28645902421954
 20
-3.369271017643406
 10
20.11196098336647
 20
-3.345826190905804
  0
LWPOLYLINE
  5
56
100
AcDbEntity
  8
s00f-#def-silhouette
  6
CONTINUOUS
 62
  256
420
    0
370
   25
100
AcDbPolyline
 90
   26
 70
    0
 43
0
 10
8.399963377898695
 20
-8.286982533169343
 10
8.312834819041727
 20
-8.876757945253861
 10
7.671928454991905
 20
-10.33881809335676
 10
6.687273421191266
 20
-11.60636299582384
 10
5.612924424722683
 20
-12.42231574645043
 10
1.412955372062877
 20
-14.71117008998154
 10
2.22680426892488
 20
-15.28308367168185
 10
5.637832278925904
 20
-17.37256994292527
 10
6.67163315850401
 20
-17.60305348853254
 10
7.843177880499395
 20
-17.45640565655988
 10
9.046787840753355
 20
-16.9611853164512
 10
12.70239167962082
 20
-14.96899332172164
 10
15.09011128662153
 20
-16.43163371159204
 10
20.20795666103598
 20
-13.64256491897067
 10
20.1737035519915
 20
-9.968489970834632
 10
24.56042815863246
 20
-7.577859577159167
 10
25.88776539259491
 20
-6.521833519516534
 10
26.46343050721169
 20
-5.153032982899365
 10
26.4253714971623
 20
-1.070727484970446
 10
26.014558393571
 20
0.311655007635423
 10
24.81586014322276
 20
1.402459839937336
 10
23.00116311824076
 20
2.157564229041834
 10
20.63666500910873
 20
2.475248302851357
 10
18.23802493107862
 20
2.223143715073635
 10
16.33590192458058
 20
1.519212971753969
 10
15.10509530941458
 20
0.8484611086216872
  0
LWPOLYLINE
  5
57
100
AcDbEntity
  8
s00f-#def-silhouette
  6
CONTINUOUS
 62
  256
420
    0
370
   25
100
AcDbPolyline
 90
    4
 70
    0
 43
0
 10
20.1063343461071
 20
-2.742298874012298
 10
20.60987105899348
 20
-2.689375587761781
 10
22.23546350902176
 20
-2.90778338850583
 10
22.46081259487072
 20
-3.001552255444889
  0
LWPOLYLINE
  5
58
100
AcDbEntity
  8
s00f-#def-silhouette
  6
CONTINUOUS
 62
  256
420
    0
370
   25
100
AcDbPolyline
 90
    5
 70
    0
 43
0
 10
20.13564454194209
 20
-5.886184472905706
 10
20.10139143289761
 20
-2.212109524769673
 10
11.91492420889515
 20
2.802657526214541
 10
6.797078834480699
 20
0.01358873359316348
 10
6.822715960982448
 20
-2.73631417594864
  0
LWPOLYLINE
  5
59
100
AcDbEntity
  8
s00f-#def-silhouette
  6
CONTINUOUS
 62
  256
420
    0
370
   25
100
AcDbPolyline
 90
    5
 70
    0
 43
0
 10
16.95625373983366
 20
-10.39570121052072
 10
16.68185040004271
 20
-9.819919616863249
 10
16.94279784778809
 20
-8.952388260290391
 10
17.58623660724722
 20
-8.301295243698625
 10
18.23524897968547
 20
-8.248042025840984
  0
LWPOLYLINE
  5
5A
100
AcDbEntity
  8
s00e-#def-invisible
  6
DASHED
 62
  256
420
    0
370
    9
100
AcDbPolyline
 90
   10
 70
    0
 43
0
 10
18.23524897968547
 20
-8.248042025840984
 10
10.048781755683
 20
-3.233274974856769
 10
9.399769383244754
 20
-3.28652819271441
 10
8.756330623785621
 20
-3.937621209306181
 10
8.495383176040244
 20
-4.805152565879032
 10
8.769786515831223
 20
-5.380934159536517
 10
9.418798888269462
 20
-5.327680941678874
 10
10.06223764772859
 20
-4.676587925087102
 10
10.32318509547397
 20
-3.809056568514254
 10
10.048781755683
 20
-3.233274974856769
  0
LWPOLYLINE
  5
5B
100
AcDbEntity
  8
s00f-#def-silhouette
  6
CONTINUOUS
 62
  256
420
    0
370
   25
100
AcDbPolyline
 90
   10
 70
    0
 43
0
 10
11.03989761044703
 20
-7.809702923863114
 10
10.04168251573784
 20
-7.622761437705702
 10
8.963058018644633
 20
-7.980113221007567
 10
4.763088965984831
 20
-10.26896756453867
 10
1.352060955983808
 20
-8.179481293295243
 10
2.147071899415332
 20
-6.730788433600825
 10
3.166145169702439
 20
-5.381551426782691
 10
4.328566071096722
 20
-4.256259564017638
 10
5.529194602613959
 20
-3.441243651006792
 10
9.184798441481421
 20
-1.449051656277236
  0
LWPOLYLINE
  5
5C
100
AcDbEntity
  8
s00f-#def-silhouette
  6
CONTINUOUS
 62
  256
420
    0
370
   25
100
AcDbPolyline
 90
   26
 70
    0
 43
0
 10
16.65375781789501
 20
44.91923942524841
 10
16.65375781789501
 20
46.01950897797431
 10
11.65375781789502
 20
46.01950897797433
 10
11.65375781789501
 20
44.91923942524841
 10
11.65375781789501
 20
43.51531668064021
 10
11.65375781789501
 20
41.91916066492645
 10
11.65375781789501
 20
40.27494633143628
 10
11.65375781789502
 20
35.27494633143628
 10
8.153757817895015
 20
35.27494633143628
 10
8.153757817895015
 20
28.27494633143628
 10
8.153757817895018
 20
22.27494633143629
 10
8.575028011695073
 20
20.06637807362392
 10
9.911117130775731
 20
18.032305644317
 10
11.94518956008265
 20
16.69621652523634
 10
14.15375781789502
 20
16.27494633143628
 10
16.36232607570738
 20
16.69621652523634
 10
18.3963985050143
 20
18.032305644317
 10
19.73248762409496
 20
20.06637807362392
 10
20.15375781789502
 20
22.27494633143628
 10
20.15375781789502
 20
28.27494633143629
 10
20.15375781789501
 20
35.27494633143628
 10
16.65375781789501
 20
35.27494633143628
 10
16.65375781789501
 20
40.27494633143633
 10
16.65375781789501
 20
41.91916066492645
 10
16.65375781789501
 20
43.51531668064021
 10
16.65375781789501
 20
44.91923942524841
  0
LWPOLYLINE
  5
5D
100
AcDbEntity
  8
s00f-#def-silhouette
  6
CONTINUOUS
 62
  256
420
    0
370
   25
100
AcDbPolyline
 90
   17
 70
    0
 43
0
 10
17.98913455965748
 20
23.79333700868228
 10
18.27875781789502
 20
22.27494633143628
 10
17.98913455965748
 20
20.75655565419028
 10
17.07057329028953
 20
19.35813085904178
 10
15.67214849514101
 20
18.43956958967382
 10
14.15375781789502
 20
18.14994633143628
 10
12.63536714064902
 20
18.43956958967382
 10
11.23694234550051
 20
19.35813085904178
 10
10.31838107613256
 20
20.75655565419029
 10
10.02875781789502
 20
22.27494633143628
 10
10.31838107613256
 20
23.79333700868228
 10
11.23694234550051
 20
25.19176180383079
 10
12.63536714064902
 20
26.11032307319875
 10
14.15375781789502
 20
26.39994633143628
 10
15.67214849514102
 20
26.11032307319875
 10
17.07057329028952
 20
25.1917618038308
 10
17.98913455965748
 20
23.79333700868228
  0
LWPOLYLINE
  5
5E
100
AcDbEntity
  8
s00f-#def-silhouette
  6
CONTINUOUS
 62
  256
420
    0
370
   25
100
AcDbPolyline
 90
    9
 70
    0
 43
0
 10
-56.38488080968563
 20
32.65882980791946
 10
-57.26876428616884
 20
33.02494633143628
 10
-58.15264776265201
 20
32.65882980791947
 10
-58.51876428616884
 20
31.77494633143628
 10
-58.15264776265201
 20
30.89106285495309
 10
-57.26876428616884
 20
30.52494633143628
 10
-56.38488080968565
 20
30.89106285495311
 10
-56.01876428616884
 20
31.77494633143628
 10
-56.38488080968563
 20
32.65882980791946
  0
LWPOLYLINE
  5
5F
100
AcDbEntity
  8
s00f-#def-silhouette
  6
CONTINUOUS
 62
  256
420
    0
370
   25
100
AcDbPolyline
 90
   11
 70
    0
 43
0
 10
-50.46460679052358
 20
-9.092511962482661
 10
-51.06392746317341
 20
-9.092511962482657
 10
-52.03134682536156
 20
-9.092511962482657
 10
-53.26876428616884
 20
-9.092511962482657
 10
-53.26876428616884
 20
-14.09251196248266
 10
-52.03134682536156
 20
-14.09251196248266
 10
-51.0639274631734
 20
-14.09251196248266
 10
-50.46460679052358
 20
-14.09251196248265
 10
-50.26876428616884
 20
-14.09251196248266
 10
-50.26876428616884
 20
-9.092511962482657
 10
-50.46460679052358
 20
-9.092511962482661
  0
LWPOLYLINE
  5
60
100
AcDbEntity
  8
s100-new-custom-style
  6
CONTINUOUS
 62
  256
420
    0
370
   13
100
AcDbPolyline
 90
    5
 70
    0
 43
0
 10
58.7379467102763
 20
-44.80713318514482
 10
58.7379467102763
 20
60.19286681485518
 10
-89.76205328972368
 20
60.19286681485518
 10
-89.76205328972368
 20
-44.80713318514482
 10
58.7379467102763
 20
-44.80713318514482
  0
LWPOLYLINE
  5
61
100
AcDbEntity
  8
s00f-#def-silhouette
  6
CONTINUOUS
 62
  256
420
    0
370
   25
100
AcDbPolyline
 90
   20
 70
    0
 43
0
 10
-51.06392746317341
 20
43.5153166806402
 10
-50.46460679052365
 20
41.91916066492671
 10
-50.26876428616884
 20
40.27494633143627
 10
-50.26876428616883
 20
35.27494633143628
 10
-50.26876428616884
 20
28.27494633143628
 10
-54.76876428616884
 20
28.27494633143628
 10
-54.76876428616885
 20
22.27494633143628
 10
-54.76876428616885
 20
20.06637807406505
 10
-54.76876428616885
 20
18.032305644317
 10
-54.76876428616885
 20
16.6962165250617
 10
-54.76876428616885
 20
16.27494633143628
 10
-59.76876428616885
 20
16.27494633143628
 10
-59.76876428616885
 20
16.6962165250617
 10
-59.76876428616885
 20
18.032305644317
 10
-59.76876428616886
 20
20.06637807406505
 10
-59.76876428616886
 20
22.27494633143629
 10
-59.76876428616884
 20
28.27494633143628
 10
-64.26876428616885
 20
28.27494633143629
 10
-64.26876428616883
 20
35.27494633143628
 10
-50.26876428616883
 20
35.27494633143628
  0
LWPOLYLINE
  5
62
100
AcDbEntity
  8
s00f-#def-silhouette
  6
CONTINUOUS
 62
  256
420
    0
370
   25
100
AcDbPolyline
 90
   18
 70
    0
 43
0
 10
-51.06392746317341
 20
43.5153166806402
 10
-52.03134682536138
 20
44.91923942524821
 10
-53.26876428614904
 20
46.01950897796051
 10
-53.26876428616884
 20
40.27494633143628
 10
-53.54961108203555
 20
38.8025674928947
 10
-54.44033716142265
 20
37.44651920669008
 10
-55.79638544762726
 20
36.55579312730298
 10
-57.26876428616884
 20
36.27494633143628
 10
-58.74114312471041
 20
36.55579312730298
 10
-60.09719141091505
 20
37.4465192066901
 10
-60.98791749030214
 20
38.80256749289471
 10
-61.26876428616884
 20
40.27494633143628
 10
-61.26876428616884
 20
46.01950897797431
 10
-62.50618174697632
 20
44.91923942524821
 10
-63.47360110916427
 20
43.51531668064023
 10
-64.07292178181405
 20
41.91916066492671
 10
-64.26876428616885
 20
40.27494633146041
 10
-64.26876428616883
 20
35.27494633143628
  0
LWPOLYLINE
  5
63
100
AcDbEntity
  8
s00f-#def-silhouette
  6
CONTINUOUS
 62
  256
420
    0
370
   25
100
AcDbPolyline
 90
   18
 70
    0
 43
0
 10
-53.26876428616884
 20
-9.092511962482657
 10
-53.54961108191911
 20
-9.092511962482657
 10
-54.44033716142265
 20
-9.092511962482657
 10
-55.79638544792134
 20
-9.092511962482657
 10
-57.26876428616884
 20
-9.092511962482657
 10
-58.74114312441633
 20
-9.092511962482657
 10
-60.09719141091503
 20
-9.092511962482657
 10
-60.98791749041855
 20
-9.092511962482657
 10
-61.26876428616884
 20
-9.092511962482657
 10
-61.26876428616885
 20
-14.09251196248266
 10
-60.98791749041857
 20
-14.09251196248266
 10
-60.09719141091503
 20
-14.09251196248266
 10
-58.74114312441633
 20
-14.09251196248266
 10
-57.26876428616884
 20
-14.09251196248266
 10
-55.79638544792135
 20
-14.09251196248266
 10
-54.44033716142265
 20
-14.09251196248266
 10
-53.54961108191912
 20
-14.09251196248266
 10
-53.26876428616884
 20
-14.09251196248266
  0
LWPOLYLINE
  5
64
100
AcDbEntity
  8
s00f-#def-silhouette
  6
CONTINUOUS
 62
  256
420
    0
370
   25
100
AcDbPolyline
 90
   10
 70
    0
 43
0
 10
-61.26876428616884
 20
-9.092511962482657
 10
-62.50618174697613
 20
-9.092511962482654
 10
-63.47360110916428
 20
-9.092511962482657
 10
-64.0729217818141
 20
-9.092511962482657
 10
-64.26876428616885
 20
-9.092511962482657
 10
-64.26876428616883
 20
-14.09251196248266
 10
-64.0729217818141
 20
-14.09251196248266
 10
-63.47360110916428
 20
-14.09251196248266
 10
-62.50618174697613
 20
-14.09251196248266
 10
-61.26876428616885
 20
-14.09251196248266
  0
LWPOLYLINE
  5
65
100
AcDbEntity
  8
s00f-#def-silhouette
  6
CONTINUOUS
 62
  256
420
    0
370
   25
100
AcDbPolyline
 90
    3
 70
    0
 43
0
 10
-64.26876428616883
 20
-5.592511962482657
 10
-50.26876428616884
 20
-5.592511962482657
 10
-50.26876428616884
 20
-9.092511962482657
  0
LWPOLYLINE
  5
66
100
AcDbEntity
  8
s00f-#def-silhouette
  6
CONTINUOUS
 62
  256
420
    0
370
   25
100
AcDbPolyline
 90
    4
 70
    0
 43
0
 10
-50.26876428616884
 20
-14.09251196248266
 10
-50.26876428616884
 20
-17.59251196248266
 10
-64.26876428616883
 20
-17.59251196248266
 10
-64.26876428616883
 20
-14.09251196248266
  0
LWPOLYLINE
  5
67
100
AcDbEntity
  8
s101-new-custom-style
  6
CONTINUOUS
 62
  256
420
    0
370
   13
100
AcDbPolyline
 90
    5
 70
    0
 43
0
 10
56.2379467102763
 20
-42.30713318514482
 10
-79.76205328972368
 20
-42.30713318514482
 10
-79.76205328972368
 20
57.69286681485518
 10
56.2379467102763
 20
57.69286681485518
 10
56.2379467102763
 20
-42.30713318514482
  0
LINE
  5
68
100
AcDbEntity
  8
s101-new-custom-style
  6
CONTINUOUS
 62
  256
420
    0
370
   13
100
AcDbLine
 10
-27.7620532897237
 20
-22.30713318514481
 11
-27.7620532897237
 21
-42.30713318514482
  0
LINE
  5
69
100
AcDbEntity
  8
s101-new-custom-style
  6
CONTINUOUS
 62
  256
420
    0
370
   13
100
AcDbLine
 10
-32.7620532897237
 20
-22.30713318514481
 11
-32.7620532897237
 21
-29.80713318514481
  0
LINE
  5
6A
100
AcDbEntity
  8
s101-new-custom-style
  6
CONTINUOUS
 62
  256
420
    0
370
   13
100
AcDbLine
 10
-16.2620532897237
 20
-22.30713318514481
 11
-16.2620532897237
 21
-42.30713318514482
  0
LINE
  5
6B
100
AcDbEntity
  8
s101-new-custom-style
  6
CONTINUOUS
 62
  256
420
    0
370
   13
100
AcDbLine
 10
-8.762053289723694
 20
-22.30713318514481
 11
-8.762053289723694
 21
-42.30713318514482
  0
LINE
  5
6C
100
AcDbEntity
  8
s101-new-custom-style
  6
CONTINUOUS
 62
  256
420
    0
370
   13
100
AcDbLine
 10
-3.762053289723694
 20
-22.30713318514481
 11
-3.762053289723694
 21
-42.30713318514482
  0
LINE
  5
6D
100
AcDbEntity
  8
s100-new-custom-style
  6
CONTINUOUS
 62
  256
420
    0
370
   13
100
AcDbLine
 10
-36.2620532897237
 20
-39.80713318514482
 11
-3.762053289723694
 21
-39.80713318514482
  0
LINE
  5
6E
100
AcDbEntity
  8
s100-new-custom-style
  6
CONTINUOUS
 62
  256
420
    0
370
   13
100
AcDbLine
 10
-36.2620532897237
 20
-37.30713318514481
 11
-3.762053289723694
 21
-37.30713318514481
  0
LINE
  5
6F
100
AcDbEntity
  8
s101-new-custom-style
  6
CONTINUOUS
 62
  256
420
    0
370
   13
100
AcDbLine
 10
-36.2620532897237
 20
-34.80713318514481
 11
-3.762053289723694
 21
-34.80713318514481
  0
LINE
  5
70
100
AcDbEntity
  8
s100-new-custom-style
  6
CONTINUOUS
 62
  256
420
    0
370
   13
100
AcDbLine
 10
-36.2620532897237
 20
-32.30713318514481
 11
-3.762053289723694
 21
-32.30713318514481
  0
LINE
  5
71
100
AcDbEntity
  8
s101-new-custom-style
  6
CONTINUOUS
 62
  256
420
    0
370
   13
100
AcDbLine
 10
-36.2620532897237
 20
-27.30713318514481
 11
-3.762053289723694
 21
-27.30713318514481
  0
LINE
  5
72
100
AcDbEntity
  8
s100-new-custom-style
  6
CONTINUOUS
 62
  256
420
    0
370
   13
100
AcDbLine
 10
-36.2620532897237
 20
-24.80713318514481
 11
-3.762053289723694
 21
-24.80713318514481
  0
LINE
  5
73
100
AcDbEntity
  8
s101-new-custom-style
  6
CONTINUOUS
 62
  256
420
    0
370
   13
100
AcDbLine
 10
31.2379467102763
 20
-29.80713318514481
 11
31.2379467102763
 21
-42.30713318514482
  0
LINE
  5
74
100
AcDbEntity
  8
s101-new-custom-style
  6
CONTINUOUS
 62
  256
420
    0
370
   13
100
AcDbLine
 10
31.2379467102763
 20
-34.80713318514481
 11
56.2379467102763
 21
-34.80713318514481
  0
LINE
  5
75
100
AcDbEntity
  8
s101-new-custom-style
  6
CONTINUOUS
 62
  256
420
    0
370
   13
100
AcDbLine
 10
47.2379467102763
 20
-29.80713318514481
 11
47.2379467102763
 21
-34.80713318514481
  0
LINE
  5
76
100
AcDbEntity
  8
s100-new-custom-style
  6
CONTINUOUS
 62
  256
420
    0
370
   13
100
AcDbLine
 10
33.7379467102763
 20
-32.30713318514481
 11
33.7379467102763
 21
-34.80713318514481
  0
LINE
  5
77
100
AcDbEntity
  8
s100-new-custom-style
  6
CONTINUOUS
 62
  256
420
    0
370
   13
100
AcDbLine
 10
36.2379467102763
 20
-32.30713318514481
 11
36.2379467102763
 21
-34.80713318514481
  0
LINE
  5
78
100
AcDbEntity
  8
s00e-#def-invisible
  6
DASHED
 62
  256
420
    0
370
    9
100
AcDbLine
 10
24.5896067695303
 20
-5.127233941889271
 11
24.55154775948088
 21
-1.04492844396035
  0
LINE
  5
79
100
AcDbEntity
  8
s00e-#def-invisible
  6
DASHED
 62
  256
420
    0
370
    9
100
AcDbLine
 10
11.94917731793962
 20
-0.8714174219214925
 11
15.10509530941458
 21
0.8484611086216872
  0
LINE
  5
7A
100
AcDbEntity
  8
s005-#def-solid-edge
  6
CONTINUOUS
 62
  256
420
    0
370
    9
100
AcDbLine
 10
15.09011128662153
 20
-16.43163371159204
 11
14.98354605848317
 21
-5.001178317391052
  0
LINE
  5
7B
100
AcDbEntity
  8
s00e-#def-invisible
  6
DASHED
 62
  256
420
    0
370
    9
100
AcDbLine
 10
7.628869600446
 20
-5.720216652619692
 11
11.03989761044703
 21
-7.809702923863114
  0
LINE
  5
7C
100
AcDbEntity
  8
s005-#def-solid-edge
  6
CONTINUOUS
 62
  256
420
    0
370
    9
100
AcDbLine
 10
6.797078834480699
 20
0.01358873359316348
 11
9.184798441481421
 21
-1.449051656277236
  0
LINE
  5
7D
100
AcDbEntity
  8
s00e-#def-invisible
  6
DASHED
 62
  256
420
    0
370
    9
100
AcDbLine
 10
9.184798441481421
 20
-1.449051656277236
 11
9.291363669619789
 21
-12.87950705047823
  0
LINE
  5
7E
100
AcDbEntity
  8
s00e-#def-invisible
  6
DASHED
 62
  256
420
    0
370
    9
100
AcDbLine
 10
6.822715960982448
 20
-2.73631417594864
 11
6.882175833443162
 21
-9.114130202622853
  0
LINE
  5
7F
100
AcDbEntity
  8
s00e-#def-invisible
  6
DASHED
 62
  256
420
    0
370
    9
100
AcDbLine
 10
6.902823819393862
 20
-11.3288853015667
 11
6.903644062619071
 21
-11.41686666060783
  0
LINE
  5
80
100
AcDbEntity
  8
s005-#def-solid-edge
  6
CONTINUOUS
 62
  256
420
    0
370
    9
100
AcDbLine
 10
4.823983382063904
 20
-16.80065636122495
 11
5.637832278925904
 21
-17.37256994292527
  0
LINE
  5
81
100
AcDbEntity
  8
s00e-#def-invisible
  6
DASHED
 62
  256
420
    0
370
    9
100
AcDbLine
 10
-54.76876428616884
 20
-17.59251196248266
 11
-54.76876428616884
 21
-5.592511962482657
  0
LINE
  5
82
100
AcDbEntity
  8
s00e-#def-invisible
  6
DASHED
 62
  256
420
    0
370
    9
100
AcDbLine
 10
16.65375781789501
 20
36.27494633143628
 11
11.65375781789502
 21
36.27494633143628
  0
LINE
  5
83
100
AcDbEntity
  8
s00e-#def-invisible
  6
DASHED
 62
  256
420
    0
370
    9
100
AcDbLine
 10
8.153757817895015
 20
33.02494633143628
 11
20.15375781789502
 21
33.02494633143628
  0
LINE
  5
84
100
AcDbEntity
  8
s00e-#def-invisible
  6
DASHED
 62
  256
420
    0
370
    9
100
AcDbLine
 10
20.15375781789502
 20
30.52494633143629
 11
8.153757817895015
 21
30.52494633143628
  0
LINE
  5
85
100
AcDbEntity
  8
s00f-#def-silhouette
  6
CONTINUOUS
 62
  256
420
    0
370
   25
100
AcDbLine
 10
20.15375781789502
 20
28.27494633143629
 11
8.153757817895015
 21
28.27494633143628
  0
LINE
  5
86
100
AcDbEntity
  8
s00e-#def-invisible
  6
DASHED
 62
  256
420
    0
370
    9
100
AcDbLine
 10
-59.76876428616885
 20
26.39994633143628
 11
-54.76876428616885
 21
26.39994633143628
  0
LINE
  5
87
100
AcDbEntity
  8
s00e-#def-invisible
  6
DASHED
 62
  256
420
    0
370
    9
100
AcDbLine
 10
-54.76876428616885
 20
18.14994633143628
 11
-59.76876428616885
 21
18.14994633143628
  0
LINE
  5
88
100
AcDbEntity
  8
s00e-#def-invisible
  6
DASHED
 62
  256
420
    0
370
    9
100
AcDbLine
 10
16.95625373983366
 20
-10.39570121052072
 11
8.769786515831223
 21
-5.380934159536517
  0
LINE
  5
89
100
AcDbEntity
  8
s00e-#def-invisible
  6
DASHED
 62
  256
420
    0
370
    9
100
AcDbLine
 10
16.34478232373214
 20
-5.013718161444844
 11
16.30672331368272
 21
-0.9314126635159159
  0
LINE
  5
8A
100
AcDbEntity
  8
s00f-#def-silhouette
  6
CONTINUOUS
 62
  256
420
    0
370
   25
100
AcDbLine
 10
6.902823819393862
 20
-11.3288853015667
 11
6.882175833443162
 21
-9.114130202622853
  0
LINE
  5
8B
100
AcDbEntity
  8
s00e-#def-invisible
  6
DASHED
 62
  256
420
    0
370
    9
100
AcDbLine
 10
-56.01876428616884
 20
-5.592511962482657
 11
-56.01876428616884
 21
-17.59251196248266
  0
LINE
  5
8C
100
AcDbEntity
  8
s00f-#def-silhouette
  6
CONTINUOUS
 62
  256
420
    0
370
   25
100
AcDbLine
 10
-64.26876428616885
 20
-9.092511962482657
 11
-64.26876428616883
 21
-5.592511962482657
  0
LINE
  5
8D
100
AcDbEntity
  8
s00e-#def-invisible
  6
DASHED
 62
  256
420
    0
370
    9
100
AcDbLine
 10
-58.51876428616884
 20
-17.59251196248266
 11
-58.51876428616884
 21
-5.592511962482657
  0
LINE
  5
8E
100
AcDbEntity
  8
s00e-#def-invisible
  6
DASHED
 62
  256
420
    0
370
    9
100
AcDbLine
 10
-54.76876428616884
 20
-15.71751196248266
 11
-59.76876428616884
 21
-15.71751196248266
  0
DIMENSION
  5
8F
100
AcDbEntity
  8
dimensions
  6
BYLAYER
 62
  256
370
   -1
100
AcDbDimension
 10
-57.26876428616884
 20
-1.425845295815991
 30
-17.74456264653803
 11
-57.26876428616884
 21
-1.425845295815991
 31
-17.74456264653803
 70
   33
  1
28.00
 71
    5
  3
STANDARD
 53
0
210
0
220
0
230
1
100
AcDbAlignedDimension
 13
-50.26876428616884
 23
-5.592511962482657
 33
-17.74456264653803
 14
-64.26876428616885
 24
-5.592511962482657
 34
-17.74456264653803
  0
DIMENSION
  5
90
100
AcDbEntity
  8
dimensions
  6
BYLAYER
 62
  256
370
   -1
100
AcDbDimension
 10
-45.60209761950217
 20
-11.34251196248266
 30
-14.24456264653803
 11
-45.60209761950217
 21
-11.34251196248266
 31
-14.24456264653803
 70
   33
  1
24.00
 71
    5
  3
STANDARD
 53
0
210
0
220
0
230
1
100
AcDbAlignedDimension
 13
-50.26876428616884
 23
-5.592511962482657
 33
-17.74456264653803
 14
-50.26876428616883
 24
-17.59251196248266
 34
-10.74456264653803
  0
DIMENSION
  5
91
100
AcDbEntity
  8
dimensions
  6
BYLAYER
 62
  256
370
   -1
100
AcDbDimension
 10
17.76561187273849
 20
24.2674661648409
 30
-4.499999999999998
 11
23.79635041048761
 21
27.59439077588073
 31
-4.499999999999997
 70
   35
  1
  16.50
 71
    5
  3
STANDARD
 53
0
210
0
220
0
230
1
100
AcDbDiametricDimension
 15
10.54190376305155
 25
20.28242649803166
 35
-4.499999999999998
 40
0
  0
DIMENSION
  5
92
100
AcDbEntity
  8
dimensions
  6
BYLAYER
 62
  256
370
   -1
100
AcDbDimension
 10
-53.7067111202955
 20
38.45511742643127
 30
-5.536187652105666e-015
 11
-44.51876428616884
 21
33.7610574425474
 31
-1.065235312324447e-014
 70
   35
  1
  16.00
 71
    5
  3
STANDARD
 53
0
210
0
220
0
230
1
100
AcDbDiametricDimension
 15
-60.83081745204218
 25
42.09477523644129
 35
-1.569239705495335e-015
 40
0
  0
DIMENSION
  5
93
100
AcDbEntity
  8
dimensions
  6
BYLAYER
 62
  256
370
   -1
100
AcDbDimension
 10
-57.61598650839107
 20
11.23327966476961
 30
-12
 11
-57.61598650839107
 21
11.23327966476961
 31
-12
 70
   33
  1
10.00
 71
    5
  3
STANDARD
 53
0
210
0
220
0
230
1
100
AcDbAlignedDimension
 13
-59.76876428616885
 23
22.27494633143628
 33
-12
 14
-54.76876428616885
 24
22.27494633143628
 34
-12.00000000000001
  0
DIMENSION
  5
94
100
AcDbEntity
  8
dimensions
  6
BYLAYER
 62
  256
370
   -1
100
AcDbDimension
 10
-50.87389094307639
 20
43.12197898418293
 30
-6.970773480683417e-015
 11
-45.10209761950218
 21
45.69161299810295
 31
-1.005579701213383e-014
 70
   35
  1
  28.00
 71
    5
  3
STANDARD
 53
0
210
0
220
0
230
1
100
AcDbDiametricDimension
 15
-63.66363762926129
 25
37.42791367868964
 35
-1.346538769175848e-016
 40
0
  0
DIMENSION
  5
95
100
AcDbEntity
  8
dimensions
  6
BYLAYER
 62
  256
370
   -1
100
AcDbDimension
 10
-69.76876428616885
 20
38.27494633143628
 30
-10.25
 11
-69.76876428616885
 21
38.27494633143628
 31
-10.25
 70
   32
  1
10.00
 71
    5
  3
STANDARD
 53
0
210
0
220
0
230
1
100
AcDbAlignedDimension
 13
-57.26876428616885
 23
40.27494633143628
 33
-12
 14
-64.26876428616885
 24
35.27494633143628
 34
-8.5
 50
270
100
AcDbRotatedDimension
  0
DIMENSION
  5
96
100
AcDbEntity
  8
dimensions
  6
BYLAYER
 62
  256
370
   -1
100
AcDbDimension
 10
-69.85209761950218
 20
31.44161299810295
 30
-4.25
 11
-69.85209761950218
 21
31.44161299810295
 31
-4.25
 70
   32
  1
14.00
 71
    5
  3
STANDARD
 53
0
210
0
220
0
230
1
100
AcDbAlignedDimension
 13
-64.26876428616885
 23
28.27494633143629
 33
0
 14
-64.26876428616885
 24
35.27494633143628
 34
-8.5
 50
270
100
AcDbRotatedDimension
  0
DIMENSION
  5
97
100
AcDbEntity
  8
dimensions
  6
BYLAYER
 62
  256
370
   -1
100
AcDbDimension
 10
13.65375781789501
 20
49.51950897797431
 30
2.664535259100376e-015
 11
13.65375781789501
 21
49.51950897797431
 31
2.664535259100376e-015
 70
   33
  1
10.00
 71
    5
  3
STANDARD
 53
0
210
0
220
0
230
1
100
AcDbAlignedDimension
 13
11.65375781789501
 23
46.01950897797431
 33
2.664535259100376e-015
 14
16.65375781789501
 24
46.01950897797431
 34
2.664535259100376e-015
  0
DIMENSION
  5
98
100
AcDbEntity
  8
dimensions
  6
BYLAYER
 62
  256
370
   -1
100
AcDbDimension
 10
1.053757817895022
 20
22.47494633143629
 30
-9.249999999999996
 11
1.053757817895022
 21
22.47494633143629
 31
-9.249999999999996
 70
   32
  1
24.00
 71
    5
  3
STANDARD
 53
0
210
0
220
0
230
1
100
AcDbAlignedDimension
 13
14.15375781789502
 23
16.27494633143628
 33
-4.499999999999998
 14
8.153757817895018
 24
28.27494633143628
 34
-14
 50
-90
100
AcDbRotatedDimension
  0
DIMENSION
  5
99
100
AcDbEntity
  8
dimensions
  6
BYLAYER
 62
  256
370
   -1
100
AcDbDimension
 10
17.83214855849354
 20
17.53475207808768
 30
-4.499999999999998
 11
22.23709115122836
 21
11.85827966476962
 31
-4.499999999999998
 70
   35
  1
  24.00
 71
    5
  3
STANDARD
 53
0
210
0
220
0
230
1
100
AcDbDiametricDimension
 15
10.4753670772965
 25
27.01514058478488
 35
-4.499999999999998
 40
0
  0
TEXT
  5
9A
100
AcDbEntity
  8
text
  6
BYLAYER
 62
  256
370
   -1
100
AcDbText
 10
14.76079286412244
 20
-35.29466721490105
 30
0
 40
6
  1

 50
0
 41
1
 51
0
  7
unicode
 71
    0
 72
    1
 11
14.76079286412244
 21
-35.29466721490105
 31
0
210
0
220
0
230
1
100
AcDbText
 73
    2
  0
TEXT
  5
9B
100
AcDbEntity
  8
text
  6
BYLAYER
 62
  256
370
   -1
100
AcDbText
 10
-35.49989938902882
 20
-29.00812695325695
 30
0
 40
2
  1

 50
0
 41
1
 51
0
  7
unicode
 71
    0
210
0
220
0
230
1
100
AcDbText
  0
TEXT
  5
9C
100
AcDbEntity
  8
text
  6
BYLAYER
 62
  256
370
   -1
100
AcDbText
 10
14.76079286412244
 20
-35.29466721490105
 30
0
 40
6
  1

 50
0
 41
1
 51
0
  7
unicode
 71
    0
 72
    1
 11
14.76079286412244
 21
-35.29466721490105
 31
0
210
0
220
0
230
1
100
AcDbText
 73
    2
  0
TEXT
  5
9D
100
AcDbEntity
  8
text
  6
BYLAYER
 62
  256
370
   -1
100
AcDbText
 10
-34.47951539866835
 20
-28.49793495807672
 30
0
 40
2
  1

 50
0
 41
1
 51
0
  7
unicode
 71
    0
210
0
220
0
230
1
100
AcDbText
  0
TEXT
  5
9E
100
AcDbEntity
  8
text
  6
BYLAYER
 62
  256
370
   -1
100
AcDbText
 10
-31.94653067205192
 20
-29.00184798429806
 30
0
 40
2
  1

 50
0
 41
1
 51
0
  7
unicode
 71
    0
210
0
220
0
230
1
100
AcDbText
  0
TEXT
  5
9F
100
AcDbEntity
  8
text
  6
BYLAYER
 62
  256
370
   -1
100
AcDbText
 10
-35.68112370848042
 20
-31.64553303626871
 30
0
 40
2
  1
.
 50
0
 41
1
 51
0
  7
unicode
 71
    0
210
0
220
0
230
1
100
AcDbText
  0
TEXT
  5
A0
100
AcDbEntity
  8
text
  6
BYLAYER
 62
  256
370
   -1
100
AcDbText
 10
-35.68112370848041
 20
-34.01096865028615
 30
0
 40
2
  1
.
 50
0
 41
1
 51
0
  7
unicode
 71
    0
210
0
220
0
230
1
100
AcDbText
  0
TEXT
  5
A1
100
AcDbEntity
  8
text
  6
BYLAYER
 62
  256
370
   -1
100
AcDbText
 10
-26.94292626375719
 20
-31.7197427810222
 30
0
 40
2
  1
Evil-Spirit
 50
0
 41
1
 51
0
  7
unicode
 71
    0
210
0
220
0
230
1
100
AcDbText
  0
TEXT
  5
A2
100
AcDbEntity
  8
text
  6
BYLAYER
 62
  256
370
   -1
100
AcDbText
 10
-27.08206953516999
 20
-34.06662595885126
 30
0
 40
2
  1
whitequark
 50
0
 41
1
 51
0
  7
unicode
 71
    0
210
0
220
0
230
1
100
AcDbText
  0
TEXT
  5
A3
100
AcDbEntity
  8
text
  6
BYLAYER
 62
  256
370
   -1
100
AcDbText
 10
-35.72750479895134
 20
-36.42278535477449
 30
0
 40
2
  1
.
 50
0
 41
1
 51
0
  7
unicode
 71
    0
210
0
220
0
230
1
100
AcDbText
  0
TEXT
  5
A4
100
AcDbEntity
  8
text
  6
BYLAYER
 62
  256
370
   -1
100
AcDbText
 10
-27.16864757071571
 20
-36.4923569904809
 30
0
 40
2
  1
jwesthues
 50
0
 41
1
 51
0
  7
unicode
 71
    0
210
0
220
0
230
1
100
AcDbText
  0
TEXT
  5
A5
100
AcDbEntity
  8
text
  6
BYLAYER
 62
  256
370
   -1
100
AcDbText
 10
27.5198041069245
 20
-25.90447841927162
 30
0
 40
4
  1
.123456.001 
 50
0
 41
1
 51
0
  7
unicode
 71
    0
 72
    1
 11
27.5198041069245
 21
-25.90447841927162
 31
0
210
0
220
0
230
1
100
AcDbText
 73
    2
  0
TEXT
  5
A6
100
AcDbEntity
  8
text
  6
BYLAYER
 62
  256
370
   -1
100
AcDbText
 10
-27.03760960833944
 20
-29.12650220477772
 30
0
 40
2
  1
No 
 50
0
 41
1
 51
0
  7
unicode
 71
    0
210
0
220
0
230
1
100
AcDbText
  0
TEXT
  5
A7
100
AcDbEntity
  8
text
  6
BYLAYER
 62
  256
370
   -1
100
AcDbText
 10
-15.59649708485967
 20
-29.14054811679049
 30
0
 40
2
  1
.
 50
0
 41
1
 51
0
  7
unicode
 71
    0
210
0
220
0
230
1
100
AcDbText
  0
TEXT
  5
A8
100
AcDbEntity
  8
text
  6
BYLAYER
 62
  256
370
   -1
100
AcDbText
 10
-7.943617157156208
 20
-29.02459539061317
 30
0
 40
2
  1

 50
0
 41
1
 51
0
  7
unicode
 71
    0
210
0
220
0
230
1
100
AcDbText
  0
TEXT
  5
A9
100
AcDbEntity
  8
text
  6
BYLAYER
 62
  256
370
   -1
100
AcDbText
 10
33.56279058601736
 20
-31.35658237711541
 30
0
 40
2
  1

 50
0
 41
1
 51
0
  7
unicode
 71
    0
210
0
220
0
230
1
100
AcDbText
  0
TEXT
  5
AA
100
AcDbEntity
  8
text
  6
BYLAYER
 62
  256
370
   -1
100
AcDbText
 10
41.41047109369866
 20
-38.03545940492933
 30
0
 40
2
  1

 50
0
 41
1
 51
0
  7
unicode
 71
    0
210
0
220
0
230
1
100
AcDbText
  0
TEXT
  5
AB
100
AcDbEntity
  8
text
  6
BYLAYER
 62
  256
370
   -1
100
AcDbText
 10
42.96887573352194
 20
-39.81649327901306
 30
0
 40
2
  1
1 : 1
 50
0
 41
1
 51
0
  7
unicode
 71
    0
210
0
220
0
230
1
100
AcDbText
  0
TEXT
  5
AC
100
AcDbEntity
  8
text
  6
BYLAYER
 62
  256
370
   -1
100
AcDbText
 10
41.18784185943823
 20
-31.41223968568052
 30
0
 40
2
  1

 50
0
 41
1
 51
0
  7
unicode
 71
    0
210
0
220
0
230
1
100
AcDbText
  0
TEXT
  5
AD
100
AcDbEntity
  8
text
  6
BYLAYER
 62
  256
370
   -1
100
AcDbText
 10
49.53643814420565
 20
-31.41223968568053
 30
0
 40
2
  1

 50
0
 41
1
 51
0
  7
unicode
 71
    0
210
0
220
0
230
1
100
AcDbText
  0
TEXT
  5
AE
100
AcDbEntity
  8
text
  6
BYLAYER
 62
  256
370
   -1
100
AcDbText
 10
42.46795995643591
 20
-33.97247587967586
 30
0
 40
2
  1
1
 50
0
 41
1
 51
0
  7
unicode
 71
    0
210
0
220
0
230
1
100
AcDbText
  0
TEXT
  5
AF
100
AcDbEntity
  8
text
  6
BYLAYER
 62
  256
370
   -1
100
AcDbText
 10
51.31747201828934
 20
-34.02813318824097
 30
0
 40
2
  1
1
 50
0
 41
1
 51
0
  7
unicode
 71
    0
210
0
220
0
230
1
100
AcDbText
  0
ENDSEC
  0
SECTION
  2
OBJECTS
  0
DICTIONARY
  5
C
330
0
100
AcDbDictionary
281
    1
  3
ACAD_GROUP
350
D
  0
DICTIONARY
  5
D
330
C
100
AcDbDictionary
281
    1
  0
ENDSEC
  0
EOF
