  999
file created by SolveSpace
  0
SECTION
  2
HEADER
  9
$ACADVER
  1
AC1006
  9
$ANGDIR
  70
0
  9
$AUNITS
  70
0
  9
$AUPREC
  70
0
  9
$INSBASE
  10
0.0
  20
0.0
  30
0.0
  9
$EXTMIN
  10
0.0
  20
0.0
  9
$EXTMAX
  10
10000.0
  20
10000.0
  0
ENDSEC
  0
SECTION
  2
ENTITIES
  0
LINE
  8
0
  10
-91.034584
  20
-2.562770
  30
0.000000
  11
-91.034584
  21
-2.362435
  31
0.000000
  0
LINE
  8
0
  10
-91.034584
  20
-2.362435
  30
0.000000
  11
-91.034584
  21
-1.720230
  31
0.000000
  0
LINE
  8
0
  10
-91.034584
  20
-1.720230
  30
0.000000
  11
-91.034584
  21
-0.606716
  31
0.000000
  0
LINE
  8
0
  10
-91.034584
  20
-0.606716
  30
0.000000
  11
-91.034584
  21
0.951948
  31
0.000000
  0
LINE
  8
0
  10
-91.034584
  20
0.951948
  30
0.000000
  11
-91.034584
  21
2.870713
  31
0.000000
  0
LINE
  8
0
  10
-91.034584
  20
2.870713
  30
0.000000
  11
-91.034584
  21
5.020093
  31
0.000000
  0
LINE
  8
0
  10
-91.034584
  20
5.020093
  30
0.000000
  11
-91.034584
  21
7.253673
  31
0.000000
  0
LINE
  8
0
  10
-91.034584
  20
7.253673
  30
0.000000
  11
-91.034584
  21
9.437230
  31
0.000000
  0
LINE
  8
0
  10
-91.034584
  20
9.437230
  30
0.000000
  11
-91.034584
  21
7.253673
  31
0.000000
  0
LINE
  8
0
  10
-91.034584
  20
7.253673
  30
0.000000
  11
-91.034584
  21
5.020093
  31
0.000000
  0
LINE
  8
0
  10
-91.034584
  20
5.020093
  30
0.000000
  11
-91.034584
  21
2.870713
  31
0.000000
  0
LINE
  8
0
  10
-91.034584
  20
2.870713
  30
0.000000
  11
-91.034584
  21
0.951948
  31
0.000000
  0
LINE
  8
0
  10
-91.034584
  20
0.951948
  30
0.000000
  11
-91.034584
  21
-0.606716
  31
0.000000
  0
LINE
  8
0
  10
-91.034584
  20
-0.606716
  30
0.000000
  11
-91.034584
  21
-1.720230
  31
0.000000
  0
LINE
  8
0
  10
-91.034584
  20
-1.720230
  30
0.000000
  11
-91.034584
  21
-2.362435
  31
0.000000
  0
LINE
  8
0
  10
-91.034584
  20
-2.362435
  30
0.000000
  11
-91.034584
  21
-2.562770
  31
0.000000
  0
LINE
  8
0
  10
-91.034584
  20
-2.562770
  30
0.000000
  11
-101.034584
  21
-2.562770
  31
0.000000
  0
LINE
  8
0
  10
-101.034584
  20
-2.562770
  30
0.000000
  11
-91.034584
  21
-2.562770
  31
0.000000
  0
LINE
  8
0
  10
4.201141
  20
9.437230
  30
0.000000
  11
4.000806
  21
7.253673
  31
0.000000
  0
LINE
  8
0
  10
4.000806
  20
7.253673
  30
0.000000
  11
3.358601
  21
5.020093
  31
0.000000
  0
LINE
  8
0
  10
3.358601
  20
5.020093
  30
0.000000
  11
2.245087
  21
2.870713
  31
0.000000
  0
LINE
  8
0
  10
2.245087
  20
2.870713
  30
0.000000
  11
0.686423
  21
0.951948
  31
0.000000
  0
LINE
  8
0
  10
0.686423
  20
0.951948
  30
0.000000
  11
-1.232342
  21
-0.606716
  31
0.000000
  0
LINE
  8
0
  10
-1.232342
  20
-0.606716
  30
0.000000
  11
-3.381722
  21
-1.720230
  31
0.000000
  0
LINE
  8
0
  10
-3.381722
  20
-1.720230
  30
0.000000
  11
-5.615302
  21
-2.362435
  31
0.000000
  0
LINE
  8
0
  10
-5.615302
  20
-2.362435
  30
0.000000
  11
-7.798859
  21
-2.562770
  31
0.000000
  0
LINE
  8
0
  10
-7.798859
  20
-2.562770
  30
0.000000
  11
-9.982415
  21
-2.362435
  31
0.000000
  0
LINE
  8
0
  10
-9.982415
  20
-2.362435
  30
0.000000
  11
-12.215995
  21
-1.720230
  31
0.000000
  0
LINE
  8
0
  10
-12.215995
  20
-1.720230
  30
0.000000
  11
-14.365376
  21
-0.606716
  31
0.000000
  0
LINE
  8
0
  10
-14.365376
  20
-0.606716
  30
0.000000
  11
-16.284140
  21
0.951948
  31
0.000000
  0
LINE
  8
0
  10
-16.284140
  20
0.951948
  30
0.000000
  11
-17.842805
  21
2.870713
  31
0.000000
  0
LINE
  8
0
  10
-17.842805
  20
2.870713
  30
0.000000
  11
-18.956318
  21
5.020093
  31
0.000000
  0
LINE
  8
0
  10
-18.956318
  20
5.020093
  30
0.000000
  11
-19.598523
  21
7.253673
  31
0.000000
  0
LINE
  8
0
  10
-19.598523
  20
7.253673
  30
0.000000
  11
-19.798859
  21
9.437230
  31
0.000000
  0
LINE
  8
0
  10
-19.798859
  20
9.437230
  30
0.000000
  11
-19.598523
  21
7.253673
  31
0.000000
  0
LINE
  8
0
  10
-19.598523
  20
7.253673
  30
0.000000
  11
-18.956318
  21
5.020093
  31
0.000000
  0
LINE
  8
0
  10
-18.956318
  20
5.020093
  30
0.000000
  11
-17.842805
  21
2.870713
  31
0.000000
  0
LINE
  8
0
  10
-17.842805
  20
2.870713
  30
0.000000
  11
-16.284140
  21
0.951948
  31
0.000000
  0
LINE
  8
0
  10
-16.284140
  20
0.951948
  30
0.000000
  11
-14.365376
  21
-0.606716
  31
0.000000
  0
LINE
  8
0
  10
-14.365376
  20
-0.606716
  30
0.000000
  11
-12.215995
  21
-1.720230
  31
0.000000
  0
LINE
  8
0
  10
-12.215995
  20
-1.720230
  30
0.000000
  11
-9.982415
  21
-2.362435
  31
0.000000
  0
LINE
  8
0
  10
-9.982415
  20
-2.362435
  30
0.000000
  11
-7.798859
  21
-2.562770
  31
0.000000
  0
LINE
  8
0
  10
-7.798859
  20
-2.562770
  30
0.000000
  11
-5.615302
  21
-2.362435
  31
0.000000
  0
LINE
  8
0
  10
-5.615302
  20
-2.362435
  30
0.000000
  11
-3.381722
  21
-1.720230
  31
0.000000
  0
LINE
  8
0
  10
-3.381722
  20
-1.720230
  30
0.000000
  11
-1.232342
  21
-0.606716
  31
0.000000
  0
LINE
  8
0
  10
-1.232342
  20
-0.606716
  30
0.000000
  11
0.686423
  21
0.951948
  31
0.000000
  0
LINE
  8
0
  10
0.686423
  20
0.951948
  30
0.000000
  11
2.245087
  21
2.870713
  31
0.000000
  0
LINE
  8
0
  10
2.245087
  20
2.870713
  30
0.000000
  11
3.358601
  21
5.020093
  31
0.000000
  0
LINE
  8
0
  10
3.358601
  20
5.020093
  30
0.000000
  11
4.000806
  21
7.253673
  31
0.000000
  0
LINE
  8
0
  10
4.000806
  20
7.253673
  30
0.000000
  11
4.201141
  21
9.437230
  31
0.000000
  0
LINE
  8
0
  10
-101.034584
  20
-40.857652
  30
0.000000
  11
-110.034584
  21
-40.857652
  31
0.000000
  0
LINE
  8
0
  10
-110.034584
  20
-40.857652
  30
0.000000
  11
-101.034584
  21
-40.857652
  31
0.000000
  0
LINE
  8
0
  10
-110.034584
  20
-64.857652
  30
0.000000
  11
-110.034584
  21
-40.857652
  31
0.000000
  0
LINE
  8
0
  10
-110.034584
  20
-40.857652
  30
0.000000
  11
-110.034584
  21
-64.857652
  31
0.000000
  0
LINE
  8
0
  10
-91.034584
  20
-52.857652
  30
0.000000
  11
-101.034584
  21
-52.857652
  31
0.000000
  0
LINE
  8
0
  10
-101.034584
  20
-52.857652
  30
0.000000
  11
-101.034584
  21
-55.041208
  31
0.000000
  0
LINE
  8
0
  10
-101.034584
  20
-55.041208
  30
0.000000
  11
-101.034584
  21
-57.274788
  31
0.000000
  0
LINE
  8
0
  10
-101.034584
  20
-57.274788
  30
0.000000
  11
-101.034584
  21
-59.424169
  31
0.000000
  0
LINE
  8
0
  10
-101.034584
  20
-59.424169
  30
0.000000
  11
-101.034584
  21
-61.342933
  31
0.000000
  0
LINE
  8
0
  10
-101.034584
  20
-61.342933
  30
0.000000
  11
-101.034584
  21
-62.901598
  31
0.000000
  0
LINE
  8
0
  10
-101.034584
  20
-62.901598
  30
0.000000
  11
-101.034584
  21
-64.015111
  31
0.000000
  0
LINE
  8
0
  10
-101.034584
  20
-64.015111
  30
0.000000
  11
-101.034584
  21
-64.657316
  31
0.000000
  0
LINE
  8
0
  10
-101.034584
  20
-64.657316
  30
0.000000
  11
-101.034584
  21
-64.857652
  31
0.000000
  0
LINE
  8
0
  10
-101.034584
  20
-64.857652
  30
0.000000
  11
-91.034584
  21
-64.857652
  31
0.000000
  0
LINE
  8
0
  10
-91.034584
  20
-64.857652
  30
0.000000
  11
-91.034584
  21
-64.657316
  31
0.000000
  0
LINE
  8
0
  10
-91.034584
  20
-64.657316
  30
0.000000
  11
-91.034584
  21
-64.015111
  31
0.000000
  0
LINE
  8
0
  10
-91.034584
  20
-64.015111
  30
0.000000
  11
-91.034584
  21
-62.901598
  31
0.000000
  0
LINE
  8
0
  10
-91.034584
  20
-62.901598
  30
0.000000
  11
-91.034584
  21
-61.342933
  31
0.000000
  0
LINE
  8
0
  10
-91.034584
  20
-61.342933
  30
0.000000
  11
-91.034584
  21
-59.424169
  31
0.000000
  0
LINE
  8
0
  10
-91.034584
  20
-59.424169
  30
0.000000
  11
-91.034584
  21
-57.274788
  31
0.000000
  0
LINE
  8
0
  10
-91.034584
  20
-57.274788
  30
0.000000
  11
-91.034584
  21
-55.041208
  31
0.000000
  0
LINE
  8
0
  10
-91.034584
  20
-55.041208
  30
0.000000
  11
-91.034584
  21
-52.857652
  31
0.000000
  0
LINE
  8
0
  10
-82.034584
  20
35.437230
  30
0.000000
  11
-82.034584
  21
35.437230
  31
0.000000
  0
LINE
  8
0
  10
-82.034584
  20
45.437230
  30
0.000000
  11
-82.034584
  21
45.437230
  31
0.000000
  0
LINE
  8
0
  10
-82.034584
  20
35.437230
  30
0.000000
  11
-73.423473
  21
35.437230
  31
0.000000
  0
LINE
  8
0
  10
-73.423473
  20
35.437230
  30
0.000000
  11
-82.034584
  21
35.437230
  31
0.000000
  0
LINE
  8
0
  10
-76.484079
  20
41.308442
  30
0.000000
  11
-76.745443
  21
41.221321
  31
0.000000
  0
LINE
  8
0
  10
-76.745443
  20
41.221321
  30
0.000000
  11
-76.919685
  21
40.959957
  31
0.000000
  0
LINE
  8
0
  10
-76.919685
  20
40.959957
  30
0.000000
  11
-77.006806
  21
40.524351
  31
0.000000
  0
LINE
  8
0
  10
-77.006806
  20
40.524351
  30
0.000000
  11
-77.006806
  21
40.262987
  31
0.000000
  0
LINE
  8
0
  10
-77.006806
  20
40.262987
  30
0.000000
  11
-76.919685
  21
39.827381
  31
0.000000
  0
LINE
  8
0
  10
-76.919685
  20
39.827381
  30
0.000000
  11
-76.745443
  21
39.566018
  31
0.000000
  0
LINE
  8
0
  10
-76.745443
  20
39.566018
  30
0.000000
  11
-76.484079
  21
39.478896
  31
0.000000
  0
LINE
  8
0
  10
-76.484079
  20
39.478896
  30
0.000000
  11
-76.309837
  21
39.478896
  31
0.000000
  0
LINE
  8
0
  10
-76.309837
  20
39.478896
  30
0.000000
  11
-76.048473
  21
39.566018
  31
0.000000
  0
LINE
  8
0
  10
-76.048473
  20
39.566018
  30
0.000000
  11
-75.874231
  21
39.827381
  31
0.000000
  0
LINE
  8
0
  10
-75.874231
  20
39.827381
  30
0.000000
  11
-75.787109
  21
40.262987
  31
0.000000
  0
LINE
  8
0
  10
-75.787109
  20
40.262987
  30
0.000000
  11
-75.787109
  21
40.524351
  31
0.000000
  0
LINE
  8
0
  10
-75.787109
  20
40.524351
  30
0.000000
  11
-75.874231
  21
40.959957
  31
0.000000
  0
LINE
  8
0
  10
-75.874231
  20
40.959957
  30
0.000000
  11
-76.048473
  21
41.221321
  31
0.000000
  0
LINE
  8
0
  10
-76.048473
  20
41.221321
  30
0.000000
  11
-76.309837
  21
41.308442
  31
0.000000
  0
LINE
  8
0
  10
-76.309837
  20
41.308442
  30
0.000000
  11
-76.484079
  21
41.308442
  31
0.000000
  0
LINE
  8
0
  10
-75.090140
  20
39.653139
  30
0.000000
  11
-75.177261
  21
39.566018
  31
0.000000
  0
LINE
  8
0
  10
-75.177261
  20
39.566018
  30
0.000000
  11
-75.090140
  21
39.478896
  31
0.000000
  0
LINE
  8
0
  10
-75.090140
  20
39.478896
  30
0.000000
  11
-75.003018
  21
39.566018
  31
0.000000
  0
LINE
  8
0
  10
-75.003018
  20
39.566018
  30
0.000000
  11
-75.090140
  21
39.653139
  31
0.000000
  0
LINE
  8
0
  10
-73.870443
  20
41.308442
  30
0.000000
  11
-74.131806
  21
41.221321
  31
0.000000
  0
LINE
  8
0
  10
-74.131806
  20
41.221321
  30
0.000000
  11
-74.306049
  21
40.959957
  31
0.000000
  0
LINE
  8
0
  10
-74.306049
  20
40.959957
  30
0.000000
  11
-74.393170
  21
40.524351
  31
0.000000
  0
LINE
  8
0
  10
-74.393170
  20
40.524351
  30
0.000000
  11
-74.393170
  21
40.262987
  31
0.000000
  0
LINE
  8
0
  10
-74.393170
  20
40.262987
  30
0.000000
  11
-74.306049
  21
39.827381
  31
0.000000
  0
LINE
  8
0
  10
-74.306049
  20
39.827381
  30
0.000000
  11
-74.131806
  21
39.566018
  31
0.000000
  0
LINE
  8
0
  10
-74.131806
  20
39.566018
  30
0.000000
  11
-73.870443
  21
39.478896
  31
0.000000
  0
LINE
  8
0
  10
-73.870443
  20
39.478896
  30
0.000000
  11
-73.696200
  21
39.478896
  31
0.000000
  0
LINE
  8
0
  10
-73.696200
  20
39.478896
  30
0.000000
  11
-73.434837
  21
39.566018
  31
0.000000
  0
LINE
  8
0
  10
-73.434837
  20
39.566018
  30
0.000000
  11
-73.260594
  21
39.827381
  31
0.000000
  0
LINE
  8
0
  10
-73.260594
  20
39.827381
  30
0.000000
  11
-73.173473
  21
40.262987
  31
0.000000
  0
LINE
  8
0
  10
-73.173473
  20
40.262987
  30
0.000000
  11
-73.173473
  21
40.524351
  31
0.000000
  0
LINE
  8
0
  10
-73.173473
  20
40.524351
  30
0.000000
  11
-73.260594
  21
40.959957
  31
0.000000
  0
LINE
  8
0
  10
-73.260594
  20
40.959957
  30
0.000000
  11
-73.434837
  21
41.221321
  31
0.000000
  0
LINE
  8
0
  10
-73.434837
  20
41.221321
  30
0.000000
  11
-73.696200
  21
41.308442
  31
0.000000
  0
LINE
  8
0
  10
-73.696200
  20
41.308442
  30
0.000000
  11
-73.870443
  21
41.308442
  31
0.000000
  0
LINE
  8
0
  10
-72.128018
  20
41.308442
  30
0.000000
  11
-72.389382
  21
41.221321
  31
0.000000
  0
LINE
  8
0
  10
-72.389382
  20
41.221321
  30
0.000000
  11
-72.563625
  21
40.959957
  31
0.000000
  0
LINE
  8
0
  10
-72.563625
  20
40.959957
  30
0.000000
  11
-72.650746
  21
40.524351
  31
0.000000
  0
LINE
  8
0
  10
-72.650746
  20
40.524351
  30
0.000000
  11
-72.650746
  21
40.262987
  31
0.000000
  0
LINE
  8
0
  10
-72.650746
  20
40.262987
  30
0.000000
  11
-72.563625
  21
39.827381
  31
0.000000
  0
LINE
  8
0
  10
-72.563625
  20
39.827381
  30
0.000000
  11
-72.389382
  21
39.566018
  31
0.000000
  0
LINE
  8
0
  10
-72.389382
  20
39.566018
  30
0.000000
  11
-72.128018
  21
39.478896
  31
0.000000
  0
LINE
  8
0
  10
-72.128018
  20
39.478896
  30
0.000000
  11
-71.953776
  21
39.478896
  31
0.000000
  0
LINE
  8
0
  10
-71.953776
  20
39.478896
  30
0.000000
  11
-71.692412
  21
39.566018
  31
0.000000
  0
LINE
  8
0
  10
-71.692412
  20
39.566018
  30
0.000000
  11
-71.518170
  21
39.827381
  31
0.000000
  0
LINE
  8
0
  10
-71.518170
  20
39.827381
  30
0.000000
  11
-71.431049
  21
40.262987
  31
0.000000
  0
LINE
  8
0
  10
-71.431049
  20
40.262987
  30
0.000000
  11
-71.431049
  21
40.524351
  31
0.000000
  0
LINE
  8
0
  10
-71.431049
  20
40.524351
  30
0.000000
  11
-71.518170
  21
40.959957
  31
0.000000
  0
LINE
  8
0
  10
-71.518170
  20
40.959957
  30
0.000000
  11
-71.692412
  21
41.221321
  31
0.000000
  0
LINE
  8
0
  10
-71.692412
  20
41.221321
  30
0.000000
  11
-71.953776
  21
41.308442
  31
0.000000
  0
LINE
  8
0
  10
-71.953776
  20
41.308442
  30
0.000000
  11
-72.128018
  21
41.308442
  31
0.000000
  0
LINE
  8
0
  10
-82.034584
  20
21.437230
  30
0.000000
  11
-82.034584
  21
21.437230
  31
0.000000
  0
LINE
  8
0
  10
-82.034584
  20
35.437230
  30
0.000000
  11
-82.034584
  21
35.437230
  31
0.000000
  0
LINE
  8
0
  10
-75.090140
  20
27.653139
  30
0.000000
  11
-75.177261
  21
27.566018
  31
0.000000
  0
LINE
  8
0
  10
-75.177261
  20
27.566018
  30
0.000000
  11
-75.090140
  21
27.478896
  31
0.000000
  0
LINE
  8
0
  10
-75.090140
  20
27.478896
  30
0.000000
  11
-75.003018
  21
27.566018
  31
0.000000
  0
LINE
  8
0
  10
-75.003018
  20
27.566018
  30
0.000000
  11
-75.090140
  21
27.653139
  31
0.000000
  0
LINE
  8
0
  10
-73.870443
  20
29.308442
  30
0.000000
  11
-74.131806
  21
29.221321
  31
0.000000
  0
LINE
  8
0
  10
-74.131806
  20
29.221321
  30
0.000000
  11
-74.306049
  21
28.959957
  31
0.000000
  0
LINE
  8
0
  10
-74.306049
  20
28.959957
  30
0.000000
  11
-74.393170
  21
28.524351
  31
0.000000
  0
LINE
  8
0
  10
-74.393170
  20
28.524351
  30
0.000000
  11
-74.393170
  21
28.262987
  31
0.000000
  0
LINE
  8
0
  10
-74.393170
  20
28.262987
  30
0.000000
  11
-74.306049
  21
27.827381
  31
0.000000
  0
LINE
  8
0
  10
-74.306049
  20
27.827381
  30
0.000000
  11
-74.131806
  21
27.566018
  31
0.000000
  0
LINE
  8
0
  10
-74.131806
  20
27.566018
  30
0.000000
  11
-73.870443
  21
27.478896
  31
0.000000
  0
LINE
  8
0
  10
-73.870443
  20
27.478896
  30
0.000000
  11
-73.696200
  21
27.478896
  31
0.000000
  0
LINE
  8
0
  10
-73.696200
  20
27.478896
  30
0.000000
  11
-73.434837
  21
27.566018
  31
0.000000
  0
LINE
  8
0
  10
-73.434837
  20
27.566018
  30
0.000000
  11
-73.260594
  21
27.827381
  31
0.000000
  0
LINE
  8
0
  10
-73.260594
  20
27.827381
  30
0.000000
  11
-73.173473
  21
28.262987
  31
0.000000
  0
LINE
  8
0
  10
-73.173473
  20
28.262987
  30
0.000000
  11
-73.173473
  21
28.524351
  31
0.000000
  0
LINE
  8
0
  10
-73.173473
  20
28.524351
  30
0.000000
  11
-73.260594
  21
28.959957
  31
0.000000
  0
LINE
  8
0
  10
-73.260594
  20
28.959957
  30
0.000000
  11
-73.434837
  21
29.221321
  31
0.000000
  0
LINE
  8
0
  10
-73.434837
  20
29.221321
  30
0.000000
  11
-73.696200
  21
29.308442
  31
0.000000
  0
LINE
  8
0
  10
-73.696200
  20
29.308442
  30
0.000000
  11
-73.870443
  21
29.308442
  31
0.000000
  0
LINE
  8
0
  10
-72.128018
  20
29.308442
  30
0.000000
  11
-72.389382
  21
29.221321
  31
0.000000
  0
LINE
  8
0
  10
-72.389382
  20
29.221321
  30
0.000000
  11
-72.563625
  21
28.959957
  31
0.000000
  0
LINE
  8
0
  10
-72.563625
  20
28.959957
  30
0.000000
  11
-72.650746
  21
28.524351
  31
0.000000
  0
LINE
  8
0
  10
-72.650746
  20
28.524351
  30
0.000000
  11
-72.650746
  21
28.262987
  31
0.000000
  0
LINE
  8
0
  10
-72.650746
  20
28.262987
  30
0.000000
  11
-72.563625
  21
27.827381
  31
0.000000
  0
LINE
  8
0
  10
-72.563625
  20
27.827381
  30
0.000000
  11
-72.389382
  21
27.566018
  31
0.000000
  0
LINE
  8
0
  10
-72.389382
  20
27.566018
  30
0.000000
  11
-72.128018
  21
27.478896
  31
0.000000
  0
LINE
  8
0
  10
-72.128018
  20
27.478896
  30
0.000000
  11
-71.953776
  21
27.478896
  31
0.000000
  0
LINE
  8
0
  10
-71.953776
  20
27.478896
  30
0.000000
  11
-71.692412
  21
27.566018
  31
0.000000
  0
LINE
  8
0
  10
-71.692412
  20
27.566018
  30
0.000000
  11
-71.518170
  21
27.827381
  31
0.000000
  0
LINE
  8
0
  10
-71.518170
  20
27.827381
  30
0.000000
  11
-71.431049
  21
28.262987
  31
0.000000
  0
LINE
  8
0
  10
-71.431049
  20
28.262987
  30
0.000000
  11
-71.431049
  21
28.524351
  31
0.000000
  0
LINE
  8
0
  10
-71.431049
  20
28.524351
  30
0.000000
  11
-71.518170
  21
28.959957
  31
0.000000
  0
LINE
  8
0
  10
-71.518170
  20
28.959957
  30
0.000000
  11
-71.692412
  21
29.221321
  31
0.000000
  0
LINE
  8
0
  10
-71.692412
  20
29.221321
  30
0.000000
  11
-71.953776
  21
29.308442
  31
0.000000
  0
LINE
  8
0
  10
-71.953776
  20
29.308442
  30
0.000000
  11
-72.128018
  21
29.308442
  31
0.000000
  0
LINE
  8
0
  10
-96.034584
  20
45.437230
  30
0.000000
  11
-96.034584
  21
45.437230
  31
0.000000
  0
LINE
  8
0
  10
-88.034584
  20
45.437230
  30
0.000000
  11
-88.034584
  21
45.437230
  31
0.000000
  0
LINE
  8
0
  10
-94.109079
  20
65.475109
  30
0.000000
  11
-93.760594
  21
65.475109
  31
0.000000
  0
LINE
  8
0
  10
-93.760594
  20
65.475109
  30
0.000000
  11
-93.499231
  21
65.387987
  31
0.000000
  0
LINE
  8
0
  10
-93.499231
  20
65.387987
  30
0.000000
  11
-93.412109
  21
65.213745
  31
0.000000
  0
LINE
  8
0
  10
-93.412109
  20
65.213745
  30
0.000000
  11
-93.412109
  21
65.039502
  31
0.000000
  0
LINE
  8
0
  10
-93.412109
  20
65.039502
  30
0.000000
  11
-93.499231
  21
64.865260
  31
0.000000
  0
LINE
  8
0
  10
-93.499231
  20
64.865260
  30
0.000000
  11
-93.673473
  21
64.778139
  31
0.000000
  0
LINE
  8
0
  10
-93.673473
  20
64.778139
  30
0.000000
  11
-94.021958
  21
64.691018
  31
0.000000
  0
LINE
  8
0
  10
-94.021958
  20
64.691018
  30
0.000000
  11
-94.283322
  21
64.603896
  31
0.000000
  0
LINE
  8
0
  10
-94.283322
  20
64.603896
  30
0.000000
  11
-94.457564
  21
64.429654
  31
0.000000
  0
LINE
  8
0
  10
-94.457564
  20
64.429654
  30
0.000000
  11
-94.544685
  21
64.255412
  31
0.000000
  0
LINE
  8
0
  10
-94.544685
  20
64.255412
  30
0.000000
  11
-94.544685
  21
63.994048
  31
0.000000
  0
LINE
  8
0
  10
-94.544685
  20
63.994048
  30
0.000000
  11
-94.457564
  21
63.819805
  31
0.000000
  0
LINE
  8
0
  10
-94.457564
  20
63.819805
  30
0.000000
  11
-94.370443
  21
63.732684
  31
0.000000
  0
LINE
  8
0
  10
-94.370443
  20
63.732684
  30
0.000000
  11
-94.109079
  21
63.645563
  31
0.000000
  0
LINE
  8
0
  10
-94.109079
  20
63.645563
  30
0.000000
  11
-93.760594
  21
63.645563
  31
0.000000
  0
LINE
  8
0
  10
-93.760594
  20
63.645563
  30
0.000000
  11
-93.499231
  21
63.732684
  31
0.000000
  0
LINE
  8
0
  10
-93.499231
  20
63.732684
  30
0.000000
  11
-93.412109
  21
63.819805
  31
0.000000
  0
LINE
  8
0
  10
-93.412109
  20
63.819805
  30
0.000000
  11
-93.324988
  21
63.994048
  31
0.000000
  0
LINE
  8
0
  10
-93.324988
  20
63.994048
  30
0.000000
  11
-93.324988
  21
64.255412
  31
0.000000
  0
LINE
  8
0
  10
-93.324988
  20
64.255412
  30
0.000000
  11
-93.412109
  21
64.429654
  31
0.000000
  0
LINE
  8
0
  10
-93.412109
  20
64.429654
  30
0.000000
  11
-93.586352
  21
64.603896
  31
0.000000
  0
LINE
  8
0
  10
-93.586352
  20
64.603896
  30
0.000000
  11
-93.847715
  21
64.691018
  31
0.000000
  0
LINE
  8
0
  10
-93.847715
  20
64.691018
  30
0.000000
  11
-94.196200
  21
64.778139
  31
0.000000
  0
LINE
  8
0
  10
-94.196200
  20
64.778139
  30
0.000000
  11
-94.370443
  21
64.865260
  31
0.000000
  0
LINE
  8
0
  10
-94.370443
  20
64.865260
  30
0.000000
  11
-94.457564
  21
65.039502
  31
0.000000
  0
LINE
  8
0
  10
-94.457564
  20
65.039502
  30
0.000000
  11
-94.457564
  21
65.213745
  31
0.000000
  0
LINE
  8
0
  10
-94.457564
  20
65.213745
  30
0.000000
  11
-94.370443
  21
65.387987
  31
0.000000
  0
LINE
  8
0
  10
-94.370443
  20
65.387987
  30
0.000000
  11
-94.109079
  21
65.475109
  31
0.000000
  0
LINE
  8
0
  10
-92.628018
  20
63.819805
  30
0.000000
  11
-92.715140
  21
63.732684
  31
0.000000
  0
LINE
  8
0
  10
-92.715140
  20
63.732684
  30
0.000000
  11
-92.628018
  21
63.645563
  31
0.000000
  0
LINE
  8
0
  10
-92.628018
  20
63.645563
  30
0.000000
  11
-92.540897
  21
63.732684
  31
0.000000
  0
LINE
  8
0
  10
-92.540897
  20
63.732684
  30
0.000000
  11
-92.628018
  21
63.819805
  31
0.000000
  0
LINE
  8
0
  10
-91.408322
  20
65.475109
  30
0.000000
  11
-91.669685
  21
65.387987
  31
0.000000
  0
LINE
  8
0
  10
-91.669685
  20
65.387987
  30
0.000000
  11
-91.843928
  21
65.126624
  31
0.000000
  0
LINE
  8
0
  10
-91.843928
  20
65.126624
  30
0.000000
  11
-91.931049
  21
64.691018
  31
0.000000
  0
LINE
  8
0
  10
-91.931049
  20
64.691018
  30
0.000000
  11
-91.931049
  21
64.429654
  31
0.000000
  0
LINE
  8
0
  10
-91.931049
  20
64.429654
  30
0.000000
  11
-91.843928
  21
63.994048
  31
0.000000
  0
LINE
  8
0
  10
-91.843928
  20
63.994048
  30
0.000000
  11
-91.669685
  21
63.732684
  31
0.000000
  0
LINE
  8
0
  10
-91.669685
  20
63.732684
  30
0.000000
  11
-91.408322
  21
63.645563
  31
0.000000
  0
LINE
  8
0
  10
-91.408322
  20
63.645563
  30
0.000000
  11
-91.234079
  21
63.645563
  31
0.000000
  0
LINE
  8
0
  10
-91.234079
  20
63.645563
  30
0.000000
  11
-90.972715
  21
63.732684
  31
0.000000
  0
LINE
  8
0
  10
-90.972715
  20
63.732684
  30
0.000000
  11
-90.798473
  21
63.994048
  31
0.000000
  0
LINE
  8
0
  10
-90.798473
  20
63.994048
  30
0.000000
  11
-90.711352
  21
64.429654
  31
0.000000
  0
LINE
  8
0
  10
-90.711352
  20
64.429654
  30
0.000000
  11
-90.711352
  21
64.691018
  31
0.000000
  0
LINE
  8
0
  10
-90.711352
  20
64.691018
  30
0.000000
  11
-90.798473
  21
65.126624
  31
0.000000
  0
LINE
  8
0
  10
-90.798473
  20
65.126624
  30
0.000000
  11
-90.972715
  21
65.387987
  31
0.000000
  0
LINE
  8
0
  10
-90.972715
  20
65.387987
  30
0.000000
  11
-91.234079
  21
65.475109
  31
0.000000
  0
LINE
  8
0
  10
-91.234079
  20
65.475109
  30
0.000000
  11
-91.408322
  21
65.475109
  31
0.000000
  0
LINE
  8
0
  10
-89.665897
  20
65.475109
  30
0.000000
  11
-89.927261
  21
65.387987
  31
0.000000
  0
LINE
  8
0
  10
-89.927261
  20
65.387987
  30
0.000000
  11
-90.101503
  21
65.126624
  31
0.000000
  0
LINE
  8
0
  10
-90.101503
  20
65.126624
  30
0.000000
  11
-90.188625
  21
64.691018
  31
0.000000
  0
LINE
  8
0
  10
-90.188625
  20
64.691018
  30
0.000000
  11
-90.188625
  21
64.429654
  31
0.000000
  0
LINE
  8
0
  10
-90.188625
  20
64.429654
  30
0.000000
  11
-90.101503
  21
63.994048
  31
0.000000
  0
LINE
  8
0
  10
-90.101503
  20
63.994048
  30
0.000000
  11
-89.927261
  21
63.732684
  31
0.000000
  0
LINE
  8
0
  10
-89.927261
  20
63.732684
  30
0.000000
  11
-89.665897
  21
63.645563
  31
0.000000
  0
LINE
  8
0
  10
-89.665897
  20
63.645563
  30
0.000000
  11
-89.491655
  21
63.645563
  31
0.000000
  0
LINE
  8
0
  10
-89.491655
  20
63.645563
  30
0.000000
  11
-89.230291
  21
63.732684
  31
0.000000
  0
LINE
  8
0
  10
-89.230291
  20
63.732684
  30
0.000000
  11
-89.056049
  21
63.994048
  31
0.000000
  0
LINE
  8
0
  10
-89.056049
  20
63.994048
  30
0.000000
  11
-88.968928
  21
64.429654
  31
0.000000
  0
LINE
  8
0
  10
-88.968928
  20
64.429654
  30
0.000000
  11
-88.968928
  21
64.691018
  31
0.000000
  0
LINE
  8
0
  10
-88.968928
  20
64.691018
  30
0.000000
  11
-89.056049
  21
65.126624
  31
0.000000
  0
LINE
  8
0
  10
-89.056049
  20
65.126624
  30
0.000000
  11
-89.230291
  21
65.387987
  31
0.000000
  0
LINE
  8
0
  10
-89.230291
  20
65.387987
  30
0.000000
  11
-89.491655
  21
65.475109
  31
0.000000
  0
LINE
  8
0
  10
-89.491655
  20
65.475109
  30
0.000000
  11
-89.665897
  21
65.475109
  31
0.000000
  0
LINE
  8
0
  10
-96.034584
  20
45.437230
  30
0.000000
  11
-96.034584
  21
45.437230
  31
0.000000
  0
LINE
  8
0
  10
-82.034584
  20
45.437230
  30
0.000000
  11
-82.034584
  21
45.437230
  31
0.000000
  0
LINE
  8
0
  10
-89.173473
  20
73.958694
  30
0.000000
  11
-89.260594
  21
73.871573
  31
0.000000
  0
LINE
  8
0
  10
-89.260594
  20
73.871573
  30
0.000000
  11
-89.173473
  21
73.784452
  31
0.000000
  0
LINE
  8
0
  10
-89.173473
  20
73.784452
  30
0.000000
  11
-89.086352
  21
73.871573
  31
0.000000
  0
LINE
  8
0
  10
-89.086352
  20
73.871573
  30
0.000000
  11
-89.173473
  21
73.958694
  31
0.000000
  0
LINE
  8
0
  10
-87.953776
  20
75.613997
  30
0.000000
  11
-88.215140
  21
75.526876
  31
0.000000
  0
LINE
  8
0
  10
-88.215140
  20
75.526876
  30
0.000000
  11
-88.389382
  21
75.265513
  31
0.000000
  0
LINE
  8
0
  10
-88.389382
  20
75.265513
  30
0.000000
  11
-88.476503
  21
74.829906
  31
0.000000
  0
LINE
  8
0
  10
-88.476503
  20
74.829906
  30
0.000000
  11
-88.476503
  21
74.568543
  31
0.000000
  0
LINE
  8
0
  10
-88.476503
  20
74.568543
  30
0.000000
  11
-88.389382
  21
74.132937
  31
0.000000
  0
LINE
  8
0
  10
-88.389382
  20
74.132937
  30
0.000000
  11
-88.215140
  21
73.871573
  31
0.000000
  0
LINE
  8
0
  10
-88.215140
  20
73.871573
  30
0.000000
  11
-87.953776
  21
73.784452
  31
0.000000
  0
LINE
  8
0
  10
-87.953776
  20
73.784452
  30
0.000000
  11
-87.779534
  21
73.784452
  31
0.000000
  0
LINE
  8
0
  10
-87.779534
  20
73.784452
  30
0.000000
  11
-87.518170
  21
73.871573
  31
0.000000
  0
LINE
  8
0
  10
-87.518170
  20
73.871573
  30
0.000000
  11
-87.343928
  21
74.132937
  31
0.000000
  0
LINE
  8
0
  10
-87.343928
  20
74.132937
  30
0.000000
  11
-87.256806
  21
74.568543
  31
0.000000
  0
LINE
  8
0
  10
-87.256806
  20
74.568543
  30
0.000000
  11
-87.256806
  21
74.829906
  31
0.000000
  0
LINE
  8
0
  10
-87.256806
  20
74.829906
  30
0.000000
  11
-87.343928
  21
75.265513
  31
0.000000
  0
LINE
  8
0
  10
-87.343928
  20
75.265513
  30
0.000000
  11
-87.518170
  21
75.526876
  31
0.000000
  0
LINE
  8
0
  10
-87.518170
  20
75.526876
  30
0.000000
  11
-87.779534
  21
75.613997
  31
0.000000
  0
LINE
  8
0
  10
-87.779534
  20
75.613997
  30
0.000000
  11
-87.953776
  21
75.613997
  31
0.000000
  0
LINE
  8
0
  10
-86.211352
  20
75.613997
  30
0.000000
  11
-86.472715
  21
75.526876
  31
0.000000
  0
LINE
  8
0
  10
-86.472715
  20
75.526876
  30
0.000000
  11
-86.646958
  21
75.265513
  31
0.000000
  0
LINE
  8
0
  10
-86.646958
  20
75.265513
  30
0.000000
  11
-86.734079
  21
74.829906
  31
0.000000
  0
LINE
  8
0
  10
-86.734079
  20
74.829906
  30
0.000000
  11
-86.734079
  21
74.568543
  31
0.000000
  0
LINE
  8
0
  10
-86.734079
  20
74.568543
  30
0.000000
  11
-86.646958
  21
74.132937
  31
0.000000
  0
LINE
  8
0
  10
-86.646958
  20
74.132937
  30
0.000000
  11
-86.472715
  21
73.871573
  31
0.000000
  0
LINE
  8
0
  10
-86.472715
  20
73.871573
  30
0.000000
  11
-86.211352
  21
73.784452
  31
0.000000
  0
LINE
  8
0
  10
-86.211352
  20
73.784452
  30
0.000000
  11
-86.037109
  21
73.784452
  31
0.000000
  0
LINE
  8
0
  10
-86.037109
  20
73.784452
  30
0.000000
  11
-85.775746
  21
73.871573
  31
0.000000
  0
LINE
  8
0
  10
-85.775746
  20
73.871573
  30
0.000000
  11
-85.601503
  21
74.132937
  31
0.000000
  0
LINE
  8
0
  10
-85.601503
  20
74.132937
  30
0.000000
  11
-85.514382
  21
74.568543
  31
0.000000
  0
LINE
  8
0
  10
-85.514382
  20
74.568543
  30
0.000000
  11
-85.514382
  21
74.829906
  31
0.000000
  0
LINE
  8
0
  10
-85.514382
  20
74.829906
  30
0.000000
  11
-85.601503
  21
75.265513
  31
0.000000
  0
LINE
  8
0
  10
-85.601503
  20
75.265513
  30
0.000000
  11
-85.775746
  21
75.526876
  31
0.000000
  0
LINE
  8
0
  10
-85.775746
  20
75.526876
  30
0.000000
  11
-86.037109
  21
75.613997
  31
0.000000
  0
LINE
  8
0
  10
-86.037109
  20
75.613997
  30
0.000000
  11
-86.211352
  21
75.613997
  31
0.000000
  0
LINE
  8
0
  10
-101.034584
  20
9.437230
  30
0.000000
  11
-101.034584
  21
9.437230
  31
0.000000
  0
LINE
  8
0
  10
-91.034584
  20
9.437230
  30
0.000000
  11
-91.034584
  21
9.437230
  31
0.000000
  0
LINE
  8
0
  10
-96.984079
  20
-12.441558
  30
0.000000
  11
-97.245443
  21
-12.528679
  31
0.000000
  0
LINE
  8
0
  10
-97.245443
  20
-12.528679
  30
0.000000
  11
-97.419685
  21
-12.790043
  31
0.000000
  0
LINE
  8
0
  10
-97.419685
  20
-12.790043
  30
0.000000
  11
-97.506806
  21
-13.225649
  31
0.000000
  0
LINE
  8
0
  10
-97.506806
  20
-13.225649
  30
0.000000
  11
-97.506806
  21
-13.487013
  31
0.000000
  0
LINE
  8
0
  10
-97.506806
  20
-13.487013
  30
0.000000
  11
-97.419685
  21
-13.922619
  31
0.000000
  0
LINE
  8
0
  10
-97.419685
  20
-13.922619
  30
0.000000
  11
-97.245443
  21
-14.183982
  31
0.000000
  0
LINE
  8
0
  10
-97.245443
  20
-14.183982
  30
0.000000
  11
-96.984079
  21
-14.271104
  31
0.000000
  0
LINE
  8
0
  10
-96.984079
  20
-14.271104
  30
0.000000
  11
-96.809837
  21
-14.271104
  31
0.000000
  0
LINE
  8
0
  10
-96.809837
  20
-14.271104
  30
0.000000
  11
-96.548473
  21
-14.183982
  31
0.000000
  0
LINE
  8
0
  10
-96.548473
  20
-14.183982
  30
0.000000
  11
-96.374231
  21
-13.922619
  31
0.000000
  0
LINE
  8
0
  10
-96.374231
  20
-13.922619
  30
0.000000
  11
-96.287109
  21
-13.487013
  31
0.000000
  0
LINE
  8
0
  10
-96.287109
  20
-13.487013
  30
0.000000
  11
-96.287109
  21
-13.225649
  31
0.000000
  0
LINE
  8
0
  10
-96.287109
  20
-13.225649
  30
0.000000
  11
-96.374231
  21
-12.790043
  31
0.000000
  0
LINE
  8
0
  10
-96.374231
  20
-12.790043
  30
0.000000
  11
-96.548473
  21
-12.528679
  31
0.000000
  0
LINE
  8
0
  10
-96.548473
  20
-12.528679
  30
0.000000
  11
-96.809837
  21
-12.441558
  31
0.000000
  0
LINE
  8
0
  10
-96.809837
  20
-12.441558
  30
0.000000
  11
-96.984079
  21
-12.441558
  31
0.000000
  0
LINE
  8
0
  10
-95.590140
  20
-14.096861
  30
0.000000
  11
-95.677261
  21
-14.183982
  31
0.000000
  0
LINE
  8
0
  10
-95.677261
  20
-14.183982
  30
0.000000
  11
-95.590140
  21
-14.271104
  31
0.000000
  0
LINE
  8
0
  10
-95.590140
  20
-14.271104
  30
0.000000
  11
-95.503018
  21
-14.183982
  31
0.000000
  0
LINE
  8
0
  10
-95.503018
  20
-14.183982
  30
0.000000
  11
-95.590140
  21
-14.096861
  31
0.000000
  0
LINE
  8
0
  10
-94.370443
  20
-12.441558
  30
0.000000
  11
-94.631806
  21
-12.528679
  31
0.000000
  0
LINE
  8
0
  10
-94.631806
  20
-12.528679
  30
0.000000
  11
-94.806049
  21
-12.790043
  31
0.000000
  0
LINE
  8
0
  10
-94.806049
  20
-12.790043
  30
0.000000
  11
-94.893170
  21
-13.225649
  31
0.000000
  0
LINE
  8
0
  10
-94.893170
  20
-13.225649
  30
0.000000
  11
-94.893170
  21
-13.487013
  31
0.000000
  0
LINE
  8
0
  10
-94.893170
  20
-13.487013
  30
0.000000
  11
-94.806049
  21
-13.922619
  31
0.000000
  0
LINE
  8
0
  10
-94.806049
  20
-13.922619
  30
0.000000
  11
-94.631806
  21
-14.183982
  31
0.000000
  0
LINE
  8
0
  10
-94.631806
  20
-14.183982
  30
0.000000
  11
-94.370443
  21
-14.271104
  31
0.000000
  0
LINE
  8
0
  10
-94.370443
  20
-14.271104
  30
0.000000
  11
-94.196200
  21
-14.271104
  31
0.000000
  0
LINE
  8
0
  10
-94.196200
  20
-14.271104
  30
0.000000
  11
-93.934837
  21
-14.183982
  31
0.000000
  0
LINE
  8
0
  10
-93.934837
  20
-14.183982
  30
0.000000
  11
-93.760594
  21
-13.922619
  31
0.000000
  0
LINE
  8
0
  10
-93.760594
  20
-13.922619
  30
0.000000
  11
-93.673473
  21
-13.487013
  31
0.000000
  0
LINE
  8
0
  10
-93.673473
  20
-13.487013
  30
0.000000
  11
-93.673473
  21
-13.225649
  31
0.000000
  0
LINE
  8
0
  10
-93.673473
  20
-13.225649
  30
0.000000
  11
-93.760594
  21
-12.790043
  31
0.000000
  0
LINE
  8
0
  10
-93.760594
  20
-12.790043
  30
0.000000
  11
-93.934837
  21
-12.528679
  31
0.000000
  0
LINE
  8
0
  10
-93.934837
  20
-12.528679
  30
0.000000
  11
-94.196200
  21
-12.441558
  31
0.000000
  0
LINE
  8
0
  10
-94.196200
  20
-12.441558
  30
0.000000
  11
-94.370443
  21
-12.441558
  31
0.000000
  0
LINE
  8
0
  10
-92.628018
  20
-12.441558
  30
0.000000
  11
-92.889382
  21
-12.528679
  31
0.000000
  0
LINE
  8
0
  10
-92.889382
  20
-12.528679
  30
0.000000
  11
-93.063625
  21
-12.790043
  31
0.000000
  0
LINE
  8
0
  10
-93.063625
  20
-12.790043
  30
0.000000
  11
-93.150746
  21
-13.225649
  31
0.000000
  0
LINE
  8
0
  10
-93.150746
  20
-13.225649
  30
0.000000
  11
-93.150746
  21
-13.487013
  31
0.000000
  0
LINE
  8
0
  10
-93.150746
  20
-13.487013
  30
0.000000
  11
-93.063625
  21
-13.922619
  31
0.000000
  0
LINE
  8
0
  10
-93.063625
  20
-13.922619
  30
0.000000
  11
-92.889382
  21
-14.183982
  31
0.000000
  0
LINE
  8
0
  10
-92.889382
  20
-14.183982
  30
0.000000
  11
-92.628018
  21
-14.271104
  31
0.000000
  0
LINE
  8
0
  10
-92.628018
  20
-14.271104
  30
0.000000
  11
-92.453776
  21
-14.271104
  31
0.000000
  0
LINE
  8
0
  10
-92.453776
  20
-14.271104
  30
0.000000
  11
-92.192412
  21
-14.183982
  31
0.000000
  0
LINE
  8
0
  10
-92.192412
  20
-14.183982
  30
0.000000
  11
-92.018170
  21
-13.922619
  31
0.000000
  0
LINE
  8
0
  10
-92.018170
  20
-13.922619
  30
0.000000
  11
-91.931049
  21
-13.487013
  31
0.000000
  0
LINE
  8
0
  10
-91.931049
  20
-13.487013
  30
0.000000
  11
-91.931049
  21
-13.225649
  31
0.000000
  0
LINE
  8
0
  10
-91.931049
  20
-13.225649
  30
0.000000
  11
-92.018170
  21
-12.790043
  31
0.000000
  0
LINE
  8
0
  10
-92.018170
  20
-12.790043
  30
0.000000
  11
-92.192412
  21
-12.528679
  31
0.000000
  0
LINE
  8
0
  10
-92.192412
  20
-12.528679
  30
0.000000
  11
-92.453776
  21
-12.441558
  31
0.000000
  0
LINE
  8
0
  10
-92.453776
  20
-12.441558
  30
0.000000
  11
-92.628018
  21
-12.441558
  31
0.000000
  0
LINE
  8
0
  10
-19.798859
  20
21.437230
  30
0.000000
  11
-19.798859
  21
21.437230
  31
0.000000
  0
LINE
  8
0
  10
-19.798859
  20
-2.562770
  30
0.000000
  11
-19.798859
  21
-2.562770
  31
0.000000
  0
LINE
  8
0
  10
-26.630777
  20
8.854078
  30
0.000000
  11
-26.717899
  21
8.766956
  31
0.000000
  0
LINE
  8
0
  10
-26.717899
  20
8.766956
  30
0.000000
  11
-26.630777
  21
8.679835
  31
0.000000
  0
LINE
  8
0
  10
-26.630777
  20
8.679835
  30
0.000000
  11
-26.543656
  21
8.766956
  31
0.000000
  0
LINE
  8
0
  10
-26.543656
  20
8.766956
  30
0.000000
  11
-26.630777
  21
8.854078
  31
0.000000
  0
LINE
  8
0
  10
-25.411080
  20
10.509381
  30
0.000000
  11
-25.672444
  21
10.422259
  31
0.000000
  0
LINE
  8
0
  10
-25.672444
  20
10.422259
  30
0.000000
  11
-25.846687
  21
10.160896
  31
0.000000
  0
LINE
  8
0
  10
-25.846687
  20
10.160896
  30
0.000000
  11
-25.933808
  21
9.725290
  31
0.000000
  0
LINE
  8
0
  10
-25.933808
  20
9.725290
  30
0.000000
  11
-25.933808
  21
9.463926
  31
0.000000
  0
LINE
  8
0
  10
-25.933808
  20
9.463926
  30
0.000000
  11
-25.846687
  21
9.028320
  31
0.000000
  0
LINE
  8
0
  10
-25.846687
  20
9.028320
  30
0.000000
  11
-25.672444
  21
8.766956
  31
0.000000
  0
LINE
  8
0
  10
-25.672444
  20
8.766956
  30
0.000000
  11
-25.411080
  21
8.679835
  31
0.000000
  0
LINE
  8
0
  10
-25.411080
  20
8.679835
  30
0.000000
  11
-25.236838
  21
8.679835
  31
0.000000
  0
LINE
  8
0
  10
-25.236838
  20
8.679835
  30
0.000000
  11
-24.975474
  21
8.766956
  31
0.000000
  0
LINE
  8
0
  10
-24.975474
  20
8.766956
  30
0.000000
  11
-24.801232
  21
9.028320
  31
0.000000
  0
LINE
  8
0
  10
-24.801232
  20
9.028320
  30
0.000000
  11
-24.714111
  21
9.463926
  31
0.000000
  0
LINE
  8
0
  10
-24.714111
  20
9.463926
  30
0.000000
  11
-24.714111
  21
9.725290
  31
0.000000
  0
LINE
  8
0
  10
-24.714111
  20
9.725290
  30
0.000000
  11
-24.801232
  21
10.160896
  31
0.000000
  0
LINE
  8
0
  10
-24.801232
  20
10.160896
  30
0.000000
  11
-24.975474
  21
10.422259
  31
0.000000
  0
LINE
  8
0
  10
-24.975474
  20
10.422259
  30
0.000000
  11
-25.236838
  21
10.509381
  31
0.000000
  0
LINE
  8
0
  10
-25.236838
  20
10.509381
  30
0.000000
  11
-25.411080
  21
10.509381
  31
0.000000
  0
LINE
  8
0
  10
-23.668656
  20
10.509381
  30
0.000000
  11
-23.930020
  21
10.422259
  31
0.000000
  0
LINE
  8
0
  10
-23.930020
  20
10.422259
  30
0.000000
  11
-24.104262
  21
10.160896
  31
0.000000
  0
LINE
  8
0
  10
-24.104262
  20
10.160896
  30
0.000000
  11
-24.191384
  21
9.725290
  31
0.000000
  0
LINE
  8
0
  10
-24.191384
  20
9.725290
  30
0.000000
  11
-24.191384
  21
9.463926
  31
0.000000
  0
LINE
  8
0
  10
-24.191384
  20
9.463926
  30
0.000000
  11
-24.104262
  21
9.028320
  31
0.000000
  0
LINE
  8
0
  10
-24.104262
  20
9.028320
  30
0.000000
  11
-23.930020
  21
8.766956
  31
0.000000
  0
LINE
  8
0
  10
-23.930020
  20
8.766956
  30
0.000000
  11
-23.668656
  21
8.679835
  31
0.000000
  0
LINE
  8
0
  10
-23.668656
  20
8.679835
  30
0.000000
  11
-23.494414
  21
8.679835
  31
0.000000
  0
LINE
  8
0
  10
-23.494414
  20
8.679835
  30
0.000000
  11
-23.233050
  21
8.766956
  31
0.000000
  0
LINE
  8
0
  10
-23.233050
  20
8.766956
  30
0.000000
  11
-23.058808
  21
9.028320
  31
0.000000
  0
LINE
  8
0
  10
-23.058808
  20
9.028320
  30
0.000000
  11
-22.971687
  21
9.463926
  31
0.000000
  0
LINE
  8
0
  10
-22.971687
  20
9.463926
  30
0.000000
  11
-22.971687
  21
9.725290
  31
0.000000
  0
LINE
  8
0
  10
-22.971687
  20
9.725290
  30
0.000000
  11
-23.058808
  21
10.160896
  31
0.000000
  0
LINE
  8
0
  10
-23.058808
  20
10.160896
  30
0.000000
  11
-23.233050
  21
10.422259
  31
0.000000
  0
LINE
  8
0
  10
-23.233050
  20
10.422259
  30
0.000000
  11
-23.494414
  21
10.509381
  31
0.000000
  0
LINE
  8
0
  10
-23.494414
  20
10.509381
  30
0.000000
  11
-23.668656
  21
10.509381
  31
0.000000
  0
LINE
  8
0
  10
-0.332215
  20
17.607008
  30
0.000000
  11
-0.419336
  21
17.519887
  31
0.000000
  0
LINE
  8
0
  10
-0.419336
  20
17.519887
  30
0.000000
  11
-0.332215
  21
17.432766
  31
0.000000
  0
LINE
  8
0
  10
-0.332215
  20
17.432766
  30
0.000000
  11
-0.245094
  21
17.519887
  31
0.000000
  0
LINE
  8
0
  10
-0.245094
  20
17.519887
  30
0.000000
  11
-0.332215
  21
17.607008
  31
0.000000
  0
LINE
  8
0
  10
2.629906
  20
19.262311
  30
0.000000
  11
2.368543
  21
19.175190
  31
0.000000
  0
LINE
  8
0
  10
2.368543
  20
19.175190
  30
0.000000
  11
2.194300
  21
18.913827
  31
0.000000
  0
LINE
  8
0
  10
2.194300
  20
18.913827
  30
0.000000
  11
2.107179
  21
18.478220
  31
0.000000
  0
LINE
  8
0
  10
2.107179
  20
18.478220
  30
0.000000
  11
2.107179
  21
18.216857
  31
0.000000
  0
LINE
  8
0
  10
2.107179
  20
18.216857
  30
0.000000
  11
2.194300
  21
17.781251
  31
0.000000
  0
LINE
  8
0
  10
2.194300
  20
17.781251
  30
0.000000
  11
2.368543
  21
17.519887
  31
0.000000
  0
LINE
  8
0
  10
2.368543
  20
17.519887
  30
0.000000
  11
2.629906
  21
17.432766
  31
0.000000
  0
LINE
  8
0
  10
2.629906
  20
17.432766
  30
0.000000
  11
2.804149
  21
17.432766
  31
0.000000
  0
LINE
  8
0
  10
2.804149
  20
17.432766
  30
0.000000
  11
3.065512
  21
17.519887
  31
0.000000
  0
LINE
  8
0
  10
3.065512
  20
17.519887
  30
0.000000
  11
3.239755
  21
17.781251
  31
0.000000
  0
LINE
  8
0
  10
3.239755
  20
17.781251
  30
0.000000
  11
3.326876
  21
18.216857
  31
0.000000
  0
LINE
  8
0
  10
3.326876
  20
18.216857
  30
0.000000
  11
3.326876
  21
18.478220
  31
0.000000
  0
LINE
  8
0
  10
3.326876
  20
18.478220
  30
0.000000
  11
3.239755
  21
18.913827
  31
0.000000
  0
LINE
  8
0
  10
3.239755
  20
18.913827
  30
0.000000
  11
3.065512
  21
19.175190
  31
0.000000
  0
LINE
  8
0
  10
3.065512
  20
19.175190
  30
0.000000
  11
2.804149
  21
19.262311
  31
0.000000
  0
LINE
  8
0
  10
2.804149
  20
19.262311
  30
0.000000
  11
2.629906
  21
19.262311
  31
0.000000
  0
LINE
  8
0
  10
-5.540548
  20
19.099433
  30
0.000000
  11
-5.957215
  21
18.987787
  31
0.000000
  0
LINE
  8
0
  10
-5.957215
  20
18.987787
  30
0.000000
  11
-6.262236
  21
18.682766
  31
0.000000
  0
LINE
  8
0
  10
-6.262236
  20
18.682766
  30
0.000000
  11
-6.373881
  21
18.266099
  31
0.000000
  0
LINE
  8
0
  10
-6.373881
  20
18.266099
  30
0.000000
  11
-6.262236
  21
17.849433
  31
0.000000
  0
LINE
  8
0
  10
-6.262236
  20
17.849433
  30
0.000000
  11
-5.957215
  21
17.544411
  31
0.000000
  0
LINE
  8
0
  10
-5.957215
  20
17.544411
  30
0.000000
  11
-5.540548
  21
17.432766
  31
0.000000
  0
LINE
  8
0
  10
-5.540548
  20
17.432766
  30
0.000000
  11
-5.123881
  21
17.544411
  31
0.000000
  0
LINE
  8
0
  10
-5.123881
  20
17.544411
  30
0.000000
  11
-4.818860
  21
17.849433
  31
0.000000
  0
LINE
  8
0
  10
-4.818860
  20
17.849433
  30
0.000000
  11
-4.707215
  21
18.266099
  31
0.000000
  0
LINE
  8
0
  10
-4.707215
  20
18.266099
  30
0.000000
  11
-4.818860
  21
18.682766
  31
0.000000
  0
LINE
  8
0
  10
-4.818860
  20
18.682766
  30
0.000000
  11
-5.123881
  21
18.987787
  31
0.000000
  0
LINE
  8
0
  10
-5.123881
  20
18.987787
  30
0.000000
  11
-5.540548
  21
19.099433
  31
0.000000
  0
LINE
  8
0
  10
-7.798859
  20
9.437230
  30
0.000000
  11
-7.798859
  21
9.437230
  31
0.000000
  0
LINE
  8
0
  10
4.201141
  20
9.437230
  30
0.000000
  11
4.201141
  21
9.437230
  31
0.000000
  0
LINE
  8
0
  10
-2.354414
  20
-18.291306
  30
0.000000
  11
-2.441536
  21
-18.378427
  31
0.000000
  0
LINE
  8
0
  10
-2.441536
  20
-18.378427
  30
0.000000
  11
-2.354414
  21
-18.465548
  31
0.000000
  0
LINE
  8
0
  10
-2.354414
  20
-18.465548
  30
0.000000
  11
-2.267293
  21
-18.378427
  31
0.000000
  0
LINE
  8
0
  10
-2.267293
  20
-18.378427
  30
0.000000
  11
-2.354414
  21
-18.291306
  31
0.000000
  0
LINE
  8
0
  10
-1.134717
  20
-16.636003
  30
0.000000
  11
-1.396081
  21
-16.723124
  31
0.000000
  0
LINE
  8
0
  10
-1.396081
  20
-16.723124
  30
0.000000
  11
-1.570323
  21
-16.984487
  31
0.000000
  0
LINE
  8
0
  10
-1.570323
  20
-16.984487
  30
0.000000
  11
-1.657445
  21
-17.420094
  31
0.000000
  0
LINE
  8
0
  10
-1.657445
  20
-17.420094
  30
0.000000
  11
-1.657445
  21
-17.681457
  31
0.000000
  0
LINE
  8
0
  10
-1.657445
  20
-17.681457
  30
0.000000
  11
-1.570323
  21
-18.117063
  31
0.000000
  0
LINE
  8
0
  10
-1.570323
  20
-18.117063
  30
0.000000
  11
-1.396081
  21
-18.378427
  31
0.000000
  0
LINE
  8
0
  10
-1.396081
  20
-18.378427
  30
0.000000
  11
-1.134717
  21
-18.465548
  31
0.000000
  0
LINE
  8
0
  10
-1.134717
  20
-18.465548
  30
0.000000
  11
-0.960475
  21
-18.465548
  31
0.000000
  0
LINE
  8
0
  10
-0.960475
  20
-18.465548
  30
0.000000
  11
-0.699111
  21
-18.378427
  31
0.000000
  0
LINE
  8
0
  10
-0.699111
  20
-18.378427
  30
0.000000
  11
-0.524869
  21
-18.117063
  31
0.000000
  0
LINE
  8
0
  10
-0.524869
  20
-18.117063
  30
0.000000
  11
-0.437748
  21
-17.681457
  31
0.000000
  0
LINE
  8
0
  10
-0.437748
  20
-17.681457
  30
0.000000
  11
-0.437748
  21
-17.420094
  31
0.000000
  0
LINE
  8
0
  10
-0.437748
  20
-17.420094
  30
0.000000
  11
-0.524869
  21
-16.984487
  31
0.000000
  0
LINE
  8
0
  10
-0.524869
  20
-16.984487
  30
0.000000
  11
-0.699111
  21
-16.723124
  31
0.000000
  0
LINE
  8
0
  10
-0.699111
  20
-16.723124
  30
0.000000
  11
-0.960475
  21
-16.636003
  31
0.000000
  0
LINE
  8
0
  10
-0.960475
  20
-16.636003
  30
0.000000
  11
-1.134717
  21
-16.636003
  31
0.000000
  0
LINE
  8
0
  10
0.607707
  20
-16.636003
  30
0.000000
  11
0.346343
  21
-16.723124
  31
0.000000
  0
LINE
  8
0
  10
0.346343
  20
-16.723124
  30
0.000000
  11
0.172101
  21
-16.984487
  31
0.000000
  0
LINE
  8
0
  10
0.172101
  20
-16.984487
  30
0.000000
  11
0.084980
  21
-17.420094
  31
0.000000
  0
LINE
  8
0
  10
0.084980
  20
-17.420094
  30
0.000000
  11
0.084980
  21
-17.681457
  31
0.000000
  0
LINE
  8
0
  10
0.084980
  20
-17.681457
  30
0.000000
  11
0.172101
  21
-18.117063
  31
0.000000
  0
LINE
  8
0
  10
0.172101
  20
-18.117063
  30
0.000000
  11
0.346343
  21
-18.378427
  31
0.000000
  0
LINE
  8
0
  10
0.346343
  20
-18.378427
  30
0.000000
  11
0.607707
  21
-18.465548
  31
0.000000
  0
LINE
  8
0
  10
0.607707
  20
-18.465548
  30
0.000000
  11
0.781949
  21
-18.465548
  31
0.000000
  0
LINE
  8
0
  10
0.781949
  20
-18.465548
  30
0.000000
  11
1.043313
  21
-18.378427
  31
0.000000
  0
LINE
  8
0
  10
1.043313
  20
-18.378427
  30
0.000000
  11
1.217555
  21
-18.117063
  31
0.000000
  0
LINE
  8
0
  10
1.217555
  20
-18.117063
  30
0.000000
  11
1.304677
  21
-17.681457
  31
0.000000
  0
LINE
  8
0
  10
1.304677
  20
-17.681457
  30
0.000000
  11
1.304677
  21
-17.420094
  31
0.000000
  0
LINE
  8
0
  10
1.304677
  20
-17.420094
  30
0.000000
  11
1.217555
  21
-16.984487
  31
0.000000
  0
LINE
  8
0
  10
1.217555
  20
-16.984487
  30
0.000000
  11
1.043313
  21
-16.723124
  31
0.000000
  0
LINE
  8
0
  10
1.043313
  20
-16.723124
  30
0.000000
  11
0.781949
  21
-16.636003
  31
0.000000
  0
LINE
  8
0
  10
0.781949
  20
-16.636003
  30
0.000000
  11
0.607707
  21
-16.636003
  31
0.000000
  0
LINE
  8
0
  10
-12.798859
  20
35.437230
  30
0.000000
  11
-12.798859
  21
35.437230
  31
0.000000
  0
LINE
  8
0
  10
-2.798859
  20
35.437230
  30
0.000000
  11
-2.798859
  21
35.437230
  31
0.000000
  0
LINE
  8
0
  10
-9.498354
  20
68.086220
  30
0.000000
  11
-9.759717
  21
67.999098
  31
0.000000
  0
LINE
  8
0
  10
-9.759717
  20
67.999098
  30
0.000000
  11
-9.933960
  21
67.737735
  31
0.000000
  0
LINE
  8
0
  10
-9.933960
  20
67.737735
  30
0.000000
  11
-10.021081
  21
67.302129
  31
0.000000
  0
LINE
  8
0
  10
-10.021081
  20
67.302129
  30
0.000000
  11
-10.021081
  21
67.040765
  31
0.000000
  0
LINE
  8
0
  10
-10.021081
  20
67.040765
  30
0.000000
  11
-9.933960
  21
66.605159
  31
0.000000
  0
LINE
  8
0
  10
-9.933960
  20
66.605159
  30
0.000000
  11
-9.759717
  21
66.343795
  31
0.000000
  0
LINE
  8
0
  10
-9.759717
  20
66.343795
  30
0.000000
  11
-9.498354
  21
66.256674
  31
0.000000
  0
LINE
  8
0
  10
-9.498354
  20
66.256674
  30
0.000000
  11
-9.324111
  21
66.256674
  31
0.000000
  0
LINE
  8
0
  10
-9.324111
  20
66.256674
  30
0.000000
  11
-9.062748
  21
66.343795
  31
0.000000
  0
LINE
  8
0
  10
-9.062748
  20
66.343795
  30
0.000000
  11
-8.888505
  21
66.605159
  31
0.000000
  0
LINE
  8
0
  10
-8.888505
  20
66.605159
  30
0.000000
  11
-8.801384
  21
67.040765
  31
0.000000
  0
LINE
  8
0
  10
-8.801384
  20
67.040765
  30
0.000000
  11
-8.801384
  21
67.302129
  31
0.000000
  0
LINE
  8
0
  10
-8.801384
  20
67.302129
  30
0.000000
  11
-8.888505
  21
67.737735
  31
0.000000
  0
LINE
  8
0
  10
-8.888505
  20
67.737735
  30
0.000000
  11
-9.062748
  21
67.999098
  31
0.000000
  0
LINE
  8
0
  10
-9.062748
  20
67.999098
  30
0.000000
  11
-9.324111
  21
68.086220
  31
0.000000
  0
LINE
  8
0
  10
-9.324111
  20
68.086220
  30
0.000000
  11
-9.498354
  21
68.086220
  31
0.000000
  0
LINE
  8
0
  10
-8.104414
  20
66.430917
  30
0.000000
  11
-8.191536
  21
66.343795
  31
0.000000
  0
LINE
  8
0
  10
-8.191536
  20
66.343795
  30
0.000000
  11
-8.104414
  21
66.256674
  31
0.000000
  0
LINE
  8
0
  10
-8.104414
  20
66.256674
  30
0.000000
  11
-8.017293
  21
66.343795
  31
0.000000
  0
LINE
  8
0
  10
-8.017293
  20
66.343795
  30
0.000000
  11
-8.104414
  21
66.430917
  31
0.000000
  0
LINE
  8
0
  10
-6.884717
  20
68.086220
  30
0.000000
  11
-7.146081
  21
67.999098
  31
0.000000
  0
LINE
  8
0
  10
-7.146081
  20
67.999098
  30
0.000000
  11
-7.320323
  21
67.737735
  31
0.000000
  0
LINE
  8
0
  10
-7.320323
  20
67.737735
  30
0.000000
  11
-7.407445
  21
67.302129
  31
0.000000
  0
LINE
  8
0
  10
-7.407445
  20
67.302129
  30
0.000000
  11
-7.407445
  21
67.040765
  31
0.000000
  0
LINE
  8
0
  10
-7.407445
  20
67.040765
  30
0.000000
  11
-7.320323
  21
66.605159
  31
0.000000
  0
LINE
  8
0
  10
-7.320323
  20
66.605159
  30
0.000000
  11
-7.146081
  21
66.343795
  31
0.000000
  0
LINE
  8
0
  10
-7.146081
  20
66.343795
  30
0.000000
  11
-6.884717
  21
66.256674
  31
0.000000
  0
LINE
  8
0
  10
-6.884717
  20
66.256674
  30
0.000000
  11
-6.710475
  21
66.256674
  31
0.000000
  0
LINE
  8
0
  10
-6.710475
  20
66.256674
  30
0.000000
  11
-6.449111
  21
66.343795
  31
0.000000
  0
LINE
  8
0
  10
-6.449111
  20
66.343795
  30
0.000000
  11
-6.274869
  21
66.605159
  31
0.000000
  0
LINE
  8
0
  10
-6.274869
  20
66.605159
  30
0.000000
  11
-6.187748
  21
67.040765
  31
0.000000
  0
LINE
  8
0
  10
-6.187748
  20
67.040765
  30
0.000000
  11
-6.187748
  21
67.302129
  31
0.000000
  0
LINE
  8
0
  10
-6.187748
  20
67.302129
  30
0.000000
  11
-6.274869
  21
67.737735
  31
0.000000
  0
LINE
  8
0
  10
-6.274869
  20
67.737735
  30
0.000000
  11
-6.449111
  21
67.999098
  31
0.000000
  0
LINE
  8
0
  10
-6.449111
  20
67.999098
  30
0.000000
  11
-6.710475
  21
68.086220
  31
0.000000
  0
LINE
  8
0
  10
-6.710475
  20
68.086220
  30
0.000000
  11
-6.884717
  21
68.086220
  31
0.000000
  0
LINE
  8
0
  10
-5.142293
  20
68.086220
  30
0.000000
  11
-5.403657
  21
67.999098
  31
0.000000
  0
LINE
  8
0
  10
-5.403657
  20
67.999098
  30
0.000000
  11
-5.577899
  21
67.737735
  31
0.000000
  0
LINE
  8
0
  10
-5.577899
  20
67.737735
  30
0.000000
  11
-5.665020
  21
67.302129
  31
0.000000
  0
LINE
  8
0
  10
-5.665020
  20
67.302129
  30
0.000000
  11
-5.665020
  21
67.040765
  31
0.000000
  0
LINE
  8
0
  10
-5.665020
  20
67.040765
  30
0.000000
  11
-5.577899
  21
66.605159
  31
0.000000
  0
LINE
  8
0
  10
-5.577899
  20
66.605159
  30
0.000000
  11
-5.403657
  21
66.343795
  31
0.000000
  0
LINE
  8
0
  10
-5.403657
  20
66.343795
  30
0.000000
  11
-5.142293
  21
66.256674
  31
0.000000
  0
LINE
  8
0
  10
-5.142293
  20
66.256674
  30
0.000000
  11
-4.968051
  21
66.256674
  31
0.000000
  0
LINE
  8
0
  10
-4.968051
  20
66.256674
  30
0.000000
  11
-4.706687
  21
66.343795
  31
0.000000
  0
LINE
  8
0
  10
-4.706687
  20
66.343795
  30
0.000000
  11
-4.532445
  21
66.605159
  31
0.000000
  0
LINE
  8
0
  10
-4.532445
  20
66.605159
  30
0.000000
  11
-4.445323
  21
67.040765
  31
0.000000
  0
LINE
  8
0
  10
-4.445323
  20
67.040765
  30
0.000000
  11
-4.445323
  21
67.302129
  31
0.000000
  0
LINE
  8
0
  10
-4.445323
  20
67.302129
  30
0.000000
  11
-4.532445
  21
67.737735
  31
0.000000
  0
LINE
  8
0
  10
-4.532445
  20
67.737735
  30
0.000000
  11
-4.706687
  21
67.999098
  31
0.000000
  0
LINE
  8
0
  10
-4.706687
  20
67.999098
  30
0.000000
  11
-4.968051
  21
68.086220
  31
0.000000
  0
LINE
  8
0
  10
-4.968051
  20
68.086220
  30
0.000000
  11
-5.142293
  21
68.086220
  31
0.000000
  0
LINE
  8
0
  10
-110.034584
  20
-40.857652
  30
0.000000
  11
-110.034584
  21
-40.857652
  31
0.000000
  0
LINE
  8
0
  10
-82.034584
  20
-40.857652
  30
0.000000
  11
-82.034584
  21
-40.857652
  31
0.000000
  0
LINE
  8
0
  10
-98.015645
  20
-30.653106
  30
0.000000
  11
-97.667160
  21
-30.653106
  31
0.000000
  0
LINE
  8
0
  10
-97.667160
  20
-30.653106
  30
0.000000
  11
-97.405796
  21
-30.740227
  31
0.000000
  0
LINE
  8
0
  10
-97.405796
  20
-30.740227
  30
0.000000
  11
-97.318675
  21
-30.914470
  31
0.000000
  0
LINE
  8
0
  10
-97.318675
  20
-30.914470
  30
0.000000
  11
-97.318675
  21
-31.088712
  31
0.000000
  0
LINE
  8
0
  10
-97.318675
  20
-31.088712
  30
0.000000
  11
-97.405796
  21
-31.262955
  31
0.000000
  0
LINE
  8
0
  10
-97.405796
  20
-31.262955
  30
0.000000
  11
-97.580039
  21
-31.350076
  31
0.000000
  0
LINE
  8
0
  10
-97.580039
  20
-31.350076
  30
0.000000
  11
-97.928524
  21
-31.437197
  31
0.000000
  0
LINE
  8
0
  10
-97.928524
  20
-31.437197
  30
0.000000
  11
-98.189887
  21
-31.524318
  31
0.000000
  0
LINE
  8
0
  10
-98.189887
  20
-31.524318
  30
0.000000
  11
-98.364130
  21
-31.698561
  31
0.000000
  0
LINE
  8
0
  10
-98.364130
  20
-31.698561
  30
0.000000
  11
-98.451251
  21
-31.872803
  31
0.000000
  0
LINE
  8
0
  10
-98.451251
  20
-31.872803
  30
0.000000
  11
-98.451251
  21
-32.134167
  31
0.000000
  0
LINE
  8
0
  10
-98.451251
  20
-32.134167
  30
0.000000
  11
-98.364130
  21
-32.308409
  31
0.000000
  0
LINE
  8
0
  10
-98.364130
  20
-32.308409
  30
0.000000
  11
-98.277008
  21
-32.395530
  31
0.000000
  0
LINE
  8
0
  10
-98.277008
  20
-32.395530
  30
0.000000
  11
-98.015645
  21
-32.482652
  31
0.000000
  0
LINE
  8
0
  10
-98.015645
  20
-32.482652
  30
0.000000
  11
-97.667160
  21
-32.482652
  31
0.000000
  0
LINE
  8
0
  10
-97.667160
  20
-32.482652
  30
0.000000
  11
-97.405796
  21
-32.395530
  31
0.000000
  0
LINE
  8
0
  10
-97.405796
  20
-32.395530
  30
0.000000
  11
-97.318675
  21
-32.308409
  31
0.000000
  0
LINE
  8
0
  10
-97.318675
  20
-32.308409
  30
0.000000
  11
-97.231554
  21
-32.134167
  31
0.000000
  0
LINE
  8
0
  10
-97.231554
  20
-32.134167
  30
0.000000
  11
-97.231554
  21
-31.872803
  31
0.000000
  0
LINE
  8
0
  10
-97.231554
  20
-31.872803
  30
0.000000
  11
-97.318675
  21
-31.698561
  31
0.000000
  0
LINE
  8
0
  10
-97.318675
  20
-31.698561
  30
0.000000
  11
-97.492917
  21
-31.524318
  31
0.000000
  0
LINE
  8
0
  10
-97.492917
  20
-31.524318
  30
0.000000
  11
-97.754281
  21
-31.437197
  31
0.000000
  0
LINE
  8
0
  10
-97.754281
  20
-31.437197
  30
0.000000
  11
-98.102766
  21
-31.350076
  31
0.000000
  0
LINE
  8
0
  10
-98.102766
  20
-31.350076
  30
0.000000
  11
-98.277008
  21
-31.262955
  31
0.000000
  0
LINE
  8
0
  10
-98.277008
  20
-31.262955
  30
0.000000
  11
-98.364130
  21
-31.088712
  31
0.000000
  0
LINE
  8
0
  10
-98.364130
  20
-31.088712
  30
0.000000
  11
-98.364130
  21
-30.914470
  31
0.000000
  0
LINE
  8
0
  10
-98.364130
  20
-30.914470
  30
0.000000
  11
-98.277008
  21
-30.740227
  31
0.000000
  0
LINE
  8
0
  10
-98.277008
  20
-30.740227
  30
0.000000
  11
-98.015645
  21
-30.653106
  31
0.000000
  0
LINE
  8
0
  10
-96.534584
  20
-32.308409
  30
0.000000
  11
-96.621705
  21
-32.395530
  31
0.000000
  0
LINE
  8
0
  10
-96.621705
  20
-32.395530
  30
0.000000
  11
-96.534584
  21
-32.482652
  31
0.000000
  0
LINE
  8
0
  10
-96.534584
  20
-32.482652
  30
0.000000
  11
-96.447463
  21
-32.395530
  31
0.000000
  0
LINE
  8
0
  10
-96.447463
  20
-32.395530
  30
0.000000
  11
-96.534584
  21
-32.308409
  31
0.000000
  0
LINE
  8
0
  10
-95.314887
  20
-30.653106
  30
0.000000
  11
-95.576251
  21
-30.740227
  31
0.000000
  0
LINE
  8
0
  10
-95.576251
  20
-30.740227
  30
0.000000
  11
-95.750493
  21
-31.001591
  31
0.000000
  0
LINE
  8
0
  10
-95.750493
  20
-31.001591
  30
0.000000
  11
-95.837614
  21
-31.437197
  31
0.000000
  0
LINE
  8
0
  10
-95.837614
  20
-31.437197
  30
0.000000
  11
-95.837614
  21
-31.698561
  31
0.000000
  0
LINE
  8
0
  10
-95.837614
  20
-31.698561
  30
0.000000
  11
-95.750493
  21
-32.134167
  31
0.000000
  0
LINE
  8
0
  10
-95.750493
  20
-32.134167
  30
0.000000
  11
-95.576251
  21
-32.395530
  31
0.000000
  0
LINE
  8
0
  10
-95.576251
  20
-32.395530
  30
0.000000
  11
-95.314887
  21
-32.482652
  31
0.000000
  0
LINE
  8
0
  10
-95.314887
  20
-32.482652
  30
0.000000
  11
-95.140645
  21
-32.482652
  31
0.000000
  0
LINE
  8
0
  10
-95.140645
  20
-32.482652
  30
0.000000
  11
-94.879281
  21
-32.395530
  31
0.000000
  0
LINE
  8
0
  10
-94.879281
  20
-32.395530
  30
0.000000
  11
-94.705039
  21
-32.134167
  31
0.000000
  0
LINE
  8
0
  10
-94.705039
  20
-32.134167
  30
0.000000
  11
-94.617917
  21
-31.698561
  31
0.000000
  0
LINE
  8
0
  10
-94.617917
  20
-31.698561
  30
0.000000
  11
-94.617917
  21
-31.437197
  31
0.000000
  0
LINE
  8
0
  10
-94.617917
  20
-31.437197
  30
0.000000
  11
-94.705039
  21
-31.001591
  31
0.000000
  0
LINE
  8
0
  10
-94.705039
  20
-31.001591
  30
0.000000
  11
-94.879281
  21
-30.740227
  31
0.000000
  0
LINE
  8
0
  10
-94.879281
  20
-30.740227
  30
0.000000
  11
-95.140645
  21
-30.653106
  31
0.000000
  0
LINE
  8
0
  10
-95.140645
  20
-30.653106
  30
0.000000
  11
-95.314887
  21
-30.653106
  31
0.000000
  0
LINE
  8
0
  10
-93.572463
  20
-30.653106
  30
0.000000
  11
-93.833827
  21
-30.740227
  31
0.000000
  0
LINE
  8
0
  10
-93.833827
  20
-30.740227
  30
0.000000
  11
-94.008069
  21
-31.001591
  31
0.000000
  0
LINE
  8
0
  10
-94.008069
  20
-31.001591
  30
0.000000
  11
-94.095190
  21
-31.437197
  31
0.000000
  0
LINE
  8
0
  10
-94.095190
  20
-31.437197
  30
0.000000
  11
-94.095190
  21
-31.698561
  31
0.000000
  0
LINE
  8
0
  10
-94.095190
  20
-31.698561
  30
0.000000
  11
-94.008069
  21
-32.134167
  31
0.000000
  0
LINE
  8
0
  10
-94.008069
  20
-32.134167
  30
0.000000
  11
-93.833827
  21
-32.395530
  31
0.000000
  0
LINE
  8
0
  10
-93.833827
  20
-32.395530
  30
0.000000
  11
-93.572463
  21
-32.482652
  31
0.000000
  0
LINE
  8
0
  10
-93.572463
  20
-32.482652
  30
0.000000
  11
-93.398221
  21
-32.482652
  31
0.000000
  0
LINE
  8
0
  10
-93.398221
  20
-32.482652
  30
0.000000
  11
-93.136857
  21
-32.395530
  31
0.000000
  0
LINE
  8
0
  10
-93.136857
  20
-32.395530
  30
0.000000
  11
-92.962614
  21
-32.134167
  31
0.000000
  0
LINE
  8
0
  10
-92.962614
  20
-32.134167
  30
0.000000
  11
-92.875493
  21
-31.698561
  31
0.000000
  0
LINE
  8
0
  10
-92.875493
  20
-31.698561
  30
0.000000
  11
-92.875493
  21
-31.437197
  31
0.000000
  0
LINE
  8
0
  10
-92.875493
  20
-31.437197
  30
0.000000
  11
-92.962614
  21
-31.001591
  31
0.000000
  0
LINE
  8
0
  10
-92.962614
  20
-31.001591
  30
0.000000
  11
-93.136857
  21
-30.740227
  31
0.000000
  0
LINE
  8
0
  10
-93.136857
  20
-30.740227
  30
0.000000
  11
-93.398221
  21
-30.653106
  31
0.000000
  0
LINE
  8
0
  10
-93.398221
  20
-30.653106
  30
0.000000
  11
-93.572463
  21
-30.653106
  31
0.000000
  0
LINE
  8
0
  10
-82.034584
  20
-40.857652
  30
0.000000
  11
-82.034584
  21
-40.857652
  31
0.000000
  0
LINE
  8
0
  10
-82.034584
  20
-64.857652
  30
0.000000
  11
-82.034584
  21
-64.857652
  31
0.000000
  0
LINE
  8
0
  10
-71.867917
  20
-53.308409
  30
0.000000
  11
-71.955039
  21
-53.395530
  31
0.000000
  0
LINE
  8
0
  10
-71.955039
  20
-53.395530
  30
0.000000
  11
-71.867917
  21
-53.482652
  31
0.000000
  0
LINE
  8
0
  10
-71.867917
  20
-53.482652
  30
0.000000
  11
-71.780796
  21
-53.395530
  31
0.000000
  0
LINE
  8
0
  10
-71.780796
  20
-53.395530
  30
0.000000
  11
-71.867917
  21
-53.308409
  31
0.000000
  0
LINE
  8
0
  10
-70.648221
  20
-51.653106
  30
0.000000
  11
-70.909584
  21
-51.740227
  31
0.000000
  0
LINE
  8
0
  10
-70.909584
  20
-51.740227
  30
0.000000
  11
-71.083827
  21
-52.001591
  31
0.000000
  0
LINE
  8
0
  10
-71.083827
  20
-52.001591
  30
0.000000
  11
-71.170948
  21
-52.437197
  31
0.000000
  0
LINE
  8
0
  10
-71.170948
  20
-52.437197
  30
0.000000
  11
-71.170948
  21
-52.698561
  31
0.000000
  0
LINE
  8
0
  10
-71.170948
  20
-52.698561
  30
0.000000
  11
-71.083827
  21
-53.134167
  31
0.000000
  0
LINE
  8
0
  10
-71.083827
  20
-53.134167
  30
0.000000
  11
-70.909584
  21
-53.395530
  31
0.000000
  0
LINE
  8
0
  10
-70.909584
  20
-53.395530
  30
0.000000
  11
-70.648221
  21
-53.482652
  31
0.000000
  0
LINE
  8
0
  10
-70.648221
  20
-53.482652
  30
0.000000
  11
-70.473978
  21
-53.482652
  31
0.000000
  0
LINE
  8
0
  10
-70.473978
  20
-53.482652
  30
0.000000
  11
-70.212614
  21
-53.395530
  31
0.000000
  0
LINE
  8
0
  10
-70.212614
  20
-53.395530
  30
0.000000
  11
-70.038372
  21
-53.134167
  31
0.000000
  0
LINE
  8
0
  10
-70.038372
  20
-53.134167
  30
0.000000
  11
-69.951251
  21
-52.698561
  31
0.000000
  0
LINE
  8
0
  10
-69.951251
  20
-52.698561
  30
0.000000
  11
-69.951251
  21
-52.437197
  31
0.000000
  0
LINE
  8
0
  10
-69.951251
  20
-52.437197
  30
0.000000
  11
-70.038372
  21
-52.001591
  31
0.000000
  0
LINE
  8
0
  10
-70.038372
  20
-52.001591
  30
0.000000
  11
-70.212614
  21
-51.740227
  31
0.000000
  0
LINE
  8
0
  10
-70.212614
  20
-51.740227
  30
0.000000
  11
-70.473978
  21
-51.653106
  31
0.000000
  0
LINE
  8
0
  10
-70.473978
  20
-51.653106
  30
0.000000
  11
-70.648221
  21
-51.653106
  31
0.000000
  0
LINE
  8
0
  10
-68.905796
  20
-51.653106
  30
0.000000
  11
-69.167160
  21
-51.740227
  31
0.000000
  0
LINE
  8
0
  10
-69.167160
  20
-51.740227
  30
0.000000
  11
-69.341402
  21
-52.001591
  31
0.000000
  0
LINE
  8
0
  10
-69.341402
  20
-52.001591
  30
0.000000
  11
-69.428524
  21
-52.437197
  31
0.000000
  0
LINE
  8
0
  10
-69.428524
  20
-52.437197
  30
0.000000
  11
-69.428524
  21
-52.698561
  31
0.000000
  0
LINE
  8
0
  10
-69.428524
  20
-52.698561
  30
0.000000
  11
-69.341402
  21
-53.134167
  31
0.000000
  0
LINE
  8
0
  10
-69.341402
  20
-53.134167
  30
0.000000
  11
-69.167160
  21
-53.395530
  31
0.000000
  0
LINE
  8
0
  10
-69.167160
  20
-53.395530
  30
0.000000
  11
-68.905796
  21
-53.482652
  31
0.000000
  0
LINE
  8
0
  10
-68.905796
  20
-53.482652
  30
0.000000
  11
-68.731554
  21
-53.482652
  31
0.000000
  0
LINE
  8
0
  10
-68.731554
  20
-53.482652
  30
0.000000
  11
-68.470190
  21
-53.395530
  31
0.000000
  0
LINE
  8
0
  10
-68.470190
  20
-53.395530
  30
0.000000
  11
-68.295948
  21
-53.134167
  31
0.000000
  0
LINE
  8
0
  10
-68.295948
  20
-53.134167
  30
0.000000
  11
-68.208827
  21
-52.698561
  31
0.000000
  0
LINE
  8
0
  10
-68.208827
  20
-52.698561
  30
0.000000
  11
-68.208827
  21
-52.437197
  31
0.000000
  0
LINE
  8
0
  10
-68.208827
  20
-52.437197
  30
0.000000
  11
-68.295948
  21
-52.001591
  31
0.000000
  0
LINE
  8
0
  10
-68.295948
  20
-52.001591
  30
0.000000
  11
-68.470190
  21
-51.740227
  31
0.000000
  0
LINE
  8
0
  10
-68.470190
  20
-51.740227
  30
0.000000
  11
-68.731554
  21
-51.653106
  31
0.000000
  0
LINE
  8
0
  10
-68.731554
  20
-51.653106
  30
0.000000
  11
-68.905796
  21
-51.653106
  31
0.000000
  0
LINE
  8
0
  10
-2.798859
  20
54.725816
  30
0.000000
  11
-2.798859
  21
56.926355
  31
0.000000
  0
LINE
  8
0
  10
-2.798859
  20
56.926355
  30
0.000000
  11
-12.798859
  21
56.926355
  31
0.000000
  0
LINE
  8
0
  10
-12.798859
  20
56.926355
  30
0.000000
  11
-12.798859
  21
54.725816
  31
0.000000
  0
LINE
  8
0
  10
-12.798859
  20
54.725816
  30
0.000000
  11
-12.798859
  21
51.917970
  31
0.000000
  0
LINE
  8
0
  10
-12.798859
  20
51.917970
  30
0.000000
  11
-12.798859
  21
48.725658
  31
0.000000
  0
LINE
  8
0
  10
-12.798859
  20
48.725658
  30
0.000000
  11
-12.798859
  21
45.437230
  31
0.000000
  0
LINE
  8
0
  10
-12.798859
  20
45.437230
  30
0.000000
  11
-12.798859
  21
35.437230
  31
0.000000
  0
LINE
  8
0
  10
-12.798859
  20
35.437230
  30
0.000000
  11
-19.798859
  21
35.437230
  31
0.000000
  0
LINE
  8
0
  10
-19.798859
  20
35.437230
  30
0.000000
  11
-19.798859
  21
21.437230
  31
0.000000
  0
LINE
  8
0
  10
-19.798859
  20
21.437230
  30
0.000000
  11
4.201141
  21
21.437230
  31
0.000000
  0
LINE
  8
0
  10
4.201141
  20
21.437230
  30
0.000000
  11
4.201141
  21
35.437230
  31
0.000000
  0
LINE
  8
0
  10
4.201141
  20
35.437230
  30
0.000000
  11
-2.798859
  21
35.437230
  31
0.000000
  0
LINE
  8
0
  10
-2.798859
  20
35.437230
  30
0.000000
  11
-2.798859
  21
45.437230
  31
0.000000
  0
LINE
  8
0
  10
-2.798859
  20
45.437230
  30
0.000000
  11
-2.798859
  21
48.725658
  31
0.000000
  0
LINE
  8
0
  10
-2.798859
  20
48.725658
  30
0.000000
  11
-2.798859
  21
51.917970
  31
0.000000
  0
LINE
  8
0
  10
-2.798859
  20
51.917970
  30
0.000000
  11
-2.798859
  21
54.725816
  31
0.000000
  0
LINE
  8
0
  10
4.201141
  20
35.437230
  30
0.000000
  11
4.201141
  21
21.437230
  31
0.000000
  0
LINE
  8
0
  10
4.201141
  20
21.437230
  30
0.000000
  11
-19.798859
  21
21.437230
  31
0.000000
  0
LINE
  8
0
  10
-19.798859
  20
21.437230
  30
0.000000
  11
-19.798859
  21
35.437230
  31
0.000000
  0
LINE
  8
0
  10
-19.798859
  20
35.437230
  30
0.000000
  11
-12.798859
  21
35.437230
  31
0.000000
  0
LINE
  8
0
  10
-12.798859
  20
35.437230
  30
0.000000
  11
-12.798859
  21
45.437230
  31
0.000000
  0
LINE
  8
0
  10
-12.798859
  20
45.437230
  30
0.000000
  11
-12.798859
  21
48.725658
  31
0.000000
  0
LINE
  8
0
  10
-12.798859
  20
48.725658
  30
0.000000
  11
-12.798859
  21
51.917970
  31
0.000000
  0
LINE
  8
0
  10
-12.798859
  20
51.917970
  30
0.000000
  11
-12.798859
  21
54.725816
  31
0.000000
  0
LINE
  8
0
  10
-12.798859
  20
54.725816
  30
0.000000
  11
-12.798859
  21
56.926355
  31
0.000000
  0
LINE
  8
0
  10
-12.798859
  20
56.926355
  30
0.000000
  11
-2.798859
  21
56.926355
  31
0.000000
  0
LINE
  8
0
  10
-2.798859
  20
56.926355
  30
0.000000
  11
-2.798859
  21
54.725816
  31
0.000000
  0
LINE
  8
0
  10
-2.798859
  20
54.725816
  30
0.000000
  11
-2.798859
  21
51.917970
  31
0.000000
  0
LINE
  8
0
  10
-2.798859
  20
51.917970
  30
0.000000
  11
-2.798859
  21
48.725658
  31
0.000000
  0
LINE
  8
0
  10
-2.798859
  20
48.725658
  30
0.000000
  11
-2.798859
  21
45.437230
  31
0.000000
  0
LINE
  8
0
  10
-2.798859
  20
45.437230
  30
0.000000
  11
-12.798859
  21
45.437230
  31
0.000000
  0
LINE
  8
0
  10
-12.798859
  20
45.437230
  30
0.000000
  11
-12.798859
  21
48.725658
  31
0.000000
  0
LINE
  8
0
  10
-12.798859
  20
48.725658
  30
0.000000
  11
-12.798859
  21
51.917970
  31
0.000000
  0
LINE
  8
0
  10
-12.798859
  20
51.917970
  30
0.000000
  11
-12.798859
  21
54.725816
  31
0.000000
  0
LINE
  8
0
  10
-12.798859
  20
54.725816
  30
0.000000
  11
-12.798859
  21
56.926355
  31
0.000000
  0
LINE
  8
0
  10
-12.798859
  20
56.926355
  30
0.000000
  11
-2.798859
  21
56.926355
  31
0.000000
  0
LINE
  8
0
  10
-2.798859
  20
56.926355
  30
0.000000
  11
-2.798859
  21
54.725816
  31
0.000000
  0
LINE
  8
0
  10
-2.798859
  20
54.725816
  30
0.000000
  11
-2.798859
  21
51.917970
  31
0.000000
  0
LINE
  8
0
  10
-2.798859
  20
51.917970
  30
0.000000
  11
-2.798859
  21
48.725658
  31
0.000000
  0
LINE
  8
0
  10
-2.798859
  20
48.725658
  30
0.000000
  11
-2.798859
  21
45.437230
  31
0.000000
  0
LINE
  8
0
  10
-2.798859
  20
45.437230
  30
0.000000
  11
-2.798859
  21
35.437230
  31
0.000000
  0
LINE
  8
0
  10
-2.798859
  20
35.437230
  30
0.000000
  11
4.201141
  21
35.437230
  31
0.000000
  0
LINE
  8
0
  10
-0.128105
  20
12.474011
  30
0.000000
  11
-1.965228
  21
15.270861
  31
0.000000
  0
LINE
  8
0
  10
-1.965228
  20
15.270861
  30
0.000000
  11
-4.762077
  21
17.107983
  31
0.000000
  0
LINE
  8
0
  10
-4.762077
  20
17.107983
  30
0.000000
  11
-7.798859
  21
17.687230
  31
0.000000
  0
LINE
  8
0
  10
-7.798859
  20
17.687230
  30
0.000000
  11
-10.835640
  21
17.107983
  31
0.000000
  0
LINE
  8
0
  10
-10.835640
  20
17.107983
  30
0.000000
  11
-13.632490
  21
15.270861
  31
0.000000
  0
LINE
  8
0
  10
-13.632490
  20
15.270861
  30
0.000000
  11
-15.469612
  21
12.474011
  31
0.000000
  0
LINE
  8
0
  10
-15.469612
  20
12.474011
  30
0.000000
  11
-16.048859
  21
9.437230
  31
0.000000
  0
LINE
  8
0
  10
-16.048859
  20
9.437230
  30
0.000000
  11
-15.469612
  21
6.400448
  31
0.000000
  0
LINE
  8
0
  10
-15.469612
  20
6.400448
  30
0.000000
  11
-13.632490
  21
3.603599
  31
0.000000
  0
LINE
  8
0
  10
-13.632490
  20
3.603599
  30
0.000000
  11
-10.835640
  21
1.766476
  31
0.000000
  0
LINE
  8
0
  10
-10.835640
  20
1.766476
  30
0.000000
  11
-7.798859
  21
1.187230
  31
0.000000
  0
LINE
  8
0
  10
-7.798859
  20
1.187230
  30
0.000000
  11
-4.762077
  21
1.766476
  31
0.000000
  0
LINE
  8
0
  10
-4.762077
  20
1.766476
  30
0.000000
  11
-1.965228
  21
3.603599
  31
0.000000
  0
LINE
  8
0
  10
-1.965228
  20
3.603599
  30
0.000000
  11
-0.128105
  21
6.400448
  31
0.000000
  0
LINE
  8
0
  10
-0.128105
  20
6.400448
  30
0.000000
  11
0.451141
  21
9.437230
  31
0.000000
  0
LINE
  8
0
  10
0.451141
  20
9.437230
  30
0.000000
  11
-0.128105
  21
12.474011
  31
0.000000
  0
LINE
  8
0
  10
-7.798859
  20
1.187230
  30
0.000000
  11
-10.835640
  21
1.766476
  31
0.000000
  0
LINE
  8
0
  10
-10.835640
  20
1.766476
  30
0.000000
  11
-13.632490
  21
3.603599
  31
0.000000
  0
LINE
  8
0
  10
-13.632490
  20
3.603599
  30
0.000000
  11
-15.469612
  21
6.400448
  31
0.000000
  0
LINE
  8
0
  10
-15.469612
  20
6.400448
  30
0.000000
  11
-16.048859
  21
9.437230
  31
0.000000
  0
LINE
  8
0
  10
-16.048859
  20
9.437230
  30
0.000000
  11
-15.469612
  21
12.474011
  31
0.000000
  0
LINE
  8
0
  10
-15.469612
  20
12.474011
  30
0.000000
  11
-13.632490
  21
15.270861
  31
0.000000
  0
LINE
  8
0
  10
-13.632490
  20
15.270861
  30
0.000000
  11
-10.835640
  21
17.107983
  31
0.000000
  0
LINE
  8
0
  10
-10.835640
  20
17.107983
  30
0.000000
  11
-7.798859
  21
17.687230
  31
0.000000
  0
LINE
  8
0
  10
-7.798859
  20
17.687230
  30
0.000000
  11
-4.762077
  21
17.107983
  31
0.000000
  0
LINE
  8
0
  10
-4.762077
  20
17.107983
  30
0.000000
  11
-1.965228
  21
15.270861
  31
0.000000
  0
LINE
  8
0
  10
-1.965228
  20
15.270861
  30
0.000000
  11
-0.128105
  21
12.474011
  31
0.000000
  0
LINE
  8
0
  10
-0.128105
  20
12.474011
  30
0.000000
  11
0.451141
  21
9.437230
  31
0.000000
  0
LINE
  8
0
  10
0.451141
  20
9.437230
  30
0.000000
  11
-0.128105
  21
6.400448
  31
0.000000
  0
LINE
  8
0
  10
-0.128105
  20
6.400448
  30
0.000000
  11
-1.965228
  21
3.603599
  31
0.000000
  0
LINE
  8
0
  10
-1.965228
  20
3.603599
  30
0.000000
  11
-4.762077
  21
1.766476
  31
0.000000
  0
LINE
  8
0
  10
-4.762077
  20
1.766476
  30
0.000000
  11
-7.798859
  21
1.187230
  31
0.000000
  0
LINE
  8
0
  10
-82.426269
  20
48.725658
  30
0.000000
  11
-83.624911
  21
51.917970
  31
0.000000
  0
LINE
  8
0
  10
-83.624911
  20
51.917970
  30
0.000000
  11
-85.559749
  21
54.725816
  31
0.000000
  0
LINE
  8
0
  10
-85.559749
  20
54.725816
  30
0.000000
  11
-88.034584
  21
56.926355
  31
0.000000
  0
LINE
  8
0
  10
-88.034584
  20
56.926355
  30
0.000000
  11
-88.034584
  21
45.437230
  31
0.000000
  0
LINE
  8
0
  10
-88.034584
  20
45.437230
  30
0.000000
  11
-88.596278
  21
42.492472
  31
0.000000
  0
LINE
  8
0
  10
-88.596278
  20
42.492472
  30
0.000000
  11
-90.377730
  21
39.780375
  31
0.000000
  0
LINE
  8
0
  10
-90.377730
  20
39.780375
  30
0.000000
  11
-93.089826
  21
37.998923
  31
0.000000
  0
LINE
  8
0
  10
-93.089826
  20
37.998923
  30
0.000000
  11
-96.034584
  21
37.437230
  31
0.000000
  0
LINE
  8
0
  10
-96.034584
  20
37.437230
  30
0.000000
  11
-98.979342
  21
37.998923
  31
0.000000
  0
LINE
  8
0
  10
-98.979342
  20
37.998923
  30
0.000000
  11
-101.691438
  21
39.780375
  31
0.000000
  0
LINE
  8
0
  10
-101.691438
  20
39.780375
  30
0.000000
  11
-103.472891
  21
42.492472
  31
0.000000
  0
LINE
  8
0
  10
-103.472891
  20
42.492472
  30
0.000000
  11
-104.034584
  21
45.437230
  31
0.000000
  0
LINE
  8
0
  10
-104.034584
  20
45.437230
  30
0.000000
  11
-104.034584
  21
56.926355
  31
0.000000
  0
LINE
  8
0
  10
-104.034584
  20
56.926355
  30
0.000000
  11
-106.509419
  21
54.725816
  31
0.000000
  0
LINE
  8
0
  10
-106.509419
  20
54.725816
  30
0.000000
  11
-108.444258
  21
51.917970
  31
0.000000
  0
LINE
  8
0
  10
-108.444258
  20
51.917970
  30
0.000000
  11
-109.642899
  21
48.725658
  31
0.000000
  0
LINE
  8
0
  10
-109.642899
  20
48.725658
  30
0.000000
  11
-110.034584
  21
45.437230
  31
0.000000
  0
LINE
  8
0
  10
-110.034584
  20
45.437230
  30
0.000000
  11
-110.034584
  21
35.437230
  31
0.000000
  0
LINE
  8
0
  10
-110.034584
  20
35.437230
  30
0.000000
  11
-82.034584
  21
35.437230
  31
0.000000
  0
LINE
  8
0
  10
-82.034584
  20
35.437230
  30
0.000000
  11
-82.034584
  21
45.437230
  31
0.000000
  0
LINE
  8
0
  10
-82.034584
  20
45.437230
  30
0.000000
  11
-82.426269
  21
48.725658
  31
0.000000
  0
LINE
  8
0
  10
-88.034584
  20
56.926355
  30
0.000000
  11
-85.559749
  21
54.725816
  31
0.000000
  0
LINE
  8
0
  10
-85.559749
  20
54.725816
  30
0.000000
  11
-83.624911
  21
51.917970
  31
0.000000
  0
LINE
  8
0
  10
-83.624911
  20
51.917970
  30
0.000000
  11
-82.426269
  21
48.725658
  31
0.000000
  0
LINE
  8
0
  10
-82.426269
  20
48.725658
  30
0.000000
  11
-82.034584
  21
45.437230
  31
0.000000
  0
LINE
  8
0
  10
-82.034584
  20
45.437230
  30
0.000000
  11
-82.034584
  21
35.437230
  31
0.000000
  0
LINE
  8
0
  10
-82.034584
  20
35.437230
  30
0.000000
  11
-110.034584
  21
35.437230
  31
0.000000
  0
LINE
  8
0
  10
-110.034584
  20
35.437230
  30
0.000000
  11
-110.034584
  21
45.437230
  31
0.000000
  0
LINE
  8
0
  10
-110.034584
  20
45.437230
  30
0.000000
  11
-109.642899
  21
48.725658
  31
0.000000
  0
LINE
  8
0
  10
-109.642899
  20
48.725658
  30
0.000000
  11
-108.444258
  21
51.917970
  31
0.000000
  0
LINE
  8
0
  10
-108.444258
  20
51.917970
  30
0.000000
  11
-106.509419
  21
54.725816
  31
0.000000
  0
LINE
  8
0
  10
-106.509419
  20
54.725816
  30
0.000000
  11
-104.034584
  21
56.926355
  31
0.000000
  0
LINE
  8
0
  10
-104.034584
  20
56.926355
  30
0.000000
  11
-104.034584
  21
45.437230
  31
0.000000
  0
LINE
  8
0
  10
-104.034584
  20
45.437230
  30
0.000000
  11
-103.472891
  21
42.492472
  31
0.000000
  0
LINE
  8
0
  10
-103.472891
  20
42.492472
  30
0.000000
  11
-101.691438
  21
39.780375
  31
0.000000
  0
LINE
  8
0
  10
-101.691438
  20
39.780375
  30
0.000000
  11
-98.979342
  21
37.998923
  31
0.000000
  0
LINE
  8
0
  10
-98.979342
  20
37.998923
  30
0.000000
  11
-96.034584
  21
37.437230
  31
0.000000
  0
LINE
  8
0
  10
-96.034584
  20
37.437230
  30
0.000000
  11
-93.089826
  21
37.998923
  31
0.000000
  0
LINE
  8
0
  10
-93.089826
  20
37.998923
  30
0.000000
  11
-90.377730
  21
39.780375
  31
0.000000
  0
LINE
  8
0
  10
-90.377730
  20
39.780375
  30
0.000000
  11
-88.596278
  21
42.492472
  31
0.000000
  0
LINE
  8
0
  10
-88.596278
  20
42.492472
  30
0.000000
  11
-88.034584
  21
45.437230
  31
0.000000
  0
LINE
  8
0
  10
-88.034584
  20
45.437230
  30
0.000000
  11
-88.034584
  21
56.926355
  31
0.000000
  0
LINE
  8
0
  10
-91.034584
  20
-41.700192
  30
0.000000
  11
-91.034584
  21
-41.057987
  31
0.000000
  0
LINE
  8
0
  10
-91.034584
  20
-41.057987
  30
0.000000
  11
-91.034584
  21
-40.857652
  31
0.000000
  0
LINE
  8
0
  10
-91.034584
  20
-40.857652
  30
0.000000
  11
-101.034584
  21
-40.857652
  31
0.000000
  0
LINE
  8
0
  10
-101.034584
  20
-40.857652
  30
0.000000
  11
-101.034584
  21
-41.057987
  31
0.000000
  0
LINE
  8
0
  10
-101.034584
  20
-41.057987
  30
0.000000
  11
-101.034584
  21
-41.700192
  31
0.000000
  0
LINE
  8
0
  10
-101.034584
  20
-41.700192
  30
0.000000
  11
-101.034584
  21
-42.813705
  31
0.000000
  0
LINE
  8
0
  10
-101.034584
  20
-42.813705
  30
0.000000
  11
-101.034584
  21
-44.372370
  31
0.000000
  0
LINE
  8
0
  10
-101.034584
  20
-44.372370
  30
0.000000
  11
-101.034584
  21
-46.291134
  31
0.000000
  0
LINE
  8
0
  10
-101.034584
  20
-46.291134
  30
0.000000
  11
-101.034584
  21
-48.440515
  31
0.000000
  0
LINE
  8
0
  10
-101.034584
  20
-48.440515
  30
0.000000
  11
-101.034584
  21
-50.674095
  31
0.000000
  0
LINE
  8
0
  10
-101.034584
  20
-50.674095
  30
0.000000
  11
-101.034584
  21
-52.857652
  31
0.000000
  0
LINE
  8
0
  10
-101.034584
  20
-52.857652
  30
0.000000
  11
-101.034584
  21
-55.041208
  31
0.000000
  0
LINE
  8
0
  10
-101.034584
  20
-55.041208
  30
0.000000
  11
-101.034584
  21
-57.274788
  31
0.000000
  0
LINE
  8
0
  10
-101.034584
  20
-57.274788
  30
0.000000
  11
-101.034584
  21
-59.424169
  31
0.000000
  0
LINE
  8
0
  10
-101.034584
  20
-59.424169
  30
0.000000
  11
-101.034584
  21
-61.342933
  31
0.000000
  0
LINE
  8
0
  10
-101.034584
  20
-61.342933
  30
0.000000
  11
-101.034584
  21
-62.901598
  31
0.000000
  0
LINE
  8
0
  10
-101.034584
  20
-62.901598
  30
0.000000
  11
-101.034584
  21
-64.015111
  31
0.000000
  0
LINE
  8
0
  10
-101.034584
  20
-64.015111
  30
0.000000
  11
-101.034584
  21
-64.657316
  31
0.000000
  0
LINE
  8
0
  10
-101.034584
  20
-64.657316
  30
0.000000
  11
-101.034584
  21
-64.857652
  31
0.000000
  0
LINE
  8
0
  10
-101.034584
  20
-64.857652
  30
0.000000
  11
-91.034584
  21
-64.857652
  31
0.000000
  0
LINE
  8
0
  10
-91.034584
  20
-64.857652
  30
0.000000
  11
-91.034584
  21
-64.657316
  31
0.000000
  0
LINE
  8
0
  10
-91.034584
  20
-64.657316
  30
0.000000
  11
-91.034584
  21
-64.015111
  31
0.000000
  0
LINE
  8
0
  10
-91.034584
  20
-64.015111
  30
0.000000
  11
-91.034584
  21
-62.901598
  31
0.000000
  0
LINE
  8
0
  10
-91.034584
  20
-62.901598
  30
0.000000
  11
-91.034584
  21
-61.342933
  31
0.000000
  0
LINE
  8
0
  10
-91.034584
  20
-61.342933
  30
0.000000
  11
-91.034584
  21
-59.424169
  31
0.000000
  0
LINE
  8
0
  10
-91.034584
  20
-59.424169
  30
0.000000
  11
-91.034584
  21
-57.274788
  31
0.000000
  0
LINE
  8
0
  10
-91.034584
  20
-57.274788
  30
0.000000
  11
-91.034584
  21
-55.041208
  31
0.000000
  0
LINE
  8
0
  10
-91.034584
  20
-55.041208
  30
0.000000
  11
-91.034584
  21
-52.857652
  31
0.000000
  0
LINE
  8
0
  10
-91.034584
  20
-52.857652
  30
0.000000
  11
-91.034584
  21
-50.674095
  31
0.000000
  0
LINE
  8
0
  10
-91.034584
  20
-50.674095
  30
0.000000
  11
-91.034584
  21
-48.440515
  31
0.000000
  0
LINE
  8
0
  10
-91.034584
  20
-48.440515
  30
0.000000
  11
-91.034584
  21
-46.291134
  31
0.000000
  0
LINE
  8
0
  10
-91.034584
  20
-46.291134
  30
0.000000
  11
-91.034584
  21
-44.372370
  31
0.000000
  0
LINE
  8
0
  10
-91.034584
  20
-44.372370
  30
0.000000
  11
-91.034584
  21
-42.813705
  31
0.000000
  0
LINE
  8
0
  10
-91.034584
  20
-42.813705
  30
0.000000
  11
-91.034584
  21
-41.700192
  31
0.000000
  0
LINE
  8
0
  10
4.201141
  20
9.437230
  30
0.000000
  11
4.201141
  21
21.437230
  31
0.000000
  0
LINE
  8
0
  10
4.201141
  20
21.437230
  30
0.000000
  11
4.201141
  21
35.437230
  31
0.000000
  0
LINE
  8
0
  10
4.201141
  20
35.437230
  30
0.000000
  11
-2.798859
  21
35.437230
  31
0.000000
  0
LINE
  8
0
  10
-2.798859
  20
35.437230
  30
0.000000
  11
-2.798859
  21
45.437230
  31
0.000000
  0
LINE
  8
0
  10
-2.798859
  20
45.437230
  30
0.000000
  11
-12.798859
  21
45.437230
  31
0.000000
  0
LINE
  8
0
  10
-12.798859
  20
45.437230
  30
0.000000
  11
-12.798859
  21
35.437230
  31
0.000000
  0
LINE
  8
0
  10
-12.798859
  20
35.437230
  30
0.000000
  11
-19.798859
  21
35.437230
  31
0.000000
  0
LINE
  8
0
  10
-19.798859
  20
35.437230
  30
0.000000
  11
-19.798859
  21
21.437230
  31
0.000000
  0
LINE
  8
0
  10
-19.798859
  20
21.437230
  30
0.000000
  11
-19.798859
  21
9.437230
  31
0.000000
  0
LINE
  8
0
  10
-19.798859
  20
9.437230
  30
0.000000
  11
-19.798859
  21
21.437230
  31
0.000000
  0
LINE
  8
0
  10
-19.798859
  20
21.437230
  30
0.000000
  11
4.201141
  21
21.437230
  31
0.000000
  0
LINE
  8
0
  10
4.201141
  20
21.437230
  30
0.000000
  11
4.201141
  21
9.437230
  31
0.000000
  0
LINE
  8
0
  10
-7.798859
  20
17.687230
  30
0.000000
  11
-10.835640
  21
17.107983
  31
0.000000
  0
LINE
  8
0
  10
-10.835640
  20
17.107983
  30
0.000000
  11
-13.632490
  21
15.270861
  31
0.000000
  0
LINE
  8
0
  10
-13.632490
  20
15.270861
  30
0.000000
  11
-15.469612
  21
12.474011
  31
0.000000
  0
LINE
  8
0
  10
-15.469612
  20
12.474011
  30
0.000000
  11
-16.048859
  21
9.437230
  31
0.000000
  0
LINE
  8
0
  10
-16.048859
  20
9.437230
  30
0.000000
  11
-15.469612
  21
6.400448
  31
0.000000
  0
LINE
  8
0
  10
-15.469612
  20
6.400448
  30
0.000000
  11
-13.632490
  21
3.603599
  31
0.000000
  0
LINE
  8
0
  10
-13.632490
  20
3.603599
  30
0.000000
  11
-10.835640
  21
1.766476
  31
0.000000
  0
LINE
  8
0
  10
-10.835640
  20
1.766476
  30
0.000000
  11
-7.798859
  21
1.187230
  31
0.000000
  0
LINE
  8
0
  10
-7.798859
  20
1.187230
  30
0.000000
  11
-4.762077
  21
1.766476
  31
0.000000
  0
LINE
  8
0
  10
-4.762077
  20
1.766476
  30
0.000000
  11
-1.965228
  21
3.603599
  31
0.000000
  0
LINE
  8
0
  10
-1.965228
  20
3.603599
  30
0.000000
  11
-0.128105
  21
6.400448
  31
0.000000
  0
LINE
  8
0
  10
-0.128105
  20
6.400448
  30
0.000000
  11
0.451141
  21
9.437230
  31
0.000000
  0
LINE
  8
0
  10
0.451141
  20
9.437230
  30
0.000000
  11
-0.128105
  21
12.474011
  31
0.000000
  0
LINE
  8
0
  10
-0.128105
  20
12.474011
  30
0.000000
  11
-1.965228
  21
15.270861
  31
0.000000
  0
LINE
  8
0
  10
-1.965228
  20
15.270861
  30
0.000000
  11
-4.762077
  21
17.107983
  31
0.000000
  0
LINE
  8
0
  10
-4.762077
  20
17.107983
  30
0.000000
  11
-7.798859
  21
17.687230
  31
0.000000
  0
LINE
  8
0
  10
-91.034584
  20
-40.857652
  30
0.000000
  11
-91.034584
  21
-41.057987
  31
0.000000
  0
LINE
  8
0
  10
-91.034584
  20
-41.057987
  30
0.000000
  11
-91.034584
  21
-41.700192
  31
0.000000
  0
LINE
  8
0
  10
-91.034584
  20
-41.700192
  30
0.000000
  11
-91.034584
  21
-42.813705
  31
0.000000
  0
LINE
  8
0
  10
-91.034584
  20
-42.813705
  30
0.000000
  11
-91.034584
  21
-44.372370
  31
0.000000
  0
LINE
  8
0
  10
-91.034584
  20
-44.372370
  30
0.000000
  11
-91.034584
  21
-46.291134
  31
0.000000
  0
LINE
  8
0
  10
-91.034584
  20
-46.291134
  30
0.000000
  11
-91.034584
  21
-48.440515
  31
0.000000
  0
LINE
  8
0
  10
-91.034584
  20
-48.440515
  30
0.000000
  11
-91.034584
  21
-50.674095
  31
0.000000
  0
LINE
  8
0
  10
-91.034584
  20
-50.674095
  30
0.000000
  11
-91.034584
  21
-52.857652
  31
0.000000
  0
LINE
  8
0
  10
-91.034584
  20
-52.857652
  30
0.000000
  11
-91.034584
  21
-55.041208
  31
0.000000
  0
LINE
  8
0
  10
-91.034584
  20
-55.041208
  30
0.000000
  11
-91.034584
  21
-57.274788
  31
0.000000
  0
LINE
  8
0
  10
-91.034584
  20
-57.274788
  30
0.000000
  11
-91.034584
  21
-59.424169
  31
0.000000
  0
LINE
  8
0
  10
-91.034584
  20
-59.424169
  30
0.000000
  11
-91.034584
  21
-61.342933
  31
0.000000
  0
LINE
  8
0
  10
-91.034584
  20
-61.342933
  30
0.000000
  11
-91.034584
  21
-62.901598
  31
0.000000
  0
LINE
  8
0
  10
-91.034584
  20
-62.901598
  30
0.000000
  11
-91.034584
  21
-64.015111
  31
0.000000
  0
LINE
  8
0
  10
-91.034584
  20
-64.015111
  30
0.000000
  11
-91.034584
  21
-64.657316
  31
0.000000
  0
LINE
  8
0
  10
-91.034584
  20
-64.657316
  30
0.000000
  11
-91.034584
  21
-64.857652
  31
0.000000
  0
LINE
  8
0
  10
-91.034584
  20
-64.857652
  30
0.000000
  11
-82.034584
  21
-64.857652
  31
0.000000
  0
LINE
  8
0
  10
-82.034584
  20
-64.857652
  30
0.000000
  11
-82.034584
  21
-40.857652
  31
0.000000
  0
LINE
  8
0
  10
-82.034584
  20
-40.857652
  30
0.000000
  11
-91.034584
  21
-40.857652
  31
0.000000
  0
LINE
  8
0
  10
-91.034584
  20
-40.857652
  30
0.000000
  11
-101.034584
  21
-40.857652
  31
0.000000
  0
LINE
  8
0
  10
-101.034584
  20
-40.857652
  30
0.000000
  11
-101.034584
  21
-41.057987
  31
0.000000
  0
LINE
  8
0
  10
-101.034584
  20
-41.057987
  30
0.000000
  11
-101.034584
  21
-41.700192
  31
0.000000
  0
LINE
  8
0
  10
-101.034584
  20
-41.700192
  30
0.000000
  11
-101.034584
  21
-42.813705
  31
0.000000
  0
LINE
  8
0
  10
-101.034584
  20
-42.813705
  30
0.000000
  11
-101.034584
  21
-44.372370
  31
0.000000
  0
LINE
  8
0
  10
-101.034584
  20
-44.372370
  30
0.000000
  11
-101.034584
  21
-46.291134
  31
0.000000
  0
LINE
  8
0
  10
-101.034584
  20
-46.291134
  30
0.000000
  11
-101.034584
  21
-48.440515
  31
0.000000
  0
LINE
  8
0
  10
-101.034584
  20
-48.440515
  30
0.000000
  11
-101.034584
  21
-50.674095
  31
0.000000
  0
LINE
  8
0
  10
-101.034584
  20
-50.674095
  30
0.000000
  11
-101.034584
  21
-52.857652
  31
0.000000
  0
LINE
  8
0
  10
-101.034584
  20
-52.857652
  30
0.000000
  11
-91.034584
  21
-52.857652
  31
0.000000
  0
LINE
  8
0
  10
-91.034584
  20
-52.857652
  30
0.000000
  11
-91.034584
  21
-50.674095
  31
0.000000
  0
LINE
  8
0
  10
-91.034584
  20
-50.674095
  30
0.000000
  11
-91.034584
  21
-48.440515
  31
0.000000
  0
LINE
  8
0
  10
-91.034584
  20
-48.440515
  30
0.000000
  11
-91.034584
  21
-46.291134
  31
0.000000
  0
LINE
  8
0
  10
-91.034584
  20
-46.291134
  30
0.000000
  11
-91.034584
  21
-44.372370
  31
0.000000
  0
LINE
  8
0
  10
-91.034584
  20
-44.372370
  30
0.000000
  11
-91.034584
  21
-42.813705
  31
0.000000
  0
LINE
  8
0
  10
-91.034584
  20
-42.813705
  30
0.000000
  11
-91.034584
  21
-41.700192
  31
0.000000
  0
LINE
  8
0
  10
-91.034584
  20
-41.700192
  30
0.000000
  11
-91.034584
  21
-41.057987
  31
0.000000
  0
LINE
  8
0
  10
-91.034584
  20
-41.057987
  30
0.000000
  11
-91.034584
  21
-40.857652
  31
0.000000
  0
LINE
  8
0
  10
-82.034584
  20
-40.857652
  30
0.000000
  11
-91.034584
  21
-40.857652
  31
0.000000
  0
LINE
  8
0
  10
-91.034584
  20
-40.857652
  30
0.000000
  11
-101.034584
  21
-40.857652
  31
0.000000
  0
LINE
  8
0
  10
-101.034584
  20
-40.857652
  30
0.000000
  11
-101.034584
  21
-41.057987
  31
0.000000
  0
LINE
  8
0
  10
-101.034584
  20
-41.057987
  30
0.000000
  11
-101.034584
  21
-41.700192
  31
0.000000
  0
LINE
  8
0
  10
-101.034584
  20
-41.700192
  30
0.000000
  11
-101.034584
  21
-42.813705
  31
0.000000
  0
LINE
  8
0
  10
-101.034584
  20
-42.813705
  30
0.000000
  11
-101.034584
  21
-44.372370
  31
0.000000
  0
LINE
  8
0
  10
-101.034584
  20
-44.372370
  30
0.000000
  11
-101.034584
  21
-46.291134
  31
0.000000
  0
LINE
  8
0
  10
-101.034584
  20
-46.291134
  30
0.000000
  11
-101.034584
  21
-48.440515
  31
0.000000
  0
LINE
  8
0
  10
-101.034584
  20
-48.440515
  30
0.000000
  11
-101.034584
  21
-50.674095
  31
0.000000
  0
LINE
  8
0
  10
-101.034584
  20
-50.674095
  30
0.000000
  11
-101.034584
  21
-52.857652
  31
0.000000
  0
LINE
  8
0
  10
-101.034584
  20
-52.857652
  30
0.000000
  11
-101.034584
  21
-55.041208
  31
0.000000
  0
LINE
  8
0
  10
-101.034584
  20
-55.041208
  30
0.000000
  11
-101.034584
  21
-57.274788
  31
0.000000
  0
LINE
  8
0
  10
-101.034584
  20
-57.274788
  30
0.000000
  11
-101.034584
  21
-59.424169
  31
0.000000
  0
LINE
  8
0
  10
-101.034584
  20
-59.424169
  30
0.000000
  11
-101.034584
  21
-61.342933
  31
0.000000
  0
LINE
  8
0
  10
-101.034584
  20
-61.342933
  30
0.000000
  11
-101.034584
  21
-62.901598
  31
0.000000
  0
LINE
  8
0
  10
-101.034584
  20
-62.901598
  30
0.000000
  11
-101.034584
  21
-64.015111
  31
0.000000
  0
LINE
  8
0
  10
-101.034584
  20
-64.015111
  30
0.000000
  11
-101.034584
  21
-64.657316
  31
0.000000
  0
LINE
  8
0
  10
-101.034584
  20
-64.657316
  30
0.000000
  11
-101.034584
  21
-64.857652
  31
0.000000
  0
LINE
  8
0
  10
-101.034584
  20
-64.857652
  30
0.000000
  11
-110.034584
  21
-64.857652
  31
0.000000
  0
LINE
  8
0
  10
-110.034584
  20
-64.857652
  30
0.000000
  11
-101.034584
  21
-64.857652
  31
0.000000
  0
LINE
  8
0
  10
-101.034584
  20
-64.857652
  30
0.000000
  11
-91.034584
  21
-64.857652
  31
0.000000
  0
LINE
  8
0
  10
-91.034584
  20
-64.857652
  30
0.000000
  11
-82.034584
  21
-64.857652
  31
0.000000
  0
LINE
  8
0
  10
-82.034584
  20
-64.857652
  30
0.000000
  11
-82.034584
  21
-40.857652
  31
0.000000
  0
LINE
  8
0
  10
-82.034584
  20
45.437230
  30
0.000000
  11
-73.423473
  21
45.437230
  31
0.000000
  0
LINE
  8
0
  10
-75.090140
  20
35.437230
  30
0.000000
  11
-75.090140
  21
38.812230
  31
0.000000
  0
LINE
  8
0
  10
-75.090140
  20
42.062230
  30
0.000000
  11
-75.090140
  21
45.437230
  31
0.000000
  0
LINE
  8
0
  10
-75.090140
  20
45.437230
  30
0.000000
  11
-75.759677
  21
43.376607
  31
0.000000
  0
LINE
  8
0
  10
-75.090140
  20
35.437230
  30
0.000000
  11
-74.420603
  21
37.497852
  31
0.000000
  0
LINE
  8
0
  10
-75.090140
  20
35.437230
  30
0.000000
  11
-75.759677
  21
37.497852
  31
0.000000
  0
LINE
  8
0
  10
-75.090140
  20
45.437230
  30
0.000000
  11
-74.420603
  21
43.376607
  31
0.000000
  0
LINE
  8
0
  10
-78.487867
  20
40.959957
  30
0.000000
  11
-78.313625
  21
41.047078
  31
0.000000
  0
LINE
  8
0
  10
-78.313625
  20
41.047078
  30
0.000000
  11
-78.052261
  21
41.308442
  31
0.000000
  0
LINE
  8
0
  10
-78.052261
  20
41.308442
  30
0.000000
  11
-78.052261
  21
39.478896
  31
0.000000
  0
LINE
  8
0
  10
-82.034584
  20
21.437230
  30
0.000000
  11
-73.423473
  21
21.437230
  31
0.000000
  0
LINE
  8
0
  10
-75.090140
  20
21.437230
  30
0.000000
  11
-75.090140
  21
26.812230
  31
0.000000
  0
LINE
  8
0
  10
-75.090140
  20
30.062230
  30
0.000000
  11
-75.090140
  21
35.437230
  31
0.000000
  0
LINE
  8
0
  10
-75.090140
  20
35.437230
  30
0.000000
  11
-75.759677
  21
33.376607
  31
0.000000
  0
LINE
  8
0
  10
-75.090140
  20
21.437230
  30
0.000000
  11
-74.420603
  21
23.497852
  31
0.000000
  0
LINE
  8
0
  10
-75.090140
  20
21.437230
  30
0.000000
  11
-75.759677
  21
23.497852
  31
0.000000
  0
LINE
  8
0
  10
-75.090140
  20
35.437230
  30
0.000000
  11
-74.420603
  21
33.376607
  31
0.000000
  0
LINE
  8
0
  10
-78.487867
  20
28.959957
  30
0.000000
  11
-78.313625
  21
29.047078
  31
0.000000
  0
LINE
  8
0
  10
-78.313625
  20
29.047078
  30
0.000000
  11
-78.052261
  21
29.308442
  31
0.000000
  0
LINE
  8
0
  10
-78.052261
  20
29.308442
  30
0.000000
  11
-78.052261
  21
27.478896
  31
0.000000
  0
LINE
  8
0
  10
-76.135594
  20
29.308442
  30
0.000000
  11
-77.006806
  21
28.088745
  31
0.000000
  0
LINE
  8
0
  10
-77.006806
  20
28.088745
  30
0.000000
  11
-75.699988
  21
28.088745
  31
0.000000
  0
LINE
  8
0
  10
-76.135594
  20
29.308442
  30
0.000000
  11
-76.135594
  21
27.478896
  31
0.000000
  0
LINE
  8
0
  10
-96.034584
  20
45.437230
  30
0.000000
  11
-96.034584
  21
66.270563
  31
0.000000
  0
LINE
  8
0
  10
-88.034584
  20
45.437230
  30
0.000000
  11
-88.034584
  21
66.270563
  31
0.000000
  0
LINE
  8
0
  10
-96.034584
  20
64.603896
  30
0.000000
  11
-95.139382
  21
64.603896
  31
0.000000
  0
LINE
  8
0
  10
-88.374231
  20
64.603896
  30
0.000000
  11
-88.034584
  21
64.603896
  31
0.000000
  0
LINE
  8
0
  10
-88.034584
  20
64.603896
  30
0.000000
  11
-90.095207
  21
63.934360
  31
0.000000
  0
LINE
  8
0
  10
-96.034584
  20
64.603896
  30
0.000000
  11
-93.973962
  21
65.273433
  31
0.000000
  0
LINE
  8
0
  10
-96.034584
  20
64.603896
  30
0.000000
  11
-93.973962
  21
63.934360
  31
0.000000
  0
LINE
  8
0
  10
-88.034584
  20
64.603896
  30
0.000000
  11
-90.095207
  21
65.273433
  31
0.000000
  0
LINE
  8
0
  10
-96.034584
  20
45.437230
  30
0.000000
  11
-96.034584
  21
76.409452
  31
0.000000
  0
LINE
  8
0
  10
-82.034584
  20
45.437230
  30
0.000000
  11
-82.034584
  21
76.409452
  31
0.000000
  0
LINE
  8
0
  10
-96.034584
  20
74.742785
  30
0.000000
  11
-93.427261
  21
74.742785
  31
0.000000
  0
LINE
  8
0
  10
-84.919685
  20
74.742785
  30
0.000000
  11
-82.034584
  21
74.742785
  31
0.000000
  0
LINE
  8
0
  10
-82.034584
  20
74.742785
  30
0.000000
  11
-84.095207
  21
74.073248
  31
0.000000
  0
LINE
  8
0
  10
-96.034584
  20
74.742785
  30
0.000000
  11
-93.973962
  21
75.412322
  31
0.000000
  0
LINE
  8
0
  10
-96.034584
  20
74.742785
  30
0.000000
  11
-93.973962
  21
74.073248
  31
0.000000
  0
LINE
  8
0
  10
-82.034584
  20
74.742785
  30
0.000000
  11
-84.095207
  21
75.412322
  31
0.000000
  0
LINE
  8
0
  10
-92.571200
  20
75.265513
  30
0.000000
  11
-92.396958
  21
75.352634
  31
0.000000
  0
LINE
  8
0
  10
-92.396958
  20
75.352634
  30
0.000000
  11
-92.135594
  21
75.613997
  31
0.000000
  0
LINE
  8
0
  10
-92.135594
  20
75.613997
  30
0.000000
  11
-92.135594
  21
73.784452
  31
0.000000
  0
LINE
  8
0
  10
-90.218928
  20
75.613997
  30
0.000000
  11
-91.090140
  21
74.394300
  31
0.000000
  0
LINE
  8
0
  10
-91.090140
  20
74.394300
  30
0.000000
  11
-89.783322
  21
74.394300
  31
0.000000
  0
LINE
  8
0
  10
-90.218928
  20
75.613997
  30
0.000000
  11
-90.218928
  21
73.784452
  31
0.000000
  0
LINE
  8
0
  10
-101.034584
  20
9.437230
  30
0.000000
  11
-101.034584
  21
-14.979437
  31
0.000000
  0
LINE
  8
0
  10
-91.034584
  20
9.437230
  30
0.000000
  11
-91.034584
  21
-14.979437
  31
0.000000
  0
LINE
  8
0
  10
-101.034584
  20
-13.312770
  30
0.000000
  11
-99.843928
  21
-13.312770
  31
0.000000
  0
LINE
  8
0
  10
-91.336352
  20
-13.312770
  30
0.000000
  11
-91.034584
  21
-13.312770
  31
0.000000
  0
LINE
  8
0
  10
-91.034584
  20
-13.312770
  30
0.000000
  11
-93.095207
  21
-12.643233
  31
0.000000
  0
LINE
  8
0
  10
-101.034584
  20
-13.312770
  30
0.000000
  11
-98.973962
  21
-13.982307
  31
0.000000
  0
LINE
  8
0
  10
-101.034584
  20
-13.312770
  30
0.000000
  11
-98.973962
  21
-12.643233
  31
0.000000
  0
LINE
  8
0
  10
-91.034584
  20
-13.312770
  30
0.000000
  11
-93.095207
  21
-13.982307
  31
0.000000
  0
LINE
  8
0
  10
-98.987867
  20
-12.790043
  30
0.000000
  11
-98.813625
  21
-12.702922
  31
0.000000
  0
LINE
  8
0
  10
-98.813625
  20
-12.702922
  30
0.000000
  11
-98.552261
  21
-12.441558
  31
0.000000
  0
LINE
  8
0
  10
-98.552261
  20
-12.441558
  30
0.000000
  11
-98.552261
  21
-14.271104
  31
0.000000
  0
LINE
  8
0
  10
-19.798859
  20
21.437230
  30
0.000000
  11
-28.297444
  21
21.437230
  31
0.000000
  0
LINE
  8
0
  10
-19.798859
  20
-2.562770
  30
0.000000
  11
-28.297444
  21
-2.562770
  31
0.000000
  0
LINE
  8
0
  10
-26.630777
  20
21.437230
  30
0.000000
  11
-26.630777
  21
11.263169
  31
0.000000
  0
LINE
  8
0
  10
-26.630777
  20
8.013169
  30
0.000000
  11
-26.630777
  21
-2.562770
  31
0.000000
  0
LINE
  8
0
  10
-26.630777
  20
-2.562770
  30
0.000000
  11
-25.961241
  21
-0.502148
  31
0.000000
  0
LINE
  8
0
  10
-26.630777
  20
21.437230
  30
0.000000
  11
-27.300314
  21
19.376607
  31
0.000000
  0
LINE
  8
0
  10
-26.630777
  20
21.437230
  30
0.000000
  11
-25.961241
  21
19.376607
  31
0.000000
  0
LINE
  8
0
  10
-26.630777
  20
-2.562770
  30
0.000000
  11
-27.300314
  21
-0.502148
  31
0.000000
  0
LINE
  8
0
  10
-30.202747
  20
10.073775
  30
0.000000
  11
-30.202747
  21
10.160896
  31
0.000000
  0
LINE
  8
0
  10
-30.202747
  20
10.160896
  30
0.000000
  11
-30.115626
  21
10.335138
  31
0.000000
  0
LINE
  8
0
  10
-30.115626
  20
10.335138
  30
0.000000
  11
-30.028505
  21
10.422259
  31
0.000000
  0
LINE
  8
0
  10
-30.028505
  20
10.422259
  30
0.000000
  11
-29.854262
  21
10.509381
  31
0.000000
  0
LINE
  8
0
  10
-29.854262
  20
10.509381
  30
0.000000
  11
-29.505777
  21
10.509381
  31
0.000000
  0
LINE
  8
0
  10
-29.505777
  20
10.509381
  30
0.000000
  11
-29.331535
  21
10.422259
  31
0.000000
  0
LINE
  8
0
  10
-29.331535
  20
10.422259
  30
0.000000
  11
-29.244414
  21
10.335138
  31
0.000000
  0
LINE
  8
0
  10
-29.244414
  20
10.335138
  30
0.000000
  11
-29.157293
  21
10.160896
  31
0.000000
  0
LINE
  8
0
  10
-29.157293
  20
10.160896
  30
0.000000
  11
-29.157293
  21
9.986653
  31
0.000000
  0
LINE
  8
0
  10
-29.157293
  20
9.986653
  30
0.000000
  11
-29.244414
  21
9.812411
  31
0.000000
  0
LINE
  8
0
  10
-29.244414
  20
9.812411
  30
0.000000
  11
-29.418656
  21
9.551047
  31
0.000000
  0
LINE
  8
0
  10
-29.418656
  20
9.551047
  30
0.000000
  11
-30.289868
  21
8.679835
  31
0.000000
  0
LINE
  8
0
  10
-30.289868
  20
8.679835
  30
0.000000
  11
-29.070171
  21
8.679835
  31
0.000000
  0
LINE
  8
0
  10
-27.676232
  20
10.509381
  30
0.000000
  11
-28.547444
  21
9.289684
  31
0.000000
  0
LINE
  8
0
  10
-28.547444
  20
9.289684
  30
0.000000
  11
-27.240626
  21
9.289684
  31
0.000000
  0
LINE
  8
0
  10
-27.676232
  20
10.509381
  30
0.000000
  11
-27.676232
  21
8.679835
  31
0.000000
  0
LINE
  8
0
  10
-2.828264
  20
16.766099
  30
0.000000
  11
-3.168109
  21
16.265016
  31
0.000000
  0
LINE
  8
0
  10
-3.729942
  20
18.913827
  30
0.000000
  11
-3.555700
  21
19.000948
  31
0.000000
  0
LINE
  8
0
  10
-3.555700
  20
19.000948
  30
0.000000
  11
-3.294336
  21
19.262311
  31
0.000000
  0
LINE
  8
0
  10
-3.294336
  20
19.262311
  30
0.000000
  11
-3.294336
  21
17.432766
  31
0.000000
  0
LINE
  8
0
  10
-1.116306
  20
19.000948
  30
0.000000
  11
-1.203427
  21
19.175190
  31
0.000000
  0
LINE
  8
0
  10
-1.203427
  20
19.175190
  30
0.000000
  11
-1.464791
  21
19.262311
  31
0.000000
  0
LINE
  8
0
  10
-1.464791
  20
19.262311
  30
0.000000
  11
-1.639033
  21
19.262311
  31
0.000000
  0
LINE
  8
0
  10
-1.639033
  20
19.262311
  30
0.000000
  11
-1.900397
  21
19.175190
  31
0.000000
  0
LINE
  8
0
  10
-1.900397
  20
19.175190
  30
0.000000
  11
-2.074639
  21
18.913827
  31
0.000000
  0
LINE
  8
0
  10
-2.074639
  20
18.913827
  30
0.000000
  11
-2.161760
  21
18.478220
  31
0.000000
  0
LINE
  8
0
  10
-2.161760
  20
18.478220
  30
0.000000
  11
-2.161760
  21
18.042614
  31
0.000000
  0
LINE
  8
0
  10
-2.161760
  20
18.042614
  30
0.000000
  11
-2.074639
  21
17.694130
  31
0.000000
  0
LINE
  8
0
  10
-2.074639
  20
17.694130
  30
0.000000
  11
-1.900397
  21
17.519887
  31
0.000000
  0
LINE
  8
0
  10
-1.900397
  20
17.519887
  30
0.000000
  11
-1.639033
  21
17.432766
  31
0.000000
  0
LINE
  8
0
  10
-1.639033
  20
17.432766
  30
0.000000
  11
-1.551912
  21
17.432766
  31
0.000000
  0
LINE
  8
0
  10
-1.551912
  20
17.432766
  30
0.000000
  11
-1.290548
  21
17.519887
  31
0.000000
  0
LINE
  8
0
  10
-1.290548
  20
17.519887
  30
0.000000
  11
-1.116306
  21
17.694130
  31
0.000000
  0
LINE
  8
0
  10
-1.116306
  20
17.694130
  30
0.000000
  11
-1.029185
  21
17.955493
  31
0.000000
  0
LINE
  8
0
  10
-1.029185
  20
17.955493
  30
0.000000
  11
-1.029185
  21
18.042614
  31
0.000000
  0
LINE
  8
0
  10
-1.029185
  20
18.042614
  30
0.000000
  11
-1.116306
  21
18.303978
  31
0.000000
  0
LINE
  8
0
  10
-1.116306
  20
18.303978
  30
0.000000
  11
-1.290548
  21
18.478220
  31
0.000000
  0
LINE
  8
0
  10
-1.290548
  20
18.478220
  30
0.000000
  11
-1.551912
  21
18.565342
  31
0.000000
  0
LINE
  8
0
  10
-1.551912
  20
18.565342
  30
0.000000
  11
-1.639033
  21
18.565342
  31
0.000000
  0
LINE
  8
0
  10
-1.639033
  20
18.565342
  30
0.000000
  11
-1.900397
  21
18.478220
  31
0.000000
  0
LINE
  8
0
  10
-1.900397
  20
18.478220
  30
0.000000
  11
-2.074639
  21
18.303978
  31
0.000000
  0
LINE
  8
0
  10
-2.074639
  20
18.303978
  30
0.000000
  11
-2.161760
  21
18.042614
  31
0.000000
  0
LINE
  8
0
  10
1.410209
  20
19.262311
  30
0.000000
  11
0.538997
  21
19.262311
  31
0.000000
  0
LINE
  8
0
  10
0.538997
  20
19.262311
  30
0.000000
  11
0.451876
  21
18.478220
  31
0.000000
  0
LINE
  8
0
  10
0.451876
  20
18.478220
  30
0.000000
  11
0.538997
  21
18.565342
  31
0.000000
  0
LINE
  8
0
  10
0.538997
  20
18.565342
  30
0.000000
  11
0.800361
  21
18.652463
  31
0.000000
  0
LINE
  8
0
  10
0.800361
  20
18.652463
  30
0.000000
  11
1.061725
  21
18.652463
  31
0.000000
  0
LINE
  8
0
  10
1.061725
  20
18.652463
  30
0.000000
  11
1.323088
  21
18.565342
  31
0.000000
  0
LINE
  8
0
  10
1.323088
  20
18.565342
  30
0.000000
  11
1.497331
  21
18.391099
  31
0.000000
  0
LINE
  8
0
  10
1.497331
  20
18.391099
  30
0.000000
  11
1.584452
  21
18.129736
  31
0.000000
  0
LINE
  8
0
  10
1.584452
  20
18.129736
  30
0.000000
  11
1.584452
  21
17.955493
  31
0.000000
  0
LINE
  8
0
  10
1.584452
  20
17.955493
  30
0.000000
  11
1.497331
  21
17.694130
  31
0.000000
  0
LINE
  8
0
  10
1.497331
  20
17.694130
  30
0.000000
  11
1.323088
  21
17.519887
  31
0.000000
  0
LINE
  8
0
  10
1.323088
  20
17.519887
  30
0.000000
  11
1.061725
  21
17.432766
  31
0.000000
  0
LINE
  8
0
  10
1.061725
  20
17.432766
  30
0.000000
  11
0.800361
  21
17.432766
  31
0.000000
  0
LINE
  8
0
  10
0.800361
  20
17.432766
  30
0.000000
  11
0.538997
  21
17.519887
  31
0.000000
  0
LINE
  8
0
  10
0.538997
  20
17.519887
  30
0.000000
  11
0.451876
  21
17.607008
  31
0.000000
  0
LINE
  8
0
  10
0.451876
  20
17.607008
  30
0.000000
  11
0.364755
  21
17.781251
  31
0.000000
  0
LINE
  8
0
  10
-4.941839
  20
19.550035
  30
0.000000
  11
-6.139257
  21
16.982163
  31
0.000000
  0
LINE
  8
0
  10
-7.798859
  20
9.437230
  30
0.000000
  11
-7.798859
  21
-19.173881
  31
0.000000
  0
LINE
  8
0
  10
4.201141
  20
9.437230
  30
0.000000
  11
4.201141
  21
-19.173881
  31
0.000000
  0
LINE
  8
0
  10
-7.798859
  20
-17.507215
  30
0.000000
  11
-6.608202
  21
-17.507215
  31
0.000000
  0
LINE
  8
0
  10
1.899374
  20
-17.507215
  30
0.000000
  11
4.201141
  21
-17.507215
  31
0.000000
  0
LINE
  8
0
  10
4.201141
  20
-17.507215
  30
0.000000
  11
2.140519
  21
-16.837678
  31
0.000000
  0
LINE
  8
0
  10
-7.798859
  20
-17.507215
  30
0.000000
  11
-5.738236
  21
-18.176752
  31
0.000000
  0
LINE
  8
0
  10
-7.798859
  20
-17.507215
  30
0.000000
  11
-5.738236
  21
-16.837678
  31
0.000000
  0
LINE
  8
0
  10
4.201141
  20
-17.507215
  30
0.000000
  11
2.140519
  21
-18.176752
  31
0.000000
  0
LINE
  8
0
  10
-5.752142
  20
-16.984487
  30
0.000000
  11
-5.577899
  21
-16.897366
  31
0.000000
  0
LINE
  8
0
  10
-5.577899
  20
-16.897366
  30
0.000000
  11
-5.316536
  21
-16.636003
  31
0.000000
  0
LINE
  8
0
  10
-5.316536
  20
-16.636003
  30
0.000000
  11
-5.316536
  21
-18.465548
  31
0.000000
  0
LINE
  8
0
  10
-4.183960
  20
-17.071609
  30
0.000000
  11
-4.183960
  21
-16.984487
  31
0.000000
  0
LINE
  8
0
  10
-4.183960
  20
-16.984487
  30
0.000000
  11
-4.096839
  21
-16.810245
  31
0.000000
  0
LINE
  8
0
  10
-4.096839
  20
-16.810245
  30
0.000000
  11
-4.009717
  21
-16.723124
  31
0.000000
  0
LINE
  8
0
  10
-4.009717
  20
-16.723124
  30
0.000000
  11
-3.835475
  21
-16.636003
  31
0.000000
  0
LINE
  8
0
  10
-3.835475
  20
-16.636003
  30
0.000000
  11
-3.486990
  21
-16.636003
  31
0.000000
  0
LINE
  8
0
  10
-3.486990
  20
-16.636003
  30
0.000000
  11
-3.312748
  21
-16.723124
  31
0.000000
  0
LINE
  8
0
  10
-3.312748
  20
-16.723124
  30
0.000000
  11
-3.225626
  21
-16.810245
  31
0.000000
  0
LINE
  8
0
  10
-3.225626
  20
-16.810245
  30
0.000000
  11
-3.138505
  21
-16.984487
  31
0.000000
  0
LINE
  8
0
  10
-3.138505
  20
-16.984487
  30
0.000000
  11
-3.138505
  21
-17.158730
  31
0.000000
  0
LINE
  8
0
  10
-3.138505
  20
-17.158730
  30
0.000000
  11
-3.225626
  21
-17.332972
  31
0.000000
  0
LINE
  8
0
  10
-3.225626
  20
-17.332972
  30
0.000000
  11
-3.399869
  21
-17.594336
  31
0.000000
  0
LINE
  8
0
  10
-3.399869
  20
-17.594336
  30
0.000000
  11
-4.271081
  21
-18.465548
  31
0.000000
  0
LINE
  8
0
  10
-4.271081
  20
-18.465548
  30
0.000000
  11
-3.051384
  21
-18.465548
  31
0.000000
  0
LINE
  8
0
  10
-12.798859
  20
35.437230
  30
0.000000
  11
-12.798859
  21
68.881674
  31
0.000000
  0
LINE
  8
0
  10
-2.798859
  20
35.437230
  30
0.000000
  11
-2.798859
  21
68.881674
  31
0.000000
  0
LINE
  8
0
  10
-12.798859
  20
67.215008
  30
0.000000
  11
-12.358202
  21
67.215008
  31
0.000000
  0
LINE
  8
0
  10
-3.850626
  20
67.215008
  30
0.000000
  11
-2.798859
  21
67.215008
  31
0.000000
  0
LINE
  8
0
  10
-2.798859
  20
67.215008
  30
0.000000
  11
-4.859481
  21
66.545471
  31
0.000000
  0
LINE
  8
0
  10
-12.798859
  20
67.215008
  30
0.000000
  11
-10.738236
  21
67.884544
  31
0.000000
  0
LINE
  8
0
  10
-12.798859
  20
67.215008
  30
0.000000
  11
-10.738236
  21
66.545471
  31
0.000000
  0
LINE
  8
0
  10
-2.798859
  20
67.215008
  30
0.000000
  11
-4.859481
  21
67.884544
  31
0.000000
  0
LINE
  8
0
  10
-11.502142
  20
67.737735
  30
0.000000
  11
-11.327899
  21
67.824856
  31
0.000000
  0
LINE
  8
0
  10
-11.327899
  20
67.824856
  30
0.000000
  11
-11.066536
  21
68.086220
  31
0.000000
  0
LINE
  8
0
  10
-11.066536
  20
68.086220
  30
0.000000
  11
-11.066536
  21
66.256674
  31
0.000000
  0
LINE
  8
0
  10
-110.034584
  20
-40.857652
  30
0.000000
  11
-110.034584
  21
-29.857652
  31
0.000000
  0
LINE
  8
0
  10
-82.034584
  20
-40.857652
  30
0.000000
  11
-82.034584
  21
-29.857652
  31
0.000000
  0
LINE
  8
0
  10
-110.034584
  20
-31.524318
  30
0.000000
  11
-100.788372
  21
-31.524318
  31
0.000000
  0
LINE
  8
0
  10
-92.280796
  20
-31.524318
  30
0.000000
  11
-82.034584
  21
-31.524318
  31
0.000000
  0
LINE
  8
0
  10
-82.034584
  20
-31.524318
  30
0.000000
  11
-84.095207
  21
-32.193855
  31
0.000000
  0
LINE
  8
0
  10
-110.034584
  20
-31.524318
  30
0.000000
  11
-107.973962
  21
-30.854781
  31
0.000000
  0
LINE
  8
0
  10
-110.034584
  20
-31.524318
  30
0.000000
  11
-107.973962
  21
-32.193855
  31
0.000000
  0
LINE
  8
0
  10
-82.034584
  20
-31.524318
  30
0.000000
  11
-84.095207
  21
-30.854781
  31
0.000000
  0
LINE
  8
0
  10
-100.106554
  20
-31.088712
  30
0.000000
  11
-100.106554
  21
-31.001591
  31
0.000000
  0
LINE
  8
0
  10
-100.106554
  20
-31.001591
  30
0.000000
  11
-100.019433
  21
-30.827348
  31
0.000000
  0
LINE
  8
0
  10
-100.019433
  20
-30.827348
  30
0.000000
  11
-99.932311
  21
-30.740227
  31
0.000000
  0
LINE
  8
0
  10
-99.932311
  20
-30.740227
  30
0.000000
  11
-99.758069
  21
-30.653106
  31
0.000000
  0
LINE
  8
0
  10
-99.758069
  20
-30.653106
  30
0.000000
  11
-99.409584
  21
-30.653106
  31
0.000000
  0
LINE
  8
0
  10
-99.409584
  20
-30.653106
  30
0.000000
  11
-99.235342
  21
-30.740227
  31
0.000000
  0
LINE
  8
0
  10
-99.235342
  20
-30.740227
  30
0.000000
  11
-99.148221
  21
-30.827348
  31
0.000000
  0
LINE
  8
0
  10
-99.148221
  20
-30.827348
  30
0.000000
  11
-99.061099
  21
-31.001591
  31
0.000000
  0
LINE
  8
0
  10
-99.061099
  20
-31.001591
  30
0.000000
  11
-99.061099
  21
-31.175833
  31
0.000000
  0
LINE
  8
0
  10
-99.061099
  20
-31.175833
  30
0.000000
  11
-99.148221
  21
-31.350076
  31
0.000000
  0
LINE
  8
0
  10
-99.148221
  20
-31.350076
  30
0.000000
  11
-99.322463
  21
-31.611439
  31
0.000000
  0
LINE
  8
0
  10
-99.322463
  20
-31.611439
  30
0.000000
  11
-100.193675
  21
-32.482652
  31
0.000000
  0
LINE
  8
0
  10
-100.193675
  20
-32.482652
  30
0.000000
  11
-98.973978
  21
-32.482652
  31
0.000000
  0
LINE
  8
0
  10
-82.034584
  20
-40.857652
  30
0.000000
  11
-70.201251
  21
-40.857652
  31
0.000000
  0
LINE
  8
0
  10
-82.034584
  20
-64.857652
  30
0.000000
  11
-70.201251
  21
-64.857652
  31
0.000000
  0
LINE
  8
0
  10
-71.867917
  20
-40.857652
  30
0.000000
  11
-71.867917
  21
-50.899318
  31
0.000000
  0
LINE
  8
0
  10
-71.867917
  20
-54.149318
  30
0.000000
  11
-71.867917
  21
-64.857652
  31
0.000000
  0
LINE
  8
0
  10
-71.867917
  20
-64.857652
  30
0.000000
  11
-72.537454
  21
-62.797029
  31
0.000000
  0
LINE
  8
0
  10
-71.867917
  20
-40.857652
  30
0.000000
  11
-71.198381
  21
-42.918274
  31
0.000000
  0
LINE
  8
0
  10
-71.867917
  20
-40.857652
  30
0.000000
  11
-72.537454
  21
-42.918274
  31
0.000000
  0
LINE
  8
0
  10
-71.867917
  20
-64.857652
  30
0.000000
  11
-71.198381
  21
-62.797029
  31
0.000000
  0
LINE
  8
0
  10
-75.439887
  20
-52.088712
  30
0.000000
  11
-75.439887
  21
-52.001591
  31
0.000000
  0
LINE
  8
0
  10
-75.439887
  20
-52.001591
  30
0.000000
  11
-75.352766
  21
-51.827348
  31
0.000000
  0
LINE
  8
0
  10
-75.352766
  20
-51.827348
  30
0.000000
  11
-75.265645
  21
-51.740227
  31
0.000000
  0
LINE
  8
0
  10
-75.265645
  20
-51.740227
  30
0.000000
  11
-75.091402
  21
-51.653106
  31
0.000000
  0
LINE
  8
0
  10
-75.091402
  20
-51.653106
  30
0.000000
  11
-74.742917
  21
-51.653106
  31
0.000000
  0
LINE
  8
0
  10
-74.742917
  20
-51.653106
  30
0.000000
  11
-74.568675
  21
-51.740227
  31
0.000000
  0
LINE
  8
0
  10
-74.568675
  20
-51.740227
  30
0.000000
  11
-74.481554
  21
-51.827348
  31
0.000000
  0
LINE
  8
0
  10
-74.481554
  20
-51.827348
  30
0.000000
  11
-74.394433
  21
-52.001591
  31
0.000000
  0
LINE
  8
0
  10
-74.394433
  20
-52.001591
  30
0.000000
  11
-74.394433
  21
-52.175833
  31
0.000000
  0
LINE
  8
0
  10
-74.394433
  20
-52.175833
  30
0.000000
  11
-74.481554
  21
-52.350076
  31
0.000000
  0
LINE
  8
0
  10
-74.481554
  20
-52.350076
  30
0.000000
  11
-74.655796
  21
-52.611439
  31
0.000000
  0
LINE
  8
0
  10
-74.655796
  20
-52.611439
  30
0.000000
  11
-75.527008
  21
-53.482652
  31
0.000000
  0
LINE
  8
0
  10
-75.527008
  20
-53.482652
  30
0.000000
  11
-74.307311
  21
-53.482652
  31
0.000000
  0
LINE
  8
0
  10
-72.913372
  20
-51.653106
  30
0.000000
  11
-73.784584
  21
-52.872803
  31
0.000000
  0
LINE
  8
0
  10
-73.784584
  20
-52.872803
  30
0.000000
  11
-72.477766
  21
-52.872803
  31
0.000000
  0
LINE
  8
0
  10
-72.913372
  20
-51.653106
  30
0.000000
  11
-72.913372
  21
-53.482652
  31
0.000000
  0
LINE
  8
0
  10
4.201141
  20
21.437230
  30
0.000000
  11
4.201141
  21
9.437230
  31
0.000000
  0
LINE
  8
0
  10
4.201141
  20
9.437230
  30
0.000000
  11
4.000806
  21
7.253673
  31
0.000000
  0
LINE
  8
0
  10
4.000806
  20
7.253673
  30
0.000000
  11
3.358601
  21
5.020093
  31
0.000000
  0
LINE
  8
0
  10
3.358601
  20
5.020093
  30
0.000000
  11
2.245087
  21
2.870713
  31
0.000000
  0
LINE
  8
0
  10
2.245087
  20
2.870713
  30
0.000000
  11
0.686423
  21
0.951948
  31
0.000000
  0
LINE
  8
0
  10
0.686423
  20
0.951948
  30
0.000000
  11
-1.232342
  21
-0.606716
  31
0.000000
  0
LINE
  8
0
  10
-1.232342
  20
-0.606716
  30
0.000000
  11
-3.381722
  21
-1.720230
  31
0.000000
  0
LINE
  8
0
  10
-3.381722
  20
-1.720230
  30
0.000000
  11
-5.615302
  21
-2.362435
  31
0.000000
  0
LINE
  8
0
  10
-5.615302
  20
-2.362435
  30
0.000000
  11
-7.798859
  21
-2.562770
  31
0.000000
  0
LINE
  8
0
  10
-7.798859
  20
-2.562770
  30
0.000000
  11
-9.982415
  21
-2.362435
  31
0.000000
  0
LINE
  8
0
  10
-9.982415
  20
-2.362435
  30
0.000000
  11
-12.215995
  21
-1.720230
  31
0.000000
  0
LINE
  8
0
  10
-12.215995
  20
-1.720230
  30
0.000000
  11
-14.365376
  21
-0.606716
  31
0.000000
  0
LINE
  8
0
  10
-14.365376
  20
-0.606716
  30
0.000000
  11
-16.284140
  21
0.951948
  31
0.000000
  0
LINE
  8
0
  10
-16.284140
  20
0.951948
  30
0.000000
  11
-17.842805
  21
2.870713
  31
0.000000
  0
LINE
  8
0
  10
-17.842805
  20
2.870713
  30
0.000000
  11
-18.956318
  21
5.020093
  31
0.000000
  0
LINE
  8
0
  10
-18.956318
  20
5.020093
  30
0.000000
  11
-19.598523
  21
7.253673
  31
0.000000
  0
LINE
  8
0
  10
-19.598523
  20
7.253673
  30
0.000000
  11
-19.798859
  21
9.437230
  31
0.000000
  0
LINE
  8
0
  10
-19.798859
  20
9.437230
  30
0.000000
  11
-19.798859
  21
21.437230
  31
0.000000
  0
LINE
  8
0
  10
-82.034584
  20
35.437230
  30
0.000000
  11
-82.034584
  21
21.437230
  31
0.000000
  0
LINE
  8
0
  10
-82.034584
  20
21.437230
  30
0.000000
  11
-91.034584
  21
21.437230
  31
0.000000
  0
LINE
  8
0
  10
-91.034584
  20
21.437230
  30
0.000000
  11
-91.034584
  21
9.437230
  31
0.000000
  0
LINE
  8
0
  10
-91.034584
  20
9.437230
  30
0.000000
  11
-91.034584
  21
7.253673
  31
0.000000
  0
LINE
  8
0
  10
-91.034584
  20
7.253673
  30
0.000000
  11
-91.034584
  21
5.020093
  31
0.000000
  0
LINE
  8
0
  10
-91.034584
  20
5.020093
  30
0.000000
  11
-91.034584
  21
2.870713
  31
0.000000
  0
LINE
  8
0
  10
-91.034584
  20
2.870713
  30
0.000000
  11
-91.034584
  21
0.951948
  31
0.000000
  0
LINE
  8
0
  10
-91.034584
  20
0.951948
  30
0.000000
  11
-91.034584
  21
-0.606716
  31
0.000000
  0
LINE
  8
0
  10
-91.034584
  20
-0.606716
  30
0.000000
  11
-91.034584
  21
-1.720230
  31
0.000000
  0
LINE
  8
0
  10
-91.034584
  20
-1.720230
  30
0.000000
  11
-91.034584
  21
-2.362435
  31
0.000000
  0
LINE
  8
0
  10
-91.034584
  20
-2.362435
  30
0.000000
  11
-91.034584
  21
-2.562770
  31
0.000000
  0
LINE
  8
0
  10
-91.034584
  20
-2.562770
  30
0.000000
  11
-101.034584
  21
-2.562770
  31
0.000000
  0
LINE
  8
0
  10
-101.034584
  20
-2.562770
  30
0.000000
  11
-101.034584
  21
-2.362435
  31
0.000000
  0
LINE
  8
0
  10
-101.034584
  20
-2.362435
  30
0.000000
  11
-101.034584
  21
-1.720230
  31
0.000000
  0
LINE
  8
0
  10
-101.034584
  20
-1.720230
  30
0.000000
  11
-101.034584
  21
-0.606716
  31
0.000000
  0
LINE
  8
0
  10
-101.034584
  20
-0.606716
  30
0.000000
  11
-101.034584
  21
0.951948
  31
0.000000
  0
LINE
  8
0
  10
-101.034584
  20
0.951948
  30
0.000000
  11
-101.034584
  21
2.870713
  31
0.000000
  0
LINE
  8
0
  10
-101.034584
  20
2.870713
  30
0.000000
  11
-101.034584
  21
5.020093
  31
0.000000
  0
LINE
  8
0
  10
-101.034584
  20
5.020093
  30
0.000000
  11
-101.034584
  21
7.253673
  31
0.000000
  0
LINE
  8
0
  10
-101.034584
  20
7.253673
  30
0.000000
  11
-101.034584
  21
9.437230
  31
0.000000
  0
LINE
  8
0
  10
-101.034584
  20
9.437230
  30
0.000000
  11
-101.034584
  21
21.437230
  31
0.000000
  0
LINE
  8
0
  10
-101.034584
  20
21.437230
  30
0.000000
  11
-110.034584
  21
21.437230
  31
0.000000
  0
LINE
  8
0
  10
-110.034584
  20
21.437230
  30
0.000000
  11
-110.034584
  21
35.437230
  31
0.000000
  0
LINE
  8
0
  10
-82.034584
  20
-40.857652
  30
0.000000
  11
-82.034584
  21
-64.857652
  31
0.000000
  0
LINE
  8
0
  10
-82.034584
  20
-64.857652
  30
0.000000
  11
-91.034584
  21
-64.857652
  31
0.000000
  0
LINE
  8
0
  10
-91.034584
  20
-40.857652
  30
0.000000
  11
-82.034584
  21
-40.857652
  31
0.000000
  0
LINE
  8
0
  10
-110.034584
  20
-40.857652
  30
0.000000
  11
-101.034584
  21
-40.857652
  31
0.000000
  0
LINE
  8
0
  10
-110.034584
  20
-64.857652
  30
0.000000
  11
-110.034584
  21
-40.857652
  31
0.000000
  0
LINE
  8
0
  10
-101.034584
  20
-64.857652
  30
0.000000
  11
-110.034584
  21
-64.857652
  31
0.000000
  0
LINE
  8
0
  10
-101.034584
  20
9.437230
  30
0.000000
  11
-101.034584
  21
21.437230
  31
0.000000
  0
LINE
  8
0
  10
-101.034584
  20
21.437230
  30
0.000000
  11
-110.034584
  21
21.437230
  31
0.000000
  0
LINE
  8
0
  10
-110.034584
  20
21.437230
  30
0.000000
  11
-110.034584
  21
35.437230
  31
0.000000
  0
LINE
  8
0
  10
-110.034584
  20
35.437230
  30
0.000000
  11
-82.034584
  21
35.437230
  31
0.000000
  0
LINE
  8
0
  10
-82.034584
  20
35.437230
  30
0.000000
  11
-82.034584
  21
21.437230
  31
0.000000
  0
LINE
  8
0
  10
-82.034584
  20
21.437230
  30
0.000000
  11
-91.034584
  21
21.437230
  31
0.000000
  0
LINE
  8
0
  10
-91.034584
  20
21.437230
  30
0.000000
  11
-91.034584
  21
9.437230
  31
0.000000
  0
LINE
  8
0
  10
-91.034584
  20
9.437230
  30
0.000000
  11
-101.034584
  21
9.437230
  31
0.000000
  0
LINE
  8
0
  10
-82.034584
  20
45.437230
  30
0.000000
  11
-82.034584
  21
35.437230
  31
0.000000
  0
LINE
  8
0
  10
-82.034584
  20
35.437230
  30
0.000000
  11
-82.034584
  21
21.437230
  31
0.000000
  0
LINE
  8
0
  10
-82.034584
  20
21.437230
  30
0.000000
  11
-91.034584
  21
21.437230
  31
0.000000
  0
LINE
  8
0
  10
-91.034584
  20
21.437230
  30
0.000000
  11
-91.034584
  21
9.437230
  31
0.000000
  0
LINE
  8
0
  10
-91.034584
  20
9.437230
  30
0.000000
  11
-101.034584
  21
9.437230
  31
0.000000
  0
LINE
  8
0
  10
-101.034584
  20
9.437230
  30
0.000000
  11
-101.034584
  21
7.253673
  31
0.000000
  0
LINE
  8
0
  10
-101.034584
  20
7.253673
  30
0.000000
  11
-101.034584
  21
5.020093
  31
0.000000
  0
LINE
  8
0
  10
-101.034584
  20
5.020093
  30
0.000000
  11
-101.034584
  21
2.870713
  31
0.000000
  0
LINE
  8
0
  10
-101.034584
  20
2.870713
  30
0.000000
  11
-101.034584
  21
0.951948
  31
0.000000
  0
LINE
  8
0
  10
-101.034584
  20
0.951948
  30
0.000000
  11
-101.034584
  21
-0.606716
  31
0.000000
  0
LINE
  8
0
  10
-101.034584
  20
-0.606716
  30
0.000000
  11
-101.034584
  21
-1.720230
  31
0.000000
  0
LINE
  8
0
  10
-101.034584
  20
-1.720230
  30
0.000000
  11
-101.034584
  21
-2.362435
  31
0.000000
  0
LINE
  8
0
  10
-101.034584
  20
-2.362435
  30
0.000000
  11
-101.034584
  21
-2.562770
  31
0.000000
  0
LINE
  8
0
  10
-101.034584
  20
-2.562770
  30
0.000000
  11
-101.034584
  21
-2.362435
  31
0.000000
  0
LINE
  8
0
  10
-101.034584
  20
-2.362435
  30
0.000000
  11
-101.034584
  21
-1.720230
  31
0.000000
  0
LINE
  8
0
  10
-101.034584
  20
-1.720230
  30
0.000000
  11
-101.034584
  21
-0.606716
  31
0.000000
  0
LINE
  8
0
  10
-101.034584
  20
-0.606716
  30
0.000000
  11
-101.034584
  21
0.951948
  31
0.000000
  0
LINE
  8
0
  10
-101.034584
  20
0.951948
  30
0.000000
  11
-101.034584
  21
2.870713
  31
0.000000
  0
LINE
  8
0
  10
-101.034584
  20
2.870713
  30
0.000000
  11
-101.034584
  21
5.020093
  31
0.000000
  0
LINE
  8
0
  10
-101.034584
  20
5.020093
  30
0.000000
  11
-101.034584
  21
7.253673
  31
0.000000
  0
LINE
  8
0
  10
-101.034584
  20
7.253673
  30
0.000000
  11
-101.034584
  21
9.437230
  31
0.000000
  0
LINE
  8
0
  10
-101.034584
  20
9.437230
  30
0.000000
  11
-101.034584
  21
21.437230
  31
0.000000
  0
LINE
  8
0
  10
-101.034584
  20
21.437230
  30
0.000000
  11
-110.034584
  21
21.437230
  31
0.000000
  0
LINE
  8
0
  10
-110.034584
  20
21.437230
  30
0.000000
  11
-110.034584
  21
35.437230
  31
0.000000
  0
LINE
  8
0
  10
-110.034584
  20
35.437230
  30
0.000000
  11
-110.034584
  21
45.437230
  31
0.000000
  0
LINE
  8
0
  10
-110.034584
  20
45.437230
  30
0.000000
  11
-109.642899
  21
48.725658
  31
0.000000
  0
LINE
  8
0
  10
-109.642899
  20
48.725658
  30
0.000000
  11
-108.444258
  21
51.917970
  31
0.000000
  0
LINE
  8
0
  10
-108.444258
  20
51.917970
  30
0.000000
  11
-106.509419
  21
54.725816
  31
0.000000
  0
LINE
  8
0
  10
-106.509419
  20
54.725816
  30
0.000000
  11
-104.034584
  21
56.926355
  31
0.000000
  0
LINE
  8
0
  10
-104.034584
  20
56.926355
  30
0.000000
  11
-104.034584
  21
45.437230
  31
0.000000
  0
LINE
  8
0
  10
-104.034584
  20
45.437230
  30
0.000000
  11
-103.472891
  21
42.492472
  31
0.000000
  0
LINE
  8
0
  10
-103.472891
  20
42.492472
  30
0.000000
  11
-101.691438
  21
39.780375
  31
0.000000
  0
LINE
  8
0
  10
-101.691438
  20
39.780375
  30
0.000000
  11
-98.979342
  21
37.998923
  31
0.000000
  0
LINE
  8
0
  10
-98.979342
  20
37.998923
  30
0.000000
  11
-96.034584
  21
37.437230
  31
0.000000
  0
LINE
  8
0
  10
-96.034584
  20
37.437230
  30
0.000000
  11
-93.089826
  21
37.998923
  31
0.000000
  0
LINE
  8
0
  10
-93.089826
  20
37.998923
  30
0.000000
  11
-90.377730
  21
39.780375
  31
0.000000
  0
LINE
  8
0
  10
-90.377730
  20
39.780375
  30
0.000000
  11
-88.596278
  21
42.492472
  31
0.000000
  0
LINE
  8
0
  10
-88.596278
  20
42.492472
  30
0.000000
  11
-88.034584
  21
45.437230
  31
0.000000
  0
LINE
  8
0
  10
-88.034584
  20
45.437230
  30
0.000000
  11
-88.034584
  21
56.926355
  31
0.000000
  0
LINE
  8
0
  10
-88.034584
  20
56.926355
  30
0.000000
  11
-85.559749
  21
54.725816
  31
0.000000
  0
LINE
  8
0
  10
-85.559749
  20
54.725816
  30
0.000000
  11
-83.624911
  21
51.917970
  31
0.000000
  0
LINE
  8
0
  10
-83.624911
  20
51.917970
  30
0.000000
  11
-82.426269
  21
48.725658
  31
0.000000
  0
LINE
  8
0
  10
-82.426269
  20
48.725658
  30
0.000000
  11
-82.034584
  21
45.437230
  31
0.000000
  0
ENDSEC
  0
EOF
