999
dxfrw 0.6.3
  0
SECTION
  2
HEADER
  9
$ACADVER
  1
AC1021
  9
$DWGCODEPAGE
  3
ANSI_1252
  9
$INSBASE
 10
0
 20
0
 30
0
  9
$EXTMIN
 10
1e+020
 20
1e+020
 30
1e+020
  9
$EXTMAX
 10
-1e+020
 20
-1e+020
 30
-1e+020
  9
$LIMMIN
 10
0
 20
0
  9
$LIMMAX
 10
420
 20
297
  9
$ORTHOMODE
 70
    0
  9
$REGENMODE
 70
    1
  9
$FILLMODE
 70
    1
  9
$QTEXTMODE
 70
    0
  9
$MIRRTEXT
 70
    0
  9
$LTSCALE
 40
1
  9
$ATTMODE
 70
    0
  9
$TEXTSIZE
 40
2.5
  9
$TRACEWID
 40
15.68
  9
$TEXTSTYLE
  7
STANDARD
  9
$CLAYER
  8
0
  9
$CELTYPE
  6
BYLAYER
  9
$CECOLOR
 62
  256
  9
$CELTSCALE
 40
1
  9
$DISPSILH
 70
    0
  9
$DIMSCALE
 40
1
  9
$DIMASZ
 40
2.5
  9
$DIMEXO
 40
0.625
  9
$DIMDLI
 40
3.75
  9
$DIMRND
 40
0
  9
$DIMDLE
 40
0
  9
$DIMEXE
 40
1.25
  9
$DIMTP
 40
0
  9
$DIMTM
 40
0
  9
$DIMTXT
 40
2.5
  9
$DIMCEN
 40
2.5
  9
$DIMTSZ
 40
0
  9
$DIMTOL
 70
    0
  9
$DIMLIM
 70
    0
  9
$DIMTIH
 70
    0
  9
$DIMTOH
 70
    0
  9
$DIMSE1
 70
    0
  9
$DIMSE2
 70
    0
  9
$DIMTAD
 70
    1
  9
$DIMZIN
 70
    8
  9
$DIMBLK
  1

  9
$DIMASO
 70
    1
  9
$DIMSHO
 70
    1
  9
$DIMPOST
  1

  9
$DIMAPOST
  1

  9
$DIMALT
 70
    0
  9
$DIMALTD
 70
    3
  9
$DIMALTF
 40
0.03937
  9
$DIMLFAC
 40
1
  9
$DIMTOFL
 70
    1
  9
$DIMTVP
 40
0
  9
$DIMTIX
 70
    0
  9
$DIMSOXD
 70
    0
  9
$DIMSAH
 70
    0
  9
$DIMBLK1
  1

  9
$DIMBLK2
  1

  9
$DIMSTYLE
  2
STANDARD
  9
$DIMCLRD
 70
    0
  9
$DIMCLRE
 70
    0
  9
$DIMCLRT
 70
    0
  9
$DIMTFAC
 40
1
  9
$DIMGAP
 40
0.625
  9
$DIMJUST
 70
    0
  9
$DIMSD1
 70
    0
  9
$DIMSD2
 70
    0
  9
$DIMTOLJ
 70
    0
  9
$DIMTZIN
 70
    8
  9
$DIMALTZ
 70
    0
  9
$DIMALTTZ
 70
    0
  9
$DIMUPT
 70
    0
  9
$DIMDEC
 70
    2
  9
$DIMTDEC
 70
    2
  9
$DIMALTU
 70
    2
  9
$DIMALTTD
 70
    3
  9
$DIMTXSTY
  7
STANDARD
  9
$DIMAUNIT
 70
    0
  9
$DIMADEC
 70
    0
  9
$DIMALTRND
 40
0
  9
$DIMAZIN
 70
    0
  9
$DIMDSEP
 70
   44
  9
$DIMATFIT
 70
    3
  9
$DIMFRAC
 70
    0
  9
$DIMLDRBLK
  1
STANDARD
  9
$DIMLUNIT
 70
    2
  9
$DIMLWD
 70
   -2
  9
$DIMLWE
 70
   -2
  9
$DIMTMOVE
 70
    0
  9
$DIMFXL
 40
1
  9
$DIMFXLON
 70
    0
  9
$DIMJOGANG
 40
0.7854
  9
$DIMTFILL
 70
    0
  9
$DIMTFILLCLR
 70
    0
  9
$DIMARCSYM
 70
    0
  9
$DIMLTYPE
  6

  9
$DIMLTEX1
  6

  9
$DIMLTEX2
  6

  9
$LUNITS
 70
    2
  9
$LUPREC
 70
    4
  9
$SKETCHINC
 40
1
  9
$FILLETRAD
 40
0
  9
$AUNITS
 70
    0
  9
$AUPREC
 70
    2
  9
$MENU
  1
.
  9
$ELEVATION
 40
0
  9
$PELEVATION
 40
0
  9
$THICKNESS
 40
0
  9
$LIMCHECK
 70
    0
  9
$CHAMFERA
 40
0
  9
$CHAMFERB
 40
0
  9
$CHAMFERC
 40
0
  9
$CHAMFERD
 40
0
  9
$SKPOLY
 70
    0
  9
$USRTIMER
 70
    1
  9
$ANGBASE
 50
0
  9
$ANGDIR
 70
    0
  9
$PDMODE
 70
   34
  9
$PDSIZE
 40
0
  9
$PLINEWID
 40
0
  9
$SPLFRAME
 70
    0
  9
$SPLINETYPE
 70
    2
  9
$SPLINESEGS
 70
    8
  9
$HANDSEED
  5
20000
  9
$SURFTAB1
 70
    6
  9
$SURFTAB2
 70
    6
  9
$SURFTYPE
 70
    6
  9
$SURFU
 70
    6
  9
$SURFV
 70
    6
  9
$UCSBASE
  2

  9
$UCSNAME
  2

  9
$UCSORG
 10
0
 20
0
 30
0
  9
$UCSXDIR
 10
1
 20
0
 30
0
  9
$UCSYDIR
 10
0
 20
1
 30
0
  9
$UCSORTHOREF
  2

  9
$UCSORTHOVIEW
 70
    0
  9
$UCSORGTOP
 10
0
 20
0
 30
0
  9
$UCSORGBOTTOM
 10
0
 20
0
 30
0
  9
$UCSORGLEFT
 10
0
 20
0
 30
0
  9
$UCSORGRIGHT
 10
0
 20
0
 30
0
  9
$UCSORGFRONT
 10
0
 20
0
 30
0
  9
$UCSORGBACK
 10
0
 20
0
 30
0
  9
$PUCSBASE
  2

  9
$PUCSNAME
  2

  9
$PUCSORG
 10
0
 20
0
 30
0
  9
$PUCSXDIR
 10
1
 20
0
 30
0
  9
$PUCSYDIR
 10
0
 20
1
 30
0
  9
$PUCSORTHOREF
  2

  9
$PUCSORTHOVIEW
 70
    0
  9
$PUCSORGTOP
 10
0
 20
0
 30
0
  9
$PUCSORGBOTTOM
 10
0
 20
0
 30
0
  9
$PUCSORGLEFT
 10
0
 20
0
 30
0
  9
$PUCSORGRIGHT
 10
0
 20
0
 30
0
  9
$PUCSORGFRONT
 10
0
 20
0
 30
0
  9
$PUCSORGBACK
 10
0
 20
0
 30
0
  9
$USERI1
 70
    0
  9
$USERI2
 70
    0
  9
$USERI3
 70
    0
  9
$USERI4
 70
    0
  9
$USERI5
 70
    0
  9
$USERR1
 40
0
  9
$USERR2
 40
0
  9
$USERR3
 40
0
  9
$USERR4
 40
0
  9
$USERR5
 40
0
  9
$WORLDVIEW
 70
    1
  9
$SHADEDGE
 70
    3
  9
$SHADEDIF
 70
   70
  9
$TILEMODE
 70
    1
  9
$MAXACTVP
 70
   64
  9
$PINSBASE
 10
0
 20
0
 30
0
  9
$PLIMCHECK
 70
    0
  9
$PEXTMIN
 10
0
 20
0
 30
0
  9
$PEXTMAX
 10
0
 20
0
 30
0
  9
$PLIMMIN
 10
0
 20
0
  9
$PLIMMAX
 10
297
 20
210
  9
$UNITMODE
 70
    0
  9
$VISRETAIN
 70
    1
  9
$PLINEGEN
 70
    0
  9
$PSLTSCALE
 70
    1
  9
$TREEDEPTH
 70
 3020
  9
$CMLSTYLE
  2
Standard
  9
$CMLJUST
 70
    0
  9
$CMLSCALE
 40
20
  9
$PROXYGRAPHICS
 70
    1
  9
$MEASUREMENT
 70
    1
  9
$CELWEIGHT
370
   -1
  9
$ENDCAPS
280
    0
  9
$JOINSTYLE
280
    0
  9
$LWDISPLAY
290
    0
  9
$INSUNITS
 70
    0
  9
$HYPERLINKBASE
  1

  9
$STYLESHEET
  1

  9
$XEDIT
290
    1
  9
$CEPSNTYPE
380
    0
  9
$PSTYLEMODE
290
    1
  9
$EXTNAMES
290
    1
  9
$PSVPSCALE
 40
0
  9
$OLESTARTUP
290
    0
  9
$SORTENTS
280
  127
  9
$INDEXCTL
280
    0
  9
$HIDETEXT
280
    1
  9
$XCLIPFRAME
290
    0
  9
$HALOGAP
280
    0
  9
$OBSCOLOR
 70
  257
  9
$OBSLTYPE
280
    0
  9
$INTERSECTIONDISPLAY
280
    0
  9
$INTERSECTIONCOLOR
 70
  257
  9
$DIMASSOC
280
    1
  9
$PROJECTNAME
  1

  9
$CAMERADISPLAY
290
    0
  9
$LENSLENGTH
 40
50
  9
$CAMERAHEIGHT
 40
0
  9
$STEPSPERSEC
 40
2
  9
$STEPSIZE
 40
50
  9
$3DDWFPREC
 40
2
  9
$PSOLWIDTH
 40
5
  9
$PSOLHEIGHT
 40
80
  9
$LOFTANG1
 40
1.570796326794897
  9
$LOFTANG2
 40
1.570796326794897
  9
$LOFTMAG1
 40
0
  9
$LOFTMAG2
 40
0
  9
$LOFTPARAM
 70
    7
  9
$LOFTNORMALS
280
    1
  9
$LATITUDE
 40
1
  9
$LONGITUDE
 40
1
  9
$NORTHDIRECTION
 40
0
  9
$TIMEZONE
 70
-8000
  9
$LIGHTGLYPHDISPLAY
280
    1
  9
$TILEMODELIGHTSYNCH
280
    1
  9
$SOLIDHIST
280
    1
  9
$SHOWHIST
280
    1
  9
$DWFFRAME
280
    2
  9
$DGNFRAME
280
    0
  9
$REALWORLDSCALE
290
    1
  9
$INTERFERECOLOR
 62
    1
  9
$CSHADOW
280
    0
  9
$SHADOWPLANELOCATION
 40
0
  0
ENDSEC
  0
SECTION
  2
CLASSES
  0
ENDSEC
  0
SECTION
  2
TABLES
  0
TABLE
  2
VPORT
  5
8
330
0
100
AcDbSymbolTable
 70
    1
  0
VPORT
  5
31
330
2
100
AcDbSymbolTableRecord
100
AcDbViewportTableRecord
  2
*ACTIVE
 70
    0
 10
0
 20
0
 11
1
 21
1
 12
0.651828
 22
-0.16
 13
0
 23
0
 14
10
 24
10
 15
10
 25
10
 16
0
 26
0
 36
1
 17
0
 27
0
 37
0
 40
5.13732
 41
2.4426877
 42
50
 43
0
 44
0
 50
0
 51
0
 71
    0
 72
  100
 73
    1
 74
    3
 75
    0
 76
    0
 77
    0
 78
    0
281
    0
 65
    1
110
0
120
0
130
0
111
1
121
0
131
0
112
0
122
1
132
0
 79
    0
146
0
348
10020
 60
    7
 61
    5
292
1
282
    1
141
0
142
0
 63
  250
421
3358443
  0
ENDTAB
  0
TABLE
  2
LTYPE
  5
5
330
0
100
AcDbSymbolTable
 70
    4
  0
LTYPE
  5
14
330
5
100
AcDbSymbolTableRecord
100
AcDbLinetypeTableRecord
  2
ByBlock
 70
    0
  3

 72
   65
 73
    0
 40
0
  0
LTYPE
  5
15
330
5
100
AcDbSymbolTableRecord
100
AcDbLinetypeTableRecord
  2
ByLayer
 70
    0
  3

 72
   65
 73
    0
 40
0
  0
LTYPE
  5
16
330
5
100
AcDbSymbolTableRecord
100
AcDbLinetypeTableRecord
  2
Continuous
 70
    0
  3
Solid line
 72
   65
 73
    0
 40
0
  0
LTYPE
  5
32
330
5
100
AcDbSymbolTableRecord
100
AcDbLinetypeTableRecord
  2
DASHED
 70
    0
  3

 72
   65
 73
    2
 40
2
 49
1
 74
    0
 49
-1
 74
    0
  0
LTYPE
  5
33
330
5
100
AcDbSymbolTableRecord
100
AcDbLinetypeTableRecord
  2
DASHEDX2
 70
    0
  3

 72
   65
 73
    2
 40
3
 49
2
 74
    0
 49
-1
 74
    0
  0
LTYPE
  5
34
330
5
100
AcDbSymbolTableRecord
100
AcDbLinetypeTableRecord
  2
DASHDOT
 70
    0
  3

 72
   65
 73
    4
 40
3
 49
1
 74
    0
 49
-1
 74
    0
 49
0
 74
    0
 49
-1
 74
    0
  0
LTYPE
  5
35
330
5
100
AcDbSymbolTableRecord
100
AcDbLinetypeTableRecord
  2
DIVIDE
 70
    0
  3

 72
   65
 73
    6
 40
4
 49
1
 74
    0
 49
-1
 74
    0
 49
0
 74
    0
 49
-1
 74
    0
 49
0
 74
    0
 49
-1
 74
    0
  0
LTYPE
  5
36
330
5
100
AcDbSymbolTableRecord
100
AcDbLinetypeTableRecord
  2
DOT
 70
    0
  3

 72
   65
 73
    2
 40
1
 49
1
 74
    0
 49
0
 74
    0
  0
ENDTAB
  0
TABLE
  2
LAYER
  5
2
330
0
100
AcDbSymbolTable
 70
    1
  0
LAYER
  5
37
330
2
100
AcDbSymbolTableRecord
100
AcDbLayerTableRecord
  2
dimensions
 70
    0
 62
    7
  6
CONTINUOUS
370
   -3
390
F
  0
LAYER
  5
38
330
2
100
AcDbSymbolTableRecord
100
AcDbLayerTableRecord
  2
text
 70
    0
 62
    7
  6
CONTINUOUS
370
   -3
390
F
  0
LAYER
  5
39
330
2
100
AcDbSymbolTableRecord
100
AcDbLayerTableRecord
  2
s005-#def-solid-edge
 70
    0
 62
    7
  6
CONTINUOUS
370
   -3
390
F
  0
LAYER
  5
3A
330
2
100
AcDbSymbolTableRecord
100
AcDbLayerTableRecord
  2
s00e-#def-invisible
 70
    0
 62
    7
  6
CONTINUOUS
370
   -3
390
F
  0
LAYER
  5
3B
330
2
100
AcDbSymbolTableRecord
100
AcDbLayerTableRecord
  2
s00f-#def-silhouette
 70
    0
 62
    7
  6
CONTINUOUS
370
   -3
390
F
  0
LAYER
  5
10
330
2
100
AcDbSymbolTableRecord
100
AcDbLayerTableRecord
  2
0
 70
    0
 62
    7
  6
CONTINUOUS
370
   -3
390
F
  0
ENDTAB
  0
TABLE
  2
STYLE
  5
3
330
0
100
AcDbSymbolTable
 70
    3
  0
STYLE
  5
3C
330
2
100
AcDbSymbolTableRecord
100
AcDbTextStyleTableRecord
  2
unicode
 70
    0
 40
0
 41
1
 50
0
 71
    0
 42
1
  3
unicode
  4

  0
STYLE
  5
3D
330
2
100
AcDbSymbolTableRecord
100
AcDbTextStyleTableRecord
  2
Standard
 70
    0
 40
0
 41
1
 50
0
 71
    0
 42
1
  3
txt
  4

  0
ENDTAB
  0
TABLE
  2
VIEW
  5
6
330
0
100
AcDbSymbolTable
 70
    0
  0
ENDTAB
  0
TABLE
  2
UCS
  5
7
330
0
100
AcDbSymbolTable
 70
    0
  0
ENDTAB
  0
TABLE
  2
APPID
  5
9
330
0
100
AcDbSymbolTable
 70
    1
  0
APPID
  5
12
330
9
100
AcDbSymbolTableRecord
100
AcDbRegAppTableRecord
  2
ACAD
 70
    0
  0
ENDTAB
  0
TABLE
  2
DIMSTYLE
  5
A
330
0
100
AcDbSymbolTable
 70
    1
100
AcDbDimStyleTable
 71
    1
  0
DIMSTYLE
105
3E
330
A
100
AcDbSymbolTableRecord
100
AcDbDimStyleTableRecord
  2
Standard
 70
    0
 40
1
 41
2.5
 42
0.625
 43
3.75
 44
1.25
 45
0
 46
0
 47
0
 48
0
140
2.5
141
2.5
142
0
143
0.03937007874015748
144
1
145
0
146
1
147
0.625
148
0
 71
    0
 72
    0
 73
    0
 74
    0
 75
    0
 76
    0
 77
    1
 78
    8
 79
    0
170
    0
171
    3
172
    1
173
    0
174
    0
175
    0
176
    0
177
    0
178
    0
179
    0
271
    2
272
    2
273
    2
274
    3
275
    0
276
    0
277
    2
278
   44
279
    0
280
    0
281
    0
282
    0
283
    0
284
    8
285
    0
286
    0
288
    0
289
    3
341

371
   -2
372
   -2
  0
ENDTAB
  0
TABLE
  2
BLOCK_RECORD
  5
1
330
0
100
AcDbSymbolTable
 70
    2
  0
BLOCK_RECORD
  5
1F
330
1
100
AcDbSymbolTableRecord
100
AcDbBlockTableRecord
  2
*Model_Space
 70
    0
280
    1
281
    0
  0
BLOCK_RECORD
  5
1E
330
1
100
AcDbSymbolTableRecord
100
AcDbBlockTableRecord
  2
*Paper_Space
 70
    0
280
    1
281
    0
  0
ENDTAB
  0
ENDSEC
  0
SECTION
  2
BLOCKS
  0
BLOCK
  5
20
330
1F
100
AcDbEntity
  8
0
100
AcDbBlockBegin
  2
*Model_Space
 70
    0
 10
0
 20
0
 30
0
  3
*Model_Space
  1

  0
ENDBLK
  5
21
330
1F
100
AcDbEntity
  8
0
100
AcDbBlockEnd
  0
BLOCK
  5
1C
330
1B
100
AcDbEntity
  8
0
100
AcDbBlockBegin
  2
*Paper_Space
 70
    0
 10
0
 20
0
 30
0
  3
*Paper_Space
  1

  0
ENDBLK
  5
1D
330
1F
100
AcDbEntity
  8
0
100
AcDbBlockEnd
  0
ENDSEC
  0
SECTION
  2
ENTITIES
  0
LWPOLYLINE
  5
3F
100
AcDbEntity
  8
s005-#def-solid-edge
  6
CONTINUOUS
 62
  256
420
    0
370
    5
100
AcDbPolyline
 90
    4
 70
    0
 43
0
 10
25.03525153112906
 20
12.65894099237712
 10
23.88392130189546
 20
9.921339919142792
 10
21.22924683397056
 20
7.80928780385753
 10
12.45579762068866
 20
3.028027016506599
  0
LWPOLYLINE
  5
40
100
AcDbEntity
  8
s005-#def-solid-edge
  6
CONTINUOUS
 62
  256
420
    0
370
    5
100
AcDbPolyline
 90
    9
 70
    0
 43
0
 10
21.28760405576626
 20
12.71053907439731
 10
20.72273603809
 20
14.61131500207953
 10
19.0745259440994
 20
16.11117164614552
 10
16.57931753474916
 20
17.1494401811642
 10
13.32813263469262
 20
17.58625578265229
 10
10.03000252679394
 20
17.2396119743166
 10
7.414583393466402
 20
16.27170720239339
 10
5.589494696768036
 20
14.81967137313477
 10
5.496066397357831
 20
14.59752015542706
  0
LWPOLYLINE
  5
41
100
AcDbEntity
  8
s00e-#def-invisible
  6
DASHED
 62
  256
420
    0
370
    5
100
AcDbPolyline
 90
    9
 70
    0
 43
0
 10
25.11136955122789
 20
4.494329996519275
 10
24.28974334404531
 20
7.259094981731007
 10
21.89234684334883
 20
9.440704646334837
 10
18.2629527925276
 20
10.95091342477336
 10
13.53395657512079
 20
11.58628157216288
 10
8.736676419060556
 20
11.08207239660744
 10
4.932430406064462
 20
9.674210909968112
 10
-3.841018807217438
 20
4.892950122617172
 10
12.53191564078749
 20
-5.136583979351258
  0
LWPOLYLINE
  5
42
100
AcDbEntity
  8
s00e-#def-invisible
  6
DASHED
 62
  256
420
    0
370
    5
100
AcDbPolyline
 90
   16
 70
    0
 43
0
 10
12.3971772290187
 20
9.315798214293414
 10
10.10612054689277
 20
9.075000978458755
 10
7.490701413565233
 20
8.107096206535545
 10
5.665612716587223
 20
6.655060376934907
 10
4.874073184268763
 20
4.772959639428326
 10
5.438941201706784
 20
2.872183712095261
 10
7.08715129593562
 20
1.372327067680129
 10
9.582359705875209
 20
0.3340585325036436
 10
12.8335446053424
 20
-0.1027570688266497
 10
16.13167471263381
 20
0.24388673936771
 10
18.74709384656862
 20
1.211791511432249
 10
20.57218254354662
 20
2.663827341032885
 10
21.36372207586509
 20
4.54592807853947
 10
20.79885405842706
 20
6.446704005872535
 10
19.15064396419823
 20
7.946560650287671
 10
17.10613372654593
 20
8.797291451428229
  0
LWPOLYLINE
  5
43
100
AcDbEntity
  8
s005-#def-solid-edge
  6
CONTINUOUS
 62
  256
420
    0
370
    5
100
AcDbPolyline
 90
    5
 70
    0
 43
0
 10
8.655006496175416
 20
-1.695688089363959
 10
9.203813175757361
 20
-2.847251276678929
 10
8.681918280266611
 20
-4.58231398982463
 10
7.395040761348343
 20
-5.884500023008169
 10
6.097016016471862
 20
-5.991006458723465
  0
LWPOLYLINE
  5
44
100
AcDbEntity
  8
s005-#def-solid-edge
  6
CONTINUOUS
 62
  256
420
    0
370
    5
100
AcDbPolyline
 90
    4
 70
    0
 43
0
 10
12.3872914025997
 20
10.37617691277866
 10
2.151600653770824
 20
4.7980393275359
 10
-2.623838560230617
 20
7.723320107276682
 10
-2.410708103953876
 20
-15.13759068112529
  0
LWPOLYLINE
  5
45
100
AcDbEntity
  8
s00e-#def-invisible
  6
DASHED
 62
  256
420
    0
370
    5
100
AcDbPolyline
 90
    3
 70
    0
 43
0
 10
-3.985643045405222
 20
20.40571101474708
 10
-3.91713682731627
 20
13.05756111847502
 10
12.45579762068866
 20
3.028027016506599
  0
LWPOLYLINE
  5
46
100
AcDbEntity
  8
s00e-#def-invisible
  6
DASHED
 62
  256
420
    0
370
    5
100
AcDbPolyline
 90
    6
 70
    0
 43
0
 10
5.496066397357831
 20
14.59752015542706
 10
4.797955164169933
 20
12.93757063528617
 10
5.362823181846181
 20
11.03679470760396
 10
7.011033275836788
 20
9.536938063537974
 10
9.506241685187028
 20
8.49866952851929
 10
12.40843050353743
 20
8.108743580506392
  0
LWPOLYLINE
  5
47
100
AcDbEntity
  8
s00e-#def-invisible
  6
DASHED
 62
  256
420
    0
370
    5
100
AcDbPolyline
 90
    3
 70
    0
 43
0
 10
-3.841018807217438
 20
4.892950122617172
 10
-3.772512589128485
 20
-2.45519977365489
 10
12.60042185887644
 20
-12.48473387562332
  0
LWPOLYLINE
  5
48
100
AcDbEntity
  8
s00e-#def-invisible
  6
DASHED
 62
  256
420
    0
370
    5
100
AcDbPolyline
 90
    7
 70
    0
 43
0
 10
-3.772512589128485
 20
-2.45519977365489
 10
-14.00820333795736
 20
-8.033337358897647
 10
-9.232764123955924
 20
-10.95861813863844
 10
-16.54397180169084
 20
-14.94300212809756
 10
-18.95119172219879
 20
-15.93344280831492
 10
-21.29428116618953
 20
-16.22673847226024
 10
-23.36188292534575
 20
-15.7657713810457
  0
LWPOLYLINE
  5
49
100
AcDbEntity
  8
s005-#def-solid-edge
  6
CONTINUOUS
 62
  256
420
    0
370
    5
100
AcDbPolyline
 90
    9
 70
    0
 43
0
 10
-5.735696242301458
 20
-0.8190098854082279
 10
-4.412595629911131
 20
-2.323532289547011
 10
-3.979514867639232
 20
-4.504012084816125
 10
-4.367765805110004
 20
-7.132092470676561
 10
-5.649578533209652
 20
-10.05621276688236
 10
-7.618888600382672
 20
-12.59130257139206
 10
-9.767586593748092
 20
-14.22320807306969
 10
-18.16752469906771
 20
-18.80091676013189
 10
-16.5398269053437
 20
-19.94474392353254
  0
LWPOLYLINE
  5
4A
100
AcDbEntity
  8
s005-#def-solid-edge
  6
CONTINUOUS
 62
  256
420
    0
370
    5
100
AcDbPolyline
 90
    6
 70
    0
 43
0
 10
-2.623838560230617
 20
7.723320107276682
 10
-9.935046237965533
 20
3.738936117817572
 10
-12.33630330100002
 20
2.108904291795874
 10
-14.66114510378858
 20
-0.1416794337342182
 10
-16.69929164436279
 20
-2.840153447370504
 10
-18.28931353122585
 20
-5.737539166759337
  0
LWPOLYLINE
  5
4B
100
AcDbEntity
  8
s00e-#def-invisible
  6
DASHED
 62
  256
420
    0
370
    5
100
AcDbPolyline
 90
    7
 70
    0
 43
0
 10
-11.01556470739813
 20
-1.773569104020685
 10
-10.80157088764129
 20
-0.3250395423292822
 10
-11.23465165008791
 20
1.85544025332727
 10
-12.55775226230351
 20
3.359962657078615
 10
-14.55418245172188
 20
3.733845629393453
 10
-16.71143144590828
 20
3.019142062789705
 10
-25.11136955122789
 20
-1.558566624272491
  0
LWPOLYLINE
  5
4C
100
AcDbEntity
  8
s00f-#def-silhouette
  6
CONTINUOUS
 62
  256
420
    0
370
   25
100
AcDbPolyline
 90
   26
 70
    0
 43
0
 10
-11.01556470739813
 20
-1.773569104020685
 10
-11.18982182511206
 20
-2.953119928189715
 10
-12.4716345532117
 20
-5.877240224395525
 10
-14.44094462081298
 20
-8.412330029329674
 10
-16.58964261375015
 20
-10.04423553058285
 10
-24.98958071906976
 20
-14.62194421764504
 10
-23.36188292534575
 20
-15.7657713810457
 10
-16.5398269053437
 20
-19.94474392353254
 10
-14.47222514618748
 20
-20.40571101474708
 10
-12.12913570219673
 20
-20.11241535080178
 10
-9.721915781688789
 20
-19.1219746705844
 10
-2.410708103953876
 20
-15.13759068112529
 10
2.364731110047558
 20
-18.06287146086608
 10
12.60042185887644
 20
-12.48473387562332
 10
12.53191564078749
 20
-5.136583979351258
 10
21.30536485406939
 20
-0.3553231920003199
 10
23.96003932199429
 20
1.756728923284939
 10
25.11136955122789
 20
4.494329996519275
 10
25.03525153112906
 20
12.65894099237712
 10
24.21362532394648
 20
15.42370597758885
 10
21.81622882324999
 20
17.60531564219268
 10
18.18683477328602
 20
19.11552442040167
 10
13.45783855502195
 20
19.75089256802072
 10
8.660558398961726
 20
19.24668339246529
 10
4.856312385965627
 20
17.83882190582596
 10
2.394699155633631
 20
16.49731817956139
  0
LWPOLYLINE
  5
4D
100
AcDbEntity
  8
s00f-#def-silhouette
  6
CONTINUOUS
 62
  256
420
    0
370
   25
100
AcDbPolyline
 90
    6
 70
    0
 43
0
 10
21.28760405576626
 20
12.71053907439731
 10
20.4960645234478
 20
10.82843833689073
 10
18.67097582646979
 20
9.376402507290095
 10
16.05555669314225
 20
8.408497735366883
 10
12.75742658524357
 20
8.061853927031192
 10
12.40843050353743
 20
8.108743580506392
  0
LWPOLYLINE
  5
4E
100
AcDbEntity
  8
s00f-#def-silhouette
  6
CONTINUOUS
 62
  256
420
    0
370
   25
100
AcDbPolyline
 90
    4
 70
    0
 43
0
 10
17.10613372654593
 20
8.797291451428229
 10
16.65543555484799
 20
8.984829185306344
 10
13.40425065479145
 20
9.421644786794445
 10
12.3971772290187
 20
9.315798214293414
  0
LWPOLYLINE
  5
4F
100
AcDbEntity
  8
s00f-#def-silhouette
  6
CONTINUOUS
 62
  256
420
    0
370
   25
100
AcDbPolyline
 90
    5
 70
    0
 43
0
 10
12.45579762068866
 20
3.028027016506599
 10
12.3872914025997
 20
10.37617691277866
 10
-3.985643045405222
 20
20.40571101474708
 10
-14.22133379423411
 20
14.82757342950432
 10
-14.17005954123062
 20
9.327767610420718
  0
LWPOLYLINE
  5
50
100
AcDbEntity
  8
s00f-#def-silhouette
  6
CONTINUOUS
 62
  256
420
    0
370
   25
100
AcDbPolyline
 90
    5
 70
    0
 43
0
 10
6.097016016471862
 20
-5.991006458723465
 10
5.548209336889901
 20
-4.839443271408491
 10
6.070104232380652
 20
-3.104380558262804
 10
7.356981751298925
 20
-1.802194525079251
 10
8.655006496175416
 20
-1.695688089363959
  0
LWPOLYLINE
  5
51
100
AcDbEntity
  8
s00e-#def-invisible
  6
DASHED
 62
  256
420
    0
370
    5
100
AcDbPolyline
 90
   10
 70
    0
 43
0
 10
8.655006496175416
 20
-1.695688089363959
 10
-7.717927951829513
 20
8.333846012604468
 10
-7.169121272247566
 20
7.1822828252895
 10
-7.691016167738322
 20
5.447220112143802
 10
-8.977893686656586
 20
4.14503407896026
 10
-10.27591843153308
 20
4.038527643244978
 10
-10.82472511111503
 20
5.190090830559942
 10
-10.30283021562427
 20
6.925153543705644
 10
-9.015952696706002
 20
8.227339576889184
 10
-7.717927951829513
 20
8.333846012604468
  0
LWPOLYLINE
  5
52
100
AcDbEntity
  8
s00f-#def-silhouette
  6
CONTINUOUS
 62
  256
420
    0
370
   25
100
AcDbPolyline
 90
   10
 70
    0
 43
0
 10
-5.735696242301458
 20
-0.8190098854082279
 10
-7.73212643171982
 20
-0.4451269130933966
 10
-9.889375425906227
 20
-1.159830479697135
 10
-18.28931353122585
 20
-5.737539166759337
 10
-25.11136955122789
 20
-1.558566624272491
 10
-23.52134766436483
 20
1.338819095116341
 10
-21.48320112379064
 20
4.037293108752625
 10
-19.15835932100206
 20
6.287876834282715
 10
-16.75710225796759
 20
7.917908660304412
 10
-9.445894580232672
 20
11.90229264976353
  0
LINE
  5
53
100
AcDbEntity
  8
s00e-#def-invisible
  6
DASHED
 62
  256
420
    0
370
    5
100
AcDbLine
 10
21.36372207586509
 20
4.54592807853947
 11
21.28760405576626
 21
12.71053907439731
  0
LINE
  5
54
100
AcDbEntity
  8
s00e-#def-invisible
  6
DASHED
 62
  256
420
    0
370
    5
100
AcDbLine
 10
-3.91713682731627
 20
13.05756111847502
 11
2.394699155633631
 21
16.49731817956139
  0
LINE
  5
55
100
AcDbEntity
  8
s005-#def-solid-edge
  6
CONTINUOUS
 62
  256
420
    0
370
    5
100
AcDbLine
 10
2.364731110047558
 20
-18.06287146086608
 11
2.151600653770824
 21
4.7980393275359
  0
LINE
  5
56
100
AcDbEntity
  8
s00e-#def-invisible
  6
DASHED
 62
  256
420
    0
370
    5
100
AcDbLine
 10
-12.55775226230351
 20
3.359962657078615
 11
-5.735696242301458
 21
-0.8190098854082279
  0
LINE
  5
57
100
AcDbEntity
  8
s005-#def-solid-edge
  6
CONTINUOUS
 62
  256
420
    0
370
    5
100
AcDbLine
 10
-14.22133379423411
 20
14.82757342950432
 11
-9.445894580232672
 21
11.90229264976353
  0
LINE
  5
58
100
AcDbEntity
  8
s00e-#def-invisible
  6
DASHED
 62
  256
420
    0
370
    5
100
AcDbLine
 10
-14.17005954123062
 20
9.327767610420718
 11
-14.05113979630919
 21
-3.42786444292771
  0
LINE
  5
59
100
AcDbEntity
  8
s00e-#def-invisible
  6
DASHED
 62
  256
420
    0
370
    5
100
AcDbLine
 10
-14.00984382440779
 20
-7.857374640815412
 11
-14.00820333795736
 21
-8.033337358897647
  0
LINE
  5
5A
100
AcDbEntity
  8
s00e-#def-invisible
  6
DASHED
 62
  256
420
    0
370
    5
100
AcDbLine
 10
-9.445894580232672
 20
11.90229264976353
 11
-9.232764123955924
 21
-10.95861813863844
  0
LINE
  5
5B
100
AcDbEntity
  8
s005-#def-solid-edge
  6
CONTINUOUS
 62
  256
420
    0
370
    5
100
AcDbLine
 10
-24.98958071906976
 20
-14.62194421764504
 11
-18.16752469906771
 21
-18.80091676013189
  0
LINE
  5
5C
100
AcDbEntity
  8
s00e-#def-invisible
  6
DASHED
 62
  256
420
    0
370
    5
100
AcDbLine
 10
6.097016016471862
 20
-5.991006458723465
 11
-10.27591843153308
 21
4.038527643244978
  0
LINE
  5
5D
100
AcDbEntity
  8
s00e-#def-invisible
  6
DASHED
 62
  256
420
    0
370
    5
100
AcDbLine
 10
4.874073184268763
 20
4.772959639428326
 11
4.797955164169933
 21
12.93757063528617
  0
LINE
  5
5E
100
AcDbEntity
  8
s00f-#def-silhouette
  6
CONTINUOUS
 62
  256
420
    0
370
   25
100
AcDbLine
 10
-14.00984382440779
 20
-7.857374640815412
 11
-14.05113979630919
 21
-3.42786444292771
  0
DIMENSION
  5
5F
100
AcDbEntity
  8
dimensions
  6
BYLAYER
 62
  256
370
   -1
100
AcDbDimension
 10
6.440534130335298
 20
-3.918569081931803
 30
36.55386629397977
 11
6.440534130335298
 21
-3.918569081931803
 31
36.55386629397977
 70
   33
  1
28.00
 71
    5
  3
STANDARD
 53
0
210
0
220
0
230
1
100
AcDbAlignedDimension
 13
2.364731110047558
 23
-18.06287146086608
 33
31.40168208902121
 14
2.151600653770821
 24
4.798039327535896
 34
47.56748962633073
  0
DIMENSION
  5
60
100
AcDbEntity
  8
dimensions
  6
BYLAYER
 62
  256
370
   -1
100
AcDbDimension
 10
-1.395995430267359
 20
11.89896867423052
 30
37.47534536894727
 11
-1.395995430267359
 21
11.89896867423052
 31
37.47534536894727
 70
   33
  1
24.00
 71
    5
  3
STANDARD
 53
0
210
0
220
0
230
1
100
AcDbAlignedDimension
 13
2.151600653770821
 23
4.798039327535896
 33
47.56748962633073
 14
-14.22133379423411
 24
14.82757342950433
 34
33.16834162171649
  0
DIMENSION
  5
61
100
AcDbEntity
  8
dimensions
  6
BYLAYER
 62
  256
370
   -1
100
AcDbDimension
 10
16.64139077480485
 20
1.129633511579229
 30
28.69863218670602
 11
16.64139077480485
 21
1.129633511579229
 31
28.69863218670602
 70
   33
  1
10.00
 71
    5
  3
STANDARD
 53
0
210
0
220
0
230
1
100
AcDbAlignedDimension
 13
21.30536485406939
 23
-0.3553231920003181
 33
22.19868650711361
 14
21.22924683397056
 24
7.809287803857528
 34
27.97218919900986
  0
DIMENSION
  5
62
100
AcDbEntity
  8
dimensions
  6
BYLAYER
 62
  256
370
   -1
100
AcDbDimension
 10
-10.27225590100517
 20
6.905775251153134
 30
44.48973720267375
 11
-10.27225590100517
 21
6.905775251153134
 31
44.48973720267375
 70
   33
  1
10.00
 71
    5
  3
STANDARD
 53
0
210
0
220
0
230
1
100
AcDbAlignedDimension
 13
-9.445894580232668
 23
11.90229264976353
 33
37.36809312306232
 14
-2.623838560230617
 24
7.723320107276688
 34
43.36773812498491
  0
DIMENSION
  5
63
100
AcDbEntity
  8
dimensions
  6
BYLAYER
 62
  256
370
   -1
100
AcDbDimension
 10
7.316417176942313
 20
-20.58274440801833
 30
24.00474687198067
 11
7.316417176942313
 21
-20.58274440801833
 31
24.00474687198067
 70
   33
  1
14.00
 71
    5
  3
STANDARD
 53
0
210
0
220
0
230
1
100
AcDbAlignedDimension
 13
2.364731110047558
 23
-18.06287146086608
 33
31.40168208902121
 14
12.60042185887644
 24
-12.48473387562332
 34
23.64829470192123
  0
DIMENSION
  5
64
100
AcDbEntity
  8
dimensions
  6
BYLAYER
 62
  256
370
   -1
100
AcDbDimension
 10
7.800194548524976
 20
16.46926812400612
 30
15.54861078477492
 11
-2.811907607302427
 21
23.84795156715119
 31
4.974119797572715
 70
   35
  1
  16.50
 71
    5
  3
STANDARD
 53
0
210
0
220
0
230
1
100
AcDbDiametricDimension
 15
18.28536467141121
 25
9.178841585677359
 35
25.99661960863057
 40
0
  0
DIMENSION
  5
65
100
AcDbEntity
  8
dimensions
  6
BYLAYER
 62
  256
370
   -1
100
AcDbDimension
 10
8.748629363746547
 20
-1.756625546608753
 30
35.5005983459183
 11
10.57943931219091
 21
1.026662009895722
 31
35.35748891969194
 70
   35
  1
  5.00
 71
    5
  3
STANDARD
 53
0
210
0
220
0
230
1
100
AcDbDiametricDimension
 15
6.003393148900711
 25
-5.930069001478671
 35
35.71518598233367
 40
0
  0
ENDSEC
  0
SECTION
  2
OBJECTS
  0
DICTIONARY
  5
C
330
0
100
AcDbDictionary
281
    1
  3
ACAD_GROUP
350
D
  0
DICTIONARY
  5
D
330
C
100
AcDbDictionary
281
    1
  0
ENDSEC
  0
EOF
