  999
file created by SolveSpace
  0
SECTION
  2
HEADER
  9
$ACADVER
  1
AC1006
  9
$ANGDIR
  70
0
  9
$AUNITS
  70
0
  9
$AUPREC
  70
0
  9
$INSBASE
  10
0.0
  20
0.0
  30
0.0
  9
$EXTMIN
  10
0.0
  20
0.0
  9
$EXTMAX
  10
10000.0
  20
10000.0
  0
ENDSEC
  0
SECTION
  2
ENTITIES
  0
LINE
  8
0
  10
16.777334
  20
4.607668
  30
0.000000
  11
16.437815
  21
3.191797
  31
0.000000
  0
LINE
  8
0
  10
16.437815
  20
3.191797
  30
0.000000
  11
16.777334
  21
4.607668
  31
0.000000
  0
LINE
  8
0
  10
13.029686
  20
4.659266
  30
0.000000
  11
12.238147
  21
2.777166
  31
0.000000
  0
LINE
  8
0
  10
12.238147
  20
2.777166
  30
0.000000
  11
10.413058
  21
1.325130
  31
0.000000
  0
LINE
  8
0
  10
10.413058
  20
1.325130
  30
0.000000
  11
12.238147
  21
2.777166
  31
0.000000
  0
LINE
  8
0
  10
12.238147
  20
2.777166
  30
0.000000
  11
13.029686
  21
4.659266
  31
0.000000
  0
LINE
  8
0
  10
16.513933
  20
-4.972814
  30
0.000000
  11
16.853452
  21
-3.556943
  31
0.000000
  0
LINE
  8
0
  10
16.853452
  20
-3.556943
  30
0.000000
  11
16.513933
  21
-4.972814
  31
0.000000
  0
LINE
  8
0
  10
16.777334
  20
4.607668
  30
0.000000
  11
16.607914
  21
6.030546
  31
0.000000
  0
LINE
  8
0
  10
16.607914
  20
6.030546
  30
0.000000
  11
16.777334
  21
4.607668
  31
0.000000
  0
LINE
  8
0
  10
16.437815
  20
3.191797
  30
0.000000
  11
15.626004
  21
1.870067
  31
0.000000
  0
LINE
  8
0
  10
15.626004
  20
1.870067
  30
0.000000
  11
16.437815
  21
3.191797
  31
0.000000
  0
LINE
  8
0
  10
12.464818
  20
6.560042
  30
0.000000
  11
13.029686
  21
4.659266
  31
0.000000
  0
LINE
  8
0
  10
13.029686
  20
4.659266
  30
0.000000
  11
12.464818
  21
6.560042
  31
0.000000
  0
LINE
  8
0
  10
14.901476
  20
8.561719
  30
0.000000
  11
13.558311
  21
9.554043
  31
0.000000
  0
LINE
  8
0
  10
13.558311
  20
9.554043
  30
0.000000
  11
14.901476
  21
8.561719
  31
0.000000
  0
LINE
  8
0
  10
10.816608
  20
8.059899
  30
0.000000
  11
12.464818
  21
6.560042
  31
0.000000
  0
LINE
  8
0
  10
12.464818
  20
6.560042
  30
0.000000
  11
10.816608
  21
8.059899
  31
0.000000
  0
LINE
  8
0
  10
15.702122
  20
-6.294544
  30
0.000000
  11
16.513933
  21
-4.972814
  31
0.000000
  0
LINE
  8
0
  10
16.513933
  20
-4.972814
  30
0.000000
  11
15.702122
  21
-6.294544
  31
0.000000
  0
LINE
  8
0
  10
14.507221
  20
-7.452864
  30
0.000000
  11
15.702122
  21
-6.294544
  31
0.000000
  0
LINE
  8
0
  10
15.702122
  20
-6.294544
  30
0.000000
  11
14.507221
  21
-7.452864
  31
0.000000
  0
LINE
  8
0
  10
13.047447
  20
-8.406596
  30
0.000000
  11
14.507221
  21
-7.452864
  31
0.000000
  0
LINE
  8
0
  10
14.507221
  20
-7.452864
  30
0.000000
  11
13.047447
  21
-8.406596
  31
0.000000
  0
LINE
  8
0
  10
12.971329
  20
-0.241985
  30
0.000000
  11
13.047447
  21
-8.406596
  31
0.000000
  0
LINE
  8
0
  10
13.047447
  20
-8.406596
  30
0.000000
  11
4.273998
  21
-13.187857
  31
0.000000
  0
LINE
  8
0
  10
4.273998
  20
-13.187857
  30
0.000000
  11
13.047447
  21
-8.406596
  31
0.000000
  0
LINE
  8
0
  10
13.047447
  20
-8.406596
  30
0.000000
  11
12.971329
  21
-0.241985
  31
0.000000
  0
LINE
  8
0
  10
10.413058
  20
1.325130
  30
0.000000
  11
7.797639
  21
0.357225
  31
0.000000
  0
LINE
  8
0
  10
7.797639
  20
0.357225
  30
0.000000
  11
10.413058
  21
1.325130
  31
0.000000
  0
LINE
  8
0
  10
4.499509
  20
0.010581
  30
0.000000
  11
7.797639
  21
0.357225
  31
0.000000
  0
LINE
  8
0
  10
7.797639
  20
0.357225
  30
0.000000
  11
4.499509
  21
0.010581
  31
0.000000
  0
LINE
  8
0
  10
13.558311
  20
9.554043
  30
0.000000
  11
11.922207
  21
10.386724
  31
0.000000
  0
LINE
  8
0
  10
11.922207
  20
10.386724
  30
0.000000
  11
13.558311
  21
9.554043
  31
0.000000
  0
LINE
  8
0
  10
11.922207
  20
10.386724
  30
0.000000
  11
9.928917
  21
11.064252
  31
0.000000
  0
LINE
  8
0
  10
9.928917
  20
11.064252
  30
0.000000
  11
11.922207
  21
10.386724
  31
0.000000
  0
LINE
  8
0
  10
8.321400
  20
9.098167
  30
0.000000
  11
10.816608
  21
8.059899
  31
0.000000
  0
LINE
  8
0
  10
10.816608
  20
8.059899
  30
0.000000
  11
8.321400
  21
9.098167
  31
0.000000
  0
LINE
  8
0
  10
8.848216
  20
0.746019
  30
0.000000
  11
8.397518
  21
0.933556
  31
0.000000
  0
LINE
  8
0
  10
8.397518
  20
0.933556
  30
0.000000
  11
8.848216
  21
0.746019
  31
0.000000
  0
LINE
  8
0
  10
9.928917
  20
11.064252
  30
0.000000
  11
7.648485
  21
11.518805
  31
0.000000
  0
LINE
  8
0
  10
7.648485
  20
11.518805
  30
0.000000
  11
9.928917
  21
11.064252
  31
0.000000
  0
LINE
  8
0
  10
5.070215
  20
9.534983
  30
0.000000
  11
8.321400
  21
9.098167
  31
0.000000
  0
LINE
  8
0
  10
8.321400
  20
9.098167
  30
0.000000
  11
5.070215
  21
9.534983
  31
0.000000
  0
LINE
  8
0
  10
5.146333
  20
1.370372
  30
0.000000
  11
8.397518
  21
0.933556
  31
0.000000
  0
LINE
  8
0
  10
8.397518
  20
0.933556
  30
0.000000
  11
5.146333
  21
1.370372
  31
0.000000
  0
LINE
  8
0
  10
1.772085
  20
9.188339
  30
0.000000
  11
5.070215
  21
9.534983
  31
0.000000
  0
LINE
  8
0
  10
5.070215
  20
9.534983
  30
0.000000
  11
1.772085
  21
9.188339
  31
0.000000
  0
LINE
  8
0
  10
5.199921
  20
11.699620
  30
0.000000
  11
7.648485
  21
11.518805
  31
0.000000
  0
LINE
  8
0
  10
7.648485
  20
11.518805
  30
0.000000
  11
5.199921
  21
11.699620
  31
0.000000
  0
LINE
  8
0
  10
5.146333
  20
1.370372
  30
0.000000
  11
4.139259
  21
1.264525
  31
0.000000
  0
LINE
  8
0
  10
4.139259
  20
1.264525
  30
0.000000
  11
5.146333
  21
1.370372
  31
0.000000
  0
LINE
  8
0
  10
4.129374
  20
2.324904
  30
0.000000
  11
-6.106317
  21
-3.253233
  31
0.000000
  0
LINE
  8
0
  10
-6.106317
  20
-3.253233
  30
0.000000
  11
-10.881756
  21
-0.327953
  31
0.000000
  0
LINE
  8
0
  10
-10.881756
  20
-0.327953
  30
0.000000
  11
-10.668626
  21
-23.188864
  31
0.000000
  0
LINE
  8
0
  10
-10.668626
  20
-23.188864
  30
0.000000
  11
-5.893187
  21
-26.114144
  31
0.000000
  0
LINE
  8
0
  10
-5.893187
  20
-26.114144
  30
0.000000
  11
4.342504
  21
-20.536007
  31
0.000000
  0
LINE
  8
0
  10
4.342504
  20
-20.536007
  30
0.000000
  11
4.273998
  21
-13.187857
  31
0.000000
  0
LINE
  8
0
  10
4.273998
  20
-13.187857
  30
0.000000
  11
4.342504
  21
-20.536007
  31
0.000000
  0
LINE
  8
0
  10
4.342504
  20
-20.536007
  30
0.000000
  11
-5.893187
  21
-26.114144
  31
0.000000
  0
LINE
  8
0
  10
-5.893187
  20
-26.114144
  30
0.000000
  11
-6.106317
  21
-3.253233
  31
0.000000
  0
LINE
  8
0
  10
-6.106317
  20
-3.253233
  30
0.000000
  11
4.129374
  21
2.324904
  31
0.000000
  0
LINE
  8
0
  10
4.150513
  20
0.057471
  30
0.000000
  11
4.499509
  21
0.010581
  31
0.000000
  0
LINE
  8
0
  10
4.499509
  20
0.010581
  30
0.000000
  11
4.150513
  21
0.057471
  31
0.000000
  0
LINE
  8
0
  10
4.197880
  20
-5.023246
  30
0.000000
  11
4.129374
  21
2.324904
  31
0.000000
  0
LINE
  8
0
  10
4.129374
  20
2.324904
  30
0.000000
  11
-12.243561
  21
12.354438
  31
0.000000
  0
LINE
  8
0
  10
-12.243561
  20
12.354438
  30
0.000000
  11
4.129374
  21
2.324904
  31
0.000000
  0
LINE
  8
0
  10
4.129374
  20
2.324904
  30
0.000000
  11
4.197880
  21
-5.023246
  31
0.000000
  0
LINE
  8
0
  10
-5.863219
  20
8.446045
  30
0.000000
  11
-3.401605
  21
9.787549
  31
0.000000
  0
LINE
  8
0
  10
-3.401605
  20
9.787549
  30
0.000000
  11
-5.863219
  21
8.446045
  31
0.000000
  0
LINE
  8
0
  10
-2.668423
  20
6.768399
  30
0.000000
  11
-2.761851
  21
6.546247
  31
0.000000
  0
LINE
  8
0
  10
-2.761851
  20
6.546247
  30
0.000000
  11
-2.668423
  21
6.768399
  31
0.000000
  0
LINE
  8
0
  10
-1.668492
  20
10.573842
  30
0.000000
  11
-3.401605
  21
9.787549
  31
0.000000
  0
LINE
  8
0
  10
-3.401605
  20
9.787549
  30
0.000000
  11
-1.668492
  21
10.573842
  31
0.000000
  0
LINE
  8
0
  10
-0.843334
  20
8.220434
  30
0.000000
  11
1.772085
  21
9.188339
  31
0.000000
  0
LINE
  8
0
  10
1.772085
  20
9.188339
  30
0.000000
  11
-0.843334
  21
8.220434
  31
0.000000
  0
LINE
  8
0
  10
5.199921
  20
11.699620
  30
0.000000
  11
2.733742
  21
11.586472
  31
0.000000
  0
LINE
  8
0
  10
2.733742
  20
11.586472
  30
0.000000
  11
5.199921
  21
11.699620
  31
0.000000
  0
LINE
  8
0
  10
-2.668423
  20
6.768399
  30
0.000000
  11
-0.843334
  21
8.220434
  31
0.000000
  0
LINE
  8
0
  10
-0.843334
  20
8.220434
  30
0.000000
  11
-2.668423
  21
6.768399
  31
0.000000
  0
LINE
  8
0
  10
2.733742
  20
11.586472
  30
0.000000
  11
0.402641
  21
11.195411
  31
0.000000
  0
LINE
  8
0
  10
0.402641
  20
11.195411
  30
0.000000
  11
2.733742
  21
11.586472
  31
0.000000
  0
LINE
  8
0
  10
-1.668492
  20
10.573842
  30
0.000000
  11
0.402641
  21
11.195411
  31
0.000000
  0
LINE
  8
0
  10
0.402641
  20
11.195411
  30
0.000000
  11
-1.668492
  21
10.573842
  31
0.000000
  0
LINE
  8
0
  10
-12.670513
  20
-10.374805
  30
0.000000
  11
-12.237433
  21
-12.555285
  31
0.000000
  0
LINE
  8
0
  10
-12.237433
  20
-12.555285
  30
0.000000
  11
-12.670513
  21
-10.374805
  31
0.000000
  0
LINE
  8
0
  10
-13.993614
  20
-8.870283
  30
0.000000
  11
-12.670513
  21
-10.374805
  31
0.000000
  0
LINE
  8
0
  10
-12.670513
  20
-10.374805
  30
0.000000
  11
-13.993614
  21
-8.870283
  31
0.000000
  0
LINE
  8
0
  10
-22.267762
  20
-15.908647
  30
0.000000
  11
-22.309058
  21
-11.479137
  31
0.000000
  0
LINE
  8
0
  10
-22.309058
  20
-11.479137
  30
0.000000
  11
-22.267762
  21
-15.908647
  31
0.000000
  0
LINE
  8
0
  10
-19.273483
  20
-9.824842
  30
0.000000
  11
-19.447740
  21
-11.004393
  31
0.000000
  0
LINE
  8
0
  10
-19.447740
  20
-11.004393
  30
0.000000
  11
-19.273483
  21
-9.824842
  31
0.000000
  0
LINE
  8
0
  10
-18.192964
  20
-4.312337
  30
0.000000
  11
-20.594221
  21
-5.942369
  31
0.000000
  0
LINE
  8
0
  10
-20.594221
  20
-5.942369
  30
0.000000
  11
-18.192964
  21
-4.312337
  31
0.000000
  0
LINE
  8
0
  10
-13.993614
  20
-8.870283
  30
0.000000
  11
-15.990044
  21
-8.496400
  31
0.000000
  0
LINE
  8
0
  10
-15.990044
  20
-8.496400
  30
0.000000
  11
-13.993614
  21
-8.870283
  31
0.000000
  0
LINE
  8
0
  10
-33.369287
  20
-9.609839
  30
0.000000
  11
-31.779265
  21
-6.712454
  31
0.000000
  0
LINE
  8
0
  10
-31.779265
  20
-6.712454
  30
0.000000
  11
-29.741119
  21
-4.013980
  31
0.000000
  0
LINE
  8
0
  10
-29.741119
  20
-4.013980
  30
0.000000
  11
-31.779265
  21
-6.712454
  31
0.000000
  0
LINE
  8
0
  10
-31.779265
  20
-6.712454
  30
0.000000
  11
-33.369287
  21
-9.609839
  31
0.000000
  0
LINE
  8
0
  10
-22.919063
  20
-8.192952
  30
0.000000
  11
-20.594221
  21
-5.942369
  31
0.000000
  0
LINE
  8
0
  10
-20.594221
  20
-5.942369
  30
0.000000
  11
-22.919063
  21
-8.192952
  31
0.000000
  0
LINE
  8
0
  10
-15.990044
  20
-8.496400
  30
0.000000
  11
-18.147293
  21
-9.211103
  31
0.000000
  0
LINE
  8
0
  10
-18.147293
  20
-9.211103
  30
0.000000
  11
-26.547231
  21
-13.788812
  31
0.000000
  0
LINE
  8
0
  10
-26.547231
  20
-13.788812
  30
0.000000
  11
-33.369287
  21
-9.609839
  31
0.000000
  0
LINE
  8
0
  10
-33.369287
  20
-9.609839
  30
0.000000
  11
-26.547231
  21
-13.788812
  31
0.000000
  0
LINE
  8
0
  10
-26.547231
  20
-13.788812
  30
0.000000
  11
-18.147293
  21
-9.211103
  31
0.000000
  0
LINE
  8
0
  10
-18.147293
  20
-9.211103
  30
0.000000
  11
-15.990044
  21
-8.496400
  31
0.000000
  0
LINE
  8
0
  10
-24.957209
  20
-10.891426
  30
0.000000
  11
-26.547231
  21
-13.788812
  31
0.000000
  0
LINE
  8
0
  10
-26.547231
  20
-13.788812
  30
0.000000
  11
-24.957209
  21
-10.891426
  31
0.000000
  0
LINE
  8
0
  10
-22.919063
  20
-8.192952
  30
0.000000
  11
-24.957209
  21
-10.891426
  31
0.000000
  0
LINE
  8
0
  10
-24.957209
  20
-10.891426
  30
0.000000
  11
-22.919063
  21
-8.192952
  31
0.000000
  0
LINE
  8
0
  10
-12.237433
  20
-12.555285
  30
0.000000
  11
-12.625684
  21
-15.183365
  31
0.000000
  0
LINE
  8
0
  10
-12.625684
  20
-15.183365
  30
0.000000
  11
-13.907496
  21
-18.107486
  31
0.000000
  0
LINE
  8
0
  10
-13.907496
  20
-18.107486
  30
0.000000
  11
-12.625684
  21
-15.183365
  31
0.000000
  0
LINE
  8
0
  10
-12.625684
  20
-15.183365
  30
0.000000
  11
-12.237433
  21
-12.555285
  31
0.000000
  0
LINE
  8
0
  10
-19.447740
  20
-11.004393
  30
0.000000
  11
-20.729552
  21
-13.928513
  31
0.000000
  0
LINE
  8
0
  10
-20.729552
  20
-13.928513
  30
0.000000
  11
-22.698862
  21
-16.463603
  31
0.000000
  0
LINE
  8
0
  10
-22.698862
  20
-16.463603
  30
0.000000
  11
-24.847560
  21
-18.095508
  31
0.000000
  0
LINE
  8
0
  10
-24.847560
  20
-18.095508
  30
0.000000
  11
-22.698862
  21
-16.463603
  31
0.000000
  0
LINE
  8
0
  10
-22.698862
  20
-16.463603
  30
0.000000
  11
-20.729552
  21
-13.928513
  31
0.000000
  0
LINE
  8
0
  10
-20.729552
  20
-13.928513
  30
0.000000
  11
-19.447740
  21
-11.004393
  31
0.000000
  0
LINE
  8
0
  10
-15.876806
  20
-20.642575
  30
0.000000
  11
-13.907496
  21
-18.107486
  31
0.000000
  0
LINE
  8
0
  10
-13.907496
  20
-18.107486
  30
0.000000
  11
-15.876806
  21
-20.642575
  31
0.000000
  0
LINE
  8
0
  10
-26.425442
  20
-26.852190
  30
0.000000
  11
-24.797745
  21
-27.996017
  31
0.000000
  0
LINE
  8
0
  10
-24.797745
  20
-27.996017
  30
0.000000
  11
-22.730143
  21
-28.456984
  31
0.000000
  0
LINE
  8
0
  10
-22.730143
  20
-28.456984
  30
0.000000
  11
-20.387054
  21
-28.163688
  31
0.000000
  0
LINE
  8
0
  10
-20.387054
  20
-28.163688
  30
0.000000
  11
-17.979834
  21
-27.173247
  31
0.000000
  0
LINE
  8
0
  10
-17.979834
  20
-27.173247
  30
0.000000
  11
-10.668626
  21
-23.188864
  31
0.000000
  0
LINE
  8
0
  10
-10.668626
  20
-23.188864
  30
0.000000
  11
-17.979834
  21
-27.173247
  31
0.000000
  0
LINE
  8
0
  10
-17.979834
  20
-27.173247
  30
0.000000
  11
-20.387054
  21
-28.163688
  31
0.000000
  0
LINE
  8
0
  10
-20.387054
  20
-28.163688
  30
0.000000
  11
-22.730143
  21
-28.456984
  31
0.000000
  0
LINE
  8
0
  10
-22.730143
  20
-28.456984
  30
0.000000
  11
-24.797745
  21
-27.996017
  31
0.000000
  0
LINE
  8
0
  10
-24.797745
  20
-27.996017
  30
0.000000
  11
-26.425442
  21
-26.852190
  31
0.000000
  0
LINE
  8
0
  10
-18.025504
  20
-22.274481
  30
0.000000
  11
-26.425442
  21
-26.852190
  31
0.000000
  0
LINE
  8
0
  10
-26.425442
  20
-26.852190
  30
0.000000
  11
-18.025504
  21
-22.274481
  31
0.000000
  0
LINE
  8
0
  10
-15.876806
  20
-20.642575
  30
0.000000
  11
-18.025504
  21
-22.274481
  31
0.000000
  0
LINE
  8
0
  10
-18.025504
  20
-22.274481
  30
0.000000
  11
-15.876806
  21
-20.642575
  31
0.000000
  0
LINE
  8
0
  10
-24.847560
  20
-18.095508
  30
0.000000
  11
-18.025504
  21
-22.274481
  31
0.000000
  0
LINE
  8
0
  10
-18.025504
  20
-22.274481
  30
0.000000
  11
-24.847560
  21
-18.095508
  31
0.000000
  0
LINE
  8
0
  10
-24.847560
  20
-18.095508
  30
0.000000
  11
-33.247499
  21
-22.673217
  31
0.000000
  0
LINE
  8
0
  10
-33.247499
  20
-22.673217
  30
0.000000
  11
-26.425442
  21
-26.852190
  31
0.000000
  0
LINE
  8
0
  10
-26.425442
  20
-26.852190
  30
0.000000
  11
-33.247499
  21
-22.673217
  31
0.000000
  0
LINE
  8
0
  10
-33.247499
  20
-22.673217
  30
0.000000
  11
-24.847560
  21
-18.095508
  31
0.000000
  0
LINE
  8
0
  10
-31.619801
  20
-23.817044
  30
0.000000
  11
-33.247499
  21
-22.673217
  31
0.000000
  0
LINE
  8
0
  10
-33.247499
  20
-22.673217
  30
0.000000
  11
-31.619801
  21
-23.817044
  31
0.000000
  0
LINE
  8
0
  10
-2.538525
  20
-11.545641
  30
0.000000
  11
-2.368845
  21
-11.545641
  31
0.000000
  0
LINE
  8
0
  10
-2.368845
  20
-11.545641
  30
0.000000
  11
-2.241585
  21
-11.588061
  31
0.000000
  0
LINE
  8
0
  10
-2.241585
  20
-11.588061
  30
0.000000
  11
-2.199165
  21
-11.672901
  31
0.000000
  0
LINE
  8
0
  10
-2.199165
  20
-11.672901
  30
0.000000
  11
-2.199165
  21
-11.757741
  31
0.000000
  0
LINE
  8
0
  10
-2.199165
  20
-11.757741
  30
0.000000
  11
-2.241585
  21
-11.842582
  31
0.000000
  0
LINE
  8
0
  10
-2.241585
  20
-11.842582
  30
0.000000
  11
-2.326425
  21
-11.885002
  31
0.000000
  0
LINE
  8
0
  10
-2.326425
  20
-11.885002
  30
0.000000
  11
-2.496105
  21
-11.927422
  31
0.000000
  0
LINE
  8
0
  10
-2.496105
  20
-11.927422
  30
0.000000
  11
-2.623365
  21
-11.969842
  31
0.000000
  0
LINE
  8
0
  10
-2.623365
  20
-11.969842
  30
0.000000
  11
-2.708206
  21
-12.054682
  31
0.000000
  0
LINE
  8
0
  10
-2.708206
  20
-12.054682
  30
0.000000
  11
-2.750626
  21
-12.139522
  31
0.000000
  0
LINE
  8
0
  10
-2.750626
  20
-12.139522
  30
0.000000
  11
-2.750626
  21
-12.266783
  31
0.000000
  0
LINE
  8
0
  10
-2.750626
  20
-12.266783
  30
0.000000
  11
-2.708206
  21
-12.351623
  31
0.000000
  0
LINE
  8
0
  10
-2.708206
  20
-12.351623
  30
0.000000
  11
-2.665786
  21
-12.394043
  31
0.000000
  0
LINE
  8
0
  10
-2.665786
  20
-12.394043
  30
0.000000
  11
-2.538525
  21
-12.436463
  31
0.000000
  0
LINE
  8
0
  10
-2.538525
  20
-12.436463
  30
0.000000
  11
-2.368845
  21
-12.436463
  31
0.000000
  0
LINE
  8
0
  10
-2.368845
  20
-12.436463
  30
0.000000
  11
-2.241585
  21
-12.394043
  31
0.000000
  0
LINE
  8
0
  10
-2.241585
  20
-12.394043
  30
0.000000
  11
-2.199165
  21
-12.351623
  31
0.000000
  0
LINE
  8
0
  10
-2.199165
  20
-12.351623
  30
0.000000
  11
-2.156744
  21
-12.266783
  31
0.000000
  0
LINE
  8
0
  10
-2.156744
  20
-12.266783
  30
0.000000
  11
-2.156744
  21
-12.139522
  31
0.000000
  0
LINE
  8
0
  10
-2.156744
  20
-12.139522
  30
0.000000
  11
-2.199165
  21
-12.054682
  31
0.000000
  0
LINE
  8
0
  10
-2.199165
  20
-12.054682
  30
0.000000
  11
-2.284005
  21
-11.969842
  31
0.000000
  0
LINE
  8
0
  10
-2.284005
  20
-11.969842
  30
0.000000
  11
-2.411265
  21
-11.927422
  31
0.000000
  0
LINE
  8
0
  10
-2.411265
  20
-11.927422
  30
0.000000
  11
-2.580945
  21
-11.885002
  31
0.000000
  0
LINE
  8
0
  10
-2.580945
  20
-11.885002
  30
0.000000
  11
-2.665786
  21
-11.842582
  31
0.000000
  0
LINE
  8
0
  10
-2.665786
  20
-11.842582
  30
0.000000
  11
-2.708206
  21
-11.757741
  31
0.000000
  0
LINE
  8
0
  10
-2.708206
  20
-11.757741
  30
0.000000
  11
-2.708206
  21
-11.672901
  31
0.000000
  0
LINE
  8
0
  10
-2.708206
  20
-11.672901
  30
0.000000
  11
-2.665786
  21
-11.588061
  31
0.000000
  0
LINE
  8
0
  10
-2.665786
  20
-11.588061
  30
0.000000
  11
-2.538525
  21
-11.545641
  31
0.000000
  0
LINE
  8
0
  10
-1.817384
  20
-12.351623
  30
0.000000
  11
-1.859804
  21
-12.394043
  31
0.000000
  0
LINE
  8
0
  10
-1.859804
  20
-12.394043
  30
0.000000
  11
-1.817384
  21
-12.436463
  31
0.000000
  0
LINE
  8
0
  10
-1.817384
  20
-12.436463
  30
0.000000
  11
-1.774964
  21
-12.394043
  31
0.000000
  0
LINE
  8
0
  10
-1.774964
  20
-12.394043
  30
0.000000
  11
-1.817384
  21
-12.351623
  31
0.000000
  0
LINE
  8
0
  10
-1.223502
  20
-11.545641
  30
0.000000
  11
-1.350763
  21
-11.588061
  31
0.000000
  0
LINE
  8
0
  10
-1.350763
  20
-11.588061
  30
0.000000
  11
-1.435603
  21
-11.715321
  31
0.000000
  0
LINE
  8
0
  10
-1.435603
  20
-11.715321
  30
0.000000
  11
-1.478023
  21
-11.927422
  31
0.000000
  0
LINE
  8
0
  10
-1.478023
  20
-11.927422
  30
0.000000
  11
-1.478023
  21
-12.054682
  31
0.000000
  0
LINE
  8
0
  10
-1.478023
  20
-12.054682
  30
0.000000
  11
-1.435603
  21
-12.266783
  31
0.000000
  0
LINE
  8
0
  10
-1.435603
  20
-12.266783
  30
0.000000
  11
-1.350763
  21
-12.394043
  31
0.000000
  0
LINE
  8
0
  10
-1.350763
  20
-12.394043
  30
0.000000
  11
-1.223502
  21
-12.436463
  31
0.000000
  0
LINE
  8
0
  10
-1.223502
  20
-12.436463
  30
0.000000
  11
-1.138662
  21
-12.436463
  31
0.000000
  0
LINE
  8
0
  10
-1.138662
  20
-12.436463
  30
0.000000
  11
-1.011402
  21
-12.394043
  31
0.000000
  0
LINE
  8
0
  10
-1.011402
  20
-12.394043
  30
0.000000
  11
-0.926562
  21
-12.266783
  31
0.000000
  0
LINE
  8
0
  10
-0.926562
  20
-12.266783
  30
0.000000
  11
-0.884142
  21
-12.054682
  31
0.000000
  0
LINE
  8
0
  10
-0.884142
  20
-12.054682
  30
0.000000
  11
-0.884142
  21
-11.927422
  31
0.000000
  0
LINE
  8
0
  10
-0.884142
  20
-11.927422
  30
0.000000
  11
-0.926562
  21
-11.715321
  31
0.000000
  0
LINE
  8
0
  10
-0.926562
  20
-11.715321
  30
0.000000
  11
-1.011402
  21
-11.588061
  31
0.000000
  0
LINE
  8
0
  10
-1.011402
  20
-11.588061
  30
0.000000
  11
-1.138662
  21
-11.545641
  31
0.000000
  0
LINE
  8
0
  10
-1.138662
  20
-11.545641
  30
0.000000
  11
-1.223502
  21
-11.545641
  31
0.000000
  0
LINE
  8
0
  10
-0.375100
  20
-11.545641
  30
0.000000
  11
-0.502361
  21
-11.588061
  31
0.000000
  0
LINE
  8
0
  10
-0.502361
  20
-11.588061
  30
0.000000
  11
-0.587201
  21
-11.715321
  31
0.000000
  0
LINE
  8
0
  10
-0.587201
  20
-11.715321
  30
0.000000
  11
-0.629621
  21
-11.927422
  31
0.000000
  0
LINE
  8
0
  10
-0.629621
  20
-11.927422
  30
0.000000
  11
-0.629621
  21
-12.054682
  31
0.000000
  0
LINE
  8
0
  10
-0.629621
  20
-12.054682
  30
0.000000
  11
-0.587201
  21
-12.266783
  31
0.000000
  0
LINE
  8
0
  10
-0.587201
  20
-12.266783
  30
0.000000
  11
-0.502361
  21
-12.394043
  31
0.000000
  0
LINE
  8
0
  10
-0.502361
  20
-12.394043
  30
0.000000
  11
-0.375100
  21
-12.436463
  31
0.000000
  0
LINE
  8
0
  10
-0.375100
  20
-12.436463
  30
0.000000
  11
-0.290260
  21
-12.436463
  31
0.000000
  0
LINE
  8
0
  10
-0.290260
  20
-12.436463
  30
0.000000
  11
-0.163000
  21
-12.394043
  31
0.000000
  0
LINE
  8
0
  10
-0.163000
  20
-12.394043
  30
0.000000
  11
-0.078160
  21
-12.266783
  31
0.000000
  0
LINE
  8
0
  10
-0.078160
  20
-12.266783
  30
0.000000
  11
-0.035740
  21
-12.054682
  31
0.000000
  0
LINE
  8
0
  10
-0.035740
  20
-12.054682
  30
0.000000
  11
-0.035740
  21
-11.927422
  31
0.000000
  0
LINE
  8
0
  10
-0.035740
  20
-11.927422
  30
0.000000
  11
-0.078160
  21
-11.715321
  31
0.000000
  0
LINE
  8
0
  10
-0.078160
  20
-11.715321
  30
0.000000
  11
-0.163000
  21
-11.588061
  31
0.000000
  0
LINE
  8
0
  10
-0.163000
  20
-11.588061
  30
0.000000
  11
-0.290260
  21
-11.545641
  31
0.000000
  0
LINE
  8
0
  10
-0.290260
  20
-11.545641
  30
0.000000
  11
-0.375100
  21
-11.545641
  31
0.000000
  0
LINE
  8
0
  10
-9.653913
  20
3.465915
  30
0.000000
  11
-9.696333
  21
3.423495
  31
0.000000
  0
LINE
  8
0
  10
-9.696333
  20
3.423495
  30
0.000000
  11
-9.653913
  21
3.381075
  31
0.000000
  0
LINE
  8
0
  10
-9.653913
  20
3.381075
  30
0.000000
  11
-9.611493
  21
3.423495
  31
0.000000
  0
LINE
  8
0
  10
-9.611493
  20
3.423495
  30
0.000000
  11
-9.653913
  21
3.465915
  31
0.000000
  0
LINE
  8
0
  10
-9.060032
  20
4.271897
  30
0.000000
  11
-9.187292
  21
4.229477
  31
0.000000
  0
LINE
  8
0
  10
-9.187292
  20
4.229477
  30
0.000000
  11
-9.272132
  21
4.102216
  31
0.000000
  0
LINE
  8
0
  10
-9.272132
  20
4.102216
  30
0.000000
  11
-9.314552
  21
3.890116
  31
0.000000
  0
LINE
  8
0
  10
-9.314552
  20
3.890116
  30
0.000000
  11
-9.314552
  21
3.762856
  31
0.000000
  0
LINE
  8
0
  10
-9.314552
  20
3.762856
  30
0.000000
  11
-9.272132
  21
3.550755
  31
0.000000
  0
LINE
  8
0
  10
-9.272132
  20
3.550755
  30
0.000000
  11
-9.187292
  21
3.423495
  31
0.000000
  0
LINE
  8
0
  10
-9.187292
  20
3.423495
  30
0.000000
  11
-9.060032
  21
3.381075
  31
0.000000
  0
LINE
  8
0
  10
-9.060032
  20
3.381075
  30
0.000000
  11
-8.975192
  21
3.381075
  31
0.000000
  0
LINE
  8
0
  10
-8.975192
  20
3.381075
  30
0.000000
  11
-8.847931
  21
3.423495
  31
0.000000
  0
LINE
  8
0
  10
-8.847931
  20
3.423495
  30
0.000000
  11
-8.763091
  21
3.550755
  31
0.000000
  0
LINE
  8
0
  10
-8.763091
  20
3.550755
  30
0.000000
  11
-8.720671
  21
3.762856
  31
0.000000
  0
LINE
  8
0
  10
-8.720671
  20
3.762856
  30
0.000000
  11
-8.720671
  21
3.890116
  31
0.000000
  0
LINE
  8
0
  10
-8.720671
  20
3.890116
  30
0.000000
  11
-8.763091
  21
4.102216
  31
0.000000
  0
LINE
  8
0
  10
-8.763091
  20
4.102216
  30
0.000000
  11
-8.847931
  21
4.229477
  31
0.000000
  0
LINE
  8
0
  10
-8.847931
  20
4.229477
  30
0.000000
  11
-8.975192
  21
4.271897
  31
0.000000
  0
LINE
  8
0
  10
-8.975192
  20
4.271897
  30
0.000000
  11
-9.060032
  21
4.271897
  31
0.000000
  0
LINE
  8
0
  10
-8.211630
  20
4.271897
  30
0.000000
  11
-8.338890
  21
4.229477
  31
0.000000
  0
LINE
  8
0
  10
-8.338890
  20
4.229477
  30
0.000000
  11
-8.423730
  21
4.102216
  31
0.000000
  0
LINE
  8
0
  10
-8.423730
  20
4.102216
  30
0.000000
  11
-8.466151
  21
3.890116
  31
0.000000
  0
LINE
  8
0
  10
-8.466151
  20
3.890116
  30
0.000000
  11
-8.466151
  21
3.762856
  31
0.000000
  0
LINE
  8
0
  10
-8.466151
  20
3.762856
  30
0.000000
  11
-8.423730
  21
3.550755
  31
0.000000
  0
LINE
  8
0
  10
-8.423730
  20
3.550755
  30
0.000000
  11
-8.338890
  21
3.423495
  31
0.000000
  0
LINE
  8
0
  10
-8.338890
  20
3.423495
  30
0.000000
  11
-8.211630
  21
3.381075
  31
0.000000
  0
LINE
  8
0
  10
-8.211630
  20
3.381075
  30
0.000000
  11
-8.126790
  21
3.381075
  31
0.000000
  0
LINE
  8
0
  10
-8.126790
  20
3.381075
  30
0.000000
  11
-7.999530
  21
3.423495
  31
0.000000
  0
LINE
  8
0
  10
-7.999530
  20
3.423495
  30
0.000000
  11
-7.914689
  21
3.550755
  31
0.000000
  0
LINE
  8
0
  10
-7.914689
  20
3.550755
  30
0.000000
  11
-7.872269
  21
3.762856
  31
0.000000
  0
LINE
  8
0
  10
-7.872269
  20
3.762856
  30
0.000000
  11
-7.872269
  21
3.890116
  31
0.000000
  0
LINE
  8
0
  10
-7.872269
  20
3.890116
  30
0.000000
  11
-7.914689
  21
4.102216
  31
0.000000
  0
LINE
  8
0
  10
-7.914689
  20
4.102216
  30
0.000000
  11
-7.999530
  21
4.229477
  31
0.000000
  0
LINE
  8
0
  10
-7.999530
  20
4.229477
  30
0.000000
  11
-8.126790
  21
4.271897
  31
0.000000
  0
LINE
  8
0
  10
-8.126790
  20
4.271897
  30
0.000000
  11
-8.211630
  21
4.271897
  31
0.000000
  0
LINE
  8
0
  10
7.704751
  20
-6.497438
  30
0.000000
  11
7.577491
  21
-6.539858
  31
0.000000
  0
LINE
  8
0
  10
7.577491
  20
-6.539858
  30
0.000000
  11
7.492651
  21
-6.667119
  31
0.000000
  0
LINE
  8
0
  10
7.492651
  20
-6.667119
  30
0.000000
  11
7.450231
  21
-6.879219
  31
0.000000
  0
LINE
  8
0
  10
7.450231
  20
-6.879219
  30
0.000000
  11
7.450231
  21
-7.006480
  31
0.000000
  0
LINE
  8
0
  10
7.450231
  20
-7.006480
  30
0.000000
  11
7.492651
  21
-7.218580
  31
0.000000
  0
LINE
  8
0
  10
7.492651
  20
-7.218580
  30
0.000000
  11
7.577491
  21
-7.345840
  31
0.000000
  0
LINE
  8
0
  10
7.577491
  20
-7.345840
  30
0.000000
  11
7.704751
  21
-7.388260
  31
0.000000
  0
LINE
  8
0
  10
7.704751
  20
-7.388260
  30
0.000000
  11
7.789592
  21
-7.388260
  31
0.000000
  0
LINE
  8
0
  10
7.789592
  20
-7.388260
  30
0.000000
  11
7.916852
  21
-7.345840
  31
0.000000
  0
LINE
  8
0
  10
7.916852
  20
-7.345840
  30
0.000000
  11
8.001692
  21
-7.218580
  31
0.000000
  0
LINE
  8
0
  10
8.001692
  20
-7.218580
  30
0.000000
  11
8.044112
  21
-7.006480
  31
0.000000
  0
LINE
  8
0
  10
8.044112
  20
-7.006480
  30
0.000000
  11
8.044112
  21
-6.879219
  31
0.000000
  0
LINE
  8
0
  10
8.044112
  20
-6.879219
  30
0.000000
  11
8.001692
  21
-6.667119
  31
0.000000
  0
LINE
  8
0
  10
8.001692
  20
-6.667119
  30
0.000000
  11
7.916852
  21
-6.539858
  31
0.000000
  0
LINE
  8
0
  10
7.916852
  20
-6.539858
  30
0.000000
  11
7.789592
  21
-6.497438
  31
0.000000
  0
LINE
  8
0
  10
7.789592
  20
-6.497438
  30
0.000000
  11
7.704751
  21
-6.497438
  31
0.000000
  0
LINE
  8
0
  10
8.383473
  20
-7.303420
  30
0.000000
  11
8.341053
  21
-7.345840
  31
0.000000
  0
LINE
  8
0
  10
8.341053
  20
-7.345840
  30
0.000000
  11
8.383473
  21
-7.388260
  31
0.000000
  0
LINE
  8
0
  10
8.383473
  20
-7.388260
  30
0.000000
  11
8.425893
  21
-7.345840
  31
0.000000
  0
LINE
  8
0
  10
8.425893
  20
-7.345840
  30
0.000000
  11
8.383473
  21
-7.303420
  31
0.000000
  0
LINE
  8
0
  10
8.977354
  20
-6.497438
  30
0.000000
  11
8.850094
  21
-6.539858
  31
0.000000
  0
LINE
  8
0
  10
8.850094
  20
-6.539858
  30
0.000000
  11
8.765254
  21
-6.667119
  31
0.000000
  0
LINE
  8
0
  10
8.765254
  20
-6.667119
  30
0.000000
  11
8.722834
  21
-6.879219
  31
0.000000
  0
LINE
  8
0
  10
8.722834
  20
-6.879219
  30
0.000000
  11
8.722834
  21
-7.006480
  31
0.000000
  0
LINE
  8
0
  10
8.722834
  20
-7.006480
  30
0.000000
  11
8.765254
  21
-7.218580
  31
0.000000
  0
LINE
  8
0
  10
8.765254
  20
-7.218580
  30
0.000000
  11
8.850094
  21
-7.345840
  31
0.000000
  0
LINE
  8
0
  10
8.850094
  20
-7.345840
  30
0.000000
  11
8.977354
  21
-7.388260
  31
0.000000
  0
LINE
  8
0
  10
8.977354
  20
-7.388260
  30
0.000000
  11
9.062194
  21
-7.388260
  31
0.000000
  0
LINE
  8
0
  10
9.062194
  20
-7.388260
  30
0.000000
  11
9.189455
  21
-7.345840
  31
0.000000
  0
LINE
  8
0
  10
9.189455
  20
-7.345840
  30
0.000000
  11
9.274295
  21
-7.218580
  31
0.000000
  0
LINE
  8
0
  10
9.274295
  20
-7.218580
  30
0.000000
  11
9.316715
  21
-7.006480
  31
0.000000
  0
LINE
  8
0
  10
9.316715
  20
-7.006480
  30
0.000000
  11
9.316715
  21
-6.879219
  31
0.000000
  0
LINE
  8
0
  10
9.316715
  20
-6.879219
  30
0.000000
  11
9.274295
  21
-6.667119
  31
0.000000
  0
LINE
  8
0
  10
9.274295
  20
-6.667119
  30
0.000000
  11
9.189455
  21
-6.539858
  31
0.000000
  0
LINE
  8
0
  10
9.189455
  20
-6.539858
  30
0.000000
  11
9.062194
  21
-6.497438
  31
0.000000
  0
LINE
  8
0
  10
9.062194
  20
-6.497438
  30
0.000000
  11
8.977354
  21
-6.497438
  31
0.000000
  0
LINE
  8
0
  10
9.825756
  20
-6.497438
  30
0.000000
  11
9.698496
  21
-6.539858
  31
0.000000
  0
LINE
  8
0
  10
9.698496
  20
-6.539858
  30
0.000000
  11
9.613656
  21
-6.667119
  31
0.000000
  0
LINE
  8
0
  10
9.613656
  20
-6.667119
  30
0.000000
  11
9.571236
  21
-6.879219
  31
0.000000
  0
LINE
  8
0
  10
9.571236
  20
-6.879219
  30
0.000000
  11
9.571236
  21
-7.006480
  31
0.000000
  0
LINE
  8
0
  10
9.571236
  20
-7.006480
  30
0.000000
  11
9.613656
  21
-7.218580
  31
0.000000
  0
LINE
  8
0
  10
9.613656
  20
-7.218580
  30
0.000000
  11
9.698496
  21
-7.345840
  31
0.000000
  0
LINE
  8
0
  10
9.698496
  20
-7.345840
  30
0.000000
  11
9.825756
  21
-7.388260
  31
0.000000
  0
LINE
  8
0
  10
9.825756
  20
-7.388260
  30
0.000000
  11
9.910596
  21
-7.388260
  31
0.000000
  0
LINE
  8
0
  10
9.910596
  20
-7.388260
  30
0.000000
  11
10.037857
  21
-7.345840
  31
0.000000
  0
LINE
  8
0
  10
10.037857
  20
-7.345840
  30
0.000000
  11
10.122697
  21
-7.218580
  31
0.000000
  0
LINE
  8
0
  10
10.122697
  20
-7.218580
  30
0.000000
  11
10.165117
  21
-7.006480
  31
0.000000
  0
LINE
  8
0
  10
10.165117
  20
-7.006480
  30
0.000000
  11
10.165117
  21
-6.879219
  31
0.000000
  0
LINE
  8
0
  10
10.165117
  20
-6.879219
  30
0.000000
  11
10.122697
  21
-6.667119
  31
0.000000
  0
LINE
  8
0
  10
10.122697
  20
-6.667119
  30
0.000000
  11
10.037857
  21
-6.539858
  31
0.000000
  0
LINE
  8
0
  10
10.037857
  20
-6.539858
  30
0.000000
  11
9.910596
  21
-6.497438
  31
0.000000
  0
LINE
  8
0
  10
9.910596
  20
-6.497438
  30
0.000000
  11
9.825756
  21
-6.497438
  31
0.000000
  0
LINE
  8
0
  10
-19.208895
  20
-0.721297
  30
0.000000
  11
-19.336155
  21
-0.763717
  31
0.000000
  0
LINE
  8
0
  10
-19.336155
  20
-0.763717
  30
0.000000
  11
-19.420996
  21
-0.890977
  31
0.000000
  0
LINE
  8
0
  10
-19.420996
  20
-0.890977
  30
0.000000
  11
-19.463416
  21
-1.103077
  31
0.000000
  0
LINE
  8
0
  10
-19.463416
  20
-1.103077
  30
0.000000
  11
-19.463416
  21
-1.230338
  31
0.000000
  0
LINE
  8
0
  10
-19.463416
  20
-1.230338
  30
0.000000
  11
-19.420996
  21
-1.442438
  31
0.000000
  0
LINE
  8
0
  10
-19.420996
  20
-1.442438
  30
0.000000
  11
-19.336155
  21
-1.569699
  31
0.000000
  0
LINE
  8
0
  10
-19.336155
  20
-1.569699
  30
0.000000
  11
-19.208895
  21
-1.612119
  31
0.000000
  0
LINE
  8
0
  10
-19.208895
  20
-1.612119
  30
0.000000
  11
-19.124055
  21
-1.612119
  31
0.000000
  0
LINE
  8
0
  10
-19.124055
  20
-1.612119
  30
0.000000
  11
-18.996795
  21
-1.569699
  31
0.000000
  0
LINE
  8
0
  10
-18.996795
  20
-1.569699
  30
0.000000
  11
-18.911955
  21
-1.442438
  31
0.000000
  0
LINE
  8
0
  10
-18.911955
  20
-1.442438
  30
0.000000
  11
-18.869534
  21
-1.230338
  31
0.000000
  0
LINE
  8
0
  10
-18.869534
  20
-1.230338
  30
0.000000
  11
-18.869534
  21
-1.103077
  31
0.000000
  0
LINE
  8
0
  10
-18.869534
  20
-1.103077
  30
0.000000
  11
-18.911955
  21
-0.890977
  31
0.000000
  0
LINE
  8
0
  10
-18.911955
  20
-0.890977
  30
0.000000
  11
-18.996795
  21
-0.763717
  31
0.000000
  0
LINE
  8
0
  10
-18.996795
  20
-0.763717
  30
0.000000
  11
-19.124055
  21
-0.721297
  31
0.000000
  0
LINE
  8
0
  10
-19.124055
  20
-0.721297
  30
0.000000
  11
-19.208895
  21
-0.721297
  31
0.000000
  0
LINE
  8
0
  10
-18.530174
  20
-1.527278
  30
0.000000
  11
-18.572594
  21
-1.569699
  31
0.000000
  0
LINE
  8
0
  10
-18.572594
  20
-1.569699
  30
0.000000
  11
-18.530174
  21
-1.612119
  31
0.000000
  0
LINE
  8
0
  10
-18.530174
  20
-1.612119
  30
0.000000
  11
-18.487754
  21
-1.569699
  31
0.000000
  0
LINE
  8
0
  10
-18.487754
  20
-1.569699
  30
0.000000
  11
-18.530174
  21
-1.527278
  31
0.000000
  0
LINE
  8
0
  10
-17.936292
  20
-0.721297
  30
0.000000
  11
-18.063553
  21
-0.763717
  31
0.000000
  0
LINE
  8
0
  10
-18.063553
  20
-0.763717
  30
0.000000
  11
-18.148393
  21
-0.890977
  31
0.000000
  0
LINE
  8
0
  10
-18.148393
  20
-0.890977
  30
0.000000
  11
-18.190813
  21
-1.103077
  31
0.000000
  0
LINE
  8
0
  10
-18.190813
  20
-1.103077
  30
0.000000
  11
-18.190813
  21
-1.230338
  31
0.000000
  0
LINE
  8
0
  10
-18.190813
  20
-1.230338
  30
0.000000
  11
-18.148393
  21
-1.442438
  31
0.000000
  0
LINE
  8
0
  10
-18.148393
  20
-1.442438
  30
0.000000
  11
-18.063553
  21
-1.569699
  31
0.000000
  0
LINE
  8
0
  10
-18.063553
  20
-1.569699
  30
0.000000
  11
-17.936292
  21
-1.612119
  31
0.000000
  0
LINE
  8
0
  10
-17.936292
  20
-1.612119
  30
0.000000
  11
-17.851452
  21
-1.612119
  31
0.000000
  0
LINE
  8
0
  10
-17.851452
  20
-1.612119
  30
0.000000
  11
-17.724192
  21
-1.569699
  31
0.000000
  0
LINE
  8
0
  10
-17.724192
  20
-1.569699
  30
0.000000
  11
-17.639352
  21
-1.442438
  31
0.000000
  0
LINE
  8
0
  10
-17.639352
  20
-1.442438
  30
0.000000
  11
-17.596932
  21
-1.230338
  31
0.000000
  0
LINE
  8
0
  10
-17.596932
  20
-1.230338
  30
0.000000
  11
-17.596932
  21
-1.103077
  31
0.000000
  0
LINE
  8
0
  10
-17.596932
  20
-1.103077
  30
0.000000
  11
-17.639352
  21
-0.890977
  31
0.000000
  0
LINE
  8
0
  10
-17.639352
  20
-0.890977
  30
0.000000
  11
-17.724192
  21
-0.763717
  31
0.000000
  0
LINE
  8
0
  10
-17.724192
  20
-0.763717
  30
0.000000
  11
-17.851452
  21
-0.721297
  31
0.000000
  0
LINE
  8
0
  10
-17.851452
  20
-0.721297
  30
0.000000
  11
-17.936292
  21
-0.721297
  31
0.000000
  0
LINE
  8
0
  10
-17.087890
  20
-0.721297
  30
0.000000
  11
-17.215151
  21
-0.763717
  31
0.000000
  0
LINE
  8
0
  10
-17.215151
  20
-0.763717
  30
0.000000
  11
-17.299991
  21
-0.890977
  31
0.000000
  0
LINE
  8
0
  10
-17.299991
  20
-0.890977
  30
0.000000
  11
-17.342411
  21
-1.103077
  31
0.000000
  0
LINE
  8
0
  10
-17.342411
  20
-1.103077
  30
0.000000
  11
-17.342411
  21
-1.230338
  31
0.000000
  0
LINE
  8
0
  10
-17.342411
  20
-1.230338
  30
0.000000
  11
-17.299991
  21
-1.442438
  31
0.000000
  0
LINE
  8
0
  10
-17.299991
  20
-1.442438
  30
0.000000
  11
-17.215151
  21
-1.569699
  31
0.000000
  0
LINE
  8
0
  10
-17.215151
  20
-1.569699
  30
0.000000
  11
-17.087890
  21
-1.612119
  31
0.000000
  0
LINE
  8
0
  10
-17.087890
  20
-1.612119
  30
0.000000
  11
-17.003050
  21
-1.612119
  31
0.000000
  0
LINE
  8
0
  10
-17.003050
  20
-1.612119
  30
0.000000
  11
-16.875790
  21
-1.569699
  31
0.000000
  0
LINE
  8
0
  10
-16.875790
  20
-1.569699
  30
0.000000
  11
-16.790950
  21
-1.442438
  31
0.000000
  0
LINE
  8
0
  10
-16.790950
  20
-1.442438
  30
0.000000
  11
-16.748530
  21
-1.230338
  31
0.000000
  0
LINE
  8
0
  10
-16.748530
  20
-1.230338
  30
0.000000
  11
-16.748530
  21
-1.103077
  31
0.000000
  0
LINE
  8
0
  10
-16.748530
  20
-1.103077
  30
0.000000
  11
-16.790950
  21
-0.890977
  31
0.000000
  0
LINE
  8
0
  10
-16.790950
  20
-0.890977
  30
0.000000
  11
-16.875790
  21
-0.763717
  31
0.000000
  0
LINE
  8
0
  10
-16.875790
  20
-0.763717
  30
0.000000
  11
-17.003050
  21
-0.721297
  31
0.000000
  0
LINE
  8
0
  10
-17.003050
  20
-0.721297
  30
0.000000
  11
-17.087890
  21
-0.721297
  31
0.000000
  0
LINE
  8
0
  10
-0.941501
  20
-29.015798
  30
0.000000
  11
-0.983921
  21
-29.058218
  31
0.000000
  0
LINE
  8
0
  10
-0.983921
  20
-29.058218
  30
0.000000
  11
-0.941501
  21
-29.100638
  31
0.000000
  0
LINE
  8
0
  10
-0.941501
  20
-29.100638
  30
0.000000
  11
-0.899081
  21
-29.058218
  31
0.000000
  0
LINE
  8
0
  10
-0.899081
  20
-29.058218
  30
0.000000
  11
-0.941501
  21
-29.015798
  31
0.000000
  0
LINE
  8
0
  10
-0.347619
  20
-28.209816
  30
0.000000
  11
-0.474880
  21
-28.252236
  31
0.000000
  0
LINE
  8
0
  10
-0.474880
  20
-28.252236
  30
0.000000
  11
-0.559720
  21
-28.379497
  31
0.000000
  0
LINE
  8
0
  10
-0.559720
  20
-28.379497
  30
0.000000
  11
-0.602140
  21
-28.591597
  31
0.000000
  0
LINE
  8
0
  10
-0.602140
  20
-28.591597
  30
0.000000
  11
-0.602140
  21
-28.718857
  31
0.000000
  0
LINE
  8
0
  10
-0.602140
  20
-28.718857
  30
0.000000
  11
-0.559720
  21
-28.930958
  31
0.000000
  0
LINE
  8
0
  10
-0.559720
  20
-28.930958
  30
0.000000
  11
-0.474880
  21
-29.058218
  31
0.000000
  0
LINE
  8
0
  10
-0.474880
  20
-29.058218
  30
0.000000
  11
-0.347619
  21
-29.100638
  31
0.000000
  0
LINE
  8
0
  10
-0.347619
  20
-29.100638
  30
0.000000
  11
-0.262779
  21
-29.100638
  31
0.000000
  0
LINE
  8
0
  10
-0.262779
  20
-29.100638
  30
0.000000
  11
-0.135519
  21
-29.058218
  31
0.000000
  0
LINE
  8
0
  10
-0.135519
  20
-29.058218
  30
0.000000
  11
-0.050679
  21
-28.930958
  31
0.000000
  0
LINE
  8
0
  10
-0.050679
  20
-28.930958
  30
0.000000
  11
-0.008259
  21
-28.718857
  31
0.000000
  0
LINE
  8
0
  10
-0.008259
  20
-28.718857
  30
0.000000
  11
-0.008259
  21
-28.591597
  31
0.000000
  0
LINE
  8
0
  10
-0.008259
  20
-28.591597
  30
0.000000
  11
-0.050679
  21
-28.379497
  31
0.000000
  0
LINE
  8
0
  10
-0.050679
  20
-28.379497
  30
0.000000
  11
-0.135519
  21
-28.252236
  31
0.000000
  0
LINE
  8
0
  10
-0.135519
  20
-28.252236
  30
0.000000
  11
-0.262779
  21
-28.209816
  31
0.000000
  0
LINE
  8
0
  10
-0.262779
  20
-28.209816
  30
0.000000
  11
-0.347619
  21
-28.209816
  31
0.000000
  0
LINE
  8
0
  10
0.500783
  20
-28.209816
  30
0.000000
  11
0.373522
  21
-28.252236
  31
0.000000
  0
LINE
  8
0
  10
0.373522
  20
-28.252236
  30
0.000000
  11
0.288682
  21
-28.379497
  31
0.000000
  0
LINE
  8
0
  10
0.288682
  20
-28.379497
  30
0.000000
  11
0.246262
  21
-28.591597
  31
0.000000
  0
LINE
  8
0
  10
0.246262
  20
-28.591597
  30
0.000000
  11
0.246262
  21
-28.718857
  31
0.000000
  0
LINE
  8
0
  10
0.246262
  20
-28.718857
  30
0.000000
  11
0.288682
  21
-28.930958
  31
0.000000
  0
LINE
  8
0
  10
0.288682
  20
-28.930958
  30
0.000000
  11
0.373522
  21
-29.058218
  31
0.000000
  0
LINE
  8
0
  10
0.373522
  20
-29.058218
  30
0.000000
  11
0.500783
  21
-29.100638
  31
0.000000
  0
LINE
  8
0
  10
0.500783
  20
-29.100638
  30
0.000000
  11
0.585623
  21
-29.100638
  31
0.000000
  0
LINE
  8
0
  10
0.585623
  20
-29.100638
  30
0.000000
  11
0.712883
  21
-29.058218
  31
0.000000
  0
LINE
  8
0
  10
0.712883
  20
-29.058218
  30
0.000000
  11
0.797723
  21
-28.930958
  31
0.000000
  0
LINE
  8
0
  10
0.797723
  20
-28.930958
  30
0.000000
  11
0.840143
  21
-28.718857
  31
0.000000
  0
LINE
  8
0
  10
0.840143
  20
-28.718857
  30
0.000000
  11
0.840143
  21
-28.591597
  31
0.000000
  0
LINE
  8
0
  10
0.840143
  20
-28.591597
  30
0.000000
  11
0.797723
  21
-28.379497
  31
0.000000
  0
LINE
  8
0
  10
0.797723
  20
-28.379497
  30
0.000000
  11
0.712883
  21
-28.252236
  31
0.000000
  0
LINE
  8
0
  10
0.712883
  20
-28.252236
  30
0.000000
  11
0.585623
  21
-28.209816
  31
0.000000
  0
LINE
  8
0
  10
0.585623
  20
-28.209816
  30
0.000000
  11
0.500783
  21
-28.209816
  31
0.000000
  0
LINE
  8
0
  10
-5.893187
  20
-26.114144
  30
0.000000
  11
-1.117539
  21
-23.476246
  31
0.000000
  0
LINE
  8
0
  10
-6.106317
  20
-3.253233
  30
0.000000
  11
-1.330670
  21
-0.615336
  31
0.000000
  0
LINE
  8
0
  10
-1.707074
  20
-23.801885
  30
0.000000
  11
-1.810007
  21
-12.761069
  31
0.000000
  0
LINE
  8
0
  10
-1.824760
  20
-11.178615
  30
0.000000
  11
-1.920205
  21
-0.940974
  31
0.000000
  0
LINE
  8
0
  10
-1.920205
  20
-0.940974
  30
0.000000
  11
-2.149397
  21
-1.890974
  31
0.000000
  0
LINE
  8
0
  10
-1.707074
  20
-23.801885
  30
0.000000
  11
-1.477882
  21
-22.851884
  31
0.000000
  0
LINE
  8
0
  10
-1.707074
  20
-23.801885
  30
0.000000
  11
-1.951541
  21
-23.113516
  31
0.000000
  0
LINE
  8
0
  10
-1.920205
  20
-0.940974
  30
0.000000
  11
-1.675738
  21
-1.629342
  31
0.000000
  0
LINE
  8
0
  10
-3.556608
  20
-11.757741
  30
0.000000
  11
-3.556608
  21
-11.715321
  31
0.000000
  0
LINE
  8
0
  10
-3.556608
  20
-11.715321
  30
0.000000
  11
-3.514187
  21
-11.630481
  31
0.000000
  0
LINE
  8
0
  10
-3.514187
  20
-11.630481
  30
0.000000
  11
-3.471767
  21
-11.588061
  31
0.000000
  0
LINE
  8
0
  10
-3.471767
  20
-11.588061
  30
0.000000
  11
-3.386927
  21
-11.545641
  31
0.000000
  0
LINE
  8
0
  10
-3.386927
  20
-11.545641
  30
0.000000
  11
-3.217247
  21
-11.545641
  31
0.000000
  0
LINE
  8
0
  10
-3.217247
  20
-11.545641
  30
0.000000
  11
-3.132407
  21
-11.588061
  31
0.000000
  0
LINE
  8
0
  10
-3.132407
  20
-11.588061
  30
0.000000
  11
-3.089987
  21
-11.630481
  31
0.000000
  0
LINE
  8
0
  10
-3.089987
  20
-11.630481
  30
0.000000
  11
-3.047566
  21
-11.715321
  31
0.000000
  0
LINE
  8
0
  10
-3.047566
  20
-11.715321
  30
0.000000
  11
-3.047566
  21
-11.800162
  31
0.000000
  0
LINE
  8
0
  10
-3.047566
  20
-11.800162
  30
0.000000
  11
-3.089987
  21
-11.885002
  31
0.000000
  0
LINE
  8
0
  10
-3.089987
  20
-11.885002
  30
0.000000
  11
-3.174827
  21
-12.012262
  31
0.000000
  0
LINE
  8
0
  10
-3.174827
  20
-12.012262
  30
0.000000
  11
-3.599028
  21
-12.436463
  31
0.000000
  0
LINE
  8
0
  10
-3.599028
  20
-12.436463
  30
0.000000
  11
-3.005146
  21
-12.436463
  31
0.000000
  0
LINE
  8
0
  10
-6.106317
  20
-3.253233
  30
0.000000
  11
-1.254406
  21
-0.611022
  31
0.000000
  0
LINE
  8
0
  10
-22.479252
  20
6.776301
  30
0.000000
  11
-17.627340
  21
9.418512
  31
0.000000
  0
LINE
  8
0
  10
-1.847723
  20
-0.934126
  30
0.000000
  11
-8.362257
  21
3.056469
  31
0.000000
  0
LINE
  8
0
  10
-10.945569
  20
4.638923
  30
0.000000
  11
-18.220657
  21
9.095408
  31
0.000000
  0
LINE
  8
0
  10
-18.220657
  20
9.095408
  30
0.000000
  11
-17.774525
  21
8.546319
  31
0.000000
  0
LINE
  8
0
  10
-1.847723
  20
-0.934126
  30
0.000000
  11
-2.293855
  21
-0.385037
  31
0.000000
  0
LINE
  8
0
  10
-1.847723
  20
-0.934126
  30
0.000000
  11
-2.770553
  21
-0.644632
  31
0.000000
  0
LINE
  8
0
  10
-18.220657
  20
9.095408
  30
0.000000
  11
-17.297828
  21
8.805915
  31
0.000000
  0
LINE
  8
0
  10
-11.393137
  20
4.059796
  30
0.000000
  11
-11.393137
  21
4.102216
  31
0.000000
  0
LINE
  8
0
  10
-11.393137
  20
4.102216
  30
0.000000
  11
-11.350717
  21
4.187057
  31
0.000000
  0
LINE
  8
0
  10
-11.350717
  20
4.187057
  30
0.000000
  11
-11.308297
  21
4.229477
  31
0.000000
  0
LINE
  8
0
  10
-11.308297
  20
4.229477
  30
0.000000
  11
-11.223457
  21
4.271897
  31
0.000000
  0
LINE
  8
0
  10
-11.223457
  20
4.271897
  30
0.000000
  11
-11.053776
  21
4.271897
  31
0.000000
  0
LINE
  8
0
  10
-11.053776
  20
4.271897
  30
0.000000
  11
-10.968936
  21
4.229477
  31
0.000000
  0
LINE
  8
0
  10
-10.968936
  20
4.229477
  30
0.000000
  11
-10.926516
  21
4.187057
  31
0.000000
  0
LINE
  8
0
  10
-10.926516
  20
4.187057
  30
0.000000
  11
-10.884096
  21
4.102216
  31
0.000000
  0
LINE
  8
0
  10
-10.884096
  20
4.102216
  30
0.000000
  11
-10.884096
  21
4.017376
  31
0.000000
  0
LINE
  8
0
  10
-10.884096
  20
4.017376
  30
0.000000
  11
-10.926516
  21
3.932536
  31
0.000000
  0
LINE
  8
0
  10
-10.926516
  20
3.932536
  30
0.000000
  11
-11.011356
  21
3.805276
  31
0.000000
  0
LINE
  8
0
  10
-11.011356
  20
3.805276
  30
0.000000
  11
-11.435557
  21
3.381075
  31
0.000000
  0
LINE
  8
0
  10
-11.435557
  20
3.381075
  30
0.000000
  11
-10.841676
  21
3.381075
  31
0.000000
  0
LINE
  8
0
  10
-10.162954
  20
4.271897
  30
0.000000
  11
-10.587155
  21
3.678015
  31
0.000000
  0
LINE
  8
0
  10
-10.587155
  20
3.678015
  30
0.000000
  11
-9.950854
  21
3.678015
  31
0.000000
  0
LINE
  8
0
  10
-10.162954
  20
4.271897
  30
0.000000
  11
-10.162954
  21
3.381075
  31
0.000000
  0
LINE
  8
0
  10
13.047447
  20
-8.406596
  30
0.000000
  11
7.836690
  21
-11.332927
  31
0.000000
  0
LINE
  8
0
  10
12.971329
  20
-0.241985
  30
0.000000
  11
7.760572
  21
-3.168316
  31
0.000000
  0
LINE
  8
0
  10
8.421537
  20
-11.004480
  30
0.000000
  11
8.390850
  21
-7.712866
  31
0.000000
  0
LINE
  8
0
  10
8.376096
  20
-6.130412
  30
0.000000
  11
8.345419
  21
-2.839869
  31
0.000000
  0
LINE
  8
0
  10
8.345419
  20
-2.839869
  30
0.000000
  11
8.588002
  21
-3.527109
  31
0.000000
  0
LINE
  8
0
  10
8.421537
  20
-11.004480
  30
0.000000
  11
8.178954
  21
-10.317240
  31
0.000000
  0
LINE
  8
0
  10
8.421537
  20
-11.004480
  30
0.000000
  11
8.648846
  21
-10.053352
  31
0.000000
  0
LINE
  8
0
  10
8.345419
  20
-2.839869
  30
0.000000
  11
8.118110
  21
-3.790998
  31
0.000000
  0
LINE
  8
0
  10
6.729089
  20
-6.667119
  30
0.000000
  11
6.813929
  21
-6.624699
  31
0.000000
  0
LINE
  8
0
  10
6.813929
  20
-6.624699
  30
0.000000
  11
6.941190
  21
-6.497438
  31
0.000000
  0
LINE
  8
0
  10
6.941190
  20
-6.497438
  30
0.000000
  11
6.941190
  21
-7.388260
  31
0.000000
  0
LINE
  8
0
  10
-17.703812
  20
3.851020
  30
0.000000
  11
-23.078272
  21
0.957629
  31
0.000000
  0
LINE
  8
0
  10
-10.881756
  20
-0.327953
  30
0.000000
  11
-16.256216
  21
-3.221344
  31
0.000000
  0
LINE
  8
0
  10
-22.484931
  20
1.277060
  30
0.000000
  11
-19.821830
  21
-0.354271
  31
0.000000
  0
LINE
  8
0
  10
-17.238518
  20
-1.936725
  30
0.000000
  11
-15.662875
  21
-2.901913
  31
0.000000
  0
LINE
  8
0
  10
-15.662875
  20
-2.901913
  30
0.000000
  11
-16.108997
  21
-2.354299
  31
0.000000
  0
LINE
  8
0
  10
-22.484931
  20
1.277060
  30
0.000000
  11
-22.038808
  21
0.729446
  31
0.000000
  0
LINE
  8
0
  10
-22.484931
  20
1.277060
  30
0.000000
  11
-21.562091
  21
0.986091
  31
0.000000
  0
LINE
  8
0
  10
-15.662875
  20
-2.901913
  30
0.000000
  11
-16.585714
  21
-2.610944
  31
0.000000
  0
LINE
  8
0
  10
-20.184557
  20
-0.890977
  30
0.000000
  11
-20.099717
  21
-0.848557
  31
0.000000
  0
LINE
  8
0
  10
-20.099717
  20
-0.848557
  30
0.000000
  11
-19.972457
  21
-0.721297
  31
0.000000
  0
LINE
  8
0
  10
-19.972457
  20
-0.721297
  30
0.000000
  11
-19.972457
  21
-1.612119
  31
0.000000
  0
LINE
  8
0
  10
-5.893187
  20
-26.114144
  30
0.000000
  11
-5.843772
  21
-31.970858
  31
0.000000
  0
LINE
  8
0
  10
4.342504
  20
-20.536007
  30
0.000000
  11
4.391919
  21
-26.392721
  31
0.000000
  0
LINE
  8
0
  10
-5.849359
  20
-31.308650
  30
0.000000
  11
-2.393375
  21
-29.425244
  31
0.000000
  0
LINE
  8
0
  10
0.510374
  20
-27.842790
  30
0.000000
  11
4.386331
  21
-25.730512
  31
0.000000
  0
LINE
  8
0
  10
4.386331
  20
-25.730512
  30
0.000000
  11
3.650527
  21
-25.864256
  31
0.000000
  0
LINE
  8
0
  10
-5.849359
  20
-31.308650
  30
0.000000
  11
-5.113556
  21
-31.174906
  31
0.000000
  0
LINE
  8
0
  10
-5.849359
  20
-31.308650
  30
0.000000
  11
-5.118045
  21
-30.642859
  31
0.000000
  0
LINE
  8
0
  10
4.386331
  20
-25.730512
  30
0.000000
  11
3.655016
  21
-26.396303
  31
0.000000
  0
LINE
  8
0
  10
-2.595884
  20
-28.379497
  30
0.000000
  11
-2.511044
  21
-28.337077
  31
0.000000
  0
LINE
  8
0
  10
-2.511044
  20
-28.337077
  30
0.000000
  11
-2.383784
  21
-28.209816
  31
0.000000
  0
LINE
  8
0
  10
-2.383784
  20
-28.209816
  30
0.000000
  11
-2.383784
  21
-29.100638
  31
0.000000
  0
LINE
  8
0
  10
-1.450542
  20
-28.209816
  30
0.000000
  11
-1.874743
  21
-28.803698
  31
0.000000
  0
LINE
  8
0
  10
-1.874743
  20
-28.803698
  30
0.000000
  11
-1.238441
  21
-28.803698
  31
0.000000
  0
LINE
  8
0
  10
-1.450542
  20
-28.209816
  30
0.000000
  11
-1.450542
  21
-29.100638
  31
0.000000
  0
LINE
  8
0
  10
16.607914
  20
6.030546
  30
0.000000
  11
16.777334
  21
4.607668
  31
0.000000
  0
LINE
  8
0
  10
16.777334
  20
4.607668
  30
0.000000
  11
16.853452
  21
-3.556943
  31
0.000000
  0
LINE
  8
0
  10
16.853452
  20
-3.556943
  30
0.000000
  11
16.513933
  21
-4.972814
  31
0.000000
  0
LINE
  8
0
  10
16.513933
  20
-4.972814
  30
0.000000
  11
15.702122
  21
-6.294544
  31
0.000000
  0
LINE
  8
0
  10
15.702122
  20
-6.294544
  30
0.000000
  11
14.507221
  21
-7.452864
  31
0.000000
  0
LINE
  8
0
  10
14.507221
  20
-7.452864
  30
0.000000
  11
13.047447
  21
-8.406596
  31
0.000000
  0
LINE
  8
0
  10
13.047447
  20
-8.406596
  30
0.000000
  11
4.273998
  21
-13.187857
  31
0.000000
  0
LINE
  8
0
  10
4.273998
  20
-13.187857
  30
0.000000
  11
4.342504
  21
-20.536007
  31
0.000000
  0
LINE
  8
0
  10
4.342504
  20
-20.536007
  30
0.000000
  11
-5.893187
  21
-26.114144
  31
0.000000
  0
LINE
  8
0
  10
-5.893187
  20
-26.114144
  30
0.000000
  11
-10.668626
  21
-23.188864
  31
0.000000
  0
LINE
  8
0
  10
-10.668626
  20
-23.188864
  30
0.000000
  11
-17.979834
  21
-27.173247
  31
0.000000
  0
LINE
  8
0
  10
-17.979834
  20
-27.173247
  30
0.000000
  11
-20.387054
  21
-28.163688
  31
0.000000
  0
LINE
  8
0
  10
-20.387054
  20
-28.163688
  30
0.000000
  11
-22.730143
  21
-28.456984
  31
0.000000
  0
LINE
  8
0
  10
-22.730143
  20
-28.456984
  30
0.000000
  11
-24.797745
  21
-27.996017
  31
0.000000
  0
LINE
  8
0
  10
-24.797745
  20
-27.996017
  30
0.000000
  11
-31.619801
  21
-23.817044
  31
0.000000
  0
LINE
  8
0
  10
-31.619801
  20
-23.817044
  30
0.000000
  11
-33.247499
  21
-22.673217
  31
0.000000
  0
LINE
  8
0
  10
-33.247499
  20
-22.673217
  30
0.000000
  11
-24.847560
  21
-18.095508
  31
0.000000
  0
LINE
  8
0
  10
-24.847560
  20
-18.095508
  30
0.000000
  11
-22.698862
  21
-16.463603
  31
0.000000
  0
LINE
  8
0
  10
-22.698862
  20
-16.463603
  30
0.000000
  11
-20.729552
  21
-13.928513
  31
0.000000
  0
LINE
  8
0
  10
-20.729552
  20
-13.928513
  30
0.000000
  11
-19.447740
  21
-11.004393
  31
0.000000
  0
LINE
  8
0
  10
-19.447740
  20
-11.004393
  30
0.000000
  11
-19.273483
  21
-9.824842
  31
0.000000
  0
LINE
  8
0
  10
15.955708
  20
7.372433
  30
0.000000
  11
16.607914
  21
6.030546
  31
0.000000
  0
LINE
  8
0
  10
14.901476
  20
8.561719
  30
0.000000
  11
15.955708
  21
7.372433
  31
0.000000
  0
LINE
  8
0
  10
12.238147
  20
2.777166
  30
0.000000
  11
13.029686
  21
4.659266
  31
0.000000
  0
LINE
  8
0
  10
10.413058
  20
1.325130
  30
0.000000
  11
12.238147
  21
2.777166
  31
0.000000
  0
LINE
  8
0
  10
7.797639
  20
0.357225
  30
0.000000
  11
10.413058
  21
1.325130
  31
0.000000
  0
LINE
  8
0
  10
4.499509
  20
0.010581
  30
0.000000
  11
7.797639
  21
0.357225
  31
0.000000
  0
LINE
  8
0
  10
13.558311
  20
9.554043
  30
0.000000
  11
14.901476
  21
8.561719
  31
0.000000
  0
LINE
  8
0
  10
11.922207
  20
10.386724
  30
0.000000
  11
13.558311
  21
9.554043
  31
0.000000
  0
LINE
  8
0
  10
9.928917
  20
11.064252
  30
0.000000
  11
11.922207
  21
10.386724
  31
0.000000
  0
LINE
  8
0
  10
8.848216
  20
0.746019
  30
0.000000
  11
8.397518
  21
0.933556
  31
0.000000
  0
LINE
  8
0
  10
8.397518
  20
0.933556
  30
0.000000
  11
5.146333
  21
1.370372
  31
0.000000
  0
LINE
  8
0
  10
5.146333
  20
1.370372
  30
0.000000
  11
4.139259
  21
1.264525
  31
0.000000
  0
LINE
  8
0
  10
7.648485
  20
11.518805
  30
0.000000
  11
9.928917
  21
11.064252
  31
0.000000
  0
LINE
  8
0
  10
5.199921
  20
11.699620
  30
0.000000
  11
7.648485
  21
11.518805
  31
0.000000
  0
LINE
  8
0
  10
4.150513
  20
0.057471
  30
0.000000
  11
4.499509
  21
0.010581
  31
0.000000
  0
LINE
  8
0
  10
-12.243561
  20
12.354438
  30
0.000000
  11
4.129374
  21
2.324904
  31
0.000000
  0
LINE
  8
0
  10
4.129374
  20
2.324904
  30
0.000000
  11
4.197880
  21
-5.023246
  31
0.000000
  0
LINE
  8
0
  10
-5.863219
  20
8.446045
  30
0.000000
  11
-3.401605
  21
9.787549
  31
0.000000
  0
LINE
  8
0
  10
-3.401605
  20
9.787549
  30
0.000000
  11
-1.668492
  21
10.573842
  31
0.000000
  0
LINE
  8
0
  10
-1.668492
  20
10.573842
  30
0.000000
  11
0.402641
  21
11.195411
  31
0.000000
  0
LINE
  8
0
  10
0.402641
  20
11.195411
  30
0.000000
  11
2.733742
  21
11.586472
  31
0.000000
  0
LINE
  8
0
  10
2.733742
  20
11.586472
  30
0.000000
  11
5.199921
  21
11.699620
  31
0.000000
  0
LINE
  8
0
  10
-22.267762
  20
-15.908647
  30
0.000000
  11
-22.309058
  21
-11.479137
  31
0.000000
  0
LINE
  8
0
  10
-22.427977
  20
1.276495
  30
0.000000
  11
-22.479252
  21
6.776301
  31
0.000000
  0
LINE
  8
0
  10
-22.479252
  20
6.776301
  30
0.000000
  11
-12.243561
  21
12.354438
  31
0.000000
  0
LINE
  8
0
  10
-13.993614
  20
-8.870283
  30
0.000000
  11
-15.990044
  21
-8.496400
  31
0.000000
  0
LINE
  8
0
  10
-15.990044
  20
-8.496400
  30
0.000000
  11
-18.147293
  21
-9.211103
  31
0.000000
  0
LINE
  8
0
  10
-18.147293
  20
-9.211103
  30
0.000000
  11
-26.547231
  21
-13.788812
  31
0.000000
  0
LINE
  8
0
  10
-26.547231
  20
-13.788812
  30
0.000000
  11
-33.369287
  21
-9.609839
  31
0.000000
  0
LINE
  8
0
  10
-33.369287
  20
-9.609839
  30
0.000000
  11
-31.779265
  21
-6.712454
  31
0.000000
  0
LINE
  8
0
  10
-31.779265
  20
-6.712454
  30
0.000000
  11
-29.741119
  21
-4.013980
  31
0.000000
  0
LINE
  8
0
  10
-29.741119
  20
-4.013980
  30
0.000000
  11
-27.416277
  21
-1.763396
  31
0.000000
  0
LINE
  8
0
  10
-27.416277
  20
-1.763396
  30
0.000000
  11
-25.015020
  21
-0.133364
  31
0.000000
  0
LINE
  8
0
  10
-25.015020
  20
-0.133364
  30
0.000000
  11
-17.703812
  21
3.851020
  31
0.000000
  0
LINE
  8
0
  10
16.607914
  20
6.030546
  30
0.000000
  11
15.955708
  21
7.372433
  31
0.000000
  0
LINE
  8
0
  10
15.955708
  20
7.372433
  30
0.000000
  11
14.901476
  21
8.561719
  31
0.000000
  0
LINE
  8
0
  10
14.901476
  20
8.561719
  30
0.000000
  11
15.955708
  21
7.372433
  31
0.000000
  0
LINE
  8
0
  10
15.955708
  20
7.372433
  30
0.000000
  11
16.607914
  21
6.030546
  31
0.000000
  0
LINE
  8
0
  10
15.626004
  20
1.870067
  30
0.000000
  11
14.431103
  21
0.711747
  31
0.000000
  0
LINE
  8
0
  10
14.431103
  20
0.711747
  30
0.000000
  11
12.971329
  21
-0.241985
  31
0.000000
  0
LINE
  8
0
  10
12.971329
  20
-0.241985
  30
0.000000
  11
4.197880
  21
-5.023246
  31
0.000000
  0
LINE
  8
0
  10
4.197880
  20
-5.023246
  30
0.000000
  11
12.971329
  21
-0.241985
  31
0.000000
  0
LINE
  8
0
  10
12.971329
  20
-0.241985
  30
0.000000
  11
14.431103
  21
0.711747
  31
0.000000
  0
LINE
  8
0
  10
14.431103
  20
0.711747
  30
0.000000
  11
15.626004
  21
1.870067
  31
0.000000
  0
LINE
  8
0
  10
-10.668626
  20
-23.188864
  30
0.000000
  11
-10.881756
  21
-0.327953
  31
0.000000
  0
LINE
  8
0
  10
-10.881756
  20
-0.327953
  30
0.000000
  11
-18.192964
  21
-4.312337
  31
0.000000
  0
LINE
  8
0
  10
-18.192964
  20
-4.312337
  30
0.000000
  11
-25.015020
  21
-0.133364
  31
0.000000
  0
LINE
  8
0
  10
-25.015020
  20
-0.133364
  30
0.000000
  11
-27.416277
  21
-1.763396
  31
0.000000
  0
LINE
  8
0
  10
-27.416277
  20
-1.763396
  30
0.000000
  11
-29.741119
  21
-4.013980
  31
0.000000
  0
LINE
  8
0
  10
-29.741119
  20
-4.013980
  30
0.000000
  11
-27.416277
  21
-1.763396
  31
0.000000
  0
LINE
  8
0
  10
-27.416277
  20
-1.763396
  30
0.000000
  11
-25.015020
  21
-0.133364
  31
0.000000
  0
LINE
  8
0
  10
-25.015020
  20
-0.133364
  30
0.000000
  11
-17.703812
  21
3.851020
  31
0.000000
  0
LINE
  8
0
  10
-17.703812
  20
3.851020
  30
0.000000
  11
-22.479252
  21
6.776301
  31
0.000000
  0
LINE
  8
0
  10
-22.479252
  20
6.776301
  30
0.000000
  11
-22.427977
  21
1.276495
  31
0.000000
  0
LINE
  8
0
  10
-22.427977
  20
1.276495
  30
0.000000
  11
-22.479252
  21
6.776301
  31
0.000000
  0
LINE
  8
0
  10
-22.479252
  20
6.776301
  30
0.000000
  11
-12.243561
  21
12.354438
  31
0.000000
  0
LINE
  8
0
  10
-12.243561
  20
12.354438
  30
0.000000
  11
-22.479252
  21
6.776301
  31
0.000000
  0
LINE
  8
0
  10
-22.479252
  20
6.776301
  30
0.000000
  11
-17.703812
  21
3.851020
  31
0.000000
  0
LINE
  8
0
  10
-17.703812
  20
3.851020
  30
0.000000
  11
-25.015020
  21
-0.133364
  31
0.000000
  0
LINE
  8
0
  10
-25.015020
  20
-0.133364
  30
0.000000
  11
-18.192964
  21
-4.312337
  31
0.000000
  0
LINE
  8
0
  10
-18.192964
  20
-4.312337
  30
0.000000
  11
-10.881756
  21
-0.327953
  31
0.000000
  0
LINE
  8
0
  10
-10.881756
  20
-0.327953
  30
0.000000
  11
-6.106317
  21
-3.253233
  31
0.000000
  0
LINE
  8
0
  10
-6.106317
  20
-3.253233
  30
0.000000
  11
-5.893187
  21
-26.114144
  31
0.000000
  0
LINE
  8
0
  10
-5.893187
  20
-26.114144
  30
0.000000
  11
-10.668626
  21
-23.188864
  31
0.000000
  0
ENDSEC
  0
EOF
