999
dxfrw 0.6.3
  0
SECTION
  2
HEADER
  9
$ACADVER
  1
AC1021
  9
$DWGCODEPAGE
  3
ANSI_1252
  9
$INSBASE
 10
0
 20
0
 30
0
  9
$EXTMIN
 10
1e+020
 20
1e+020
 30
1e+020
  9
$EXTMAX
 10
-1e+020
 20
-1e+020
 30
-1e+020
  9
$LIMMIN
 10
0
 20
0
  9
$LIMMAX
 10
420
 20
297
  9
$ORTHOMODE
 70
    0
  9
$REGENMODE
 70
    1
  9
$FILLMODE
 70
    1
  9
$QTEXTMODE
 70
    0
  9
$MIRRTEXT
 70
    0
  9
$LTSCALE
 40
1
  9
$ATTMODE
 70
    0
  9
$TEXTSIZE
 40
2.5
  9
$TRACEWID
 40
15.68
  9
$TEXTSTYLE
  7
STANDARD
  9
$CLAYER
  8
0
  9
$CELTYPE
  6
BYLAYER
  9
$CECOLOR
 62
  256
  9
$CELTSCALE
 40
1
  9
$DISPSILH
 70
    0
  9
$DIMSCALE
 40
1
  9
$DIMASZ
 40
2.5
  9
$DIMEXO
 40
0.625
  9
$DIMDLI
 40
3.75
  9
$DIMRND
 40
0
  9
$DIMDLE
 40
0
  9
$DIMEXE
 40
1.25
  9
$DIMTP
 40
0
  9
$DIMTM
 40
0
  9
$DIMTXT
 40
2.5
  9
$DIMCEN
 40
2.5
  9
$DIMTSZ
 40
0
  9
$DIMTOL
 70
    0
  9
$DIMLIM
 70
    0
  9
$DIMTIH
 70
    0
  9
$DIMTOH
 70
    0
  9
$DIMSE1
 70
    0
  9
$DIMSE2
 70
    0
  9
$DIMTAD
 70
    1
  9
$DIMZIN
 70
    8
  9
$DIMBLK
  1

  9
$DIMASO
 70
    1
  9
$DIMSHO
 70
    1
  9
$DIMPOST
  1

  9
$DIMAPOST
  1

  9
$DIMALT
 70
    0
  9
$DIMALTD
 70
    3
  9
$DIMALTF
 40
0.03937
  9
$DIMLFAC
 40
1
  9
$DIMTOFL
 70
    1
  9
$DIMTVP
 40
0
  9
$DIMTIX
 70
    0
  9
$DIMSOXD
 70
    0
  9
$DIMSAH
 70
    0
  9
$DIMBLK1
  1

  9
$DIMBLK2
  1

  9
$DIMSTYLE
  2
STANDARD
  9
$DIMCLRD
 70
    0
  9
$DIMCLRE
 70
    0
  9
$DIMCLRT
 70
    0
  9
$DIMTFAC
 40
1
  9
$DIMGAP
 40
0.625
  9
$DIMJUST
 70
    0
  9
$DIMSD1
 70
    0
  9
$DIMSD2
 70
    0
  9
$DIMTOLJ
 70
    0
  9
$DIMTZIN
 70
    8
  9
$DIMALTZ
 70
    0
  9
$DIMALTTZ
 70
    0
  9
$DIMUPT
 70
    0
  9
$DIMDEC
 70
    2
  9
$DIMTDEC
 70
    2
  9
$DIMALTU
 70
    2
  9
$DIMALTTD
 70
    3
  9
$DIMTXSTY
  7
STANDARD
  9
$DIMAUNIT
 70
    0
  9
$DIMADEC
 70
    0
  9
$DIMALTRND
 40
0
  9
$DIMAZIN
 70
    0
  9
$DIMDSEP
 70
   44
  9
$DIMATFIT
 70
    3
  9
$DIMFRAC
 70
    0
  9
$DIMLDRBLK
  1
STANDARD
  9
$DIMLUNIT
 70
    2
  9
$DIMLWD
 70
   -2
  9
$DIMLWE
 70
   -2
  9
$DIMTMOVE
 70
    0
  9
$DIMFXL
 40
1
  9
$DIMFXLON
 70
    0
  9
$DIMJOGANG
 40
0.7854
  9
$DIMTFILL
 70
    0
  9
$DIMTFILLCLR
 70
    0
  9
$DIMARCSYM
 70
    0
  9
$DIMLTYPE
  6

  9
$DIMLTEX1
  6

  9
$DIMLTEX2
  6

  9
$LUNITS
 70
    2
  9
$LUPREC
 70
    4
  9
$SKETCHINC
 40
1
  9
$FILLETRAD
 40
0
  9
$AUNITS
 70
    0
  9
$AUPREC
 70
    2
  9
$MENU
  1
.
  9
$ELEVATION
 40
0
  9
$PELEVATION
 40
0
  9
$THICKNESS
 40
0
  9
$LIMCHECK
 70
    0
  9
$CHAMFERA
 40
0
  9
$CHAMFERB
 40
0
  9
$CHAMFERC
 40
0
  9
$CHAMFERD
 40
0
  9
$SKPOLY
 70
    0
  9
$USRTIMER
 70
    1
  9
$ANGBASE
 50
0
  9
$ANGDIR
 70
    0
  9
$PDMODE
 70
   34
  9
$PDSIZE
 40
0
  9
$PLINEWID
 40
0
  9
$SPLFRAME
 70
    0
  9
$SPLINETYPE
 70
    2
  9
$SPLINESEGS
 70
    8
  9
$HANDSEED
  5
20000
  9
$SURFTAB1
 70
    6
  9
$SURFTAB2
 70
    6
  9
$SURFTYPE
 70
    6
  9
$SURFU
 70
    6
  9
$SURFV
 70
    6
  9
$UCSBASE
  2

  9
$UCSNAME
  2

  9
$UCSORG
 10
0
 20
0
 30
0
  9
$UCSXDIR
 10
1
 20
0
 30
0
  9
$UCSYDIR
 10
0
 20
1
 30
0
  9
$UCSORTHOREF
  2

  9
$UCSORTHOVIEW
 70
    0
  9
$UCSORGTOP
 10
0
 20
0
 30
0
  9
$UCSORGBOTTOM
 10
0
 20
0
 30
0
  9
$UCSORGLEFT
 10
0
 20
0
 30
0
  9
$UCSORGRIGHT
 10
0
 20
0
 30
0
  9
$UCSORGFRONT
 10
0
 20
0
 30
0
  9
$UCSORGBACK
 10
0
 20
0
 30
0
  9
$PUCSBASE
  2

  9
$PUCSNAME
  2

  9
$PUCSORG
 10
0
 20
0
 30
0
  9
$PUCSXDIR
 10
1
 20
0
 30
0
  9
$PUCSYDIR
 10
0
 20
1
 30
0
  9
$PUCSORTHOREF
  2

  9
$PUCSORTHOVIEW
 70
    0
  9
$PUCSORGTOP
 10
0
 20
0
 30
0
  9
$PUCSORGBOTTOM
 10
0
 20
0
 30
0
  9
$PUCSORGLEFT
 10
0
 20
0
 30
0
  9
$PUCSORGRIGHT
 10
0
 20
0
 30
0
  9
$PUCSORGFRONT
 10
0
 20
0
 30
0
  9
$PUCSORGBACK
 10
0
 20
0
 30
0
  9
$USERI1
 70
    0
  9
$USERI2
 70
    0
  9
$USERI3
 70
    0
  9
$USERI4
 70
    0
  9
$USERI5
 70
    0
  9
$USERR1
 40
0
  9
$USERR2
 40
0
  9
$USERR3
 40
0
  9
$USERR4
 40
0
  9
$USERR5
 40
0
  9
$WORLDVIEW
 70
    1
  9
$SHADEDGE
 70
    3
  9
$SHADEDIF
 70
   70
  9
$TILEMODE
 70
    1
  9
$MAXACTVP
 70
   64
  9
$PINSBASE
 10
0
 20
0
 30
0
  9
$PLIMCHECK
 70
    0
  9
$PEXTMIN
 10
0
 20
0
 30
0
  9
$PEXTMAX
 10
0
 20
0
 30
0
  9
$PLIMMIN
 10
0
 20
0
  9
$PLIMMAX
 10
297
 20
210
  9
$UNITMODE
 70
    0
  9
$VISRETAIN
 70
    1
  9
$PLINEGEN
 70
    0
  9
$PSLTSCALE
 70
    1
  9
$TREEDEPTH
 70
 3020
  9
$CMLSTYLE
  2
Standard
  9
$CMLJUST
 70
    0
  9
$CMLSCALE
 40
20
  9
$PROXYGRAPHICS
 70
    1
  9
$MEASUREMENT
 70
    1
  9
$CELWEIGHT
370
   -1
  9
$ENDCAPS
280
    0
  9
$JOINSTYLE
280
    0
  9
$LWDISPLAY
290
    0
  9
$INSUNITS
 70
    0
  9
$HYPERLINKBASE
  1

  9
$STYLESHEET
  1

  9
$XEDIT
290
    1
  9
$CEPSNTYPE
380
    0
  9
$PSTYLEMODE
290
    1
  9
$EXTNAMES
290
    1
  9
$PSVPSCALE
 40
0
  9
$OLESTARTUP
290
    0
  9
$SORTENTS
280
  127
  9
$INDEXCTL
280
    0
  9
$HIDETEXT
280
    1
  9
$XCLIPFRAME
290
    0
  9
$HALOGAP
280
    0
  9
$OBSCOLOR
 70
  257
  9
$OBSLTYPE
280
    0
  9
$INTERSECTIONDISPLAY
280
    0
  9
$INTERSECTIONCOLOR
 70
  257
  9
$DIMASSOC
280
    1
  9
$PROJECTNAME
  1

  9
$CAMERADISPLAY
290
    0
  9
$LENSLENGTH
 40
50
  9
$CAMERAHEIGHT
 40
0
  9
$STEPSPERSEC
 40
2
  9
$STEPSIZE
 40
50
  9
$3DDWFPREC
 40
2
  9
$PSOLWIDTH
 40
5
  9
$PSOLHEIGHT
 40
80
  9
$LOFTANG1
 40
1.570796326794897
  9
$LOFTANG2
 40
1.570796326794897
  9
$LOFTMAG1
 40
0
  9
$LOFTMAG2
 40
0
  9
$LOFTPARAM
 70
    7
  9
$LOFTNORMALS
280
    1
  9
$LATITUDE
 40
1
  9
$LONGITUDE
 40
1
  9
$NORTHDIRECTION
 40
0
  9
$TIMEZONE
 70
-8000
  9
$LIGHTGLYPHDISPLAY
280
    1
  9
$TILEMODELIGHTSYNCH
280
    1
  9
$SOLIDHIST
280
    1
  9
$SHOWHIST
280
    1
  9
$DWFFRAME
280
    2
  9
$DGNFRAME
280
    0
  9
$REALWORLDSCALE
290
    1
  9
$INTERFERECOLOR
 62
    1
  9
$CSHADOW
280
    0
  9
$SHADOWPLANELOCATION
 40
0
  0
ENDSEC
  0
SECTION
  2
CLASSES
  0
ENDSEC
  0
SECTION
  2
TABLES
  0
TABLE
  2
VPORT
  5
8
330
0
100
AcDbSymbolTable
 70
    1
  0
VPORT
  5
31
330
2
100
AcDbSymbolTableRecord
100
AcDbViewportTableRecord
  2
*ACTIVE
 70
    0
 10
0
 20
0
 11
1
 21
1
 12
0.651828
 22
-0.16
 13
0
 23
0
 14
10
 24
10
 15
10
 25
10
 16
0
 26
0
 36
1
 17
0
 27
0
 37
0
 40
5.13732
 41
2.4426877
 42
50
 43
0
 44
0
 50
0
 51
0
 71
    0
 72
  100
 73
    1
 74
    3
 75
    0
 76
    0
 77
    0
 78
    0
281
    0
 65
    1
110
0
120
0
130
0
111
1
121
0
131
0
112
0
122
1
132
0
 79
    0
146
0
348
10020
 60
    7
 61
    5
292
1
282
    1
141
0
142
0
 63
  250
421
3358443
  0
ENDTAB
  0
TABLE
  2
LTYPE
  5
5
330
0
100
AcDbSymbolTable
 70
    4
  0
LTYPE
  5
14
330
5
100
AcDbSymbolTableRecord
100
AcDbLinetypeTableRecord
  2
ByBlock
 70
    0
  3

 72
   65
 73
    0
 40
0
  0
LTYPE
  5
15
330
5
100
AcDbSymbolTableRecord
100
AcDbLinetypeTableRecord
  2
ByLayer
 70
    0
  3

 72
   65
 73
    0
 40
0
  0
LTYPE
  5
16
330
5
100
AcDbSymbolTableRecord
100
AcDbLinetypeTableRecord
  2
Continuous
 70
    0
  3
Solid line
 72
   65
 73
    0
 40
0
  0
LTYPE
  5
32
330
5
100
AcDbSymbolTableRecord
100
AcDbLinetypeTableRecord
  2
DASHED
 70
    0
  3

 72
   65
 73
    2
 40
2
 49
1
 74
    0
 49
-1
 74
    0
  0
LTYPE
  5
33
330
5
100
AcDbSymbolTableRecord
100
AcDbLinetypeTableRecord
  2
DASHEDX2
 70
    0
  3

 72
   65
 73
    2
 40
3
 49
2
 74
    0
 49
-1
 74
    0
  0
LTYPE
  5
34
330
5
100
AcDbSymbolTableRecord
100
AcDbLinetypeTableRecord
  2
DASHDOT
 70
    0
  3

 72
   65
 73
    4
 40
3
 49
1
 74
    0
 49
-1
 74
    0
 49
0
 74
    0
 49
-1
 74
    0
  0
LTYPE
  5
35
330
5
100
AcDbSymbolTableRecord
100
AcDbLinetypeTableRecord
  2
DIVIDE
 70
    0
  3

 72
   65
 73
    6
 40
4
 49
1
 74
    0
 49
-1
 74
    0
 49
0
 74
    0
 49
-1
 74
    0
 49
0
 74
    0
 49
-1
 74
    0
  0
LTYPE
  5
36
330
5
100
AcDbSymbolTableRecord
100
AcDbLinetypeTableRecord
  2
DOT
 70
    0
  3

 72
   65
 73
    2
 40
1
 49
1
 74
    0
 49
0
 74
    0
  0
ENDTAB
  0
TABLE
  2
LAYER
  5
2
330
0
100
AcDbSymbolTable
 70
    1
  0
LAYER
  5
37
330
2
100
AcDbSymbolTableRecord
100
AcDbLayerTableRecord
  2
dimensions
 70
    0
 62
    7
  6
CONTINUOUS
370
   -3
390
F
  0
LAYER
  5
38
330
2
100
AcDbSymbolTableRecord
100
AcDbLayerTableRecord
  2
text
 70
    0
 62
    7
  6
CONTINUOUS
370
   -3
390
F
  0
LAYER
  5
39
330
2
100
AcDbSymbolTableRecord
100
AcDbLayerTableRecord
  2
s005-#def-solid-edge
 70
    0
 62
    7
  6
CONTINUOUS
370
   -3
390
F
  0
LAYER
  5
3A
330
2
100
AcDbSymbolTableRecord
100
AcDbLayerTableRecord
  2
s00e-#def-invisible
 70
    0
 62
    7
  6
CONTINUOUS
370
   -3
390
F
  0
LAYER
  5
3B
330
2
100
AcDbSymbolTableRecord
100
AcDbLayerTableRecord
  2
s00f-#def-silhouette
 70
    0
 62
    7
  6
CONTINUOUS
370
   -3
390
F
  0
LAYER
  5
10
330
2
100
AcDbSymbolTableRecord
100
AcDbLayerTableRecord
  2
0
 70
    0
 62
    7
  6
CONTINUOUS
370
   -3
390
F
  0
ENDTAB
  0
TABLE
  2
STYLE
  5
3
330
0
100
AcDbSymbolTable
 70
    3
  0
STYLE
  5
3C
330
2
100
AcDbSymbolTableRecord
100
AcDbTextStyleTableRecord
  2
unicode
 70
    0
 40
0
 41
1
 50
0
 71
    0
 42
1
  3
unicode
  4

  0
STYLE
  5
3D
330
2
100
AcDbSymbolTableRecord
100
AcDbTextStyleTableRecord
  2
Standard
 70
    0
 40
0
 41
1
 50
0
 71
    0
 42
1
  3
txt
  4

  0
ENDTAB
  0
TABLE
  2
VIEW
  5
6
330
0
100
AcDbSymbolTable
 70
    0
  0
ENDTAB
  0
TABLE
  2
UCS
  5
7
330
0
100
AcDbSymbolTable
 70
    0
  0
ENDTAB
  0
TABLE
  2
APPID
  5
9
330
0
100
AcDbSymbolTable
 70
    1
  0
APPID
  5
12
330
9
100
AcDbSymbolTableRecord
100
AcDbRegAppTableRecord
  2
ACAD
 70
    0
  0
ENDTAB
  0
TABLE
  2
DIMSTYLE
  5
A
330
0
100
AcDbSymbolTable
 70
    1
100
AcDbDimStyleTable
 71
    1
  0
DIMSTYLE
105
3E
330
A
100
AcDbSymbolTableRecord
100
AcDbDimStyleTableRecord
  2
Standard
 70
    0
 40
1
 41
2.5
 42
0.625
 43
3.75
 44
1.25
 45
0
 46
0
 47
0
 48
0
140
2.5
141
2.5
142
0
143
0.03937007874015748
144
1
145
0
146
1
147
0.625
148
0
 71
    0
 72
    0
 73
    0
 74
    0
 75
    0
 76
    0
 77
    1
 78
    8
 79
    0
170
    0
171
    3
172
    1
173
    0
174
    0
175
    0
176
    0
177
    0
178
    0
179
    0
271
    2
272
    2
273
    2
274
    3
275
    0
276
    0
277
    2
278
   44
279
    0
280
    0
281
    0
282
    0
283
    0
284
    8
285
    0
286
    0
288
    0
289
    3
341

371
   -2
372
   -2
  0
ENDTAB
  0
TABLE
  2
BLOCK_RECORD
  5
1
330
0
100
AcDbSymbolTable
 70
    2
  0
BLOCK_RECORD
  5
1F
330
1
100
AcDbSymbolTableRecord
100
AcDbBlockTableRecord
  2
*Model_Space
 70
    0
280
    1
281
    0
  0
BLOCK_RECORD
  5
1E
330
1
100
AcDbSymbolTableRecord
100
AcDbBlockTableRecord
  2
*Paper_Space
 70
    0
280
    1
281
    0
  0
ENDTAB
  0
ENDSEC
  0
SECTION
  2
BLOCKS
  0
BLOCK
  5
20
330
1F
100
AcDbEntity
  8
0
100
AcDbBlockBegin
  2
*Model_Space
 70
    0
 10
0
 20
0
 30
0
  3
*Model_Space
  1

  0
ENDBLK
  5
21
330
1F
100
AcDbEntity
  8
0
100
AcDbBlockEnd
  0
BLOCK
  5
1C
330
1B
100
AcDbEntity
  8
0
100
AcDbBlockBegin
  2
*Paper_Space
 70
    0
 10
0
 20
0
 30
0
  3
*Paper_Space
  1

  0
ENDBLK
  5
1D
330
1F
100
AcDbEntity
  8
0
100
AcDbBlockEnd
  0
ENDSEC
  0
SECTION
  2
ENTITIES
  0
LINE
  5
3F
100
AcDbEntity
  8
s00e-#def-invisible
  6
DASHED
 62
  256
420
    0
370
    5
100
AcDbLine
 10
-7.717927951829509
 20
8.33384601260447
 11
-9.015952696705998
 21
8.227339576889186
  0
LINE
  5
40
100
AcDbEntity
  8
s00e-#def-invisible
  6
DASHED
 62
  256
420
    0
370
    5
100
AcDbLine
 10
-9.015952696705998
 20
8.227339576889186
 11
-10.30283021562426
 21
6.925153543705648
  0
LINE
  5
41
100
AcDbEntity
  8
s00e-#def-invisible
  6
DASHED
 62
  256
420
    0
370
    5
100
AcDbLine
 10
-10.30283021562426
 20
6.925153543705648
 11
-10.82472511111502
 21
5.190090830559946
  0
LINE
  5
42
100
AcDbEntity
  8
s00e-#def-invisible
  6
DASHED
 62
  256
420
    0
370
    5
100
AcDbLine
 10
-10.82472511111502
 20
5.190090830559946
 11
-10.27591843153308
 21
4.038527643244979
  0
LINE
  5
43
100
AcDbEntity
  8
s00e-#def-invisible
  6
DASHED
 62
  256
420
    0
370
    5
100
AcDbLine
 10
-10.27591843153308
 20
4.038527643244979
 11
-8.977893686656582
 21
4.145034078960261
  0
LINE
  5
44
100
AcDbEntity
  8
s00e-#def-invisible
  6
DASHED
 62
  256
420
    0
370
    5
100
AcDbLine
 10
-8.977893686656582
 20
4.145034078960261
 11
-7.691016167738319
 21
5.447220112143805
  0
LINE
  5
45
100
AcDbEntity
  8
s00e-#def-invisible
  6
DASHED
 62
  256
420
    0
370
    5
100
AcDbLine
 10
-7.691016167738319
 20
5.447220112143805
 11
-7.169121272247562
 21
7.182282825289502
  0
LINE
  5
46
100
AcDbEntity
  8
s00e-#def-invisible
  6
DASHED
 62
  256
420
    0
370
    5
100
AcDbLine
 10
-7.169121272247562
 20
7.182282825289502
 11
-7.717927951829509
 21
8.33384601260447
  0
LINE
  5
47
100
AcDbEntity
  8
s005-#def-solid-edge
  6
CONTINUOUS
 62
  256
420
    0
370
    5
100
AcDbLine
 10
21.22924683397056
 20
7.809287803857529
 11
21.30536485406939
 21
-0.3553231920003164
  0
LINE
  5
48
100
AcDbEntity
  8
s005-#def-solid-edge
  6
CONTINUOUS
 62
  256
420
    0
370
    5
100
AcDbLine
 10
12.45579762068866
 20
3.02802701650659
 11
21.22924683397056
 21
7.809287803857529
  0
LINE
  5
49
100
AcDbEntity
  8
s005-#def-solid-edge
  6
CONTINUOUS
 62
  256
420
    0
370
    5
100
AcDbLine
 10
21.22924683397056
 20
7.809287803857529
 11
23.88392130189546
 21
9.921339919142788
  0
LINE
  5
4A
100
AcDbEntity
  8
s005-#def-solid-edge
  6
CONTINUOUS
 62
  256
420
    0
370
    5
100
AcDbLine
 10
23.88392130189546
 20
9.921339919142788
 11
25.03525153112906
 21
12.65894099237712
  0
LINE
  5
4B
100
AcDbEntity
  8
s00e-#def-invisible
  6
DASHED
 62
  256
420
    0
370
    5
100
AcDbLine
 10
20.57218254354663
 20
2.66382734103289
 11
18.74709384656862
 21
1.211791511432253
  0
LINE
  5
4C
100
AcDbEntity
  8
s00e-#def-invisible
  6
DASHED
 62
  256
420
    0
370
    5
100
AcDbLine
 10
18.74709384656862
 20
1.211791511432253
 11
16.13167471263381
 21
0.2438867393677189
  0
LINE
  5
4D
100
AcDbEntity
  8
s00e-#def-invisible
  6
DASHED
 62
  256
420
    0
370
    5
100
AcDbLine
 10
16.13167471263381
 20
0.2438867393677189
 11
12.83354460534241
 21
-0.1027570688266479
  0
LINE
  5
4E
100
AcDbEntity
  8
s00e-#def-invisible
  6
DASHED
 62
  256
420
    0
370
    5
100
AcDbLine
 10
12.83354460534241
 20
-0.1027570688266479
 11
9.582359705875213
 21
0.3340585325036471
  0
LINE
  5
4F
100
AcDbEntity
  8
s00e-#def-invisible
  6
DASHED
 62
  256
420
    0
370
    5
100
AcDbLine
 10
9.582359705875213
 20
0.3340585325036471
 11
7.087151295935623
 21
1.372327067680129
  0
LINE
  5
50
100
AcDbEntity
  8
s00e-#def-invisible
  6
DASHED
 62
  256
420
    0
370
    5
100
AcDbLine
 10
7.087151295935623
 20
1.372327067680129
 11
5.438941201706788
 21
2.872183712095263
  0
LINE
  5
51
100
AcDbEntity
  8
s00e-#def-invisible
  6
DASHED
 62
  256
420
    0
370
    5
100
AcDbLine
 10
5.438941201706788
 20
2.872183712095263
 11
4.874073184268768
 21
4.772959639428333
  0
LINE
  5
52
100
AcDbEntity
  8
s00e-#def-invisible
  6
DASHED
 62
  256
420
    0
370
    5
100
AcDbLine
 10
4.874073184268768
 20
4.772959639428333
 11
5.665612716587225
 21
6.655060376934909
  0
LINE
  5
53
100
AcDbEntity
  8
s00e-#def-invisible
  6
DASHED
 62
  256
420
    0
370
    5
100
AcDbLine
 10
5.665612716587225
 20
6.655060376934909
 11
7.490701413565237
 21
8.10709620653555
  0
LINE
  5
54
100
AcDbEntity
  8
s00e-#def-invisible
  6
DASHED
 62
  256
420
    0
370
    5
100
AcDbLine
 10
7.490701413565237
 20
8.10709620653555
 11
10.10612054750005
 21
9.075000978600087
  0
LINE
  5
55
100
AcDbEntity
  8
s00e-#def-invisible
  6
DASHED
 62
  256
420
    0
370
    5
100
AcDbLine
 10
10.10612054750005
 20
9.075000978600087
 11
12.39717722901849
 21
9.315798214317056
  0
LINE
  5
56
100
AcDbEntity
  8
s00e-#def-invisible
  6
DASHED
 62
  256
420
    0
370
    5
100
AcDbLine
 10
25.11136955122789
 20
4.494329996519276
 11
24.28974334404531
 21
7.25909498173101
  0
LINE
  5
57
100
AcDbEntity
  8
s00e-#def-invisible
  6
DASHED
 62
  256
420
    0
370
    5
100
AcDbLine
 10
24.28974334404531
 20
7.25909498173101
 11
21.89234684334883
 21
9.44070464633484
  0
LINE
  5
58
100
AcDbEntity
  8
s00e-#def-invisible
  6
DASHED
 62
  256
420
    0
370
    5
100
AcDbLine
 10
21.89234684334883
 20
9.44070464633484
 11
18.26295279252761
 21
10.95091342477336
  0
LINE
  5
59
100
AcDbEntity
  8
s00e-#def-invisible
  6
DASHED
 62
  256
420
    0
370
    5
100
AcDbLine
 10
18.26295279252761
 20
10.95091342477336
 11
13.53395657512079
 21
11.58628157216289
  0
LINE
  5
5A
100
AcDbEntity
  8
s00e-#def-invisible
  6
DASHED
 62
  256
420
    0
370
    5
100
AcDbLine
 10
13.53395657512079
 20
11.58628157216289
 11
8.736676419060558
 21
11.08207239660744
  0
LINE
  5
5B
100
AcDbEntity
  8
s00e-#def-invisible
  6
DASHED
 62
  256
420
    0
370
    5
100
AcDbLine
 10
8.736676419060558
 20
11.08207239660744
 11
4.932430406064466
 21
9.674210909968116
  0
LINE
  5
5C
100
AcDbEntity
  8
s00e-#def-invisible
  6
DASHED
 62
  256
420
    0
370
    5
100
AcDbLine
 10
4.932430406064466
 20
9.674210909968116
 11
4.856312385965634
 21
17.83882190582596
  0
LINE
  5
5D
100
AcDbEntity
  8
s005-#def-solid-edge
  6
CONTINUOUS
 62
  256
420
    0
370
    5
100
AcDbLine
 10
20.72273603809001
 20
14.61131500207953
 11
21.28760405576626
 21
12.71053907439732
  0
LINE
  5
5E
100
AcDbEntity
  8
s005-#def-solid-edge
  6
CONTINUOUS
 62
  256
420
    0
370
    5
100
AcDbLine
 10
19.0745259440994
 20
16.11117164614552
 11
20.72273603809001
 21
14.61131500207953
  0
LINE
  5
5F
100
AcDbEntity
  8
s00e-#def-invisible
  6
DASHED
 62
  256
420
    0
370
    5
100
AcDbLine
 10
21.36372207586509
 20
4.545928078539468
 11
20.57218254354663
 21
2.66382734103289
  0
LINE
  5
60
100
AcDbEntity
  8
s00e-#def-invisible
  6
DASHED
 62
  256
420
    0
370
    5
100
AcDbLine
 10
20.79885405842707
 20
6.446704005872537
 11
21.36372207586509
 21
4.545928078539468
  0
LINE
  5
61
100
AcDbEntity
  8
s00e-#def-invisible
  6
DASHED
 62
  256
420
    0
370
    5
100
AcDbLine
 10
21.36372207586509
 20
4.545928078539468
 11
21.28760405576626
 21
12.71053907439732
  0
LINE
  5
62
100
AcDbEntity
  8
s005-#def-solid-edge
  6
CONTINUOUS
 62
  256
420
    0
370
    5
100
AcDbLine
 10
8.681918280266606
 20
-4.582313989824645
 11
7.395040761348344
 21
-5.884500023008176
  0
LINE
  5
63
100
AcDbEntity
  8
s005-#def-solid-edge
  6
CONTINUOUS
 62
  256
420
    0
370
    5
100
AcDbLine
 10
7.395040761348344
 20
-5.884500023008176
 11
6.09701601647187
 21
-5.991006458723472
  0
LINE
  5
64
100
AcDbEntity
  8
s005-#def-solid-edge
  6
CONTINUOUS
 62
  256
420
    0
370
    5
100
AcDbLine
 10
16.57931753415981
 20
17.149440181322
 11
19.0745259440994
 21
16.11117164614552
  0
LINE
  5
65
100
AcDbEntity
  8
s00e-#def-invisible
  6
DASHED
 62
  256
420
    0
370
    5
100
AcDbLine
 10
19.15064396419824
 20
7.946560650287672
 11
20.79885405842707
 21
6.446704005872537
  0
LINE
  5
66
100
AcDbEntity
  8
s00e-#def-invisible
  6
DASHED
 62
  256
420
    0
370
    5
100
AcDbLine
 10
17.10613372654595
 20
8.797291451428229
 11
19.15064396419824
 21
7.946560650287672
  0
LINE
  5
67
100
AcDbEntity
  8
s005-#def-solid-edge
  6
CONTINUOUS
 62
  256
420
    0
370
    5
100
AcDbLine
 10
16.57931753415981
 20
17.149440181322
 11
13.32813263469262
 21
17.5862557826523
  0
LINE
  5
68
100
AcDbEntity
  8
s005-#def-solid-edge
  6
CONTINUOUS
 62
  256
420
    0
370
    5
100
AcDbLine
 10
13.32813263469262
 20
17.5862557826523
 11
10.03000252679394
 21
17.23961197431661
  0
LINE
  5
69
100
AcDbEntity
  8
s005-#def-solid-edge
  6
CONTINUOUS
 62
  256
420
    0
370
    5
100
AcDbLine
 10
10.03000252679394
 20
17.23961197431661
 11
7.414583393466405
 21
16.27170720239339
  0
LINE
  5
6A
100
AcDbEntity
  8
s005-#def-solid-edge
  6
CONTINUOUS
 62
  256
420
    0
370
    5
100
AcDbLine
 10
7.414583393466405
 20
16.27170720239339
 11
5.589494696488391
 21
14.81967137279275
  0
LINE
  5
6B
100
AcDbEntity
  8
s005-#def-solid-edge
  6
CONTINUOUS
 62
  256
420
    0
370
    5
100
AcDbLine
 10
5.589494696488391
 20
14.81967137279275
 11
5.496066397357834
 21
14.59752015542707
  0
LINE
  5
6C
100
AcDbEntity
  8
s005-#def-solid-edge
  6
CONTINUOUS
 62
  256
420
    0
370
    5
100
AcDbLine
 10
12.38729140259971
 20
10.37617691277865
 11
2.151600653770824
 21
4.798039327535895
  0
LINE
  5
6D
100
AcDbEntity
  8
s005-#def-solid-edge
  6
CONTINUOUS
 62
  256
420
    0
370
    5
100
AcDbLine
 10
2.151600653770824
 20
4.798039327535895
 11
-2.623838560230613
 21
7.723320107276688
  0
LINE
  5
6E
100
AcDbEntity
  8
s005-#def-solid-edge
  6
CONTINUOUS
 62
  256
420
    0
370
    5
100
AcDbLine
 10
-2.623838560230613
 20
7.723320107276688
 11
-2.410708103953876
 21
-15.13759068112529
  0
LINE
  5
6F
100
AcDbEntity
  8
s00e-#def-invisible
  6
DASHED
 62
  256
420
    0
370
    5
100
AcDbLine
 10
-3.917136827316266
 20
13.05756111847503
 11
12.45579762068866
 21
3.02802701650659
  0
LINE
  5
70
100
AcDbEntity
  8
s00e-#def-invisible
  6
DASHED
 62
  256
420
    0
370
    5
100
AcDbLine
 10
-3.917136827316266
 20
13.05756111847503
 11
-3.985643045405219
 21
20.40571101474709
  0
LINE
  5
71
100
AcDbEntity
  8
s00e-#def-invisible
  6
DASHED
 62
  256
420
    0
370
    5
100
AcDbLine
 10
9.506241685776379
 20
8.498669528361491
 11
7.011033275836791
 21
9.536938063537974
  0
LINE
  5
72
100
AcDbEntity
  8
s00e-#def-invisible
  6
DASHED
 62
  256
420
    0
370
    5
100
AcDbLine
 10
7.011033275836791
 20
9.536938063537974
 11
5.362823181846183
 21
11.03679470760396
  0
LINE
  5
73
100
AcDbEntity
  8
s00e-#def-invisible
  6
DASHED
 62
  256
420
    0
370
    5
100
AcDbLine
 10
5.362823181846183
 20
11.03679470760396
 11
4.797955164169936
 21
12.93757063528617
  0
LINE
  5
74
100
AcDbEntity
  8
s00e-#def-invisible
  6
DASHED
 62
  256
420
    0
370
    5
100
AcDbLine
 10
4.797955164169936
 20
12.93757063528617
 11
5.496066397357834
 21
14.59752015542707
  0
LINE
  5
75
100
AcDbEntity
  8
s00e-#def-invisible
  6
DASHED
 62
  256
420
    0
370
    5
100
AcDbLine
 10
12.40843050353751
 20
8.108743580497945
 11
9.506241685776379
 21
8.498669528361491
  0
LINE
  5
76
100
AcDbEntity
  8
s005-#def-solid-edge
  6
CONTINUOUS
 62
  256
420
    0
370
    5
100
AcDbLine
 10
9.203813175757365
 20
-2.847251276678936
 11
8.681918280266606
 21
-4.582313989824645
  0
LINE
  5
77
100
AcDbEntity
  8
s005-#def-solid-edge
  6
CONTINUOUS
 62
  256
420
    0
370
    5
100
AcDbLine
 10
8.655006496175425
 20
-1.695688089363973
 11
9.203813175757365
 21
-2.847251276678936
  0
LINE
  5
78
100
AcDbEntity
  8
s00e-#def-invisible
  6
DASHED
 62
  256
420
    0
370
    5
100
AcDbLine
 10
12.53191564078749
 20
-5.136583979351261
 11
-3.841018807217434
 21
4.892950122617178
  0
LINE
  5
79
100
AcDbEntity
  8
s00e-#def-invisible
  6
DASHED
 62
  256
420
    0
370
    5
100
AcDbLine
 10
-3.841018807217434
 20
4.892950122617178
 11
-3.772512589128482
 21
-2.455199773654886
  0
LINE
  5
7A
100
AcDbEntity
  8
s00e-#def-invisible
  6
DASHED
 62
  256
420
    0
370
    5
100
AcDbLine
 10
-3.772512589128482
 20
-2.455199773654886
 11
12.60042185887644
 21
-12.48473387562332
  0
LINE
  5
7B
100
AcDbEntity
  8
s00e-#def-invisible
  6
DASHED
 62
  256
420
    0
370
    5
100
AcDbLine
 10
-16.54397180169085
 20
-14.94300212809756
 11
-9.232764123955928
 21
-10.95861813863844
  0
LINE
  5
7C
100
AcDbEntity
  8
s00e-#def-invisible
  6
DASHED
 62
  256
420
    0
370
    5
100
AcDbLine
 10
-9.232764123955928
 20
-10.95861813863844
 11
-14.00820333795737
 21
-8.033337358897647
  0
LINE
  5
7D
100
AcDbEntity
  8
s00e-#def-invisible
  6
DASHED
 62
  256
420
    0
370
    5
100
AcDbLine
 10
-14.00820333795737
 20
-8.033337358897647
 11
-3.772512589128482
 21
-2.455199773654886
  0
LINE
  5
7E
100
AcDbEntity
  8
s005-#def-solid-edge
  6
CONTINUOUS
 62
  256
420
    0
370
    5
100
AcDbLine
 10
2.364731110047561
 20
-18.06287146086608
 11
2.151600653770824
 21
4.798039327535895
  0
LINE
  5
7F
100
AcDbEntity
  8
s00e-#def-invisible
  6
DASHED
 62
  256
420
    0
370
    5
100
AcDbLine
 10
-3.917136827316266
 20
13.05756111847503
 11
2.39469915563364
 21
16.49731817956139
  0
LINE
  5
80
100
AcDbEntity
  8
s00e-#def-invisible
  6
DASHED
 62
  256
420
    0
370
    5
100
AcDbLine
 10
4.932430406064466
 20
9.674210909968116
 11
-3.841018807217434
 21
4.892950122617178
  0
LINE
  5
81
100
AcDbEntity
  8
s005-#def-solid-edge
  6
CONTINUOUS
 62
  256
420
    0
370
    5
100
AcDbLine
 10
-4.412595629911134
 20
-2.323532289547014
 11
-3.979514867639232
 21
-4.504012084816129
  0
LINE
  5
82
100
AcDbEntity
  8
s005-#def-solid-edge
  6
CONTINUOUS
 62
  256
420
    0
370
    5
100
AcDbLine
 10
-3.979514867639232
 20
-4.504012084816129
 11
-4.367765805110004
 21
-7.132092470676565
  0
LINE
  5
83
100
AcDbEntity
  8
s005-#def-solid-edge
  6
CONTINUOUS
 62
  256
420
    0
370
    5
100
AcDbLine
 10
-4.367765805110004
 20
-7.132092470676565
 11
-5.649578533209652
 21
-10.05621276688237
  0
LINE
  5
84
100
AcDbEntity
  8
s005-#def-solid-edge
  6
CONTINUOUS
 62
  256
420
    0
370
    5
100
AcDbLine
 10
-5.649578533209652
 20
-10.05621276688237
 11
-7.618888600810923
 21
-12.59130257181652
  0
LINE
  5
85
100
AcDbEntity
  8
s005-#def-solid-edge
  6
CONTINUOUS
 62
  256
420
    0
370
    5
100
AcDbLine
 10
-7.618888600810923
 20
-12.59130257181652
 11
-9.767586593748096
 21
-14.22320807306969
  0
LINE
  5
86
100
AcDbEntity
  8
s005-#def-solid-edge
  6
CONTINUOUS
 62
  256
420
    0
370
    5
100
AcDbLine
 10
-9.767586593748096
 20
-14.22320807306969
 11
-16.58964261375015
 21
-10.04423553058285
  0
LINE
  5
87
100
AcDbEntity
  8
s005-#def-solid-edge
  6
CONTINUOUS
 62
  256
420
    0
370
    5
100
AcDbLine
 10
-2.623838560230613
 20
7.723320107276688
 11
-9.93504623796553
 21
3.738936117817572
  0
LINE
  5
88
100
AcDbEntity
  8
s005-#def-solid-edge
  6
CONTINUOUS
 62
  256
420
    0
370
    5
100
AcDbLine
 10
-9.93504623796553
 20
3.738936117817572
 11
-16.75710225796759
 21
7.917908660304417
  0
LINE
  5
89
100
AcDbEntity
  8
s005-#def-solid-edge
  6
CONTINUOUS
 62
  256
420
    0
370
    5
100
AcDbLine
 10
-5.735696242301458
 20
-0.8190098854082279
 11
-4.412595629911134
 21
-2.323532289547014
  0
LINE
  5
8A
100
AcDbEntity
  8
s005-#def-solid-edge
  6
CONTINUOUS
 62
  256
420
    0
370
    5
100
AcDbLine
 10
-9.93504623796553
 20
3.738936117817572
 11
-12.33630330100001
 21
2.10890429179587
  0
LINE
  5
8B
100
AcDbEntity
  8
s005-#def-solid-edge
  6
CONTINUOUS
 62
  256
420
    0
370
    5
100
AcDbLine
 10
-12.33630330100001
 20
2.10890429179587
 11
-14.66114510378858
 21
-0.1416794337342253
  0
LINE
  5
8C
100
AcDbEntity
  8
s005-#def-solid-edge
  6
CONTINUOUS
 62
  256
420
    0
370
    5
100
AcDbLine
 10
-14.66114510378858
 20
-0.1416794337342253
 11
-16.69929164436279
 21
-2.840153447370508
  0
LINE
  5
8D
100
AcDbEntity
  8
s005-#def-solid-edge
  6
CONTINUOUS
 62
  256
420
    0
370
    5
100
AcDbLine
 10
-16.69929164436279
 20
-2.840153447370508
 11
-18.28931353122585
 21
-5.737539166759341
  0
LINE
  5
8E
100
AcDbEntity
  8
s00e-#def-invisible
  6
DASHED
 62
  256
420
    0
370
    5
100
AcDbLine
 10
-12.55775226230351
 20
3.359962657078619
 11
-11.23465164991318
 21
1.85544025293984
  0
LINE
  5
8F
100
AcDbEntity
  8
s00e-#def-invisible
  6
DASHED
 62
  256
420
    0
370
    5
100
AcDbLine
 10
-11.23465164991318
 20
1.85544025293984
 11
-10.80157088764128
 21
-0.3250395423292787
  0
LINE
  5
90
100
AcDbEntity
  8
s00e-#def-invisible
  6
DASHED
 62
  256
420
    0
370
    5
100
AcDbLine
 10
-10.80157088764128
 20
-0.3250395423292787
 11
-11.0155647073495
 21
-1.773569103994183
  0
LINE
  5
91
100
AcDbEntity
  8
s00e-#def-invisible
  6
DASHED
 62
  256
420
    0
370
    5
100
AcDbLine
 10
-16.71143144590828
 20
3.019142062789708
 11
-25.11136955122789
 21
-1.558566624272491
  0
LINE
  5
92
100
AcDbEntity
  8
s00e-#def-invisible
  6
DASHED
 62
  256
420
    0
370
    5
100
AcDbLine
 10
-14.55418245215367
 20
3.733845629349219
 11
-12.55775226230351
 21
3.359962657078619
  0
LINE
  5
93
100
AcDbEntity
  8
s00e-#def-invisible
  6
DASHED
 62
  256
420
    0
370
    5
100
AcDbLine
 10
-12.55775226230351
 20
3.359962657078619
 11
-5.735696242301458
 21
-0.8190098854082279
  0
LINE
  5
94
100
AcDbEntity
  8
s00e-#def-invisible
  6
DASHED
 62
  256
420
    0
370
    5
100
AcDbLine
 10
-16.71143144590828
 20
3.019142062789708
 11
-14.55418245215367
 21
3.733845629349219
  0
LINE
  5
95
100
AcDbEntity
  8
s00e-#def-invisible
  6
DASHED
 62
  256
420
    0
370
    5
100
AcDbLine
 10
-9.889375425906234
 20
-1.159830479697138
 11
-16.71143144590828
 21
3.019142062789708
  0
LINE
  5
96
100
AcDbEntity
  8
s005-#def-solid-edge
  6
CONTINUOUS
 62
  256
420
    0
370
    5
100
AcDbLine
 10
-14.2213337942341
 20
14.82757342950433
 11
-9.445894580232665
 21
11.90229264976354
  0
LINE
  5
97
100
AcDbEntity
  8
s00e-#def-invisible
  6
DASHED
 62
  256
420
    0
370
    5
100
AcDbLine
 10
-9.445894580232665
 20
11.90229264976354
 11
-9.232764123955928
 21
-10.95861813863844
  0
LINE
  5
98
100
AcDbEntity
  8
s00e-#def-invisible
  6
DASHED
 62
  256
420
    0
370
    5
100
AcDbLine
 10
-14.17005954123061
 20
9.327767610420722
 11
-14.05113979630918
 21
-3.427864442927709
  0
LINE
  5
99
100
AcDbEntity
  8
s00e-#def-invisible
  6
DASHED
 62
  256
420
    0
370
    5
100
AcDbLine
 10
-14.00984382440869
 20
-7.857374640717523
 11
-14.00820333795737
 21
-8.033337358897647
  0
LINE
  5
9A
100
AcDbEntity
  8
s00e-#def-invisible
  6
DASHED
 62
  256
420
    0
370
    5
100
AcDbLine
 10
-21.29428116618953
 20
-16.22673847226023
 11
-23.36188292534575
 21
-15.76577138104569
  0
LINE
  5
9B
100
AcDbEntity
  8
s00e-#def-invisible
  6
DASHED
 62
  256
420
    0
370
    5
100
AcDbLine
 10
-18.9511917221984
 20
-15.93344280831482
 11
-21.29428116618953
 21
-16.22673847226023
  0
LINE
  5
9C
100
AcDbEntity
  8
s00e-#def-invisible
  6
DASHED
 62
  256
420
    0
370
    5
100
AcDbLine
 10
-16.54397180169085
 20
-14.94300212809756
 11
-9.72191578168886
 21
-19.12197467058445
  0
LINE
  5
9D
100
AcDbEntity
  8
s005-#def-solid-edge
  6
CONTINUOUS
 62
  256
420
    0
370
    5
100
AcDbLine
 10
-9.767586593748096
 20
-14.22320807306969
 11
-18.16752469906771
 21
-18.8009167601319
  0
LINE
  5
9E
100
AcDbEntity
  8
s005-#def-solid-edge
  6
CONTINUOUS
 62
  256
420
    0
370
    5
100
AcDbLine
 10
-18.16752469906771
 20
-18.8009167601319
 11
-16.5398269053437
 21
-19.94474392353255
  0
LINE
  5
9F
100
AcDbEntity
  8
s005-#def-solid-edge
  6
CONTINUOUS
 62
  256
420
    0
370
    5
100
AcDbLine
 10
-24.98958071906975
 20
-14.62194421764505
 11
-18.16752469906771
 21
-18.8009167601319
  0
LINE
  5
A0
100
AcDbEntity
  8
s00e-#def-invisible
  6
DASHED
 62
  256
420
    0
370
    5
100
AcDbLine
 10
-18.9511917221984
 20
-15.93344280831482
 11
-16.54397180169085
 21
-14.94300212809756
  0
LINE
  5
A1
100
AcDbEntity
  8
s00f-#def-silhouette
  6
CONTINUOUS
 62
  256
420
    0
370
    9
100
AcDbLine
 10
18.67097582646979
 20
9.376402507290095
 11
20.4960645234478
 21
10.82843833689073
  0
LINE
  5
A2
100
AcDbEntity
  8
s00f-#def-silhouette
  6
CONTINUOUS
 62
  256
420
    0
370
    9
100
AcDbLine
 10
20.4960645234478
 20
10.82843833689073
 11
21.28760405576626
 21
12.71053907439732
  0
LINE
  5
A3
100
AcDbEntity
  8
s00f-#def-silhouette
  6
CONTINUOUS
 62
  256
420
    0
370
    9
100
AcDbLine
 10
25.03525153112906
 20
12.65894099237712
 11
25.11136955122789
 21
4.494329996519276
  0
LINE
  5
A4
100
AcDbEntity
  8
s00f-#def-silhouette
  6
CONTINUOUS
 62
  256
420
    0
370
    9
100
AcDbLine
 10
25.11136955122789
 20
4.494329996519276
 11
23.96003932240105
 21
1.756728923782427
  0
LINE
  5
A5
100
AcDbEntity
  8
s00f-#def-silhouette
  6
CONTINUOUS
 62
  256
420
    0
370
    9
100
AcDbLine
 10
23.96003932240105
 20
1.756728923782427
 11
21.30536485406939
 21
-0.3553231920003164
  0
LINE
  5
A6
100
AcDbEntity
  8
s00f-#def-silhouette
  6
CONTINUOUS
 62
  256
420
    0
370
    9
100
AcDbLine
 10
21.30536485406939
 20
-0.3553231920003164
 11
12.53191564078749
 21
-5.136583979351261
  0
LINE
  5
A7
100
AcDbEntity
  8
s00f-#def-silhouette
  6
CONTINUOUS
 62
  256
420
    0
370
    9
100
AcDbLine
 10
12.53191564078749
 20
-5.136583979351261
 11
12.60042185887644
 21
-12.48473387562332
  0
LINE
  5
A8
100
AcDbEntity
  8
s00f-#def-silhouette
  6
CONTINUOUS
 62
  256
420
    0
370
    9
100
AcDbLine
 10
12.60042185887644
 20
-12.48473387562332
 11
2.364731110047561
 21
-18.06287146086608
  0
LINE
  5
A9
100
AcDbEntity
  8
s00f-#def-silhouette
  6
CONTINUOUS
 62
  256
420
    0
370
    9
100
AcDbLine
 10
2.364731110047561
 20
-18.06287146086608
 11
-2.410708103953876
 21
-15.13759068112529
  0
LINE
  5
AA
100
AcDbEntity
  8
s00f-#def-silhouette
  6
CONTINUOUS
 62
  256
420
    0
370
    9
100
AcDbLine
 10
-2.410708103953876
 20
-15.13759068112529
 11
-9.72191578168886
 21
-19.12197467058445
  0
LINE
  5
AB
100
AcDbEntity
  8
s00f-#def-silhouette
  6
CONTINUOUS
 62
  256
420
    0
370
    9
100
AcDbLine
 10
-9.72191578168886
 20
-19.12197467058445
 11
-12.12913570219634
 21
-20.11241535080166
  0
LINE
  5
AC
100
AcDbEntity
  8
s00f-#def-silhouette
  6
CONTINUOUS
 62
  256
420
    0
370
    9
100
AcDbLine
 10
-12.12913570219634
 20
-20.11241535080166
 11
-14.47222514618749
 21
-20.40571101474709
  0
LINE
  5
AD
100
AcDbEntity
  8
s00f-#def-silhouette
  6
CONTINUOUS
 62
  256
420
    0
370
    9
100
AcDbLine
 10
-14.47222514618749
 20
-20.40571101474709
 11
-16.5398269053437
 21
-19.94474392353255
  0
LINE
  5
AE
100
AcDbEntity
  8
s00f-#def-silhouette
  6
CONTINUOUS
 62
  256
420
    0
370
    9
100
AcDbLine
 10
-16.5398269053437
 20
-19.94474392353255
 11
-23.36188292534575
 21
-15.76577138104569
  0
LINE
  5
AF
100
AcDbEntity
  8
s00f-#def-silhouette
  6
CONTINUOUS
 62
  256
420
    0
370
    9
100
AcDbLine
 10
-23.36188292534575
 20
-15.76577138104569
 11
-24.98958071906975
 21
-14.62194421764505
  0
LINE
  5
B0
100
AcDbEntity
  8
s00f-#def-silhouette
  6
CONTINUOUS
 62
  256
420
    0
370
    9
100
AcDbLine
 10
-24.98958071906975
 20
-14.62194421764505
 11
-16.58964261375015
 21
-10.04423553058285
  0
LINE
  5
B1
100
AcDbEntity
  8
s00f-#def-silhouette
  6
CONTINUOUS
 62
  256
420
    0
370
    9
100
AcDbLine
 10
-16.58964261375015
 20
-10.04423553058285
 11
-14.44094462081297
 21
-8.41233002932967
  0
LINE
  5
B2
100
AcDbEntity
  8
s00f-#def-silhouette
  6
CONTINUOUS
 62
  256
420
    0
370
    9
100
AcDbLine
 10
-14.44094462081297
 20
-8.41233002932967
 11
-12.4716345532117
 21
-5.877240224395518
  0
LINE
  5
B3
100
AcDbEntity
  8
s00f-#def-silhouette
  6
CONTINUOUS
 62
  256
420
    0
370
    9
100
AcDbLine
 10
-12.4716345532117
 20
-5.877240224395518
 11
-11.18982182511205
 21
-2.953119928189711
  0
LINE
  5
B4
100
AcDbEntity
  8
s00f-#def-silhouette
  6
CONTINUOUS
 62
  256
420
    0
370
    9
100
AcDbLine
 10
-11.18982182511205
 20
-2.953119928189711
 11
-11.0155647073495
 21
-1.773569103994183
  0
LINE
  5
B5
100
AcDbEntity
  8
s00f-#def-silhouette
  6
CONTINUOUS
 62
  256
420
    0
370
    9
100
AcDbLine
 10
24.21362532394648
 20
15.42370597758885
 11
25.03525153112906
 21
12.65894099237712
  0
LINE
  5
B6
100
AcDbEntity
  8
s00f-#def-silhouette
  6
CONTINUOUS
 62
  256
420
    0
370
    9
100
AcDbLine
 10
12.75742658524358
 20
8.061853927031194
 11
16.05555669314225
 21
8.408497735366879
  0
LINE
  5
B7
100
AcDbEntity
  8
s00f-#def-silhouette
  6
CONTINUOUS
 62
  256
420
    0
370
    9
100
AcDbLine
 10
16.05555669314225
 20
8.408497735366879
 11
18.67097582646979
 21
9.376402507290095
  0
LINE
  5
B8
100
AcDbEntity
  8
s00f-#def-silhouette
  6
CONTINUOUS
 62
  256
420
    0
370
    9
100
AcDbLine
 10
21.81622882325
 20
17.60531564219268
 11
24.21362532394648
 21
15.42370597758885
  0
LINE
  5
B9
100
AcDbEntity
  8
s00f-#def-silhouette
  6
CONTINUOUS
 62
  256
420
    0
370
    9
100
AcDbLine
 10
18.18683477328602
 20
19.11552442040167
 11
21.81622882325
 21
17.60531564219268
  0
LINE
  5
BA
100
AcDbEntity
  8
s00f-#def-silhouette
  6
CONTINUOUS
 62
  256
420
    0
370
    9
100
AcDbLine
 10
17.10613372654595
 20
8.797291451428229
 11
16.65543555425865
 21
8.984829185464154
  0
LINE
  5
BB
100
AcDbEntity
  8
s00f-#def-silhouette
  6
CONTINUOUS
 62
  256
420
    0
370
    9
100
AcDbLine
 10
16.65543555425865
 20
8.984829185464154
 11
13.40425065479146
 21
9.421644786794449
  0
LINE
  5
BC
100
AcDbEntity
  8
s00f-#def-silhouette
  6
CONTINUOUS
 62
  256
420
    0
370
    9
100
AcDbLine
 10
13.40425065479146
 20
9.421644786794449
 11
12.39717722901849
 21
9.315798214317056
  0
LINE
  5
BD
100
AcDbEntity
  8
s00f-#def-silhouette
  6
CONTINUOUS
 62
  256
420
    0
370
    9
100
AcDbLine
 10
13.45783855502195
 20
19.75089256802073
 11
18.18683477328602
 21
19.11552442040167
  0
LINE
  5
BE
100
AcDbEntity
  8
s00f-#def-silhouette
  6
CONTINUOUS
 62
  256
420
    0
370
    9
100
AcDbLine
 10
-3.985643045405219
 20
20.40571101474709
 11
12.38729140259971
 21
10.37617691277865
  0
LINE
  5
BF
100
AcDbEntity
  8
s00f-#def-silhouette
  6
CONTINUOUS
 62
  256
420
    0
370
    9
100
AcDbLine
 10
12.38729140259971
 20
10.37617691277865
 11
12.45579762068866
 21
3.02802701650659
  0
LINE
  5
C0
100
AcDbEntity
  8
s00f-#def-silhouette
  6
CONTINUOUS
 62
  256
420
    0
370
    9
100
AcDbLine
 10
12.40843050353751
 20
8.108743580497945
 11
12.75742658524358
 21
8.061853927031194
  0
LINE
  5
C1
100
AcDbEntity
  8
s00f-#def-silhouette
  6
CONTINUOUS
 62
  256
420
    0
370
    9
100
AcDbLine
 10
8.660558398961729
 20
19.24668339246529
 11
13.45783855502195
 21
19.75089256802073
  0
LINE
  5
C2
100
AcDbEntity
  8
s00e-#def-invisible
  6
DASHED
 62
  256
420
    0
370
    5
100
AcDbLine
 10
6.09701601647187
 20
-5.991006458723472
 11
-10.27591843153308
 21
4.038527643244979
  0
LINE
  5
C3
100
AcDbEntity
  8
s00f-#def-silhouette
  6
CONTINUOUS
 62
  256
420
    0
370
    9
100
AcDbLine
 10
6.070104232380674
 20
-3.104380558262779
 11
5.548209336889904
 21
-4.839443271408491
  0
LINE
  5
C4
100
AcDbEntity
  8
s00f-#def-silhouette
  6
CONTINUOUS
 62
  256
420
    0
370
    9
100
AcDbLine
 10
5.548209336889904
 20
-4.839443271408491
 11
6.09701601647187
 21
-5.991006458723472
  0
LINE
  5
C5
100
AcDbEntity
  8
s00f-#def-silhouette
  6
CONTINUOUS
 62
  256
420
    0
370
    9
100
AcDbLine
 10
8.655006496175425
 20
-1.695688089363973
 11
7.356981751298928
 21
-1.802194525079251
  0
LINE
  5
C6
100
AcDbEntity
  8
s00f-#def-silhouette
  6
CONTINUOUS
 62
  256
420
    0
370
    9
100
AcDbLine
 10
7.356981751298928
 20
-1.802194525079251
 11
6.070104232380674
 21
-3.104380558262779
  0
LINE
  5
C7
100
AcDbEntity
  8
s00e-#def-invisible
  6
DASHED
 62
  256
420
    0
370
    5
100
AcDbLine
 10
-7.717927951829509
 20
8.33384601260447
 11
8.655006496175425
 21
-1.695688089363973
  0
LINE
  5
C8
100
AcDbEntity
  8
s00e-#def-invisible
  6
DASHED
 62
  256
420
    0
370
    5
100
AcDbLine
 10
4.874073184268768
 20
4.772959639428333
 11
4.797955164169936
 21
12.93757063528617
  0
LINE
  5
C9
100
AcDbEntity
  8
s00f-#def-silhouette
  6
CONTINUOUS
 62
  256
420
    0
370
    9
100
AcDbLine
 10
2.39469915563364
 20
16.49731817956139
 11
4.856312385965634
 21
17.83882190582596
  0
LINE
  5
CA
100
AcDbEntity
  8
s00f-#def-silhouette
  6
CONTINUOUS
 62
  256
420
    0
370
    9
100
AcDbLine
 10
4.856312385965634
 20
17.83882190582596
 11
8.660558398961729
 21
19.24668339246529
  0
LINE
  5
CB
100
AcDbEntity
  8
s00f-#def-silhouette
  6
CONTINUOUS
 62
  256
420
    0
370
    9
100
AcDbLine
 10
-5.735696242301458
 20
-0.8190098854082279
 11
-7.732126432151606
 21
-0.4451269131376296
  0
LINE
  5
CC
100
AcDbEntity
  8
s00f-#def-silhouette
  6
CONTINUOUS
 62
  256
420
    0
370
    9
100
AcDbLine
 10
-7.732126432151606
 20
-0.4451269131376296
 11
-9.889375425906234
 21
-1.159830479697138
  0
LINE
  5
CD
100
AcDbEntity
  8
s00f-#def-silhouette
  6
CONTINUOUS
 62
  256
420
    0
370
    9
100
AcDbLine
 10
-9.889375425906234
 20
-1.159830479697138
 11
-18.28931353122585
 21
-5.737539166759341
  0
LINE
  5
CE
100
AcDbEntity
  8
s00f-#def-silhouette
  6
CONTINUOUS
 62
  256
420
    0
370
    9
100
AcDbLine
 10
-18.28931353122585
 20
-5.737539166759341
 11
-25.11136955122789
 21
-1.558566624272491
  0
LINE
  5
CF
100
AcDbEntity
  8
s00f-#def-silhouette
  6
CONTINUOUS
 62
  256
420
    0
370
    9
100
AcDbLine
 10
-25.11136955122789
 20
-1.558566624272491
 11
-23.52134766436482
 21
1.338819095116342
  0
LINE
  5
D0
100
AcDbEntity
  8
s00f-#def-silhouette
  6
CONTINUOUS
 62
  256
420
    0
370
    9
100
AcDbLine
 10
-23.52134766436482
 20
1.338819095116342
 11
-21.48320112379063
 21
4.037293108752623
  0
LINE
  5
D1
100
AcDbEntity
  8
s00f-#def-silhouette
  6
CONTINUOUS
 62
  256
420
    0
370
    9
100
AcDbLine
 10
-21.48320112379063
 20
4.037293108752623
 11
-19.15835932100206
 21
6.287876834282717
  0
LINE
  5
D2
100
AcDbEntity
  8
s00f-#def-silhouette
  6
CONTINUOUS
 62
  256
420
    0
370
    9
100
AcDbLine
 10
-19.15835932100206
 20
6.287876834282717
 11
-16.75710225796759
 21
7.917908660304417
  0
LINE
  5
D3
100
AcDbEntity
  8
s00f-#def-silhouette
  6
CONTINUOUS
 62
  256
420
    0
370
    9
100
AcDbLine
 10
-16.75710225796759
 20
7.917908660304417
 11
-9.445894580232665
 21
11.90229264976354
  0
LINE
  5
D4
100
AcDbEntity
  8
s00f-#def-silhouette
  6
CONTINUOUS
 62
  256
420
    0
370
    9
100
AcDbLine
 10
-14.2213337942341
 20
14.82757342950433
 11
-3.985643045405219
 21
20.40571101474709
  0
LINE
  5
D5
100
AcDbEntity
  8
s00f-#def-silhouette
  6
CONTINUOUS
 62
  256
420
    0
370
    9
100
AcDbLine
 10
-14.00984382440869
 20
-7.857374640717523
 11
-14.05113979630918
 21
-3.427864442927708
  0
LINE
  5
D6
100
AcDbEntity
  8
s00f-#def-silhouette
  6
CONTINUOUS
 62
  256
420
    0
370
    9
100
AcDbLine
 10
-14.17005954123061
 20
9.32776761042072
 11
-14.2213337942341
 21
14.82757342950433
  0
DIMENSION
  5
D7
100
AcDbEntity
  8
dimensions
  6
BYLAYER
 62
  256
370
   -1
100
AcDbDimension
 10
13.75479478511966
 20
100.5875969830477
 30
0
 11
43.35479478511967
 21
33.47180735051366
 31
0
 70
   34
  1
120.00
 71
    5
  3
STANDARD
 53
0
210
0
220
0
230
1
100
AcDb2LineAngularDimension
 13
13.75479478511966
 23
15.27180735051365
 33
0
 14
87.64043595082318
 24
-27.38608746575335
 34
0
 15
13.75479478511966
 25
15.27180735051365
 35
0
 16
43.35479478511967
 26
33.47180735051366
 36
0
  0
DIMENSION
  5
D8
100
AcDbEntity
  8
dimensions
  6
BYLAYER
 62
  256
370
   -1
100
AcDbDimension
 10
13.75479478511966
 20
100.5875969830477
 30
0
 11
-19.84520521488034
 21
26.27180735051365
 31
0
 70
   34
  1
120.00
 71
    5
  3
STANDARD
 53
0
210
0
220
0
230
1
100
AcDb2LineAngularDimension
 13
13.75479478511966
 23
15.27180735051365
 33
0
 14
-60.13084638058386
 24
-27.38608746575335
 34
0
 15
13.75479478511966
 25
15.27180735051365
 35
0
 16
-19.84520521488034
 26
26.27180735051365
 36
0
  0
DIMENSION
  5
D9
100
AcDbEntity
  8
dimensions
  6
BYLAYER
 62
  256
370
   -1
100
AcDbDimension
 10
6.440534130335301
 20
-3.918569081931807
 30
36.55386629397977
 11
6.440534130335301
 21
-3.918569081931807
 31
36.55386629397977
 70
   33
  1
28.00
 71
    5
  3
STANDARD
 53
0
210
0
220
0
230
1
100
AcDbAlignedDimension
 13
2.364731110047561
 23
-18.06287146086608
 33
31.4016820890212
 14
2.151600653770824
 24
4.798039327535895
 34
47.56748962633073
  0
DIMENSION
  5
DA
100
AcDbEntity
  8
dimensions
  6
BYLAYER
 62
  256
370
   -1
100
AcDbDimension
 10
-1.395995430267355
 20
11.89896867423052
 30
37.47534536894727
 11
-1.395995430267355
 21
11.89896867423052
 31
37.47534536894727
 70
   33
  1
24.00
 71
    5
  3
STANDARD
 53
0
210
0
220
0
230
1
100
AcDbAlignedDimension
 13
2.151600653770824
 23
4.798039327535895
 33
47.56748962633073
 14
-14.2213337942341
 24
14.82757342950433
 34
33.1683416217165
  0
DIMENSION
  5
DB
100
AcDbEntity
  8
dimensions
  6
BYLAYER
 62
  256
370
   -1
100
AcDbDimension
 10
16.64139077480486
 20
1.129633511579229
 30
28.69863218670602
 11
16.64139077480486
 21
1.129633511579229
 31
28.69863218670602
 70
   33
  1
10.00
 71
    5
  3
STANDARD
 53
0
210
0
220
0
230
1
100
AcDbAlignedDimension
 13
21.30536485406939
 23
-0.3553231920003164
 33
22.19868650711361
 14
21.22924683397056
 24
7.809287803857529
 34
27.97218919900987
  0
DIMENSION
  5
DC
100
AcDbEntity
  8
dimensions
  6
BYLAYER
 62
  256
370
   -1
100
AcDbDimension
 10
-10.27225590100516
 20
6.905775251153136
 30
44.48973720267376
 11
-10.27225590100516
 21
6.905775251153136
 31
44.48973720267376
 70
   33
  1
10.00
 71
    5
  3
STANDARD
 53
0
210
0
220
0
230
1
100
AcDbAlignedDimension
 13
-9.445894580232665
 23
11.90229264976354
 33
37.36809312306232
 14
-2.623838560230613
 24
7.723320107276688
 34
43.36773812498491
  0
DIMENSION
  5
DD
100
AcDbEntity
  8
dimensions
  6
BYLAYER
 62
  256
370
   -1
100
AcDbDimension
 10
7.316417176942316
 20
-20.58274440801833
 30
24.00474687198067
 11
7.316417176942316
 21
-20.58274440801833
 31
24.00474687198067
 70
   33
  1
14.00
 71
    5
  3
STANDARD
 53
0
210
0
220
0
230
1
100
AcDbAlignedDimension
 13
2.364731110047561
 23
-18.06287146086608
 33
31.4016820890212
 14
12.60042185887644
 24
-12.48473387562332
 34
23.64829470192123
  0
DIMENSION
  5
DE
100
AcDbEntity
  8
dimensions
  6
BYLAYER
 62
  256
370
   -1
100
AcDbDimension
 10
7.80019454852498
 20
16.46926812400613
 30
15.54861078477492
 11
-2.811907607302423
 21
23.8479515671512
 31
4.974119797572712
 70
   35
  1
  16.50
 71
    5
  3
STANDARD
 53
0
210
0
220
0
230
1
100
AcDbDiametricDimension
 15
18.28536467141122
 25
9.178841585677361
 35
25.99661960863057
 40
0
  0
DIMENSION
  5
DF
100
AcDbEntity
  8
dimensions
  6
BYLAYER
 62
  256
370
   -1
100
AcDbDimension
 10
8.74862936374655
 20
-1.756625546608753
 30
35.5005983459183
 11
10.57943931219091
 21
1.026662009895722
 31
35.35748891969194
 70
   35
  1
  5.00
 71
    5
  3
STANDARD
 53
0
210
0
220
0
230
1
100
AcDbDiametricDimension
 15
6.003393148900715
 25
-5.930069001478671
 35
35.71518598233367
 40
0
  0
ENDSEC
  0
SECTION
  2
OBJECTS
  0
DICTIONARY
  5
C
330
0
100
AcDbDictionary
281
    1
  3
ACAD_GROUP
350
D
  0
DICTIONARY
  5
D
330
C
100
AcDbDictionary
281
    1
  0
ENDSEC
  0
EOF
