999
dxfrw 0.6.3
  0
SECTION
  2
HEADER
  9
$ACADVER
  1
AC1018
  9
$DWGCODEPAGE
  3
ANSI_1252
  9
$INSBASE
 10
0
 20
0
 30
0
  9
$EXTMIN
 10
1e+020
 20
1e+020
 30
1e+020
  9
$EXTMAX
 10
-1e+020
 20
-1e+020
 30
-1e+020
  9
$LIMMIN
 10
0
 20
0
  9
$LIMMAX
 10
420
 20
297
  9
$ORTHOMODE
 70
    0
  9
$REGENMODE
 70
    1
  9
$FILLMODE
 70
    1
  9
$QTEXTMODE
 70
    0
  9
$MIRRTEXT
 70
    0
  9
$LTSCALE
 40
1
  9
$ATTMODE
 70
    0
  9
$TEXTSIZE
 40
2.5
  9
$TRACEWID
 40
15.68
  9
$TEXTSTYLE
  7
STANDARD
  9
$CLAYER
  8
0
  9
$CELTYPE
  6
BYLAYER
  9
$CECOLOR
 62
  256
  9
$CELTSCALE
 40
1
  9
$DISPSILH
 70
    0
  9
$DIMSCALE
 40
1
  9
$DIMASZ
 40
2.5
  9
$DIMEXO
 40
0.625
  9
$DIMDLI
 40
3.75
  9
$DIMRND
 40
0
  9
$DIMDLE
 40
0
  9
$DIMEXE
 40
1.25
  9
$DIMTP
 40
0
  9
$DIMTM
 40
0
  9
$DIMTXT
 40
2.5
  9
$DIMCEN
 40
2.5
  9
$DIMTSZ
 40
0
  9
$DIMTOL
 70
    0
  9
$DIMLIM
 70
    0
  9
$DIMTIH
 70
    0
  9
$DIMTOH
 70
    0
  9
$DIMSE1
 70
    0
  9
$DIMSE2
 70
    0
  9
$DIMTAD
 70
    1
  9
$DIMZIN
 70
    8
  9
$DIMBLK
  1

  9
$DIMASO
 70
    1
  9
$DIMSHO
 70
    1
  9
$DIMPOST
  1

  9
$DIMAPOST
  1

  9
$DIMALT
 70
    0
  9
$DIMALTD
 70
    3
  9
$DIMALTF
 40
0.03937
  9
$DIMLFAC
 40
1
  9
$DIMTOFL
 70
    1
  9
$DIMTVP
 40
0
  9
$DIMTIX
 70
    0
  9
$DIMSOXD
 70
    0
  9
$DIMSAH
 70
    0
  9
$DIMBLK1
  1

  9
$DIMBLK2
  1

  9
$DIMSTYLE
  2
STANDARD
  9
$DIMCLRD
 70
    0
  9
$DIMCLRE
 70
    0
  9
$DIMCLRT
 70
    0
  9
$DIMTFAC
 40
1
  9
$DIMGAP
 40
0.625
  9
$DIMJUST
 70
    0
  9
$DIMSD1
 70
    0
  9
$DIMSD2
 70
    0
  9
$DIMTOLJ
 70
    0
  9
$DIMTZIN
 70
    8
  9
$DIMALTZ
 70
    0
  9
$DIMALTTZ
 70
    0
  9
$DIMUPT
 70
    0
  9
$DIMDEC
 70
    2
  9
$DIMTDEC
 70
    2
  9
$DIMALTU
 70
    2
  9
$DIMALTTD
 70
    3
  9
$DIMTXSTY
  7
STANDARD
  9
$DIMAUNIT
 70
    0
  9
$DIMADEC
 70
    0
  9
$DIMALTRND
 40
0
  9
$DIMAZIN
 70
    0
  9
$DIMDSEP
 70
   44
  9
$DIMATFIT
 70
    3
  9
$DIMFRAC
 70
    0
  9
$DIMLDRBLK
  1
STANDARD
  9
$DIMLUNIT
 70
    2
  9
$DIMLWD
 70
   -2
  9
$DIMLWE
 70
   -2
  9
$DIMTMOVE
 70
    0
  9
$LUNITS
 70
    2
  9
$LUPREC
 70
    4
  9
$SKETCHINC
 40
1
  9
$FILLETRAD
 40
0
  9
$AUNITS
 70
    0
  9
$AUPREC
 70
    2
  9
$MENU
  1
.
  9
$ELEVATION
 40
0
  9
$PELEVATION
 40
0
  9
$THICKNESS
 40
0
  9
$LIMCHECK
 70
    0
  9
$CHAMFERA
 40
0
  9
$CHAMFERB
 40
0
  9
$CHAMFERC
 40
0
  9
$CHAMFERD
 40
0
  9
$SKPOLY
 70
    0
  9
$USRTIMER
 70
    1
  9
$ANGBASE
 50
0
  9
$ANGDIR
 70
    0
  9
$PDMODE
 70
   34
  9
$PDSIZE
 40
0
  9
$PLINEWID
 40
0
  9
$SPLFRAME
 70
    0
  9
$SPLINETYPE
 70
    2
  9
$SPLINESEGS
 70
    8
  9
$HANDSEED
  5
20000
  9
$SURFTAB1
 70
    6
  9
$SURFTAB2
 70
    6
  9
$SURFTYPE
 70
    6
  9
$SURFU
 70
    6
  9
$SURFV
 70
    6
  9
$UCSBASE
  2

  9
$UCSNAME
  2

  9
$UCSORG
 10
0
 20
0
 30
0
  9
$UCSXDIR
 10
1
 20
0
 30
0
  9
$UCSYDIR
 10
0
 20
1
 30
0
  9
$UCSORTHOREF
  2

  9
$UCSORTHOVIEW
 70
    0
  9
$UCSORGTOP
 10
0
 20
0
 30
0
  9
$UCSORGBOTTOM
 10
0
 20
0
 30
0
  9
$UCSORGLEFT
 10
0
 20
0
 30
0
  9
$UCSORGRIGHT
 10
0
 20
0
 30
0
  9
$UCSORGFRONT
 10
0
 20
0
 30
0
  9
$UCSORGBACK
 10
0
 20
0
 30
0
  9
$PUCSBASE
  2

  9
$PUCSNAME
  2

  9
$PUCSORG
 10
0
 20
0
 30
0
  9
$PUCSXDIR
 10
1
 20
0
 30
0
  9
$PUCSYDIR
 10
0
 20
1
 30
0
  9
$PUCSORTHOREF
  2

  9
$PUCSORTHOVIEW
 70
    0
  9
$PUCSORGTOP
 10
0
 20
0
 30
0
  9
$PUCSORGBOTTOM
 10
0
 20
0
 30
0
  9
$PUCSORGLEFT
 10
0
 20
0
 30
0
  9
$PUCSORGRIGHT
 10
0
 20
0
 30
0
  9
$PUCSORGFRONT
 10
0
 20
0
 30
0
  9
$PUCSORGBACK
 10
0
 20
0
 30
0
  9
$USERI1
 70
    0
  9
$USERI2
 70
    0
  9
$USERI3
 70
    0
  9
$USERI4
 70
    0
  9
$USERI5
 70
    0
  9
$USERR1
 40
0
  9
$USERR2
 40
0
  9
$USERR3
 40
0
  9
$USERR4
 40
0
  9
$USERR5
 40
0
  9
$WORLDVIEW
 70
    1
  9
$SHADEDGE
 70
    3
  9
$SHADEDIF
 70
   70
  9
$TILEMODE
 70
    1
  9
$MAXACTVP
 70
   64
  9
$PINSBASE
 10
0
 20
0
 30
0
  9
$PLIMCHECK
 70
    0
  9
$PEXTMIN
 10
0
 20
0
 30
0
  9
$PEXTMAX
 10
0
 20
0
 30
0
  9
$PLIMMIN
 10
0
 20
0
  9
$PLIMMAX
 10
297
 20
210
  9
$UNITMODE
 70
    0
  9
$VISRETAIN
 70
    1
  9
$PLINEGEN
 70
    0
  9
$PSLTSCALE
 70
    1
  9
$TREEDEPTH
 70
 3020
  9
$CMLSTYLE
  2
Standard
  9
$CMLJUST
 70
    0
  9
$CMLSCALE
 40
20
  9
$PROXYGRAPHICS
 70
    1
  9
$MEASUREMENT
 70
    1
  9
$CELWEIGHT
370
   -1
  9
$ENDCAPS
280
    0
  9
$JOINSTYLE
280
    0
  9
$LWDISPLAY
290
    0
  9
$INSUNITS
 70
    0
  9
$HYPERLINKBASE
  1

  9
$STYLESHEET
  1

  9
$XEDIT
290
    1
  9
$CEPSNTYPE
380
    0
  9
$PSTYLEMODE
290
    1
  9
$EXTNAMES
290
    1
  9
$PSVPSCALE
 40
0
  9
$OLESTARTUP
290
    0
  9
$SORTENTS
280
  127
  9
$INDEXCTL
280
    0
  9
$HIDETEXT
280
    1
  9
$XCLIPFRAME
290
    0
  9
$HALOGAP
280
    0
  9
$OBSCOLOR
 70
  257
  9
$OBSLTYPE
280
    0
  9
$INTERSECTIONDISPLAY
280
    0
  9
$INTERSECTIONCOLOR
 70
  257
  9
$DIMASSOC
280
    1
  9
$PROJECTNAME
  1

  0
ENDSEC
  0
SECTION
  2
CLASSES
  0
ENDSEC
  0
SECTION
  2
TABLES
  0
TABLE
  2
VPORT
  5
8
330
0
100
AcDbSymbolTable
 70
    1
  0
VPORT
  5
31
330
2
100
AcDbSymbolTableRecord
100
AcDbViewportTableRecord
  2
*ACTIVE
 70
    0
 10
0
 20
0
 11
1
 21
1
 12
0.651828
 22
-0.16
 13
0
 23
0
 14
10
 24
10
 15
10
 25
10
 16
0
 26
0
 36
1
 17
0
 27
0
 37
0
 40
5.13732
 41
2.4426877
 42
50
 43
0
 44
0
 50
0
 51
0
 71
    0
 72
  100
 73
    1
 74
    3
 75
    0
 76
    0
 77
    0
 78
    0
281
    0
 65
    1
110
0
120
0
130
0
111
1
121
0
131
0
112
0
122
1
132
0
 79
    0
146
0
  0
ENDTAB
  0
TABLE
  2
LTYPE
  5
5
330
0
100
AcDbSymbolTable
 70
    4
  0
LTYPE
  5
14
330
5
100
AcDbSymbolTableRecord
100
AcDbLinetypeTableRecord
  2
ByBlock
 70
    0
  3

 72
   65
 73
    0
 40
0
  0
LTYPE
  5
15
330
5
100
AcDbSymbolTableRecord
100
AcDbLinetypeTableRecord
  2
ByLayer
 70
    0
  3

 72
   65
 73
    0
 40
0
  0
LTYPE
  5
16
330
5
100
AcDbSymbolTableRecord
100
AcDbLinetypeTableRecord
  2
Continuous
 70
    0
  3
Solid line
 72
   65
 73
    0
 40
0
  0
ENDTAB
  0
TABLE
  2
LAYER
  5
2
330
0
100
AcDbSymbolTable
 70
    1
  0
LAYER
  5
10
330
2
100
AcDbSymbolTableRecord
100
AcDbLayerTableRecord
  2
0
 70
    0
 62
    7
  6
CONTINUOUS
370
   -3
390
F
  0
ENDTAB
  0
TABLE
  2
STYLE
  5
3
330
0
100
AcDbSymbolTable
 70
    3
  0
STYLE
  5
32
330
2
100
AcDbSymbolTableRecord
100
AcDbTextStyleTableRecord
  2
Standard
 70
    0
 40
0
 41
1
 50
0
 71
    0
 42
1
  3
txt
  4

  0
ENDTAB
  0
TABLE
  2
VIEW
  5
6
330
0
100
AcDbSymbolTable
 70
    0
  0
ENDTAB
  0
TABLE
  2
UCS
  5
7
330
0
100
AcDbSymbolTable
 70
    0
  0
ENDTAB
  0
TABLE
  2
APPID
  5
9
330
0
100
AcDbSymbolTable
 70
    1
  0
APPID
  5
12
330
9
100
AcDbSymbolTableRecord
100
AcDbRegAppTableRecord
  2
ACAD
 70
    0
  0
ENDTAB
  0
TABLE
  2
DIMSTYLE
  5
A
330
0
100
AcDbSymbolTable
 70
    1
100
AcDbDimStyleTable
 71
    1
  0
DIMSTYLE
105
33
330
A
100
AcDbSymbolTableRecord
100
AcDbDimStyleTableRecord
  2
Standard
 70
    0
 40
1
 41
2.5
 42
0.625
 43
3.75
 44
1.25
 45
0
 46
0
 47
0
 48
0
140
2.5
141
2.5
142
0
143
0.03937007874015748
144
1
145
0
146
1
147
0.625
148
0
 71
    0
 72
    0
 73
    0
 74
    0
 75
    0
 76
    0
 77
    1
 78
    8
 79
    0
170
    0
171
    3
172
    1
173
    0
174
    0
175
    0
176
    0
177
    0
178
    0
179
    0
271
    2
272
    2
273
    2
274
    3
275
    0
276
    0
277
    2
278
   44
279
    0
280
    0
281
    0
282
    0
283
    0
284
    8
285
    0
286
    0
288
    0
289
    3
341

371
   -2
372
   -2
  0
ENDTAB
  0
TABLE
  2
BLOCK_RECORD
  5
1
330
0
100
AcDbSymbolTable
 70
    2
  0
BLOCK_RECORD
  5
1F
330
1
100
AcDbSymbolTableRecord
100
AcDbBlockTableRecord
  2
*Model_Space
  0
BLOCK_RECORD
  5
1E
330
1
100
AcDbSymbolTableRecord
100
AcDbBlockTableRecord
  2
*Paper_Space
  0
ENDTAB
  0
ENDSEC
  0
SECTION
  2
BLOCKS
  0
BLOCK
  5
20
330
1F
100
AcDbEntity
  8
0
100
AcDbBlockBegin
  2
*Model_Space
 70
    0
 10
0
 20
0
 30
0
  3
*Model_Space
  1

  0
ENDBLK
  5
21
330
1F
100
AcDbEntity
  8
0
100
AcDbBlockEnd
  0
BLOCK
  5
1C
330
1B
100
AcDbEntity
  8
0
100
AcDbBlockBegin
  2
*Paper_Space
 70
    0
 10
0
 20
0
 30
0
  3
*Paper_Space
  1

  0
ENDBLK
  5
1D
330
1F
100
AcDbEntity
  8
0
100
AcDbBlockEnd
  0
ENDSEC
  0
SECTION
  2
ENTITIES
  0
LINE
  5
34
100
AcDbEntity
  8
0
  6
BYLAYER
 62
  256
420
    0
370
   13
100
AcDbLine
 10
-48.11786270542266
 20
13.40287797278193
 11
-38.11786270542267
 21
13.40287797278193
  0
LINE
  5
35
100
AcDbEntity
  8
0
  6
BYLAYER
 62
  256
420
    0
370
   13
100
AcDbLine
 10
-38.11786270542267
 20
13.40287797278193
 11
-38.11786270542267
 21
25.40287797278193
  0
LINE
  5
36
100
AcDbEntity
  8
0
  6
BYLAYER
 62
  256
420
    0
370
   13
100
AcDbLine
 10
-38.11786270542267
 20
25.40287797278193
 11
-29.11786270542267
 21
25.40287797278193
  0
LINE
  5
37
100
AcDbEntity
  8
0
  6
BYLAYER
 62
  256
420
    0
370
   13
100
AcDbLine
 10
-29.11786270542267
 20
25.40287797278193
 11
-29.11786270542266
 21
39.40287797278194
  0
LINE
  5
38
100
AcDbEntity
  8
0
  6
BYLAYER
 62
  256
420
    0
370
   13
100
AcDbLine
 10
-29.11786270542266
 20
39.40287797278194
 11
-57.11786270542267
 21
39.40287797278194
  0
LINE
  5
39
100
AcDbEntity
  8
0
  6
BYLAYER
 62
  256
420
    0
370
   13
100
AcDbLine
 10
-57.11786270542267
 20
39.40287797278194
 11
-57.11786270542267
 21
25.40287797278193
  0
LINE
  5
3A
100
AcDbEntity
  8
0
  6
BYLAYER
 62
  256
420
    0
370
   13
100
AcDbLine
 10
-57.11786270542267
 20
25.40287797278193
 11
-48.11786270542267
 21
25.40287797278193
  0
LINE
  5
3B
100
AcDbEntity
  8
0
  6
BYLAYER
 62
  256
420
    0
370
   13
100
AcDbLine
 10
-48.11786270542267
 20
25.40287797278193
 11
-48.11786270542266
 21
13.40287797278193
  0
LINE
  5
3C
100
AcDbEntity
  8
0
  6
BYLAYER
 62
  256
420
    0
370
   13
100
AcDbLine
 10
-38.11786270542267
 20
1.402877972781933
 11
-48.11786270542267
 21
1.402877972781933
  0
LINE
  5
3D
100
AcDbEntity
  8
0
  6
BYLAYER
 62
  256
420
    0
370
   13
100
AcDbLine
 10
-48.11786270542267
 20
1.402877972781933
 11
-38.11786270542267
 21
1.402877972781933
  0
LINE
  5
3E
100
AcDbEntity
  8
0
  6
BYLAYER
 62
  256
420
    0
370
   13
100
AcDbLine
 10
57.11786270542267
 20
13.40287797278193
 11
57.11786270542267
 21
25.40287797278193
  0
LINE
  5
3F
100
AcDbEntity
  8
0
  6
BYLAYER
 62
  256
420
    0
370
   13
100
AcDbLine
 10
57.11786270542267
 20
25.40287797278193
 11
57.11786270542267
 21
39.40287797278194
  0
LINE
  5
40
100
AcDbEntity
  8
0
  6
BYLAYER
 62
  256
420
    0
370
   13
100
AcDbLine
 10
57.11786270542267
 20
39.40287797278194
 11
50.11786270542267
 21
39.40287797278194
  0
LINE
  5
41
100
AcDbEntity
  8
0
  6
BYLAYER
 62
  256
420
    0
370
   13
100
AcDbLine
 10
50.11786270542267
 20
39.40287797278194
 11
50.11786270542267
 21
49.40287797278194
  0
LINE
  5
42
100
AcDbEntity
  8
0
  6
BYLAYER
 62
  256
420
    0
370
   13
100
AcDbLine
 10
50.11786270542267
 20
49.40287797278194
 11
40.11786270542266
 21
49.40287797278194
  0
LINE
  5
43
100
AcDbEntity
  8
0
  6
BYLAYER
 62
  256
420
    0
370
   13
100
AcDbLine
 10
40.11786270542266
 20
49.40287797278194
 11
40.11786270542266
 21
39.40287797278194
  0
LINE
  5
44
100
AcDbEntity
  8
0
  6
BYLAYER
 62
  256
420
    0
370
   13
100
AcDbLine
 10
40.11786270542266
 20
39.40287797278194
 11
33.11786270542266
 21
39.40287797278194
  0
LINE
  5
45
100
AcDbEntity
  8
0
  6
BYLAYER
 62
  256
420
    0
370
   13
100
AcDbLine
 10
33.11786270542266
 20
39.40287797278194
 11
33.11786270542266
 21
25.40287797278193
  0
LINE
  5
46
100
AcDbEntity
  8
0
  6
BYLAYER
 62
  256
420
    0
370
   13
100
AcDbLine
 10
33.11786270542267
 20
25.40287797278193
 11
33.11786270542267
 21
13.40287797278193
  0
LINE
  5
47
100
AcDbEntity
  8
0
  6
BYLAYER
 62
  256
420
    0
370
   13
100
AcDbLine
 10
33.11786270542267
 20
13.40287797278193
 11
33.11786270542267
 21
25.40287797278193
  0
LINE
  5
48
100
AcDbEntity
  8
0
  6
BYLAYER
 62
  256
420
    0
370
   13
100
AcDbLine
 10
33.11786270542266
 20
25.40287797278193
 11
57.11786270542267
 21
25.40287797278193
  0
LINE
  5
49
100
AcDbEntity
  8
0
  6
BYLAYER
 62
  256
420
    0
370
   13
100
AcDbLine
 10
57.11786270542267
 20
25.40287797278193
 11
57.11786270542267
 21
13.40287797278193
  0
LINE
  5
4A
100
AcDbEntity
  8
0
  6
BYLAYER
 62
  256
420
    0
370
   13
100
AcDbLine
 10
57.11786270542267
 20
13.40287797278193
 11
56.91752712642156
 21
11.2193213438362
  0
LINE
  5
4B
100
AcDbEntity
  8
0
  6
BYLAYER
 62
  256
420
    0
370
   13
100
AcDbLine
 10
56.91752712642156
 20
11.2193213438362
 11
56.27532231817183
 21
8.98574145803946
  0
LINE
  5
4C
100
AcDbEntity
  8
0
  6
BYLAYER
 62
  256
420
    0
370
   13
100
AcDbLine
 10
56.27532231817183
 20
8.98574145803946
 11
55.16180884004648
 21
6.836360932160229
  0
LINE
  5
4D
100
AcDbEntity
  8
0
  6
BYLAYER
 62
  256
420
    0
370
   13
100
AcDbLine
 10
55.16180884004648
 20
6.836360932160229
 11
53.60314407966123
 21
4.917596598543359
  0
LINE
  5
4E
100
AcDbEntity
  8
0
  6
BYLAYER
 62
  256
420
    0
370
   13
100
AcDbLine
 10
53.60314407966123
 20
4.917596598543359
 11
51.68437974604437
 21
3.358931838158124
  0
LINE
  5
4F
100
AcDbEntity
  8
0
  6
BYLAYER
 62
  256
420
    0
370
   13
100
AcDbLine
 10
51.68437974604437
 20
3.358931838158124
 11
49.53499922016514
 21
2.245418360032769
  0
LINE
  5
50
100
AcDbEntity
  8
0
  6
BYLAYER
 62
  256
420
    0
370
   13
100
AcDbLine
 10
49.53499922016514
 20
2.245418360032769
 11
47.3014193343684
 21
1.603213551783039
  0
LINE
  5
51
100
AcDbEntity
  8
0
  6
BYLAYER
 62
  256
420
    0
370
   13
100
AcDbLine
 10
47.3014193343684
 20
1.603213551783039
 11
45.11786270542267
 21
1.402877972781933
  0
LINE
  5
52
100
AcDbEntity
  8
0
  6
BYLAYER
 62
  256
420
    0
370
   13
100
AcDbLine
 10
45.11786270542267
 20
1.402877972781933
 11
42.93430607647693
 21
1.603213551783039
  0
LINE
  5
53
100
AcDbEntity
  8
0
  6
BYLAYER
 62
  256
420
    0
370
   13
100
AcDbLine
 10
42.93430607647693
 20
1.603213551783039
 11
40.70072619068019
 21
2.245418360032769
  0
LINE
  5
54
100
AcDbEntity
  8
0
  6
BYLAYER
 62
  256
420
    0
370
   13
100
AcDbLine
 10
40.70072619068019
 20
2.245418360032769
 11
38.55134566480095
 21
3.358931838158124
  0
LINE
  5
55
100
AcDbEntity
  8
0
  6
BYLAYER
 62
  256
420
    0
370
   13
100
AcDbLine
 10
38.55134566480095
 20
3.358931838158124
 11
36.63258133118409
 21
4.917596598543359
  0
LINE
  5
56
100
AcDbEntity
  8
0
  6
BYLAYER
 62
  256
420
    0
370
   13
100
AcDbLine
 10
36.63258133118409
 20
4.917596598543359
 11
35.07391657079884
 21
6.836360932160229
  0
LINE
  5
57
100
AcDbEntity
  8
0
  6
BYLAYER
 62
  256
420
    0
370
   13
100
AcDbLine
 10
35.07391657079884
 20
6.836360932160229
 11
33.9604030926735
 21
8.98574145803946
  0
LINE
  5
58
100
AcDbEntity
  8
0
  6
BYLAYER
 62
  256
420
    0
370
   13
100
AcDbLine
 10
33.9604030926735
 20
8.98574145803946
 11
33.31819828442377
 21
11.2193213438362
  0
LINE
  5
59
100
AcDbEntity
  8
0
  6
BYLAYER
 62
  256
420
    0
370
   13
100
AcDbLine
 10
33.31819828442377
 20
11.2193213438362
 11
33.11786270542267
 21
13.40287797278193
  0
LINE
  5
5A
100
AcDbEntity
  8
0
  6
BYLAYER
 62
  256
420
    0
370
   13
100
AcDbLine
 10
33.11786270542267
 20
13.40287797278193
 11
33.31819828442377
 21
11.2193213438362
  0
LINE
  5
5B
100
AcDbEntity
  8
0
  6
BYLAYER
 62
  256
420
    0
370
   13
100
AcDbLine
 10
33.31819828442377
 20
11.2193213438362
 11
33.9604030926735
 21
8.98574145803946
  0
LINE
  5
5C
100
AcDbEntity
  8
0
  6
BYLAYER
 62
  256
420
    0
370
   13
100
AcDbLine
 10
33.9604030926735
 20
8.98574145803946
 11
35.07391657079884
 21
6.836360932160229
  0
LINE
  5
5D
100
AcDbEntity
  8
0
  6
BYLAYER
 62
  256
420
    0
370
   13
100
AcDbLine
 10
35.07391657079884
 20
6.836360932160229
 11
36.63258133118409
 21
4.917596598543359
  0
LINE
  5
5E
100
AcDbEntity
  8
0
  6
BYLAYER
 62
  256
420
    0
370
   13
100
AcDbLine
 10
36.63258133118409
 20
4.917596598543359
 11
38.55134566480095
 21
3.358931838158124
  0
LINE
  5
5F
100
AcDbEntity
  8
0
  6
BYLAYER
 62
  256
420
    0
370
   13
100
AcDbLine
 10
38.55134566480095
 20
3.358931838158124
 11
40.70072619068019
 21
2.245418360032769
  0
LINE
  5
60
100
AcDbEntity
  8
0
  6
BYLAYER
 62
  256
420
    0
370
   13
100
AcDbLine
 10
40.70072619068019
 20
2.245418360032769
 11
42.93430607647693
 21
1.603213551783039
  0
LINE
  5
61
100
AcDbEntity
  8
0
  6
BYLAYER
 62
  256
420
    0
370
   13
100
AcDbLine
 10
42.93430607647693
 20
1.603213551783039
 11
45.11786270542267
 21
1.402877972781933
  0
LINE
  5
62
100
AcDbEntity
  8
0
  6
BYLAYER
 62
  256
420
    0
370
   13
100
AcDbLine
 10
45.11786270542267
 20
1.402877972781933
 11
47.3014193343684
 21
1.603213551783039
  0
LINE
  5
63
100
AcDbEntity
  8
0
  6
BYLAYER
 62
  256
420
    0
370
   13
100
AcDbLine
 10
47.3014193343684
 20
1.603213551783039
 11
49.53499922016514
 21
2.245418360032769
  0
LINE
  5
64
100
AcDbEntity
  8
0
  6
BYLAYER
 62
  256
420
    0
370
   13
100
AcDbLine
 10
49.53499922016514
 20
2.245418360032769
 11
51.68437974604437
 21
3.358931838158124
  0
LINE
  5
65
100
AcDbEntity
  8
0
  6
BYLAYER
 62
  256
420
    0
370
   13
100
AcDbLine
 10
51.68437974604437
 20
3.358931838158124
 11
53.60314407966123
 21
4.917596598543359
  0
LINE
  5
66
100
AcDbEntity
  8
0
  6
BYLAYER
 62
  256
420
    0
370
   13
100
AcDbLine
 10
53.60314407966123
 20
4.917596598543359
 11
55.16180884004648
 21
6.836360932160229
  0
LINE
  5
67
100
AcDbEntity
  8
0
  6
BYLAYER
 62
  256
420
    0
370
   13
100
AcDbLine
 10
55.16180884004648
 20
6.836360932160229
 11
56.27532231817183
 21
8.98574145803946
  0
LINE
  5
68
100
AcDbEntity
  8
0
  6
BYLAYER
 62
  256
420
    0
370
   13
100
AcDbLine
 10
56.27532231817183
 20
8.98574145803946
 11
56.91752712642156
 21
11.2193213438362
  0
LINE
  5
69
100
AcDbEntity
  8
0
  6
BYLAYER
 62
  256
420
    0
370
   13
100
AcDbLine
 10
56.91752712642156
 20
11.2193213438362
 11
57.11786270542267
 21
13.40287797278193
  0
LINE
  5
6A
100
AcDbEntity
  8
0
  6
BYLAYER
 62
  256
420
    0
370
   13
100
AcDbLine
 10
45.11786270542267
 20
21.65287797278193
 11
42.08108135153722
 21
21.07363145654698
  0
LINE
  5
6B
100
AcDbEntity
  8
0
  6
BYLAYER
 62
  256
420
    0
370
   13
100
AcDbLine
 10
42.08108135153722
 20
21.07363145654698
 11
39.28423176063365
 21
19.23650891757095
  0
LINE
  5
6C
100
AcDbEntity
  8
0
  6
BYLAYER
 62
  256
420
    0
370
   13
100
AcDbLine
 10
39.28423176063365
 20
19.23650891757095
 11
37.44710922165761
 21
16.43965932666739
  0
LINE
  5
6D
100
AcDbEntity
  8
0
  6
BYLAYER
 62
  256
420
    0
370
   13
100
AcDbLine
 10
37.44710922165761
 20
16.43965932666739
 11
36.86786270542267
 21
13.40287797278193
  0
LINE
  5
6E
100
AcDbEntity
  8
0
  6
BYLAYER
 62
  256
420
    0
370
   13
100
AcDbLine
 10
36.86786270542267
 20
13.40287797278193
 11
37.44710922165761
 21
10.36609661889649
  0
LINE
  5
6F
100
AcDbEntity
  8
0
  6
BYLAYER
 62
  256
420
    0
370
   13
100
AcDbLine
 10
37.44710922165761
 20
10.36609661889649
 11
39.28423176063365
 21
7.569247027992919
  0
LINE
  5
70
100
AcDbEntity
  8
0
  6
BYLAYER
 62
  256
420
    0
370
   13
100
AcDbLine
 10
39.28423176063365
 20
7.569247027992919
 11
42.08108135153722
 21
5.732124489016886
  0
LINE
  5
71
100
AcDbEntity
  8
0
  6
BYLAYER
 62
  256
420
    0
370
   13
100
AcDbLine
 10
42.08108135153722
 20
5.732124489016886
 11
45.11786270542267
 21
5.152877972781933
  0
LINE
  5
72
100
AcDbEntity
  8
0
  6
BYLAYER
 62
  256
420
    0
370
   13
100
AcDbLine
 10
45.11786270542267
 20
5.152877972781933
 11
48.15464405930811
 21
5.732124489016886
  0
LINE
  5
73
100
AcDbEntity
  8
0
  6
BYLAYER
 62
  256
420
    0
370
   13
100
AcDbLine
 10
48.15464405930811
 20
5.732124489016886
 11
50.95149365021169
 21
7.569247027992919
  0
LINE
  5
74
100
AcDbEntity
  8
0
  6
BYLAYER
 62
  256
420
    0
370
   13
100
AcDbLine
 10
50.95149365021169
 20
7.569247027992919
 11
52.78861618918772
 21
10.36609661889649
  0
LINE
  5
75
100
AcDbEntity
  8
0
  6
BYLAYER
 62
  256
420
    0
370
   13
100
AcDbLine
 10
52.78861618918772
 20
10.36609661889649
 11
53.36786270542267
 21
13.40287797278193
  0
LINE
  5
76
100
AcDbEntity
  8
0
  6
BYLAYER
 62
  256
420
    0
370
   13
100
AcDbLine
 10
53.36786270542267
 20
13.40287797278193
 11
52.78861618918772
 21
16.43965932666739
  0
LINE
  5
77
100
AcDbEntity
  8
0
  6
BYLAYER
 62
  256
420
    0
370
   13
100
AcDbLine
 10
52.78861618918772
 20
16.43965932666739
 11
50.95149365021169
 21
19.23650891757095
  0
LINE
  5
78
100
AcDbEntity
  8
0
  6
BYLAYER
 62
  256
420
    0
370
   13
100
AcDbLine
 10
50.95149365021169
 20
19.23650891757095
 11
48.15464405930811
 21
21.07363145654698
  0
LINE
  5
79
100
AcDbEntity
  8
0
  6
BYLAYER
 62
  256
420
    0
370
   13
100
AcDbLine
 10
48.15464405930811
 20
21.07363145654698
 11
45.11786270542267
 21
21.65287797278193
  0
LINE
  5
7A
100
AcDbEntity
  8
0
  6
BYLAYER
 62
  256
420
    0
370
   13
100
AcDbLine
 10
-48.11786270542267
 20
-36.89200326585799
 11
-57.11786270542267
 21
-36.89200326585799
  0
LINE
  5
7B
100
AcDbEntity
  8
0
  6
BYLAYER
 62
  256
420
    0
370
   13
100
AcDbLine
 10
-57.11786270542267
 20
-36.89200326585799
 11
-48.11786270542267
 21
-36.89200326585799
  0
LINE
  5
7C
100
AcDbEntity
  8
0
  6
BYLAYER
 62
  256
420
    0
370
   13
100
AcDbLine
 10
-57.11786270542267
 20
-60.89200326585799
 11
-57.11786270542267
 21
-36.89200326585799
  0
LINE
  5
7D
100
AcDbEntity
  8
0
  6
BYLAYER
 62
  256
420
    0
370
   13
100
AcDbLine
 10
-57.11786270542267
 20
-36.89200326585799
 11
-57.11786270542267
 21
-60.89200326585799
  0
LINE
  5
7E
100
AcDbEntity
  8
0
  6
BYLAYER
 62
  256
420
    0
370
   13
100
AcDbLine
 10
-38.11786270542267
 20
-48.89200326585799
 11
-48.11786270542267
 21
-48.89200326585799
  0
LINE
  5
7F
100
AcDbEntity
  8
0
  6
BYLAYER
 62
  256
420
    0
370
   13
100
AcDbLine
 10
-48.11786270542267
 20
-48.89200326585799
 11
-48.11786270542267
 21
-51.07555989480373
  0
LINE
  5
80
100
AcDbEntity
  8
0
  6
BYLAYER
 62
  256
420
    0
370
   13
100
AcDbLine
 10
-48.11786270542267
 20
-51.07555989480373
 11
-48.11786270542267
 21
-53.30913978060048
  0
LINE
  5
81
100
AcDbEntity
  8
0
  6
BYLAYER
 62
  256
420
    0
370
   13
100
AcDbLine
 10
-48.11786270542267
 20
-53.30913978060048
 11
-48.11786270542267
 21
-55.45852030647971
  0
LINE
  5
82
100
AcDbEntity
  8
0
  6
BYLAYER
 62
  256
420
    0
370
   13
100
AcDbLine
 10
-48.11786270542267
 20
-55.45852030647971
 11
-48.11786270542267
 21
-57.37728464009656
  0
LINE
  5
83
100
AcDbEntity
  8
0
  6
BYLAYER
 62
  256
420
    0
370
   13
100
AcDbLine
 10
-48.11786270542267
 20
-57.37728464009656
 11
-48.11786270542267
 21
-58.93594940048182
  0
LINE
  5
84
100
AcDbEntity
  8
0
  6
BYLAYER
 62
  256
420
    0
370
   13
100
AcDbLine
 10
-48.11786270542267
 20
-58.93594940048182
 11
-48.11786270542267
 21
-60.04946287860716
  0
LINE
  5
85
100
AcDbEntity
  8
0
  6
BYLAYER
 62
  256
420
    0
370
   13
100
AcDbLine
 10
-48.11786270542267
 20
-60.04946287860716
 11
-48.11786270542267
 21
-60.69166768685689
  0
LINE
  5
86
100
AcDbEntity
  8
0
  6
BYLAYER
 62
  256
420
    0
370
   13
100
AcDbLine
 10
-48.11786270542267
 20
-60.69166768685689
 11
-48.11786270542267
 21
-60.89200326585799
  0
LINE
  5
87
100
AcDbEntity
  8
0
  6
BYLAYER
 62
  256
420
    0
370
   13
100
AcDbLine
 10
-48.11786270542267
 20
-60.89200326585799
 11
-38.11786270542268
 21
-60.89200326585799
  0
LINE
  5
88
100
AcDbEntity
  8
0
  6
BYLAYER
 62
  256
420
    0
370
   13
100
AcDbLine
 10
-38.11786270542268
 20
-60.89200326585799
 11
-38.11786270542267
 21
-60.69166768685689
  0
LINE
  5
89
100
AcDbEntity
  8
0
  6
BYLAYER
 62
  256
420
    0
370
   13
100
AcDbLine
 10
-38.11786270542267
 20
-60.69166768685689
 11
-38.11786270542268
 21
-60.04946287860716
  0
LINE
  5
8A
100
AcDbEntity
  8
0
  6
BYLAYER
 62
  256
420
    0
370
   13
100
AcDbLine
 10
-38.11786270542268
 20
-60.04946287860716
 11
-38.11786270542268
 21
-58.93594940048182
  0
LINE
  5
8B
100
AcDbEntity
  8
0
  6
BYLAYER
 62
  256
420
    0
370
   13
100
AcDbLine
 10
-38.11786270542268
 20
-58.93594940048182
 11
-38.11786270542268
 21
-57.37728464009656
  0
LINE
  5
8C
100
AcDbEntity
  8
0
  6
BYLAYER
 62
  256
420
    0
370
   13
100
AcDbLine
 10
-38.11786270542268
 20
-57.37728464009656
 11
-38.11786270542268
 21
-55.45852030647971
  0
LINE
  5
8D
100
AcDbEntity
  8
0
  6
BYLAYER
 62
  256
420
    0
370
   13
100
AcDbLine
 10
-38.11786270542268
 20
-55.45852030647971
 11
-38.11786270542267
 21
-53.30913978060048
  0
LINE
  5
8E
100
AcDbEntity
  8
0
  6
BYLAYER
 62
  256
420
    0
370
   13
100
AcDbLine
 10
-38.11786270542267
 20
-53.30913978060048
 11
-38.11786270542267
 21
-51.07555989480373
  0
LINE
  5
8F
100
AcDbEntity
  8
0
  6
BYLAYER
 62
  256
420
    0
370
   13
100
AcDbLine
 10
-38.11786270542267
 20
-51.07555989480373
 11
-38.11786270542267
 21
-48.89200326585799
  0
LINE
  5
90
100
AcDbEntity
  8
0
  6
BYLAYER
 62
  256
420
    0
370
   13
100
AcDbLine
 10
50.11786270542267
 20
58.69146416040617
 11
50.11786270542267
 21
60.89200326585799
  0
LINE
  5
91
100
AcDbEntity
  8
0
  6
BYLAYER
 62
  256
420
    0
370
   13
100
AcDbLine
 10
50.11786270542267
 20
60.89200326585799
 11
40.11786270542267
 21
60.89200326585799
  0
LINE
  5
92
100
AcDbEntity
  8
0
  6
BYLAYER
 62
  256
420
    0
370
   13
100
AcDbLine
 10
40.11786270542267
 20
60.89200326585801
 11
40.11786270542266
 21
58.69146416040617
  0
LINE
  5
93
100
AcDbEntity
  8
0
  6
BYLAYER
 62
  256
420
    0
370
   13
100
AcDbLine
 10
40.11786270542266
 20
58.69146416040617
 11
40.11786270542266
 21
55.88361867118979
  0
LINE
  5
94
100
AcDbEntity
  8
0
  6
BYLAYER
 62
  256
420
    0
370
   13
100
AcDbLine
 10
40.11786270542266
 20
55.88361867118979
 11
40.11786270542267
 21
52.69130663976226
  0
LINE
  5
95
100
AcDbEntity
  8
0
  6
BYLAYER
 62
  256
420
    0
370
   13
100
AcDbLine
 10
40.11786270542267
 20
52.69130663976226
 11
40.11786270542266
 21
49.40287797278194
  0
LINE
  5
96
100
AcDbEntity
  8
0
  6
BYLAYER
 62
  256
420
    0
370
   13
100
AcDbLine
 10
40.11786270542266
 20
49.40287797278194
 11
40.11786270542266
 21
39.40287797278194
  0
LINE
  5
97
100
AcDbEntity
  8
0
  6
BYLAYER
 62
  256
420
    0
370
   13
100
AcDbLine
 10
40.11786270542266
 20
39.40287797278194
 11
33.11786270542266
 21
39.40287797278194
  0
LINE
  5
98
100
AcDbEntity
  8
0
  6
BYLAYER
 62
  256
420
    0
370
   13
100
AcDbLine
 10
33.11786270542266
 20
39.40287797278194
 11
33.11786270542266
 21
25.40287797278194
  0
LINE
  5
99
100
AcDbEntity
  8
0
  6
BYLAYER
 62
  256
420
    0
370
   13
100
AcDbLine
 10
33.11786270542266
 20
25.40287797278193
 11
57.11786270542267
 21
25.40287797278193
  0
LINE
  5
9A
100
AcDbEntity
  8
0
  6
BYLAYER
 62
  256
420
    0
370
   13
100
AcDbLine
 10
57.11786270542267
 20
25.40287797278193
 11
57.11786270542267
 21
39.40287797278194
  0
LINE
  5
9B
100
AcDbEntity
  8
0
  6
BYLAYER
 62
  256
420
    0
370
   13
100
AcDbLine
 10
57.11786270542267
 20
39.40287797278194
 11
50.11786270542267
 21
39.40287797278194
  0
LINE
  5
9C
100
AcDbEntity
  8
0
  6
BYLAYER
 62
  256
420
    0
370
   13
100
AcDbLine
 10
50.11786270542267
 20
39.40287797278194
 11
50.11786270542267
 21
49.40287797278202
  0
LINE
  5
9D
100
AcDbEntity
  8
0
  6
BYLAYER
 62
  256
420
    0
370
   13
100
AcDbLine
 10
50.11786270542267
 20
49.40287797278202
 11
50.11786270542267
 21
52.69130663976226
  0
LINE
  5
9E
100
AcDbEntity
  8
0
  6
BYLAYER
 62
  256
420
    0
370
   13
100
AcDbLine
 10
50.11786270542267
 20
52.69130663976226
 11
50.11786270542267
 21
55.88361867118979
  0
LINE
  5
9F
100
AcDbEntity
  8
0
  6
BYLAYER
 62
  256
420
    0
370
   13
100
AcDbLine
 10
50.11786270542267
 20
55.88361867118979
 11
50.11786270542267
 21
58.69146416040617
  0
LINE
  5
A0
100
AcDbEntity
  8
0
  6
BYLAYER
 62
  256
420
    0
370
   13
100
AcDbLine
 10
57.11786270542267
 20
39.40287797278194
 11
57.11786270542267
 21
25.40287797278193
  0
LINE
  5
A1
100
AcDbEntity
  8
0
  6
BYLAYER
 62
  256
420
    0
370
   13
100
AcDbLine
 10
57.11786270542267
 20
25.40287797278193
 11
33.11786270542266
 21
25.40287797278193
  0
LINE
  5
A2
100
AcDbEntity
  8
0
  6
BYLAYER
 62
  256
420
    0
370
   13
100
AcDbLine
 10
33.11786270542266
 20
25.40287797278193
 11
33.11786270542266
 21
39.40287797278194
  0
LINE
  5
A3
100
AcDbEntity
  8
0
  6
BYLAYER
 62
  256
420
    0
370
   13
100
AcDbLine
 10
33.11786270542266
 20
39.40287797278194
 11
40.11786270542266
 21
39.40287797278194
  0
LINE
  5
A4
100
AcDbEntity
  8
0
  6
BYLAYER
 62
  256
420
    0
370
   13
100
AcDbLine
 10
40.11786270542266
 20
39.40287797278194
 11
40.11786270542266
 21
49.4028779728302
  0
LINE
  5
A5
100
AcDbEntity
  8
0
  6
BYLAYER
 62
  256
420
    0
370
   13
100
AcDbLine
 10
40.11786270542266
 20
49.40287797278194
 11
40.11786270542266
 21
52.69130663976226
  0
LINE
  5
A6
100
AcDbEntity
  8
0
  6
BYLAYER
 62
  256
420
    0
370
   13
100
AcDbLine
 10
40.11786270542266
 20
52.69130663976226
 11
40.11786270542266
 21
55.88361867118979
  0
LINE
  5
A7
100
AcDbEntity
  8
0
  6
BYLAYER
 62
  256
420
    0
370
   13
100
AcDbLine
 10
40.11786270542266
 20
55.88361867118979
 11
40.11786270542266
 21
58.69146416040617
  0
LINE
  5
A8
100
AcDbEntity
  8
0
  6
BYLAYER
 62
  256
420
    0
370
   13
100
AcDbLine
 10
40.11786270542266
 20
58.69146416040617
 11
40.11786270542267
 21
60.89200326585799
  0
LINE
  5
A9
100
AcDbEntity
  8
0
  6
BYLAYER
 62
  256
420
    0
370
   13
100
AcDbLine
 10
40.11786270542267
 20
60.89200326585799
 11
50.11786270542267
 21
60.89200326585799
  0
LINE
  5
AA
100
AcDbEntity
  8
0
  6
BYLAYER
 62
  256
420
    0
370
   13
100
AcDbLine
 10
50.11786270542267
 20
60.89200326585799
 11
50.11786270542267
 21
58.69146416040617
  0
LINE
  5
AB
100
AcDbEntity
  8
0
  6
BYLAYER
 62
  256
420
    0
370
   13
100
AcDbLine
 10
50.11786270542267
 20
58.69146416040617
 11
50.11786270542267
 21
55.88361867118979
  0
LINE
  5
AC
100
AcDbEntity
  8
0
  6
BYLAYER
 62
  256
420
    0
370
   13
100
AcDbLine
 10
50.11786270542267
 20
55.88361867118979
 11
50.11786270542267
 21
52.69130663976226
  0
LINE
  5
AD
100
AcDbEntity
  8
0
  6
BYLAYER
 62
  256
420
    0
370
   13
100
AcDbLine
 10
50.11786270542267
 20
52.69130663976226
 11
50.11786270542267
 21
49.40287797278194
  0
LINE
  5
AE
100
AcDbEntity
  8
0
  6
BYLAYER
 62
  256
420
    0
370
   13
100
AcDbLine
 10
50.11786270542267
 20
49.40287797278194
 11
40.11786270542266
 21
49.40287797278194
  0
LINE
  5
AF
100
AcDbEntity
  8
0
  6
BYLAYER
 62
  256
420
    0
370
   13
100
AcDbLine
 10
40.11786270542266
 20
49.40287797278194
 11
40.11786270542266
 21
52.69130663976226
  0
LINE
  5
B0
100
AcDbEntity
  8
0
  6
BYLAYER
 62
  256
420
    0
370
   13
100
AcDbLine
 10
40.11786270542266
 20
52.69130663976226
 11
40.11786270542266
 21
55.88361867118979
  0
LINE
  5
B1
100
AcDbEntity
  8
0
  6
BYLAYER
 62
  256
420
    0
370
   13
100
AcDbLine
 10
40.11786270542266
 20
55.88361867118979
 11
40.11786270542266
 21
58.69146416040617
  0
LINE
  5
B2
100
AcDbEntity
  8
0
  6
BYLAYER
 62
  256
420
    0
370
   13
100
AcDbLine
 10
40.11786270542266
 20
58.69146416040617
 11
40.11786270542267
 21
60.89200326585799
  0
LINE
  5
B3
100
AcDbEntity
  8
0
  6
BYLAYER
 62
  256
420
    0
370
   13
100
AcDbLine
 10
40.11786270542267
 20
60.89200326585799
 11
50.11786270542267
 21
60.89200326585799
  0
LINE
  5
B4
100
AcDbEntity
  8
0
  6
BYLAYER
 62
  256
420
    0
370
   13
100
AcDbLine
 10
50.11786270542267
 20
60.89200326585799
 11
50.11786270542267
 21
58.69146416040617
  0
LINE
  5
B5
100
AcDbEntity
  8
0
  6
BYLAYER
 62
  256
420
    0
370
   13
100
AcDbLine
 10
50.11786270542267
 20
58.69146416040617
 11
50.11786270542267
 21
55.88361867118979
  0
LINE
  5
B6
100
AcDbEntity
  8
0
  6
BYLAYER
 62
  256
420
    0
370
   13
100
AcDbLine
 10
50.11786270542267
 20
55.88361867118979
 11
50.11786270542267
 21
52.69130663976226
  0
LINE
  5
B7
100
AcDbEntity
  8
0
  6
BYLAYER
 62
  256
420
    0
370
   13
100
AcDbLine
 10
50.11786270542267
 20
52.69130663976226
 11
50.11786270542267
 21
49.40287797278194
  0
LINE
  5
B8
100
AcDbEntity
  8
0
  6
BYLAYER
 62
  256
420
    0
370
   13
100
AcDbLine
 10
50.11786270542266
 20
49.40287797278202
 11
50.11786270542267
 21
39.40287797278194
  0
LINE
  5
B9
100
AcDbEntity
  8
0
  6
BYLAYER
 62
  256
420
    0
370
   13
100
AcDbLine
 10
50.11786270542267
 20
39.40287797278194
 11
57.11786270542267
 21
39.40287797278194
  0
LINE
  5
BA
100
AcDbEntity
  8
0
  6
BYLAYER
 62
  256
420
    0
370
   13
100
AcDbLine
 10
52.78861618894759
 20
16.43965932727393
 11
50.95149365021169
 21
19.23650891757095
  0
LINE
  5
BB
100
AcDbEntity
  8
0
  6
BYLAYER
 62
  256
420
    0
370
   13
100
AcDbLine
 10
50.95149365021169
 20
19.23650891757095
 11
48.15464405930811
 21
21.07363145654698
  0
LINE
  5
BC
100
AcDbEntity
  8
0
  6
BYLAYER
 62
  256
420
    0
370
   13
100
AcDbLine
 10
48.15464405930811
 20
21.07363145654698
 11
45.11786270542267
 21
21.65287797278193
  0
LINE
  5
BD
100
AcDbEntity
  8
0
  6
BYLAYER
 62
  256
420
    0
370
   13
100
AcDbLine
 10
45.11786270542267
 20
21.65287797278193
 11
42.08108135093066
 21
21.07363145630685
  0
LINE
  5
BE
100
AcDbEntity
  8
0
  6
BYLAYER
 62
  256
420
    0
370
   13
100
AcDbLine
 10
42.08108135093066
 20
21.07363145630685
 11
39.28423176063365
 21
19.23650891757095
  0
LINE
  5
BF
100
AcDbEntity
  8
0
  6
BYLAYER
 62
  256
420
    0
370
   13
100
AcDbLine
 10
39.28423176063365
 20
19.23650891757095
 11
37.44710922165761
 21
16.43965932666739
  0
LINE
  5
C0
100
AcDbEntity
  8
0
  6
BYLAYER
 62
  256
420
    0
370
   13
100
AcDbLine
 10
37.44710922165761
 20
16.43965932666739
 11
36.86786270542267
 21
13.40287797278193
  0
LINE
  5
C1
100
AcDbEntity
  8
0
  6
BYLAYER
 62
  256
420
    0
370
   13
100
AcDbLine
 10
36.86786270542267
 20
13.40287797278193
 11
37.44710922189773
 21
10.36609661828994
  0
LINE
  5
C2
100
AcDbEntity
  8
0
  6
BYLAYER
 62
  256
420
    0
370
   13
100
AcDbLine
 10
37.44710922189773
 20
10.36609661828994
 11
39.28423176063365
 21
7.569247027992917
  0
LINE
  5
C3
100
AcDbEntity
  8
0
  6
BYLAYER
 62
  256
420
    0
370
   13
100
AcDbLine
 10
39.28423176063365
 20
7.569247027992917
 11
42.08108135153722
 21
5.732124489016884
  0
LINE
  5
C4
100
AcDbEntity
  8
0
  6
BYLAYER
 62
  256
420
    0
370
   13
100
AcDbLine
 10
42.08108135153722
 20
5.732124489016884
 11
45.11786270542267
 21
5.152877972781933
  0
LINE
  5
C5
100
AcDbEntity
  8
0
  6
BYLAYER
 62
  256
420
    0
370
   13
100
AcDbLine
 10
45.11786270542267
 20
5.152877972781933
 11
48.15464405991466
 21
5.732124489257009
  0
LINE
  5
C6
100
AcDbEntity
  8
0
  6
BYLAYER
 62
  256
420
    0
370
   13
100
AcDbLine
 10
48.15464405991466
 20
5.732124489257009
 11
50.95149365021168
 21
7.569247027992917
  0
LINE
  5
C7
100
AcDbEntity
  8
0
  6
BYLAYER
 62
  256
420
    0
370
   13
100
AcDbLine
 10
50.95149365021168
 20
7.569247027992917
 11
52.78861618918772
 21
10.3660966188965
  0
LINE
  5
C8
100
AcDbEntity
  8
0
  6
BYLAYER
 62
  256
420
    0
370
   13
100
AcDbLine
 10
52.78861618918772
 20
10.3660966188965
 11
53.36786270542267
 21
13.40287797278193
  0
LINE
  5
C9
100
AcDbEntity
  8
0
  6
BYLAYER
 62
  256
420
    0
370
   13
100
AcDbLine
 10
53.36786270542267
 20
13.40287797278193
 11
52.78861618894759
 21
16.43965932727393
  0
LINE
  5
CA
100
AcDbEntity
  8
0
  6
BYLAYER
 62
  256
420
    0
370
   13
100
AcDbLine
 10
45.11786270542267
 20
5.152877972781933
 11
42.08108135153722
 21
5.732124489016886
  0
LINE
  5
CB
100
AcDbEntity
  8
0
  6
BYLAYER
 62
  256
420
    0
370
   13
100
AcDbLine
 10
42.08108135153722
 20
5.732124489016886
 11
39.28423176063365
 21
7.569247027992919
  0
LINE
  5
CC
100
AcDbEntity
  8
0
  6
BYLAYER
 62
  256
420
    0
370
   13
100
AcDbLine
 10
39.28423176063365
 20
7.569247027992919
 11
37.44710922165761
 21
10.36609661889649
  0
LINE
  5
CD
100
AcDbEntity
  8
0
  6
BYLAYER
 62
  256
420
    0
370
   13
100
AcDbLine
 10
37.44710922165761
 20
10.36609661889649
 11
36.86786270542267
 21
13.40287797278193
  0
LINE
  5
CE
100
AcDbEntity
  8
0
  6
BYLAYER
 62
  256
420
    0
370
   13
100
AcDbLine
 10
36.86786270542267
 20
13.40287797278193
 11
37.44710922165761
 21
16.43965932666739
  0
LINE
  5
CF
100
AcDbEntity
  8
0
  6
BYLAYER
 62
  256
420
    0
370
   13
100
AcDbLine
 10
37.44710922165761
 20
16.43965932666739
 11
39.28423176063365
 21
19.23650891757095
  0
LINE
  5
D0
100
AcDbEntity
  8
0
  6
BYLAYER
 62
  256
420
    0
370
   13
100
AcDbLine
 10
39.28423176063365
 20
19.23650891757095
 11
42.08108135153722
 21
21.07363145654698
  0
LINE
  5
D1
100
AcDbEntity
  8
0
  6
BYLAYER
 62
  256
420
    0
370
   13
100
AcDbLine
 10
42.08108135153722
 20
21.07363145654698
 11
45.11786270542267
 21
21.65287797278193
  0
LINE
  5
D2
100
AcDbEntity
  8
0
  6
BYLAYER
 62
  256
420
    0
370
   13
100
AcDbLine
 10
45.11786270542267
 20
21.65287797278193
 11
48.15464405930811
 21
21.07363145654698
  0
LINE
  5
D3
100
AcDbEntity
  8
0
  6
BYLAYER
 62
  256
420
    0
370
   13
100
AcDbLine
 10
48.15464405930811
 20
21.07363145654698
 11
50.95149365021169
 21
19.23650891757095
  0
LINE
  5
D4
100
AcDbEntity
  8
0
  6
BYLAYER
 62
  256
420
    0
370
   13
100
AcDbLine
 10
50.95149365021169
 20
19.23650891757095
 11
52.78861618918772
 21
16.43965932666739
  0
LINE
  5
D5
100
AcDbEntity
  8
0
  6
BYLAYER
 62
  256
420
    0
370
   13
100
AcDbLine
 10
52.78861618918772
 20
16.43965932666739
 11
53.36786270542267
 21
13.40287797278193
  0
LINE
  5
D6
100
AcDbEntity
  8
0
  6
BYLAYER
 62
  256
420
    0
370
   13
100
AcDbLine
 10
53.36786270542267
 20
13.40287797278193
 11
52.78861618918772
 21
10.36609661889649
  0
LINE
  5
D7
100
AcDbEntity
  8
0
  6
BYLAYER
 62
  256
420
    0
370
   13
100
AcDbLine
 10
52.78861618918772
 20
10.36609661889649
 11
50.95149365021169
 21
7.569247027992919
  0
LINE
  5
D8
100
AcDbEntity
  8
0
  6
BYLAYER
 62
  256
420
    0
370
   13
100
AcDbLine
 10
50.95149365021169
 20
7.569247027992919
 11
48.15464405930811
 21
5.732124489016886
  0
LINE
  5
D9
100
AcDbEntity
  8
0
  6
BYLAYER
 62
  256
420
    0
370
   13
100
AcDbLine
 10
48.15464405930811
 20
5.732124489016886
 11
45.11786270542267
 21
5.152877972781933
  0
LINE
  5
DA
100
AcDbEntity
  8
0
  6
BYLAYER
 62
  256
420
    0
370
   13
100
AcDbLine
 10
-29.50954771413229
 20
52.69130663976279
 11
-30.7081890594318
 21
55.88361867118979
  0
LINE
  5
DB
100
AcDbEntity
  8
0
  6
BYLAYER
 62
  256
420
    0
370
   13
100
AcDbLine
 10
-30.7081890594318
 20
55.88361867118979
 11
-32.64302778380771
 21
58.69146416040574
  0
LINE
  5
DC
100
AcDbEntity
  8
0
  6
BYLAYER
 62
  256
420
    0
370
   13
100
AcDbLine
 10
-32.64302778380771
 20
58.69146416040574
 11
-35.11786270538306
 21
60.89200326583043
  0
LINE
  5
DD
100
AcDbEntity
  8
0
  6
BYLAYER
 62
  256
420
    0
370
   13
100
AcDbLine
 10
-35.11786270542266
 20
60.89200326585799
 11
-35.11786270542266
 21
49.40287797278192
  0
LINE
  5
DE
100
AcDbEntity
  8
0
  6
BYLAYER
 62
  256
420
    0
370
   13
100
AcDbLine
 10
-35.11786270542267
 20
49.40287797278194
 11
-35.67955629715607
 21
46.45812029569878
  0
LINE
  5
DF
100
AcDbEntity
  8
0
  6
BYLAYER
 62
  256
420
    0
370
   13
100
AcDbLine
 10
-35.67955629715607
 20
46.45812029569878
 11
-37.46100845593029
 21
43.74602372328957
  0
LINE
  5
E0
100
AcDbEntity
  8
0
  6
BYLAYER
 62
  256
420
    0
370
   13
100
AcDbLine
 10
-37.46100845593029
 20
43.74602372328957
 11
-40.17310502833953
 21
41.96457156451534
  0
LINE
  5
E1
100
AcDbEntity
  8
0
  6
BYLAYER
 62
  256
420
    0
370
   13
100
AcDbLine
 10
-40.17310502833953
 20
41.96457156451534
 11
-43.11786270542267
 21
41.40287797278194
  0
LINE
  5
E2
100
AcDbEntity
  8
0
  6
BYLAYER
 62
  256
420
    0
370
   13
100
AcDbLine
 10
-43.11786270542267
 20
41.40287797278194
 11
-46.0626203825058
 21
41.96457156451534
  0
LINE
  5
E3
100
AcDbEntity
  8
0
  6
BYLAYER
 62
  256
420
    0
370
   13
100
AcDbLine
 10
-46.0626203825058
 20
41.96457156451534
 11
-48.77471695491506
 21
43.74602372328957
  0
LINE
  5
E4
100
AcDbEntity
  8
0
  6
BYLAYER
 62
  256
420
    0
370
   13
100
AcDbLine
 10
-48.77471695491506
 20
43.74602372328957
 11
-50.55616911368925
 21
46.45812029569878
  0
LINE
  5
E5
100
AcDbEntity
  8
0
  6
BYLAYER
 62
  256
420
    0
370
   13
100
AcDbLine
 10
-50.55616911368925
 20
46.45812029569878
 11
-51.11786270542267
 21
49.40287797278194
  0
LINE
  5
E6
100
AcDbEntity
  8
0
  6
BYLAYER
 62
  256
420
    0
370
   13
100
AcDbLine
 10
-51.11786270542267
 20
49.40287797278192
 11
-51.11786270542267
 21
60.89200326585799
  0
LINE
  5
E7
100
AcDbEntity
  8
0
  6
BYLAYER
 62
  256
420
    0
370
   13
100
AcDbLine
 10
-51.11786270542267
 20
60.89200326585799
 11
-53.59269762703762
 21
58.69146416040579
  0
LINE
  5
E8
100
AcDbEntity
  8
0
  6
BYLAYER
 62
  256
420
    0
370
   13
100
AcDbLine
 10
-53.59269762703762
 20
58.69146416040579
 11
-55.52753635141352
 21
55.88361867118978
  0
LINE
  5
E9
100
AcDbEntity
  8
0
  6
BYLAYER
 62
  256
420
    0
370
   13
100
AcDbLine
 10
-55.52753635141352
 20
55.88361867118978
 11
-56.72617769671305
 21
52.69130663976277
  0
LINE
  5
EA
100
AcDbEntity
  8
0
  6
BYLAYER
 62
  256
420
    0
370
   13
100
AcDbLine
 10
-56.72617769671305
 20
52.69130663976277
 11
-57.11786270542268
 21
49.4028779728302
  0
LINE
  5
EB
100
AcDbEntity
  8
0
  6
BYLAYER
 62
  256
420
    0
370
   13
100
AcDbLine
 10
-57.11786270542267
 20
49.40287797278192
 11
-57.11786270542267
 21
39.40287797278194
  0
LINE
  5
EC
100
AcDbEntity
  8
0
  6
BYLAYER
 62
  256
420
    0
370
   13
100
AcDbLine
 10
-57.11786270542267
 20
39.40287797278194
 11
-29.11786270542266
 21
39.40287797278194
  0
LINE
  5
ED
100
AcDbEntity
  8
0
  6
BYLAYER
 62
  256
420
    0
370
   13
100
AcDbLine
 10
-29.11786270542267
 20
39.40287797278194
 11
-29.11786270542267
 21
49.40287797278192
  0
LINE
  5
EE
100
AcDbEntity
  8
0
  6
BYLAYER
 62
  256
420
    0
370
   13
100
AcDbLine
 10
-29.11786270542267
 20
49.40287797278194
 11
-29.50954771413229
 21
52.69130663976279
  0
LINE
  5
EF
100
AcDbEntity
  8
0
  6
BYLAYER
 62
  256
420
    0
370
   13
100
AcDbLine
 10
-29.11786270542267
 20
49.40287797278194
 11
-29.11786270542267
 21
39.40287797278194
  0
LINE
  5
F0
100
AcDbEntity
  8
0
  6
BYLAYER
 62
  256
420
    0
370
   13
100
AcDbLine
 10
-29.11786270542266
 20
39.40287797278194
 11
-29.11786270542267
 21
25.40287797278193
  0
LINE
  5
F1
100
AcDbEntity
  8
0
  6
BYLAYER
 62
  256
420
    0
370
   13
100
AcDbLine
 10
-29.11786270542267
 20
25.40287797278193
 11
-38.11786270542267
 21
25.40287797278193
  0
LINE
  5
F2
100
AcDbEntity
  8
0
  6
BYLAYER
 62
  256
420
    0
370
   13
100
AcDbLine
 10
-38.11786270542267
 20
25.40287797278193
 11
-38.11786270542267
 21
13.40287797278193
  0
LINE
  5
F3
100
AcDbEntity
  8
0
  6
BYLAYER
 62
  256
420
    0
370
   13
100
AcDbLine
 10
-38.11786270542267
 20
13.40287797278193
 11
-48.11786270542266
 21
13.40287797278193
  0
LINE
  5
F4
100
AcDbEntity
  8
0
  6
BYLAYER
 62
  256
420
    0
370
   13
100
AcDbLine
 10
-48.11786270542266
 20
13.40287797278193
 11
-48.11786270542266
 21
11.2193213438362
  0
LINE
  5
F5
100
AcDbEntity
  8
0
  6
BYLAYER
 62
  256
420
    0
370
   13
100
AcDbLine
 10
-48.11786270542266
 20
11.2193213438362
 11
-48.11786270542266
 21
8.98574145803946
  0
LINE
  5
F6
100
AcDbEntity
  8
0
  6
BYLAYER
 62
  256
420
    0
370
   13
100
AcDbLine
 10
-48.11786270542266
 20
8.98574145803946
 11
-48.11786270542266
 21
6.836360932160229
  0
LINE
  5
F7
100
AcDbEntity
  8
0
  6
BYLAYER
 62
  256
420
    0
370
   13
100
AcDbLine
 10
-48.11786270542266
 20
6.836360932160229
 11
-48.11786270542267
 21
4.917596598543359
  0
LINE
  5
F8
100
AcDbEntity
  8
0
  6
BYLAYER
 62
  256
420
    0
370
   13
100
AcDbLine
 10
-48.11786270542267
 20
4.917596598543359
 11
-48.11786270542267
 21
3.358931838158124
  0
LINE
  5
F9
100
AcDbEntity
  8
0
  6
BYLAYER
 62
  256
420
    0
370
   13
100
AcDbLine
 10
-48.11786270542267
 20
3.358931838158124
 11
-48.11786270542267
 21
2.245418360032769
  0
LINE
  5
FA
100
AcDbEntity
  8
0
  6
BYLAYER
 62
  256
420
    0
370
   13
100
AcDbLine
 10
-48.11786270542267
 20
2.245418360032769
 11
-48.11786270542267
 21
1.603213551783039
  0
LINE
  5
FB
100
AcDbEntity
  8
0
  6
BYLAYER
 62
  256
420
    0
370
   13
100
AcDbLine
 10
-48.11786270542267
 20
1.603213551783039
 11
-48.11786270542267
 21
1.402877972781933
  0
LINE
  5
FC
100
AcDbEntity
  8
0
  6
BYLAYER
 62
  256
420
    0
370
   13
100
AcDbLine
 10
-48.11786270542267
 20
1.402877972781933
 11
-48.11786270542267
 21
1.603213551783039
  0
LINE
  5
FD
100
AcDbEntity
  8
0
  6
BYLAYER
 62
  256
420
    0
370
   13
100
AcDbLine
 10
-48.11786270542267
 20
1.603213551783039
 11
-48.11786270542267
 21
2.245418360032769
  0
LINE
  5
FE
100
AcDbEntity
  8
0
  6
BYLAYER
 62
  256
420
    0
370
   13
100
AcDbLine
 10
-48.11786270542267
 20
2.245418360032769
 11
-48.11786270542267
 21
3.358931838158124
  0
LINE
  5
FF
100
AcDbEntity
  8
0
  6
BYLAYER
 62
  256
420
    0
370
   13
100
AcDbLine
 10
-48.11786270542267
 20
3.358931838158124
 11
-48.11786270542267
 21
4.917596598543359
  0
LINE
  5
100
100
AcDbEntity
  8
0
  6
BYLAYER
 62
  256
420
    0
370
   13
100
AcDbLine
 10
-48.11786270542267
 20
4.917596598543359
 11
-48.11786270542266
 21
6.836360932160229
  0
LINE
  5
101
100
AcDbEntity
  8
0
  6
BYLAYER
 62
  256
420
    0
370
   13
100
AcDbLine
 10
-48.11786270542266
 20
6.836360932160229
 11
-48.11786270542266
 21
8.98574145803946
  0
LINE
  5
102
100
AcDbEntity
  8
0
  6
BYLAYER
 62
  256
420
    0
370
   13
100
AcDbLine
 10
-48.11786270542266
 20
8.98574145803946
 11
-48.11786270542266
 21
11.2193213438362
  0
LINE
  5
103
100
AcDbEntity
  8
0
  6
BYLAYER
 62
  256
420
    0
370
   13
100
AcDbLine
 10
-48.11786270542266
 20
11.2193213438362
 11
-48.11786270542266
 21
13.40287797278193
  0
LINE
  5
104
100
AcDbEntity
  8
0
  6
BYLAYER
 62
  256
420
    0
370
   13
100
AcDbLine
 10
-48.11786270542266
 20
13.40287797278193
 11
-48.11786270542267
 21
25.40287797278193
  0
LINE
  5
105
100
AcDbEntity
  8
0
  6
BYLAYER
 62
  256
420
    0
370
   13
100
AcDbLine
 10
-48.11786270542267
 20
25.40287797278193
 11
-57.11786270542267
 21
25.40287797278193
  0
LINE
  5
106
100
AcDbEntity
  8
0
  6
BYLAYER
 62
  256
420
    0
370
   13
100
AcDbLine
 10
-57.11786270542267
 20
25.40287797278193
 11
-57.11786270542267
 21
39.40287797278194
  0
LINE
  5
107
100
AcDbEntity
  8
0
  6
BYLAYER
 62
  256
420
    0
370
   13
100
AcDbLine
 10
-57.11786270542267
 20
39.40287797278194
 11
-57.11786270542267
 21
49.40287797278194
  0
LINE
  5
108
100
AcDbEntity
  8
0
  6
BYLAYER
 62
  256
420
    0
370
   13
100
AcDbLine
 10
-57.11786270542267
 20
49.40287797278194
 11
-56.72617769671318
 21
52.69130663976226
  0
LINE
  5
109
100
AcDbEntity
  8
0
  6
BYLAYER
 62
  256
420
    0
370
   13
100
AcDbLine
 10
-56.72617769671318
 20
52.69130663976226
 11
-55.52753635141353
 21
55.88361867118979
  0
LINE
  5
10A
100
AcDbEntity
  8
0
  6
BYLAYER
 62
  256
420
    0
370
   13
100
AcDbLine
 10
-55.52753635141353
 20
55.88361867118979
 11
-53.59269762703724
 21
58.69146416040617
  0
LINE
  5
10B
100
AcDbEntity
  8
0
  6
BYLAYER
 62
  256
420
    0
370
   13
100
AcDbLine
 10
-53.59269762703724
 20
58.69146416040617
 11
-51.11786270542267
 21
60.89200326585799
  0
LINE
  5
10C
100
AcDbEntity
  8
0
  6
BYLAYER
 62
  256
420
    0
370
   13
100
AcDbLine
 10
-51.11786270542267
 20
60.89200326585799
 11
-51.11786270542267
 21
49.40287797278194
  0
LINE
  5
10D
100
AcDbEntity
  8
0
  6
BYLAYER
 62
  256
420
    0
370
   13
100
AcDbLine
 10
-51.11786270542267
 20
49.40287797278194
 11
-50.55616911392211
 21
46.45812029628695
  0
LINE
  5
10E
100
AcDbEntity
  8
0
  6
BYLAYER
 62
  256
420
    0
370
   13
100
AcDbLine
 10
-50.55616911392211
 20
46.45812029628695
 11
-48.77471695491505
 21
43.74602372328955
  0
LINE
  5
10F
100
AcDbEntity
  8
0
  6
BYLAYER
 62
  256
420
    0
370
   13
100
AcDbLine
 10
-48.77471695491505
 20
43.74602372328955
 11
-46.06262038191765
 21
41.96457156428249
  0
LINE
  5
110
100
AcDbEntity
  8
0
  6
BYLAYER
 62
  256
420
    0
370
   13
100
AcDbLine
 10
-46.06262038191765
 20
41.96457156428249
 11
-43.11786270542267
 21
41.40287797278194
  0
LINE
  5
111
100
AcDbEntity
  8
0
  6
BYLAYER
 62
  256
420
    0
370
   13
100
AcDbLine
 10
-43.11786270542267
 20
41.40287797278194
 11
-40.17310502892769
 21
41.96457156428249
  0
LINE
  5
112
100
AcDbEntity
  8
0
  6
BYLAYER
 62
  256
420
    0
370
   13
100
AcDbLine
 10
-40.17310502892769
 20
41.96457156428249
 11
-37.46100845593028
 21
43.74602372328955
  0
LINE
  5
113
100
AcDbEntity
  8
0
  6
BYLAYER
 62
  256
420
    0
370
   13
100
AcDbLine
 10
-37.46100845593028
 20
43.74602372328955
 11
-35.67955629692322
 21
46.45812029628695
  0
LINE
  5
114
100
AcDbEntity
  8
0
  6
BYLAYER
 62
  256
420
    0
370
   13
100
AcDbLine
 10
-35.67955629692322
 20
46.45812029628695
 11
-35.11786270542267
 21
49.40287797278194
  0
LINE
  5
115
100
AcDbEntity
  8
0
  6
BYLAYER
 62
  256
420
    0
370
   13
100
AcDbLine
 10
-35.11786270542267
 20
49.40287797278194
 11
-35.11786270542267
 21
60.89200326585799
  0
LINE
  5
116
100
AcDbEntity
  8
0
  6
BYLAYER
 62
  256
420
    0
370
   13
100
AcDbLine
 10
-35.11786270542267
 20
60.89200326585799
 11
-32.64302778380809
 21
58.69146416040617
  0
LINE
  5
117
100
AcDbEntity
  8
0
  6
BYLAYER
 62
  256
420
    0
370
   13
100
AcDbLine
 10
-32.64302778380809
 20
58.69146416040617
 11
-30.70818905943181
 21
55.88361867118979
  0
LINE
  5
118
100
AcDbEntity
  8
0
  6
BYLAYER
 62
  256
420
    0
370
   13
100
AcDbLine
 10
-30.70818905943181
 20
55.88361867118979
 11
-29.50954771413216
 21
52.69130663976226
  0
LINE
  5
119
100
AcDbEntity
  8
0
  6
BYLAYER
 62
  256
420
    0
370
   13
100
AcDbLine
 10
-29.50954771413216
 20
52.69130663976226
 11
-29.11786270542267
 21
49.40287797278194
  0
LINE
  5
11A
100
AcDbEntity
  8
0
  6
BYLAYER
 62
  256
420
    0
370
   13
100
AcDbLine
 10
-35.11786270542267
 20
60.89200326585799
 11
-32.64302778380809
 21
58.69146416040617
  0
LINE
  5
11B
100
AcDbEntity
  8
0
  6
BYLAYER
 62
  256
420
    0
370
   13
100
AcDbLine
 10
-32.64302778380809
 20
58.69146416040617
 11
-30.70818905943181
 21
55.88361867118979
  0
LINE
  5
11C
100
AcDbEntity
  8
0
  6
BYLAYER
 62
  256
420
    0
370
   13
100
AcDbLine
 10
-30.70818905943181
 20
55.88361867118979
 11
-29.50954771413216
 21
52.69130663976226
  0
LINE
  5
11D
100
AcDbEntity
  8
0
  6
BYLAYER
 62
  256
420
    0
370
   13
100
AcDbLine
 10
-29.50954771413216
 20
52.69130663976226
 11
-29.11786270542267
 21
49.40287797278194
  0
LINE
  5
11E
100
AcDbEntity
  8
0
  6
BYLAYER
 62
  256
420
    0
370
   13
100
AcDbLine
 10
-29.11786270542267
 20
49.40287797278202
 11
-29.11786270542267
 21
39.40287797278194
  0
LINE
  5
11F
100
AcDbEntity
  8
0
  6
BYLAYER
 62
  256
420
    0
370
   13
100
AcDbLine
 10
-29.11786270542266
 20
39.40287797278194
 11
-57.11786270542267
 21
39.40287797278194
  0
LINE
  5
120
100
AcDbEntity
  8
0
  6
BYLAYER
 62
  256
420
    0
370
   13
100
AcDbLine
 10
-57.11786270542267
 20
39.40287797278194
 11
-57.11786270542267
 21
49.40287797278202
  0
LINE
  5
121
100
AcDbEntity
  8
0
  6
BYLAYER
 62
  256
420
    0
370
   13
100
AcDbLine
 10
-57.11786270542267
 20
49.40287797278194
 11
-56.72617769671318
 21
52.69130663976226
  0
LINE
  5
122
100
AcDbEntity
  8
0
  6
BYLAYER
 62
  256
420
    0
370
   13
100
AcDbLine
 10
-56.72617769671318
 20
52.69130663976226
 11
-55.52753635141353
 21
55.88361867118979
  0
LINE
  5
123
100
AcDbEntity
  8
0
  6
BYLAYER
 62
  256
420
    0
370
   13
100
AcDbLine
 10
-55.52753635141353
 20
55.88361867118979
 11
-53.59269762703724
 21
58.69146416040617
  0
LINE
  5
124
100
AcDbEntity
  8
0
  6
BYLAYER
 62
  256
420
    0
370
   13
100
AcDbLine
 10
-53.59269762703724
 20
58.69146416040617
 11
-51.11786270542267
 21
60.89200326585799
  0
LINE
  5
125
100
AcDbEntity
  8
0
  6
BYLAYER
 62
  256
420
    0
370
   13
100
AcDbLine
 10
-51.11786270542267
 20
60.89200326585799
 11
-51.11786270542267
 21
49.40287797278194
  0
LINE
  5
126
100
AcDbEntity
  8
0
  6
BYLAYER
 62
  256
420
    0
370
   13
100
AcDbLine
 10
-51.11786270542267
 20
49.40287797278194
 11
-50.55616911392211
 21
46.45812029628695
  0
LINE
  5
127
100
AcDbEntity
  8
0
  6
BYLAYER
 62
  256
420
    0
370
   13
100
AcDbLine
 10
-50.55616911392211
 20
46.45812029628695
 11
-48.77471695491505
 21
43.74602372328955
  0
LINE
  5
128
100
AcDbEntity
  8
0
  6
BYLAYER
 62
  256
420
    0
370
   13
100
AcDbLine
 10
-48.77471695491505
 20
43.74602372328955
 11
-46.06262038191765
 21
41.96457156428249
  0
LINE
  5
129
100
AcDbEntity
  8
0
  6
BYLAYER
 62
  256
420
    0
370
   13
100
AcDbLine
 10
-46.06262038191765
 20
41.96457156428249
 11
-43.11786270542267
 21
41.40287797278194
  0
LINE
  5
12A
100
AcDbEntity
  8
0
  6
BYLAYER
 62
  256
420
    0
370
   13
100
AcDbLine
 10
-43.11786270542267
 20
41.40287797278194
 11
-40.17310502892769
 21
41.96457156428249
  0
LINE
  5
12B
100
AcDbEntity
  8
0
  6
BYLAYER
 62
  256
420
    0
370
   13
100
AcDbLine
 10
-40.17310502892769
 20
41.96457156428249
 11
-37.46100845593028
 21
43.74602372328955
  0
LINE
  5
12C
100
AcDbEntity
  8
0
  6
BYLAYER
 62
  256
420
    0
370
   13
100
AcDbLine
 10
-37.46100845593028
 20
43.74602372328955
 11
-35.67955629692322
 21
46.45812029628695
  0
LINE
  5
12D
100
AcDbEntity
  8
0
  6
BYLAYER
 62
  256
420
    0
370
   13
100
AcDbLine
 10
-35.67955629692322
 20
46.45812029628695
 11
-35.11786270542267
 21
49.40287797278194
  0
LINE
  5
12E
100
AcDbEntity
  8
0
  6
BYLAYER
 62
  256
420
    0
370
   13
100
AcDbLine
 10
-35.11786270542267
 20
49.40287797278194
 11
-35.11786270542267
 21
60.89200326585799
  0
LINE
  5
12F
100
AcDbEntity
  8
0
  6
BYLAYER
 62
  256
420
    0
370
   13
100
AcDbLine
 10
-38.11786270542267
 20
-37.73454365310883
 11
-38.11786270542267
 21
-37.0923388448591
  0
LINE
  5
130
100
AcDbEntity
  8
0
  6
BYLAYER
 62
  256
420
    0
370
   13
100
AcDbLine
 10
-38.11786270542267
 20
-37.0923388448591
 11
-38.11786270542267
 21
-36.89200326585799
  0
LINE
  5
131
100
AcDbEntity
  8
0
  6
BYLAYER
 62
  256
420
    0
370
   13
100
AcDbLine
 10
-38.11786270542268
 20
-36.89200326585799
 11
-48.11786270542267
 21
-36.89200326585799
  0
LINE
  5
132
100
AcDbEntity
  8
0
  6
BYLAYER
 62
  256
420
    0
370
   13
100
AcDbLine
 10
-48.11786270542267
 20
-36.89200326585799
 11
-48.11786270542268
 21
-37.0923388448591
  0
LINE
  5
133
100
AcDbEntity
  8
0
  6
BYLAYER
 62
  256
420
    0
370
   13
100
AcDbLine
 10
-48.11786270542268
 20
-37.0923388448591
 11
-48.11786270542268
 21
-37.73454365310883
  0
LINE
  5
134
100
AcDbEntity
  8
0
  6
BYLAYER
 62
  256
420
    0
370
   13
100
AcDbLine
 10
-48.11786270542268
 20
-37.73454365310883
 11
-48.11786270542267
 21
-38.84805713123419
  0
LINE
  5
135
100
AcDbEntity
  8
0
  6
BYLAYER
 62
  256
420
    0
370
   13
100
AcDbLine
 10
-48.11786270542267
 20
-38.84805713123419
 11
-48.11786270542267
 21
-40.40672189161943
  0
LINE
  5
136
100
AcDbEntity
  8
0
  6
BYLAYER
 62
  256
420
    0
370
   13
100
AcDbLine
 10
-48.11786270542267
 20
-40.40672189161943
 11
-48.11786270542268
 21
-42.32548622523629
  0
LINE
  5
137
100
AcDbEntity
  8
0
  6
BYLAYER
 62
  256
420
    0
370
   13
100
AcDbLine
 10
-48.11786270542268
 20
-42.32548622523629
 11
-48.11786270542268
 21
-44.47486675111553
  0
LINE
  5
138
100
AcDbEntity
  8
0
  6
BYLAYER
 62
  256
420
    0
370
   13
100
AcDbLine
 10
-48.11786270542268
 20
-44.47486675111553
 11
-48.11786270542267
 21
-46.70844663691226
  0
LINE
  5
139
100
AcDbEntity
  8
0
  6
BYLAYER
 62
  256
420
    0
370
   13
100
AcDbLine
 10
-48.11786270542267
 20
-46.70844663691226
 11
-48.11786270542267
 21
-48.89200326585799
  0
LINE
  5
13A
100
AcDbEntity
  8
0
  6
BYLAYER
 62
  256
420
    0
370
   13
100
AcDbLine
 10
-48.11786270542267
 20
-48.89200326585799
 11
-48.11786270542268
 21
-51.07555989480373
  0
LINE
  5
13B
100
AcDbEntity
  8
0
  6
BYLAYER
 62
  256
420
    0
370
   13
100
AcDbLine
 10
-48.11786270542268
 20
-51.07555989480373
 11
-48.11786270542268
 21
-53.30913978060048
  0
LINE
  5
13C
100
AcDbEntity
  8
0
  6
BYLAYER
 62
  256
420
    0
370
   13
100
AcDbLine
 10
-48.11786270542268
 20
-53.30913978060048
 11
-48.11786270542267
 21
-55.4585203064797
  0
LINE
  5
13D
100
AcDbEntity
  8
0
  6
BYLAYER
 62
  256
420
    0
370
   13
100
AcDbLine
 10
-48.11786270542267
 20
-55.4585203064797
 11
-48.11786270542267
 21
-57.37728464009656
  0
LINE
  5
13E
100
AcDbEntity
  8
0
  6
BYLAYER
 62
  256
420
    0
370
   13
100
AcDbLine
 10
-48.11786270542267
 20
-57.37728464009656
 11
-48.11786270542267
 21
-58.93594940048182
  0
LINE
  5
13F
100
AcDbEntity
  8
0
  6
BYLAYER
 62
  256
420
    0
370
   13
100
AcDbLine
 10
-48.11786270542267
 20
-58.93594940048182
 11
-48.11786270542267
 21
-60.04946287860716
  0
LINE
  5
140
100
AcDbEntity
  8
0
  6
BYLAYER
 62
  256
420
    0
370
   13
100
AcDbLine
 10
-48.11786270542267
 20
-60.04946287860716
 11
-48.11786270542268
 21
-60.6916676868569
  0
LINE
  5
141
100
AcDbEntity
  8
0
  6
BYLAYER
 62
  256
420
    0
370
   13
100
AcDbLine
 10
-48.11786270542268
 20
-60.6916676868569
 11
-48.11786270542267
 21
-60.89200326585799
  0
LINE
  5
142
100
AcDbEntity
  8
0
  6
BYLAYER
 62
  256
420
    0
370
   13
100
AcDbLine
 10
-48.11786270542268
 20
-60.89200326585799
 11
-38.11786270542268
 21
-60.89200326585799
  0
LINE
  5
143
100
AcDbEntity
  8
0
  6
BYLAYER
 62
  256
420
    0
370
   13
100
AcDbLine
 10
-38.11786270542267
 20
-60.89200326585799
 11
-38.11786270542267
 21
-60.69166768685689
  0
LINE
  5
144
100
AcDbEntity
  8
0
  6
BYLAYER
 62
  256
420
    0
370
   13
100
AcDbLine
 10
-38.11786270542267
 20
-60.69166768685689
 11
-38.11786270542267
 21
-60.04946287860716
  0
LINE
  5
145
100
AcDbEntity
  8
0
  6
BYLAYER
 62
  256
420
    0
370
   13
100
AcDbLine
 10
-38.11786270542267
 20
-60.04946287860716
 11
-38.11786270542267
 21
-58.93594940048182
  0
LINE
  5
146
100
AcDbEntity
  8
0
  6
BYLAYER
 62
  256
420
    0
370
   13
100
AcDbLine
 10
-38.11786270542267
 20
-58.93594940048182
 11
-38.11786270542267
 21
-57.37728464009656
  0
LINE
  5
147
100
AcDbEntity
  8
0
  6
BYLAYER
 62
  256
420
    0
370
   13
100
AcDbLine
 10
-38.11786270542267
 20
-57.37728464009656
 11
-38.11786270542267
 21
-55.45852030647971
  0
LINE
  5
148
100
AcDbEntity
  8
0
  6
BYLAYER
 62
  256
420
    0
370
   13
100
AcDbLine
 10
-38.11786270542267
 20
-55.45852030647971
 11
-38.11786270542267
 21
-53.30913978060048
  0
LINE
  5
149
100
AcDbEntity
  8
0
  6
BYLAYER
 62
  256
420
    0
370
   13
100
AcDbLine
 10
-38.11786270542267
 20
-53.30913978060048
 11
-38.11786270542268
 21
-51.07555989480375
  0
LINE
  5
14A
100
AcDbEntity
  8
0
  6
BYLAYER
 62
  256
420
    0
370
   13
100
AcDbLine
 10
-38.11786270542268
 20
-51.07555989480375
 11
-38.11786270542267
 21
-48.89200326585801
  0
LINE
  5
14B
100
AcDbEntity
  8
0
  6
BYLAYER
 62
  256
420
    0
370
   13
100
AcDbLine
 10
-38.11786270542267
 20
-48.89200326585801
 11
-38.11786270542268
 21
-46.70844663691226
  0
LINE
  5
14C
100
AcDbEntity
  8
0
  6
BYLAYER
 62
  256
420
    0
370
   13
100
AcDbLine
 10
-38.11786270542268
 20
-46.70844663691226
 11
-38.11786270542268
 21
-44.47486675111553
  0
LINE
  5
14D
100
AcDbEntity
  8
0
  6
BYLAYER
 62
  256
420
    0
370
   13
100
AcDbLine
 10
-38.11786270542268
 20
-44.47486675111553
 11
-38.11786270542268
 21
-42.32548622523629
  0
LINE
  5
14E
100
AcDbEntity
  8
0
  6
BYLAYER
 62
  256
420
    0
370
   13
100
AcDbLine
 10
-38.11786270542268
 20
-42.32548622523629
 11
-38.11786270542267
 21
-40.40672189161943
  0
LINE
  5
14F
100
AcDbEntity
  8
0
  6
BYLAYER
 62
  256
420
    0
370
   13
100
AcDbLine
 10
-38.11786270542267
 20
-40.40672189161943
 11
-38.11786270542268
 21
-38.84805713123419
  0
LINE
  5
150
100
AcDbEntity
  8
0
  6
BYLAYER
 62
  256
420
    0
370
   13
100
AcDbLine
 10
-38.11786270542268
 20
-38.84805713123419
 11
-38.11786270542267
 21
-37.73454365310883
  0
LINE
  5
151
100
AcDbEntity
  8
0
  6
BYLAYER
 62
  256
420
    0
370
   13
100
AcDbLine
 10
-38.11786270542267
 20
-36.89200326585799
 11
-38.11786270542267
 21
-37.0923388448591
  0
LINE
  5
152
100
AcDbEntity
  8
0
  6
BYLAYER
 62
  256
420
    0
370
   13
100
AcDbLine
 10
-38.11786270542267
 20
-37.0923388448591
 11
-38.11786270542267
 21
-37.73454365310883
  0
LINE
  5
153
100
AcDbEntity
  8
0
  6
BYLAYER
 62
  256
420
    0
370
   13
100
AcDbLine
 10
-38.11786270542267
 20
-37.73454365310883
 11
-38.11786270542267
 21
-38.84805713123419
  0
LINE
  5
154
100
AcDbEntity
  8
0
  6
BYLAYER
 62
  256
420
    0
370
   13
100
AcDbLine
 10
-38.11786270542267
 20
-38.84805713123419
 11
-38.11786270542267
 21
-40.40672189161943
  0
LINE
  5
155
100
AcDbEntity
  8
0
  6
BYLAYER
 62
  256
420
    0
370
   13
100
AcDbLine
 10
-38.11786270542267
 20
-40.40672189161943
 11
-38.11786270542267
 21
-42.32548622523629
  0
LINE
  5
156
100
AcDbEntity
  8
0
  6
BYLAYER
 62
  256
420
    0
370
   13
100
AcDbLine
 10
-38.11786270542267
 20
-42.32548622523629
 11
-38.11786270542267
 21
-44.47486675111553
  0
LINE
  5
157
100
AcDbEntity
  8
0
  6
BYLAYER
 62
  256
420
    0
370
   13
100
AcDbLine
 10
-38.11786270542267
 20
-44.47486675111553
 11
-38.11786270542267
 21
-46.70844663691226
  0
LINE
  5
158
100
AcDbEntity
  8
0
  6
BYLAYER
 62
  256
420
    0
370
   13
100
AcDbLine
 10
-38.11786270542267
 20
-46.70844663691226
 11
-38.11786270542267
 21
-48.89200326585799
  0
LINE
  5
159
100
AcDbEntity
  8
0
  6
BYLAYER
 62
  256
420
    0
370
   13
100
AcDbLine
 10
-38.11786270542267
 20
-48.89200326585799
 11
-38.11786270542267
 21
-51.07555989480373
  0
LINE
  5
15A
100
AcDbEntity
  8
0
  6
BYLAYER
 62
  256
420
    0
370
   13
100
AcDbLine
 10
-38.11786270542267
 20
-51.07555989480373
 11
-38.11786270542267
 21
-53.30913978060048
  0
LINE
  5
15B
100
AcDbEntity
  8
0
  6
BYLAYER
 62
  256
420
    0
370
   13
100
AcDbLine
 10
-38.11786270542267
 20
-53.30913978060048
 11
-38.11786270542268
 21
-55.45852030647971
  0
LINE
  5
15C
100
AcDbEntity
  8
0
  6
BYLAYER
 62
  256
420
    0
370
   13
100
AcDbLine
 10
-38.11786270542268
 20
-55.45852030647971
 11
-38.11786270542268
 21
-57.37728464009656
  0
LINE
  5
15D
100
AcDbEntity
  8
0
  6
BYLAYER
 62
  256
420
    0
370
   13
100
AcDbLine
 10
-38.11786270542268
 20
-57.37728464009656
 11
-38.11786270542268
 21
-58.93594940048182
  0
LINE
  5
15E
100
AcDbEntity
  8
0
  6
BYLAYER
 62
  256
420
    0
370
   13
100
AcDbLine
 10
-38.11786270542268
 20
-58.93594940048182
 11
-38.11786270542268
 21
-60.04946287860716
  0
LINE
  5
15F
100
AcDbEntity
  8
0
  6
BYLAYER
 62
  256
420
    0
370
   13
100
AcDbLine
 10
-38.11786270542268
 20
-60.04946287860716
 11
-38.11786270542267
 21
-60.69166768685689
  0
LINE
  5
160
100
AcDbEntity
  8
0
  6
BYLAYER
 62
  256
420
    0
370
   13
100
AcDbLine
 10
-38.11786270542267
 20
-60.69166768685689
 11
-38.11786270542268
 21
-60.89200326585799
  0
LINE
  5
161
100
AcDbEntity
  8
0
  6
BYLAYER
 62
  256
420
    0
370
   13
100
AcDbLine
 10
-38.11786270542267
 20
-60.89200326585799
 11
-29.11786270542267
 21
-60.89200326585799
  0
LINE
  5
162
100
AcDbEntity
  8
0
  6
BYLAYER
 62
  256
420
    0
370
   13
100
AcDbLine
 10
-29.11786270542267
 20
-60.89200326585799
 11
-29.11786270542267
 21
-36.89200326585799
  0
LINE
  5
163
100
AcDbEntity
  8
0
  6
BYLAYER
 62
  256
420
    0
370
   13
100
AcDbLine
 10
-29.11786270542267
 20
-36.89200326585799
 11
-38.11786270542267
 21
-36.89200326585799
  0
LINE
  5
164
100
AcDbEntity
  8
0
  6
BYLAYER
 62
  256
420
    0
370
   13
100
AcDbLine
 10
-38.11786270542267
 20
-36.89200326585799
 11
-48.11786270542267
 21
-36.89200326585799
  0
LINE
  5
165
100
AcDbEntity
  8
0
  6
BYLAYER
 62
  256
420
    0
370
   13
100
AcDbLine
 10
-48.11786270542267
 20
-36.89200326585799
 11
-48.11786270542267
 21
-37.0923388448591
  0
LINE
  5
166
100
AcDbEntity
  8
0
  6
BYLAYER
 62
  256
420
    0
370
   13
100
AcDbLine
 10
-48.11786270542267
 20
-37.0923388448591
 11
-48.11786270542267
 21
-37.73454365310883
  0
LINE
  5
167
100
AcDbEntity
  8
0
  6
BYLAYER
 62
  256
420
    0
370
   13
100
AcDbLine
 10
-48.11786270542267
 20
-37.73454365310883
 11
-48.11786270542267
 21
-38.84805713123419
  0
LINE
  5
168
100
AcDbEntity
  8
0
  6
BYLAYER
 62
  256
420
    0
370
   13
100
AcDbLine
 10
-48.11786270542267
 20
-38.84805713123419
 11
-48.11786270542267
 21
-40.40672189161943
  0
LINE
  5
169
100
AcDbEntity
  8
0
  6
BYLAYER
 62
  256
420
    0
370
   13
100
AcDbLine
 10
-48.11786270542267
 20
-40.40672189161943
 11
-48.11786270542267
 21
-42.32548622523629
  0
LINE
  5
16A
100
AcDbEntity
  8
0
  6
BYLAYER
 62
  256
420
    0
370
   13
100
AcDbLine
 10
-48.11786270542267
 20
-42.32548622523629
 11
-48.11786270542267
 21
-44.47486675111553
  0
LINE
  5
16B
100
AcDbEntity
  8
0
  6
BYLAYER
 62
  256
420
    0
370
   13
100
AcDbLine
 10
-48.11786270542267
 20
-44.47486675111553
 11
-48.11786270542267
 21
-46.70844663691226
  0
LINE
  5
16C
100
AcDbEntity
  8
0
  6
BYLAYER
 62
  256
420
    0
370
   13
100
AcDbLine
 10
-48.11786270542267
 20
-46.70844663691226
 11
-48.11786270542267
 21
-48.89200326585799
  0
LINE
  5
16D
100
AcDbEntity
  8
0
  6
BYLAYER
 62
  256
420
    0
370
   13
100
AcDbLine
 10
-48.11786270542267
 20
-48.89200326585799
 11
-38.11786270542267
 21
-48.89200326585799
  0
LINE
  5
16E
100
AcDbEntity
  8
0
  6
BYLAYER
 62
  256
420
    0
370
   13
100
AcDbLine
 10
-38.11786270542267
 20
-48.89200326585799
 11
-38.11786270542267
 21
-46.70844663691226
  0
LINE
  5
16F
100
AcDbEntity
  8
0
  6
BYLAYER
 62
  256
420
    0
370
   13
100
AcDbLine
 10
-38.11786270542267
 20
-46.70844663691226
 11
-38.11786270542267
 21
-44.47486675111553
  0
LINE
  5
170
100
AcDbEntity
  8
0
  6
BYLAYER
 62
  256
420
    0
370
   13
100
AcDbLine
 10
-38.11786270542267
 20
-44.47486675111553
 11
-38.11786270542267
 21
-42.32548622523629
  0
LINE
  5
171
100
AcDbEntity
  8
0
  6
BYLAYER
 62
  256
420
    0
370
   13
100
AcDbLine
 10
-38.11786270542267
 20
-42.32548622523629
 11
-38.11786270542267
 21
-40.40672189161943
  0
LINE
  5
172
100
AcDbEntity
  8
0
  6
BYLAYER
 62
  256
420
    0
370
   13
100
AcDbLine
 10
-38.11786270542267
 20
-40.40672189161943
 11
-38.11786270542267
 21
-38.84805713123419
  0
LINE
  5
173
100
AcDbEntity
  8
0
  6
BYLAYER
 62
  256
420
    0
370
   13
100
AcDbLine
 10
-38.11786270542267
 20
-38.84805713123419
 11
-38.11786270542267
 21
-37.73454365310883
  0
LINE
  5
174
100
AcDbEntity
  8
0
  6
BYLAYER
 62
  256
420
    0
370
   13
100
AcDbLine
 10
-38.11786270542267
 20
-37.73454365310883
 11
-38.11786270542267
 21
-37.0923388448591
  0
LINE
  5
175
100
AcDbEntity
  8
0
  6
BYLAYER
 62
  256
420
    0
370
   13
100
AcDbLine
 10
-38.11786270542267
 20
-37.0923388448591
 11
-38.11786270542267
 21
-36.89200326585799
  0
LINE
  5
176
100
AcDbEntity
  8
0
  6
BYLAYER
 62
  256
420
    0
370
   13
100
AcDbLine
 10
-29.11786270542267
 20
-36.89200326585799
 11
-38.11786270542267
 21
-36.89200326585799
  0
LINE
  5
177
100
AcDbEntity
  8
0
  6
BYLAYER
 62
  256
420
    0
370
   13
100
AcDbLine
 10
-38.11786270542267
 20
-36.89200326585799
 11
-48.11786270542267
 21
-36.89200326585799
  0
LINE
  5
178
100
AcDbEntity
  8
0
  6
BYLAYER
 62
  256
420
    0
370
   13
100
AcDbLine
 10
-48.11786270542267
 20
-36.89200326585799
 11
-48.11786270542267
 21
-37.0923388448591
  0
LINE
  5
179
100
AcDbEntity
  8
0
  6
BYLAYER
 62
  256
420
    0
370
   13
100
AcDbLine
 10
-48.11786270542267
 20
-37.0923388448591
 11
-48.11786270542267
 21
-37.73454365310883
  0
LINE
  5
17A
100
AcDbEntity
  8
0
  6
BYLAYER
 62
  256
420
    0
370
   13
100
AcDbLine
 10
-48.11786270542267
 20
-37.73454365310883
 11
-48.11786270542267
 21
-38.84805713123419
  0
LINE
  5
17B
100
AcDbEntity
  8
0
  6
BYLAYER
 62
  256
420
    0
370
   13
100
AcDbLine
 10
-48.11786270542267
 20
-38.84805713123419
 11
-48.11786270542267
 21
-40.40672189161943
  0
LINE
  5
17C
100
AcDbEntity
  8
0
  6
BYLAYER
 62
  256
420
    0
370
   13
100
AcDbLine
 10
-48.11786270542267
 20
-40.40672189161943
 11
-48.11786270542267
 21
-42.32548622523629
  0
LINE
  5
17D
100
AcDbEntity
  8
0
  6
BYLAYER
 62
  256
420
    0
370
   13
100
AcDbLine
 10
-48.11786270542267
 20
-42.32548622523629
 11
-48.11786270542267
 21
-44.47486675111553
  0
LINE
  5
17E
100
AcDbEntity
  8
0
  6
BYLAYER
 62
  256
420
    0
370
   13
100
AcDbLine
 10
-48.11786270542267
 20
-44.47486675111553
 11
-48.11786270542267
 21
-46.70844663691226
  0
LINE
  5
17F
100
AcDbEntity
  8
0
  6
BYLAYER
 62
  256
420
    0
370
   13
100
AcDbLine
 10
-48.11786270542267
 20
-46.70844663691226
 11
-48.11786270542267
 21
-48.89200326585799
  0
LINE
  5
180
100
AcDbEntity
  8
0
  6
BYLAYER
 62
  256
420
    0
370
   13
100
AcDbLine
 10
-48.11786270542267
 20
-48.89200326585799
 11
-48.11786270542267
 21
-51.07555989480373
  0
LINE
  5
181
100
AcDbEntity
  8
0
  6
BYLAYER
 62
  256
420
    0
370
   13
100
AcDbLine
 10
-48.11786270542267
 20
-51.07555989480373
 11
-48.11786270542267
 21
-53.30913978060048
  0
LINE
  5
182
100
AcDbEntity
  8
0
  6
BYLAYER
 62
  256
420
    0
370
   13
100
AcDbLine
 10
-48.11786270542267
 20
-53.30913978060048
 11
-48.11786270542267
 21
-55.45852030647971
  0
LINE
  5
183
100
AcDbEntity
  8
0
  6
BYLAYER
 62
  256
420
    0
370
   13
100
AcDbLine
 10
-48.11786270542267
 20
-55.45852030647971
 11
-48.11786270542267
 21
-57.37728464009656
  0
LINE
  5
184
100
AcDbEntity
  8
0
  6
BYLAYER
 62
  256
420
    0
370
   13
100
AcDbLine
 10
-48.11786270542267
 20
-57.37728464009656
 11
-48.11786270542267
 21
-58.93594940048182
  0
LINE
  5
185
100
AcDbEntity
  8
0
  6
BYLAYER
 62
  256
420
    0
370
   13
100
AcDbLine
 10
-48.11786270542267
 20
-58.93594940048182
 11
-48.11786270542267
 21
-60.04946287860716
  0
LINE
  5
186
100
AcDbEntity
  8
0
  6
BYLAYER
 62
  256
420
    0
370
   13
100
AcDbLine
 10
-48.11786270542267
 20
-60.04946287860716
 11
-48.11786270542267
 21
-60.69166768685689
  0
LINE
  5
187
100
AcDbEntity
  8
0
  6
BYLAYER
 62
  256
420
    0
370
   13
100
AcDbLine
 10
-48.11786270542267
 20
-60.69166768685689
 11
-48.11786270542267
 21
-60.89200326585799
  0
LINE
  5
188
100
AcDbEntity
  8
0
  6
BYLAYER
 62
  256
420
    0
370
   13
100
AcDbLine
 10
-48.11786270542267
 20
-60.89200326585799
 11
-57.11786270542267
 21
-60.89200326585799
  0
LINE
  5
189
100
AcDbEntity
  8
0
  6
BYLAYER
 62
  256
420
    0
370
   13
100
AcDbLine
 10
-57.11786270542267
 20
-60.89200326585799
 11
-48.11786270542267
 21
-60.89200326585799
  0
LINE
  5
18A
100
AcDbEntity
  8
0
  6
BYLAYER
 62
  256
420
    0
370
   13
100
AcDbLine
 10
-48.11786270542267
 20
-60.89200326585799
 11
-38.11786270542268
 21
-60.89200326585799
  0
LINE
  5
18B
100
AcDbEntity
  8
0
  6
BYLAYER
 62
  256
420
    0
370
   13
100
AcDbLine
 10
-38.11786270542267
 20
-60.89200326585799
 11
-29.11786270542267
 21
-60.89200326585799
  0
LINE
  5
18C
100
AcDbEntity
  8
0
  6
BYLAYER
 62
  256
420
    0
370
   13
100
AcDbLine
 10
-29.11786270542267
 20
-60.89200326585799
 11
-29.11786270542267
 21
-36.89200326585799
  0
LINE
  5
18D
100
AcDbEntity
  8
0
  6
BYLAYER
 62
  256
420
    0
370
   13
100
AcDbLine
 10
57.11786270542267
 20
25.40287797278194
 11
57.11786270542267
 21
13.40287797278193
  0
LINE
  5
18E
100
AcDbEntity
  8
0
  6
BYLAYER
 62
  256
420
    0
370
   13
100
AcDbLine
 10
57.11786270542267
 20
13.40287797278193
 11
56.91752712641384
 21
11.2193213437945
  0
LINE
  5
18F
100
AcDbEntity
  8
0
  6
BYLAYER
 62
  256
420
    0
370
   13
100
AcDbLine
 10
56.91752712641384
 20
11.2193213437945
 11
56.27532231817046
 21
8.985741458036006
  0
LINE
  5
190
100
AcDbEntity
  8
0
  6
BYLAYER
 62
  256
420
    0
370
   13
100
AcDbLine
 10
56.27532231817046
 20
8.985741458036006
 11
55.16180884004647
 21
6.836360932160199
  0
LINE
  5
191
100
AcDbEntity
  8
0
  6
BYLAYER
 62
  256
420
    0
370
   13
100
AcDbLine
 10
55.16180884004647
 20
6.836360932160199
 11
53.60314407966122
 21
4.917596598543355
  0
LINE
  5
192
100
AcDbEntity
  8
0
  6
BYLAYER
 62
  256
420
    0
370
   13
100
AcDbLine
 10
53.60314407966122
 20
4.917596598543355
 11
51.68437974604441
 21
3.358931838158138
  0
LINE
  5
193
100
AcDbEntity
  8
0
  6
BYLAYER
 62
  256
420
    0
370
   13
100
AcDbLine
 10
51.68437974604441
 20
3.358931838158138
 11
49.53499922016859
 21
2.245418360034134
  0
LINE
  5
194
100
AcDbEntity
  8
0
  6
BYLAYER
 62
  256
420
    0
370
   13
100
AcDbLine
 10
49.53499922016859
 20
2.245418360034134
 11
47.3014193343684
 21
1.60321355178304
  0
LINE
  5
195
100
AcDbEntity
  8
0
  6
BYLAYER
 62
  256
420
    0
370
   13
100
AcDbLine
 10
47.3014193343684
 20
1.60321355178304
 11
45.11786270542267
 21
1.402877972781933
  0
LINE
  5
196
100
AcDbEntity
  8
0
  6
BYLAYER
 62
  256
420
    0
370
   13
100
AcDbLine
 10
45.11786270542267
 20
1.402877972781933
 11
42.93430607643523
 21
1.603213551790757
  0
LINE
  5
197
100
AcDbEntity
  8
0
  6
BYLAYER
 62
  256
420
    0
370
   13
100
AcDbLine
 10
42.93430607643523
 20
1.603213551790757
 11
40.70072619067675
 21
2.245418360034134
  0
LINE
  5
198
100
AcDbEntity
  8
0
  6
BYLAYER
 62
  256
420
    0
370
   13
100
AcDbLine
 10
40.70072619067675
 20
2.245418360034134
 11
38.55134566480092
 21
3.358931838158139
  0
LINE
  5
199
100
AcDbEntity
  8
0
  6
BYLAYER
 62
  256
420
    0
370
   13
100
AcDbLine
 10
38.55134566480092
 20
3.358931838158139
 11
36.6325813311841
 21
4.917596598543356
  0
LINE
  5
19A
100
AcDbEntity
  8
0
  6
BYLAYER
 62
  256
420
    0
370
   13
100
AcDbLine
 10
36.6325813311841
 20
4.917596598543356
 11
35.07391657079886
 21
6.836360932160197
  0
LINE
  5
19B
100
AcDbEntity
  8
0
  6
BYLAYER
 62
  256
420
    0
370
   13
100
AcDbLine
 10
35.07391657079886
 20
6.836360932160197
 11
33.96040309267487
 21
8.985741458036014
  0
LINE
  5
19C
100
AcDbEntity
  8
0
  6
BYLAYER
 62
  256
420
    0
370
   13
100
AcDbLine
 10
33.96040309267487
 20
8.985741458036014
 11
33.31819828442377
 21
11.2193213438362
  0
LINE
  5
19D
100
AcDbEntity
  8
0
  6
BYLAYER
 62
  256
420
    0
370
   13
100
AcDbLine
 10
33.31819828442377
 20
11.2193213438362
 11
33.11786270542267
 21
13.40287797278193
  0
LINE
  5
19E
100
AcDbEntity
  8
0
  6
BYLAYER
 62
  256
420
    0
370
   13
100
AcDbLine
 10
33.11786270542266
 20
13.40287797278193
 11
33.11786270542267
 21
25.40287797278194
  0
LINE
  5
19F
100
AcDbEntity
  8
0
  6
BYLAYER
 62
  256
420
    0
370
   13
100
AcDbLine
 10
-29.11786270542267
 20
39.40287797278194
 11
-29.11786270542267
 21
25.40287797278193
  0
LINE
  5
1A0
100
AcDbEntity
  8
0
  6
BYLAYER
 62
  256
420
    0
370
   13
100
AcDbLine
 10
-29.11786270542267
 20
25.40287797278193
 11
-38.11786270542267
 21
25.40287797278193
  0
LINE
  5
1A1
100
AcDbEntity
  8
0
  6
BYLAYER
 62
  256
420
    0
370
   13
100
AcDbLine
 10
-38.11786270542267
 20
25.40287797278193
 11
-38.11786270542267
 21
13.40287797278193
  0
LINE
  5
1A2
100
AcDbEntity
  8
0
  6
BYLAYER
 62
  256
420
    0
370
   13
100
AcDbLine
 10
-38.11786270542267
 20
13.40287797278193
 11
-38.11786270542267
 21
11.2193213438362
  0
LINE
  5
1A3
100
AcDbEntity
  8
0
  6
BYLAYER
 62
  256
420
    0
370
   13
100
AcDbLine
 10
-38.11786270542267
 20
11.2193213438362
 11
-38.11786270542267
 21
8.985741458039461
  0
LINE
  5
1A4
100
AcDbEntity
  8
0
  6
BYLAYER
 62
  256
420
    0
370
   13
100
AcDbLine
 10
-38.11786270542267
 20
8.985741458039461
 11
-38.11786270542267
 21
6.836360932160229
  0
LINE
  5
1A5
100
AcDbEntity
  8
0
  6
BYLAYER
 62
  256
420
    0
370
   13
100
AcDbLine
 10
-38.11786270542267
 20
6.836360932160229
 11
-38.11786270542266
 21
4.917596598543359
  0
LINE
  5
1A6
100
AcDbEntity
  8
0
  6
BYLAYER
 62
  256
420
    0
370
   13
100
AcDbLine
 10
-38.11786270542266
 20
4.917596598543359
 11
-38.11786270542267
 21
3.358931838158125
  0
LINE
  5
1A7
100
AcDbEntity
  8
0
  6
BYLAYER
 62
  256
420
    0
370
   13
100
AcDbLine
 10
-38.11786270542267
 20
3.358931838158125
 11
-38.11786270542267
 21
2.245418360032769
  0
LINE
  5
1A8
100
AcDbEntity
  8
0
  6
BYLAYER
 62
  256
420
    0
370
   13
100
AcDbLine
 10
-38.11786270542267
 20
2.245418360032769
 11
-38.11786270542267
 21
1.60321355178304
  0
LINE
  5
1A9
100
AcDbEntity
  8
0
  6
BYLAYER
 62
  256
420
    0
370
   13
100
AcDbLine
 10
-38.11786270542267
 20
1.60321355178304
 11
-38.11786270542267
 21
1.402877972781933
  0
LINE
  5
1AA
100
AcDbEntity
  8
0
  6
BYLAYER
 62
  256
420
    0
370
   13
100
AcDbLine
 10
-38.11786270542267
 20
1.402877972781933
 11
-48.11786270542267
 21
1.402877972781933
  0
LINE
  5
1AB
100
AcDbEntity
  8
0
  6
BYLAYER
 62
  256
420
    0
370
   13
100
AcDbLine
 10
-48.11786270542267
 20
1.402877972781933
 11
-48.11786270542267
 21
1.603213551783039
  0
LINE
  5
1AC
100
AcDbEntity
  8
0
  6
BYLAYER
 62
  256
420
    0
370
   13
100
AcDbLine
 10
-48.11786270542267
 20
1.603213551783039
 11
-48.11786270542267
 21
2.245418360032769
  0
LINE
  5
1AD
100
AcDbEntity
  8
0
  6
BYLAYER
 62
  256
420
    0
370
   13
100
AcDbLine
 10
-48.11786270542267
 20
2.245418360032769
 11
-48.11786270542267
 21
3.358931838158124
  0
LINE
  5
1AE
100
AcDbEntity
  8
0
  6
BYLAYER
 62
  256
420
    0
370
   13
100
AcDbLine
 10
-48.11786270542267
 20
3.358931838158124
 11
-48.11786270542267
 21
4.917596598543359
  0
LINE
  5
1AF
100
AcDbEntity
  8
0
  6
BYLAYER
 62
  256
420
    0
370
   13
100
AcDbLine
 10
-48.11786270542267
 20
4.917596598543359
 11
-48.11786270542267
 21
6.836360932160229
  0
LINE
  5
1B0
100
AcDbEntity
  8
0
  6
BYLAYER
 62
  256
420
    0
370
   13
100
AcDbLine
 10
-48.11786270542267
 20
6.836360932160229
 11
-48.11786270542268
 21
8.985741458039461
  0
LINE
  5
1B1
100
AcDbEntity
  8
0
  6
BYLAYER
 62
  256
420
    0
370
   13
100
AcDbLine
 10
-48.11786270542268
 20
8.985741458039461
 11
-48.11786270542268
 21
11.2193213438362
  0
LINE
  5
1B2
100
AcDbEntity
  8
0
  6
BYLAYER
 62
  256
420
    0
370
   13
100
AcDbLine
 10
-48.11786270542268
 20
11.2193213438362
 11
-48.11786270542267
 21
13.40287797278193
  0
LINE
  5
1B3
100
AcDbEntity
  8
0
  6
BYLAYER
 62
  256
420
    0
370
   13
100
AcDbLine
 10
-48.11786270542267
 20
13.40287797278193
 11
-48.11786270542267
 21
25.40287797278193
  0
LINE
  5
1B4
100
AcDbEntity
  8
0
  6
BYLAYER
 62
  256
420
    0
370
   13
100
AcDbLine
 10
-48.11786270542267
 20
25.40287797278193
 11
-57.11786270542267
 21
25.40287797278193
  0
LINE
  5
1B5
100
AcDbEntity
  8
0
  6
BYLAYER
 62
  256
420
    0
370
   13
100
AcDbLine
 10
-57.11786270542267
 20
25.40287797278193
 11
-57.11786270542267
 21
39.40287797278194
  0
LINE
  5
1B6
100
AcDbEntity
  8
0
  6
BYLAYER
 62
  256
420
    0
370
   13
100
AcDbLine
 10
-29.11786270542267
 20
-36.89200326585799
 11
-29.11786270542267
 21
-60.89200326585799
  0
LINE
  5
1B7
100
AcDbEntity
  8
0
  6
BYLAYER
 62
  256
420
    0
370
   13
100
AcDbLine
 10
-29.11786270542268
 20
-60.89200326585801
 11
-38.11786270542267
 21
-60.89200326585799
  0
LINE
  5
1B8
100
AcDbEntity
  8
0
  6
BYLAYER
 62
  256
420
    0
370
   13
100
AcDbLine
 10
-38.11786270542268
 20
-36.89200326585799
 11
-29.11786270542267
 21
-36.89200326585799
  0
LINE
  5
1B9
100
AcDbEntity
  8
0
  6
BYLAYER
 62
  256
420
    0
370
   13
100
AcDbLine
 10
-57.11786270542267
 20
-36.89200326585799
 11
-48.11786270542268
 21
-36.89200326585799
  0
LINE
  5
1BA
100
AcDbEntity
  8
0
  6
BYLAYER
 62
  256
420
    0
370
   13
100
AcDbLine
 10
-57.11786270542267
 20
-60.89200326585799
 11
-57.11786270542267
 21
-36.89200326585799
  0
LINE
  5
1BB
100
AcDbEntity
  8
0
  6
BYLAYER
 62
  256
420
    0
370
   13
100
AcDbLine
 10
-48.11786270542267
 20
-60.89200326585799
 11
-57.11786270542267
 21
-60.89200326585799
  0
LINE
  5
1BC
100
AcDbEntity
  8
0
  6
BYLAYER
 62
  256
420
    0
370
   13
100
AcDbLine
 10
-38.11786270542267
 20
1.402877972781933
 11
-38.11786270542267
 21
1.603213551783039
  0
LINE
  5
1BD
100
AcDbEntity
  8
0
  6
BYLAYER
 62
  256
420
    0
370
   13
100
AcDbLine
 10
-38.11786270542267
 20
1.603213551783039
 11
-38.11786270542267
 21
2.245418360032769
  0
LINE
  5
1BE
100
AcDbEntity
  8
0
  6
BYLAYER
 62
  256
420
    0
370
   13
100
AcDbLine
 10
-38.11786270542267
 20
2.245418360032769
 11
-38.11786270542267
 21
3.358931838158124
  0
LINE
  5
1BF
100
AcDbEntity
  8
0
  6
BYLAYER
 62
  256
420
    0
370
   13
100
AcDbLine
 10
-38.11786270542267
 20
3.358931838158124
 11
-38.11786270542267
 21
4.917596598543359
  0
LINE
  5
1C0
100
AcDbEntity
  8
0
  6
BYLAYER
 62
  256
420
    0
370
   13
100
AcDbLine
 10
-38.11786270542267
 20
4.917596598543359
 11
-38.11786270542267
 21
6.836360932160229
  0
LINE
  5
1C1
100
AcDbEntity
  8
0
  6
BYLAYER
 62
  256
420
    0
370
   13
100
AcDbLine
 10
-38.11786270542267
 20
6.836360932160229
 11
-38.11786270542267
 21
8.98574145803946
  0
LINE
  5
1C2
100
AcDbEntity
  8
0
  6
BYLAYER
 62
  256
420
    0
370
   13
100
AcDbLine
 10
-38.11786270542267
 20
8.98574145803946
 11
-38.11786270542267
 21
11.2193213438362
  0
LINE
  5
1C3
100
AcDbEntity
  8
0
  6
BYLAYER
 62
  256
420
    0
370
   13
100
AcDbLine
 10
-38.11786270542267
 20
11.2193213438362
 11
-38.11786270542267
 21
13.40287797278193
  0
LINE
  5
1C4
100
AcDbEntity
  8
0
  6
BYLAYER
 62
  256
420
    0
370
   13
100
AcDbLine
 10
-38.11786270542267
 20
13.40287797278193
 11
-38.11786270542267
 21
11.2193213438362
  0
LINE
  5
1C5
100
AcDbEntity
  8
0
  6
BYLAYER
 62
  256
420
    0
370
   13
100
AcDbLine
 10
-38.11786270542267
 20
11.2193213438362
 11
-38.11786270542267
 21
8.98574145803946
  0
LINE
  5
1C6
100
AcDbEntity
  8
0
  6
BYLAYER
 62
  256
420
    0
370
   13
100
AcDbLine
 10
-38.11786270542267
 20
8.98574145803946
 11
-38.11786270542267
 21
6.836360932160229
  0
LINE
  5
1C7
100
AcDbEntity
  8
0
  6
BYLAYER
 62
  256
420
    0
370
   13
100
AcDbLine
 10
-38.11786270542267
 20
6.836360932160229
 11
-38.11786270542267
 21
4.917596598543359
  0
LINE
  5
1C8
100
AcDbEntity
  8
0
  6
BYLAYER
 62
  256
420
    0
370
   13
100
AcDbLine
 10
-38.11786270542267
 20
4.917596598543359
 11
-38.11786270542267
 21
3.358931838158124
  0
LINE
  5
1C9
100
AcDbEntity
  8
0
  6
BYLAYER
 62
  256
420
    0
370
   13
100
AcDbLine
 10
-38.11786270542267
 20
3.358931838158124
 11
-38.11786270542267
 21
2.245418360032769
  0
LINE
  5
1CA
100
AcDbEntity
  8
0
  6
BYLAYER
 62
  256
420
    0
370
   13
100
AcDbLine
 10
-38.11786270542267
 20
2.245418360032769
 11
-38.11786270542267
 21
1.603213551783039
  0
LINE
  5
1CB
100
AcDbEntity
  8
0
  6
BYLAYER
 62
  256
420
    0
370
   13
100
AcDbLine
 10
-38.11786270542267
 20
1.603213551783039
 11
-38.11786270542267
 21
1.402877972781933
  0
DIMENSION
  5
1CC
100
AcDbEntity
  8
0
  6
BYLAYER
 62
  256
370
   -1
100
AcDbDimension
 10
-22.17341826097822
 20
44.40287797278194
 30
0
 11
-22.17341826097822
 21
44.40287797278194
 31
0
 70
   33
  1
10.00
 71
    5
  3
STANDARD
 53
0
210
0
220
0
230
1
100
AcDbAlignedDimension
 13
-29.11786270542266
 23
39.40287797278194
 33
0
 14
-29.11786270542267
 24
49.40287797278194
 34
0
  0
DIMENSION
  5
1CD
100
AcDbEntity
  8
0
  6
BYLAYER
 62
  256
370
   -1
100
AcDbDimension
 10
-22.17341826097822
 20
32.40287797278194
 30
0
 11
-22.17341826097822
 21
32.40287797278194
 31
0
 70
   33
  1
14.00
 71
    5
  3
STANDARD
 53
0
210
0
220
0
230
1
100
AcDbAlignedDimension
 13
-29.11786270542267
 23
25.40287797278193
 33
0
 14
-29.11786270542266
 24
39.40287797278194
 34
0
  0
DIMENSION
  5
1CE
100
AcDbEntity
  8
0
  6
BYLAYER
 62
  256
370
   -1
100
AcDbDimension
 10
-38.84008492764489
 20
68.56954463944861
 30
0
 11
-38.84008492764489
 21
68.56954463944861
 31
0
 70
   33
  1
8.00
 71
    5
  3
STANDARD
 53
0
210
0
220
0
230
1
100
AcDbAlignedDimension
 13
-43.11786270542267
 23
49.40287797278194
 33
0
 14
-35.11786270542267
 24
49.40287797278194
 34
0
  0
DIMENSION
  5
1CF
100
AcDbEntity
  8
0
  6
BYLAYER
 62
  256
370
   -1
100
AcDbDimension
 10
-36.25675159431155
 20
78.70843352833751
 30
0
 11
-36.25675159431155
 21
78.70843352833751
 31
0
 70
   33
  1
14.00
 71
    5
  3
STANDARD
 53
0
210
0
220
0
230
1
100
AcDbAlignedDimension
 13
-43.11786270542267
 23
49.40287797278194
 33
0
 14
-29.11786270542267
 24
49.40287797278194
 34
0
  0
DIMENSION
  5
1D0
100
AcDbEntity
  8
0
  6
BYLAYER
 62
  256
370
   -1
100
AcDbDimension
 10
-42.67341826097822
 20
-9.34712202721806
 30
0
 11
-42.67341826097822
 21
-9.34712202721806
 31
0
 70
   33
  1
10.00
 71
    5
  3
STANDARD
 53
0
210
0
220
0
230
1
100
AcDbAlignedDimension
 13
-48.11786270542266
 23
13.40287797278193
 33
0
 14
-38.11786270542267
 24
13.40287797278193
 34
0
  0
DIMENSION
  5
1D1
100
AcDbEntity
  8
0
  6
BYLAYER
 62
  256
370
   -1
100
AcDbDimension
 10
26.28594398114282
 20
13.60381675879016
 30
0
 11
26.28594398114282
 21
13.60381675879016
 31
0
 70
   33
  1
24.00
 71
    5
  3
STANDARD
 53
0
210
0
220
0
230
1
100
AcDbAlignedDimension
 13
33.11786270542266
 23
25.40287797278193
 33
0
 14
33.11786270542267
 24
1.402877972781933
 34
0
  0
DIMENSION
  5
1D2
100
AcDbEntity
  8
0
  6
BYLAYER
 62
  256
370
   -1
100
AcDbDimension
 10
50.56230714986711
 20
-13.54156647166252
 30
0
 11
50.56230714986711
 21
-13.54156647166252
 31
0
 70
   33
  1
12.00
 71
    5
  3
STANDARD
 53
0
210
0
220
0
230
1
100
AcDbAlignedDimension
 13
45.11786270542267
 23
13.40287797278193
 33
0
 14
57.11786270542267
 24
13.40287797278193
 34
0
  0
DIMENSION
  5
1D3
100
AcDbEntity
  8
0
  6
BYLAYER
 62
  256
370
   -1
100
AcDbDimension
 10
44.81230714986711
 20
71.18065575055971
 30
0
 11
44.81230714986711
 21
71.18065575055971
 31
0
 70
   33
  1
10.00
 71
    5
  3
STANDARD
 53
0
210
0
220
0
230
1
100
AcDbAlignedDimension
 13
40.11786270542267
 23
39.40287797278194
 33
0
 14
50.11786270542267
 24
39.40287797278194
 34
0
  0
DIMENSION
  5
1D4
100
AcDbEntity
  8
0
  6
BYLAYER
 62
  256
370
   -1
100
AcDbDimension
 10
-43.61786270542266
 20
-27.55866993252466
 30
0
 11
-43.61786270542266
 21
-27.55866993252466
 31
0
 70
   33
  1
28.00
 71
    5
  3
STANDARD
 53
0
210
0
220
0
230
1
100
AcDbAlignedDimension
 13
-57.11786270542267
 23
-36.89200326585799
 33
0
 14
-29.11786270542265
 24
-36.89200326585799
 34
0
  0
DIMENSION
  5
1D5
100
AcDbEntity
  8
0
  6
BYLAYER
 62
  256
370
   -1
100
AcDbDimension
 10
-18.951196038756
 20
-48.55866993252465
 30
0
 11
-18.951196038756
 21
-48.55866993252465
 31
0
 70
   33
  1
24.00
 71
    5
  3
STANDARD
 53
0
210
0
220
0
230
1
100
AcDbAlignedDimension
 13
-29.11786270542265
 23
-36.89200326585799
 33
0
 14
-29.11786270542267
 24
-60.89200326585799
 34
0
  0
ENDSEC
  0
SECTION
  2
OBJECTS
  0
DICTIONARY
  5
C
330
0
100
AcDbDictionary
281
    1
  3
ACAD_GROUP
350
D
  0
DICTIONARY
  5
D
330
C
100
AcDbDictionary
281
    1
  0
ENDSEC
  0
EOF
