999
dxfrw 0.6.3
  0
SECTION
  2
HEADER
  9
$ACADVER
  1
AC1018
  9
$DWGCODEPAGE
  3
ANSI_1252
  9
$INSBASE
 10
0
 20
0
 30
0
  9
$EXTMIN
 10
1e+020
 20
1e+020
 30
1e+020
  9
$EXTMAX
 10
-1e+020
 20
-1e+020
 30
-1e+020
  9
$LIMMIN
 10
0
 20
0
  9
$LIMMAX
 10
420
 20
297
  9
$ORTHOMODE
 70
    0
  9
$REGENMODE
 70
    1
  9
$FILLMODE
 70
    1
  9
$QTEXTMODE
 70
    0
  9
$MIRRTEXT
 70
    0
  9
$LTSCALE
 40
1
  9
$ATTMODE
 70
    0
  9
$TEXTSIZE
 40
2.5
  9
$TRACEWID
 40
15.68
  9
$TEXTSTYLE
  7
STANDARD
  9
$CLAYER
  8
0
  9
$CELTYPE
  6
BYLAYER
  9
$CECOLOR
 62
  256
  9
$CELTSCALE
 40
1
  9
$DISPSILH
 70
    0
  9
$DIMSCALE
 40
1
  9
$DIMASZ
 40
2.5
  9
$DIMEXO
 40
0.625
  9
$DIMDLI
 40
3.75
  9
$DIMRND
 40
0
  9
$DIMDLE
 40
0
  9
$DIMEXE
 40
1.25
  9
$DIMTP
 40
0
  9
$DIMTM
 40
0
  9
$DIMTXT
 40
2.5
  9
$DIMCEN
 40
2.5
  9
$DIMTSZ
 40
0
  9
$DIMTOL
 70
    0
  9
$DIMLIM
 70
    0
  9
$DIMTIH
 70
    0
  9
$DIMTOH
 70
    0
  9
$DIMSE1
 70
    0
  9
$DIMSE2
 70
    0
  9
$DIMTAD
 70
    1
  9
$DIMZIN
 70
    8
  9
$DIMBLK
  1

  9
$DIMASO
 70
    1
  9
$DIMSHO
 70
    1
  9
$DIMPOST
  1

  9
$DIMAPOST
  1

  9
$DIMALT
 70
    0
  9
$DIMALTD
 70
    3
  9
$DIMALTF
 40
0.03937
  9
$DIMLFAC
 40
1
  9
$DIMTOFL
 70
    1
  9
$DIMTVP
 40
0
  9
$DIMTIX
 70
    0
  9
$DIMSOXD
 70
    0
  9
$DIMSAH
 70
    0
  9
$DIMBLK1
  1

  9
$DIMBLK2
  1

  9
$DIMSTYLE
  2
STANDARD
  9
$DIMCLRD
 70
    0
  9
$DIMCLRE
 70
    0
  9
$DIMCLRT
 70
    0
  9
$DIMTFAC
 40
1
  9
$DIMGAP
 40
0.625
  9
$DIMJUST
 70
    0
  9
$DIMSD1
 70
    0
  9
$DIMSD2
 70
    0
  9
$DIMTOLJ
 70
    0
  9
$DIMTZIN
 70
    8
  9
$DIMALTZ
 70
    0
  9
$DIMALTTZ
 70
    0
  9
$DIMUPT
 70
    0
  9
$DIMDEC
 70
    2
  9
$DIMTDEC
 70
    2
  9
$DIMALTU
 70
    2
  9
$DIMALTTD
 70
    3
  9
$DIMTXSTY
  7
STANDARD
  9
$DIMAUNIT
 70
    0
  9
$DIMADEC
 70
    0
  9
$DIMALTRND
 40
0
  9
$DIMAZIN
 70
    0
  9
$DIMDSEP
 70
   44
  9
$DIMATFIT
 70
    3
  9
$DIMFRAC
 70
    0
  9
$DIMLDRBLK
  1
STANDARD
  9
$DIMLUNIT
 70
    2
  9
$DIMLWD
 70
   -2
  9
$DIMLWE
 70
   -2
  9
$DIMTMOVE
 70
    0
  9
$LUNITS
 70
    2
  9
$LUPREC
 70
    4
  9
$SKETCHINC
 40
1
  9
$FILLETRAD
 40
0
  9
$AUNITS
 70
    0
  9
$AUPREC
 70
    2
  9
$MENU
  1
.
  9
$ELEVATION
 40
0
  9
$PELEVATION
 40
0
  9
$THICKNESS
 40
0
  9
$LIMCHECK
 70
    0
  9
$CHAMFERA
 40
0
  9
$CHAMFERB
 40
0
  9
$CHAMFERC
 40
0
  9
$CHAMFERD
 40
0
  9
$SKPOLY
 70
    0
  9
$USRTIMER
 70
    1
  9
$ANGBASE
 50
0
  9
$ANGDIR
 70
    0
  9
$PDMODE
 70
   34
  9
$PDSIZE
 40
0
  9
$PLINEWID
 40
0
  9
$SPLFRAME
 70
    0
  9
$SPLINETYPE
 70
    2
  9
$SPLINESEGS
 70
    8
  9
$HANDSEED
  5
20000
  9
$SURFTAB1
 70
    6
  9
$SURFTAB2
 70
    6
  9
$SURFTYPE
 70
    6
  9
$SURFU
 70
    6
  9
$SURFV
 70
    6
  9
$UCSBASE
  2

  9
$UCSNAME
  2

  9
$UCSORG
 10
0
 20
0
 30
0
  9
$UCSXDIR
 10
1
 20
0
 30
0
  9
$UCSYDIR
 10
0
 20
1
 30
0
  9
$UCSORTHOREF
  2

  9
$UCSORTHOVIEW
 70
    0
  9
$UCSORGTOP
 10
0
 20
0
 30
0
  9
$UCSORGBOTTOM
 10
0
 20
0
 30
0
  9
$UCSORGLEFT
 10
0
 20
0
 30
0
  9
$UCSORGRIGHT
 10
0
 20
0
 30
0
  9
$UCSORGFRONT
 10
0
 20
0
 30
0
  9
$UCSORGBACK
 10
0
 20
0
 30
0
  9
$PUCSBASE
  2

  9
$PUCSNAME
  2

  9
$PUCSORG
 10
0
 20
0
 30
0
  9
$PUCSXDIR
 10
1
 20
0
 30
0
  9
$PUCSYDIR
 10
0
 20
1
 30
0
  9
$PUCSORTHOREF
  2

  9
$PUCSORTHOVIEW
 70
    0
  9
$PUCSORGTOP
 10
0
 20
0
 30
0
  9
$PUCSORGBOTTOM
 10
0
 20
0
 30
0
  9
$PUCSORGLEFT
 10
0
 20
0
 30
0
  9
$PUCSORGRIGHT
 10
0
 20
0
 30
0
  9
$PUCSORGFRONT
 10
0
 20
0
 30
0
  9
$PUCSORGBACK
 10
0
 20
0
 30
0
  9
$USERI1
 70
    0
  9
$USERI2
 70
    0
  9
$USERI3
 70
    0
  9
$USERI4
 70
    0
  9
$USERI5
 70
    0
  9
$USERR1
 40
0
  9
$USERR2
 40
0
  9
$USERR3
 40
0
  9
$USERR4
 40
0
  9
$USERR5
 40
0
  9
$WORLDVIEW
 70
    1
  9
$SHADEDGE
 70
    3
  9
$SHADEDIF
 70
   70
  9
$TILEMODE
 70
    1
  9
$MAXACTVP
 70
   64
  9
$PINSBASE
 10
0
 20
0
 30
0
  9
$PLIMCHECK
 70
    0
  9
$PEXTMIN
 10
0
 20
0
 30
0
  9
$PEXTMAX
 10
0
 20
0
 30
0
  9
$PLIMMIN
 10
0
 20
0
  9
$PLIMMAX
 10
297
 20
210
  9
$UNITMODE
 70
    0
  9
$VISRETAIN
 70
    1
  9
$PLINEGEN
 70
    0
  9
$PSLTSCALE
 70
    1
  9
$TREEDEPTH
 70
 3020
  9
$CMLSTYLE
  2
Standard
  9
$CMLJUST
 70
    0
  9
$CMLSCALE
 40
20
  9
$PROXYGRAPHICS
 70
    1
  9
$MEASUREMENT
 70
    1
  9
$CELWEIGHT
370
   -1
  9
$ENDCAPS
280
    0
  9
$JOINSTYLE
280
    0
  9
$LWDISPLAY
290
    0
  9
$INSUNITS
 70
    0
  9
$HYPERLINKBASE
  1

  9
$STYLESHEET
  1

  9
$XEDIT
290
    1
  9
$CEPSNTYPE
380
    0
  9
$PSTYLEMODE
290
    1
  9
$EXTNAMES
290
    1
  9
$PSVPSCALE
 40
0
  9
$OLESTARTUP
290
    0
  9
$SORTENTS
280
  127
  9
$INDEXCTL
280
    0
  9
$HIDETEXT
280
    1
  9
$XCLIPFRAME
290
    0
  9
$HALOGAP
280
    0
  9
$OBSCOLOR
 70
  257
  9
$OBSLTYPE
280
    0
  9
$INTERSECTIONDISPLAY
280
    0
  9
$INTERSECTIONCOLOR
 70
  257
  9
$DIMASSOC
280
    1
  9
$PROJECTNAME
  1

  0
ENDSEC
  0
SECTION
  2
CLASSES
  0
ENDSEC
  0
SECTION
  2
TABLES
  0
TABLE
  2
VPORT
  5
8
330
0
100
AcDbSymbolTable
 70
    1
  0
VPORT
  5
31
330
2
100
AcDbSymbolTableRecord
100
AcDbViewportTableRecord
  2
*ACTIVE
 70
    0
 10
0
 20
0
 11
1
 21
1
 12
0.651828
 22
-0.16
 13
0
 23
0
 14
10
 24
10
 15
10
 25
10
 16
0
 26
0
 36
1
 17
0
 27
0
 37
0
 40
5.13732
 41
2.4426877
 42
50
 43
0
 44
0
 50
0
 51
0
 71
    0
 72
  100
 73
    1
 74
    3
 75
    0
 76
    0
 77
    0
 78
    0
281
    0
 65
    1
110
0
120
0
130
0
111
1
121
0
131
0
112
0
122
1
132
0
 79
    0
146
0
  0
ENDTAB
  0
TABLE
  2
LTYPE
  5
5
330
0
100
AcDbSymbolTable
 70
    4
  0
LTYPE
  5
14
330
5
100
AcDbSymbolTableRecord
100
AcDbLinetypeTableRecord
  2
ByBlock
 70
    0
  3

 72
   65
 73
    0
 40
0
  0
LTYPE
  5
15
330
5
100
AcDbSymbolTableRecord
100
AcDbLinetypeTableRecord
  2
ByLayer
 70
    0
  3

 72
   65
 73
    0
 40
0
  0
LTYPE
  5
16
330
5
100
AcDbSymbolTableRecord
100
AcDbLinetypeTableRecord
  2
Continuous
 70
    0
  3
Solid line
 72
   65
 73
    0
 40
0
  0
ENDTAB
  0
TABLE
  2
LAYER
  5
2
330
0
100
AcDbSymbolTable
 70
    1
  0
LAYER
  5
10
330
2
100
AcDbSymbolTableRecord
100
AcDbLayerTableRecord
  2
0
 70
    0
 62
    7
  6
CONTINUOUS
370
   -3
390
F
  0
ENDTAB
  0
TABLE
  2
STYLE
  5
3
330
0
100
AcDbSymbolTable
 70
    3
  0
STYLE
  5
32
330
2
100
AcDbSymbolTableRecord
100
AcDbTextStyleTableRecord
  2
Standard
 70
    0
 40
0
 41
1
 50
0
 71
    0
 42
1
  3
txt
  4

  0
ENDTAB
  0
TABLE
  2
VIEW
  5
6
330
0
100
AcDbSymbolTable
 70
    0
  0
ENDTAB
  0
TABLE
  2
UCS
  5
7
330
0
100
AcDbSymbolTable
 70
    0
  0
ENDTAB
  0
TABLE
  2
APPID
  5
9
330
0
100
AcDbSymbolTable
 70
    1
  0
APPID
  5
12
330
9
100
AcDbSymbolTableRecord
100
AcDbRegAppTableRecord
  2
ACAD
 70
    0
  0
ENDTAB
  0
TABLE
  2
DIMSTYLE
  5
A
330
0
100
AcDbSymbolTable
 70
    1
100
AcDbDimStyleTable
 71
    1
  0
DIMSTYLE
105
33
330
A
100
AcDbSymbolTableRecord
100
AcDbDimStyleTableRecord
  2
Standard
 70
    0
 40
1
 41
2.5
 42
0.625
 43
3.75
 44
1.25
 45
0
 46
0
 47
0
 48
0
140
2.5
141
2.5
142
0
143
0.03937007874015748
144
1
145
0
146
1
147
0.625
148
0
 71
    0
 72
    0
 73
    0
 74
    0
 75
    0
 76
    0
 77
    1
 78
    8
 79
    0
170
    0
171
    3
172
    1
173
    0
174
    0
175
    0
176
    0
177
    0
178
    0
179
    0
271
    2
272
    2
273
    2
274
    3
275
    0
276
    0
277
    2
278
   44
279
    0
280
    0
281
    0
282
    0
283
    0
284
    8
285
    0
286
    0
288
    0
289
    3
341

371
   -2
372
   -2
  0
ENDTAB
  0
TABLE
  2
BLOCK_RECORD
  5
1
330
0
100
AcDbSymbolTable
 70
    2
  0
BLOCK_RECORD
  5
1F
330
1
100
AcDbSymbolTableRecord
100
AcDbBlockTableRecord
  2
*Model_Space
  0
BLOCK_RECORD
  5
1E
330
1
100
AcDbSymbolTableRecord
100
AcDbBlockTableRecord
  2
*Paper_Space
  0
ENDTAB
  0
ENDSEC
  0
SECTION
  2
BLOCKS
  0
BLOCK
  5
20
330
1F
100
AcDbEntity
  8
0
100
AcDbBlockBegin
  2
*Model_Space
 70
    0
 10
0
 20
0
 30
0
  3
*Model_Space
  1

  0
ENDBLK
  5
21
330
1F
100
AcDbEntity
  8
0
100
AcDbBlockEnd
  0
BLOCK
  5
1C
330
1B
100
AcDbEntity
  8
0
100
AcDbBlockBegin
  2
*Paper_Space
 70
    0
 10
0
 20
0
 30
0
  3
*Paper_Space
  1

  0
ENDBLK
  5
1D
330
1F
100
AcDbEntity
  8
0
100
AcDbBlockEnd
  0
ENDSEC
  0
SECTION
  2
ENTITIES
  0
LINE
  5
34
100
AcDbEntity
  8
0
  6
BYLAYER
 62
  256
420
    0
370
    4
100
AcDbLine
 10
20.4960645234478
 20
10.82843833689073
 11
18.67097582646979
 21
9.376402507290097
  0
LINE
  5
35
100
AcDbEntity
  8
0
  6
BYLAYER
 62
  256
420
    0
370
    4
100
AcDbLine
 10
18.67097582646979
 20
9.376402507290097
 11
20.4960645234478
 21
10.82843833689073
  0
LINE
  5
36
100
AcDbEntity
  8
0
  6
BYLAYER
 62
  256
420
    0
370
    4
100
AcDbLine
 10
21.28760405576626
 20
12.71053907439731
 11
20.4960645234478
 21
10.82843833689073
  0
LINE
  5
37
100
AcDbEntity
  8
0
  6
BYLAYER
 62
  256
420
    0
370
    4
100
AcDbLine
 10
20.4960645234478
 20
10.82843833689073
 11
21.28760405576626
 21
12.71053907439731
  0
LINE
  5
38
100
AcDbEntity
  8
0
  6
BYLAYER
 62
  256
420
    0
370
    4
100
AcDbLine
 10
20.72273603809009
 20
14.61131500207941
 11
21.28760405576626
 21
12.71053907439731
  0
LINE
  5
39
100
AcDbEntity
  8
0
  6
BYLAYER
 62
  256
420
    0
370
    4
100
AcDbLine
 10
21.28760405576626
 20
12.71053907439731
 11
20.72273603809009
 21
14.61131500207941
  0
LINE
  5
3A
100
AcDbEntity
  8
0
  6
BYLAYER
 62
  256
420
    0
370
    4
100
AcDbLine
 10
24.21362532360133
 20
15.42370597809472
 11
23.15939388549263
 21
16.61299193509014
  0
LINE
  5
3B
100
AcDbEntity
  8
0
  6
BYLAYER
 62
  256
420
    0
370
    4
100
AcDbLine
 10
23.15939388549263
 20
16.61299193509014
 11
24.21362532360133
 21
15.42370597809472
  0
LINE
  5
3C
100
AcDbEntity
  8
0
  6
BYLAYER
 62
  256
420
    0
370
    4
100
AcDbLine
 10
19.07452594409941
 20
16.11117164614552
 11
20.72273603809009
 21
14.61131500207941
  0
LINE
  5
3D
100
AcDbEntity
  8
0
  6
BYLAYER
 62
  256
420
    0
370
    4
100
AcDbLine
 10
20.72273603809009
 20
14.61131500207941
 11
19.07452594409941
 21
16.11117164614552
  0
LINE
  5
3E
100
AcDbEntity
  8
0
  6
BYLAYER
 62
  256
420
    0
370
    4
100
AcDbLine
 10
18.67097582646979
 20
9.376402507290097
 11
16.05555669314204
 21
8.408497735366833
  0
LINE
  5
3F
100
AcDbEntity
  8
0
  6
BYLAYER
 62
  256
420
    0
370
    4
100
AcDbLine
 10
16.05555669314204
 20
8.408497735366833
 11
18.67097582646979
 21
9.376402507290097
  0
LINE
  5
40
100
AcDbEntity
  8
0
  6
BYLAYER
 62
  256
420
    0
370
    4
100
AcDbLine
 10
16.05555669314204
 20
8.408497735366833
 11
12.75742658524357
 21
8.061853927031194
  0
LINE
  5
41
100
AcDbEntity
  8
0
  6
BYLAYER
 62
  256
420
    0
370
    4
100
AcDbLine
 10
12.75742658524357
 20
8.061853927031194
 11
16.05555669314204
 21
8.408497735366833
  0
LINE
  5
42
100
AcDbEntity
  8
0
  6
BYLAYER
 62
  256
420
    0
370
    4
100
AcDbLine
 10
23.15939388549263
 20
16.61299193509014
 11
21.81622882325
 21
17.60531564219268
  0
LINE
  5
43
100
AcDbEntity
  8
0
  6
BYLAYER
 62
  256
420
    0
370
    4
100
AcDbLine
 10
21.81622882325
 20
17.60531564219268
 11
23.15939388549263
 21
16.61299193509014
  0
LINE
  5
44
100
AcDbEntity
  8
0
  6
BYLAYER
 62
  256
420
    0
370
    4
100
AcDbLine
 10
16.57931753415981
 20
17.149440181322
 11
19.07452594409941
 21
16.11117164614552
  0
LINE
  5
45
100
AcDbEntity
  8
0
  6
BYLAYER
 62
  256
420
    0
370
    4
100
AcDbLine
 10
19.07452594409941
 20
16.11117164614552
 11
16.57931753415981
 21
17.149440181322
  0
LINE
  5
46
100
AcDbEntity
  8
0
  6
BYLAYER
 62
  256
420
    0
370
    4
100
AcDbLine
 10
21.81622882325
 20
17.60531564219268
 11
20.18012475574507
 21
18.4379965748383
  0
LINE
  5
47
100
AcDbEntity
  8
0
  6
BYLAYER
 62
  256
420
    0
370
    4
100
AcDbLine
 10
20.18012475574507
 20
18.4379965748383
 11
21.81622882325
 21
17.60531564219268
  0
LINE
  5
48
100
AcDbEntity
  8
0
  6
BYLAYER
 62
  256
420
    0
370
    4
100
AcDbLine
 10
13.32813263469262
 20
17.58625578265229
 11
16.57931753415981
 21
17.149440181322
  0
LINE
  5
49
100
AcDbEntity
  8
0
  6
BYLAYER
 62
  256
420
    0
370
    4
100
AcDbLine
 10
16.57931753415981
 20
17.149440181322
 11
13.32813263469262
 21
17.58625578265229
  0
LINE
  5
4A
100
AcDbEntity
  8
0
  6
BYLAYER
 62
  256
420
    0
370
    4
100
AcDbLine
 10
20.18012475574507
 20
18.4379965748383
 11
18.18683477328267
 21
19.11552442040257
  0
LINE
  5
4B
100
AcDbEntity
  8
0
  6
BYLAYER
 62
  256
420
    0
370
    4
100
AcDbLine
 10
18.18683477328267
 20
19.11552442040257
 11
20.18012475574507
 21
18.4379965748383
  0
LINE
  5
4C
100
AcDbEntity
  8
0
  6
BYLAYER
 62
  256
420
    0
370
    4
100
AcDbLine
 10
16.65543555484799
 20
8.984829185306351
 11
17.10613372663704
 21
8.797291451461959
  0
LINE
  5
4D
100
AcDbEntity
  8
0
  6
BYLAYER
 62
  256
420
    0
370
    4
100
AcDbLine
 10
17.10613372663704
 20
8.797291451461959
 11
16.65543555484799
 21
8.984829185306351
  0
LINE
  5
4E
100
AcDbEntity
  8
0
  6
BYLAYER
 62
  256
420
    0
370
    4
100
AcDbLine
 10
18.18683477328267
 20
19.11552442040257
 11
15.90640250864787
 21
19.57007811307324
  0
LINE
  5
4F
100
AcDbEntity
  8
0
  6
BYLAYER
 62
  256
420
    0
370
    4
100
AcDbLine
 10
15.90640250864787
 20
19.57007811307324
 11
18.18683477328267
 21
19.11552442040257
  0
LINE
  5
50
100
AcDbEntity
  8
0
  6
BYLAYER
 62
  256
420
    0
370
    4
100
AcDbLine
 10
10.03000252679415
 20
17.23961197431666
 11
13.32813263469262
 21
17.58625578265229
  0
LINE
  5
51
100
AcDbEntity
  8
0
  6
BYLAYER
 62
  256
420
    0
370
    4
100
AcDbLine
 10
13.32813263469262
 20
17.58625578265229
 11
10.03000252679415
 21
17.23961197431666
  0
LINE
  5
52
100
AcDbEntity
  8
0
  6
BYLAYER
 62
  256
420
    0
370
    4
100
AcDbLine
 10
13.40425065479146
 20
9.421644786794445
 11
16.65543555484799
 21
8.984829185306351
  0
LINE
  5
53
100
AcDbEntity
  8
0
  6
BYLAYER
 62
  256
420
    0
370
    4
100
AcDbLine
 10
16.65543555484799
 20
8.984829185306351
 11
13.40425065479146
 21
9.421644786794445
  0
LINE
  5
54
100
AcDbEntity
  8
0
  6
BYLAYER
 62
  256
420
    0
370
    4
100
AcDbLine
 10
7.414583393466405
 20
16.27170720239339
 11
10.03000252679415
 21
17.23961197431666
  0
LINE
  5
55
100
AcDbEntity
  8
0
  6
BYLAYER
 62
  256
420
    0
370
    4
100
AcDbLine
 10
10.03000252679415
 20
17.23961197431666
 11
7.414583393466405
 21
16.27170720239339
  0
LINE
  5
56
100
AcDbEntity
  8
0
  6
BYLAYER
 62
  256
420
    0
370
    4
100
AcDbLine
 10
15.90640250864787
 20
19.57007811307324
 11
13.45783855502195
 21
19.75089256802072
  0
LINE
  5
57
100
AcDbEntity
  8
0
  6
BYLAYER
 62
  256
420
    0
370
    4
100
AcDbLine
 10
13.45783855502195
 20
19.75089256802072
 11
15.90640250864787
 21
19.57007811307324
  0
LINE
  5
58
100
AcDbEntity
  8
0
  6
BYLAYER
 62
  256
420
    0
370
    4
100
AcDbLine
 10
13.40425065479146
 20
9.421644786794445
 11
12.39717722901849
 21
9.315798214317056
  0
LINE
  5
59
100
AcDbEntity
  8
0
  6
BYLAYER
 62
  256
420
    0
370
    4
100
AcDbLine
 10
12.39717722901849
 20
9.315798214317056
 11
13.40425065479146
 21
9.421644786794445
  0
LINE
  5
5A
100
AcDbEntity
  8
0
  6
BYLAYER
 62
  256
420
    0
370
    4
100
AcDbLine
 10
2.151600653770824
 20
4.798039327535909
 11
12.38729140259971
 21
10.37617691277866
  0
LINE
  5
5B
100
AcDbEntity
  8
0
  6
BYLAYER
 62
  256
420
    0
370
    4
100
AcDbLine
 10
12.38729140259971
 20
10.37617691277866
 11
-3.985643045405219
 21
20.40571101474709
  0
LINE
  5
5C
100
AcDbEntity
  8
0
  6
BYLAYER
 62
  256
420
    0
370
    4
100
AcDbLine
 10
-3.985643045405219
 20
20.40571101474709
 11
12.38729140259971
 21
10.37617691277866
  0
LINE
  5
5D
100
AcDbEntity
  8
0
  6
BYLAYER
 62
  256
420
    0
370
    4
100
AcDbLine
 10
12.38729140259971
 20
10.37617691277866
 11
12.45579762068866
 21
3.028027016506593
  0
LINE
  5
5E
100
AcDbEntity
  8
0
  6
BYLAYER
 62
  256
420
    0
370
    4
100
AcDbLine
 10
12.45579762068866
 20
3.028027016506593
 11
12.38729140259971
 21
10.37617691277866
  0
LINE
  5
5F
100
AcDbEntity
  8
0
  6
BYLAYER
 62
  256
420
    0
370
    4
100
AcDbLine
 10
12.38729140259971
 20
10.37617691277866
 11
2.151600653770824
 21
4.798039327535909
  0
LINE
  5
60
100
AcDbEntity
  8
0
  6
BYLAYER
 62
  256
420
    0
370
    4
100
AcDbLine
 10
12.40843050353752
 20
8.108743580497945
 11
12.75742658524357
 21
8.061853927031194
  0
LINE
  5
61
100
AcDbEntity
  8
0
  6
BYLAYER
 62
  256
420
    0
370
    4
100
AcDbLine
 10
12.75742658524357
 20
8.061853927031194
 11
12.40843050353752
 21
8.108743580497945
  0
LINE
  5
62
100
AcDbEntity
  8
0
  6
BYLAYER
 62
  256
420
    0
370
    4
100
AcDbLine
 10
12.5319156407875
 20
-5.136583979351258
 11
12.60042185887645
 21
-12.48473387562332
  0
LINE
  5
63
100
AcDbEntity
  8
0
  6
BYLAYER
 62
  256
420
    0
370
    4
100
AcDbLine
 10
12.60042185887645
 20
-12.48473387562332
 11
2.364731110047561
 21
-18.06287146086608
  0
LINE
  5
64
100
AcDbEntity
  8
0
  6
BYLAYER
 62
  256
420
    0
370
    4
100
AcDbLine
 10
2.364731110047561
 20
-18.06287146086608
 11
12.60042185887645
 21
-12.48473387562332
  0
LINE
  5
65
100
AcDbEntity
  8
0
  6
BYLAYER
 62
  256
420
    0
370
    4
100
AcDbLine
 10
12.60042185887645
 20
-12.48473387562332
 11
12.5319156407875
 21
-5.136583979351258
  0
LINE
  5
66
100
AcDbEntity
  8
0
  6
BYLAYER
 62
  256
420
    0
370
    4
100
AcDbLine
 10
2.394699155633642
 20
16.49731817956139
 11
4.856312385965634
 21
17.83882190582596
  0
LINE
  5
67
100
AcDbEntity
  8
0
  6
BYLAYER
 62
  256
420
    0
370
    4
100
AcDbLine
 10
4.856312385965634
 20
17.83882190582596
 11
2.394699155633642
 21
16.49731817956139
  0
LINE
  5
68
100
AcDbEntity
  8
0
  6
BYLAYER
 62
  256
420
    0
370
    4
100
AcDbLine
 10
5.589494696488393
 20
14.81967137279275
 11
5.496066397357835
 21
14.59752015542707
  0
LINE
  5
69
100
AcDbEntity
  8
0
  6
BYLAYER
 62
  256
420
    0
370
    4
100
AcDbLine
 10
5.496066397357835
 20
14.59752015542707
 11
5.589494696488393
 21
14.81967137279275
  0
LINE
  5
6A
100
AcDbEntity
  8
0
  6
BYLAYER
 62
  256
420
    0
370
    4
100
AcDbLine
 10
6.589426039307597
 20
18.62511502469134
 11
4.856312385965634
 21
17.83882190582596
  0
LINE
  5
6B
100
AcDbEntity
  8
0
  6
BYLAYER
 62
  256
420
    0
370
    4
100
AcDbLine
 10
4.856312385965634
 20
17.83882190582596
 11
6.589426039307597
 21
18.62511502469134
  0
LINE
  5
6C
100
AcDbEntity
  8
0
  6
BYLAYER
 62
  256
420
    0
370
    4
100
AcDbLine
 10
13.45783855502195
 20
19.75089256802072
 11
10.99166027107651
 21
19.63774490263909
  0
LINE
  5
6D
100
AcDbEntity
  8
0
  6
BYLAYER
 62
  256
420
    0
370
    4
100
AcDbLine
 10
10.99166027107651
 20
19.63774490263909
 11
13.45783855502195
 21
19.75089256802072
  0
LINE
  5
6E
100
AcDbEntity
  8
0
  6
BYLAYER
 62
  256
420
    0
370
    4
100
AcDbLine
 10
10.99166027107651
 20
19.63774490263909
 11
8.660558398081868
 21
19.24668339226053
  0
LINE
  5
6F
100
AcDbEntity
  8
0
  6
BYLAYER
 62
  256
420
    0
370
    4
100
AcDbLine
 10
8.660558398081868
 20
19.24668339226053
 11
10.99166027107651
 21
19.63774490263909
  0
LINE
  5
70
100
AcDbEntity
  8
0
  6
BYLAYER
 62
  256
420
    0
370
    4
100
AcDbLine
 10
5.589494696488393
 20
14.81967137279275
 11
7.414583393466405
 21
16.27170720239339
  0
LINE
  5
71
100
AcDbEntity
  8
0
  6
BYLAYER
 62
  256
420
    0
370
    4
100
AcDbLine
 10
7.414583393466405
 20
16.27170720239339
 11
5.589494696488393
 21
14.81967137279275
  0
LINE
  5
72
100
AcDbEntity
  8
0
  6
BYLAYER
 62
  256
420
    0
370
    4
100
AcDbLine
 10
6.589426039307597
 20
18.62511502469134
 11
8.660558398081868
 21
19.24668339226053
  0
LINE
  5
73
100
AcDbEntity
  8
0
  6
BYLAYER
 62
  256
420
    0
370
    4
100
AcDbLine
 10
8.660558398081868
 20
19.24668339226053
 11
6.589426039307597
 21
18.62511502469134
  0
LINE
  5
74
100
AcDbEntity
  8
0
  6
BYLAYER
 62
  256
420
    0
370
    4
100
AcDbLine
 10
-4.412595629911124
 20
-2.323532289547011
 11
-3.979514867639228
 21
-4.504012084816122
  0
LINE
  5
75
100
AcDbEntity
  8
0
  6
BYLAYER
 62
  256
420
    0
370
    4
100
AcDbLine
 10
-3.979514867639228
 20
-4.504012084816122
 11
-4.412595629911124
 21
-2.323532289547011
  0
LINE
  5
76
100
AcDbEntity
  8
0
  6
BYLAYER
 62
  256
420
    0
370
    4
100
AcDbLine
 10
-5.735696242301454
 20
-0.8190098854082208
 11
-4.412595629911124
 21
-2.323532289547011
  0
LINE
  5
77
100
AcDbEntity
  8
0
  6
BYLAYER
 62
  256
420
    0
370
    4
100
AcDbLine
 10
-4.412595629911124
 20
-2.323532289547011
 11
-5.735696242301454
 21
-0.8190098854082208
  0
LINE
  5
78
100
AcDbEntity
  8
0
  6
BYLAYER
 62
  256
420
    0
370
    4
100
AcDbLine
 10
-9.935046237965533
 20
3.738936117817579
 11
-12.33630330100002
 21
2.108904291795883
  0
LINE
  5
79
100
AcDbEntity
  8
0
  6
BYLAYER
 62
  256
420
    0
370
    4
100
AcDbLine
 10
-12.33630330100002
 20
2.108904291795883
 11
-9.935046237965533
 21
3.738936117817579
  0
LINE
  5
7A
100
AcDbEntity
  8
0
  6
BYLAYER
 62
  256
420
    0
370
    4
100
AcDbLine
 10
-5.735696242301454
 20
-0.8190098854082208
 11
-7.73212643215161
 21
-0.4451269131376208
  0
LINE
  5
7B
100
AcDbEntity
  8
0
  6
BYLAYER
 62
  256
420
    0
370
    4
100
AcDbLine
 10
-7.73212643215161
 20
-0.4451269131376208
 11
-5.735696242301454
 21
-0.8190098854082208
  0
LINE
  5
7C
100
AcDbEntity
  8
0
  6
BYLAYER
 62
  256
420
    0
370
    4
100
AcDbLine
 10
-11.01556470734951
 20
-1.773569103994181
 11
-11.18982182511206
 21
-2.953119928189715
  0
LINE
  5
7D
100
AcDbEntity
  8
0
  6
BYLAYER
 62
  256
420
    0
370
    4
100
AcDbLine
 10
-11.18982182511206
 20
-2.953119928189715
 11
-11.01556470734951
 21
-1.773569103994181
  0
LINE
  5
7E
100
AcDbEntity
  8
0
  6
BYLAYER
 62
  256
420
    0
370
    4
100
AcDbLine
 10
-14.0098438244087
 20
-7.857374640717517
 11
-14.05113979630919
 21
-3.427864442927704
  0
LINE
  5
7F
100
AcDbEntity
  8
0
  6
BYLAYER
 62
  256
420
    0
370
    4
100
AcDbLine
 10
-14.05113979630918
 20
-3.427864442927702
 11
-14.0098438244087
 21
-7.857374640717516
  0
LINE
  5
80
100
AcDbEntity
  8
0
  6
BYLAYER
 62
  256
420
    0
370
    4
100
AcDbLine
 10
-25.1113695512279
 20
-1.558566624272487
 11
-23.52134766436484
 21
1.338819095116349
  0
LINE
  5
81
100
AcDbEntity
  8
0
  6
BYLAYER
 62
  256
420
    0
370
    4
100
AcDbLine
 10
-23.52134766436484
 20
1.338819095116349
 11
-21.48320112379064
 21
4.037293108752634
  0
LINE
  5
82
100
AcDbEntity
  8
0
  6
BYLAYER
 62
  256
420
    0
370
    4
100
AcDbLine
 10
-21.48320112379064
 20
4.037293108752634
 11
-23.52134766436484
 21
1.338819095116349
  0
LINE
  5
83
100
AcDbEntity
  8
0
  6
BYLAYER
 62
  256
420
    0
370
    4
100
AcDbLine
 10
-23.52134766436484
 20
1.338819095116349
 11
-25.1113695512279
 21
-1.558566624272487
  0
LINE
  5
84
100
AcDbEntity
  8
0
  6
BYLAYER
 62
  256
420
    0
370
    4
100
AcDbLine
 10
-14.66114510378858
 20
-0.1416794337342147
 11
-12.33630330100002
 21
2.108904291795883
  0
LINE
  5
85
100
AcDbEntity
  8
0
  6
BYLAYER
 62
  256
420
    0
370
    4
100
AcDbLine
 10
-12.33630330100002
 20
2.108904291795883
 11
-14.66114510378858
 21
-0.1416794337342147
  0
LINE
  5
86
100
AcDbEntity
  8
0
  6
BYLAYER
 62
  256
420
    0
370
    4
100
AcDbLine
 10
-7.73212643215161
 20
-0.4451269131376208
 11
-9.889375425906223
 21
-1.159830479697128
  0
LINE
  5
87
100
AcDbEntity
  8
0
  6
BYLAYER
 62
  256
420
    0
370
    4
100
AcDbLine
 10
-9.889375425906223
 20
-1.159830479697128
 11
-18.28931353122584
 21
-5.73753916675933
  0
LINE
  5
88
100
AcDbEntity
  8
0
  6
BYLAYER
 62
  256
420
    0
370
    4
100
AcDbLine
 10
-18.28931353122584
 20
-5.73753916675933
 11
-25.1113695512279
 21
-1.558566624272487
  0
LINE
  5
89
100
AcDbEntity
  8
0
  6
BYLAYER
 62
  256
420
    0
370
    4
100
AcDbLine
 10
-25.1113695512279
 20
-1.558566624272487
 11
-18.28931353122584
 21
-5.73753916675933
  0
LINE
  5
8A
100
AcDbEntity
  8
0
  6
BYLAYER
 62
  256
420
    0
370
    4
100
AcDbLine
 10
-18.28931353122584
 20
-5.73753916675933
 11
-9.889375425906223
 21
-1.159830479697128
  0
LINE
  5
8B
100
AcDbEntity
  8
0
  6
BYLAYER
 62
  256
420
    0
370
    4
100
AcDbLine
 10
-9.889375425906223
 20
-1.159830479697128
 11
-7.73212643215161
 21
-0.4451269131376208
  0
LINE
  5
8C
100
AcDbEntity
  8
0
  6
BYLAYER
 62
  256
420
    0
370
    4
100
AcDbLine
 10
-16.69929164436279
 20
-2.840153447370497
 11
-18.28931353122584
 21
-5.73753916675933
  0
LINE
  5
8D
100
AcDbEntity
  8
0
  6
BYLAYER
 62
  256
420
    0
370
    4
100
AcDbLine
 10
-18.28931353122584
 20
-5.73753916675933
 11
-16.69929164436279
 21
-2.840153447370497
  0
LINE
  5
8E
100
AcDbEntity
  8
0
  6
BYLAYER
 62
  256
420
    0
370
    4
100
AcDbLine
 10
-14.66114510378858
 20
-0.1416794337342147
 11
-16.69929164436279
 21
-2.840153447370497
  0
LINE
  5
8F
100
AcDbEntity
  8
0
  6
BYLAYER
 62
  256
420
    0
370
    4
100
AcDbLine
 10
-16.69929164436279
 20
-2.840153447370497
 11
-14.66114510378858
 21
-0.1416794337342147
  0
LINE
  5
90
100
AcDbEntity
  8
0
  6
BYLAYER
 62
  256
420
    0
370
    4
100
AcDbLine
 10
-3.979514867639228
 20
-4.504012084816122
 11
-4.367765805110004
 21
-7.132092470676554
  0
LINE
  5
91
100
AcDbEntity
  8
0
  6
BYLAYER
 62
  256
420
    0
370
    4
100
AcDbLine
 10
-4.367765805110004
 20
-7.132092470676554
 11
-5.649578533209652
 21
-10.05621276688236
  0
LINE
  5
92
100
AcDbEntity
  8
0
  6
BYLAYER
 62
  256
420
    0
370
    4
100
AcDbLine
 10
-5.649578533209652
 20
-10.05621276688236
 11
-4.367765805110004
 21
-7.132092470676554
  0
LINE
  5
93
100
AcDbEntity
  8
0
  6
BYLAYER
 62
  256
420
    0
370
    4
100
AcDbLine
 10
-4.367765805110004
 20
-7.132092470676554
 11
-3.979514867639228
 21
-4.504012084816122
  0
LINE
  5
94
100
AcDbEntity
  8
0
  6
BYLAYER
 62
  256
420
    0
370
    4
100
AcDbLine
 10
-11.18982182511206
 20
-2.953119928189715
 11
-12.47163455321172
 21
-5.877240224395525
  0
LINE
  5
95
100
AcDbEntity
  8
0
  6
BYLAYER
 62
  256
420
    0
370
    4
100
AcDbLine
 10
-12.47163455321172
 20
-5.877240224395525
 11
-14.44094462081299
 21
-8.412330029329674
  0
LINE
  5
96
100
AcDbEntity
  8
0
  6
BYLAYER
 62
  256
420
    0
370
    4
100
AcDbLine
 10
-14.44094462081299
 20
-8.412330029329674
 11
-16.58964261375015
 21
-10.04423553058285
  0
LINE
  5
97
100
AcDbEntity
  8
0
  6
BYLAYER
 62
  256
420
    0
370
    4
100
AcDbLine
 10
-16.58964261375015
 20
-10.04423553058285
 11
-14.44094462081299
 21
-8.412330029329674
  0
LINE
  5
98
100
AcDbEntity
  8
0
  6
BYLAYER
 62
  256
420
    0
370
    4
100
AcDbLine
 10
-14.44094462081299
 20
-8.412330029329674
 11
-12.47163455321172
 21
-5.877240224395525
  0
LINE
  5
99
100
AcDbEntity
  8
0
  6
BYLAYER
 62
  256
420
    0
370
    4
100
AcDbLine
 10
-12.47163455321172
 20
-5.877240224395525
 11
-11.18982182511206
 21
-2.953119928189715
  0
LINE
  5
9A
100
AcDbEntity
  8
0
  6
BYLAYER
 62
  256
420
    0
370
    4
100
AcDbLine
 10
-7.618888600810926
 20
-12.59130257181652
 11
-5.649578533209652
 21
-10.05621276688236
  0
LINE
  5
9B
100
AcDbEntity
  8
0
  6
BYLAYER
 62
  256
420
    0
370
    4
100
AcDbLine
 10
-5.649578533209652
 20
-10.05621276688236
 11
-7.618888600810926
 21
-12.59130257181652
  0
LINE
  5
9C
100
AcDbEntity
  8
0
  6
BYLAYER
 62
  256
420
    0
370
    4
100
AcDbLine
 10
-9.767586593748099
 20
-14.22320807306969
 11
-18.16752469906771
 21
-18.80091676013188
  0
LINE
  5
9D
100
AcDbEntity
  8
0
  6
BYLAYER
 62
  256
420
    0
370
    4
100
AcDbLine
 10
-18.16752469906771
 20
-18.80091676013188
 11
-9.767586593748099
 21
-14.22320807306969
  0
LINE
  5
9E
100
AcDbEntity
  8
0
  6
BYLAYER
 62
  256
420
    0
370
    4
100
AcDbLine
 10
-7.618888600810926
 20
-12.59130257181652
 11
-9.767586593748099
 21
-14.22320807306969
  0
LINE
  5
9F
100
AcDbEntity
  8
0
  6
BYLAYER
 62
  256
420
    0
370
    4
100
AcDbLine
 10
-9.767586593748099
 20
-14.22320807306969
 11
-7.618888600810926
 21
-12.59130257181652
  0
LINE
  5
A0
100
AcDbEntity
  8
0
  6
BYLAYER
 62
  256
420
    0
370
    4
100
AcDbLine
 10
-16.58964261375015
 20
-10.04423553058285
 11
-9.767586593748099
 21
-14.22320807306969
  0
LINE
  5
A1
100
AcDbEntity
  8
0
  6
BYLAYER
 62
  256
420
    0
370
    4
100
AcDbLine
 10
-9.767586593748099
 20
-14.22320807306969
 11
-16.58964261375015
 21
-10.04423553058285
  0
LINE
  5
A2
100
AcDbEntity
  8
0
  6
BYLAYER
 62
  256
420
    0
370
    4
100
AcDbLine
 10
-23.36188292534576
 20
-15.76577138104569
 11
-24.98958071906978
 21
-14.62194421764505
  0
LINE
  5
A3
100
AcDbEntity
  8
0
  6
BYLAYER
 62
  256
420
    0
370
    4
100
AcDbLine
 10
-24.98958071906978
 20
-14.62194421764505
 11
-23.36188292534576
 21
-15.76577138104569
  0
LINE
  5
A4
100
AcDbEntity
  8
0
  6
BYLAYER
 62
  256
420
    0
370
    4
100
AcDbLine
 10
25.03525153112907
 20
12.65894099237712
 11
25.1113695512279
 21
4.494329996519275
  0
LINE
  5
A5
100
AcDbEntity
  8
0
  6
BYLAYER
 62
  256
420
    0
370
    4
100
AcDbLine
 10
25.1113695512279
 20
4.494329996519275
 11
24.77185092963268
 21
3.078458883819296
  0
LINE
  5
A6
100
AcDbEntity
  8
0
  6
BYLAYER
 62
  256
420
    0
370
    4
100
AcDbLine
 10
24.77185092963268
 20
3.078458883819296
 11
23.96003932199589
 21
1.756728923286888
  0
LINE
  5
A7
100
AcDbEntity
  8
0
  6
BYLAYER
 62
  256
420
    0
370
    4
100
AcDbLine
 10
23.96003932199589
 20
1.756728923286888
 11
22.76513839885181
 21
0.5984093036572702
  0
LINE
  5
A8
100
AcDbEntity
  8
0
  6
BYLAYER
 62
  256
420
    0
370
    4
100
AcDbLine
 10
22.76513839885181
 20
0.5984093036572702
 11
21.3053648540694
 21
-0.3553231920003146
  0
LINE
  5
A9
100
AcDbEntity
  8
0
  6
BYLAYER
 62
  256
420
    0
370
    4
100
AcDbLine
 10
21.3053648540694
 20
-0.3553231920003146
 11
12.5319156407875
 21
-5.136583979351258
  0
LINE
  5
AA
100
AcDbEntity
  8
0
  6
BYLAYER
 62
  256
420
    0
370
    4
100
AcDbLine
 10
12.5319156407875
 20
-5.136583979351258
 11
12.60042185887645
 21
-12.48473387562332
  0
LINE
  5
AB
100
AcDbEntity
  8
0
  6
BYLAYER
 62
  256
420
    0
370
    4
100
AcDbLine
 10
12.60042185887645
 20
-12.48473387562332
 11
2.364731110047561
 21
-18.06287146086608
  0
LINE
  5
AC
100
AcDbEntity
  8
0
  6
BYLAYER
 62
  256
420
    0
370
    4
100
AcDbLine
 10
2.364731110047561
 20
-18.06287146086608
 11
-2.410708103953876
 21
-15.13759068112529
  0
LINE
  5
AD
100
AcDbEntity
  8
0
  6
BYLAYER
 62
  256
420
    0
370
    4
100
AcDbLine
 10
-2.410708103953876
 20
-15.13759068112529
 11
-9.721915781688864
 21
-19.12197467058445
  0
LINE
  5
AE
100
AcDbEntity
  8
0
  6
BYLAYER
 62
  256
420
    0
370
    4
100
AcDbLine
 10
-9.721915781688864
 20
-19.12197467058445
 11
-12.12913570219634
 21
-20.11241535080166
  0
LINE
  5
AF
100
AcDbEntity
  8
0
  6
BYLAYER
 62
  256
420
    0
370
    4
100
AcDbLine
 10
-12.12913570219634
 20
-20.11241535080166
 11
-14.47222514618749
 21
-20.40571101474708
  0
LINE
  5
B0
100
AcDbEntity
  8
0
  6
BYLAYER
 62
  256
420
    0
370
    4
100
AcDbLine
 10
-14.47222514618749
 20
-20.40571101474708
 11
-16.5398269053437
 21
-19.94474392353254
  0
LINE
  5
B1
100
AcDbEntity
  8
0
  6
BYLAYER
 62
  256
420
    0
370
    4
100
AcDbLine
 10
-16.5398269053437
 20
-19.94474392353254
 11
-23.36188292534576
 21
-15.76577138104569
  0
LINE
  5
B2
100
AcDbEntity
  8
0
  6
BYLAYER
 62
  256
420
    0
370
    4
100
AcDbLine
 10
-23.36188292534576
 20
-15.76577138104569
 11
-24.98958071906978
 21
-14.62194421764505
  0
LINE
  5
B3
100
AcDbEntity
  8
0
  6
BYLAYER
 62
  256
420
    0
370
    4
100
AcDbLine
 10
-24.98958071906978
 20
-14.62194421764505
 11
-16.58964261375015
 21
-10.04423553058285
  0
LINE
  5
B4
100
AcDbEntity
  8
0
  6
BYLAYER
 62
  256
420
    0
370
    4
100
AcDbLine
 10
-16.58964261375015
 20
-10.04423553058285
 11
-14.44094462081299
 21
-8.412330029329674
  0
LINE
  5
B5
100
AcDbEntity
  8
0
  6
BYLAYER
 62
  256
420
    0
370
    4
100
AcDbLine
 10
-14.44094462081299
 20
-8.412330029329674
 11
-12.47163455321172
 21
-5.877240224395525
  0
LINE
  5
B6
100
AcDbEntity
  8
0
  6
BYLAYER
 62
  256
420
    0
370
    4
100
AcDbLine
 10
-12.47163455321172
 20
-5.877240224395525
 11
-11.18982182511206
 21
-2.953119928189715
  0
LINE
  5
B7
100
AcDbEntity
  8
0
  6
BYLAYER
 62
  256
420
    0
370
    4
100
AcDbLine
 10
-11.18982182511206
 20
-2.953119928189715
 11
-11.01556470734951
 21
-1.773569103994181
  0
LINE
  5
B8
100
AcDbEntity
  8
0
  6
BYLAYER
 62
  256
420
    0
370
    4
100
AcDbLine
 10
24.8658319301318
 20
14.0818192305672
 11
25.03525153112907
 21
12.65894099237712
  0
LINE
  5
B9
100
AcDbEntity
  8
0
  6
BYLAYER
 62
  256
420
    0
370
    4
100
AcDbLine
 10
24.21362532360133
 20
15.42370597809472
 11
24.8658319301318
 21
14.0818192305672
  0
LINE
  5
BA
100
AcDbEntity
  8
0
  6
BYLAYER
 62
  256
420
    0
370
    4
100
AcDbLine
 10
23.15939388549263
 20
16.61299193509014
 11
24.21362532360133
 21
15.42370597809472
  0
LINE
  5
BB
100
AcDbEntity
  8
0
  6
BYLAYER
 62
  256
420
    0
370
    4
100
AcDbLine
 10
20.4960645234478
 20
10.82843833689073
 11
21.28760405576626
 21
12.71053907439731
  0
LINE
  5
BC
100
AcDbEntity
  8
0
  6
BYLAYER
 62
  256
420
    0
370
    4
100
AcDbLine
 10
18.67097582646979
 20
9.376402507290097
 11
20.4960645234478
 21
10.82843833689073
  0
LINE
  5
BD
100
AcDbEntity
  8
0
  6
BYLAYER
 62
  256
420
    0
370
    4
100
AcDbLine
 10
16.05555669314204
 20
8.408497735366833
 11
18.67097582646979
 21
9.376402507290097
  0
LINE
  5
BE
100
AcDbEntity
  8
0
  6
BYLAYER
 62
  256
420
    0
370
    4
100
AcDbLine
 10
12.75742658524357
 20
8.061853927031194
 11
16.05555669314204
 21
8.408497735366833
  0
LINE
  5
BF
100
AcDbEntity
  8
0
  6
BYLAYER
 62
  256
420
    0
370
    4
100
AcDbLine
 10
21.81622882325
 20
17.60531564219268
 11
23.15939388549263
 21
16.61299193509014
  0
LINE
  5
C0
100
AcDbEntity
  8
0
  6
BYLAYER
 62
  256
420
    0
370
    4
100
AcDbLine
 10
20.18012475574507
 20
18.4379965748383
 11
21.81622882325
 21
17.60531564219268
  0
LINE
  5
C1
100
AcDbEntity
  8
0
  6
BYLAYER
 62
  256
420
    0
370
    4
100
AcDbLine
 10
18.18683477328267
 20
19.11552442040257
 11
20.18012475574507
 21
18.4379965748383
  0
LINE
  5
C2
100
AcDbEntity
  8
0
  6
BYLAYER
 62
  256
420
    0
370
    4
100
AcDbLine
 10
17.10613372663704
 20
8.797291451461959
 11
16.65543555484799
 21
8.984829185306351
  0
LINE
  5
C3
100
AcDbEntity
  8
0
  6
BYLAYER
 62
  256
420
    0
370
    4
100
AcDbLine
 10
16.65543555484799
 20
8.984829185306351
 11
13.40425065479146
 21
9.421644786794445
  0
LINE
  5
C4
100
AcDbEntity
  8
0
  6
BYLAYER
 62
  256
420
    0
370
    4
100
AcDbLine
 10
13.40425065479146
 20
9.421644786794445
 11
12.39717722901849
 21
9.315798214317056
  0
LINE
  5
C5
100
AcDbEntity
  8
0
  6
BYLAYER
 62
  256
420
    0
370
    4
100
AcDbLine
 10
15.90640250864787
 20
19.57007811307324
 11
18.18683477328267
 21
19.11552442040257
  0
LINE
  5
C6
100
AcDbEntity
  8
0
  6
BYLAYER
 62
  256
420
    0
370
    4
100
AcDbLine
 10
13.45783855502195
 20
19.75089256802072
 11
15.90640250864787
 21
19.57007811307324
  0
LINE
  5
C7
100
AcDbEntity
  8
0
  6
BYLAYER
 62
  256
420
    0
370
    4
100
AcDbLine
 10
-3.985643045405219
 20
20.40571101474709
 11
12.38729140259971
 21
10.37617691277866
  0
LINE
  5
C8
100
AcDbEntity
  8
0
  6
BYLAYER
 62
  256
420
    0
370
    4
100
AcDbLine
 10
12.38729140259971
 20
10.37617691277866
 11
12.45579762068866
 21
3.028027016506593
  0
LINE
  5
C9
100
AcDbEntity
  8
0
  6
BYLAYER
 62
  256
420
    0
370
    4
100
AcDbLine
 10
12.40843050353752
 20
8.108743580497945
 11
12.75742658524357
 21
8.061853927031194
  0
LINE
  5
CA
100
AcDbEntity
  8
0
  6
BYLAYER
 62
  256
420
    0
370
    4
100
AcDbLine
 10
2.394699155633642
 20
16.49731817956139
 11
4.856312385965634
 21
17.83882190582596
  0
LINE
  5
CB
100
AcDbEntity
  8
0
  6
BYLAYER
 62
  256
420
    0
370
    4
100
AcDbLine
 10
4.856312385965634
 20
17.83882190582596
 11
6.589426039307597
 21
18.62511502469134
  0
LINE
  5
CC
100
AcDbEntity
  8
0
  6
BYLAYER
 62
  256
420
    0
370
    4
100
AcDbLine
 10
6.589426039307597
 20
18.62511502469134
 11
8.660558398081868
 21
19.24668339226053
  0
LINE
  5
CD
100
AcDbEntity
  8
0
  6
BYLAYER
 62
  256
420
    0
370
    4
100
AcDbLine
 10
8.660558398081868
 20
19.24668339226053
 11
10.99166027107651
 21
19.63774490263909
  0
LINE
  5
CE
100
AcDbEntity
  8
0
  6
BYLAYER
 62
  256
420
    0
370
    4
100
AcDbLine
 10
10.99166027107651
 20
19.63774490263909
 11
13.45783855502195
 21
19.75089256802072
  0
LINE
  5
CF
100
AcDbEntity
  8
0
  6
BYLAYER
 62
  256
420
    0
370
    4
100
AcDbLine
 10
-5.735696242301454
 20
-0.8190098854082208
 11
-7.73212643215161
 21
-0.4451269131376208
  0
LINE
  5
D0
100
AcDbEntity
  8
0
  6
BYLAYER
 62
  256
420
    0
370
    4
100
AcDbLine
 10
-7.73212643215161
 20
-0.4451269131376208
 11
-9.889375425906223
 21
-1.159830479697128
  0
LINE
  5
D1
100
AcDbEntity
  8
0
  6
BYLAYER
 62
  256
420
    0
370
    4
100
AcDbLine
 10
-9.889375425906223
 20
-1.159830479697128
 11
-18.28931353122584
 21
-5.73753916675933
  0
LINE
  5
D2
100
AcDbEntity
  8
0
  6
BYLAYER
 62
  256
420
    0
370
    4
100
AcDbLine
 10
-18.28931353122584
 20
-5.73753916675933
 11
-25.1113695512279
 21
-1.558566624272487
  0
LINE
  5
D3
100
AcDbEntity
  8
0
  6
BYLAYER
 62
  256
420
    0
370
    4
100
AcDbLine
 10
-25.1113695512279
 20
-1.558566624272487
 11
-23.52134766436484
 21
1.338819095116349
  0
LINE
  5
D4
100
AcDbEntity
  8
0
  6
BYLAYER
 62
  256
420
    0
370
    4
100
AcDbLine
 10
-23.52134766436484
 20
1.338819095116349
 11
-21.48320112379064
 21
4.037293108752634
  0
LINE
  5
D5
100
AcDbEntity
  8
0
  6
BYLAYER
 62
  256
420
    0
370
    4
100
AcDbLine
 10
-21.48320112379064
 20
4.037293108752634
 11
-19.15835932100207
 21
6.287876834282729
  0
LINE
  5
D6
100
AcDbEntity
  8
0
  6
BYLAYER
 62
  256
420
    0
370
    4
100
AcDbLine
 10
-19.15835932100207
 20
6.287876834282729
 11
-16.75710225796759
 21
7.91790866030443
  0
LINE
  5
D7
100
AcDbEntity
  8
0
  6
BYLAYER
 62
  256
420
    0
370
    4
100
AcDbLine
 10
-16.75710225796759
 20
7.91790866030443
 11
-9.445894580232668
 21
11.90229264976354
  0
LINE
  5
D8
100
AcDbEntity
  8
0
  6
BYLAYER
 62
  256
420
    0
370
    4
100
AcDbLine
 10
-14.22133379423411
 20
14.82757342950433
 11
-3.985643045405219
 21
20.40571101474709
  0
LINE
  5
D9
100
AcDbEntity
  8
0
  6
BYLAYER
 62
  256
420
    0
370
    4
100
AcDbLine
 10
-14.0098438244087
 20
-7.857374640717517
 11
-14.05113979630919
 21
-3.427864442927704
  0
LINE
  5
DA
100
AcDbEntity
  8
0
  6
BYLAYER
 62
  256
420
    0
370
    4
100
AcDbLine
 10
-14.17005954123061
 20
9.327767610420734
 11
-14.22133379423411
 21
14.82757342950433
  0
LINE
  5
DB
100
AcDbEntity
  8
0
  6
BYLAYER
 62
  256
420
    0
370
    4
100
AcDbLine
 10
12.45579762068866
 20
3.028027016506593
 11
21.22924683397056
 21
7.809287803857531
  0
LINE
  5
DC
100
AcDbEntity
  8
0
  6
BYLAYER
 62
  256
420
    0
370
    4
100
AcDbLine
 10
21.22924683397056
 20
7.809287803857531
 11
21.3053648540694
 21
-0.3553231920003146
  0
LINE
  5
DD
100
AcDbEntity
  8
0
  6
BYLAYER
 62
  256
420
    0
370
    4
100
AcDbLine
 10
21.3053648540694
 20
-0.3553231920003146
 11
12.5319156407875
 21
-5.136583979351258
  0
LINE
  5
DE
100
AcDbEntity
  8
0
  6
BYLAYER
 62
  256
420
    0
370
    4
100
AcDbLine
 10
12.5319156407875
 20
-5.136583979351258
 11
21.3053648540694
 21
-0.3553231920003146
  0
LINE
  5
DF
100
AcDbEntity
  8
0
  6
BYLAYER
 62
  256
420
    0
370
    4
100
AcDbLine
 10
21.3053648540694
 20
-0.3553231920003146
 11
22.76513839885181
 21
0.5984093036572702
  0
LINE
  5
E0
100
AcDbEntity
  8
0
  6
BYLAYER
 62
  256
420
    0
370
    4
100
AcDbLine
 10
22.76513839885181
 20
0.5984093036572702
 11
23.96003932199589
 21
1.756728923286888
  0
LINE
  5
E1
100
AcDbEntity
  8
0
  6
BYLAYER
 62
  256
420
    0
370
    4
100
AcDbLine
 10
23.96003932199589
 20
1.756728923286888
 11
24.77185092963268
 21
3.078458883819296
  0
LINE
  5
E2
100
AcDbEntity
  8
0
  6
BYLAYER
 62
  256
420
    0
370
    4
100
AcDbLine
 10
24.77185092963268
 20
3.078458883819296
 11
25.1113695512279
 21
4.494329996519275
  0
LINE
  5
E3
100
AcDbEntity
  8
0
  6
BYLAYER
 62
  256
420
    0
370
    4
100
AcDbLine
 10
25.1113695512279
 20
4.494329996519275
 11
24.77185092963268
 21
3.078458883819296
  0
LINE
  5
E4
100
AcDbEntity
  8
0
  6
BYLAYER
 62
  256
420
    0
370
    4
100
AcDbLine
 10
24.77185092963268
 20
3.078458883819296
 11
23.96003932199589
 21
1.756728923286888
  0
LINE
  5
E5
100
AcDbEntity
  8
0
  6
BYLAYER
 62
  256
420
    0
370
    4
100
AcDbLine
 10
23.96003932199589
 20
1.756728923286888
 11
22.76513839885181
 21
0.5984093036572702
  0
LINE
  5
E6
100
AcDbEntity
  8
0
  6
BYLAYER
 62
  256
420
    0
370
    4
100
AcDbLine
 10
22.76513839885181
 20
0.5984093036572702
 11
21.3053648540694
 21
-0.3553231920003146
  0
LINE
  5
E7
100
AcDbEntity
  8
0
  6
BYLAYER
 62
  256
420
    0
370
    4
100
AcDbLine
 10
21.3053648540694
 20
-0.3553231920003146
 11
21.22924683397056
 21
7.809287803857531
  0
LINE
  5
E8
100
AcDbEntity
  8
0
  6
BYLAYER
 62
  256
420
    0
370
    4
100
AcDbLine
 10
21.22924683397056
 20
7.809287803857531
 11
22.68902037918785
 21
8.763020299857175
  0
LINE
  5
E9
100
AcDbEntity
  8
0
  6
BYLAYER
 62
  256
420
    0
370
    4
100
AcDbLine
 10
22.68902037918785
 20
8.763020299857175
 11
23.88392130189705
 21
9.921339919144733
  0
LINE
  5
EA
100
AcDbEntity
  8
0
  6
BYLAYER
 62
  256
420
    0
370
    4
100
AcDbLine
 10
23.88392130189705
 20
9.921339919144733
 11
24.69573290953385
 21
11.24306987967714
  0
LINE
  5
EB
100
AcDbEntity
  8
0
  6
BYLAYER
 62
  256
420
    0
370
    4
100
AcDbLine
 10
24.69573290953385
 20
11.24306987967714
 11
25.03525153112907
 21
12.65894099237712
  0
LINE
  5
EC
100
AcDbEntity
  8
0
  6
BYLAYER
 62
  256
420
    0
370
    4
100
AcDbLine
 10
25.03525153112907
 20
12.65894099237712
 11
24.8658319301318
 21
14.0818192305672
  0
LINE
  5
ED
100
AcDbEntity
  8
0
  6
BYLAYER
 62
  256
420
    0
370
    4
100
AcDbLine
 10
24.8658319301318
 20
14.0818192305672
 11
24.21362532360133
 21
15.42370597809472
  0
LINE
  5
EE
100
AcDbEntity
  8
0
  6
BYLAYER
 62
  256
420
    0
370
    4
100
AcDbLine
 10
24.21362532360133
 20
15.42370597809472
 11
24.8658319301318
 21
14.0818192305672
  0
LINE
  5
EF
100
AcDbEntity
  8
0
  6
BYLAYER
 62
  256
420
    0
370
    4
100
AcDbLine
 10
24.8658319301318
 20
14.0818192305672
 11
25.03525153112907
 21
12.65894099237712
  0
LINE
  5
F0
100
AcDbEntity
  8
0
  6
BYLAYER
 62
  256
420
    0
370
    4
100
AcDbLine
 10
25.03525153112907
 20
12.65894099237712
 11
24.69573290953385
 21
11.24306987967714
  0
LINE
  5
F1
100
AcDbEntity
  8
0
  6
BYLAYER
 62
  256
420
    0
370
    4
100
AcDbLine
 10
24.69573290953385
 20
11.24306987967714
 11
23.88392130189705
 21
9.921339919144733
  0
LINE
  5
F2
100
AcDbEntity
  8
0
  6
BYLAYER
 62
  256
420
    0
370
    4
100
AcDbLine
 10
23.88392130189705
 20
9.921339919144733
 11
22.68902037918785
 21
8.763020299857175
  0
LINE
  5
F3
100
AcDbEntity
  8
0
  6
BYLAYER
 62
  256
420
    0
370
    4
100
AcDbLine
 10
22.68902037918785
 20
8.763020299857175
 11
21.22924683397056
 21
7.809287803857531
  0
LINE
  5
F4
100
AcDbEntity
  8
0
  6
BYLAYER
 62
  256
420
    0
370
    4
100
AcDbLine
 10
21.22924683397056
 20
7.809287803857531
 11
12.45579762068866
 21
3.028027016506593
  0
LINE
  5
F5
100
AcDbEntity
  8
0
  6
BYLAYER
 62
  256
420
    0
370
    4
100
AcDbLine
 10
2.151600653770824
 20
4.798039327535909
 11
2.364731110047561
 21
-18.06287146086608
  0
LINE
  5
F6
100
AcDbEntity
  8
0
  6
BYLAYER
 62
  256
420
    0
370
    4
100
AcDbLine
 10
2.364731110047561
 20
-18.06287146086608
 11
-2.410708103953876
 21
-15.13759068112529
  0
LINE
  5
F7
100
AcDbEntity
  8
0
  6
BYLAYER
 62
  256
420
    0
370
    4
100
AcDbLine
 10
-2.410708103953876
 20
-15.13759068112529
 11
-2.623838560230613
 21
7.723320107276697
  0
LINE
  5
F8
100
AcDbEntity
  8
0
  6
BYLAYER
 62
  256
420
    0
370
    4
100
AcDbLine
 10
-2.623838560230613
 20
7.723320107276697
 11
2.151600653770824
 21
4.798039327535909
  0
LINE
  5
F9
100
AcDbEntity
  8
0
  6
BYLAYER
 62
  256
420
    0
370
    4
100
AcDbLine
 10
-2.410708103953876
 20
-15.13759068112529
 11
-2.623838560230613
 21
7.723320107276697
  0
LINE
  5
FA
100
AcDbEntity
  8
0
  6
BYLAYER
 62
  256
420
    0
370
    4
100
AcDbLine
 10
-2.623838560230613
 20
7.723320107276697
 11
-9.935046237965533
 21
3.738936117817579
  0
LINE
  5
FB
100
AcDbEntity
  8
0
  6
BYLAYER
 62
  256
420
    0
370
    4
100
AcDbLine
 10
-9.935046237965533
 20
3.738936117817579
 11
-16.75710225796759
 21
7.91790866030443
  0
LINE
  5
FC
100
AcDbEntity
  8
0
  6
BYLAYER
 62
  256
420
    0
370
    4
100
AcDbLine
 10
-16.75710225796759
 20
7.91790866030443
 11
-19.15835932100207
 21
6.287876834282729
  0
LINE
  5
FD
100
AcDbEntity
  8
0
  6
BYLAYER
 62
  256
420
    0
370
    4
100
AcDbLine
 10
-19.15835932100207
 20
6.287876834282729
 11
-21.48320112379064
 21
4.037293108752634
  0
LINE
  5
FE
100
AcDbEntity
  8
0
  6
BYLAYER
 62
  256
420
    0
370
    4
100
AcDbLine
 10
-21.48320112379064
 20
4.037293108752634
 11
-19.15835932100207
 21
6.287876834282729
  0
LINE
  5
FF
100
AcDbEntity
  8
0
  6
BYLAYER
 62
  256
420
    0
370
    4
100
AcDbLine
 10
-19.15835932100207
 20
6.287876834282729
 11
-16.75710225796759
 21
7.91790866030443
  0
LINE
  5
100
100
AcDbEntity
  8
0
  6
BYLAYER
 62
  256
420
    0
370
    4
100
AcDbLine
 10
-16.75710225796759
 20
7.91790866030443
 11
-9.445894580232668
 21
11.90229264976354
  0
LINE
  5
101
100
AcDbEntity
  8
0
  6
BYLAYER
 62
  256
420
    0
370
    4
100
AcDbLine
 10
-9.445894580232668
 20
11.90229264976354
 11
-14.22133379423411
 21
14.82757342950433
  0
LINE
  5
102
100
AcDbEntity
  8
0
  6
BYLAYER
 62
  256
420
    0
370
    4
100
AcDbLine
 10
-14.22133379423411
 20
14.82757342950433
 11
-14.17005954123061
 21
9.327767610420732
  0
LINE
  5
103
100
AcDbEntity
  8
0
  6
BYLAYER
 62
  256
420
    0
370
    4
100
AcDbLine
 10
-14.17005954123061
 20
9.327767610420734
 11
-14.22133379423411
 21
14.82757342950433
  0
LINE
  5
104
100
AcDbEntity
  8
0
  6
BYLAYER
 62
  256
420
    0
370
    4
100
AcDbLine
 10
-14.22133379423411
 20
14.82757342950433
 11
-3.985643045405219
 21
20.40571101474709
  0
LINE
  5
105
100
AcDbEntity
  8
0
  6
BYLAYER
 62
  256
420
    0
370
    4
100
AcDbLine
 10
-3.985643045405219
 20
20.40571101474709
 11
-14.22133379423411
 21
14.82757342950433
  0
LINE
  5
106
100
AcDbEntity
  8
0
  6
BYLAYER
 62
  256
420
    0
370
    4
100
AcDbLine
 10
-14.22133379423411
 20
14.82757342950433
 11
-9.445894580232668
 21
11.90229264976354
  0
LINE
  5
107
100
AcDbEntity
  8
0
  6
BYLAYER
 62
  256
420
    0
370
    4
100
AcDbLine
 10
-9.445894580232668
 20
11.90229264976354
 11
-16.75710225796759
 21
7.91790866030443
  0
LINE
  5
108
100
AcDbEntity
  8
0
  6
BYLAYER
 62
  256
420
    0
370
    4
100
AcDbLine
 10
-16.75710225796759
 20
7.91790866030443
 11
-9.935046237965533
 21
3.738936117817579
  0
LINE
  5
109
100
AcDbEntity
  8
0
  6
BYLAYER
 62
  256
420
    0
370
    4
100
AcDbLine
 10
-9.935046237965533
 20
3.738936117817579
 11
-2.623838560230613
 21
7.723320107276697
  0
LINE
  5
10A
100
AcDbEntity
  8
0
  6
BYLAYER
 62
  256
420
    0
370
    4
100
AcDbLine
 10
-2.623838560230613
 20
7.723320107276697
 11
2.151600653770824
 21
4.798039327535909
  0
LINE
  5
10B
100
AcDbEntity
  8
0
  6
BYLAYER
 62
  256
420
    0
370
    4
100
AcDbLine
 10
2.151600653770824
 20
4.798039327535909
 11
2.364731110047561
 21
-18.06287146086608
  0
LINE
  5
10C
100
AcDbEntity
  8
0
  6
BYLAYER
 62
  256
420
    0
370
    4
100
AcDbLine
 10
2.364731110047561
 20
-18.06287146086608
 11
-2.410708103953876
 21
-15.13759068112529
  0
LINE
  5
10D
100
AcDbEntity
  8
0
  6
BYLAYER
 62
  256
420
    0
370
    4
100
AcDbLine
 10
-18.16752469906771
 20
-18.80091676013188
 11
-16.5398269053437
 21
-19.94474392353254
  0
LINE
  5
10E
100
AcDbEntity
  8
0
  6
BYLAYER
 62
  256
420
    0
370
    4
100
AcDbLine
 10
-16.5398269053437
 20
-19.94474392353254
 11
-14.47222514618749
 21
-20.40571101474708
  0
LINE
  5
10F
100
AcDbEntity
  8
0
  6
BYLAYER
 62
  256
420
    0
370
    4
100
AcDbLine
 10
-14.47222514618749
 20
-20.40571101474708
 11
-12.12913570219634
 21
-20.11241535080166
  0
LINE
  5
110
100
AcDbEntity
  8
0
  6
BYLAYER
 62
  256
420
    0
370
    4
100
AcDbLine
 10
-12.12913570219634
 20
-20.11241535080166
 11
-9.721915781688864
 21
-19.12197467058445
  0
LINE
  5
111
100
AcDbEntity
  8
0
  6
BYLAYER
 62
  256
420
    0
370
    4
100
AcDbLine
 10
-9.721915781688864
 20
-19.12197467058445
 11
-2.410708103953876
 21
-15.13759068112529
  0
LINE
  5
112
100
AcDbEntity
  8
0
  6
BYLAYER
 62
  256
420
    0
370
    4
100
AcDbLine
 10
-2.410708103953876
 20
-15.13759068112529
 11
-9.721915781688864
 21
-19.12197467058445
  0
LINE
  5
113
100
AcDbEntity
  8
0
  6
BYLAYER
 62
  256
420
    0
370
    4
100
AcDbLine
 10
-9.721915781688864
 20
-19.12197467058445
 11
-12.12913570219634
 21
-20.11241535080166
  0
LINE
  5
114
100
AcDbEntity
  8
0
  6
BYLAYER
 62
  256
420
    0
370
    4
100
AcDbLine
 10
-12.12913570219634
 20
-20.11241535080166
 11
-14.47222514618749
 21
-20.40571101474708
  0
LINE
  5
115
100
AcDbEntity
  8
0
  6
BYLAYER
 62
  256
420
    0
370
    4
100
AcDbLine
 10
-14.47222514618749
 20
-20.40571101474708
 11
-16.5398269053437
 21
-19.94474392353254
  0
LINE
  5
116
100
AcDbEntity
  8
0
  6
BYLAYER
 62
  256
420
    0
370
    4
100
AcDbLine
 10
-16.5398269053437
 20
-19.94474392353254
 11
-18.16752469906771
 21
-18.80091676013188
  0
LINE
  5
117
100
AcDbEntity
  8
0
  6
BYLAYER
 62
  256
420
    0
370
    4
100
AcDbLine
 10
-16.58964261375015
 20
-10.04423553058285
 11
-24.98958071906978
 21
-14.62194421764505
  0
LINE
  5
118
100
AcDbEntity
  8
0
  6
BYLAYER
 62
  256
420
    0
370
    4
100
AcDbLine
 10
-24.98958071906978
 20
-14.62194421764505
 11
-18.16752469906771
 21
-18.80091676013188
  0
LINE
  5
119
100
AcDbEntity
  8
0
  6
BYLAYER
 62
  256
420
    0
370
    4
100
AcDbLine
 10
-18.16752469906771
 20
-18.80091676013188
 11
-24.98958071906978
 21
-14.62194421764505
  0
LINE
  5
11A
100
AcDbEntity
  8
0
  6
BYLAYER
 62
  256
420
    0
370
    4
100
AcDbLine
 10
-24.98958071906978
 20
-14.62194421764505
 11
-16.58964261375015
 21
-10.04423553058285
  0
DIMENSION
  5
11B
100
AcDbEntity
  8
0
  6
BYLAYER
 62
  256
370
   -1
100
AcDbDimension
 10
6.440534130335301
 20
-3.918569081931796
 30
0
 11
6.440534130335301
 21
-3.918569081931796
 31
0
 70
   33
  1
28.00
 71
    5
  3
STANDARD
 53
0
210
0
220
0
230
1
100
AcDbAlignedDimension
 13
2.364731110047561
 23
-18.06287146086608
 33
0
 14
2.151600653770824
 24
4.798039327535909
 34
0
  0
DIMENSION
  5
11C
100
AcDbEntity
  8
0
  6
BYLAYER
 62
  256
370
   -1
100
AcDbDimension
 10
-1.395995430267359
 20
11.89896867423053
 30
0
 11
-1.395995430267359
 21
11.89896867423053
 31
0
 70
   33
  1
24.00
 71
    5
  3
STANDARD
 53
0
210
0
220
0
230
1
100
AcDbAlignedDimension
 13
2.151600653770824
 23
4.798039327535909
 33
0
 14
-14.22133379423411
 24
14.82757342950433
 34
0
  0
DIMENSION
  5
11D
100
AcDbEntity
  8
0
  6
BYLAYER
 62
  256
370
   -1
100
AcDbDimension
 10
16.64139077480486
 20
1.129633511579232
 30
0
 11
16.64139077480486
 21
1.129633511579232
 31
0
 70
   33
  1
10.00
 71
    5
  3
STANDARD
 53
0
210
0
220
0
230
1
100
AcDbAlignedDimension
 13
21.3053648540694
 23
-0.3553231920003146
 33
0
 14
21.22924683397056
 24
7.809287803857531
 34
0
  0
DIMENSION
  5
11E
100
AcDbEntity
  8
0
  6
BYLAYER
 62
  256
370
   -1
100
AcDbDimension
 10
-10.27225590100517
 20
6.905775251153145
 30
0
 11
-10.27225590100517
 21
6.905775251153145
 31
0
 70
   33
  1
10.00
 71
    5
  3
STANDARD
 53
0
210
0
220
0
230
1
100
AcDbAlignedDimension
 13
-9.445894580232668
 23
11.90229264976354
 33
0
 14
-2.623838560230613
 24
7.723320107276697
 34
0
  0
DIMENSION
  5
11F
100
AcDbEntity
  8
0
  6
BYLAYER
 62
  256
370
   -1
100
AcDbDimension
 10
7.316417176942322
 20
-20.58274440801833
 30
0
 11
7.316417176942322
 21
-20.58274440801833
 31
0
 70
   33
  1
14.00
 71
    5
  3
STANDARD
 53
0
210
0
220
0
230
1
100
AcDbAlignedDimension
 13
2.364731110047561
 23
-18.06287146086608
 33
0
 14
12.60042185887645
 24
-12.48473387562332
 34
0
  0
ENDSEC
  0
SECTION
  2
OBJECTS
  0
DICTIONARY
  5
C
330
0
100
AcDbDictionary
281
    1
  3
ACAD_GROUP
350
D
  0
DICTIONARY
  5
D
330
C
100
AcDbDictionary
281
    1
  0
ENDSEC
  0
EOF
