999
dxfrw 0.6.3
  0
SECTION
  2
HEADER
  9
$ACADVER
  1
AC1021
  9
$DWGCODEPAGE
  3
ANSI_1252
  9
$INSBASE
 10
0
 20
0
 30
0
  9
$EXTMIN
 10
1e+020
 20
1e+020
 30
1e+020
  9
$EXTMAX
 10
-1e+020
 20
-1e+020
 30
-1e+020
  9
$LIMMIN
 10
0
 20
0
  9
$LIMMAX
 10
420
 20
297
  9
$ORTHOMODE
 70
    0
  9
$REGENMODE
 70
    1
  9
$FILLMODE
 70
    1
  9
$QTEXTMODE
 70
    0
  9
$MIRRTEXT
 70
    0
  9
$LTSCALE
 40
1
  9
$ATTMODE
 70
    0
  9
$TEXTSIZE
 40
2.5
  9
$TRACEWID
 40
15.68
  9
$TEXTSTYLE
  7
STANDARD
  9
$CLAYER
  8
0
  9
$CELTYPE
  6
BYLAYER
  9
$CECOLOR
 62
  256
  9
$CELTSCALE
 40
1
  9
$DISPSILH
 70
    0
  9
$DIMSCALE
 40
1
  9
$DIMASZ
 40
2.5
  9
$DIMEXO
 40
0.625
  9
$DIMDLI
 40
3.75
  9
$DIMRND
 40
0
  9
$DIMDLE
 40
0
  9
$DIMEXE
 40
1.25
  9
$DIMTP
 40
0
  9
$DIMTM
 40
0
  9
$DIMTXT
 40
2.5
  9
$DIMCEN
 40
2.5
  9
$DIMTSZ
 40
0
  9
$DIMTOL
 70
    0
  9
$DIMLIM
 70
    0
  9
$DIMTIH
 70
    0
  9
$DIMTOH
 70
    0
  9
$DIMSE1
 70
    0
  9
$DIMSE2
 70
    0
  9
$DIMTAD
 70
    1
  9
$DIMZIN
 70
    8
  9
$DIMBLK
  1

  9
$DIMASO
 70
    1
  9
$DIMSHO
 70
    1
  9
$DIMPOST
  1

  9
$DIMAPOST
  1

  9
$DIMALT
 70
    0
  9
$DIMALTD
 70
    3
  9
$DIMALTF
 40
0.03937
  9
$DIMLFAC
 40
1
  9
$DIMTOFL
 70
    1
  9
$DIMTVP
 40
0
  9
$DIMTIX
 70
    0
  9
$DIMSOXD
 70
    0
  9
$DIMSAH
 70
    0
  9
$DIMBLK1
  1

  9
$DIMBLK2
  1

  9
$DIMSTYLE
  2
STANDARD
  9
$DIMCLRD
 70
    0
  9
$DIMCLRE
 70
    0
  9
$DIMCLRT
 70
    0
  9
$DIMTFAC
 40
1
  9
$DIMGAP
 40
0.625
  9
$DIMJUST
 70
    0
  9
$DIMSD1
 70
    0
  9
$DIMSD2
 70
    0
  9
$DIMTOLJ
 70
    0
  9
$DIMTZIN
 70
    8
  9
$DIMALTZ
 70
    0
  9
$DIMALTTZ
 70
    0
  9
$DIMUPT
 70
    0
  9
$DIMDEC
 70
    2
  9
$DIMTDEC
 70
    2
  9
$DIMALTU
 70
    2
  9
$DIMALTTD
 70
    3
  9
$DIMTXSTY
  7
STANDARD
  9
$DIMAUNIT
 70
    0
  9
$DIMADEC
 70
    0
  9
$DIMALTRND
 40
0
  9
$DIMAZIN
 70
    0
  9
$DIMDSEP
 70
   44
  9
$DIMATFIT
 70
    3
  9
$DIMFRAC
 70
    0
  9
$DIMLDRBLK
  1
STANDARD
  9
$DIMLUNIT
 70
    2
  9
$DIMLWD
 70
   -2
  9
$DIMLWE
 70
   -2
  9
$DIMTMOVE
 70
    0
  9
$DIMFXL
 40
1
  9
$DIMFXLON
 70
    0
  9
$DIMJOGANG
 40
0.7854
  9
$DIMTFILL
 70
    0
  9
$DIMTFILLCLR
 70
    0
  9
$DIMARCSYM
 70
    0
  9
$DIMLTYPE
  6

  9
$DIMLTEX1
  6

  9
$DIMLTEX2
  6

  9
$LUNITS
 70
    2
  9
$LUPREC
 70
    4
  9
$SKETCHINC
 40
1
  9
$FILLETRAD
 40
0
  9
$AUNITS
 70
    0
  9
$AUPREC
 70
    2
  9
$MENU
  1
.
  9
$ELEVATION
 40
0
  9
$PELEVATION
 40
0
  9
$THICKNESS
 40
0
  9
$LIMCHECK
 70
    0
  9
$CHAMFERA
 40
0
  9
$CHAMFERB
 40
0
  9
$CHAMFERC
 40
0
  9
$CHAMFERD
 40
0
  9
$SKPOLY
 70
    0
  9
$USRTIMER
 70
    1
  9
$ANGBASE
 50
0
  9
$ANGDIR
 70
    0
  9
$PDMODE
 70
   34
  9
$PDSIZE
 40
0
  9
$PLINEWID
 40
0
  9
$SPLFRAME
 70
    0
  9
$SPLINETYPE
 70
    2
  9
$SPLINESEGS
 70
    8
  9
$HANDSEED
  5
20000
  9
$SURFTAB1
 70
    6
  9
$SURFTAB2
 70
    6
  9
$SURFTYPE
 70
    6
  9
$SURFU
 70
    6
  9
$SURFV
 70
    6
  9
$UCSBASE
  2

  9
$UCSNAME
  2

  9
$UCSORG
 10
0
 20
0
 30
0
  9
$UCSXDIR
 10
1
 20
0
 30
0
  9
$UCSYDIR
 10
0
 20
1
 30
0
  9
$UCSORTHOREF
  2

  9
$UCSORTHOVIEW
 70
    0
  9
$UCSORGTOP
 10
0
 20
0
 30
0
  9
$UCSORGBOTTOM
 10
0
 20
0
 30
0
  9
$UCSORGLEFT
 10
0
 20
0
 30
0
  9
$UCSORGRIGHT
 10
0
 20
0
 30
0
  9
$UCSORGFRONT
 10
0
 20
0
 30
0
  9
$UCSORGBACK
 10
0
 20
0
 30
0
  9
$PUCSBASE
  2

  9
$PUCSNAME
  2

  9
$PUCSORG
 10
0
 20
0
 30
0
  9
$PUCSXDIR
 10
1
 20
0
 30
0
  9
$PUCSYDIR
 10
0
 20
1
 30
0
  9
$PUCSORTHOREF
  2

  9
$PUCSORTHOVIEW
 70
    0
  9
$PUCSORGTOP
 10
0
 20
0
 30
0
  9
$PUCSORGBOTTOM
 10
0
 20
0
 30
0
  9
$PUCSORGLEFT
 10
0
 20
0
 30
0
  9
$PUCSORGRIGHT
 10
0
 20
0
 30
0
  9
$PUCSORGFRONT
 10
0
 20
0
 30
0
  9
$PUCSORGBACK
 10
0
 20
0
 30
0
  9
$USERI1
 70
    0
  9
$USERI2
 70
    0
  9
$USERI3
 70
    0
  9
$USERI4
 70
    0
  9
$USERI5
 70
    0
  9
$USERR1
 40
0
  9
$USERR2
 40
0
  9
$USERR3
 40
0
  9
$USERR4
 40
0
  9
$USERR5
 40
0
  9
$WORLDVIEW
 70
    1
  9
$SHADEDGE
 70
    3
  9
$SHADEDIF
 70
   70
  9
$TILEMODE
 70
    1
  9
$MAXACTVP
 70
   64
  9
$PINSBASE
 10
0
 20
0
 30
0
  9
$PLIMCHECK
 70
    0
  9
$PEXTMIN
 10
0
 20
0
 30
0
  9
$PEXTMAX
 10
0
 20
0
 30
0
  9
$PLIMMIN
 10
0
 20
0
  9
$PLIMMAX
 10
297
 20
210
  9
$UNITMODE
 70
    0
  9
$VISRETAIN
 70
    1
  9
$PLINEGEN
 70
    0
  9
$PSLTSCALE
 70
    1
  9
$TREEDEPTH
 70
 3020
  9
$CMLSTYLE
  2
Standard
  9
$CMLJUST
 70
    0
  9
$CMLSCALE
 40
20
  9
$PROXYGRAPHICS
 70
    1
  9
$MEASUREMENT
 70
    1
  9
$CELWEIGHT
370
   -1
  9
$ENDCAPS
280
    0
  9
$JOINSTYLE
280
    0
  9
$LWDISPLAY
290
    0
  9
$INSUNITS
 70
    0
  9
$HYPERLINKBASE
  1

  9
$STYLESHEET
  1

  9
$XEDIT
290
    1
  9
$CEPSNTYPE
380
    0
  9
$PSTYLEMODE
290
    1
  9
$EXTNAMES
290
    1
  9
$PSVPSCALE
 40
0
  9
$OLESTARTUP
290
    0
  9
$SORTENTS
280
  127
  9
$INDEXCTL
280
    0
  9
$HIDETEXT
280
    1
  9
$XCLIPFRAME
290
    0
  9
$HALOGAP
280
    0
  9
$OBSCOLOR
 70
  257
  9
$OBSLTYPE
280
    0
  9
$INTERSECTIONDISPLAY
280
    0
  9
$INTERSECTIONCOLOR
 70
  257
  9
$DIMASSOC
280
    1
  9
$PROJECTNAME
  1

  9
$CAMERADISPLAY
290
    0
  9
$LENSLENGTH
 40
50
  9
$CAMERAHEIGHT
 40
0
  9
$STEPSPERSEC
 40
2
  9
$STEPSIZE
 40
50
  9
$3DDWFPREC
 40
2
  9
$PSOLWIDTH
 40
5
  9
$PSOLHEIGHT
 40
80
  9
$LOFTANG1
 40
1.570796326794897
  9
$LOFTANG2
 40
1.570796326794897
  9
$LOFTMAG1
 40
0
  9
$LOFTMAG2
 40
0
  9
$LOFTPARAM
 70
    7
  9
$LOFTNORMALS
280
    1
  9
$LATITUDE
 40
1
  9
$LONGITUDE
 40
1
  9
$NORTHDIRECTION
 40
0
  9
$TIMEZONE
 70
-8000
  9
$LIGHTGLYPHDISPLAY
280
    1
  9
$TILEMODELIGHTSYNCH
280
    1
  9
$SOLIDHIST
280
    1
  9
$SHOWHIST
280
    1
  9
$DWFFRAME
280
    2
  9
$DGNFRAME
280
    0
  9
$REALWORLDSCALE
290
    1
  9
$INTERFERECOLOR
 62
    1
  9
$CSHADOW
280
    0
  9
$SHADOWPLANELOCATION
 40
0
  0
ENDSEC
  0
SECTION
  2
CLASSES
  0
ENDSEC
  0
SECTION
  2
TABLES
  0
TABLE
  2
VPORT
  5
8
330
0
100
AcDbSymbolTable
 70
    1
  0
VPORT
  5
31
330
2
100
AcDbSymbolTableRecord
100
AcDbViewportTableRecord
  2
*ACTIVE
 70
    0
 10
0
 20
0
 11
1
 21
1
 12
0.651828
 22
-0.16
 13
0
 23
0
 14
10
 24
10
 15
10
 25
10
 16
0
 26
0
 36
1
 17
0
 27
0
 37
0
 40
5.13732
 41
2.4426877
 42
50
 43
0
 44
0
 50
0
 51
0
 71
    0
 72
  100
 73
    1
 74
    3
 75
    0
 76
    0
 77
    0
 78
    0
281
    0
 65
    1
110
0
120
0
130
0
111
1
121
0
131
0
112
0
122
1
132
0
 79
    0
146
0
348
10020
 60
    7
 61
    5
292
1
282
    1
141
0
142
0
 63
  250
421
3358443
  0
ENDTAB
  0
TABLE
  2
LTYPE
  5
5
330
0
100
AcDbSymbolTable
 70
    4
  0
LTYPE
  5
14
330
5
100
AcDbSymbolTableRecord
100
AcDbLinetypeTableRecord
  2
ByBlock
 70
    0
  3

 72
   65
 73
    0
 40
0
  0
LTYPE
  5
15
330
5
100
AcDbSymbolTableRecord
100
AcDbLinetypeTableRecord
  2
ByLayer
 70
    0
  3

 72
   65
 73
    0
 40
0
  0
LTYPE
  5
16
330
5
100
AcDbSymbolTableRecord
100
AcDbLinetypeTableRecord
  2
Continuous
 70
    0
  3
Solid line
 72
   65
 73
    0
 40
0
  0
LTYPE
  5
32
330
5
100
AcDbSymbolTableRecord
100
AcDbLinetypeTableRecord
  2
DASHED
 70
    0
  3

 72
   65
 73
    2
 40
2
 49
1
 74
    0
 49
-1
 74
    0
  0
LTYPE
  5
33
330
5
100
AcDbSymbolTableRecord
100
AcDbLinetypeTableRecord
  2
DASHEDX2
 70
    0
  3

 72
   65
 73
    2
 40
3
 49
2
 74
    0
 49
-1
 74
    0
  0
LTYPE
  5
34
330
5
100
AcDbSymbolTableRecord
100
AcDbLinetypeTableRecord
  2
DASHDOT
 70
    0
  3

 72
   65
 73
    4
 40
3
 49
1
 74
    0
 49
-1
 74
    0
 49
0
 74
    0
 49
-1
 74
    0
  0
LTYPE
  5
35
330
5
100
AcDbSymbolTableRecord
100
AcDbLinetypeTableRecord
  2
DIVIDE
 70
    0
  3

 72
   65
 73
    6
 40
4
 49
1
 74
    0
 49
-1
 74
    0
 49
0
 74
    0
 49
-1
 74
    0
 49
0
 74
    0
 49
-1
 74
    0
  0
LTYPE
  5
36
330
5
100
AcDbSymbolTableRecord
100
AcDbLinetypeTableRecord
  2
DOT
 70
    0
  3

 72
   65
 73
    2
 40
1
 49
1
 74
    0
 49
0
 74
    0
  0
ENDTAB
  0
TABLE
  2
LAYER
  5
2
330
0
100
AcDbSymbolTable
 70
    1
  0
LAYER
  5
37
330
2
100
AcDbSymbolTableRecord
100
AcDbLayerTableRecord
  2
dimensions
 70
    0
 62
    7
  6
CONTINUOUS
370
   -3
390
F
  0
LAYER
  5
38
330
2
100
AcDbSymbolTableRecord
100
AcDbLayerTableRecord
  2
text
 70
    0
 62
    7
  6
CONTINUOUS
370
   -3
390
F
  0
LAYER
  5
39
330
2
100
AcDbSymbolTableRecord
100
AcDbLayerTableRecord
  2
s005-#def-solid-edge
 70
    0
 62
    7
  6
CONTINUOUS
370
   -3
390
F
  0
LAYER
  5
3A
330
2
100
AcDbSymbolTableRecord
100
AcDbLayerTableRecord
  2
s00e-#def-invisible
 70
    0
 62
    7
  6
CONTINUOUS
370
   -3
390
F
  0
LAYER
  5
3B
330
2
100
AcDbSymbolTableRecord
100
AcDbLayerTableRecord
  2
s00f-#def-silhouette
 70
    0
 62
    7
  6
CONTINUOUS
370
   -3
390
F
  0
LAYER
  5
10
330
2
100
AcDbSymbolTableRecord
100
AcDbLayerTableRecord
  2
0
 70
    0
 62
    7
  6
CONTINUOUS
370
   -3
390
F
  0
ENDTAB
  0
TABLE
  2
STYLE
  5
3
330
0
100
AcDbSymbolTable
 70
    3
  0
STYLE
  5
3C
330
2
100
AcDbSymbolTableRecord
100
AcDbTextStyleTableRecord
  2
unicode
 70
    0
 40
0
 41
1
 50
0
 71
    0
 42
1
  3
unicode
  4

  0
STYLE
  5
3D
330
2
100
AcDbSymbolTableRecord
100
AcDbTextStyleTableRecord
  2
Standard
 70
    0
 40
0
 41
1
 50
0
 71
    0
 42
1
  3
txt
  4

  0
ENDTAB
  0
TABLE
  2
VIEW
  5
6
330
0
100
AcDbSymbolTable
 70
    0
  0
ENDTAB
  0
TABLE
  2
UCS
  5
7
330
0
100
AcDbSymbolTable
 70
    0
  0
ENDTAB
  0
TABLE
  2
APPID
  5
9
330
0
100
AcDbSymbolTable
 70
    1
  0
APPID
  5
12
330
9
100
AcDbSymbolTableRecord
100
AcDbRegAppTableRecord
  2
ACAD
 70
    0
  0
ENDTAB
  0
TABLE
  2
DIMSTYLE
  5
A
330
0
100
AcDbSymbolTable
 70
    1
100
AcDbDimStyleTable
 71
    1
  0
DIMSTYLE
105
3E
330
A
100
AcDbSymbolTableRecord
100
AcDbDimStyleTableRecord
  2
Standard
 70
    0
 40
1
 41
2.5
 42
0.625
 43
3.75
 44
1.25
 45
0
 46
0
 47
0
 48
0
140
2.5
141
2.5
142
0
143
0.03937007874015748
144
1
145
0
146
1
147
0.625
148
0
 71
    0
 72
    0
 73
    0
 74
    0
 75
    0
 76
    0
 77
    1
 78
    8
 79
    0
170
    0
171
    3
172
    1
173
    0
174
    0
175
    0
176
    0
177
    0
178
    0
179
    0
271
    2
272
    2
273
    2
274
    3
275
    0
276
    0
277
    2
278
   44
279
    0
280
    0
281
    0
282
    0
283
    0
284
    8
285
    0
286
    0
288
    0
289
    3
341

371
   -2
372
   -2
  0
ENDTAB
  0
TABLE
  2
BLOCK_RECORD
  5
1
330
0
100
AcDbSymbolTable
 70
    2
  0
BLOCK_RECORD
  5
1F
330
1
100
AcDbSymbolTableRecord
100
AcDbBlockTableRecord
  2
*Model_Space
 70
    0
280
    1
281
    0
  0
BLOCK_RECORD
  5
1E
330
1
100
AcDbSymbolTableRecord
100
AcDbBlockTableRecord
  2
*Paper_Space
 70
    0
280
    1
281
    0
  0
ENDTAB
  0
ENDSEC
  0
SECTION
  2
BLOCKS
  0
BLOCK
  5
20
330
1F
100
AcDbEntity
  8
0
100
AcDbBlockBegin
  2
*Model_Space
 70
    0
 10
0
 20
0
 30
0
  3
*Model_Space
  1

  0
ENDBLK
  5
21
330
1F
100
AcDbEntity
  8
0
100
AcDbBlockEnd
  0
BLOCK
  5
1C
330
1B
100
AcDbEntity
  8
0
100
AcDbBlockBegin
  2
*Paper_Space
 70
    0
 10
0
 20
0
 30
0
  3
*Paper_Space
  1

  0
ENDBLK
  5
1D
330
1F
100
AcDbEntity
  8
0
100
AcDbBlockEnd
  0
ENDSEC
  0
SECTION
  2
ENTITIES
  0
LWPOLYLINE
  5
3F
100
AcDbEntity
  8
s005-#def-solid-edge
  6
CONTINUOUS
 62
  256
420
    0
370
   53
100
AcDbPolyline
 90
    3
 70
    0
 43
0
 10
163.1403820793194
 20
213.2739877380719
 10
-117.2901636027066
 20
266.8959984259305
 10
-117.9915861557584
 20
156.9887490483983
  0
LWPOLYLINE
  5
40
100
AcDbEntity
  8
s00e-#def-invisible
  6
DASHED
 62
  256
420
    0
370
   53
100
AcDbPolyline
 90
    4
 70
    0
 43
0
 10
163.1403820793194
 20
213.2739877380719
 10
161.6176202079525
 20
-25.33049968641372
 10
-118.8129254740734
 20
28.29151100144497
 10
-117.9915861557584
 20
156.9887490483983
  0
LWPOLYLINE
  5
41
100
AcDbEntity
  8
s00e-#def-invisible
  6
DASHED
 62
  256
420
    0
370
   53
100
AcDbPolyline
 90
    4
 70
    0
 43
0
 10
-127.81549149336
 20
278.3716181349752
 10
-129.3382533647268
 20
39.76713071048958
 10
-129.453178788981
 20
21.75924486713224
 10
-257.6292125068727
 20
-107.9793384091744
  0
LWPOLYLINE
  5
42
100
AcDbEntity
  8
s005-#def-solid-edge
  6
CONTINUOUS
 62
  256
420
    0
370
   53
100
AcDbPolyline
 90
    3
 70
    0
 43
0
 10
-142.6431836752568
 20
211.7128354663429
 10
-143.5051243571625
 20
76.65369164116243
 10
-161.8940125986068
 20
80.16988906331706
  0
LWPOLYLINE
  5
43
100
AcDbEntity
  8
s00e-#def-invisible
  6
DASHED
 62
  256
420
    0
370
   53
100
AcDbPolyline
 90
    4
 70
    0
 43
0
 10
-142.6431836752568
 20
211.7128354663429
 10
-161.0320719167011
 20
215.2290328884976
 10
-223.1541986879493
 20
152.3495968220668
 10
-204.7653104465049
 20
148.8333993999121
  0
LWPOLYLINE
  5
44
100
AcDbEntity
  8
s00e-#def-invisible
  6
DASHED
 62
  256
420
    0
370
   53
100
AcDbPolyline
 90
    3
 70
    0
 43
0
 10
-65.12619646143303
 20
94.30142526447956
 10
-65.61238971792366
 20
18.1188684671659
 10
-84.34188770373595
 20
-0.8389543306894879
  0
LWPOLYLINE
  5
45
100
AcDbEntity
  8
s00e-#def-invisible
  6
DASHED
 62
  256
420
    0
370
   53
100
AcDbPolyline
 90
    3
 70
    0
 43
0
 10
-117.1932581514105
 20
157.79680919248
 10
-118.02072120604
 20
28.1400311203067
 10
-141.6114022584127
 20
4.261764259636749
  0
LWPOLYLINE
  5
46
100
AcDbEntity
  8
s005-#def-solid-edge
  6
CONTINUOUS
 62
  256
420
    0
370
   53
100
AcDbPolyline
 90
    3
 70
    0
 43
0
 10
-140.7839392038225
 20
133.9185423317703
 10
-88.37560771561417
 20
123.8973796786119
 10
-64.78492666320213
 20
147.7756465393216
  0
LWPOLYLINE
  5
47
100
AcDbEntity
  8
s00e-#def-invisible
  6
DASHED
 62
  256
420
    0
370
   53
100
AcDbPolyline
 90
    3
 70
    0
 43
0
 10
-223.1541986879493
 20
152.3495968220668
 10
-224.016139369855
 20
17.29045299688624
 10
-205.6272511284106
 20
13.77425557473156
  0
LWPOLYLINE
  5
48
100
AcDbEntity
  8
s00e-#def-invisible
  6
DASHED
 62
  256
420
    0
370
   53
100
AcDbPolyline
 90
    3
 70
    0
 43
0
 10
-229.7390766190165
 20
153.0762597234039
 10
-231.2618384903834
 20
-85.52822770108172
 10
-184.8418828375693
 20
-38.54238247357085
  0
LWPOLYLINE
  5
49
100
AcDbEntity
  8
s005-#def-solid-edge
  6
CONTINUOUS
 62
  256
420
    0
370
   53
100
AcDbPolyline
 90
    4
 70
    0
 43
0
 10
-255.9915252112518
 20
148.6330348586686
 10
-218.2782290634716
 20
141.4217563433685
 10
-219.4449172826521
 20
-41.38886543288268
 10
-211.5813569318611
 20
-33.42944314599269
  0
LWPOLYLINE
  5
4A
100
AcDbEntity
  8
s00e-#def-invisible
  6
DASHED
 62
  256
420
    0
370
   53
100
AcDbPolyline
 90
    5
 70
    0
 43
0
 10
-61.09554624830206
 20
213.9234742949635
 10
-61.29666574074674
 20
182.409674069088
 10
-62.08302177582583
 20
181.613731840399
 10
-71.51929419677491
 20
172.062425096131
 10
-72.305650231854
 20
171.266482867442
  0
LWPOLYLINE
  5
4B
100
AcDbEntity
  8
s005-#def-solid-edge
  6
CONTINUOUS
 62
  256
420
    0
370
   53
100
AcDbPolyline
 90
    5
 70
    0
 43
0
 10
-5.928881523877146
 20
203.3748820284819
 10
-6.715237559048171
 20
202.5789397998104
 10
-16.15150997999726
 20
193.0276330555425
 10
-16.93786601507635
 20
192.2316908268535
 10
-72.10453073940933
 20
202.7802830933175
  0
LWPOLYLINE
  5
4C
100
AcDbEntity
  8
s00e-#def-invisible
  6
DASHED
 62
  256
420
    0
370
   53
100
AcDbPolyline
 90
    5
 70
    0
 43
0
 10
-61.8377254650308
 20
97.62998486991612
 10
-62.29168089083451
 20
26.49883578865438
 10
-63.07803692591359
 20
25.70289355996538
 10
-63.13549963804065
 20
16.69895063828668
 10
-84.36711258517609
 20
-4.791489536316256
  0
LWPOLYLINE
  5
4D
100
AcDbEntity
  8
s005-#def-solid-edge
  6
CONTINUOUS
 62
  256
420
    0
370
   53
100
AcDbPolyline
 90
    5
 70
    0
 43
0
 10
-6.671060740697825
 20
87.08139260345212
 10
-7.457416775776912
 20
86.28545037476312
 10
-28.6890297229124
 20
64.79501020016018
 10
-29.47538575799148
 20
63.99906797147119
 10
-84.64205048232442
 20
74.54766023793519
  0
LWPOLYLINE
  5
4E
100
AcDbEntity
  8
s00e-#def-invisible
  6
DASHED
 62
  256
420
    0
370
   53
100
AcDbPolyline
 90
    3
 70
    0
 43
0
 10
-6.714216420498846
 20
80.31924610372717
 10
-7.125016166501531
 20
15.95024352219037
 10
-62.29168089083451
 20
26.49883578865438
  0
LWPOLYLINE
  5
4F
100
AcDbEntity
  8
s00e-#def-invisible
  6
DASHED
 62
  256
420
    0
370
   53
100
AcDbPolyline
 90
    5
 70
    0
 43
0
 10
-82.4767929518097
 20
2.915683171543701
 10
-82.47076104890462
 20
3.860833643146972
 10
-61.23914810176916
 20
25.35127381774992
 10
-61.29661081389622
 20
16.34733089607121
 10
-63.13549963804065
 20
16.69895063828668
  0
LWPOLYLINE
  5
50
100
AcDbEntity
  8
s00e-#def-invisible
  6
DASHED
 62
  256
420
    0
370
   53
100
AcDbPolyline
 90
    3
 70
    0
 43
0
 10
-82.47076104890462
 20
3.860833643146972
 10
-84.30964987304904
 20
4.212453385362448
 10
-84.31568177595412
 20
3.267302913759164
  0
LWPOLYLINE
  5
51
100
AcDbEntity
  8
s00e-#def-invisible
  6
DASHED
 62
  256
420
    0
370
   53
100
AcDbPolyline
 90
    5
 70
    0
 43
0
 10
-29.1429851487161
 20
-6.336138881101562
 10
-30.98187397286053
 20
-5.984519138886096
 10
-9.750261025725052
 20
15.50592103571684
 10
-7.911372201580619
 20
15.15430129350137
 10
-7.125016166501531
 20
15.95024352219037
  0
LWPOLYLINE
  5
52
100
AcDbEntity
  8
s00e-#def-invisible
  6
DASHED
 62
  256
420
    0
370
   53
100
AcDbPolyline
 90
    4
 70
    0
 43
0
 10
70.70301957340324
 20
-139.4826668963391
 10
52.31413133195892
 20
-135.9664694741844
 10
49.16870719164254
 20
-139.1502383889404
 10
49.52478084382893
 20
-83.35637274070604
  0
LWPOLYLINE
  5
53
100
AcDbEntity
  8
s005-#def-solid-edge
  6
CONTINUOUS
 62
  256
420
    0
370
   53
100
AcDbPolyline
 90
    4
 70
    0
 43
0
 10
-219.4449172826521
 20
-41.38886543288268
 10
60.05010873448234
 20
-94.83199244975072
 10
59.69403508229595
 20
-150.6258580979851
 10
59.57910965804186
 20
-168.6337439413425
  0
LWPOLYLINE
  5
54
100
AcDbEntity
  8
s00e-#def-invisible
  6
DASHED
 62
  256
420
    0
370
   53
100
AcDbPolyline
 90
    4
 70
    0
 43
0
 10
-31.03933668498758
 20
-14.9884620605648
 10
-9.807723737852104
 20
6.501978114038138
 10
-7.968834913707671
 20
6.150358371822669
 10
-7.911372201580619
 20
15.15430129350137
  0
LWPOLYLINE
  5
55
100
AcDbEntity
  8
s00e-#def-invisible
  6
DASHED
 62
  256
420
    0
370
   53
100
AcDbPolyline
 90
    9
 70
    0
 43
0
 10
24.15813207721585
 20
72.84599510431843
 10
23.62224819062885
 20
74.15149476352966
 10
21.94112861798254
 20
75.26316337271885
 10
19.60985166380515
 20
75.95809020904173
 10
16.8644892606824
 20
76.23388362437153
 10
13.87006751012372
 20
76.01624004442678
 10
11.33480220988631
 20
75.29798452482743
 10
9.765183441716991
 20
74.29188088476596
 10
9.163900987285222
 20
73.10061859833979
  0
LWPOLYLINE
  5
56
100
AcDbEntity
  8
s00e-#def-invisible
  6
DASHED
 62
  256
420
    0
370
   53
100
AcDbPolyline
 90
    6
 70
    0
 43
0
 10
45.4078789312623
 20
72.61574872606001
 10
48.49400321415801
 20
72.02564115101312
 10
48.01131643215953
 20
-3.607479391110189
 10
29.13877159035329
 20
-22.71009287966372
 10
29.62145837212859
 20
52.92302766245496
 10
26.53533408932481
 20
53.51313523748426
  0
LWPOLYLINE
  5
57
100
AcDbEntity
  8
s00e-#def-invisible
  6
DASHED
 62
  256
420
    0
370
   53
100
AcDbPolyline
 90
    9
 70
    0
 43
0
 10
4.388126147546337
 20
66.71049326949731
 10
3.709339891202819
 20
68.36412617116483
 10
1.579921765850819
 20
69.77223974280452
 10
-1.373029042773856
 20
70.65248040214681
 10
-4.850488086729354
 20
71.00181872823123
 10
-8.6434223041037
 20
70.72613686030118
 10
-11.85475835107112
 20
69.8163465354753
 10
-13.84294212408557
 20
68.54194859139753
 10
-14.60456656634542
 20
67.03301636225089
  0
LWPOLYLINE
  5
58
100
AcDbEntity
  8
s00e-#def-invisible
  6
DASHED
 62
  256
420
    0
370
   53
100
AcDbPolyline
 90
    3
 70
    0
 43
0
 10
-4.833772686161773
 20
82.22261367523944
 10
-5.316459468029006
 20
6.589493133138348
 10
-24.18900430992718
 20
-12.5131203553976
  0
LWPOLYLINE
  5
59
100
AcDbEntity
  8
s005-#def-solid-edge
  6
CONTINUOUS
 62
  256
420
    0
370
   53
100
AcDbPolyline
 90
    9
 70
    0
 43
0
 10
4.399618689971779
 20
68.511281853833
 10
3.637994247711924
 20
67.00234962468633
 10
1.649810474697472
 20
65.72795168060858
 10
-1.561525572269988
 20
64.81816135578265
 10
-5.354459789644319
 20
64.54247948785266
 10
-8.831918833599806
 20
64.89181781393705
 10
-11.78486964222447
 20
65.7720584732794
 10
-13.91428776757648
 20
67.18017204491906
 10
-14.59307402392001
 20
68.83380494658658
  0
LWPOLYLINE
  5
5A
100
AcDbEntity
  8
s005-#def-solid-edge
  6
CONTINUOUS
 62
  256
420
    0
370
   53
100
AcDbPolyline
 90
    9
 70
    0
 43
0
 10
-14.60456656634542
 20
67.03301636225089
 10
-13.9257803100019
 20
65.37938346058334
 10
-11.79636218464988
 20
63.97126988894365
 10
-8.843411376025225
 20
63.09102922960136
 10
-5.365952332069754
 20
62.74169090351694
 10
-1.57301811469542
 20
63.01737277144689
 10
1.638317932272062
 20
63.92716309627291
 10
3.626501705286514
 20
65.2015610403506
 10
4.388126147546337
 20
66.71049326949731
  0
LWPOLYLINE
  5
5B
100
AcDbEntity
  8
s005-#def-solid-edge
  6
CONTINUOUS
 62
  256
420
    0
370
   53
100
AcDbPolyline
 90
    9
 70
    0
 43
0
 10
24.16962461964131
 20
74.64678368865415
 10
23.56834216522564
 20
73.45552140248572
 10
21.9987233970563
 20
72.44941776242436
 10
19.46345809681884
 20
71.73116224282492
 10
16.46903634626018
 20
71.51351866288024
 10
13.72367394313743
 20
71.78931207821002
 10
11.39239698896002
 20
72.48423891453285
 10
9.711277416313703
 20
73.59590752372209
 10
9.175393529726781
 20
74.90140718293333
  0
LWPOLYLINE
  5
5C
100
AcDbEntity
  8
s005-#def-solid-edge
  6
CONTINUOUS
 62
  256
420
    0
370
   53
100
AcDbPolyline
 90
    9
 70
    0
 43
0
 10
9.163900987285222
 20
73.10061859833979
 10
9.699784873888321
 20
71.79511893938633
 10
11.38090444653461
 20
70.6834503301971
 10
13.71218140071202
 20
69.98852349387427
 10
16.45754380442756
 20
69.71273007853438
 10
19.4519655543934
 20
69.9303736584892
 10
21.98723085463089
 20
70.64862917808864
 10
23.55684962280019
 20
71.65473281815
 10
24.15813207721585
 20
72.84599510431843
  0
LWPOLYLINE
  5
5D
100
AcDbEntity
  8
s00e-#def-invisible
  6
DASHED
 62
  256
420
    0
370
   53
100
AcDbPolyline
 90
    9
 70
    0
 43
0
 10
32.86735602721478
 20
61.61321918235731
 10
32.04566740111472
 20
63.61498532648119
 10
29.46795072305707
 20
65.31954386057137
 10
25.89332605998507
 20
66.38509834293308
 10
21.68377037519688
 20
66.80798157977212
 10
17.09232369100689
 20
66.47426142385682
 10
13.2049168973094
 20
65.3729362938044
 10
10.79816811944981
 20
63.83024404571027
 10
9.876201689345793
 20
62.00364187358538
  0
LWPOLYLINE
  5
5E
100
AcDbEntity
  8
s005-#def-solid-edge
  6
CONTINUOUS
 62
  256
420
    0
370
   53
100
AcDbPolyline
 90
    9
 70
    0
 43
0
 10
9.876201689345793
 20
62.00364187358538
 10
10.69789031544587
 20
60.00187572946153
 10
13.27560699350353
 20
58.29731719537135
 10
16.85023165657553
 20
57.2317627130096
 10
21.05978734227272
 20
56.80887947615516
 10
25.65123402555381
 20
57.14259963208588
 10
29.53864081925114
 20
58.2439247621383
 10
31.94538959711078
 20
59.78661701023239
 10
32.86735602721478
 20
61.61321918235731
  0
LWPOLYLINE
  5
5F
100
AcDbEntity
  8
s005-#def-solid-edge
  6
CONTINUOUS
 62
  256
420
    0
370
   53
100
AcDbPolyline
 90
    9
 70
    0
 43
0
 10
32.87884856964018
 20
63.41400776669305
 10
31.95688213953619
 20
61.58740559456814
 10
29.55013336167655
 20
60.04471334647404
 10
25.66272656797917
 20
58.9433882164216
 10
21.07127988378912
 20
58.60966806050634
 10
16.86172419900094
 20
59.03255129734534
 10
13.28709953592894
 20
60.09810577970708
 10
10.70938285787128
 20
61.80266431379727
 10
9.887694231771205
 20
63.80443045792111
  0
LWPOLYLINE
  5
60
100
AcDbEntity
  8
s00e-#def-invisible
  6
DASHED
 62
  256
420
    0
370
   53
100
AcDbPolyline
 90
    4
 70
    0
 43
0
 10
49.89565478540229
 20
192.70049605765
 10
49.55087851263998
 20
138.6768385275778
 10
48.7645224775609
 20
137.8808962988888
 10
39.3282500566118
 20
128.3295895546208
  0
LWPOLYLINE
  5
61
100
AcDbEntity
  8
s005-#def-solid-edge
  6
CONTINUOUS
 62
  256
420
    0
370
   53
100
AcDbPolyline
 90
    5
 70
    0
 43
0
 10
105.0623195097353
 20
182.151903791186
 10
104.2759634746562
 20
181.355961562497
 10
94.8396910537071
 20
171.804654818229
 10
94.05333501862801
 20
171.00871258954
 10
38.88667029429499
 20
181.557304856004
  0
LWPOLYLINE
  5
62
100
AcDbEntity
  8
s00e-#def-invisible
  6
DASHED
 62
  256
420
    0
370
   53
100
AcDbPolyline
 90
    5
 70
    0
 43
0
 10
50.66865334426433
 20
147.752177731198
 10
50.93669503204222
 20
189.7521455024098
 10
41.50042261109314
 20
180.2008387581419
 10
41.31079566107386
 20
150.4878271166021
 10
41.30476375816935
 20
149.5426766450889
  0
LWPOLYLINE
  5
63
100
AcDbEntity
  8
s005-#def-solid-edge
  6
CONTINUOUS
 62
  256
420
    0
370
   53
100
AcDbPolyline
 90
    3
 70
    0
 43
0
 10
50.66865334426433
 20
147.752177731198
 10
50.61490384413073
 20
139.3300651410091
 10
92.73990133407985
 20
131.2752112728669
  0
LWPOLYLINE
  5
64
100
AcDbEntity
  8
s00e-#def-invisible
  6
DASHED
 62
  256
420
    0
370
   53
100
AcDbPolyline
 90
    4
 70
    0
 43
0
 10
92.73990133407985
 20
131.2752112728669
 10
102.1037909201748
 20
129.484712358976
 10
102.4255821080864
 20
179.9067927203767
 10
50.93669503204222
 20
189.7521455024098
  0
LWPOLYLINE
  5
65
100
AcDbEntity
  8
s005-#def-solid-edge
  6
CONTINUOUS
 62
  256
420
    0
370
   53
100
AcDbPolyline
 90
    3
 70
    0
 43
0
 10
41.30476375816935
 20
149.5426766450889
 10
41.17863142318164
 20
129.7787583967411
 10
50.61490384413073
 20
139.3300651410091
  0
LWPOLYLINE
  5
66
100
AcDbEntity
  8
s00e-#def-invisible
  6
DASHED
 62
  256
420
    0
370
   53
100
AcDbPolyline
 90
    3
 70
    0
 43
0
 10
39.46587493402492
 20
149.8942963873043
 10
39.47190683692943
 20
150.8394468588176
 10
38.68555080185031
 20
150.0435046301286
  0
LWPOLYLINE
  5
67
100
AcDbEntity
  8
s005-#def-solid-edge
  6
CONTINUOUS
 62
  256
420
    0
370
   53
100
AcDbPolyline
 90
    4
 70
    0
 43
0
 10
115.3657643424167
 20
-16.71274465477097
 10
133.754652583861
 20
-20.22894207692564
 10
134.9213408030415
 20
162.5816796993258
 10
189.3928306715546
 20
217.7172126028072
  0
LWPOLYLINE
  5
68
100
AcDbEntity
  8
s00e-#def-invisible
  6
DASHED
 62
  256
420
    0
370
   53
100
AcDbPolyline
 90
    4
 70
    0
 43
0
 10
92.79365083421348
 20
139.6973238630558
 10
92.79968273711799
 20
140.6424743345691
 10
92.98930968713725
 20
170.3554859761088
 10
102.4255821080864
 20
179.9067927203767
  0
LWPOLYLINE
  5
69
100
AcDbEntity
  8
s00e-#def-invisible
  6
DASHED
 62
  256
420
    0
370
   53
100
AcDbPolyline
 90
    4
 70
    0
 43
0
 10
39.47190683692943
 20
150.8394468588176
 10
41.31079566107386
 20
150.4878271166021
 10
92.79968273711799
 20
140.6424743345691
 10
94.63857156126241
 20
140.2908545923536
  0
LWPOLYLINE
  5
6A
100
AcDbEntity
  8
s00e-#def-invisible
  6
DASHED
 62
  256
420
    0
370
   53
100
AcDbPolyline
 90
    6
 70
    0
 43
0
 10
104.3101506847036
 20
64.29312342111123
 10
103.8661848672028
 20
-5.272734715123075
 10
48.69952014286987
 20
5.275857551340931
 10
47.91316410779078
 20
4.47991532265193
 10
47.85570139566372
 20
-4.524027599026773
 10
26.62408844852828
 20
-26.0144677736297
  0
LWPOLYLINE
  5
6B
100
AcDbEntity
  8
s005-#def-solid-edge
  6
CONTINUOUS
 62
  256
420
    0
370
   53
100
AcDbPolyline
 90
    5
 70
    0
 43
0
 10
104.3201402930066
 20
65.85841436613868
 10
103.5337842579275
 20
65.06247213744967
 10
82.30217131079201
 20
43.57203196284674
 10
81.51581527571291
 20
42.77608973415774
 10
26.34915055137996
 20
53.32468200062176
  0
LWPOLYLINE
  5
6C
100
AcDbEntity
  8
s00e-#def-invisible
  6
DASHED
 62
  256
420
    0
370
   53
100
AcDbPolyline
 90
    3
 70
    0
 43
0
 10
25.89519512557624
 20
-17.80646708064
 10
26.68155116065533
 20
-17.010524851951
 10
26.67551925775022
 20
-17.95567532355429
  0
LWPOLYLINE
  5
6D
100
AcDbEntity
  8
s00e-#def-invisible
  6
DASHED
 62
  256
420
    0
370
   53
100
AcDbPolyline
 90
    5
 70
    0
 43
0
 10
83.08307046528522
 20
-36.81016811278219
 10
104.3146834124207
 20
-15.31972793817923
 10
104.3721461245477
 20
-6.315785016500534
 10
105.1585021596268
 20
-5.519842787811534
 10
105.6124575854305
 20
65.61130629345021
  0
LWPOLYLINE
  5
6E
100
AcDbEntity
  8
s00e-#def-invisible
  6
DASHED
 62
  256
420
    0
370
   53
100
AcDbPolyline
 90
    5
 70
    0
 43
0
 10
103.8661848672028
 20
-5.272734715123075
 10
103.0798288321238
 20
-6.068676943812076
 10
101.2409400079793
 20
-5.717057201596607
 10
80.00932706084386
 20
-27.20749737619954
 10
80.00329515793877
 20
-28.15264784780283
  0
LWPOLYLINE
  5
6F
100
AcDbEntity
  8
s00e-#def-invisible
  6
DASHED
 62
  256
420
    0
370
   53
100
AcDbPolyline
 90
    7
 70
    0
 43
0
 10
105.1585021596268
 20
-5.519842787811534
 10
160.3251668839598
 20
-16.06843505427554
 10
160.7791223097635
 20
55.06271402698621
 10
159.9927662746844
 20
54.26677179829721
 10
138.761153327549
 20
32.77633162369425
 10
137.9747972925618
 20
31.98038939498768
 10
115.7036991876405
 20
36.23891643136318
  0
LWPOLYLINE
  5
70
100
AcDbEntity
  8
s00e-#def-invisible
  6
DASHED
 62
  256
420
    0
370
   53
100
AcDbPolyline
 90
    7
 70
    0
 43
0
 10
160.3251668839598
 20
-16.06843505427554
 10
159.5388108488807
 20
-16.86437728296454
 10
159.4813481367537
 20
-25.86832020464324
 10
138.2497351896182
 20
-47.35876037924619
 10
138.3071979017452
 20
-38.3548174575675
 10
137.5208418666662
 20
-39.15075968625649
 10
100.2406064648575
 20
-32.02228808458204
  0
LWPOLYLINE
  5
71
100
AcDbEntity
  8
s00e-#def-invisible
  6
DASHED
 62
  256
420
    0
370
   53
100
AcDbPolyline
 90
    3
 70
    0
 43
0
 10
82.35417714233317
 20
-28.60216741979248
 10
83.14053317741227
 20
-27.80622519110348
 10
83.13450127450717
 20
-28.75137566270677
  0
LWPOLYLINE
  5
72
100
AcDbEntity
  8
s00e-#def-invisible
  6
DASHED
 62
  256
420
    0
370
   53
100
AcDbPolyline
 90
    3
 70
    0
 43
0
 10
35.1678145124199
 20
-19.57951393144505
 10
49.69459021980816
 20
-4.875647341242235
 10
47.85570139566372
 20
-4.524027599026773
  0
LWPOLYLINE
  5
73
100
AcDbEntity
  8
s00e-#def-invisible
  6
DASHED
 62
  256
420
    0
370
   53
100
AcDbPolyline
 90
    4
 70
    0
 43
0
 10
26.68155116065533
 20
-17.010524851951
 10
28.52043998479976
 20
-17.36214459416647
 10
49.75205293193521
 20
4.128295580436468
 10
47.91316410779078
 20
4.47991532265193
  0
LWPOLYLINE
  5
74
100
AcDbEntity
  8
s00e-#def-invisible
  6
DASHED
 62
  256
420
    0
370
   53
100
AcDbPolyline
 90
    3
 70
    0
 43
0
 10
79.9518643487168
 20
-36.21144029787824
 10
101.1834772958523
 20
-14.72100012327531
 10
101.2409400079793
 20
-5.717057201596607
  0
LWPOLYLINE
  5
75
100
AcDbEntity
  8
s00e-#def-invisible
  6
DASHED
 62
  256
420
    0
370
   53
100
AcDbPolyline
 90
    3
 70
    0
 43
0
 10
83.09306007358812
 20
-35.24487716775477
 10
103.0223661199967
 20
-15.07261986549078
 10
103.0798288321238
 20
-6.068676943812076
  0
LWPOLYLINE
  5
76
100
AcDbEntity
  8
s00e-#def-invisible
  6
DASHED
 62
  256
420
    0
370
   53
100
AcDbPolyline
 90
    4
 70
    0
 43
0
 10
83.14053317741227
 20
-27.80622519110348
 10
84.9794220015567
 20
-28.15784493331895
 10
106.2110349486922
 20
-6.667404758716
 10
104.3721461245477
 20
-6.315785016500534
  0
LWPOLYLINE
  5
77
100
AcDbEntity
  8
s00e-#def-invisible
  6
DASHED
 62
  256
420
    0
370
   53
100
AcDbPolyline
 90
    3
 70
    0
 43
0
 10
91.62679652917683
 20
-30.37521427059754
 10
106.1535722365651
 20
-15.6713476803947
 10
104.3146834124207
 20
-15.31972793817923
  0
LWPOLYLINE
  5
78
100
AcDbEntity
  8
s00e-#def-invisible
  6
DASHED
 62
  256
420
    0
370
   53
100
AcDbPolyline
 90
    6
 70
    0
 43
0
 10
159.4813481367537
 20
-25.86832020464324
 10
157.6424593126092
 20
-25.51670046242777
 10
136.4108463654738
 20
-47.00714063703072
 10
136.4683090776008
 20
-38.00319771535202
 10
157.6999220247363
 20
-16.51275754074907
 10
159.5388108488807
 20
-16.86437728296454
  0
LWPOLYLINE
  5
79
100
AcDbEntity
  8
s005-#def-solid-edge
  6
CONTINUOUS
 62
  256
420
    0
370
   53
100
AcDbPolyline
 90
    4
 70
    0
 43
0
 10
79.83659255972709
 20
-108.1084914700695
 10
98.2254808011714
 20
-111.6246888922242
 10
98.5815544533578
 20
-55.83082324398981
 10
133.754652583861
 20
-20.22894207692564
  0
LWPOLYLINE
  5
7A
100
AcDbEntity
  8
s00f-#def-silhouette
  6
CONTINUOUS
 62
  256
420
    0
370
  106
100
AcDbPolyline
 90
    5
 70
    0
 43
0
 10
163.1403820793194
 20
213.2739877380719
 10
116.5324525615971
 20
166.0978771214803
 10
115.3657643424167
 20
-16.71274465477097
 10
80.19266621191351
 20
-52.31462582183515
 10
79.83659255972709
 20
-108.1084914700695
  0
LWPOLYLINE
  5
7B
100
AcDbEntity
  8
s00f-#def-silhouette
  6
CONTINUOUS
 62
  256
420
    0
370
  106
100
AcDbPolyline
 90
   13
 70
    0
 43
0
 10
39.46587493402492
 20
149.8942963873043
 10
39.3282500566118
 20
128.3295895546208
 10
94.49491478094475
 20
117.7809972881568
 10
103.9311872018939
 20
127.3323040324248
 10
104.7175432370649
 20
128.1282462610962
 10
105.0623195097353
 20
182.151903791186
 10
49.89565478540229
 20
192.70049605765
 10
49.10929875032321
 20
191.904553828961
 10
39.67302632937408
 20
182.353247084693
 10
38.88667029429499
 20
181.557304856004
 10
38.68555080185031
 20
150.0435046301286
 10
93.85221552618333
 20
139.4949123636646
 10
94.63857156126241
 20
140.2908545923536
  0
LWPOLYLINE
  5
7C
100
AcDbEntity
  8
s00f-#def-silhouette
  6
CONTINUOUS
 62
  256
420
    0
370
  106
100
AcDbPolyline
 90
    5
 70
    0
 43
0
 10
17.28092502720214
 20
77.99399245194343
 10
-4.833772686161773
 20
82.22261367523944
 10
-23.70631752805995
 20
63.1200001867035
 10
-24.18900430992718
 20
-12.5131203553976
 10
26.64821606014631
 20
-22.23386588757673
  0
LWPOLYLINE
  5
7D
100
AcDbEntity
  8
s00f-#def-silhouette
  6
CONTINUOUS
 62
  256
420
    0
370
  106
100
AcDbPolyline
 90
    7
 70
    0
 43
0
 10
115.8786243718713
 20
63.64828010524724
 10
105.6124575854305
 20
65.61130629345021
 10
104.8261015503514
 20
64.81536406476121
 10
83.59448860321598
 20
43.32492389015826
 10
82.80813256813688
 20
42.52898166146926
 10
82.35417714233317
 20
-28.60216741979248
 10
100.2406064648575
 20
-32.02228808458204
  0
LWPOLYLINE
  5
7E
100
AcDbEntity
  8
s00f-#def-silhouette
  6
CONTINUOUS
 62
  256
420
    0
370
  106
100
AcDbPolyline
 90
    9
 70
    0
 43
0
 10
104.3101506847036
 20
64.29312342111123
 10
104.3201402930066
 20
65.85841436613868
 10
49.15347556867357
 20
76.40700663260267
 10
48.36711953359448
 20
75.61106440391367
 10
27.13550658645904
 20
54.12062422931075
 10
26.34915055137996
 20
53.32468200062176
 10
25.89519512557624
 20
-17.80646708064
 10
81.06185985000056
 20
-28.35505934721163
 10
81.84821588498826
 20
-27.55911711841502
  0
LWPOLYLINE
  5
7F
100
AcDbEntity
  8
s00f-#def-silhouette
  6
CONTINUOUS
 62
  256
420
    0
370
  106
100
AcDbPolyline
 90
   11
 70
    0
 43
0
 10
32.86735602721478
 20
61.61321918235731
 10
32.87884856964018
 20
63.41400776669305
 10
32.05715994354014
 20
65.41577391081687
 10
29.47944326612821
 20
67.12033244462526
 10
25.90481860241048
 20
68.18588692726881
 10
21.69526291762195
 20
68.60877016410784
 10
17.10381623343227
 20
68.27505000819252
 10
13.21640944037505
 20
67.17372487841782
 10
10.80966066187522
 20
65.63103263004601
 10
9.887694231771205
 20
63.80443045792111
 10
9.876201689345793
 20
62.00364187358538
  0
LWPOLYLINE
  5
80
100
AcDbEntity
  8
s00f-#def-silhouette
  6
CONTINUOUS
 62
  256
420
    0
370
  106
100
AcDbPolyline
 90
   11
 70
    0
 43
0
 10
24.15813207721585
 20
72.84599510431843
 10
24.16962461964131
 20
74.64678368865415
 10
23.63374073305423
 20
75.9522833478654
 10
21.95262116082914
 20
77.06395195687074
 10
19.62134420623059
 20
77.75887879337746
 10
16.87598180310756
 20
78.03467220870732
 10
13.88156005254918
 20
77.81702862876249
 10
11.34629475272924
 20
77.09877310934417
 10
9.776675984142377
 20
76.09266946910172
 10
9.175393529726781
 20
74.90140718293333
 10
9.163900987285222
 20
73.10061859833979
  0
LWPOLYLINE
  5
81
100
AcDbEntity
  8
s00f-#def-silhouette
  6
CONTINUOUS
 62
  256
420
    0
370
  106
100
AcDbPolyline
 90
    4
 70
    0
 43
0
 10
91.62679652917683
 20
-30.37521427059754
 10
84.92195928942965
 20
-37.16178785499766
 10
83.08307046528522
 20
-36.81016811278219
 10
83.13450127450717
 20
-28.75137566270677
  0
LWPOLYLINE
  5
82
100
AcDbEntity
  8
s00f-#def-silhouette
  6
CONTINUOUS
 62
  256
420
    0
370
  106
100
AcDbPolyline
 90
    4
 70
    0
 43
0
 10
83.09306007358812
 20
-35.24487716775477
 10
81.79075317286123
 20
-36.56306004009371
 10
79.9518643487168
 20
-36.21144029787824
 10
80.00329515793877
 20
-28.15264784780283
  0
LWPOLYLINE
  5
83
100
AcDbEntity
  8
s00f-#def-silhouette
  6
CONTINUOUS
 62
  256
420
    0
370
  106
100
AcDbPolyline
 90
    7
 70
    0
 43
0
 10
70.70301957340324
 20
-139.4826668963391
 10
71.05909322558961
 20
-83.68880124810472
 10
52.67020498414529
 20
-80.17260382595006
 10
49.52478084382893
 20
-83.35637274070604
 10
-211.5813569318611
 20
-33.42944314599269
 10
-210.4146687126807
 20
149.3811786302586
 10
-229.7390766190165
 20
153.0762597234039
  0
LWPOLYLINE
  5
84
100
AcDbEntity
  8
s00f-#def-silhouette
  6
CONTINUOUS
 62
  256
420
    0
370
  106
100
AcDbPolyline
 90
    4
 70
    0
 43
0
 10
26.67551925775022
 20
-17.95567532355429
 10
26.62408844852828
 20
-26.0144677736297
 10
28.46297727267271
 20
-26.36608751584517
 10
35.1678145124199
 20
-19.57951393144505
  0
LWPOLYLINE
  5
85
100
AcDbEntity
  8
s00f-#def-silhouette
  6
CONTINUOUS
 62
  256
420
    0
370
  106
100
AcDbPolyline
 90
   11
 70
    0
 43
0
 10
4.388126147546337
 20
66.71049326949731
 10
4.399618689971779
 20
68.511281853833
 10
3.720832433628229
 20
70.16491475550058
 10
1.59141430880969
 20
71.57302832690743
 10
-1.361536500348445
 20
72.45326898648254
 10
-4.838995544304221
 20
72.80260731256698
 10
-8.631929761678267
 20
72.52692544463696
 10
-11.84326580811688
 20
71.61713512004032
 10
-13.83144958166018
 20
70.34273717573328
 10
-14.59307402392001
 20
68.83380494658658
 10
-14.60456656634542
 20
67.03301636225089
  0
LWPOLYLINE
  5
86
100
AcDbEntity
  8
s00f-#def-silhouette
  6
CONTINUOUS
 62
  256
420
    0
370
  106
100
AcDbPolyline
 90
    9
 70
    0
 43
0
 10
-6.714216420498846
 20
80.31924610372717
 10
-6.671060740697825
 20
87.08139260345212
 10
-61.8377254650308
 20
97.62998486991612
 10
-62.62408150010989
 20
96.83404264122711
 10
-83.85569444724533
 20
75.34360246662419
 10
-84.64205048232442
 20
74.54766023793519
 10
-85.09600590812813
 20
3.416511156673455
 10
-29.9293411837038
 20
-7.132081109898188
 10
-29.1429851487161
 20
-6.336138881101562
  0
LWPOLYLINE
  5
87
100
AcDbEntity
  8
s00f-#def-silhouette
  6
CONTINUOUS
 62
  256
420
    0
370
  106
100
AcDbPolyline
 90
    4
 70
    0
 43
0
 10
-30.98790587576561
 20
-6.929669610489381
 10
-31.03933668498758
 20
-14.9884620605648
 10
-29.20044786084315
 20
-15.34008180278027
 10
-24.17457998618968
 20
-10.25294531651197
  0
LWPOLYLINE
  5
88
100
AcDbEntity
  8
s00f-#def-silhouette
  6
CONTINUOUS
 62
  256
420
    0
370
  106
100
AcDbPolyline
 90
    7
 70
    0
 43
0
 10
-65.12619646143303
 20
94.30142526447956
 10
-64.78492666320213
 20
147.7756465393216
 10
-117.1932581514105
 20
157.79680919248
 10
-140.7839392038225
 20
133.9185423317703
 10
-141.6114022584127
 20
4.261764259636749
 10
-89.20307077029638
 20
-5.759398393504057
 10
-84.34188770373595
 20
-0.8389543306894879
  0
LWPOLYLINE
  5
89
100
AcDbEntity
  8
s00f-#def-silhouette
  6
CONTINUOUS
 62
  256
420
    0
370
  106
100
AcDbPolyline
 90
    4
 70
    0
 43
0
 10
-84.31568177595412
 20
3.267302913759164
 10
-84.36711258517609
 20
-4.791489536316256
 10
-82.52822376103167
 20
-5.143109278531732
 10
-75.82338652128445
 20
1.643464305868396
  0
LWPOLYLINE
  5
8A
100
AcDbEntity
  8
s00f-#def-silhouette
  6
CONTINUOUS
 62
  256
420
    0
370
  106
100
AcDbPolyline
 90
    3
 70
    0
 43
0
 10
-142.6431836752568
 20
211.7128354663429
 10
-204.7653104465049
 20
148.8333993999121
 10
-205.6272511284106
 20
13.77425557473156
  0
LWPOLYLINE
  5
8B
100
AcDbEntity
  8
s00f-#def-silhouette
  6
CONTINUOUS
 62
  256
420
    0
370
  106
100
AcDbPolyline
 90
    3
 70
    0
 43
0
 10
-205.4851050844518
 20
36.04739269221469
 10
-161.8940125986068
 20
80.16988906331706
 10
-161.17421796066
 20
192.9558957710144
  0
LWPOLYLINE
  5
8C
100
AcDbEntity
  8
s00e-#def-invisible
  6
DASHED
 62
  256
420
    0
370
   53
100
AcDbPolyline
 90
    9
 70
    0
 43
0
 10
-69.66891283020507
 20
173.5115939382513
 10
-60.23264040925598
 20
183.0629006825193
 10
-8.743753333211874
 20
173.2175479004862
 10
-8.565618925618015
 20
201.1297709576901
 10
-60.05450600166212
 20
210.9751237397232
 10
-69.49077842261121
 20
201.4238169954552
 10
-69.66891283020507
 20
173.5115939382513
 10
-18.18002575416097
 20
163.6662411562182
 10
-8.743753333211874
 20
173.2175479004862
  0
LWPOLYLINE
  5
8D
100
AcDbEntity
  8
s00f-#def-silhouette
  6
CONTINUOUS
 62
  256
420
    0
370
  106
100
AcDbPolyline
 90
    9
 70
    0
 43
0
 10
-127.81549149336
 20
278.3716181349752
 10
-255.9915252112518
 20
148.6330348586686
 10
-257.5142870826186
 20
-89.971452565817
 10
-257.6292125068727
 20
-107.9793384091744
 10
59.57910965804186
 20
-168.6337439413425
 10
187.755143375973
 20
-38.89516066499602
 10
187.8700688001878
 20
-20.88727482167845
 10
189.3928306715546
 20
217.7172126028072
 10
-127.81549149336
 20
278.3716181349752
  0
LWPOLYLINE
  5
8E
100
AcDbEntity
  8
s00f-#def-silhouette
  6
CONTINUOUS
 62
  256
420
    0
370
  106
100
AcDbPolyline
 90
   11
 70
    0
 43
0
 10
-61.09554624830206
 20
213.9234742949635
 10
-5.928881523877146
 20
203.3748820284819
 10
-6.130001016321826
 20
171.8610818026064
 10
-6.916357051492851
 20
171.065139573935
 10
-16.35262947244194
 20
161.513832829667
 10
-17.13898550752104
 20
160.717890600978
 10
-72.305650231854
 20
171.266482867442
 10
-72.10453073940933
 20
202.7802830933175
 10
-71.31817470433023
 20
203.5762253220065
 10
-61.88190228338115
 20
213.1275320662745
 10
-61.09554624830206
 20
213.9234742949635
  0
LWPOLYLINE
  5
8F
100
AcDbEntity
  8
s00e-#def-invisible
  6
DASHED
 62
  256
420
    0
370
   53
100
AcDbPolyline
 90
    3
 70
    0
 43
0
 10
-8.565618925618015
 20
201.1297709576901
 10
-18.00189134656711
 20
191.5784642134222
 10
-69.49077842261121
 20
201.4238169954552
  0
LWPOLYLINE
  5
90
100
AcDbEntity
  8
s00e-#def-invisible
  6
DASHED
 62
  256
420
    0
370
   53
100
AcDbPolyline
 90
    6
 70
    0
 43
0
 10
-30.53941108948223
 20
63.34584135803991
 10
-82.02829816552632
 20
73.19119414007298
 10
-60.79668521839086
 20
94.68163431467592
 10
-61.22765555934375
 20
27.15206240208565
 10
-82.45926850647921
 20
5.66162222748271
 10
-82.02829816552632
 20
73.19119414007298
  0
LWPOLYLINE
  5
91
100
AcDbEntity
  8
s00e-#def-invisible
  6
DASHED
 62
  256
420
    0
370
   53
100
AcDbPolyline
 90
    4
 70
    0
 43
0
 10
-9.307798142346757
 20
84.83628153264284
 10
-30.53941108948223
 20
63.34584135803991
 10
-30.97038143043512
 20
-4.183730554550351
 10
-82.45926850647921
 20
5.66162222748271
  0
LWPOLYLINE
  5
92
100
AcDbEntity
  8
s00e-#def-invisible
  6
DASHED
 62
  256
420
    0
370
   53
100
AcDbPolyline
 90
    4
 70
    0
 43
0
 10
-60.79668521839086
 20
94.68163431467592
 10
-9.307798142346757
 20
84.83628153264284
 10
-9.738768483299692
 20
17.30670962005259
 10
-61.22765555934375
 20
27.15206240208565
  0
LWPOLYLINE
  5
93
100
AcDbEntity
  8
s00e-#def-invisible
  6
DASHED
 62
  256
420
    0
370
   53
100
AcDbPolyline
 90
   10
 70
    0
 43
0
 10
101.2524325504047
 20
-3.916268617260862
 10
101.6834028913576
 20
63.61330329532937
 10
50.19451581531348
 20
73.45865607736243
 10
28.96290286817807
 20
51.96821590275955
 10
80.45178994422216
 20
42.12286312072646
 10
80.02081960326927
 20
-25.4067087918638
 10
101.2524325504047
 20
-3.916268617260862
 10
49.76354547436059
 20
5.929084164772188
 10
28.53193252722517
 20
-15.56135600983072
 10
80.02081960326927
 20
-25.4067087918638
  0
LWPOLYLINE
  5
94
100
AcDbEntity
  8
s00e-#def-invisible
  6
DASHED
 62
  256
420
    0
370
   53
100
AcDbPolyline
 90
    8
 70
    0
 43
0
 10
136.9107719609791
 20
31.32716278157398
 10
85.421884884935
 20
41.17251556360705
 10
84.99091454398212
 20
-26.3570563489832
 10
136.4798016200263
 20
-36.20240913101628
 10
136.9107719609791
 20
31.32716278157398
 10
158.1423849081146
 20
52.81760295617693
 10
106.6534978320704
 20
62.66295573821
 10
85.421884884935
 20
41.17251556360705
  0
LWPOLYLINE
  5
95
100
AcDbEntity
  8
s00e-#def-invisible
  6
DASHED
 62
  256
420
    0
370
   53
100
AcDbPolyline
 90
    4
 70
    0
 43
0
 10
136.4798016200263
 20
-36.20240913101628
 10
157.7114145671617
 20
-14.71196895641333
 10
106.2225274911175
 20
-4.86661617438028
 10
106.6534978320704
 20
62.66295573821
  0
LINE
  5
96
100
AcDbEntity
  8
s00e-#def-invisible
  6
DASHED
 62
  256
420
    0
370
   53
100
AcDbLine
 10
161.6176202079525
 20
-25.33049968641372
 11
79.83659255972709
 21
-108.1084914700695
  0
LINE
  5
97
100
AcDbEntity
  8
s00e-#def-invisible
  6
DASHED
 62
  256
420
    0
370
   53
100
AcDbLine
 10
-161.0320719167011
 20
215.2290328884976
 11
-161.17421796066
 21
192.9558957710144
  0
LINE
  5
98
100
AcDbEntity
  8
s005-#def-solid-edge
  6
CONTINUOUS
 62
  256
420
    0
370
   53
100
AcDbLine
 10
-229.7390766190165
 20
153.0762597234039
 11
-117.2901636027066
 21
266.8959984259305
  0
LINE
  5
99
100
AcDbEntity
  8
s005-#def-solid-edge
  6
CONTINUOUS
 62
  256
420
    0
370
   53
100
AcDbLine
 10
-89.20307077029638
 20
-5.759398393504057
 11
-88.37560771561417
 21
123.8973796786119
  0
LINE
  5
9A
100
AcDbEntity
  8
s005-#def-solid-edge
  6
CONTINUOUS
 62
  256
420
    0
370
   53
100
AcDbLine
 10
-218.2782290634716
 20
141.4217563433685
 11
-210.4146687126807
 21
149.3811786302586
  0
LINE
  5
9B
100
AcDbEntity
  8
s00e-#def-invisible
  6
DASHED
 62
  256
420
    0
370
   53
100
AcDbLine
 10
-60.05450600166212
 20
210.9751237397232
 11
-60.23264040925598
 21
183.0629006825193
  0
LINE
  5
9C
100
AcDbEntity
  8
s00e-#def-invisible
  6
DASHED
 62
  256
420
    0
370
   53
100
AcDbLine
 10
-6.130001016321826
 20
171.8610818026064
 11
-61.29666574074674
 21
182.409674069088
  0
LINE
  5
9D
100
AcDbEntity
  8
s00e-#def-invisible
  6
DASHED
 62
  256
420
    0
370
   53
100
AcDbLine
 10
-18.18002575416097
 20
163.6662411562182
 11
-18.00189134656711
 21
191.5784642134222
  0
LINE
  5
9E
100
AcDbEntity
  8
s005-#def-solid-edge
  6
CONTINUOUS
 62
  256
420
    0
370
   53
100
AcDbLine
 10
-17.13898550752104
 20
160.717890600978
 11
-16.93786601507635
 21
192.2316908268535
  0
LINE
  5
9F
100
AcDbEntity
  8
s005-#def-solid-edge
  6
CONTINUOUS
 62
  256
420
    0
370
   53
100
AcDbLine
 10
-184.8418828375693
 20
-38.54238247357085
 11
-141.6052785220981
 21
5.221304284856823
  0
LINE
  5
A0
100
AcDbEntity
  8
s00e-#def-invisible
  6
DASHED
 62
  256
420
    0
370
   53
100
AcDbLine
 10
-141.6052785220981
 20
5.221304284856823
 11
-118.8129254740734
 21
28.29151100144497
  0
LINE
  5
A1
100
AcDbEntity
  8
s00e-#def-invisible
  6
DASHED
 62
  256
420
    0
370
   53
100
AcDbLine
 10
-224.016139369855
 20
17.29045299688624
 11
-205.4851050844518
 21
36.04739269221469
  0
LINE
  5
A2
100
AcDbEntity
  8
s00e-#def-invisible
  6
DASHED
 62
  256
420
    0
370
   53
100
AcDbLine
 10
-129.453178788981
 20
21.75924486713224
 11
187.755143375973
 21
-38.89516066499602
  0
LINE
  5
A3
100
AcDbEntity
  8
s005-#def-solid-edge
  6
CONTINUOUS
 62
  256
420
    0
370
   53
100
AcDbLine
 10
-82.4767929518097
 20
2.915683171543701
 11
-82.52822376103167
 21
-5.143109278531732
  0
LINE
  5
A4
100
AcDbEntity
  8
s00e-#def-invisible
  6
DASHED
 62
  256
420
    0
370
   53
100
AcDbLine
 10
-61.29661081389622
 20
16.34733089607121
 11
-75.82338652128445
 21
1.643464305868396
  0
LINE
  5
A5
100
AcDbEntity
  8
s00e-#def-invisible
  6
DASHED
 62
  256
420
    0
370
   53
100
AcDbLine
 10
-63.07803692591359
 20
25.70289355996538
 11
-61.23914810176916
 21
25.35127381774992
  0
LINE
  5
A6
100
AcDbEntity
  8
s00e-#def-invisible
  6
DASHED
 62
  256
420
    0
370
   53
100
AcDbLine
 10
-30.97038143043512
 20
-4.183730554550351
 11
-9.738768483299692
 21
17.30670962005259
  0
LINE
  5
A7
100
AcDbEntity
  8
s005-#def-solid-edge
  6
CONTINUOUS
 62
  256
420
    0
370
   53
100
AcDbLine
 10
-205.6272511284106
 20
13.77425557473156
 11
-143.5051243571625
 21
76.65369164116243
  0
LINE
  5
A8
100
AcDbEntity
  8
s00e-#def-invisible
  6
DASHED
 62
  256
420
    0
370
   53
100
AcDbLine
 10
-84.30964987304904
 20
4.212453385362448
 11
-85.09600590812813
 21
3.416511156673455
  0
LINE
  5
A9
100
AcDbEntity
  8
s005-#def-solid-edge
  6
CONTINUOUS
 62
  256
420
    0
370
   53
100
AcDbLine
 10
-29.47538575799148
 20
63.99906797147119
 11
-29.9293411837038
 21
-7.132081109898188
  0
LINE
  5
AA
100
AcDbEntity
  8
s00e-#def-invisible
  6
DASHED
 62
  256
420
    0
370
   53
100
AcDbLine
 10
49.16870719164254
 20
-139.1502383889404
 11
-231.2618384903834
 21
-85.52822770108172
  0
LINE
  5
AB
100
AcDbEntity
  8
s00e-#def-invisible
  6
DASHED
 62
  256
420
    0
370
   53
100
AcDbLine
 10
52.31413133195892
 20
-135.9664694741844
 11
52.67020498414529
 21
-80.17260382595006
  0
LINE
  5
AC
100
AcDbEntity
  8
s005-#def-solid-edge
  6
CONTINUOUS
 62
  256
420
    0
370
   53
100
AcDbLine
 10
-29.1429851487161
 20
-6.336138881101562
 11
-29.20044786084315
 21
-15.34008180278027
  0
LINE
  5
AD
100
AcDbEntity
  8
s00e-#def-invisible
  6
DASHED
 62
  256
420
    0
370
   53
100
AcDbLine
 10
-9.750261025725052
 20
15.50592103571684
 11
-9.807723737852104
 21
6.501978114038138
  0
LINE
  5
AE
100
AcDbEntity
  8
s00e-#def-invisible
  6
DASHED
 62
  256
420
    0
370
   53
100
AcDbLine
 10
-24.17457998618968
 20
-10.25294531651197
 11
-7.968834913707671
 21
6.150358371822669
  0
LINE
  5
AF
100
AcDbEntity
  8
s00e-#def-invisible
  6
DASHED
 62
  256
420
    0
370
   53
100
AcDbLine
 10
-30.98790587576561
 20
-6.929669610489381
 11
-30.98187397286053
 21
-5.984519138886096
  0
LINE
  5
B0
100
AcDbEntity
  8
s00e-#def-invisible
  6
DASHED
 62
  256
420
    0
370
   53
100
AcDbLine
 10
21.60875588236383
 20
77.16645423991905
 11
17.28092502720214
 21
77.99399245194343
  0
LINE
  5
B1
100
AcDbEntity
  8
s005-#def-solid-edge
  6
CONTINUOUS
 62
  256
420
    0
370
   53
100
AcDbLine
 10
-23.70631752805995
 20
63.1200001867035
 11
26.53533408932481
 21
53.51313523748426
  0
LINE
  5
B2
100
AcDbEntity
  8
s00e-#def-invisible
  6
DASHED
 62
  256
420
    0
370
   53
100
AcDbLine
 10
26.64821606014631
 20
-22.23386588757673
 11
29.13877159035329
 21
-22.71009287966372
  0
LINE
  5
B3
100
AcDbEntity
  8
s00e-#def-invisible
  6
DASHED
 62
  256
420
    0
370
   53
100
AcDbLine
 10
104.7175432370649
 20
128.1282462610962
 11
49.55087851263998
 21
138.6768385275778
  0
LINE
  5
B4
100
AcDbEntity
  8
s00e-#def-invisible
  6
DASHED
 62
  256
420
    0
370
   53
100
AcDbLine
 10
102.1037909201748
 20
129.484712358976
 11
92.66751849922572
 21
119.933405614708
  0
LINE
  5
B5
100
AcDbEntity
  8
s005-#def-solid-edge
  6
CONTINUOUS
 62
  256
420
    0
370
   53
100
AcDbLine
 10
41.17863142318164
 20
129.7787583967411
 11
92.66751849922572
 21
119.933405614708
  0
LINE
  5
B6
100
AcDbEntity
  8
s005-#def-solid-edge
  6
CONTINUOUS
 62
  256
420
    0
370
   53
100
AcDbLine
 10
134.9213408030415
 20
162.5816796993258
 11
116.5324525615971
 21
166.0978771214803
  0
LINE
  5
B7
100
AcDbEntity
  8
s005-#def-solid-edge
  6
CONTINUOUS
 62
  256
420
    0
370
   53
100
AcDbLine
 10
94.63857156126241
 20
140.2908545923536
 11
94.49491478094475
 21
117.7809972881568
  0
LINE
  5
B8
100
AcDbEntity
  8
s005-#def-solid-edge
  6
CONTINUOUS
 62
  256
420
    0
370
   53
100
AcDbLine
 10
93.85221552618333
 20
139.4949123636646
 11
94.05333501862801
 21
171.00871258954
  0
LINE
  5
B9
100
AcDbEntity
  8
s00e-#def-invisible
  6
DASHED
 62
  256
420
    0
370
   53
100
AcDbLine
 10
48.49400321415801
 20
72.02564115101312
 11
29.62145837212859
 21
52.92302766245496
  0
LINE
  5
BA
100
AcDbEntity
  8
s00e-#def-invisible
  6
DASHED
 62
  256
420
    0
370
   53
100
AcDbLine
 10
48.69952014286987
 20
5.275857551340931
 11
49.15347556867357
 21
76.40700663260267
  0
LINE
  5
BB
100
AcDbEntity
  8
s00e-#def-invisible
  6
DASHED
 62
  256
420
    0
370
   53
100
AcDbLine
 10
80.45178994422216
 20
42.12286312072646
 11
101.6834028913576
 21
63.61330329532937
  0
LINE
  5
BC
100
AcDbEntity
  8
s005-#def-solid-edge
  6
CONTINUOUS
 62
  256
420
    0
370
   53
100
AcDbLine
 10
81.06185985000056
 20
-28.35505934721163
 11
81.51581527571291
 21
42.77608973415774
  0
LINE
  5
BD
100
AcDbEntity
  8
s00e-#def-invisible
  6
DASHED
 62
  256
420
    0
370
   53
100
AcDbLine
 10
160.7791223097635
 20
55.06271402698621
 11
115.8786243718713
 21
63.64828010524724
  0
LINE
  5
BE
100
AcDbEntity
  8
s00e-#def-invisible
  6
DASHED
 62
  256
420
    0
370
   53
100
AcDbLine
 10
157.7114145671617
 20
-14.71196895641333
 11
158.1423849081146
 21
52.81760295617693
  0
LINE
  5
BF
100
AcDbEntity
  8
s005-#def-solid-edge
  6
CONTINUOUS
 62
  256
420
    0
370
   53
100
AcDbLine
 10
115.7036991876405
 20
36.23891643136318
 11
82.80813256813688
 21
42.52898166146926
  0
LINE
  5
C0
100
AcDbEntity
  8
s00e-#def-invisible
  6
DASHED
 62
  256
420
    0
370
   53
100
AcDbLine
 10
137.5208418666662
 20
-39.15075968625649
 11
137.9747972925618
 21
31.98038939498768
  0
LINE
  5
C1
100
AcDbEntity
  8
s00e-#def-invisible
  6
DASHED
 62
  256
420
    0
370
   53
100
AcDbLine
 10
49.69459021980816
 20
-4.875647341242235
 11
49.75205293193521
 21
4.128295580436468
  0
LINE
  5
C2
100
AcDbEntity
  8
s00e-#def-invisible
  6
DASHED
 62
  256
420
    0
370
   53
100
AcDbLine
 10
28.52043998479976
 20
-17.36214459416647
 11
28.51440808189467
 21
-18.30729506576976
  0
LINE
  5
C3
100
AcDbEntity
  8
s005-#def-solid-edge
  6
CONTINUOUS
 62
  256
420
    0
370
   53
100
AcDbLine
 10
28.51440808189467
 20
-18.30729506576976
 11
28.46297727267271
 21
-26.36608751584517
  0
LINE
  5
C4
100
AcDbEntity
  8
s005-#def-solid-edge
  6
CONTINUOUS
 62
  256
420
    0
370
   53
100
AcDbLine
 10
81.79075317286123
 20
-36.56306004009371
 11
81.84821588498826
 21
-27.55911711841502
  0
LINE
  5
C5
100
AcDbEntity
  8
s00e-#def-invisible
  6
DASHED
 62
  256
420
    0
370
   53
100
AcDbLine
 10
81.84821588498826
 20
-27.55911711841502
 11
80.00932706084386
 21
-27.20749737619954
  0
LINE
  5
C6
100
AcDbEntity
  8
s00e-#def-invisible
  6
DASHED
 62
  256
420
    0
370
   53
100
AcDbLine
 10
106.1535722365651
 20
-15.6713476803947
 11
106.2110349486922
 21
-6.667404758716
  0
LINE
  5
C7
100
AcDbEntity
  8
s00e-#def-invisible
  6
DASHED
 62
  256
420
    0
370
   53
100
AcDbLine
 10
84.9794220015567
 20
-28.15784493331895
 11
84.97339009865161
 21
-29.10299540492224
  0
LINE
  5
C8
100
AcDbEntity
  8
s005-#def-solid-edge
  6
CONTINUOUS
 62
  256
420
    0
370
   53
100
AcDbLine
 10
84.97339009865161
 20
-29.10299540492224
 11
84.92195928942965
 21
-37.16178785499766
  0
LINE
  5
C9
100
AcDbEntity
  8
s005-#def-solid-edge
  6
CONTINUOUS
 62
  256
420
    0
370
   53
100
AcDbLine
 10
98.5815544533578
 20
-55.83082324398981
 11
80.19266621191351
 21
-52.31462582183515
  0
LINE
  5
CA
100
AcDbEntity
  8
s00e-#def-invisible
  6
DASHED
 62
  256
420
    0
370
   53
100
AcDbLine
 10
157.6999220247363
 20
-16.51275754074907
 11
157.6424593126092
 21
-25.51670046242777
  0
LINE
  5
CB
100
AcDbEntity
  8
s00e-#def-invisible
  6
DASHED
 62
  256
420
    0
370
   53
100
AcDbLine
 10
138.2497351896182
 20
-47.35876037924619
 11
136.4108463654738
 21
-47.00714063703072
  0
LINE
  5
CC
100
AcDbEntity
  8
s00e-#def-invisible
  6
DASHED
 62
  256
420
    0
370
   53
100
AcDbLine
 10
136.4683090776008
 20
-38.00319771535202
 11
138.3071979017452
 21
-38.3548174575675
  0
LINE
  5
CD
100
AcDbEntity
  8
s005-#def-solid-edge
  6
CONTINUOUS
 62
  256
420
    0
370
   53
100
AcDbLine
 10
70.70301957340324
 20
-139.4826668963391
 11
98.2254808011714
 21
-111.6246888922242
  0
LINE
  5
CE
100
AcDbEntity
  8
s005-#def-solid-edge
  6
CONTINUOUS
 62
  256
420
    0
370
   53
100
AcDbLine
 10
60.05010873448234
 20
-94.83199244975072
 11
71.05909322558961
 21
-83.68880124810472
  0
LINE
  5
CF
100
AcDbEntity
  8
s00f-#def-silhouette
  6
CONTINUOUS
 62
  256
420
    0
370
  106
100
AcDbLine
 10
92.66751849922572
 20
119.933405614708
 11
92.79365083421348
 21
139.6973238630558
  0
LINE
  5
D0
100
AcDbEntity
  8
s00f-#def-silhouette
  6
CONTINUOUS
 62
  256
420
    0
370
  106
100
AcDbLine
 10
21.60875588236383
 20
77.16645423991905
 11
45.4078789312623
 21
72.61574872606001
  0
LINE
  5
D1
100
AcDbEntity
  8
s00e-#def-invisible
  6
DASHED
 62
  256
420
    0
370
   53
100
AcDbLine
 10
92.98930968713725
 20
170.3554859761088
 11
41.50042261109314
 21
180.2008387581419
  0
LINE
  5
D2
100
AcDbEntity
  8
s00e-#def-invisible
  6
DASHED
 62
  256
420
    0
370
   53
100
AcDbLine
 10
28.53193252722517
 20
-15.56135600983072
 11
28.96290286817807
 21
51.96821590275955
  0
LINE
  5
D3
100
AcDbEntity
  8
s00e-#def-invisible
  6
DASHED
 62
  256
420
    0
370
   53
100
AcDbLine
 10
50.19451581531348
 20
73.45865607736243
 11
49.76354547436059
 21
5.929084164772188
  0
LINE
  5
D4
100
AcDbEntity
  8
s00e-#def-invisible
  6
DASHED
 62
  256
420
    0
370
   53
100
AcDbLine
 10
106.2225274911175
 20
-4.86661617438028
 11
84.99091454398212
 21
-26.3570563489832
  0
LINE
  5
D5
100
AcDbEntity
  8
s00e-#def-invisible
  6
DASHED
 62
  256
420
    0
370
   53
100
AcDbLine
 10
103.0223661199967
 20
-15.07261986549078
 11
101.1834772958523
 21
-14.72100012327531
  0
ENDSEC
  0
SECTION
  2
OBJECTS
  0
DICTIONARY
  5
C
330
0
100
AcDbDictionary
281
    1
  3
ACAD_GROUP
350
D
  0
DICTIONARY
  5
D
330
C
100
AcDbDictionary
281
    1
  0
ENDSEC
  0
EOF
