999
dxfrw 0.6.3
  0
SECTION
  2
HEADER
  9
$ACADVER
  1
AC1021
  9
$DWGCODEPAGE
  3
ANSI_1252
  9
$INSBASE
 10
0
 20
0
 30
0
  9
$EXTMIN
 10
1e+020
 20
1e+020
 30
1e+020
  9
$EXTMAX
 10
-1e+020
 20
-1e+020
 30
-1e+020
  9
$LIMMIN
 10
0
 20
0
  9
$LIMMAX
 10
420
 20
297
  9
$ORTHOMODE
 70
    0
  9
$REGENMODE
 70
    1
  9
$FILLMODE
 70
    1
  9
$QTEXTMODE
 70
    0
  9
$MIRRTEXT
 70
    0
  9
$LTSCALE
 40
1
  9
$ATTMODE
 70
    0
  9
$TEXTSIZE
 40
2.5
  9
$TRACEWID
 40
15.68
  9
$TEXTSTYLE
  7
STANDARD
  9
$CLAYER
  8
0
  9
$CELTYPE
  6
BYLAYER
  9
$CECOLOR
 62
  256
  9
$CELTSCALE
 40
1
  9
$DISPSILH
 70
    0
  9
$DIMSCALE
 40
1
  9
$DIMASZ
 40
2.5
  9
$DIMEXO
 40
0.625
  9
$DIMDLI
 40
3.75
  9
$DIMRND
 40
0
  9
$DIMDLE
 40
0
  9
$DIMEXE
 40
1.25
  9
$DIMTP
 40
0
  9
$DIMTM
 40
0
  9
$DIMTXT
 40
2.5
  9
$DIMCEN
 40
2.5
  9
$DIMTSZ
 40
0
  9
$DIMTOL
 70
    0
  9
$DIMLIM
 70
    0
  9
$DIMTIH
 70
    0
  9
$DIMTOH
 70
    0
  9
$DIMSE1
 70
    0
  9
$DIMSE2
 70
    0
  9
$DIMTAD
 70
    1
  9
$DIMZIN
 70
    8
  9
$DIMBLK
  1

  9
$DIMASO
 70
    1
  9
$DIMSHO
 70
    1
  9
$DIMPOST
  1

  9
$DIMAPOST
  1

  9
$DIMALT
 70
    0
  9
$DIMALTD
 70
    3
  9
$DIMALTF
 40
0.03937
  9
$DIMLFAC
 40
1
  9
$DIMTOFL
 70
    1
  9
$DIMTVP
 40
0
  9
$DIMTIX
 70
    0
  9
$DIMSOXD
 70
    0
  9
$DIMSAH
 70
    0
  9
$DIMBLK1
  1

  9
$DIMBLK2
  1

  9
$DIMSTYLE
  2
STANDARD
  9
$DIMCLRD
 70
    0
  9
$DIMCLRE
 70
    0
  9
$DIMCLRT
 70
    0
  9
$DIMTFAC
 40
1
  9
$DIMGAP
 40
0.625
  9
$DIMJUST
 70
    0
  9
$DIMSD1
 70
    0
  9
$DIMSD2
 70
    0
  9
$DIMTOLJ
 70
    0
  9
$DIMTZIN
 70
    8
  9
$DIMALTZ
 70
    0
  9
$DIMALTTZ
 70
    0
  9
$DIMUPT
 70
    0
  9
$DIMDEC
 70
    2
  9
$DIMTDEC
 70
    2
  9
$DIMALTU
 70
    2
  9
$DIMALTTD
 70
    3
  9
$DIMTXSTY
  7
STANDARD
  9
$DIMAUNIT
 70
    0
  9
$DIMADEC
 70
    0
  9
$DIMALTRND
 40
0
  9
$DIMAZIN
 70
    0
  9
$DIMDSEP
 70
   44
  9
$DIMATFIT
 70
    3
  9
$DIMFRAC
 70
    0
  9
$DIMLDRBLK
  1
STANDARD
  9
$DIMLUNIT
 70
    2
  9
$DIMLWD
 70
   -2
  9
$DIMLWE
 70
   -2
  9
$DIMTMOVE
 70
    0
  9
$DIMFXL
 40
1
  9
$DIMFXLON
 70
    0
  9
$DIMJOGANG
 40
0.7854
  9
$DIMTFILL
 70
    0
  9
$DIMTFILLCLR
 70
    0
  9
$DIMARCSYM
 70
    0
  9
$DIMLTYPE
  6

  9
$DIMLTEX1
  6

  9
$DIMLTEX2
  6

  9
$LUNITS
 70
    2
  9
$LUPREC
 70
    4
  9
$SKETCHINC
 40
1
  9
$FILLETRAD
 40
0
  9
$AUNITS
 70
    0
  9
$AUPREC
 70
    2
  9
$MENU
  1
.
  9
$ELEVATION
 40
0
  9
$PELEVATION
 40
0
  9
$THICKNESS
 40
0
  9
$LIMCHECK
 70
    0
  9
$CHAMFERA
 40
0
  9
$CHAMFERB
 40
0
  9
$CHAMFERC
 40
0
  9
$CHAMFERD
 40
0
  9
$SKPOLY
 70
    0
  9
$USRTIMER
 70
    1
  9
$ANGBASE
 50
0
  9
$ANGDIR
 70
    0
  9
$PDMODE
 70
   34
  9
$PDSIZE
 40
0
  9
$PLINEWID
 40
0
  9
$SPLFRAME
 70
    0
  9
$SPLINETYPE
 70
    2
  9
$SPLINESEGS
 70
    8
  9
$HANDSEED
  5
20000
  9
$SURFTAB1
 70
    6
  9
$SURFTAB2
 70
    6
  9
$SURFTYPE
 70
    6
  9
$SURFU
 70
    6
  9
$SURFV
 70
    6
  9
$UCSBASE
  2

  9
$UCSNAME
  2

  9
$UCSORG
 10
0
 20
0
 30
0
  9
$UCSXDIR
 10
1
 20
0
 30
0
  9
$UCSYDIR
 10
0
 20
1
 30
0
  9
$UCSORTHOREF
  2

  9
$UCSORTHOVIEW
 70
    0
  9
$UCSORGTOP
 10
0
 20
0
 30
0
  9
$UCSORGBOTTOM
 10
0
 20
0
 30
0
  9
$UCSORGLEFT
 10
0
 20
0
 30
0
  9
$UCSORGRIGHT
 10
0
 20
0
 30
0
  9
$UCSORGFRONT
 10
0
 20
0
 30
0
  9
$UCSORGBACK
 10
0
 20
0
 30
0
  9
$PUCSBASE
  2

  9
$PUCSNAME
  2

  9
$PUCSORG
 10
0
 20
0
 30
0
  9
$PUCSXDIR
 10
1
 20
0
 30
0
  9
$PUCSYDIR
 10
0
 20
1
 30
0
  9
$PUCSORTHOREF
  2

  9
$PUCSORTHOVIEW
 70
    0
  9
$PUCSORGTOP
 10
0
 20
0
 30
0
  9
$PUCSORGBOTTOM
 10
0
 20
0
 30
0
  9
$PUCSORGLEFT
 10
0
 20
0
 30
0
  9
$PUCSORGRIGHT
 10
0
 20
0
 30
0
  9
$PUCSORGFRONT
 10
0
 20
0
 30
0
  9
$PUCSORGBACK
 10
0
 20
0
 30
0
  9
$USERI1
 70
    0
  9
$USERI2
 70
    0
  9
$USERI3
 70
    0
  9
$USERI4
 70
    0
  9
$USERI5
 70
    0
  9
$USERR1
 40
0
  9
$USERR2
 40
0
  9
$USERR3
 40
0
  9
$USERR4
 40
0
  9
$USERR5
 40
0
  9
$WORLDVIEW
 70
    1
  9
$SHADEDGE
 70
    3
  9
$SHADEDIF
 70
   70
  9
$TILEMODE
 70
    1
  9
$MAXACTVP
 70
   64
  9
$PINSBASE
 10
0
 20
0
 30
0
  9
$PLIMCHECK
 70
    0
  9
$PEXTMIN
 10
0
 20
0
 30
0
  9
$PEXTMAX
 10
0
 20
0
 30
0
  9
$PLIMMIN
 10
0
 20
0
  9
$PLIMMAX
 10
297
 20
210
  9
$UNITMODE
 70
    0
  9
$VISRETAIN
 70
    1
  9
$PLINEGEN
 70
    0
  9
$PSLTSCALE
 70
    1
  9
$TREEDEPTH
 70
 3020
  9
$CMLSTYLE
  2
Standard
  9
$CMLJUST
 70
    0
  9
$CMLSCALE
 40
20
  9
$PROXYGRAPHICS
 70
    1
  9
$MEASUREMENT
 70
    1
  9
$CELWEIGHT
370
   -1
  9
$ENDCAPS
280
    0
  9
$JOINSTYLE
280
    0
  9
$LWDISPLAY
290
    0
  9
$INSUNITS
 70
    0
  9
$HYPERLINKBASE
  1

  9
$STYLESHEET
  1

  9
$XEDIT
290
    1
  9
$CEPSNTYPE
380
    0
  9
$PSTYLEMODE
290
    1
  9
$EXTNAMES
290
    1
  9
$PSVPSCALE
 40
0
  9
$OLESTARTUP
290
    0
  9
$SORTENTS
280
  127
  9
$INDEXCTL
280
    0
  9
$HIDETEXT
280
    1
  9
$XCLIPFRAME
290
    0
  9
$HALOGAP
280
    0
  9
$OBSCOLOR
 70
  257
  9
$OBSLTYPE
280
    0
  9
$INTERSECTIONDISPLAY
280
    0
  9
$INTERSECTIONCOLOR
 70
  257
  9
$DIMASSOC
280
    1
  9
$PROJECTNAME
  1

  9
$CAMERADISPLAY
290
    0
  9
$LENSLENGTH
 40
50
  9
$CAMERAHEIGHT
 40
0
  9
$STEPSPERSEC
 40
2
  9
$STEPSIZE
 40
50
  9
$3DDWFPREC
 40
2
  9
$PSOLWIDTH
 40
5
  9
$PSOLHEIGHT
 40
80
  9
$LOFTANG1
 40
1.570796326794897
  9
$LOFTANG2
 40
1.570796326794897
  9
$LOFTMAG1
 40
0
  9
$LOFTMAG2
 40
0
  9
$LOFTPARAM
 70
    7
  9
$LOFTNORMALS
280
    1
  9
$LATITUDE
 40
1
  9
$LONGITUDE
 40
1
  9
$NORTHDIRECTION
 40
0
  9
$TIMEZONE
 70
-8000
  9
$LIGHTGLYPHDISPLAY
280
    1
  9
$TILEMODELIGHTSYNCH
280
    1
  9
$SOLIDHIST
280
    1
  9
$SHOWHIST
280
    1
  9
$DWFFRAME
280
    2
  9
$DGNFRAME
280
    0
  9
$REALWORLDSCALE
290
    1
  9
$INTERFERECOLOR
 62
    1
  9
$CSHADOW
280
    0
  9
$SHADOWPLANELOCATION
 40
0
  0
ENDSEC
  0
SECTION
  2
CLASSES
  0
ENDSEC
  0
SECTION
  2
TABLES
  0
TABLE
  2
VPORT
  5
8
330
0
100
AcDbSymbolTable
 70
    1
  0
VPORT
  5
31
330
2
100
AcDbSymbolTableRecord
100
AcDbViewportTableRecord
  2
*ACTIVE
 70
    0
 10
0
 20
0
 11
1
 21
1
 12
0.651828
 22
-0.16
 13
0
 23
0
 14
10
 24
10
 15
10
 25
10
 16
0
 26
0
 36
1
 17
0
 27
0
 37
0
 40
5.13732
 41
2.4426877
 42
50
 43
0
 44
0
 50
0
 51
0
 71
    0
 72
  100
 73
    1
 74
    3
 75
    0
 76
    0
 77
    0
 78
    0
281
    0
 65
    1
110
0
120
0
130
0
111
1
121
0
131
0
112
0
122
1
132
0
 79
    0
146
0
348
10020
 60
    7
 61
    5
292
1
282
    1
141
0
142
0
 63
  250
421
3358443
  0
ENDTAB
  0
TABLE
  2
LTYPE
  5
5
330
0
100
AcDbSymbolTable
 70
    4
  0
LTYPE
  5
14
330
5
100
AcDbSymbolTableRecord
100
AcDbLinetypeTableRecord
  2
ByBlock
 70
    0
  3

 72
   65
 73
    0
 40
0
  0
LTYPE
  5
15
330
5
100
AcDbSymbolTableRecord
100
AcDbLinetypeTableRecord
  2
ByLayer
 70
    0
  3

 72
   65
 73
    0
 40
0
  0
LTYPE
  5
16
330
5
100
AcDbSymbolTableRecord
100
AcDbLinetypeTableRecord
  2
Continuous
 70
    0
  3
Solid line
 72
   65
 73
    0
 40
0
  0
LTYPE
  5
32
330
5
100
AcDbSymbolTableRecord
100
AcDbLinetypeTableRecord
  2
DASHED
 70
    0
  3

 72
   65
 73
    2
 40
3
 49
1
 74
    0
 49
-2
 74
    0
  0
LTYPE
  5
33
330
5
100
AcDbSymbolTableRecord
100
AcDbLinetypeTableRecord
  2
DASHED
 70
    0
  3

 72
   65
 73
    2
 40
2
 49
1
 74
    0
 49
-1
 74
    0
  0
LTYPE
  5
34
330
5
100
AcDbSymbolTableRecord
100
AcDbLinetypeTableRecord
  2
DASHEDX2
 70
    0
  3

 72
   65
 73
    2
 40
3
 49
2
 74
    0
 49
-1
 74
    0
  0
LTYPE
  5
35
330
5
100
AcDbSymbolTableRecord
100
AcDbLinetypeTableRecord
  2
DASHDOT
 70
    0
  3

 72
   65
 73
    4
 40
3
 49
1
 74
    0
 49
-1
 74
    0
 49
0
 74
    0
 49
-1
 74
    0
  0
LTYPE
  5
36
330
5
100
AcDbSymbolTableRecord
100
AcDbLinetypeTableRecord
  2
DIVIDE
 70
    0
  3

 72
   65
 73
    6
 40
4
 49
1
 74
    0
 49
-1
 74
    0
 49
0
 74
    0
 49
-1
 74
    0
 49
0
 74
    0
 49
-1
 74
    0
  0
LTYPE
  5
37
330
5
100
AcDbSymbolTableRecord
100
AcDbLinetypeTableRecord
  2
DOT
 70
    0
  3

 72
   65
 73
    2
 40
1
 49
1
 74
    0
 49
0
 74
    0
  0
ENDTAB
  0
TABLE
  2
LAYER
  5
2
330
0
100
AcDbSymbolTable
 70
    1
  0
LAYER
  5
38
330
2
100
AcDbSymbolTableRecord
100
AcDbLayerTableRecord
  2
dimensions
 70
    0
 62
    7
  6
CONTINUOUS
370
   -3
390
F
  0
LAYER
  5
39
330
2
100
AcDbSymbolTableRecord
100
AcDbLayerTableRecord
  2
text
 70
    0
 62
    7
  6
CONTINUOUS
370
   -3
390
F
  0
LAYER
  5
3A
330
2
100
AcDbSymbolTableRecord
100
AcDbLayerTableRecord
  2
s005-#def-solid-edge
 70
    0
 62
    7
  6
CONTINUOUS
370
   -3
390
F
  0
LAYER
  5
3B
330
2
100
AcDbSymbolTableRecord
100
AcDbLayerTableRecord
  2
s00e-#def-hidden-edge
 70
    0
 62
    7
  6
CONTINUOUS
370
   -3
390
F
  0
LAYER
  5
3C
330
2
100
AcDbSymbolTableRecord
100
AcDbLayerTableRecord
  2
s00f-#def-outline
 70
    0
 62
    7
  6
CONTINUOUS
370
   -3
390
F
  0
LAYER
  5
10
330
2
100
AcDbSymbolTableRecord
100
AcDbLayerTableRecord
  2
0
 70
    0
 62
    7
  6
CONTINUOUS
370
   -3
390
F
  0
ENDTAB
  0
TABLE
  2
STYLE
  5
3
330
0
100
AcDbSymbolTable
 70
    3
  0
STYLE
  5
3D
330
2
100
AcDbSymbolTableRecord
100
AcDbTextStyleTableRecord
  2
unicode
 70
    0
 40
0
 41
1
 50
0
 71
    0
 42
1
  3
unicode
  4

  0
STYLE
  5
3E
330
2
100
AcDbSymbolTableRecord
100
AcDbTextStyleTableRecord
  2
Standard
 70
    0
 40
0
 41
1
 50
0
 71
    0
 42
1
  3
txt
  4

  0
ENDTAB
  0
TABLE
  2
VIEW
  5
6
330
0
100
AcDbSymbolTable
 70
    0
  0
ENDTAB
  0
TABLE
  2
UCS
  5
7
330
0
100
AcDbSymbolTable
 70
    0
  0
ENDTAB
  0
TABLE
  2
APPID
  5
9
330
0
100
AcDbSymbolTable
 70
    1
  0
APPID
  5
12
330
9
100
AcDbSymbolTableRecord
100
AcDbRegAppTableRecord
  2
ACAD
 70
    0
  0
ENDTAB
  0
TABLE
  2
DIMSTYLE
  5
A
330
0
100
AcDbSymbolTable
 70
    1
100
AcDbDimStyleTable
 71
    1
  0
DIMSTYLE
105
3F
330
A
100
AcDbSymbolTableRecord
100
AcDbDimStyleTableRecord
  2
Standard
 70
    0
 40
1
 41
2.5
 42
0.625
 43
3.75
 44
1.25
 45
0
 46
0
 47
0
 48
0
140
2.5
141
2.5
142
0
143
0.03937007874015748
144
1
145
0
146
1
147
0.625
148
0
 71
    0
 72
    0
 73
    0
 74
    0
 75
    0
 76
    0
 77
    1
 78
    8
 79
    0
170
    0
171
    3
172
    1
173
    0
174
    0
175
    0
176
    0
177
    0
178
    0
179
    0
271
    2
272
    2
273
    2
274
    3
275
    0
276
    0
277
    2
278
   44
279
    0
280
    0
281
    0
282
    0
283
    0
284
    8
285
    0
286
    0
288
    0
289
    3
341

371
   -2
372
   -2
  0
ENDTAB
  0
TABLE
  2
BLOCK_RECORD
  5
1
330
0
100
AcDbSymbolTable
 70
    2
  0
BLOCK_RECORD
  5
1F
330
1
100
AcDbSymbolTableRecord
100
AcDbBlockTableRecord
  2
*Model_Space
 70
    0
280
    1
281
    0
  0
BLOCK_RECORD
  5
1E
330
1
100
AcDbSymbolTableRecord
100
AcDbBlockTableRecord
  2
*Paper_Space
 70
    0
280
    1
281
    0
  0
ENDTAB
  0
ENDSEC
  0
SECTION
  2
BLOCKS
  0
BLOCK
  5
20
330
1F
100
AcDbEntity
  8
0
100
AcDbBlockBegin
  2
*Model_Space
 70
    0
 10
0
 20
0
 30
0
  3
*Model_Space
  1

  0
ENDBLK
  5
21
330
1F
100
AcDbEntity
  8
0
100
AcDbBlockEnd
  0
BLOCK
  5
1C
330
1B
100
AcDbEntity
  8
0
100
AcDbBlockBegin
  2
*Paper_Space
 70
    0
 10
0
 20
0
 30
0
  3
*Paper_Space
  1

  0
ENDBLK
  5
1D
330
1F
100
AcDbEntity
  8
0
100
AcDbBlockEnd
  0
ENDSEC
  0
SECTION
  2
ENTITIES
  0
LWPOLYLINE
  5
40
100
AcDbEntity
  8
s00e-#def-hidden-edge
  6
DASHED
 62
    7
420
    0
370
   15
100
AcDbPolyline
 90
   11
 70
    0
 43
0
 10
-19.37164572875123
 20
51.56353736815516
 10
-19.37164572875124
 20
34.41710916867292
 10
-26.44271354061671
 20
34.41710916867291
 10
-32.80667457129563
 20
30.74287455449814
 10
-69.5762271929961
 20
9.513963450377263
 10
-76.63832645932
 20
5.436658537921309
 10
-76.97387332213691
 20
5.205862613949584
 10
-77.24674831946967
 20
4.930362806758915
 10
-77.43281949348516
 20
4.619357873868252
 10
-77.5141507805059
 20
4.287464661641488
 10
-77.51415078050596
 20
16.52525257949547
  0
LWPOLYLINE
  5
41
100
AcDbEntity
  8
s00e-#def-hidden-edge
  6
DASHED
 62
    7
420
    0
370
   15
100
AcDbPolyline
 90
    4
 70
    0
 43
0
 10
-10.88636435451266
 20
39.66123624793958
 10
-10.88636435451266
 20
32.78411600681746
 10
-13.71479147925885
 20
31.151122844962
 10
-13.71479147925885
 20
39.09655588218226
  0
LWPOLYLINE
  5
42
100
AcDbEntity
  8
s00e-#def-hidden-edge
  6
DASHED
 62
    7
420
    0
370
   15
100
AcDbPolyline
 90
   18
 70
    0
 43
0
 10
-13.71479147925885
 20
31.151122844962
 10
-14.36974504690538
 20
31.26430195958972
 10
-15.05915113436553
 20
31.34667172073991
 10
-15.77683621822121
 20
31.39448355985174
 10
-16.51519307298947
 20
31.4045183930934
 10
-17.26534872252087
 20
31.37430089103332
 10
-18.01744377678621
 20
31.30229182699551
 10
-18.76101215718015
 20
31.18803642002442
 10
-19.48543533770104
 20
31.03224906115511
 10
-20.18043284273306
 20
30.83682088506845
 10
-20.83654274535582
 20
30.60474573483444
 10
-21.44554590374216
 20
30.33997033338595
 10
-22.00079473879019
 20
30.0471839937718
 10
-22.49742023651238
 20
29.73157027753521
 10
-22.93240776932861
 20
29.39854593319924
 10
-23.30454849041458
 20
29.05351145676124
 10
-23.61428641587052
 20
28.70163310217882
 10
-23.61428641587052
 20
36.79445539024598
  0
LWPOLYLINE
  5
43
100
AcDbEntity
  8
s00e-#def-hidden-edge
  6
DASHED
 62
    7
420
    0
370
   15
100
AcDbPolyline
 90
    3
 70
    0
 43
0
 10
-23.61428641587052
 20
28.70163310217882
 10
-32.80667457129563
 20
34.00886087820905
 10
-32.80667457129563
 20
37.27285201949681
  0
LWPOLYLINE
  5
44
100
AcDbEntity
  8
s005-#def-solid-edge
  6
CONTINUOUS
 62
    7
420
    0
370
   15
100
AcDbPolyline
 90
   19
 70
    0
 43
0
 10
-10.88636435451267
 20
46.6645578825888
 10
-13.71479147925885
 20
45.03156472073335
 10
-14.36974504690535
 20
45.14474383536108
 10
-15.0591511343655
 20
45.22711359651127
 10
-15.77683621822121
 20
45.27492543562308
 10
-16.51519307298945
 20
45.28496026886476
 10
-17.26534872252087
 20
45.25474276680465
 10
-18.01744377678621
 20
45.18273370276686
 10
-18.76101214782093
 20
45.0684782975161
 10
-19.48543533770105
 20
44.91269093692645
 10
-20.18043285134541
 20
44.71726275811331
 10
-20.8365427453558
 20
44.48518761060578
 10
-21.44554590374217
 20
44.2204122091573
 10
-22.00079473879017
 20
43.92762586954314
 10
-22.49742023651236
 20
43.61201215330657
 10
-22.93240776932859
 20
43.27898780897058
 10
-23.30454849041459
 20
42.9339533325326
 10
-23.61428641587052
 20
42.58207497795016
 10
-23.61428641587052
 20
36.79445539024598
  0
LWPOLYLINE
  5
45
100
AcDbEntity
  8
s00e-#def-hidden-edge
  6
DASHED
 62
    7
420
    0
370
   15
100
AcDbPolyline
 90
   10
 70
    0
 43
0
 10
-77.5141507805059
 20
4.287464661641488
 10
-77.48323097707016
 20
3.952741862412797
 10
-77.34481659701221
 20
3.633557408927736
 10
-77.11456891942656
 20
3.345375057847692
 10
-76.81513944511727
 20
3.098572868076863
 10
-75.16237076436983
 20
1.961370076795792
 10
-67.03230954484656
 20
-3.632593809273653
 10
-65.75785057458873
 20
-2.89678457972418
 10
-65.38774879469142
 20
-2.697075212310161
 10
-65.00294013278118
 20
-2.516135745588089
  0
LWPOLYLINE
  5
46
100
AcDbEntity
  8
s00e-#def-hidden-edge
  6
DASHED
 62
    7
420
    0
370
   15
100
AcDbPolyline
 90
    3
 70
    0
 43
0
 10
-67.03230954484656
 20
0.04164080490111211
 10
-75.16237076436983
 20
5.635604690970559
 10
-85.981104516524
 20
-0.6105941531265442
  0
LWPOLYLINE
  5
47
100
AcDbEntity
  8
s00e-#def-hidden-edge
  6
DASHED
 62
    7
420
    0
370
   15
100
AcDbPolyline
 90
    8
 70
    0
 43
0
 10
-19.37164572875124
 20
34.41710916867292
 10
-10.88636435451264
 20
29.51812968310657
 10
11.48179977324
 20
16.60386410267083
 10
12.48334646298843
 20
15.98141966643614
 10
13.40291256350533
 20
15.31814365874787
 10
13.68011320038428
 20
15.09616575422836
 10
13.94679958839365
 20
14.86993494743933
 10
13.94679958836785
 20
32.01636314694411
  0
LWPOLYLINE
  5
48
100
AcDbEntity
  8
s00e-#def-hidden-edge
  6
DASHED
 62
    7
420
    0
370
   15
100
AcDbPolyline
 90
   31
 70
    0
 43
0
 10
13.94679958839365
 20
14.86993494743933
 10
14.92303315879634
 20
15.43356366210327
 10
15.09871729654318
 20
15.52043305848641
 10
15.30375296650324
 20
15.59313274001767
 10
15.53262380968136
 20
15.64713236380162
 10
15.77718136741633
 20
15.67896990980468
 10
16.02750742721898
 20
15.68684710971897
 10
16.27321030081556
 20
15.6709323485428
 10
16.50481504597605
 20
15.63327335643677
 10
16.71487438921092
 20
15.57736013599796
 10
17.27503263783712
 20
15.42825821482784
 10
17.89264529159855
 20
15.32783423587837
 10
18.54785295452273
 20
15.28539487274193
 10
19.21538911399644
 20
15.30640073918003
 10
19.86754260128972
 20
15.39130086185487
 10
20.47786484976472
 20
15.53529985861205
 10
21.02462663632475
 20
15.72916567602872
 10
21.49311767031646
 20
15.9608173997171
 10
24.46897470481473
 20
17.67892925965452
 10
24.74050881229142
 20
17.81011118668853
 10
25.06581853500858
 20
17.91629964074766
 10
25.43369956825642
 20
17.9875933945852
 10
25.82612906099878
 20
18.01666319397479
 10
26.22079150966457
 20
18.00056331719632
 10
26.5951167320289
 20
17.94149984700209
 10
26.93038716478763
 20
17.8461966187154
 10
27.21443860789074
 20
17.72416978681688
 10
27.4567697085602
 20
17.57513678922625
 10
27.6589484598188
 20
17.39368143975037
 10
27.80321430166908
 20
17.18569729010795
 10
27.87586530774333
 20
16.96115486813223
  0
LWPOLYLINE
  5
49
100
AcDbEntity
  8
s00e-#def-hidden-edge
  6
DASHED
 62
    7
420
    0
370
   15
100
AcDbPolyline
 90
   10
 70
    0
 43
0
 10
25.56333520051825
 20
14.7734441962463
 10
22.42473362546843
 20
12.49213935630396
 10
21.82504596276342
 20
12.00946339297594
 10
21.30296654411541
 20
11.48724829019252
 10
20.86944942897714
 20
10.93197022430589
 10
20.53318028181458
 20
10.35138432250799
 10
20.30004674691213
 20
9.75417814305319
 10
20.17280512280243
 20
9.14954385976673
 10
20.15098174787767
 20
8.546712622905183
 10
20.15098174787766
 20
28.14263056517061
  0
LWPOLYLINE
  5
4A
100
AcDbEntity
  8
s00e-#def-hidden-edge
  6
DASHED
 62
    7
420
    0
370
   15
100
AcDbPolyline
 90
   12
 70
    0
 43
0
 10
20.15098174787767
 20
8.546712622905183
 10
20.23101523321375
 20
7.954499769630994
 10
20.41105294677592
 20
7.369652214688969
 10
20.6943027033817
 20
6.789289592732361
 10
21.08037872781059
 20
6.22246111078408
 10
21.56572558868459
 20
5.678170951624853
 10
22.14367828271483
 20
5.164917410998591
 10
22.80476016012196
 20
4.690256468203296
 10
23.53719159983554
 20
4.260435983884452
 10
24.32755334857743
 20
3.880137041975955
 10
24.32755334857741
 20
12.04510285125323
 10
-3.610243450353173
 20
-4.08479165117442
  0
LWPOLYLINE
  5
4B
100
AcDbEntity
  8
s00e-#def-hidden-edge
  6
DASHED
 62
    7
420
    0
370
   15
100
AcDbPolyline
 90
    3
 70
    0
 43
0
 10
-19.42517876939937
 20
-9.234550595531694
 10
-21.00335568550239
 20
-8.323389728190765
 10
-29.27339640811765
 20
-3.548679490779676
  0
LWPOLYLINE
  5
4C
100
AcDbEntity
  8
s00e-#def-hidden-edge
  6
DASHED
 62
    7
420
    0
370
   15
100
AcDbPolyline
 90
   34
 70
    0
 43
0
 10
-23.25225239695514
 20
3.589466945606588
 10
-34.59170804336297
 20
10.13630471552398
 10
-35.05780121349682
 20
10.43887220683817
 10
-35.46759563124098
 20
10.778340604765
 10
-35.80877553303913
 20
11.14917961497659
 10
-36.07136906073304
 20
11.54411901256311
 10
-36.24862292368268
 20
11.95459345844015
 10
-36.33755974172097
 20
12.37135025493434
 10
-36.33912527954223
 20
12.78513175664696
 10
-36.33912527954222
 20
8.294400561544469
 10
-36.25791387431693
 20
8.696598195926399
 10
-34.57444152426199
 20
14.20881879071168
 10
-43.03311821713145
 20
18.30666191530049
 10
-56.84830513163826
 20
10.33046003130499
 10
-57.19811734744422
 20
10.14392457865139
 10
-57.58212649912948
 20
9.969956477405507
 10
-57.99853881492414
 20
9.811391261799631
 10
-58.44466772804977
 20
9.670972864844035
 10
-58.91694269173981
 20
9.551239484425693
 10
-59.41097001335332
 20
9.454408149367129
 10
-59.92164710451301
 20
9.382267205195756
 10
-60.44332592003391
 20
9.336086223424129
 10
-60.97001563759891
 20
9.316551833178849
 10
-61.49560979173254
 20
9.323735705246552
 10
-62.01412001634921
 20
9.357097678690671
 10
-62.51989785447102
 20
9.41552332075667
 10
-63.0078278773655
 20
9.497391667296704
 10
-63.47347923767464
 20
9.600666075530516
 10
-63.91320799505476
 20
9.72299943056812
 10
-64.3242081515518
 20
9.861844527680603
 10
-64.3242081515518
 20
23.74228640345197
 10
-69.47737094657954
 20
26.71746633033919
 10
-69.5762271929961
 20
26.66039164985952
 10
-53.87845665065474
 20
17.59727960156175
  0
LWPOLYLINE
  5
4D
100
AcDbEntity
  8
s00e-#def-hidden-edge
  6
DASHED
 62
    7
420
    0
370
   15
100
AcDbPolyline
 90
   13
 70
    0
 43
0
 10
-22.81468833181545
 20
3.336839214810481
 10
-22.55362624409069
 20
3.186114948187389
 10
-22.28803826846058
 20
3.045988872112309
 10
-21.99173746213835
 20
2.916232747103433
 10
-21.66618105191803
 20
2.799818702237609
 10
-21.31390850934076
 20
2.699674028804976
 10
-20.93856441349112
 20
2.618521471366654
 10
-20.54483701716592
 20
2.55871037834052
 10
-20.13830521608005
 20
2.522056133208185
 10
-19.72519911934449
 20
2.509707033284336
 10
-19.27179594657783
 20
2.524591053890271
 10
-19.27179594657798
 20
6.607073958528885
 10
-22.81468833181545
 20
4.561584086202073
  0
LWPOLYLINE
  5
4E
100
AcDbEntity
  8
s00e-#def-hidden-edge
  6
DASHED
 62
    7
420
    0
370
   15
100
AcDbPolyline
 90
   17
 70
    0
 43
0
 10
-26.2298171855945
 20
2.450826744610032
 10
-38.67566085514402
 20
9.636437937516453
 10
-39.48330772208624
 20
10.04988289794383
 10
-39.92596524596479
 20
10.23812489144192
 10
-40.39227198732343
 20
10.41200252933275
 10
-40.88010903445854
 20
10.57011148357138
 10
-41.38703583118058
 20
10.71118971040126
 10
-41.91032731934934
 20
10.83414734040639
 10
-42.44702085521239
 20
10.93809252012773
 10
-42.99397128896743
 20
11.02235199163142
 10
-43.54791209534503
 20
11.08648544870623
 10
-44.10552007732859
 20
11.1302930352619
 10
-44.66348097011662
 20
11.15381572578246
 10
-45.21855326504237
 20
11.15732871680845
 10
-45.76762775045278
 20
11.14132832862534
 10
-46.83631835548804
 20
11.05376110054807
 10
-46.836318355488
 20
14.72799571472284
  0
LWPOLYLINE
  5
4F
100
AcDbEntity
  8
s00e-#def-hidden-edge
  6
DASHED
 62
    7
420
    0
370
   15
100
AcDbPolyline
 90
   32
 70
    0
 43
0
 10
-46.83631835548804
 20
11.05376110054807
 10
-47.13075190985052
 20
11.81905907551516
 10
-47.34438670809519
 20
12.2461133875582
 10
-47.59238994157312
 20
12.66888413225775
 10
-47.87436104178106
 20
13.0859982792664
 10
-48.18968098920941
 20
13.49610107709515
 10
-48.5375159413057
 20
13.89787049355384
 10
-48.9168242768349
 20
14.29003131622002
 10
-49.32636694290864
 20
14.67136860711111
 10
-49.76472089015608
 20
15.04074021456959
 10
-50.23029529166995
 20
15.39708807279797
 10
-50.72135017196662
 20
15.73944806260476
 10
-51.2360169552274
 20
16.06695821540505
 10
-51.77232054200513
 20
16.37886519465739
 10
-52.32820228107762
 20
16.67452889018114
 10
-53.024667730951
 20
17.02876930897782
 10
-53.02466773095098
 20
21.11125221361644
 10
-52.32820228107762
 20
20.75701179481977
 10
-51.77232054200513
 20
20.46134809929603
 10
-51.23601695522744
 20
20.14944112004371
 10
-50.72135017196663
 20
19.82193096724338
 10
-50.23029529596424
 20
19.47957098057248
 10
-49.76472089188671
 20
19.12322312059745
 10
-49.3263669433934
 20
18.75385151217888
 10
-48.91682427689155
 20
18.37251422091419
 10
-48.53751594130571
 20
17.98035339819248
 10
-48.18968098916179
 20
17.57858398167549
 10
-47.87436104143964
 20
17.16848118343212
 10
-47.59238994055875
 20
16.75136703528845
 10
-47.34438670602376
 20
16.32859628838229
 10
-47.13075190985052
 20
15.90154198015378
 10
-46.836318355488
 20
15.13624400518668
  0
LWPOLYLINE
  5
50
100
AcDbEntity
  8
s00e-#def-hidden-edge
  6
DASHED
 62
    7
420
    0
370
   15
100
AcDbPolyline
 90
    5
 70
    0
 43
0
 10
-53.024667730951
 20
17.02876930897782
 10
-43.03311821713146
 20
22.797393110403
 10
-34.574441524262
 20
18.69954998581418
 10
-36.25791387431693
 20
13.18732939102889
 10
-36.33912527954223
 20
12.78513175664696
  0
LWPOLYLINE
  5
51
100
AcDbEntity
  8
s00e-#def-hidden-edge
  6
DASHED
 62
    7
420
    0
370
   15
100
AcDbPolyline
 90
    3
 70
    0
 43
0
 10
-39.18826517491807
 20
30.32444782534966
 10
-69.47737094657956
 20
12.83702445456784
 10
-64.3242081515518
 20
9.861844527680603
  0
LWPOLYLINE
  5
52
100
AcDbEntity
  8
s00e-#def-hidden-edge
  6
DASHED
 62
    7
420
    0
370
   15
100
AcDbPolyline
 90
   27
 70
    0
 43
0
 10
-28.01646964564831
 20
21.02449841903828
 10
-28.26674605190049
 20
21.03946158890586
 10
-28.65128179798738
 20
21.10994341413794
 10
-28.99019627438087
 20
21.218222773285
 10
-29.27114066534085
 20
21.35316387381656
 10
-29.50486550753085
 20
21.5153671935867
 10
-29.69241085898828
 20
21.71103955776779
 10
-29.81448896130071
 20
21.9330513742844
 10
-29.85692710298979
 20
22.16966045475703
 10
-29.85692710298977
 20
18.9036741310461
 10
-29.8144889613007
 20
18.66706505057348
 10
-29.69241085898856
 20
18.44505323405722
 10
-29.50486550753486
 20
18.24938086987914
 10
-29.27114066536289
 20
18.08717755011838
 10
-28.9901962743809
 20
17.95223644957409
 10
-28.65128179798738
 20
17.84395709042703
 10
-28.26674605190051
 20
17.77347526519495
 10
-27.85692710298978
 20
17.74897359266684
 10
-27.44710815407908
 20
17.77347526519494
 10
-27.06257240799221
 20
17.84395709042704
 10
-26.72365793159869
 20
17.9522364495741
 10
-26.44271354061671
 20
18.08717755011838
 10
-26.20898869844874
 20
18.24938086987579
 10
-26.02144334699129
 20
18.44505323405689
 10
-25.89936524467888
 20
18.6670650505735
 10
-25.85692710298981
 20
18.90367413104612
 10
-25.8569271029898
 20
22.16966045475702
  0
LWPOLYLINE
  5
53
100
AcDbEntity
  8
s00e-#def-hidden-edge
  6
DASHED
 62
    7
420
    0
370
   15
100
AcDbPolyline
 90
   17
 70
    0
 43
0
 10
-29.85692710298979
 20
22.16966045475703
 10
-29.8144889613007
 20
22.40626953522961
 10
-29.69241085898828
 20
22.62828135174623
 10
-29.50486550753085
 20
22.82395371592734
 10
-29.27114066536288
 20
22.98615703568473
 10
-28.99019627438672
 20
23.12109813622671
 10
-28.65128179798795
 20
23.22937749537594
 10
-28.26674605190048
 20
23.29985932060816
 10
-27.8569271029898
 20
23.32436099313628
 10
-27.44710815407908
 20
23.29985932060816
 10
-27.06257240799162
 20
23.22937749537592
 10
-26.72365793159288
 20
23.12109813622671
 10
-26.44271354061668
 20
22.98615703568472
 10
-26.20898869844876
 20
22.82395371592735
 10
-26.02144334699127
 20
22.62828135174622
 10
-25.89936524467886
 20
22.40626953522961
 10
-25.87677701489931
 20
22.28033140351779
  0
LWPOLYLINE
  5
54
100
AcDbEntity
  8
s005-#def-solid-edge
  6
CONTINUOUS
 62
    7
420
    0
370
   15
100
AcDbPolyline
 90
   17
 70
    0
 43
0
 10
-43.93840255494092
 20
26.45626750462758
 10
-43.8747453424073
 20
26.81118112533648
 10
-43.69162818893869
 20
27.14419885011143
 10
-43.41031016175252
 20
27.43770739638308
 10
-43.05972289850056
 20
27.68101237601916
 10
-42.63830631203632
 20
27.88342402683212
 10
-42.12993459743813
 20
28.04584306555597
 10
-41.55313097830698
 20
28.1515658034043
 10
-40.93840255494092
 20
28.18831831219645
 10
-40.32367413157485
 20
28.15156580340431
 10
-39.74687051244369
 20
28.04584306555598
 10
-39.23849879784554
 20
27.88342402683215
 10
-38.81708221138128
 20
27.68101237601916
 10
-38.46649494812935
 20
27.43770739638307
 10
-38.18517692094315
 20
27.14419885011142
 10
-38.00205976747452
 20
26.81118112533649
 10
-37.93840255494092
 20
26.45626750462758
  0
LWPOLYLINE
  5
55
100
AcDbEntity
  8
s00e-#def-hidden-edge
  6
DASHED
 62
    7
420
    0
370
   15
100
AcDbPolyline
 90
    3
 70
    0
 43
0
 10
-53.02466773095098
 20
21.11125221361644
 10
-43.03311821713142
 20
26.8798760150416
 10
-43.03311821713145
 20
32.18710379107183
  0
LWPOLYLINE
  5
56
100
AcDbEntity
  8
s00e-#def-hidden-edge
  6
DASHED
 62
    7
420
    0
370
   15
100
AcDbPolyline
 90
   11
 70
    0
 43
0
 10
-59.54161372286442
 20
23.31639460444833
 10
-59.92164710451304
 20
23.26270908096711
 10
-60.44332592003394
 20
23.21652809919549
 10
-60.97001563759893
 20
23.19699370895021
 10
-61.49560979173256
 20
23.20417758101791
 10
-62.01412001634922
 20
23.23753955446203
 10
-62.51989785447103
 20
23.29596519652803
 10
-63.00782787736549
 20
23.37783354306805
 10
-63.47347923767464
 20
23.48110795130186
 10
-63.91320799505475
 20
23.60344130633945
 10
-64.3242081515518
 20
23.74228640345197
  0
LWPOLYLINE
  5
57
100
AcDbEntity
  8
s005-#def-solid-edge
  6
CONTINUOUS
 62
    7
420
    0
370
   15
100
AcDbPolyline
 90
   25
 70
    0
 43
0
 10
-77.51415078050596
 20
23.88338260390693
 10
-77.48323097707014
 20
23.54865980467822
 10
-77.3448165970122
 20
23.22947535119317
 10
-77.11456891942656
 20
22.94129300011312
 10
-76.81513944511728
 20
22.6944908103423
 10
-75.16237076436983
 20
21.55728801906122
 10
-67.03230954484654
 20
15.96332413299177
 10
-65.75785057458874
 20
16.69913336254125
 10
-65.3877487946914
 20
16.89884272995526
 10
-64.988099936816
 20
17.08676015068352
 10
-64.56049144377795
 20
17.26086252073107
 10
-64.10704156851935
 20
17.4192152725355
 10
-63.63038223909994
 20
17.56002904825464
 10
-63.13362039712585
 20
17.68171512127907
 10
-62.62027816144482
 20
17.78293640206396
 10
-62.09421375958171
 20
17.86265092333493
 10
-61.55952670790519
 20
17.92014505747462
 10
-61.02045202248905
 20
17.95505435675476
 10
-60.4812491413628
 20
17.96737076492909
 10
-59.94609162067945
 20
17.95743593268082
 10
-59.41896348846773
 20
17.92592136665621
 10
-58.90356743440727
 20
17.87379703917629
 10
-58.40324888699684
 20
17.80229078826601
 10
-57.92093863446641
 20
17.71284128279706
 10
-57.92093863446641
 20
-1.883076659468372
  0
LWPOLYLINE
  5
58
100
AcDbEntity
  8
s005-#def-solid-edge
  6
CONTINUOUS
 62
    7
420
    0
370
   15
100
AcDbPolyline
 90
   35
 70
    0
 43
0
 10
-67.03230954484654
 20
15.96332413299177
 10
-67.03230954484656
 20
12.28908951881701
 10
-71.41470482408113
 20
9.758912424655584
 10
-78.48577263587589
 20
5.676429519976128
 10
-78.48577263594662
 20
2.818691486769915
 10
-59.50464370299502
 20
-8.140068412192681
 10
-58.77881457291543
 20
-8.529440089784098
 10
-57.98877147900392
 20
-8.894177013601263
 10
-57.13795640859891
 20
-9.229431310568456
 10
-56.23120766423747
 20
-9.530544139251481
 10
-55.27472834736116
 20
-9.793209158317982
 10
-54.27598669858465
 20
-10.01363477499191
 10
-53.2435481229674
 20
-10.18869415799882
 10
-52.18684483609579
 20
-10.31605196779305
 10
-51.1158951060341
 20
-10.39425799337691
 10
-50.04098916616228
 20
-10.42280033378037
 10
-48.97236225086186
 20
-10.40211415196236
 10
-47.9198763317085
 20
-10.33354591266813
 10
-46.89273085031435
 20
-10.21927685554842
 10
-45.89921930271459
 20
-10.06221272881555
 10
-44.94654351724178
 20
-9.865849113042954
 10
-44.04069167532408
 20
-9.634122782718105
 10
-11.82051339745176
 20
-0.5611609002790501
 10
-11.82051339745178
 20
5.97081174714277
 10
-7.421365838965653
 20
7.209578887695191
 10
-6.979110682046758
 20
7.319233572426549
 10
-6.513883080842258
 20
7.404869629073768
 10
-6.031690219080209
 20
7.464341030571925
 10
-5.539276892000689
 20
7.496189993408635
 10
-5.043821482173738
 20
7.499743904872101
 10
-4.552591341723072
 20
7.475157676778787
 10
-4.072591747798143
 20
7.42339632263412
 10
-3.610243450353167
 20
7.346160481813737
 10
-3.610243450353173
 20
-0.8188053274635159
 10
24.32755334857743
 20
15.31108917496411
  0
LWPOLYLINE
  5
59
100
AcDbEntity
  8
s00e-#def-hidden-edge
  6
DASHED
 62
    7
420
    0
370
   15
100
AcDbPolyline
 90
    3
 70
    0
 43
0
 10
-68.23272430874165
 20
-0.6514189821729228
 10
-71.41470482408113
 20
-2.488536289260309
 10
-76.01089890174774
 20
-5.142150177301957
  0
LWPOLYLINE
  5
5A
100
AcDbEntity
  8
s005-#def-solid-edge
  6
CONTINUOUS
 62
    7
420
    0
370
   15
100
AcDbPolyline
 90
   10
 70
    0
 43
0
 10
-78.48577263594662
 20
2.818691486769915
 10
-71.41470482408113
 20
6.90117439140854
 10
-71.83943941972899
 20
6.632834135267201
 10
-72.23274177166904
 20
6.33346277225758
 10
-72.58560309240784
 20
6.004532630372683
 10
-72.8891505017701
 20
5.648609497623781
 10
-73.13513111890293
 20
5.26937572176309
 10
-73.31642385986353
 20
4.871568139815633
 10
-73.42752613590756
 20
4.460823461431279
 10
-73.4649573557753
 20
4.043436358161507
  0
LWPOLYLINE
  5
5B
100
AcDbEntity
  8
s005-#def-solid-edge
  6
CONTINUOUS
 62
    7
420
    0
370
   15
100
AcDbPolyline
 90
    9
 70
    0
 43
0
 10
-18.96180155911095
 20
1.681404183977789
 10
-18.96956032738518
 20
2.159782989444149
 10
-19.07742671356479
 20
2.641121230060761
 10
-19.28633255630527
 20
3.11491192917671
 10
-19.59280108064583
 20
3.570671944398884
 10
-19.98911876478964
 20
3.998701131932501
 10
-20.46395899351646
 20
4.390758015656456
 10
-21.00335568550237
 20
4.74055556665285
 10
-11.82051339745176
 20
-0.5611609002790501
  0
LWPOLYLINE
  5
5C
100
AcDbEntity
  8
s00e-#def-hidden-edge
  6
DASHED
 62
    7
420
    0
370
   15
100
AcDbPolyline
 90
   11
 70
    0
 43
0
 10
-78.48577263594662
 20
-3.713281160651892
 10
-71.41470482408113
 20
0.3692017439867317
 10
-71.83943941972886
 20
0.1008614878454828
 10
-72.23274177166903
 20
-0.1985098751642265
 10
-72.58560309240785
 20
-0.5274400170491442
 10
-72.88915050177008
 20
-0.8833631497980536
 10
-73.13513111890295
 20
-1.262596925658705
 10
-73.31642385986352
 20
-1.66040450760619
 10
-73.42752613590753
 20
-2.071149185990545
 10
-73.4649573557753
 20
-2.488536289260295
 10
-73.4649573557753
 20
4.043436358161507
  0
LWPOLYLINE
  5
5D
100
AcDbEntity
  8
s00e-#def-hidden-edge
  6
DASHED
 62
    7
420
    0
370
   15
100
AcDbPolyline
 90
   37
 70
    0
 43
0
 10
-73.4649573557753
 20
-2.488536289260295
 10
-73.42752613590753
 20
-2.905923392530088
 10
-73.31642385986352
 20
-3.316668070914453
 10
-73.13513111890293
 20
-3.714475652861917
 10
-72.8891505017701
 20
-4.093709428722569
 10
-72.58560309240785
 20
-4.449632561471489
 10
-72.232741771669
 20
-4.778562703356425
 10
-71.83943941972888
 20
-5.077934066366108
 10
-71.41470482408113
 20
-5.346274322507345
 10
-57.38332335943537
 20
-13.4472961882229
 10
-56.81878959159569
 20
-13.75014082634957
 10
-56.20431162966453
 20
-14.03382510042957
 10
-55.54256657490508
 20
-14.29457844251517
 10
-54.83731755151285
 20
-14.52877730926863
 10
-54.09338919394239
 20
-14.73307232409814
 10
-53.31659013378287
 20
-14.90451447040009
 10
-52.51358235274723
 20
-15.04067176829434
 10
-51.69170201851375
 20
-15.13972784257875
 10
-50.85874111735466
 20
-15.2005547513662
 10
-50.02270316412103
 20
-15.22275434945777
 10
-49.19154889666516
 20
-15.20666509693265
 10
-48.37294873732366
 20
-15.15333424414824
 10
-47.57405780735044
 20
-15.0644583108329
 10
-46.80132660366171
 20
-14.94229732337402
 10
-46.06035654829399
 20
-14.789570066662
 10
-45.35580511569131
 20
-14.60933847640934
 10
-22.88450512628467
 20
-8.281588006053996
 10
-22.17724449081054
 20
-8.05223662724609
 10
-21.50719312808256
 20
-7.770793788556022
 10
-20.89110148670463
 20
-7.44057883213549
 10
-20.34432646497079
 20
-7.067255198431722
 10
-19.87963125778228
 20
-6.658544667104446
 10
-19.50621467057412
 20
-6.223705725539119
 10
-19.22912052286654
 20
-5.77284807012019
 10
-19.0491039430476
 20
-5.316187071725357
 10
-18.96180155911096
 20
-4.850568463444027
 10
-18.96180155911095
 20
1.681404183977789
  0
LWPOLYLINE
  5
5E
100
AcDbEntity
  8
s00e-#def-hidden-edge
  6
DASHED
 62
    7
420
    0
370
   15
100
AcDbPolyline
 90
    9
 70
    0
 43
0
 10
-18.96180155911096
 20
-4.850568463444027
 10
-18.9695603273852
 20
-4.372189657977657
 10
-19.07742671356482
 20
-3.890851417361031
 10
-19.28633255630526
 20
-3.417060718245096
 10
-19.59280108064583
 20
-2.961300703022925
 10
-19.98911876478964
 20
-2.533271515489311
 10
-20.46395899351644
 20
-2.141214631765356
 10
-21.00335568550238
 20
-1.791417080768956
 10
-11.82051339745178
 20
-7.09313354770085
  0
LWPOLYLINE
  5
5F
100
AcDbEntity
  8
s00e-#def-hidden-edge
  6
DASHED
 62
    7
420
    0
370
   15
100
AcDbPolyline
 90
    4
 70
    0
 43
0
 10
13.26874000951237
 20
32.56019793819063
 10
13.26874000951237
 20
18.67975606241929
 10
13.27441626477263
 20
18.68303324992258
 10
13.2744162647726
 20
32.56347512569393
  0
LWPOLYLINE
  5
60
100
AcDbEntity
  8
s00e-#def-hidden-edge
  6
DASHED
 62
    7
420
    0
370
   15
100
AcDbPolyline
 90
   34
 70
    0
 43
0
 10
0.695908520628997
 20
15.38449523174025
 10
0.695908520628997
 20
8.134162864116746
 10
1.45183066767566
 20
8.663529526662938
 10
2.180868031272878
 20
9.208425129474318
 10
2.881628240833466
 20
9.76816571454237
 10
3.552789054411077
 20
10.34201302861302
 10
4.193106171284468
 20
10.92917756006021
 10
4.801420561921299
 20
11.52882201978089
 10
5.376665227927989
 20
12.14006523556756
 10
5.9178713113961
 20
12.76198642292542
 10
6.42417348147036
 20
13.39362978939493
 10
6.89481453581428
 20
14.03400942426552
 10
7.329149165729902
 20
14.68211442124594
 10
7.726646845739914
 20
15.3369141783006
 10
8.086893821191694
 20
15.99736381654168
 10
8.409594180592373
 20
16.66240965883704
 10
8.694570012625569
 20
17.33099470866673
 10
8.941760660834195
 20
18.00206407072496
 10
9.028286892937786
 20
18.18921113809102
 10
9.161879817696956
 20
18.37310672750692
 10
9.342055289362587
 20
18.54791342759193
 10
9.565443135436688
 20
18.70787361447681
 10
9.825909326797653
 20
18.84789894206234
 10
10.11509927174012
 20
18.96409493097462
 10
10.42330548065511
 20
19.05411116238467
 10
10.74047731563642
 20
19.1172535686523
 10
11.06943684058899
 20
19.15530832856561
 10
11.41418269580386
 20
19.16755752279395
 10
11.76543457006712
 20
19.1516676035546
 10
12.11275844191881
 20
19.10683442395022
 10
12.44553619077674
 20
19.03398095502469
 10
12.75402084001625
 20
18.93570825797322
 10
13.03026454692782
 20
18.81600132785174
 10
13.26874000951237
 20
18.67975606241929
  0
LWPOLYLINE
  5
61
100
AcDbEntity
  8
s005-#def-solid-edge
  6
CONTINUOUS
 62
    7
420
    0
370
   15
100
AcDbPolyline
 90
    9
 70
    0
 43
0
 10
13.95223744608354
 20
34.46899243830583
 10
14.22278112916153
 20
34.21694261609461
 10
14.9011165993433
 20
33.52567553175744
 10
15.49632115508995
 20
32.78778593658912
 10
15.99607290363021
 20
32.0079923073227
 10
16.38906840535087
 20
31.19235394532847
 10
16.66554802284576
 20
30.34818262372145
 10
16.81779346048527
 20
29.48387363346793
 10
16.84055467597812
 20
28.60866004400855
  0
LWPOLYLINE
  5
62
100
AcDbEntity
  8
s005-#def-solid-edge
  6
CONTINUOUS
 62
    7
420
    0
370
   15
100
AcDbPolyline
 90
    3
 70
    0
 43
0
 10
-3.610243450353167
 20
7.346160481813737
 10
-3.249611117697936
 20
7.554371656150719
 10
24.32755334857742
 20
23.47605498424138
  0
LWPOLYLINE
  5
63
100
AcDbEntity
  8
s005-#def-solid-edge
  6
CONTINUOUS
 62
    7
420
    0
370
   15
100
AcDbPolyline
 90
   30
 70
    0
 43
0
 10
75.56993869738746
 20
-10.06558891883619
 10
75.47607363763046
 20
-10.67820983541026
 10
75.26680281333213
 20
-11.28856419653533
 10
74.94276550378427
 20
-11.88580198227421
 10
74.508661803286
 20
-12.45928057046372
 10
73.97303801063329
 20
-12.99918758995258
 10
73.34774083242047
 20
-13.49709228318694
 10
72.6471114231658
 20
-13.94636162848936
 10
53.31893137722587
 20
-25.10549158095832
 10
52.65496143815062
 20
-25.45580677114599
 10
51.91420942234505
 20
-25.7801970836682
 10
51.10031839679424
 20
-26.07123219583275
 10
50.2196370403511
 20
-26.32159387941433
 10
49.28127680072699
 20
-26.52447527301015
 10
48.29695830991397
 20
-26.67400300557548
 10
47.28062880719931
 20
-26.76563861840632
 10
46.24786356536039
 20
-26.79651136821595
 10
45.21509832352148
 20
-26.76563861840632
 10
44.19876882080683
 20
-26.67400300557547
 10
43.2144503299938
 20
-26.52447527301015
 10
42.2760900903697
 20
-26.32159387941433
 10
41.39540873392653
 20
-26.07123219583275
 10
40.58151770837574
 20
-25.78019708366819
 10
39.84076569257017
 20
-25.45580677114599
 10
39.17679575349492
 20
-25.10549158095833
 10
-1.69397619908753
 20
-1.508740392147042
 10
-2.117260373038225
 20
-1.290638163528784
 10
-2.583758793955685
 20
-1.100492101683171
 10
-3.084767056354099
 20
-0.9422959447206314
 10
-3.610243450353173
 20
-0.8188053274635159
  0
LWPOLYLINE
  5
64
100
AcDbEntity
  8
s005-#def-solid-edge
  6
CONTINUOUS
 62
    7
420
    0
370
   15
100
AcDbPolyline
 90
    8
 70
    0
 43
0
 10
13.95223744608357
 20
32.01950269552265
 10
14.22278112916153
 20
31.76745287331142
 10
14.9011165993433
 20
31.07618578897429
 10
15.49632115508994
 20
30.33829619380593
 10
15.99607290363024
 20
29.55850256453953
 10
16.38906840535086
 20
28.74286420254529
 10
16.66554802284576
 20
27.89869288093827
 10
16.71035157661279
 20
27.64433968049726
  0
LWPOLYLINE
  5
65
100
AcDbEntity
  8
s00e-#def-hidden-edge
  6
DASHED
 62
    7
420
    0
370
   15
100
AcDbPolyline
 90
    4
 70
    0
 43
0
 10
16.71035157661279
 20
27.64433968049726
 10
16.81779346048528
 20
27.03438389068476
 10
16.84055467597813
 20
26.15917030122538
 10
16.84055467597812
 20
28.60866004400855
  0
LWPOLYLINE
  5
66
100
AcDbEntity
  8
s00e-#def-hidden-edge
  6
DASHED
 62
    7
420
    0
370
   15
100
AcDbPolyline
 90
   13
 70
    0
 43
0
 10
16.84055467597813
 20
26.15917030122538
 10
16.80249352146919
 20
25.72051339382164
 10
16.73136564636372
 20
25.2828128584257
 10
16.62732609136045
 20
24.84731306061882
 10
16.49071656113862
 20
24.41524588413891
 10
16.12206317899334
 20
23.56620539859323
 10
15.63167049342228
 20
22.74486832221118
 10
15.02830491062397
 20
21.95953047282069
 10
14.32280407416371
 20
21.21734634319683
 10
13.52756396741667
 20
20.52414620482327
 10
12.65598765689689
 20
19.8843372848856
 10
11.72193887202317
 20
19.3008870804275
 10
-13.71479147925884
 20
4.614983964810904
  0
LWPOLYLINE
  5
67
100
AcDbEntity
  8
s005-#def-solid-edge
  6
CONTINUOUS
 62
    7
420
    0
370
   15
100
AcDbPolyline
 90
   25
 70
    0
 43
0
 10
-13.71479147925884
 20
4.614983964810904
 10
-38.67566085514406
 20
19.02614861818533
 10
-39.48330772208624
 20
19.43959357861269
 10
-39.92596524596479
 20
19.62783557211078
 10
-40.3922719873234
 20
19.80171321000158
 10
-40.88010903445854
 20
19.95982216424022
 10
-41.38703583118058
 20
20.10090039107012
 10
-41.91032731934936
 20
20.22385802107528
 10
-42.44702085521239
 20
20.32780320079659
 10
-42.99397128896743
 20
20.41206267230029
 10
-43.54791209534501
 20
20.47619612937508
 10
-44.10552007732858
 20
20.52000371593075
 10
-44.66348097011661
 20
20.54352640645132
 10
-45.21855326504239
 20
20.54703939747732
 10
-45.76762775045278
 20
20.53103900929422
 10
-46.83631835548803
 20
20.44347178121691
 10
-47.46926657458313
 20
20.35514051918313
 10
-48.09442666229076
 20
20.23959129074118
 10
-48.70657118449369
 20
20.09720931765109
 10
-49.30057089054355
 20
19.92882393609241
 10
-49.87153535072214
 20
19.73569518269348
 10
-50.41494622128003
 20
19.51948277123531
 10
-50.92677558426087
 20
19.28219903739626
 10
-51.40358291650185
 20
19.02614861818529
 10
-53.87845665065474
 20
17.59727960156175
  0
LWPOLYLINE
  5
68
100
AcDbEntity
  8
s00e-#def-hidden-edge
  6
DASHED
 62
    7
420
    0
370
   15
100
AcDbPolyline
 90
    6
 70
    0
 43
0
 10
6.43775178455778
 20
18.69954998581417
 10
7.851965346930863
 20
17.88305340488645
 10
7.851965346930863
 20
4.002611529115108
 10
-1.340422808494256
 20
-1.304616246915112
 10
-1.340422808494256
 20
12.57582562885623
 10
7.851965346930863
 20
17.88305340488645
  0
LWPOLYLINE
  5
69
100
AcDbEntity
  8
s005-#def-solid-edge
  6
CONTINUOUS
 62
    7
420
    0
370
   15
100
AcDbPolyline
 90
   13
 70
    0
 43
0
 10
20.15098174787766
 20
28.14263056517061
 10
20.17280512280243
 20
28.74546180203216
 10
20.30004674691214
 20
29.35009608531863
 10
20.53318028181459
 20
29.94730226477341
 10
20.86944942897715
 20
30.52788816657133
 10
21.30296654411539
 20
31.08316623245794
 10
21.82504596276341
 20
31.60538133524136
 10
22.42473362546842
 20
32.0880572985694
 10
27.44926016551268
 20
35.74015408120728
 10
27.64407162322009
 20
35.91084421115194
 10
27.7897504653706
 20
36.10953329322095
 10
27.8705348573923
 20
36.32866699262097
 10
27.87586530774333
 20
36.55707281039767
  0
LWPOLYLINE
  5
6A
100
AcDbEntity
  8
s00e-#def-hidden-edge
  6
DASHED
 62
    7
420
    0
370
   15
100
AcDbPolyline
 90
    3
 70
    0
 43
0
 10
-9.118597401546278
 20
17.06655682395873
 10
-9.118597401546278
 20
3.186114948187382
 10
-1.340422808494256
 20
-1.304616246915112
  0
LWPOLYLINE
  5
6B
100
AcDbEntity
  8
s00e-#def-hidden-edge
  6
DASHED
 62
    7
420
    0
370
   15
100
AcDbPolyline
 90
   11
 70
    0
 43
0
 10
24.32755334857741
 20
12.04510285125323
 10
71.59419384282082
 20
-8.518940780459651
 10
72.39630334380452
 20
-8.907541154206953
 10
73.13553752989282
 20
-9.350356627375973
 10
73.79609589144016
 20
-9.841971065503241
 10
74.36421473791998
 20
-10.37498766074091
 10
74.82906562255944
 20
-10.9403762442749
 10
75.18342873602543
 20
-11.52797542743474
 10
75.42405557017348
 20
-12.12709214906286
 10
75.55168411389856
 20
-12.72712585862274
 10
75.56993869738746
 20
-13.3315752425471
  0
LWPOLYLINE
  5
6C
100
AcDbEntity
  8
s005-#def-solid-edge
  6
CONTINUOUS
 62
    7
420
    0
370
   15
100
AcDbPolyline
 90
   17
 70
    0
 43
0
 10
40.96968897230838
 20
-8.367311671939934
 10
40.91664129519704
 20
-8.071550321349196
 10
40.76404366730652
 20
-7.794035550703415
 10
40.52961197798469
 20
-7.54944509547704
 10
40.23745592527475
 20
-7.346690945780285
 10
39.88627543655453
 20
-7.178014570102814
 10
39.46263234105606
 20
-7.042665371166281
 10
38.98196265844676
 20
-6.954563089626005
 10
38.46968897230838
 20
-6.923935998965874
 10
37.95741528616998
 20
-6.954563089625999
 10
37.4767456035607
 20
-7.042665371166279
 10
37.05310250806222
 20
-7.17801457010283
 10
36.70192201934201
 20
-7.346690945780278
 10
36.40976596662705
 20
-7.549445095481241
 10
36.17533427730993
 20
-7.794035550703827
 10
36.02273664941973
 20
-8.071550321349168
 10
35.96968897230838
 20
-8.367311671939937
  0
LWPOLYLINE
  5
6D
100
AcDbEntity
  8
s00e-#def-hidden-edge
  6
DASHED
 62
    7
420
    0
370
   15
100
AcDbPolyline
 90
    6
 70
    0
 43
0
 10
42.65850579026528
 20
-17.34877406214491
 10
42.6216733382164
 20
-17.40555947079833
 10
42.38858267126707
 20
-17.91702636187364
 10
42.24573688778191
 20
-18.44512666265354
 10
42.19761103366623
 20
-18.98176722400038
 10
42.19761103366623
 20
-15.71578090028947
  0
LWPOLYLINE
  5
6E
100
AcDbEntity
  8
s00e-#def-hidden-edge
  6
DASHED
 62
    7
420
    0
370
   15
100
AcDbPolyline
 90
   34
 70
    0
 43
0
 10
42.19761103366623
 20
-18.98176722400038
 10
42.24573688778193
 20
-19.51840778534723
 10
42.38858267126707
 20
-20.04650808612713
 10
42.62167333821641
 20
-20.55797497720244
 10
42.93793413167293
 20
-21.04556126045187
 10
43.32820937228154
 20
-21.50317671684334
 10
43.78188821323148
 20
-21.92608689926684
 10
44.28756266572592
 20
-22.31099293742213
 10
44.83365000298731
 20
-22.65600183817515
 10
45.43122294815503
 20
-22.97128550934405
 10
46.09789976238003
 20
-23.26323679061403
 10
46.83040168537579
 20
-23.52516839156213
 10
47.6230149061746
 20
-23.75049390678555
 10
48.4675391218363
 20
-23.9330871610218
 10
49.35342576356802
 20
-24.06766212033059
 10
50.2681223160112
 20
-24.15013417187835
 10
51.19761103366625
 20
-24.17791964670701
 10
52.12709975132125
 20
-24.15013417187834
 10
53.04179630376443
 20
-24.06766212033059
 10
53.92768294549616
 20
-23.9330871610218
 10
54.77220716115785
 20
-23.75049390678556
 10
55.56482038195668
 20
-23.52516839156214
 10
56.29732230495231
 20
-23.26323679061407
 10
56.9639991191772
 20
-22.97128550934416
 10
57.56157206434516
 20
-22.65600183817514
 10
58.10765940160673
 20
-22.31099293742199
 10
58.61333385410104
 20
-21.92608689926677
 10
59.06701269505095
 20
-21.50317671684332
 10
59.45728793565954
 20
-21.04556126045188
 10
59.77354872911607
 20
-20.55797497720243
 10
60.00663939606539
 20
-20.04650808612713
 10
60.14948517955055
 20
-19.51840778534723
 10
60.19761103366623
 20
-18.98176722400039
 10
60.19761103366623
 20
-15.71578090028948
  0
LWPOLYLINE
  5
6F
100
AcDbEntity
  8
s00e-#def-hidden-edge
  6
DASHED
 62
    7
420
    0
370
   15
100
AcDbPolyline
 90
    5
 70
    0
 43
0
 10
60.19761103366623
 20
-18.98176722400039
 10
60.14948517955055
 20
-18.44512666265354
 10
60.0066393960654
 20
-17.91702636187364
 10
59.77354872911604
 20
-17.40555947079834
 10
59.73671627706717
 20
-17.34877406214496
  0
LWPOLYLINE
  5
70
100
AcDbEntity
  8
s00e-#def-hidden-edge
  6
DASHED
 62
    7
420
    0
370
   15
100
AcDbPolyline
 90
    3
 70
    0
 43
0
 10
-11.28482491371611
 20
15.81588478668152
 10
-11.28482491371613
 20
1.935442910910147
 10
-9.118597401546278
 20
3.186114948187382
  0
LWPOLYLINE
  5
71
100
AcDbEntity
  8
s005-#def-solid-edge
  6
CONTINUOUS
 62
    7
420
    0
370
   15
100
AcDbPolyline
 90
    3
 70
    0
 43
0
 10
-36.33912527954223
 20
22.17484243731581
 10
-36.25791387431693
 20
22.57704007169774
 10
-34.57444152426199
 20
28.08926066648303
  0
LWPOLYLINE
  5
72
100
AcDbEntity
  8
s005-#def-solid-edge
  6
CONTINUOUS
 62
    7
420
    0
370
   15
100
AcDbPolyline
 90
   33
 70
    0
 43
0
 10
42.19761103366623
 20
-15.71578090028947
 10
42.24573688778191
 20
-15.17914033894263
 10
42.38858267126707
 20
-14.65104003816274
 10
42.6216733382164
 20
-14.13957314708742
 10
42.93793413167291
 20
-13.65198686383799
 10
43.32820937228154
 20
-13.19437140744651
 10
43.78188821323148
 20
-12.77146122502303
 10
44.28756266572592
 20
-12.38655518686774
 10
44.83365000298731
 20
-12.04154628611471
 10
45.431222948155
 20
-11.72626261494582
 10
46.09789976238003
 20
-11.43431133367583
 10
46.83040168537575
 20
-11.17237973272773
 10
47.62301490617458
 20
-10.94705421750431
 10
48.46753912183629
 20
-10.76446096326806
 10
49.35342576356803
 20
-10.62988600395927
 10
50.26812231601121
 20
-10.54741395241151
 10
51.19761103366623
 20
-10.51962847758285
 10
52.12709975132126
 20
-10.54741395241152
 10
53.04179630376446
 20
-10.62988600395928
 10
53.92768294549616
 20
-10.76446096326807
 10
54.77220716115787
 20
-10.94705421750431
 10
55.56482038195671
 20
-11.17237973272773
 10
56.29732230495242
 20
-11.43431133367583
 10
56.96399911917742
 20
-11.72626261494581
 10
57.56157206434516
 20
-12.04154628611471
 10
58.10765940160653
 20
-12.38655518686774
 10
58.61333385410099
 20
-12.77146122502303
 10
59.06701269505092
 20
-13.19437140744653
 10
59.45728793565954
 20
-13.65198686383799
 10
59.77354872911604
 20
-14.13957314708743
 10
60.00663939606539
 20
-14.65104003816273
 10
60.14948517955055
 20
-15.17914033894263
 10
60.19761103366623
 20
-15.71578090028948
  0
LWPOLYLINE
  5
73
100
AcDbEntity
  8
s00e-#def-hidden-edge
  6
DASHED
 62
    7
420
    0
370
   15
100
AcDbPolyline
 90
   19
 70
    0
 43
0
 10
-19.27179594657798
 20
6.607073958528885
 10
-19.7251991193445
 20
6.592189937922973
 10
-20.13830520822677
 20
6.604539037376023
 10
-20.54483701716593
 20
6.641193282979156
 10
-20.93856441349111
 20
6.70100437600528
 10
-21.31390850934076
 20
6.782156933443604
 10
-21.66618105191804
 20
6.882301606876244
 10
-21.99173746213836
 20
6.998715651742069
 10
-22.28803826846058
 20
7.128471776750939
 10
-22.55362624409068
 20
7.268597852826014
 10
-34.59170804336299
 20
14.21878762016262
 10
-35.05780121349682
 20
14.52135511147679
 10
-35.46759563124098
 20
14.86082350940363
 10
-35.80877553303912
 20
15.23166251961521
 10
-36.07136906073303
 20
15.62660191720174
 10
-36.2486229236827
 20
16.03707636307878
 10
-36.33755974172096
 20
16.45383315957298
 10
-36.33912527954222
 20
16.86761466128558
 10
-36.33912527954223
 20
22.17484243731581
  0
LWPOLYLINE
  5
74
100
AcDbEntity
  8
s00e-#def-hidden-edge
  6
DASHED
 62
    7
420
    0
370
   15
100
AcDbPolyline
 90
    3
 70
    0
 43
0
 10
-36.33912527954222
 20
16.86761466128558
 10
-36.25791387431693
 20
17.26981229566752
 10
-35.39191692817209
 20
20.10536002616928
  0
LWPOLYLINE
  5
75
100
AcDbEntity
  8
s005-#def-solid-edge
  6
CONTINUOUS
 62
    7
420
    0
370
   15
100
AcDbPolyline
 90
    3
 70
    0
 43
0
 10
14.7867608487081
 20
46.89329995246652
 10
14.85306299723941
 20
47.0229354328182
 10
14.94348061433243
 20
47.15267277894171
  0
LWPOLYLINE
  5
76
100
AcDbEntity
  8
s005-#def-solid-edge
  6
CONTINUOUS
 62
    7
420
    0
370
   15
100
AcDbPolyline
 90
    3
 70
    0
 43
0
 10
9.65617933043535
 20
47.34378946499634
 10
9.717863561815427
 20
47.2085541909769
 10
9.755642642441202
 20
47.07515655323547
  0
LWPOLYLINE
  5
77
100
AcDbEntity
  8
s005-#def-solid-edge
  6
CONTINUOUS
 62
    7
420
    0
370
   15
100
AcDbPolyline
 90
    3
 70
    0
 43
0
 10
-37.30462037483839
 20
31.19462297911121
 10
-36.51837604650011
 20
29.63658030904646
 10
-34.92388580131674
 20
28.25855048333616
  0
LWPOLYLINE
  5
78
100
AcDbEntity
  8
s00e-#def-hidden-edge
  6
DASHED
 62
    7
420
    0
370
   15
100
AcDbPolyline
 90
    3
 70
    0
 43
0
 10
-34.92388580131674
 20
28.25855048333616
 10
-34.881214571778
 20
28.22167209716745
 10
-34.57444152426199
 20
28.08161067272243
  0
LWPOLYLINE
  5
79
100
AcDbEntity
  8
s005-#def-solid-edge
  6
CONTINUOUS
 62
    7
420
    0
370
   15
100
AcDbPolyline
 90
   23
 70
    0
 43
0
 10
-34.57444152426199
 20
28.08161067272243
 10
-32.56946305578016
 20
27.1662103709326
 10
-29.94246511073496
 20
26.5889892042267
 10
-29.14912655673497
 20
26.6039085390641
 10
-28.4629970918359
 20
26.83432857459058
 10
-28.0483149398031
 20
27.22509386377931
 10
-28.00434221305297
 20
27.6826672532375
 10
-28.00076856062343
 20
27.99345212197602
 10
-27.78949056421735
 20
28.27930527958013
 10
-27.40332253234894
 20
28.49582989408928
 10
-26.90224154333047
 20
28.60939678678011
 10
-24.15947755764126
 20
29.15210374654231
 10
-21.72515785317953
 20
30.21442192000825
 10
-20.00639276423382
 20
31.67013694448089
 10
-19.20162532055537
 20
33.27831356988191
 10
-18.52332917175621
 20
34.30217219078502
 10
-17.10654785891721
 20
35.03193831858643
 10
-15.26758862937666
 20
35.30468609239723
 10
-13.41701317433715
 20
35.05952248887645
 10
5.719730700765027
 20
29.52949033500622
 10
6.802998078842045
 20
29.39137584853532
 10
7.870351684304957
 20
29.56597188460184
 10
7.9371939493996
 20
29.60335723637296
  0
LWPOLYLINE
  5
7A
100
AcDbEntity
  8
s00e-#def-hidden-edge
  6
DASHED
 62
    7
420
    0
370
   15
100
AcDbPolyline
 90
    9
 70
    0
 43
0
 10
7.9371939493996
 20
29.60335723637296
 10
8.667144343619441
 20
30.01162365620078
 10
9.003278794220435
 20
30.62200841945652
 10
9.003278794220414
 20
24.09003577203472
 10
8.982746036745603
 20
26.88070736657172
 10
8.323891057159297
 20
29.6698134460307
 10
7.035561563666814
 20
32.38468822323791
 10
5.158974459405084
 20
34.95648307508202
 10
5.158974459405069
 20
41.48845572250383
  0
LWPOLYLINE
  5
7B
100
AcDbEntity
  8
s005-#def-solid-edge
  6
CONTINUOUS
 62
    7
420
    0
370
   15
100
AcDbPolyline
 90
    4
 70
    0
 43
0
 10
5.158974459405069
 20
41.48845572250383
 10
10.92077692786802
 20
44.81503392868837
 10
13.19352528876639
 20
44.81503392868834
 10
13.19352528876639
 20
38.28306128126654
  0
LWPOLYLINE
  5
7C
100
AcDbEntity
  8
s005-#def-solid-edge
  6
CONTINUOUS
 62
    7
420
    0
370
   15
100
AcDbPolyline
 90
    3
 70
    0
 43
0
 10
13.19352528876639
 20
44.81503392868834
 10
15.94070120682203
 20
46.40111668448903
 10
16.07084885095426
 20
46.57977306233529
  0
LWPOLYLINE
  5
7D
100
AcDbEntity
  8
s00e-#def-hidden-edge
  6
DASHED
 62
    7
420
    0
370
   15
100
AcDbPolyline
 90
    4
 70
    0
 43
0
 10
-34.90244454040345
 20
21.70804733870457
 10
-36.5183760464941
 20
23.10460766161712
 10
-37.30462037483839
 20
24.6626503316894
 10
-37.30462037483839
 20
29.41190781779967
  0
LWPOLYLINE
  5
7E
100
AcDbEntity
  8
s00e-#def-hidden-edge
  6
DASHED
 62
    7
420
    0
370
   15
100
AcDbPolyline
 90
    6
 70
    0
 43
0
 10
3.029401149130112
 20
23.77495448781273
 10
5.719730700765037
 20
22.9975176875844
 10
6.802998078842045
 20
22.85940320111351
 10
7.870351684304957
 20
23.03399923718006
 10
8.667144343619441
 20
23.47965100877897
 10
9.003278794220414
 20
24.09003577203472
  0
LWPOLYLINE
  5
7F
100
AcDbEntity
  8
s00e-#def-hidden-edge
  6
DASHED
 62
    7
420
    0
370
   15
100
AcDbPolyline
 90
    8
 70
    0
 43
0
 10
16.07084885095425
 20
40.04780041491349
 10
15.94745103952996
 20
40.2280462594743
 10
15.64090806826911
 20
40.30704862247524
 10
15.326107283864
 20
40.23973547505578
 10
15.10787802283559
 20
40.19078639325005
 10
14.88979465856734
 20
40.23995174157363
 10
14.7867608487081
 20
40.36132730504471
 10
14.7867608487081
 20
46.89329995246652
  0
LWPOLYLINE
  5
80
100
AcDbEntity
  8
s00e-#def-hidden-edge
  6
DASHED
 62
    7
420
    0
370
   15
100
AcDbPolyline
 90
    4
 70
    0
 43
0
 10
14.7867608487081
 20
40.36132730504471
 10
14.85306299723941
 20
40.49096278539639
 10
14.94348061433243
 20
40.6207001315199
 10
14.94348061433243
 20
46.75982127088677
  0
LWPOLYLINE
  5
81
100
AcDbEntity
  8
s00e-#def-hidden-edge
  6
DASHED
 62
    7
420
    0
370
   15
100
AcDbPolyline
 90
   11
 70
    0
 43
0
 10
14.94348061433243
 20
40.6207001315199
 10
14.90263702751776
 20
40.75854362227955
 10
14.74266378433717
 20
40.86355035838822
 10
14.51107686358721
 20
40.9045307624689
 10
14.2766632636254
 20
40.86931264889448
 10
14.10904957589876
 20
40.76835666161126
 10
13.93167521224589
 20
40.68013273568669
 10
13.69767304575689
 20
40.68441581387641
 10
13.53033402490712
 20
40.77894923001226
 10
13.51782565219048
 20
40.91392526345259
 10
13.51782565219049
 20
47.44589791087439
  0
LWPOLYLINE
  5
82
100
AcDbEntity
  8
s00e-#def-hidden-edge
  6
DASHED
 62
    7
420
    0
370
   15
100
AcDbPolyline
 90
   27
 70
    0
 43
0
 10
13.51782565219048
 20
40.91392526345259
 10
13.52798865178372
 20
41.0536480793627
 10
13.40974000658585
 20
41.17569716829438
 10
13.19820246591564
 20
41.24382095588112
 10
12.9562078702566
 20
41.23778500552494
 10
12.75563455280738
 20
41.15938214259735
 10
12.65605771070464
 20
41.0318999413101
 10
12.5399145410753
 20
40.91453610198081
 10
12.31687512087364
 20
40.87344488136941
 10
12.10445435210536
 20
40.93027640194784
 10
12.01457238683676
 20
41.05508729959885
 10
11.94331327048071
 20
41.18874459863193
 10
11.76124365776344
 20
41.28097860997133
 10
11.52244269145505
 20
41.30439356892551
 10
11.29784011846888
 20
41.25203465810706
 10
11.15414841448814
 20
41.13945375886064
 10
11.1340475416355
 20
41.00009016087698
 10
11.09247778544206
 20
40.86706885485432
 10
10.90602328880648
 20
40.78532378592605
 10
10.67292310687347
 20
40.79792475653275
 10
10.51599295093114
 20
40.89823257336641
 10
10.3714977769932
 20
41.01047015935694
 10
10.14652287116907
 20
41.06229349440887
 10
9.907891301131514
 20
41.03830977632272
 10
9.72648249894462
 20
40.94564275790481
 10
9.65617933043535
 20
40.81181681757453
 10
9.656179330435384
 20
46.98765043746746
  0
LWPOLYLINE
  5
83
100
AcDbEntity
  8
s005-#def-solid-edge
  6
CONTINUOUS
 62
    7
420
    0
370
   15
100
AcDbPolyline
 90
    5
 70
    0
 43
0
 10
-25.92763778110846
 20
31.92679459684336
 10
-26.51342421873535
 20
32.74329117777107
 10
-27.92763778110844
 20
33.08149513522259
 10
-29.34185134348153
 20
32.74329117777106
 10
-29.92763778110843
 20
31.92679459684335
  0
LWPOLYLINE
  5
84
100
AcDbEntity
  8
s00e-#def-hidden-edge
  6
DASHED
 62
    7
420
    0
370
   15
100
AcDbPolyline
 90
   10
 70
    0
 43
0
 10
-50.14779859297576
 20
8.857177850350309
 10
-50.14635356031836
 20
9.21473950565473
 10
-49.85557504859315
 20
9.530440290824473
 10
-45.06307419191664
 20
12.61021225214134
 10
-44.58099674727652
 20
13.05865306684756
 10
-44.39624353352164
 20
13.61363585293494
 10
-44.39624353352166
 20
16.87962217664585
 10
-44.58099674730102
 20
16.32463939052299
 10
-45.06307419191664
 20
15.87619857585224
 10
-46.12366573172994
 20
15.19463790754764
  0
LWPOLYLINE
  5
85
100
AcDbEntity
  8
s00e-#def-hidden-edge
  6
DASHED
 62
    7
420
    0
370
   15
100
AcDbPolyline
 90
    6
 70
    0
 43
0
 10
-34.48466927178809
 20
-5.016135059873852
 10
-34.30977670232485
 20
-5.305782896536947
 10
-33.10370276628822
 20
-5.64211439275531
 10
-31.83895943242344
 20
-5.387559051897945
 10
-31.25641619278757
 20
-4.691231940264599
 10
-31.25641619278756
 20
-4.107083071395142
  0
LWPOLYLINE
  5
86
100
AcDbEntity
  8
s00e-#def-hidden-edge
  6
DASHED
 62
    7
420
    0
370
   15
100
AcDbPolyline
 90
    5
 70
    0
 43
0
 10
-31.25641619278757
 20
-4.691231940264599
 10
-31.31236691683172
 20
-2.526275783001454
 10
-31.90719911445037
 20
-0.3884879365885803
 10
-31.95666469878534
 20
0.1116878804444126
 10
-31.95666469879144
 20
3.377674204125439
  0
LWPOLYLINE
  5
87
100
AcDbEntity
  8
s00e-#def-hidden-edge
  6
DASHED
 62
    7
420
    0
370
   15
100
AcDbPolyline
 90
    3
 70
    0
 43
0
 10
-31.95666469878534
 20
0.1116878804444126
 10
-31.67903339563603
 20
0.6226465982337948
 10
-31.3462829929803
 20
0.8616026905942935
  0
LWPOLYLINE
  5
88
100
AcDbEntity
  8
s00e-#def-hidden-edge
  6
DASHED
 62
    7
420
    0
370
   15
100
AcDbPolyline
 90
   15
 70
    0
 43
0
 10
-22.81468833181545
 20
3.777962869965873
 10
-20.74326884451244
 20
4.670298786239925
 10
-25.01356322103273
 20
7.135754394042856
 10
-25.01356322103272
 20
10.40174071775376
 10
-26.98092997069265
 20
10.27898189552115
 10
-29.01702442632564
 20
10.52337279839629
 10
-30.81611828012627
 20
11.12562487123088
 10
-32.13974208373522
 20
11.97489144490785
 10
-35.25169837598293
 20
14.71532230135563
 10
-36.211763035704
 20
16.08013184147217
 10
-36.211763035704
 20
12.81414551776127
 10
-36.20336880908931
 20
14.28721136039288
 10
-35.13058403830273
 20
17.37715849581512
 10
-35.03463129792971
 20
18.4733856648175
 10
-35.03463129792971
 20
19.81354198221959
  0
LWPOLYLINE
  5
89
100
AcDbEntity
  8
s00e-#def-hidden-edge
  6
DASHED
 62
    7
420
    0
370
   15
100
AcDbPolyline
 90
    7
 70
    0
 43
0
 10
-25.01356322103273
 20
7.135754394042856
 10
-26.98092997070686
 20
7.012995571810599
 10
-29.01702442632563
 20
7.257386474685379
 10
-30.81611828011527
 20
7.859638547514788
 10
-32.13974208373522
 20
8.708905121196946
 10
-35.25169837598294
 20
11.44933597764474
 10
-36.211763035704
 20
12.81414551776127
  0
LWPOLYLINE
  5
8A
100
AcDbEntity
  8
s00e-#def-hidden-edge
  6
DASHED
 62
    7
420
    0
370
   15
100
AcDbPolyline
 90
   16
 70
    0
 43
0
 10
-35.03463129792971
 20
18.4733856648175
 10
-35.49424288776879
 20
19.53845313264096
 10
-39.25102008092936
 20
24.79251988395096
 10
-40.29069292797252
 20
25.52921135912498
 10
-41.86177801105285
 20
25.81249818631815
 10
-43.44283891474382
 20
25.54835867994519
 10
-44.50912829145102
 20
24.82445961175441
 10
-48.06133087438291
 20
20.1385396387521
 10
-48.59326871998501
 20
19.04021677891289
 10
-48.59326871998448
 20
22.30620310262596
 10
-48.56634211591852
 20
21.11765748522215
 10
-47.94855302933133
 20
19.98378745439349
 10
-46.84873106688663
 20
19.03645983844002
 10
-45.06038263601996
 20
17.88364062723945
 10
-44.57950829732003
 20
17.43476944090097
 10
-44.39624353352166
 20
16.87962217664585
  0
LWPOLYLINE
  5
8B
100
AcDbEntity
  8
s00e-#def-hidden-edge
  6
DASHED
 62
    7
420
    0
370
   15
100
AcDbPolyline
 90
   10
 70
    0
 43
0
 10
-48.59326871998448
 20
22.30620310262596
 10
-48.06133087438292
 20
23.40452596246301
 10
-44.50912829145102
 20
28.09044593546532
 10
-43.44283891474382
 20
28.81434500365609
 10
-41.86177801105285
 20
29.07848451002906
 10
-40.29069292797256
 20
28.79519768283588
 10
-39.25102008092936
 20
28.05850620766186
 10
-35.49424288776879
 20
22.80443945635187
 10
-35.03463129792971
 20
21.73937198852841
 10
-35.03463129792971
 20
21.27522611228505
  0
LWPOLYLINE
  5
8C
100
AcDbEntity
  8
s005-#def-solid-edge
  6
CONTINUOUS
 62
    7
420
    0
370
   15
100
AcDbPolyline
 90
   15
 70
    0
 43
0
 10
-50.14779859297578
 20
12.12316417406123
 10
-49.8595749496984
 20
11.80668340497332
 10
-49.34854040128111
 20
11.6046959544758
 10
-46.25106122857669
 20
10.777998021767
 10
-43.30128941262272
 20
9.643203485354619
 10
-40.63294407257532
 20
8.214999636330132
 10
-38.3713778972572
 20
6.533464236310001
 10
-36.61590023275543
 20
4.66124063505038
 10
-35.4258465839152
 20
2.67603385575004
 10
-34.81429003584589
 20
0.6602272947324968
 10
-34.75067948602781
 20
-1.309596668563424
 10
-34.30977670232485
 20
-2.03979657282604
 10
-33.10370276628822
 20
-2.376128069044405
 10
-31.83895943242342
 20
-2.121572728187054
 10
-31.25641619278756
 20
-1.42524561655369
  0
LWPOLYLINE
  5
8D
100
AcDbEntity
  8
s005-#def-solid-edge
  6
CONTINUOUS
 62
    7
420
    0
370
   15
100
AcDbPolyline
 90
    5
 70
    0
 43
0
 10
-31.95666469879144
 20
3.377674204125439
 10
-31.67903339563602
 20
3.888632921944694
 10
-31.09786054755801
 20
4.305987166000911
 10
-30.3503197225848
 20
4.560386525785726
 10
-25.27819178773128
 20
5.98388846962465
  0
LWPOLYLINE
  5
8E
100
AcDbEntity
  8
s00e-#def-hidden-edge
  6
DASHED
 62
    7
420
    0
370
   15
100
AcDbPolyline
 90
    4
 70
    0
 43
0
 10
-25.27819178773128
 20
5.98388846962465
 10
-25.27033884813486
 20
5.986092411426577
 10
-20.74326884451244
 20
7.936285109950834
 10
-20.74326884451244
 20
4.670298786239925
  0
LWPOLYLINE
  5
8F
100
AcDbEntity
  8
s00e-#def-hidden-edge
  6
DASHED
 62
    7
420
    0
370
   15
100
AcDbPolyline
 90
    3
 70
    0
 43
0
 10
-36.211763035704
 20
16.08013184147217
 10
-36.20336880908933
 20
17.55319768410379
 10
-35.3339629128004
 20
20.05735166905217
  0
LWPOLYLINE
  5
90
100
AcDbEntity
  8
s005-#def-solid-edge
  6
CONTINUOUS
 62
    7
420
    0
370
   15
100
AcDbPolyline
 90
    3
 70
    0
 43
0
 10
-35.3339629128004
 20
20.05735166905217
 10
-35.13058403830273
 20
20.64314481952603
 10
-35.09157932845022
 20
21.08876025993091
  0
LWPOLYLINE
  5
91
100
AcDbEntity
  8
s005-#def-solid-edge
  6
CONTINUOUS
 62
    7
420
    0
370
   15
100
AcDbPolyline
 90
   17
 70
    0
 43
0
 10
-75.28369110792947
 20
11.51438007365019
 10
-75.32612924961853
 20
11.75098915412279
 10
-75.44820735193095
 20
11.9730009706394
 10
-75.63575270338841
 20
12.16867333482051
 10
-75.86947754555636
 20
12.33087665457791
 10
-76.15042193653254
 20
12.4658177551199
 10
-76.48933641293132
 20
12.57409711426912
 10
-76.87387215901873
 20
12.64457893950133
 10
-77.28369110792947
 20
12.66908061202944
 10
-77.69351005684015
 20
12.64457893950132
 10
-78.07804580292759
 20
12.57409711426911
 10
-78.4169602793264
 20
12.46581775511989
 10
-78.69790467030256
 20
12.33087665457791
 10
-78.93162951247052
 20
12.16867333482051
 10
-79.119174863928
 20
11.97300097063942
 10
-79.24125296624038
 20
11.75098915412281
 10
-79.28369110792947
 20
11.51438007365019
  0
LWPOLYLINE
  5
92
100
AcDbEntity
  8
s005-#def-solid-edge
  6
CONTINUOUS
 62
    7
420
    0
370
   15
100
AcDbPolyline
 90
   33
 70
    0
 43
0
 10
34.74176691095051
 20
-1.018842443590408
 10
34.69364105683484
 20
-0.4822018822435619
 10
34.55079527334968
 20
0.04589841853633359
 10
34.31770460640034
 20
0.5573653096116364
 10
34.00144381294383
 20
1.04495159286108
 10
33.61116857233522
 20
1.502567049252548
 10
33.15748973138526
 20
1.925477231676043
 10
32.65181527889081
 20
2.310383269831325
 10
32.10572794162945
 20
2.65539217058436
 10
31.50815499646171
 20
2.97067584175325
 10
30.84147818223671
 20
3.262627123023242
 10
30.10897625924099
 20
3.524558723971337
 10
29.31636303844216
 20
3.749884239194772
 10
28.47183882278046
 20
3.932477493431009
 10
27.58595218104874
 20
4.067052452739795
 10
26.67125562860555
 20
4.149524504287548
 10
25.74176691095052
 20
4.177309979116231
 10
24.8122781932955
 20
4.149524504287554
 10
23.89758164085231
 20
4.067052452739804
 10
23.01169499912058
 20
3.932477493431009
 10
22.16717078345888
 20
3.749884239194748
 10
21.37455756266004
 20
3.524558723971341
 10
20.64205563966432
 20
3.262627123023247
 10
19.97537882543929
 20
2.97067584175325
 10
19.37780588027159
 20
2.655392170584362
 10
18.83171854301023
 20
2.310383269831331
 10
18.32604409051578
 20
1.925477231676039
 10
17.87236524956582
 20
1.502567049252554
 10
17.4820900089572
 20
1.044951592861083
 10
17.1658292155007
 20
0.5573653096116364
 10
16.93273854855135
 20
0.04589841853633359
 10
16.7898927650662
 20
-0.482201882243561
 10
16.74176691095052
 20
-1.018842443590402
  0
LWPOLYLINE
  5
93
100
AcDbEntity
  8
s00e-#def-hidden-edge
  6
DASHED
 62
    7
420
    0
370
   15
100
AcDbPolyline
 90
    6
 70
    0
 43
0
 10
34.28087215435146
 20
-2.651835605445862
 10
34.31770460640034
 20
-2.708621014099271
 10
34.55079527334968
 20
-3.220087905174571
 10
34.69364105683484
 20
-3.748188205954468
 10
34.74176691095051
 20
-4.284828767301313
 10
34.74176691095051
 20
-1.018842443590408
  0
LWPOLYLINE
  5
94
100
AcDbEntity
  8
s00e-#def-hidden-edge
  6
DASHED
 62
    7
420
    0
370
   15
100
AcDbPolyline
 90
   34
 70
    0
 43
0
 10
34.74176691095051
 20
-4.284828767301313
 10
34.69364105683484
 20
-4.821469328648149
 10
34.55079527334967
 20
-5.349569629428057
 10
34.31770460640034
 20
-5.861036520503364
 10
34.00144381294383
 20
-6.348622803752799
 10
33.61116857233524
 20
-6.806238260144244
 10
33.15748973138524
 20
-7.229148442567769
 10
32.65181527889081
 20
-7.614054480723064
 10
32.10572794162945
 20
-7.959063381476072
 10
31.5081549964615
 20
-8.274347052645092
 10
30.8414781822366
 20
-8.566298333915004
 10
30.10897625924097
 20
-8.828229934863067
 10
29.31636303844213
 20
-9.053555450086487
 10
28.47183882278045
 20
-9.236148704322726
 10
27.58595218104871
 20
-9.370723663631523
 10
26.67125562860555
 20
-9.45319571517928
 10
25.74176691095052
 20
-9.48098119000794
 10
24.8122781932955
 20
-9.453195715179263
 10
23.89758164085231
 20
-9.370723663631519
 10
23.01169499912058
 20
-9.236148704322726
 10
22.16717078345889
 20
-9.05355545008649
 10
21.37455756266005
 20
-8.828229934863058
 10
20.64205563966433
 20
-8.566298333914959
 10
19.97537882543931
 20
-8.274347052644986
 10
19.37780588027158
 20
-7.959063381476074
 10
18.83171854301022
 20
-7.614054480723063
 10
18.32604409051578
 20
-7.229148442567771
 10
17.87236524956582
 20
-6.806238260144268
 10
17.48209000895722
 20
-6.348622803752807
 10
17.16582921550069
 20
-5.861036520503372
 10
16.93273854855136
 20
-5.349569629428054
 10
16.78989276506622
 20
-4.821469328648166
 10
16.74176691095052
 20
-4.284828767301319
 10
16.74176691095052
 20
-1.018842443590402
  0
LWPOLYLINE
  5
95
100
AcDbEntity
  8
s00e-#def-hidden-edge
  6
DASHED
 62
    7
420
    0
370
   15
100
AcDbPolyline
 90
    5
 70
    0
 43
0
 10
16.74176691095052
 20
-4.284828767301319
 10
16.7898927650662
 20
-3.748188205954468
 10
16.93273854855135
 20
-3.220087905174571
 10
17.1658292155007
 20
-2.708621014099268
 10
17.20266166754958
 20
-2.651835605445869
  0
LWPOLYLINE
  5
96
100
AcDbEntity
  8
s00e-#def-hidden-edge
  6
DASHED
 62
    7
420
    0
370
   15
100
AcDbPolyline
 90
   11
 70
    0
 43
0
 10
3.078489552983768
 20
43.85489328241282
 10
3.078489552983768
 20
37.32292063499101
 10
8.54112930057812
 20
40.47677716375056
 10
8.693729813030288
 20
40.53435489293646
 10
8.873529482242809
 20
40.5517194166016
 10
9.050278466475795
 20
40.5259492939277
 10
9.194240177090698
 20
40.46138013985725
 10
9.400190803439699
 20
40.39709849990629
 10
9.627192467623743
 20
40.43017564536743
 10
9.75564264244121
 20
40.54318390581365
 10
9.755642642441202
 20
47.07515655323547
  0
LWPOLYLINE
  5
97
100
AcDbEntity
  8
s00e-#def-hidden-edge
  6
DASHED
 62
    7
420
    0
370
   15
100
AcDbPolyline
 90
    7
 70
    0
 43
0
 10
-2.920312104100105
 20
40.84958363615786
 10
-2.920312104100105
 20
35.61663753336127
 10
1.222008756509041
 20
37.51293267454315
 10
1.695979768123365
 20
37.64814904921251
 10
2.224313607854306
 20
37.65913809803541
 10
2.713908605523464
 20
37.54396335826401
 10
3.078489552983768
 20
37.32292063499101
  0
LWPOLYLINE
  5
98
100
AcDbEntity
  8
s00e-#def-hidden-edge
  6
DASHED
 62
    7
420
    0
370
   15
100
AcDbPolyline
 90
    7
 70
    0
 43
0
 10
-9.477408665532654
 20
40.35787849952467
 10
-9.477408665532654
 20
33.82590585210286
 10
-8.91821969297672
 20
34.25723233601644
 10
-8.096581091926989
 20
34.51266003189721
 10
-7.165061432616522
 20
34.54475903770719
 10
-6.29663289817233
 20
34.3475689477204
 10
-6.29663289817233
 20
40.87954159514221
  0
LWPOLYLINE
  5
99
100
AcDbEntity
  8
s00e-#def-hidden-edge
  6
DASHED
 62
    7
420
    0
370
   15
100
AcDbPolyline
 90
    4
 70
    0
 43
0
 10
-10.88636435451266
 20
32.78411600681746
 10
11.48179977324001
 20
19.86985042638172
 10
12.48334646298843
 20
19.24740599014704
 10
13.27441626477263
 20
18.68303324992258
  0
LWPOLYLINE
  5
9A
100
AcDbEntity
  8
s00e-#def-hidden-edge
  6
DASHED
 62
    7
420
    0
370
   15
100
AcDbPolyline
 90
    5
 70
    0
 43
0
 10
-35.98578102252331
 20
34.37734717919047
 10
-35.98578102252331
 20
29.3366712491931
 10
-33.82539153590325
 20
30.45330330431099
 10
-31.22046210724474
 20
31.18865511244048
 10
-31.22046210724474
 20
37.72062775986229
  0
LWPOLYLINE
  5
9B
100
AcDbEntity
  8
s00e-#def-hidden-edge
  6
DASHED
 62
    7
420
    0
370
   15
100
AcDbPolyline
 90
    3
 70
    0
 43
0
 10
-34.64876510310386
 20
35.36964387904191
 10
-34.64876510310386
 20
28.8376712316201
 10
-35.98578102252331
 20
29.3366712491931
  0
LWPOLYLINE
  5
9C
100
AcDbEntity
  8
s00e-#def-hidden-edge
  6
DASHED
 62
    7
420
    0
370
   15
100
AcDbPolyline
 90
    3
 70
    0
 43
0
 10
-37.84966915149395
 20
29.67595909474071
 10
-37.84966915149396
 20
26.46204766751342
 10
-34.64876510310386
 20
28.8376712316201
  0
LWPOLYLINE
  5
9D
100
AcDbEntity
  8
s00e-#def-hidden-edge
  6
DASHED
 62
    7
420
    0
370
   15
100
AcDbPolyline
 90
    3
 70
    0
 43
0
 10
-36.03548367817367
 20
32.941445287408
 10
-36.03548367817366
 20
26.40947263998618
 10
-37.84966915149396
 20
26.46204766751342
  0
LWPOLYLINE
  5
9E
100
AcDbEntity
  8
s00e-#def-hidden-edge
  6
DASHED
 62
    7
420
    0
370
   15
100
AcDbPolyline
 90
   86
 70
    0
 43
0
 10
-14.02343770127703
 20
14.23474595659149
 10
-14.02343770127699
 20
0.3543040808201541
 10
-14.71589894489637
 20
0.2766905356569325
 10
-15.12900504163192
 20
0.2643414357330824
 10
-15.5421111383675
 20
0.2766905356569334
 10
-15.94864293945334
 20
0.3133447807892704
 10
-16.34237033577854
 20
0.3731558738153984
 10
-16.71771443162821
 20
0.4543084312537342
 10
-17.06998697420546
 20
0.5544531046863623
 10
-17.39554338442575
 20
0.670867149552171
 10
-17.69184419074793
 20
0.8006232745610209
 10
-17.95743216637812
 20
0.9407493506361355
 10
-18.20013764960538
 20
1.094086639859683
 10
-18.42488185071403
 20
1.265155990150936
 10
-18.62651689113624
 20
1.453116071228052
 10
-18.79997255362896
 20
1.656500718513148
 10
-18.94053290627631
 20
1.873205733290695
 10
-19.04412875825379
 20
2.100524351546365
 10
-19.10761577313607
 20
2.335235596337426
 10
-19.12900504163192
 20
2.573742512491582
 10
-19.12900504163193
 20
-0.6922438112193223
 10
-19.10761577395151
 20
-0.9307507228393686
 10
-19.04412875825378
 20
-1.165461972164543
 10
-18.94053290627631
 20
-1.392780590420221
 10
-18.79997255362896
 20
-1.609485605197756
 10
-18.62651689113625
 20
-1.81287025248284
 10
-18.42488185071408
 20
-2.000830333559939
 10
-18.20013764960547
 20
-2.171899683851155
 10
-17.95743216637812
 20
-2.325236973074769
 10
-17.69184419074803
 20
-2.465363049149838
 10
-17.3955433844258
 20
-2.595119174158704
 10
-17.06998697420549
 20
-2.711533219024528
 10
-16.71771443162821
 20
-2.811677892457173
 10
-16.34237033577858
 20
-2.892830449895516
 10
-15.94864293945335
 20
-2.952641542921635
 10
-15.5421111305142
 20
-2.989295788524753
 10
-15.12900504163195
 20
-3.001644887977825
 10
-14.71589895274963
 20
-2.989295788524758
 10
-14.3093671438105
 20
-2.952641542921631
 10
-13.91563974748529
 20
-2.892830449895503
 10
-13.54029565163564
 20
-2.811677892457166
 10
-13.18802310905839
 20
-2.711533219024542
 10
-12.86246669883812
 20
-2.595119174158733
 10
-12.56616589251595
 20
-2.465363049149889
 10
-12.30057791688574
 20
-2.32523697307477
 10
-12.05787243365847
 20
-2.171899683851208
 10
-11.83312823254982
 20
-2.000830333559968
 10
-11.63149319212764
 20
-1.812870252482846
 10
-11.45803752963492
 20
-1.609485605197762
 10
-11.31747717698756
 20
-1.39278059042022
 10
-11.21388132501009
 20
-1.165461972164545
 10
-11.15039431012779
 20
-0.9307507273734714
 10
-11.12900504163194
 20
-0.6922438112193188
 10
-11.12900504163194
 20
2.57374251249159
 10
-11.15039430931236
 20
2.812249424111649
 10
-11.21388132501009
 20
3.046960673436791
 10
-11.31747717698757
 20
3.274279291692493
 10
-11.4580375296349
 20
3.490984306470026
 10
-11.63149319212762
 20
3.694368953755126
 10
-11.83312823254982
 20
3.882329034832226
 10
-12.05787243365846
 20
4.053398385123461
 10
-12.30057791688575
 20
4.206735674347034
 10
-12.56616589251582
 20
4.346861750422089
 10
-12.86246669883806
 20
4.476617875430978
 10
-13.18802310905837
 20
4.593031920296814
 10
-13.54029565163564
 20
4.693176593729437
 10
-13.91563974748528
 20
4.774329151167756
 10
-14.3093671438105
 20
4.834140244193892
 10
-14.71589894489636
 20
4.870794489326236
 10
-15.12900504163192
 20
4.883143589250079
 10
-15.5421111383675
 20
4.870794489326243
 10
-15.94864293945336
 20
4.834140244193891
 10
-16.34237033577857
 20
4.774329151167774
 10
-16.71771443162822
 20
4.693176593729441
 10
-17.06998697420546
 20
4.593031920296796
 10
-17.39554338442579
 20
4.476617875430976
 10
-17.69184419074802
 20
4.346861750422099
 10
-17.95743216637811
 20
4.206735674347033
 10
-18.2001376496054
 20
4.053398385123466
 10
-18.42488185071404
 20
3.882329034832233
 10
-18.62651689113624
 20
3.694368953755121
 10
-18.79997255362896
 20
3.490984306470021
 10
-18.9405329062763
 20
3.274279291692491
 10
-19.04412875825378
 20
3.046960673436803
 10
-19.10761577313608
 20
2.812249428645745
 10
-19.12900504163192
 20
2.573742512491582
  0
LWPOLYLINE
  5
9F
100
AcDbEntity
  8
s00f-#def-outline
  6
CONTINUOUS
 62
    7
420
    0
370
   50
100
AcDbPolyline
 90
   51
 70
    0
 43
0
 10
-3.610243450353173
 20
-4.08479165117442
 10
-3.084767056354099
 20
-4.208282268431536
 10
-2.583758793955689
 20
-4.366478425394078
 10
-2.117260373038225
 20
-4.556624487239677
 10
-1.69397619908753
 20
-4.774726715857947
 10
39.17679575349493
 20
-28.37147790466923
 10
39.84076569257017
 20
-28.72179309485689
 10
40.58151770837574
 20
-29.0461834073791
 10
41.39540873392654
 20
-29.33721851954364
 10
42.27609009036969
 20
-29.58758020312524
 10
43.2144503299938
 20
-29.79046159672106
 10
44.19876882080683
 20
-29.93998932928638
 10
45.21509832352149
 20
-30.03162494211722
 10
46.2478635653604
 20
-30.06249769192686
 10
47.28062880719931
 20
-30.03162494211723
 10
48.29695830991397
 20
-29.93998932928638
 10
49.28127680072699
 20
-29.79046159672106
 10
50.2196370403511
 20
-29.58758020312524
 10
51.10031839679426
 20
-29.33721851954365
 10
51.91420942234505
 20
-29.0461834073791
 10
52.65496143815062
 20
-28.7217930948569
 10
53.31893137722587
 20
-28.37147790466923
 10
72.6471114231658
 20
-17.21234795220026
 10
73.34774083242047
 20
-16.76307860689784
 10
73.97303801063329
 20
-16.26517391366348
 10
74.508661803286
 20
-15.72526689417462
 10
74.94276550378427
 20
-15.15178830598512
 10
75.26680281333213
 20
-14.55455052024624
 10
75.47607363763048
 20
-13.94419615912116
 10
75.56993869738746
 20
-13.3315752425471
 10
75.56993869738746
 20
-10.06558891883619
 10
75.55168411389856
 20
-9.461139534911837
 10
75.42405557017349
 20
-8.861105825351945
 10
75.18342873602543
 20
-8.261989103723852
 10
74.82906562255944
 20
-7.674389920563996
 10
74.36421473791998
 20
-7.109001337030005
 10
73.79609589144016
 20
-6.575984741792343
 10
73.13553752989282
 20
-6.084370303665068
 10
72.39630334380452
 20
-5.641554830496059
 10
71.5941938428208
 20
-5.25295445674875
 10
24.32755334857743
 20
15.31108917496411
 10
24.32755334857742
 20
23.47605498424138
 10
23.5371915998355
 20
23.85635392614987
 10
22.80476016012197
 20
24.28617441046871
 10
22.14367828271485
 20
24.76083535326399
 10
21.56572558868459
 20
25.27408889389028
 10
21.08037872781058
 20
25.81837905304953
 10
20.69430270338171
 20
26.38520753499778
 10
20.41105294500231
 20
26.96557016143037
 10
20.23101523321375
 20
27.55041771189642
 10
20.15098174787766
 20
28.14263056517061
  0
LWPOLYLINE
  5
A0
100
AcDbEntity
  8
s00f-#def-outline
  6
CONTINUOUS
 62
    7
420
    0
370
   50
100
AcDbPolyline
 90
   33
 70
    0
 43
0
 10
60.19761103366623
 20
-15.71578090028948
 10
60.14948517955055
 20
-16.25242146163632
 10
60.00663939606538
 20
-16.78052176241624
 10
59.77354872911607
 20
-17.29198865349153
 10
59.45728793565956
 20
-17.77957493674095
 10
59.06701269505097
 20
-18.23719039313239
 10
58.61333385410103
 20
-18.66010057555587
 10
58.10765940160669
 20
-19.04500661371111
 10
57.56157206434516
 20
-19.39001551446424
 10
56.96399911917742
 20
-19.70529918563315
 10
56.29732230495231
 20
-19.99725046690317
 10
55.56482038195669
 20
-20.25918206785122
 10
54.77220716115786
 20
-20.48450758307465
 10
53.92768294549619
 20
-20.66710083731089
 10
53.04179630376444
 20
-20.80167579661968
 10
52.12709975132126
 20
-20.88414784816743
 10
51.19761103366623
 20
-20.91193332299611
 10
50.26812231601121
 20
-20.88414784816743
 10
49.35342576356802
 20
-20.80167579661967
 10
48.46753912183629
 20
-20.66710083731089
 10
47.6230149061746
 20
-20.48450758307465
 10
46.8304016853758
 20
-20.25918206785123
 10
46.09789976238015
 20
-19.99725046690316
 10
45.43122294815525
 20
-19.70529918563325
 10
44.83365000298731
 20
-19.39001551446424
 10
44.28756266572592
 20
-19.04500661371122
 10
43.78188821323143
 20
-18.66010057555587
 10
43.32820937228151
 20
-18.23719039313241
 10
42.93793413167291
 20
-17.77957493674096
 10
42.62167333821641
 20
-17.29198865349153
 10
42.38858267126707
 20
-16.78052176241622
 10
42.24573688778192
 20
-16.25242146163632
 10
42.19761103366623
 20
-15.71578090028947
  0
LWPOLYLINE
  5
A1
100
AcDbEntity
  8
s00f-#def-outline
  6
CONTINUOUS
 62
    7
420
    0
370
   50
100
AcDbPolyline
 90
   27
 70
    0
 43
0
 10
59.73671627706717
 20
-17.34877406214496
 10
59.45728793565954
 20
-16.91797318754889
 10
59.06701269505093
 20
-16.46035773115743
 10
58.61333385410097
 20
-16.03744754873394
 10
58.10765940160653
 20
-15.65254151057865
 10
57.56157206434516
 20
-15.30753260982561
 10
56.96399911917742
 20
-14.99224893865672
 10
56.29732230495243
 20
-14.70029765738673
 10
55.56482038195671
 20
-14.43836605643864
 10
54.77220716115787
 20
-14.21304054121522
 10
53.92768294549616
 20
-14.03044728697898
 10
53.04179630376446
 20
-13.89587232767018
 10
52.12709975132126
 20
-13.81340027612242
 10
51.19761103366622
 20
-13.78561480129376
 10
50.26812231601122
 20
-13.81340027612241
 10
49.35342576356803
 20
-13.89587232767018
 10
48.46753912183629
 20
-14.03044728697896
 10
47.62301490617459
 20
-14.21304054121521
 10
46.83040168537576
 20
-14.43836605643863
 10
46.09789976238003
 20
-14.70029765738673
 10
45.43122294815501
 20
-14.99224893865672
 10
44.83365000298731
 20
-15.30753260982562
 10
44.28756266572592
 20
-15.65254151057864
 10
43.78188821323148
 20
-16.03744754873393
 10
43.32820937228154
 20
-16.46035773115742
 10
42.9379341316729
 20
-16.9179731875489
 10
42.65850579026528
 20
-17.34877406214491
  0
LWPOLYLINE
  5
A2
100
AcDbEntity
  8
s00f-#def-outline
  6
CONTINUOUS
 62
    7
420
    0
370
   50
100
AcDbPolyline
 90
   27
 70
    0
 43
0
 10
17.20266166754958
 20
-2.651835605445869
 10
17.48209000895719
 20
-2.221034730849828
 10
17.87236524956583
 20
-1.763419274458342
 10
18.32604409051578
 20
-1.340509092034866
 10
18.83171854301023
 20
-0.9556030538795743
 10
19.37780588027159
 20
-0.6105941531265431
 10
19.97537882543929
 20
-0.2953104819576573
 10
20.64205563966432
 20
-0.003359200687657937
 10
21.37455756266004
 20
0.2585724002604357
 10
22.16717078345886
 20
0.4838979154838496
 10
23.01169499912058
 20
0.6664911697201064
 10
23.8975816408523
 20
0.8010661290288887
 10
24.81227819329551
 20
0.8835381805766558
 10
25.74176691095051
 20
0.9113236554053208
 10
26.67125562860555
 20
0.8835381805766434
 10
27.58595218104874
 20
0.8010661290288905
 10
28.47183882278046
 20
0.6664911697201037
 10
29.31636303844216
 20
0.4838979154838674
 10
30.108976259241
 20
0.2585724002604393
 10
30.84147818223669
 20
-0.003359200687677477
 10
31.50815499646171
 20
-0.2953104819576546
 10
32.10572794162945
 20
-0.6105941531265449
 10
32.65181527889081
 20
-0.9556030538795797
 10
33.15748973138527
 20
-1.34050909203486
 10
33.61116857233522
 20
-1.763419274458357
 10
34.00144381294383
 20
-2.221034730849825
 10
34.28087215435146
 20
-2.651835605445862
  0
LWPOLYLINE
  5
A3
100
AcDbEntity
  8
s00f-#def-outline
  6
CONTINUOUS
 62
    7
420
    0
370
   50
100
AcDbPolyline
 90
   17
 70
    0
 43
0
 10
40.96968897230838
 20
-8.367311671939934
 10
40.91664129519704
 20
-8.6630730225307
 10
40.76404366730684
 20
-8.940587793176054
 10
40.5296119779897
 20
-9.185178248398639
 10
40.23745592527475
 20
-9.387932398099599
 10
39.88627543655453
 20
-9.556608773777079
 10
39.46263234105535
 20
-9.691957972713775
 10
38.98196265844679
 20
-9.780060254253883
 10
38.46968897230838
 20
-9.81068734491401
 10
37.95741528617
 20
-9.780060254253886
 10
37.47674560356141
 20
-9.691957972713773
 10
37.05310250806949
 20
-9.556608773779955
 10
36.70192201934201
 20
-9.387932398099601
 10
36.40976596663205
 20
-9.185178248402856
 10
36.17533427730992
 20
-8.940587793176061
 10
36.02273664941972
 20
-8.663073022530707
 10
35.96968897230838
 20
-8.367311671939937
  0
LWPOLYLINE
  5
A4
100
AcDbEntity
  8
s00e-#def-hidden-edge
  6
DASHED
 62
    7
420
    0
370
   15
100
AcDbPolyline
 90
   19
 70
    0
 43
0
 10
40.96968897230838
 20
-8.367311671939934
 10
40.96968897230838
 20
-11.63329799565084
 10
40.91664129519704
 20
-11.92905934624161
 10
40.76404366730652
 20
-12.20657411688737
 10
40.52961197798469
 20
-12.45116457211376
 10
40.23745592527475
 20
-12.65391872181051
 10
39.88627543654726
 20
-12.82259509749086
 10
39.46263234105535
 20
-12.95794429642468
 10
38.98196265844675
 20
-13.0460465779648
 10
38.46968897230838
 20
-13.07667366862492
 10
37.95741528616998
 20
-13.0460465779648
 10
37.4767456035607
 20
-12.9579442964245
 10
37.05310250806222
 20
-12.82259509748797
 10
36.70192201934202
 20
-12.6539187218105
 10
36.40976596663205
 20
-12.45116457211375
 10
36.17533427731024
 20
-12.20657411688737
 10
36.02273664941973
 20
-11.92905934624162
 10
35.96968897230838
 20
-11.63329799565085
 10
35.96968897230838
 20
-8.367311671939937
  0
LWPOLYLINE
  5
A5
100
AcDbEntity
  8
s00f-#def-outline
  6
CONTINUOUS
 62
    7
420
    0
370
   50
100
AcDbPolyline
 90
   33
 70
    0
 43
0
 10
34.74176691095051
 20
-1.018842443590408
 10
34.69364105683484
 20
-1.555483004937262
 10
34.55079527334967
 20
-2.083583305717165
 10
34.31770460640033
 20
-2.595050196792466
 10
34.00144381294383
 20
-3.082636480041894
 10
33.61116857233524
 20
-3.540251936433348
 10
33.15748973138533
 20
-3.9631621188568
 10
32.651815278891
 20
-4.348068157012025
 10
32.10572794162945
 20
-4.693077057765176
 10
31.50815499646173
 20
-5.008360728934076
 10
30.8414781822366
 20
-5.300312010204104
 10
30.10897625924097
 20
-5.562243611152154
 10
29.31636303844213
 20
-5.787569126375583
 10
28.47183882278044
 20
-5.970162380611828
 10
27.58595218104873
 20
-6.104737339920616
 10
26.67125562860555
 20
-6.187209391468368
 10
25.74176691095051
 20
-6.214994866297039
 10
24.8122781932955
 20
-6.18720939146837
 10
23.8975816408523
 20
-6.104737339920613
 10
23.01169499912058
 20
-5.970162380611809
 10
22.16717078345889
 20
-5.787569126375585
 10
21.37455756266008
 20
-5.562243611152164
 10
20.64205563966443
 20
-5.30031201020409
 10
19.97537882543956
 20
-5.008360728934173
 10
19.37780588027159
 20
-4.693077057765175
 10
18.8317185430102
 20
-4.348068157012151
 10
18.32604409051571
 20
-3.963162118856793
 10
17.87236524956579
 20
-3.540251936433347
 10
17.4820900089572
 20
-3.082636480041897
 10
17.1658292155007
 20
-2.595050196792464
 10
16.93273854855136
 20
-2.083583305717159
 10
16.78989276506621
 20
-1.555483004937244
 10
16.74176691095052
 20
-1.018842443590402
  0
LWPOLYLINE
  5
A6
100
AcDbEntity
  8
s00f-#def-outline
  6
CONTINUOUS
 62
    7
420
    0
370
   50
100
AcDbPolyline
 90
   14
 70
    0
 43
0
 10
-13.71479147925884
 20
4.614983964810904
 10
-13.71479147925883
 20
7.064473707594074
 10
11.72193887202317
 20
21.75037682321068
 10
12.65598765689694
 20
22.3338270276688
 10
13.52756396741667
 20
22.97363594760646
 10
14.32280407416372
 20
23.66683608598002
 10
15.02830491062396
 20
24.40902021560383
 10
15.63167049342229
 20
25.19435806499437
 10
16.12206317899333
 20
26.01569514137642
 10
16.49071656126763
 20
26.86473562728524
 10
16.62732609137321
 20
27.29680280344801
 10
16.73136564636372
 20
27.73230260120889
 10
16.8024935214634
 20
28.17000313655832
 10
16.84055467597812
 20
28.60866004400855
  0
LWPOLYLINE
  5
A7
100
AcDbEntity
  8
s00f-#def-outline
  6
CONTINUOUS
 62
    7
420
    0
370
   50
100
AcDbPolyline
 90
   19
 70
    0
 43
0
 10
-11.82051339745178
 20
-7.09313354770085
 10
-44.04069167532408
 20
-16.16609543013991
 10
-44.94654351724178
 20
-16.39782176046476
 10
-45.89921930271459
 20
-16.59418537623736
 10
-46.89273085031436
 20
-16.75124950297022
 10
-47.9198763317085
 20
-16.86551856008994
 10
-48.97236225086188
 20
-16.93408679938417
 10
-50.04098916616227
 20
-16.95477298120219
 10
-51.1158951060341
 20
-16.92623064079872
 10
-52.18684483609579
 20
-16.84802461521486
 10
-53.2435481229674
 20
-16.72066680542064
 10
-54.27598669858465
 20
-16.54560742241372
 10
-55.27472834736116
 20
-16.32518180573979
 10
-56.23120766423748
 20
-16.06251678667328
 10
-57.13795640859891
 20
-15.76140395799027
 10
-57.98877147900393
 20
-15.42614966102307
 10
-58.77881457291544
 20
-15.0614127372059
 10
-59.50464370299502
 20
-14.67204105961449
 10
-78.48577263594662
 20
-3.713281160651892
  0
LWPOLYLINE
  5
A8
100
AcDbEntity
  8
s00f-#def-outline
  6
CONTINUOUS
 62
    7
420
    0
370
   50
100
AcDbPolyline
 90
   14
 70
    0
 43
0
 10
-19.42517876939937
 20
-9.234550595531694
 10
-13.71479147925884
 20
-12.53144423467134
 10
-11.82051339745177
 20
-13.62510619512266
 10
-7.421365838965648
 20
-12.38633905457023
 10
-6.979110682046758
 20
-12.27668436983888
 10
-6.513883080842258
 20
-12.19104831319166
 10
-6.031690219080204
 20
-12.1315769116935
 10
-5.539276892000689
 20
-12.09972794885678
 10
-5.043821482173738
 20
-12.09617403739333
 10
-4.552591341723072
 20
-12.12076026548665
 10
-4.072591747798147
 20
-12.17252161963131
 10
-3.610243450353167
 20
-12.24975746045169
 10
-3.249611117697936
 20
-12.04154628611471
 10
3.821456694167537
 20
-7.959063381476078
  0
LWPOLYLINE
  5
A9
100
AcDbEntity
  8
s00f-#def-outline
  6
CONTINUOUS
 62
    7
420
    0
370
   50
100
AcDbPolyline
 90
   38
 70
    0
 43
0
 10
-2.754636370867339
 20
13.39232220978395
 10
-9.118597401546278
 20
17.06655682395873
 10
-11.28482491371611
 20
15.81588478668152
 10
-11.45803752963489
 20
15.5369425942845
 10
-11.63149319212761
 20
15.3335579469994
 10
-11.83312823254979
 20
15.1455978659223
 10
-12.05787243365839
 20
14.97452851563109
 10
-12.30057791688557
 20
14.82119122640759
 10
-12.56616589251595
 20
14.68106515033238
 10
-12.86246669883811
 20
14.55130902532351
 10
-13.18802310905839
 20
14.43489498045772
 10
-13.54029565163565
 20
14.33475030702507
 10
-14.02343770127703
 20
14.23474595659149
 10
-16.8967719945983
 20
12.57582562885623
 10
-17.16235997388273
 20
12.43569955102052
 10
-17.45866077655067
 20
12.30594342777226
 10
-17.78421718677096
 20
12.18952938290645
 10
-18.13648972934821
 20
12.08938470947383
 10
-18.51183382519785
 20
12.0082321520355
 10
-18.90556122152305
 20
11.94842105900936
 10
-19.31209303046219
 20
11.91176681340625
 10
-19.72519911934449
 20
11.89941771395319
 10
-20.13830520822678
 20
11.91176681340625
 10
-20.54483701716593
 20
11.94842105900937
 10
-20.93856441349113
 20
12.0082321520355
 10
-21.3139085093408
 20
12.08938470947385
 10
-21.66618105191803
 20
12.18952938290647
 10
-21.99173746213833
 20
12.30594342777227
 10
-22.28803826846048
 20
12.43569955278112
 10
-22.55362624409068
 20
12.57582562885623
 10
-34.59170804336297
 20
19.52601539619282
 10
-35.0578012134968
 20
19.828582887507
 10
-35.46759563124098
 20
20.16805128543386
 10
-35.80877553303911
 20
20.53889029564544
 10
-36.07136906073303
 20
20.93382969323194
 10
-36.2486229236827
 20
21.34430413910901
 10
-36.33755974172095
 20
21.76106093560318
 10
-36.33912527954223
 20
22.17484243731581
  0
LWPOLYLINE
  5
AA
100
AcDbEntity
  8
s00f-#def-outline
  6
CONTINUOUS
 62
    7
420
    0
370
   50
100
AcDbPolyline
 90
   76
 70
    0
 43
0
 10
25.56333520051825
 20
14.7734441962463
 10
27.44926016551267
 20
16.14423613894184
 10
27.64407162322009
 20
16.31492626888651
 10
27.78975046537059
 20
16.51361535095553
 10
27.87053485739228
 20
16.73274905035552
 10
27.87586530774333
 20
16.96115486813223
 10
27.87586530774333
 20
36.55707281039767
 10
27.80321430166907
 20
36.78161523237336
 10
27.65894845981879
 20
36.9895993820158
 10
27.45676970853768
 20
37.17105473150822
 10
27.21443860789074
 20
37.32008772908231
 10
26.93038716479114
 20
37.44211456097959
 10
26.59511673202892
 20
37.53741778926752
 10
26.2207915096646
 20
37.59648125946176
 10
25.8261290609988
 20
37.61258113624023
 10
25.43369956825644
 20
37.58351133685061
 10
25.06581853500857
 20
37.51221758301307
 10
24.74050881226153
 20
37.40602912894193
 10
24.46897470481473
 20
37.27484720191995
 10
21.49311767031646
 20
35.55673534198253
 10
21.02462663632536
 20
35.32508361829439
 10
20.47786484976472
 20
35.13121780087747
 10
19.86754260128971
 20
34.9872188041203
 10
19.21538911399644
 20
34.90231868144546
 10
18.54785295452276
 20
34.88131281500736
 10
17.89264529159855
 20
34.9237521781438
 10
17.27503263783728
 20
35.02417615709324
 10
16.71487438921092
 20
35.17327807826338
 10
16.50481504597638
 20
35.22919129870212
 10
16.27321030081555
 20
35.26685029080824
 10
16.02750742721899
 20
35.28276505198438
 10
15.77718136741635
 20
35.27488785207009
 10
15.53262380968137
 20
35.24305030606702
 10
15.30375296650325
 20
35.1890506822831
 10
15.09871729654325
 20
35.11635100075185
 10
14.92303315879634
 20
35.0294816043687
 10
13.95223744608354
 20
34.46899243830583
 10
13.95223744608357
 20
32.01950269552265
 10
13.94679958836785
 20
32.01636314694411
 10
13.68011320038431
 20
32.24259395371059
 10
13.40291256350706
 20
32.46457185822876
 10
13.2744162647726
 20
32.56347512569393
 10
13.26874000951237
 20
32.56019793819063
 10
13.03026454692776
 20
32.69644320362311
 10
12.75402084001626
 20
32.81615013374459
 10
12.4455361907767
 20
32.91442283079604
 10
12.11275844191882
 20
32.98727629972156
 10
11.76543457006712
 20
33.03210947932597
 10
11.41418269580385
 20
33.0479993985653
 10
11.06943684058903
 20
33.03575020433698
 10
10.74047731563642
 20
32.99769544442366
 10
10.42330548065506
 20
32.934553038156
 10
10.11509927174012
 20
32.84453680674597
 10
9.825909326797653
 20
32.72834081783367
 10
9.565443135436698
 20
32.58831549024817
 10
9.342055289362587
 20
32.42835530336327
 10
9.161879817696967
 20
32.25354860327825
 10
9.028286892937818
 20
32.06965301386239
 10
8.941760660834195
 20
31.8825059464963
 10
8.694570011108805
 20
31.21143658061885
 10
8.409594179490659
 20
30.5428515321901
 10
8.086893820469051
 20
29.87780569091027
 10
7.726646845326503
 20
29.21735605335433
 10
7.329149165537395
 20
28.56255629671576
 10
6.894814535751987
 20
27.91445129994817
 10
6.424173481461937
 20
27.27407166515533
 10
5.9178713113961
 20
26.64242829869677
 10
5.376665227937616
 20
26.02050711134953
 10
4.801420562002763
 20
25.40926389563558
 10
4.193106171573426
 20
24.80961943610621
 10
3.552789055126647
 20
24.22245490501782
 10
2.881628242285428
 20
23.64860759151334
 10
2.180868033865677
 20
23.08886700724864
 10
1.451830671909383
 20
22.54397140549675
 10
0.695908520628997
 20
22.01460473988809
 10
0.695908520628997
 20
15.38449523174025
  0
LWPOLYLINE
  5
AB
100
AcDbEntity
  8
s00f-#def-outline
  6
CONTINUOUS
 62
    7
420
    0
370
   50
100
AcDbPolyline
 90
    5
 70
    0
 43
0
 10
8.993186132506853
 20
31.99373379009327
 10
8.982746036745603
 20
33.41268001399353
 10
8.323891057159294
 20
36.20178609345253
 10
7.035561563666825
 20
38.91666087065969
 10
5.158974459405069
 20
41.48845572250383
  0
LWPOLYLINE
  5
AC
100
AcDbEntity
  8
s00f-#def-outline
  6
CONTINUOUS
 62
    7
420
    0
370
   50
100
AcDbPolyline
 90
   41
 70
    0
 43
0
 10
-65.00294013278118
 20
-2.516135745588089
 10
-64.988099936816
 20
-2.509157791581904
 10
-64.56049144377796
 20
-2.335055421534355
 10
-64.10704156851935
 20
-2.17670266972992
 10
-63.63038223909996
 20
-2.035888894010785
 10
-63.13362039712585
 20
-1.914202820986359
 10
-62.62027816144482
 20
-1.812981540201466
 10
-62.09421375958171
 20
-1.73326701893051
 10
-61.55952670790519
 20
-1.67577288479081
 10
-61.02045202248905
 20
-1.640863585510665
 10
-60.4812491413628
 20
-1.628547177336333
 10
-59.94609162067945
 20
-1.638482009584603
 10
-59.41896348846772
 20
-1.669996575609231
 10
-58.90356743440727
 20
-1.722120903089147
 10
-58.40324888699684
 20
-1.79362715399942
 10
-57.92093863446641
 20
-1.883076659468372
 10
-53.87845665065476
 20
0.4508514020795111
 10
-51.40358291650183
 20
1.879720418703025
 10
-50.92677558426088
 20
2.135770837914016
 10
-50.41494622128002
 20
2.373054571753054
 10
-49.87153535072214
 20
2.589266983211232
 10
-49.30057089054356
 20
2.782395736610175
 10
-48.7065711844937
 20
2.950781118168838
 10
-48.09442666229076
 20
3.093163091258933
 10
-47.46926657458314
 20
3.208712319700881
 10
-46.83631835548803
 20
3.297043581734657
 10
-45.76762775045278
 20
3.384610809811955
 10
-45.21855326504239
 20
3.40061119799506
 10
-44.66348097011661
 20
3.397098206969059
 10
-44.10552007732859
 20
3.373575516448499
 10
-43.54791209534501
 20
3.329767929892823
 10
-42.99397128896743
 20
3.265634472818046
 10
-42.44702085521239
 20
3.181375001314331
 10
-41.91032731934935
 20
3.07742982159302
 10
-41.38703583118058
 20
2.954472191587865
 10
-40.88010903445853
 20
2.813393964757958
 10
-40.39227198732341
 20
2.655285010519345
 10
-39.92596524596479
 20
2.481407372628519
 10
-39.48330772208624
 20
2.293165379130427
 10
-38.67566085514397
 20
1.879720418703023
 10
-35.96983567625689
 20
0.3175115232924966
  0
LWPOLYLINE
  5
AD
100
AcDbEntity
  8
s00f-#def-outline
  6
CONTINUOUS
 62
    7
420
    0
370
   50
100
AcDbPolyline
 90
   21
 70
    0
 43
0
 10
-34.90244454040345
 20
21.70804733870457
 10
-34.881214571778
 20
21.68969944974565
 10
-32.56946305576763
 20
20.63423772350672
 10
-29.94246511073495
 20
20.0570165568049
 10
-29.14912655673496
 20
20.07193589164228
 10
-28.4629970918359
 20
20.30235592716877
 10
-28.04831493980306
 20
20.69312121635747
 10
-28.00434221305299
 20
21.15069460581571
 10
-28.00076856062344
 20
21.46147947455421
 10
-27.78949056421734
 20
21.7473326321583
 10
-27.40332253234895
 20
21.96385724666748
 10
-26.90224154333045
 20
22.07742413935833
 10
-24.15947755764125
 20
22.6201310991205
 10
-21.72515785317951
 20
23.68244927258645
 10
-20.00639276422299
 20
25.13816429707247
 10
-19.20162532055536
 20
26.7463409224601
 10
-18.52332917175621
 20
27.77019954336321
 10
-17.10654785891721
 20
28.49996567116462
 10
-15.26758862937666
 20
28.77271344497542
 10
-13.41701317433715
 20
28.52754984145464
 10
3.029401149130112
 20
23.77495448781273
  0
LWPOLYLINE
  5
AE
100
AcDbEntity
  8
s00f-#def-outline
  6
CONTINUOUS
 62
    7
420
    0
370
   50
100
AcDbPolyline
 90
   15
 70
    0
 43
0
 10
9.755642642441202
 20
47.07515655323547
 10
9.627192467623743
 20
46.96214829278924
 10
9.40019080343972
 20
46.92907114732815
 10
9.194240177090698
 20
46.99335278727906
 10
9.05027846647581
 20
47.05792194134951
 10
8.873529482242809
 20
47.08369206402341
 10
8.693729813030281
 20
47.06632754035825
 10
8.54112930057812
 20
47.00874981117237
 10
3.078489552983768
 20
43.85489328241282
 10
2.713908605523457
 20
44.07593600568583
 10
2.224313607854306
 20
44.19111074545722
 10
1.695979768123365
 20
44.18012169663433
 10
1.222008756509041
 20
44.04490532196496
 10
-2.920312104100105
 20
42.14861018078308
 10
-2.920312104100105
 20
40.84958363615786
  0
LWPOLYLINE
  5
AF
100
AcDbEntity
  8
s00f-#def-outline
  6
CONTINUOUS
 62
    7
420
    0
370
   50
100
AcDbPolyline
 90
   23
 70
    0
 43
0
 10
-2.5519791027534
 20
41.56772901938174
 10
-2.751078756190697
 20
40.95991948263107
 10
-3.461389216566811
 20
40.49681509527171
 10
-4.482332703173782
 20
40.30918747821359
 10
-5.525614744516357
 20
40.45001900061544
 10
-6.29663289817233
 20
40.87954159514221
 10
-7.165061432616508
 20
41.07673168512899
 10
-8.096581091926989
 20
41.04463267931902
 10
-8.918219692976731
 20
40.78920498343822
 10
-9.477408665532654
 20
40.35787849952467
 10
-11.39708739935667
 20
39.40871499785393
 10
-12.78401277292365
 20
39.03655673257062
 10
-14.30396937776632
 20
39.13453502012323
 10
-16.58607373348639
 20
39.28084537882135
 10
-18.66656501042585
 20
38.71996021524419
 10
-20.83523424309372
 20
37.64248894358455
 10
-23.18081092411279
 20
36.8384444542688
 10
-26.05345916323723
 20
36.54692830235568
 10
-28.91197379379553
 20
36.8815659233419
 10
-31.22046210724474
 20
37.72062775986229
 10
-33.82539153590323
 20
36.98527595173281
 10
-35.98578102252331
 20
35.86864389661491
 10
-35.98578102252331
 20
34.37734717919047
  0
LWPOLYLINE
  5
B0
100
AcDbEntity
  8
s00e-#def-hidden-edge
  6
DASHED
 62
    7
420
    0
370
   15
100
AcDbPolyline
 90
    3
 70
    0
 43
0
 10
-2.5519791027534
 20
41.56772901938174
 10
-2.551979102753393
 20
35.03575637195991
 10
-2.920312104100105
 20
35.61663753336127
  0
LWPOLYLINE
  5
B1
100
AcDbEntity
  8
s00f-#def-outline
  6
CONTINUOUS
 62
    7
420
    0
370
   50
100
AcDbPolyline
 90
    6
 70
    0
 43
0
 10
-10.88636435451266
 20
39.66123624793958
 10
-10.88636435451267
 20
46.6645578825888
 10
-19.37164572875123
 20
51.56353736815516
 10
-26.44271354061671
 20
51.56353736815518
 10
-32.80667457129563
 20
47.8893027539804
 10
-32.80667457129563
 20
37.27285201949681
  0
LWPOLYLINE
  5
B2
100
AcDbEntity
  8
s00f-#def-outline
  6
CONTINUOUS
 62
    7
420
    0
370
   50
100
AcDbPolyline
 90
   11
 70
    0
 43
0
 10
14.94348061433243
 20
46.75982127088677
 10
14.94348061433243
 20
47.15267277894171
 10
14.90263702751776
 20
47.29051626970136
 10
14.74266378433717
 20
47.39552300581003
 10
14.51107686358721
 20
47.43650340989071
 10
14.27666326362536
 20
47.40128529631626
 10
14.10904957589877
 20
47.30032930903307
 10
13.93167521224589
 20
47.2121053831085
 10
13.69767304575689
 20
47.21638846129822
 10
13.53033402490711
 20
47.31092187743406
 10
13.51782565219049
 20
47.44589791087439
  0
LWPOLYLINE
  5
B3
100
AcDbEntity
  8
s00f-#def-outline
  6
CONTINUOUS
 62
    7
420
    0
370
   50
100
AcDbPolyline
 90
   12
 70
    0
 43
0
 10
8.107115660476229
 20
36.65859319112947
 10
10.92077692786802
 20
38.28306128126654
 10
13.19352528876639
 20
38.28306128126654
 10
15.94070120682202
 20
39.86914403706722
 10
16.07084885095425
 20
40.04780041491349
 10
16.07084885095426
 20
46.57977306233529
 10
15.94745103952996
 20
46.76001890689611
 10
15.64090806826908
 20
46.83902126989703
 10
15.32610728386401
 20
46.77170812247759
 10
15.10787802283558
 20
46.72275904067186
 10
14.88979465856734
 20
46.77192438899544
 10
14.7867608487081
 20
46.89329995246652
  0
LWPOLYLINE
  5
B4
100
AcDbEntity
  8
s00f-#def-outline
  6
CONTINUOUS
 62
    7
420
    0
370
   50
100
AcDbPolyline
 90
   27
 70
    0
 43
0
 10
13.52798865178372
 20
47.3362304581986
 10
13.52798865178371
 20
47.58562072678448
 10
13.40974000658585
 20
47.70766981571619
 10
13.19820246591561
 20
47.77579360330294
 10
12.9562078702566
 20
47.76975765294675
 10
12.7556345528074
 20
47.69135479001922
 10
12.65605771070464
 20
47.56387258873191
 10
12.53991454107529
 20
47.44650874940261
 10
12.31687512087364
 20
47.40541752879122
 10
12.10445435210534
 20
47.46224904936965
 10
12.01457238683676
 20
47.58705994702066
 10
11.94331327048069
 20
47.72071724605375
 10
11.76124365776344
 20
47.81295125739314
 10
11.52244269145505
 20
47.83636621634732
 10
11.29784011846888
 20
47.78400730552887
 10
11.15414841448814
 20
47.67142640628245
 10
11.1340475416355
 20
47.53206280829879
 10
11.09247778544206
 20
47.39904150227613
 10
10.90602328880648
 20
47.31729643334786
 10
10.67292310687347
 20
47.32989740395456
 10
10.51599295093114
 20
47.43020522078822
 10
10.37149777699321
 20
47.54244280677875
 10
10.14652287116907
 20
47.59426614183068
 10
9.907891301131514
 20
47.57028242374453
 10
9.72648249894462
 20
47.47761540532661
 10
9.65617933043535
 20
47.34378946499634
 10
9.656179330435384
 20
46.98765043746746
  0
LWPOLYLINE
  5
B5
100
AcDbEntity
  8
s00f-#def-outline
  6
CONTINUOUS
 62
    7
420
    0
370
   50
100
AcDbPolyline
 90
   17
 70
    0
 43
0
 10
-22.81468833181545
 20
0.4791011815634421
 10
-22.81468833181545
 20
4.561584086202073
 10
-38.67566085514399
 20
13.71892084215506
 10
-39.48330772208622
 20
14.13236580258245
 10
-39.92596524596478
 20
14.32060779608055
 10
-40.39227198732343
 20
14.49448543397138
 10
-40.88010903445854
 20
14.65259438821001
 10
-41.38703583118058
 20
14.7936726150399
 10
-41.91032731934935
 20
14.91663024504504
 10
-42.44702085521239
 20
15.02057542476635
 10
-42.99397128896743
 20
15.10483489627007
 10
-43.54791209534501
 20
15.16896835334486
 10
-44.1055200773286
 20
15.21277593990055
 10
-44.66348097011662
 20
15.23629863042109
 10
-45.21855326504239
 20
15.23981162144709
 10
-45.76762775045276
 20
15.22381123326398
 10
-46.836318355488
 20
15.13624400518668
  0
LWPOLYLINE
  5
B6
100
AcDbEntity
  8
s00f-#def-outline
  6
CONTINUOUS
 62
    7
420
    0
370
   50
100
AcDbPolyline
 90
    5
 70
    0
 43
0
 10
-22.81468833181545
 20
3.777962869965873
 10
-25.27033884813487
 20
2.720106087715669
 10
-30.3503197225848
 20
1.294400202074821
 10
-31.09786054755801
 20
1.04000084229001
 10
-31.3462829929803
 20
0.8616026905942935
  0
LWPOLYLINE
  5
B7
100
AcDbEntity
  8
s00f-#def-outline
  6
CONTINUOUS
 62
    7
420
    0
370
   50
100
AcDbPolyline
 90
   16
 70
    0
 43
0
 10
-46.8535627964852
 20
14.72558916203743
 10
-49.85557504859315
 20
12.79642661453538
 10
-50.1463535603184
 20
12.48072582936567
 10
-50.14779859297578
 20
12.12316417406123
 10
-50.14779859297576
 20
8.857177850350309
 10
-49.85957494969841
 20
8.540697081262422
 10
-49.34854040128112
 20
8.338709630764893
 10
-46.25106122857667
 20
7.51201169805608
 10
-43.30128941262272
 20
6.377217161643726
 10
-40.63294407257531
 20
4.949013312619213
 10
-38.37137789725719
 20
3.267477912599091
 10
-36.61590023275543
 20
1.395254311339475
 10
-35.42584658391521
 20
-0.5899524679608683
 10
-34.81429003584589
 20
-2.605759028978408
 10
-34.75067948602781
 20
-4.575582992274329
 10
-34.48466927178809
 20
-5.016135059873852
  0
LWPOLYLINE
  5
B8
100
AcDbEntity
  8
s00f-#def-outline
  6
CONTINUOUS
 62
    7
420
    0
370
   50
100
AcDbPolyline
 90
   36
 70
    0
 43
0
 10
-18.96180155911095
 20
1.681404183977789
 10
-19.0491039430476
 20
1.215785575696452
 10
-19.22912052286653
 20
0.7591245773016246
 10
-19.50621467057412
 20
0.3082669218826895
 10
-19.87963125778228
 20
-0.1265720196826368
 10
-20.3443264649708
 20
-0.5352825510099071
 10
-20.89110148670461
 20
-0.9086061847137059
 10
-21.50719312808255
 20
-1.23882114113422
 10
-22.1772444908105
 20
-1.520263979824263
 10
-22.88450512628467
 20
-1.749615358632186
 10
-45.35580511569131
 20
-8.077365828987528
 10
-46.06035654830245
 20
-8.257597419242135
 10
-46.80132660366171
 20
-8.410324675952214
 10
-47.57405780735044
 20
-8.532485663411098
 10
-48.37294873732363
 20
-8.621361596726441
 10
-49.19154889666516
 20
-8.67469244951084
 10
-50.02270316412104
 20
-8.690781702035967
 10
-50.85874112076842
 20
-8.668582103774824
 10
-51.69170201851375
 20
-8.60775519515694
 10
-52.51358234942384
 20
-8.508699121353887
 10
-53.31659013378287
 20
-8.37254182297827
 10
-54.09338919394236
 20
-8.201099676676336
 10
-54.83731755151287
 20
-7.996804661846813
 10
-55.54256657490507
 20
-7.762605795093369
 10
-56.20431162966453
 20
-7.501852453007757
 10
-56.81878959159567
 20
-7.218168178927766
 10
-57.38332335943537
 20
-6.915323540801092
 10
-71.41470482408113
 20
1.185698324914458
 10
-71.83943942506554
 20
1.454038584747908
 10
-72.23274177166903
 20
1.753409944065413
 10
-72.58560309240787
 20
2.082340085950339
 10
-72.8891505017701
 20
2.43826321869924
 10
-73.13513111890293
 20
2.817496994559899
 10
-73.31642385986351
 20
3.215304576507331
 10
-73.42752613590753
 20
3.626049254891711
 10
-73.4649573557753
 20
4.043436358161507
  0
LWPOLYLINE
  5
B9
100
AcDbEntity
  8
s00f-#def-outline
  6
CONTINUOUS
 62
    7
420
    0
370
   50
100
AcDbPolyline
 90
    5
 70
    0
 43
0
 10
-31.25641619278756
 20
-4.107083071395142
 10
-31.25641619278756
 20
-1.42524561655369
 10
-31.31236691683172
 20
0.7397105407094402
 10
-31.90719911445038
 20
2.877498387122321
 10
-31.95666469879144
 20
3.377674204125439
  0
LWPOLYLINE
  5
BA
100
AcDbEntity
  8
s00f-#def-outline
  6
CONTINUOUS
 62
    7
420
    0
370
   50
100
AcDbPolyline
 90
   12
 70
    0
 43
0
 10
-35.39191692817209
 20
20.10536002616928
 10
-34.57444152426201
 20
22.78203289045283
 10
-34.57444152426199
 20
28.08926066648303
 10
-43.03311821713145
 20
32.18710379107183
 10
-56.84830513163826
 20
24.21090190707633
 10
-57.19811734744425
 20
24.02436645442274
 10
-57.58212649912947
 20
23.85039835317684
 10
-57.99853881492414
 20
23.69183313757098
 10
-58.44466772804975
 20
23.55141474061537
 10
-58.9169426917398
 20
23.43168136019702
 10
-59.41097001335332
 20
23.33485002513848
 10
-59.54161372286442
 20
23.31639460444833
  0
LWPOLYLINE
  5
BB
100
AcDbEntity
  8
s00f-#def-outline
  6
CONTINUOUS
 62
    7
420
    0
370
   50
100
AcDbPolyline
 90
   17
 70
    0
 43
0
 10
-37.93840255494092
 20
26.45626750462758
 10
-38.00205976747453
 20
26.10135388391865
 10
-38.18517692094279
 20
25.76833615914423
 10
-38.46649494812333
 20
25.47482761287714
 10
-38.81708221134821
 20
25.23152263325508
 10
-39.23849879785426
 20
25.02911098241955
 10
-39.74687051244456
 20
24.86669194369899
 10
-40.32367413157487
 20
24.76096920585084
 10
-40.93840255494094
 20
24.72421669705871
 10
-41.55313097830701
 20
24.76096920585086
 10
-42.12993459743726
 20
24.86669194369897
 10
-42.63830631202759
 20
25.02911098241956
 10
-43.05972289846751
 20
25.23152263321691
 10
-43.4103101617585
 20
25.47482761287714
 10
-43.69162818893904
 20
25.76833615914421
 10
-43.87474534240731
 20
26.1013538839187
 10
-43.93840255494092
 20
26.45626750462758
  0
LWPOLYLINE
  5
BC
100
AcDbEntity
  8
s00e-#def-hidden-edge
  6
DASHED
 62
    7
420
    0
370
   15
100
AcDbPolyline
 90
   19
 70
    0
 43
0
 10
-37.93840255494092
 20
26.45626750462758
 10
-37.9384025549409
 20
21.14903972859735
 10
-38.00205976747455
 20
20.79412610788844
 10
-38.18517692094278
 20
20.46110838311402
 10
-38.46649494812335
 20
20.16759983684692
 10
-38.81708221138129
 20
19.92429485720577
 10
-39.23849879785426
 20
19.72188320638933
 10
-39.74687051244456
 20
19.55946416766875
 10
-40.32367413157486
 20
19.45374142982062
 10
-40.93840255494092
 20
19.41698892102848
 10
-41.55313097830697
 20
19.45374142982061
 10
-42.12993459743811
 20
19.55946416766896
 10
-42.63830631203632
 20
19.7218832063928
 10
-43.05972289850051
 20
19.92429485720574
 10
-43.41031016175852
 20
20.16759983684693
 10
-43.69162818893904
 20
20.46110838311401
 10
-43.8747453424073
 20
20.79412610788843
 10
-43.9384025549409
 20
21.14903972859737
 10
-43.93840255494092
 20
26.45626750462758
  0
LWPOLYLINE
  5
BD
100
AcDbEntity
  8
s00f-#def-outline
  6
CONTINUOUS
 62
    7
420
    0
370
   50
100
AcDbPolyline
 90
    5
 70
    0
 43
0
 10
-25.92763778110846
 20
31.92679459684336
 10
-26.51342421873535
 20
31.11029801591562
 10
-27.92763778110843
 20
30.7720940584641
 10
-29.34185134348154
 20
31.11029801591562
 10
-29.92763778110843
 20
31.92679459684335
  0
LWPOLYLINE
  5
BE
100
AcDbEntity
  8
s00e-#def-hidden-edge
  6
DASHED
 62
    7
420
    0
370
   15
100
AcDbPolyline
 90
    7
 70
    0
 43
0
 10
-25.92763778110846
 20
31.92679459684336
 10
-25.92763778110846
 20
25.39482194942154
 10
-26.51342421873535
 20
24.57832536849381
 10
-27.92763778110843
 20
24.24012141104229
 10
-29.34185134348154
 20
24.57832536849381
 10
-29.92763778110843
 20
25.39482194942154
 10
-29.92763778110843
 20
31.92679459684335
  0
LWPOLYLINE
  5
BF
100
AcDbEntity
  8
s00f-#def-outline
  6
CONTINUOUS
 62
    7
420
    0
370
   50
100
AcDbPolyline
 90
   10
 70
    0
 43
0
 10
-25.8569271029898
 20
22.16966045475702
 10
-25.89936524467885
 20
21.93305137428439
 10
-26.02144334699102
 20
21.71103955776811
 10
-26.20898869844475
 20
21.51536719359006
 10
-26.44271354059464
 20
21.35316387384201
 10
-26.72365793159868
 20
21.21822277328501
 10
-27.06257240799222
 20
21.10994341413794
 10
-27.44710815407909
 20
21.03946158890586
 10
-27.85692710298977
 20
21.01495991637775
 10
-28.01646964564831
 20
21.02449841903828
  0
LWPOLYLINE
  5
C0
100
AcDbEntity
  8
s00f-#def-outline
  6
CONTINUOUS
 62
    7
420
    0
370
   50
100
AcDbPolyline
 90
    3
 70
    0
 43
0
 10
-34.64876510310386
 20
35.36964387904191
 10
-37.84966915149396
 20
32.99402031493523
 10
-37.84966915149395
 20
29.67595909474071
  0
LWPOLYLINE
  5
C1
100
AcDbEntity
  8
s00f-#def-outline
  6
CONTINUOUS
 62
    7
420
    0
370
   50
100
AcDbPolyline
 90
    3
 70
    0
 43
0
 10
-36.03548367817367
 20
32.941445287408
 10
-37.30462037483839
 20
31.19462297911121
 10
-37.30462037483839
 20
29.41190781779967
  0
LWPOLYLINE
  5
C2
100
AcDbEntity
  8
s00f-#def-outline
  6
CONTINUOUS
 62
    7
420
    0
370
   50
100
AcDbPolyline
 90
    9
 70
    0
 43
0
 10
-53.87845665065474
 20
17.59727960156175
 10
-53.87845665065473
 20
20.04676934434493
 10
-69.5762271929961
 20
29.10988139264269
 10
-76.63832645932
 20
25.03257648018673
 10
-76.97387332213694
 20
24.80178055621504
 10
-77.24674831946982
 20
24.52628074902413
 10
-77.43281949348514
 20
24.21527581613366
 10
-77.51415078050596
 20
23.88338260390693
 10
-77.51415078050596
 20
16.52525257949547
  0
LWPOLYLINE
  5
C3
100
AcDbEntity
  8
s00f-#def-outline
  6
CONTINUOUS
 62
    7
420
    0
370
   50
100
AcDbPolyline
 90
    6
 70
    0
 43
0
 10
-75.16237076436984
 20
17.88305340488647
 10
-85.981104516524
 20
11.63685456078935
 10
-85.981104516524
 20
10.0038613989339
 10
-85.981104516524
 20
-2.243587314981993
 10
-78.4857726359466
 20
-6.571019193898942
 10
-76.01089890174774
 20
-5.142150177301957
  0
LWPOLYLINE
  5
C4
100
AcDbEntity
  8
s00f-#def-outline
  6
CONTINUOUS
 62
    7
420
    0
370
   50
100
AcDbPolyline
 90
   17
 70
    0
 43
0
 10
-75.28369110792947
 20
11.51438007365019
 10
-75.32612924961853
 20
11.27777099317756
 10
-75.44820735193071
 20
11.05575917666129
 10
-75.6357527033844
 20
10.86008681248324
 10
-75.86947754555636
 20
10.69788349272246
 10
-76.15042193653252
 20
10.56294239218048
 10
-76.48933641293189
 20
10.45466303303112
 10
-76.87387215901875
 20
10.38418120779904
 10
-77.28369110792943
 20
10.35967953527092
 10
-77.69351005684014
 20
10.38418120779902
 10
-78.07804580292701
 20
10.45466303303111
 10
-78.41696027932058
 20
10.56294239217818
 10
-78.69790467030255
 20
10.69788349272246
 10
-78.93162951247052
 20
10.86008681247986
 10
-79.11917486392824
 20
11.0557591766613
 10
-79.2412529662404
 20
11.27777099317758
 10
-79.28369110792947
 20
11.51438007365019
  0
LWPOLYLINE
  5
C5
100
AcDbEntity
  8
s00e-#def-hidden-edge
  6
DASHED
 62
    7
420
    0
370
   15
100
AcDbPolyline
 90
   19
 70
    0
 43
0
 10
-75.28369110792947
 20
11.51438007365019
 10
-75.28369110792947
 20
-0.7330686402657021
 10
-75.32612924961853
 20
-0.9696777207383276
 10
-75.44820735193093
 20
-1.19168953725494
 10
-75.63575270338842
 20
-1.387361901436022
 10
-75.86947754555636
 20
-1.549565221193432
 10
-76.15042193653835
 20
-1.684506321737715
 10
-76.48933641293189
 20
-1.792785680884776
 10
-76.87387215901876
 20
-1.863267506116857
 10
-77.28369110792947
 20
-1.887769178644951
 10
-77.69351005684017
 20
-1.863267506116869
 10
-78.07804580292759
 20
-1.792785680884648
 10
-78.41696027932639
 20
-1.684506321735404
 10
-78.69790467030255
 20
-1.549565221193432
 10
-78.93162951247452
 20
-1.387361901432676
 10
-79.11917486392824
 20
-1.19168953725459
 10
-79.24125296624037
 20
-0.9696777207383267
 10
-79.28369110792946
 20
-0.7330686402657118
 10
-79.28369110792947
 20
11.51438007365019
  0
LWPOLYLINE
  5
C6
100
AcDbEntity
  8
s00e-#def-hidden-edge
  6
DASHED
 62
    7
420
    0
370
   15
100
AcDbPolyline
 90
   17
 70
    0
 43
0
 10
-25.85692710298981
 20
18.90367413104612
 10
-25.89936524467887
 20
19.14028321151871
 10
-26.02144334699128
 20
19.36229502803532
 10
-26.20898869844875
 20
19.55796739221643
 10
-26.44271354061668
 20
19.72017071197383
 10
-26.72365793159287
 20
19.85511181251582
 10
-27.06257240799164
 20
19.96339117166503
 10
-27.44710815407908
 20
20.03387299689726
 10
-27.85692710298978
 20
20.05837466942536
 10
-28.26674605190049
 20
20.03387299689725
 10
-28.65128179798795
 20
19.96339117166504
 10
-28.99019627438672
 20
19.85511181251581
 10
-29.27114066536288
 20
19.72017071197383
 10
-29.50486550753085
 20
19.55796739221643
 10
-29.69241085898831
 20
19.36229502803533
 10
-29.81448896130072
 20
19.14028321151871
 10
-29.85692710298977
 20
18.9036741310461
  0
LWPOLYLINE
  5
C7
100
AcDbEntity
  8
s00e-#def-hidden-edge
  6
DASHED
 62
    7
420
    0
370
   15
100
AcDbPolyline
 90
   17
 70
    0
 43
0
 10
-43.9384025549409
 20
21.14903972859737
 10
-43.87474534240731
 20
21.50395334930625
 10
-43.69162818893904
 20
21.8369710740807
 10
-43.4103101617585
 20
22.1304796203478
 10
-43.05972289850056
 20
22.37378459998894
 10
-42.63830631203632
 20
22.57619625080191
 10
-42.12993459743812
 20
22.73861528952574
 10
-41.55313097830696
 20
22.84433802737408
 10
-40.93840255494092
 20
22.88109053616624
 10
-40.32367413157483
 20
22.84433802737408
 10
-39.74687051244369
 20
22.73861528952575
 10
-39.23849879784554
 20
22.57619625080191
 10
-38.81708221138128
 20
22.37378459998894
 10
-38.46649494812935
 20
22.13047962035284
 10
-38.18517692094316
 20
21.8369710740812
 10
-38.00205976747452
 20
21.50395334930627
 10
-37.9384025549409
 20
21.14903972859735
  0
LWPOLYLINE
  5
C8
100
AcDbEntity
  8
s00e-#def-hidden-edge
  6
DASHED
 62
    7
420
    0
370
   15
100
AcDbPolyline
 90
   17
 70
    0
 43
0
 10
40.96968897230838
 20
-11.63329799565084
 10
40.91664129519702
 20
-11.33753664506009
 10
40.76404366730653
 20
-11.06002187441431
 10
40.52961197798469
 20
-10.81543141918795
 10
40.23745592527474
 20
-10.61267726949119
 10
39.88627543655453
 20
-10.44400089381372
 10
39.46263234105606
 20
-10.30865169487719
 10
38.98196265844676
 20
-10.22054941333691
 10
38.46968897230838
 20
-10.18992232267678
 10
37.95741528616999
 20
-10.2205494133369
 10
37.47674560356141
 20
-10.30865169487701
 10
37.0531025080695
 20
-10.44400089381083
 10
36.70192201934201
 20
-10.61267726949119
 10
36.40976596662706
 20
-10.81543141919215
 10
36.17533427730992
 20
-11.06002187441473
 10
36.02273664941972
 20
-11.33753664506008
 10
35.96968897230838
 20
-11.63329799565085
  0
LWPOLYLINE
  5
C9
100
AcDbEntity
  8
s00e-#def-hidden-edge
  6
DASHED
 62
    7
420
    0
370
   15
100
AcDbPolyline
 90
    5
 70
    0
 43
0
 10
-29.92763778110843
 20
25.39482194942154
 10
-29.34185134348151
 20
26.21131853034924
 10
-27.92763778110843
 20
26.54952248780079
 10
-26.51342421873535
 20
26.21131853034926
 10
-25.92763778110846
 20
25.39482194942154
  0
LWPOLYLINE
  5
CA
100
AcDbEntity
  8
s00e-#def-hidden-edge
  6
DASHED
 62
    7
420
    0
370
   15
100
AcDbPolyline
 90
   33
 70
    0
 43
0
 10
-19.12900504163193
 20
-0.6922438112193223
 10
-19.10761577395149
 20
-0.4537368995992441
 10
-19.04412875825378
 20
-0.2190256502741033
 10
-18.9405329062763
 20
0.008292967981574861
 10
-18.79997255362897
 20
0.224997982759124
 10
-18.62651689113626
 20
0.4283826300442044
 10
-18.4248818507141
 20
0.6163427111213142
 10
-18.2001376496055
 20
0.7874120614125033
 10
-17.95743216637812
 20
0.9407493506361355
 10
-17.69184419074793
 20
1.080875426711248
 10
-17.3955433844258
 20
1.210631551720091
 10
-17.06998697420548
 20
1.327045596585894
 10
-16.71771443162822
 20
1.427190270018528
 10
-16.34237033577857
 20
1.50834282745687
 10
-15.94864293945336
 20
1.568153920482986
 10
-15.5421111383675
 20
1.60480816561534
 10
-15.12900504163194
 20
1.617157265539186
 10
-14.71589894489635
 20
1.604808165615337
 10
-14.30936714381051
 20
1.568153920482981
 10
-13.91563974748528
 20
1.508342827456854
 10
-13.54029565163565
 20
1.427190270018528
 10
-13.18802310905839
 20
1.327045596585903
 10
-12.86246669883807
 20
1.210631551720089
 10
-12.56616589251583
 20
1.080875426711179
 10
-12.30057791688574
 20
0.9407493506361355
 10
-12.05787243365847
 20
0.7874120614125548
 10
-11.83312823254984
 20
0.6163427111213213
 10
-11.63149319212764
 20
0.4283826300442328
 10
-11.45803752963492
 20
0.2249979827591275
 10
-11.31747717698756
 20
0.008292967981592625
 10
-11.21388132501009
 20
-0.2190256502741033
 10
-11.15039431012779
 20
-0.4537368950651572
 10
-11.12900504163194
 20
-0.6922438112193188
  0
LWPOLYLINE
  5
CB
100
AcDbEntity
  8
s00e-#def-hidden-edge
  6
DASHED
 62
    7
420
    0
370
   15
100
AcDbPolyline
 90
   17
 70
    0
 43
0
 10
-79.28369110792946
 20
-0.7330686402657118
 10
-79.24125296624038
 20
-0.4964595597931041
 10
-79.11917486392821
 20
-0.2744477432768289
 10
-78.9316295124745
 20
-0.07877537909874732
 10
-78.69790467030258
 20
0.08342794066203041
 10
-78.41696027932642
 20
0.2183690412040109
 10
-78.07804580292759
 20
0.3266484003532186
 10
-77.69351005684015
 20
0.3971302255854292
 10
-77.28369110792947
 20
0.4216318981135476
 10
-76.87387215901873
 20
0.3971302255854443
 10
-76.48933641293189
 20
0.3266484003533599
 10
-76.15042193653841
 20
0.2183690412063326
 10
-75.86947754555636
 20
0.08342794066202064
 10
-75.63575270338438
 20
-0.07877537909876065
 10
-75.44820735193072
 20
-0.2744477432767969
 10
-75.32612924961852
 20
-0.4964595597931156
 10
-75.28369110792947
 20
-0.7330686402657021
  0
LWPOLYLINE
  5
CC
100
AcDbEntity
  8
s00e-#def-hidden-edge
  6
DASHED
 62
    7
420
    0
370
   15
100
AcDbPolyline
 90
    3
 70
    0
 43
0
 10
-11.28482491371613
 20
1.935442910910147
 10
-11.15039430931236
 20
2.335235600871525
 10
-11.12900504163194
 20
2.57374251249159
  0
LWPOLYLINE
  5
CD
100
AcDbEntity
  8
s00e-#def-hidden-edge
  6
DASHED
 62
    7
420
    0
370
   15
100
AcDbPolyline
 90
   26
 70
    0
 43
0
 10
-14.02343770127699
 20
0.3543040808201541
 10
-16.89677199459829
 20
-1.304616246915118
 10
-17.16235997022842
 20
-1.444742322990179
 10
-17.45866077655062
 20
-1.574498447999061
 10
-17.78421718677095
 20
-1.690912492864876
 10
-18.1364897293482
 20
-1.791057166297506
 10
-18.51183382519784
 20
-1.87220972373584
 10
-18.90556122152305
 20
-1.932020816761981
 10
-19.31209302260892
 20
-1.96867506189431
 10
-19.72519911934448
 20
-1.981024161818165
 10
-20.13830521608005
 20
-1.968675061894309
 10
-20.54483701716591
 20
-1.932020816761971
 10
-20.93856441349114
 20
-1.87220972373584
 10
-21.31390850934077
 20
-1.791057166297516
 10
-21.66618105191804
 20
-1.690912492864878
 10
-21.99173746213835
 20
-1.574498447999054
 10
-22.28803826846057
 20
-1.444742322990191
 10
-22.55362624409067
 20
-1.304616246915118
 10
-34.59170804336297
 20
5.645573520421476
 10
-35.05780121349682
 20
5.948141011735677
 10
-35.46759563124099
 20
6.28760940966252
 10
-35.8087755330391
 20
6.658448419874087
 10
-36.07136906073303
 20
7.053387817460625
 10
-36.2486229236827
 20
7.463862263337657
 10
-36.33755974172097
 20
7.880619059831848
 10
-36.33912527954222
 20
8.294400561544469
  0
LWPOLYLINE
  5
CE
100
AcDbEntity
  8
s00e-#def-hidden-edge
  6
DASHED
 62
    7
420
    0
370
   15
100
AcDbPolyline
 90
    3
 70
    0
 43
0
 10
9.65617933043535
 20
40.81181681757453
 10
9.717863561815442
 20
40.67658154355507
 10
9.75564264244121
 20
40.54318390581365
  0
LWPOLYLINE
  5
CF
100
AcDbEntity
  8
s00e-#def-hidden-edge
  6
DASHED
 62
    7
420
    0
370
   15
100
AcDbPolyline
 90
    6
 70
    0
 43
0
 10
-2.551979102753393
 20
35.03575637195991
 10
-2.751078756190683
 20
34.42794683520927
 10
-3.461389216566769
 20
33.96484244784992
 10
-4.482332703173782
 20
33.77721483079178
 10
-5.52561474451635
 20
33.91804635319365
 10
-6.29663289817233
 20
34.3475689477204
  0
LWPOLYLINE
  5
D0
100
AcDbEntity
  8
s00e-#def-hidden-edge
  6
DASHED
 62
    7
420
    0
370
   15
100
AcDbPolyline
 90
   11
 70
    0
 43
0
 10
-9.477408665532654
 20
33.82590585210286
 10
-11.39708739935667
 20
32.87674235043212
 10
-12.78401277292366
 20
32.50458408514882
 10
-14.30396937776632
 20
32.60256237270142
 10
-16.58607373348647
 20
32.74887273139954
 10
-18.66656501042585
 20
32.18798756782238
 10
-20.83523424309372
 20
31.11051629616274
 10
-23.18081092411279
 20
30.30647180684699
 10
-26.05345916323721
 20
30.01495565493388
 10
-28.91197379379553
 20
30.34959327592009
 10
-31.22046210724474
 20
31.18865511244048
  0
LWPOLYLINE
  5
D1
100
AcDbEntity
  8
s00e-#def-hidden-edge
  6
DASHED
 62
    7
420
    0
370
   15
100
AcDbPolyline
 90
    7
 70
    0
 43
0
 10
-48.59326871998501
 20
19.04021677891289
 10
-48.56634211591853
 20
17.85167116151127
 10
-47.94855302933131
 20
16.71780113068257
 10
-46.84873106688664
 20
15.77047351472911
 10
-45.06038263601995
 20
14.61765430352854
 10
-44.57950829729566
 20
14.16878311715456
 10
-44.39624353352164
 20
13.61363585293494
  0
LWPOLYLINE
  5
D2
100
AcDbEntity
  8
s00e-#def-hidden-edge
  6
DASHED
 62
    7
420
    0
370
   15
100
AcDbPolyline
 90
   27
 70
    0
 43
0
 10
-38.11446624282449
 20
21.46954761266371
 10
-37.86769187682228
 20
20.78161626717988
 10
-38.11446624282452
 20
20.09368492169607
 10
-38.74637153326263
 20
19.5568713957883
 10
-39.67615983432505
 20
19.19204070625149
 10
-40.86769187682224
 20
19.049565459611
 10
-42.05922391931948
 20
19.1920407062515
 10
-42.98901222038191
 20
19.55687139578829
 10
-43.62091751082004
 20
20.09368492169604
 10
-43.86769187682228
 20
20.78161626717989
 10
-43.86769187682226
 20
17.51562994346897
 10
-43.62091751091424
 20
18.20356128882711
 10
-42.9890122203819
 20
18.74037481486056
 10
-42.05922391931947
 20
19.10520550439736
 10
-40.86769187682224
 20
19.24768075103783
 10
-39.67615983432506
 20
19.10520550439738
 10
-38.74637153326263
 20
18.74037481486056
 10
-38.11446624282448
 20
18.20356128895281
 10
-37.86769187682226
 20
17.51562994346898
 10
-38.11446624273029
 20
16.82769859811084
 10
-38.74637153326262
 20
16.29088507207739
 10
-39.67615983454276
 20
15.92605438248621
 10
-40.86769187682225
 20
15.78357913590008
 10
-42.0592239191018
 20
15.9260543824862
 10
-42.98901222038191
 20
16.29088507207738
 10
-43.62091751091425
 20
16.82769859811083
 10
-43.86769187682226
 20
17.51562994346897
  0
LWPOLYLINE
  5
D3
100
AcDbEntity
  8
s00e-#def-hidden-edge
  6
DASHED
 62
    7
420
    0
370
   15
100
AcDbPolyline
 90
    8
 70
    0
 43
0
 10
-43.86769187682228
 20
20.78161626717989
 10
-43.62091751082004
 20
21.46954761266371
 10
-42.9890122203819
 20
22.00636113857146
 10
-42.05922391931947
 20
22.37119182810826
 10
-40.86769187682224
 20
22.51366707474874
 10
-39.67615983432505
 20
22.37119182810827
 10
-38.74637153326263
 20
22.00636113857147
 10
-38.11446624282449
 20
21.46954761266371
  0
LWPOLYLINE
  5
D4
100
AcDbEntity
  8
s00e-#def-hidden-edge
  6
DASHED
 62
    7
420
    0
370
   15
100
AcDbPolyline
 90
   35
 70
    0
 43
0
 10
-38.81708221138127
 20
15.84181195256713
 10
-38.46649494812332
 20
16.08511693220828
 10
-38.18517692094279
 20
16.37862547847539
 10
-38.00205976747454
 20
16.7116432032498
 10
-37.93840255494094
 20
17.06655682395873
 10
-37.93840255494092
 20
9.30983930514533
 10
-38.00205976747451
 20
9.664752925854232
 10
-38.18517692094316
 20
9.997770650629162
 10
-38.46649494812936
 20
10.29127919690082
 10
-38.81708221138127
 20
10.53458417653691
 10
-39.23849879784554
 20
10.73699582734987
 10
-39.74687051244368
 20
10.89941486607371
 10
-40.32367413157483
 20
11.00513760392205
 10
-40.9384025549409
 20
11.04189011271421
 10
-41.55313097830698
 20
11.00513760392205
 10
-42.12993459743728
 20
10.89941486607393
 10
-42.63830631202759
 20
10.73699582735335
 10
-43.05972289850055
 20
10.53458417653691
 10
-43.41031016175852
 20
10.29127919689576
 10
-43.69162818893906
 20
9.997770650628663
 10
-43.8747453424073
 20
9.664752925854222
 10
-43.93840255494092
 20
9.309839305145328
 10
-43.93840255494092
 20
17.06655682395872
 10
-43.8747453424073
 20
16.71164320324981
 10
-43.69162818893869
 20
16.3786254784749
 10
-43.41031016175851
 20
16.08511693220829
 10
-43.05972289850058
 20
15.84181195256713
 10
-42.63830631203634
 20
15.63940030175418
 10
-42.12993459743813
 20
15.47698126303034
 10
-41.55313097830698
 20
15.37125852518197
 10
-40.93840255494092
 20
15.33450601638986
 10
-40.32367413157484
 20
15.37125852518198
 10
-39.74687051244371
 20
15.47698126303035
 10
-39.23849879784553
 20
15.63940030175418
 10
-38.81708221138127
 20
15.84181195256713
  0
LWPOLYLINE
  5
D5
100
AcDbEntity
  8
s00e-#def-hidden-edge
  6
DASHED
 62
    7
420
    0
370
   15
100
AcDbPolyline
 90
   17
 70
    0
 43
0
 10
-37.93840255494094
 20
17.06655682395873
 10
-38.00205976747452
 20
17.42147044466764
 10
-38.18517692094315
 20
17.75448816944256
 10
-38.46649494812935
 20
18.04799671571421
 10
-38.81708221138128
 20
18.29130169535031
 10
-39.23849879784554
 20
18.49371334616328
 10
-39.74687051244369
 20
18.65613238488712
 10
-40.32367413157485
 20
18.76185512273546
 10
-40.93840255494091
 20
18.7986076315276
 10
-41.55313097830697
 20
18.76185512273544
 10
-42.12993459743812
 20
18.65613238488712
 10
-42.63830631203632
 20
18.49371334616328
 10
-43.05972289850055
 20
18.29130169535031
 10
-43.41031016175251
 20
18.04799671571421
 10
-43.69162818893869
 20
17.75448816944257
 10
-43.8747453424073
 20
17.42147044466763
 10
-43.93840255494092
 20
17.06655682395872
  0
LWPOLYLINE
  5
D6
100
AcDbEntity
  8
s00e-#def-hidden-edge
  6
DASHED
 62
    7
420
    0
370
   15
100
AcDbPolyline
 90
   17
 70
    0
 43
0
 10
-43.93840255494092
 20
9.309839305145328
 10
-43.8747453424073
 20
8.954925684436415
 10
-43.69162818893908
 20
8.621907959662
 10
-43.41031016175852
 20
8.328399413394898
 10
-43.05972289850057
 20
8.085094433753737
 10
-42.63830631202757
 20
7.882682782937296
 10
-42.12993459743726
 20
7.720263744216718
 10
-41.55313097830697
 20
7.614541006368585
 10
-40.93840255494094
 20
7.577788497576442
 10
-40.32367413157486
 20
7.614541006368604
 10
-39.74687051244457
 20
7.720263744216721
 10
-39.23849879785427
 20
7.882682782937312
 10
-38.81708221138127
 20
8.085094433753733
 10
-38.46649494812935
 20
8.328399413389848
 10
-38.18517692094315
 20
8.621907959661494
 10
-38.00205976747454
 20
8.954925684436406
 10
-37.93840255494092
 20
9.30983930514533
  0
LINE
  5
D7
100
AcDbEntity
  8
s005-#def-solid-edge
  6
CONTINUOUS
 62
    7
420
    0
370
   15
100
AcDbLine
 10
-23.61428641587052
 20
42.58207497795016
 11
-32.80667457129563
 21
47.8893027539804
  0
LINE
  5
D8
100
AcDbEntity
  8
s00e-#def-hidden-edge
  6
DASHED
 62
    7
420
    0
370
   15
100
AcDbLine
 10
-26.44271354061671
 20
51.56353736815518
 11
-26.44271354061671
 21
34.41710916867291
  0
LINE
  5
D9
100
AcDbEntity
  8
s00e-#def-hidden-edge
  6
DASHED
 62
    7
420
    0
370
   15
100
AcDbLine
 10
-67.03230954484656
 20
-3.632593809273653
 11
-67.03230954484656
 21
-1.344478769246959
  0
LINE
  5
DA
100
AcDbEntity
  8
s005-#def-solid-edge
  6
CONTINUOUS
 62
    7
420
    0
370
   15
100
AcDbLine
 10
-67.03230954484656
 20
-1.344478769246959
 11
-67.03230954484656
 21
0.04164080490111211
  0
LINE
  5
DB
100
AcDbEntity
  8
s00e-#def-hidden-edge
  6
DASHED
 62
    7
420
    0
370
   15
100
AcDbLine
 10
-75.16237076436984
 20
17.88305340488647
 11
-75.16237076436983
 21
5.635604690970559
  0
LINE
  5
DC
100
AcDbEntity
  8
s00e-#def-hidden-edge
  6
DASHED
 62
    7
420
    0
370
   15
100
AcDbLine
 10
24.32755334857743
 20
3.880137041975955
 11
3.821456694167537
 21
-7.959063381476078
  0
LINE
  5
DD
100
AcDbEntity
  8
s00e-#def-hidden-edge
  6
DASHED
 62
    7
420
    0
370
   15
100
AcDbLine
 10
-31.25641619278756
 20
-2.403782484292147
 11
-35.96983567625689
 21
0.3175115232924966
  0
LINE
  5
DE
100
AcDbEntity
  8
s00e-#def-hidden-edge
  6
DASHED
 62
    7
420
    0
370
   15
100
AcDbLine
 10
0.695908520628997
 20
8.134162864116746
 11
7.851965346930863
 21
4.002611529115108
  0
LINE
  5
DF
100
AcDbEntity
  8
s00e-#def-hidden-edge
  6
DASHED
 62
    7
420
    0
370
   15
100
AcDbLine
 10
-34.57444152426199
 20
14.20881879071168
 11
-34.574441524262
 21
18.69954998581418
  0
LINE
  5
E0
100
AcDbEntity
  8
s00e-#def-hidden-edge
  6
DASHED
 62
    7
420
    0
370
   15
100
AcDbLine
 10
-19.27179594657783
 20
2.524591053890271
 11
-22.81468833181545
 21
0.4791011815634421
  0
LINE
  5
E1
100
AcDbEntity
  8
s005-#def-solid-edge
  6
CONTINUOUS
 62
    7
420
    0
370
   15
100
AcDbLine
 10
-22.81468833181545
 20
0.4791011815634421
 11
-26.2298171855945
 21
2.450826744610032
  0
LINE
  5
E2
100
AcDbEntity
  8
s00e-#def-hidden-edge
  6
DASHED
 62
    7
420
    0
370
   15
100
AcDbLine
 10
-43.03311821713145
 20
18.30666191530049
 11
-43.03311821713146
 21
22.797393110403
  0
LINE
  5
E3
100
AcDbEntity
  8
s00e-#def-hidden-edge
  6
DASHED
 62
    7
420
    0
370
   15
100
AcDbLine
 10
-32.80667457129563
 20
34.00886087820905
 11
-37.84966915149396
 21
31.09728659980973
  0
LINE
  5
E4
100
AcDbEntity
  8
s005-#def-solid-edge
  6
CONTINUOUS
 62
    7
420
    0
370
   15
100
AcDbLine
 10
-25.8569271029898
 20
22.16966045475702
 11
-25.87677701489931
 21
22.28033140351779
  0
LINE
  5
E5
100
AcDbEntity
  8
s005-#def-solid-edge
  6
CONTINUOUS
 62
    7
420
    0
370
   15
100
AcDbLine
 10
-46.836318355488
 20
14.72799571472284
 11
-46.836318355488
 21
15.13624400518668
  0
LINE
  5
E6
100
AcDbEntity
  8
s00e-#def-hidden-edge
  6
DASHED
 62
    7
420
    0
370
   15
100
AcDbLine
 10
-69.47737094657956
 20
12.83702445456784
 11
-69.47737094657954
 21
26.71746633033919
  0
LINE
  5
E7
100
AcDbEntity
  8
s00e-#def-hidden-edge
  6
DASHED
 62
    7
420
    0
370
   15
100
AcDbLine
 10
-69.5762271929961
 20
26.66039164985952
 11
-69.5762271929961
 21
29.10988139264269
  0
LINE
  5
E8
100
AcDbEntity
  8
s005-#def-solid-edge
  6
CONTINUOUS
 62
    7
420
    0
370
   15
100
AcDbLine
 10
-78.48577263587589
 20
5.676429519976128
 11
-85.981104516524
 21
10.0038613989339
  0
LINE
  5
E9
100
AcDbEntity
  8
s005-#def-solid-edge
  6
CONTINUOUS
 62
    7
420
    0
370
   15
100
AcDbLine
 10
-53.87845665065473
 20
20.04676934434493
 11
-57.92093863446641
 21
17.71284128279706
  0
LINE
  5
EA
100
AcDbEntity
  8
s005-#def-solid-edge
  6
CONTINUOUS
 62
    7
420
    0
370
   15
100
AcDbLine
 10
-78.4857726359466
 20
-6.571019193898942
 11
-78.48577263594662
 21
-3.713281160651892
  0
LINE
  5
EB
100
AcDbEntity
  8
s005-#def-solid-edge
  6
CONTINUOUS
 62
    7
420
    0
370
   15
100
AcDbLine
 10
-13.71479147925883
 20
7.064473707594074
 11
-11.82051339745178
 21
5.97081174714277
  0
LINE
  5
EC
100
AcDbEntity
  8
s005-#def-solid-edge
  6
CONTINUOUS
 62
    7
420
    0
370
   15
100
AcDbLine
 10
0.695908520628997
 20
22.01460473988809
 11
6.43775178455778
 21
18.69954998581417
  0
LINE
  5
ED
100
AcDbEntity
  8
s00e-#def-hidden-edge
  6
DASHED
 62
    7
420
    0
370
   15
100
AcDbLine
 10
-1.340422808494256
 20
12.57582562885623
 11
-2.754636370867339
 21
13.39232220978395
  0
LINE
  5
EE
100
AcDbEntity
  8
s005-#def-solid-edge
  6
CONTINUOUS
 62
    7
420
    0
370
   15
100
AcDbLine
 10
13.51782565219049
 20
47.44589791087439
 11
13.52798865178371
 21
47.58562072678448
  0
LINE
  5
EF
100
AcDbEntity
  8
s005-#def-solid-edge
  6
CONTINUOUS
 62
    7
420
    0
370
   15
100
AcDbLine
 10
-2.920312104100105
 20
42.14861018078308
 11
-2.5519791027534
 21
41.56772901938174
  0
LINE
  5
F0
100
AcDbEntity
  8
s005-#def-solid-edge
  6
CONTINUOUS
 62
    7
420
    0
370
   15
100
AcDbLine
 10
-35.98578102252331
 20
35.86864389661491
 11
-34.64876510310386
 21
35.36964387904191
  0
LINE
  5
F1
100
AcDbEntity
  8
s005-#def-solid-edge
  6
CONTINUOUS
 62
    7
420
    0
370
   15
100
AcDbLine
 10
-37.84966915149396
 20
32.99402031493523
 11
-36.03548367817367
 21
32.941445287408
  0
LINE
  5
F2
100
AcDbEntity
  8
s00e-#def-hidden-edge
  6
DASHED
 62
    7
420
    0
370
   15
100
AcDbLine
 10
9.003278794220435
 20
30.62200841945652
 11
8.993186132506853
 21
31.99373379009327
  0
LINE
  5
F3
100
AcDbEntity
  8
s00e-#def-hidden-edge
  6
DASHED
 62
    7
420
    0
370
   15
100
AcDbLine
 10
-36.03548367817366
 20
26.40947263998618
 11
-37.30462037483839
 21
24.6626503316894
  0
LINE
  5
F4
100
AcDbEntity
  8
s00e-#def-hidden-edge
  6
DASHED
 62
    7
420
    0
370
   15
100
AcDbLine
 10
5.158974459405084
 20
34.95648307508202
 11
8.107115660476229
 21
36.65859319112947
  0
LINE
  5
F5
100
AcDbEntity
  8
s00e-#def-hidden-edge
  6
DASHED
 62
    7
420
    0
370
   15
100
AcDbLine
 10
-46.836318355488
 20
14.73667083890302
 11
-46.8535627964852
 21
14.72558916203743
  0
LINE
  5
F6
100
AcDbEntity
  8
s00e-#def-hidden-edge
  6
DASHED
 62
    7
420
    0
370
   15
100
AcDbLine
 10
-20.74326884451244
 20
7.936285109950834
 11
-25.01356322103272
 21
10.40174071775376
  0
LINE
  5
F7
100
AcDbEntity
  8
s00e-#def-hidden-edge
  6
DASHED
 62
    7
420
    0
370
   15
100
AcDbLine
 10
-35.09157932845022
 20
21.08876025993091
 11
-35.03463129792971
 21
21.73937198852841
  0
LINE
  5
F8
100
AcDbEntity
  8
s005-#def-solid-edge
  6
CONTINUOUS
 62
    7
420
    0
370
   15
100
AcDbLine
 10
10.92077692786802
 20
44.81503392868837
 11
10.92077692786802
 21
38.28306128126654
  0
LINE
  5
F9
100
AcDbEntity
  8
s005-#def-solid-edge
  6
CONTINUOUS
 62
    7
420
    0
370
   15
100
AcDbLine
 10
-13.71479147925885
 20
45.03156472073335
 11
-13.71479147925885
 21
39.09655588218226
  0
LINE
  5
FA
100
AcDbEntity
  8
s00e-#def-hidden-edge
  6
DASHED
 62
    7
420
    0
370
   15
100
AcDbLine
 10
-34.57444152426201
 20
22.78203289045283
 11
-43.03311821713142
 21
26.8798760150416
  0
LINE
  5
FB
100
AcDbEntity
  8
s005-#def-solid-edge
  6
CONTINUOUS
 62
    7
420
    0
370
   15
100
AcDbLine
 10
-75.16237076436984
 20
17.88305340488647
 11
-67.03230954484656
 21
12.28908951881701
  0
LINE
  5
FC
100
AcDbEntity
  8
s005-#def-solid-edge
  6
CONTINUOUS
 62
    7
420
    0
370
   15
100
AcDbLine
 10
-3.610243450353167
 20
-12.24975746045169
 11
-3.610243450353173
 21
-4.08479165117442
  0
LINE
  5
FD
100
AcDbEntity
  8
s005-#def-solid-edge
  6
CONTINUOUS
 62
    7
420
    0
370
   15
100
AcDbLine
 10
-11.82051339745178
 20
-7.09313354770085
 11
-11.82051339745177
 21
-13.62510619512266
  0
LINE
  5
FE
100
AcDbEntity
  8
s00e-#def-hidden-edge
  6
DASHED
 62
    7
420
    0
370
   15
100
AcDbLine
 10
13.52798865178372
 20
47.3362304581986
 11
13.52798865178372
 21
41.0536480793627
  0
LINE
  5
FF
100
AcDbEntity
  8
s00f-#def-outline
  6
CONTINUOUS
 62
    7
420
    0
370
   50
100
AcDbLine
 10
-23.25225239695514
 20
3.589466945606588
 11
-22.81468833181545
 21
3.336839214810481
  0
LINE
  5
100
100
AcDbEntity
  8
s00f-#def-outline
  6
CONTINUOUS
 62
    7
420
    0
370
   50
100
AcDbLine
 10
-29.27339640811765
 20
-3.548679490779676
 11
-31.25641619278756
 21
-2.403782484292147
  0
LINE
  5
101
100
AcDbEntity
  8
s00f-#def-outline
  6
CONTINUOUS
 62
    7
420
    0
370
   50
100
AcDbLine
 10
-39.18826517491807
 20
30.32444782534966
 11
-37.84966915149396
 21
31.09728659980973
  0
LINE
  5
102
100
AcDbEntity
  8
s00f-#def-outline
  6
CONTINUOUS
 62
    7
420
    0
370
   50
100
AcDbLine
 10
-35.03463129792971
 20
21.27522611228505
 11
-35.03463129792971
 21
19.81354198221959
  0
LINE
  5
103
100
AcDbEntity
  8
s00e-#def-hidden-edge
  6
DASHED
 62
    7
420
    0
370
   15
100
AcDbLine
 10
-37.86769187682228
 20
20.78161626717988
 11
-37.86769187682226
 21
17.51562994346898
  0
LINE
  5
104
100
AcDbEntity
  8
s00f-#def-outline
  6
CONTINUOUS
 62
    7
420
    0
370
   50
100
AcDbLine
 10
-46.836318355488
 20
14.73667083890302
 11
-46.12366573172994
 21
15.19463790754764
  0
LINE
  5
105
100
AcDbEntity
  8
s00f-#def-outline
  6
CONTINUOUS
 62
    7
420
    0
370
   50
100
AcDbLine
 10
-67.03230954484656
 20
0.04164080490111211
 11
-68.23272430874165
 21
-0.6514189821729228
  0
ENDSEC
  0
SECTION
  2
OBJECTS
  0
DICTIONARY
  5
C
330
0
100
AcDbDictionary
281
    1
  3
ACAD_GROUP
350
D
  0
DICTIONARY
  5
D
330
C
100
AcDbDictionary
281
    1
  0
ENDSEC
  0
EOF
