999
dxfrw 0.6.3
  0
SECTION
  2
HEADER
  9
$ACADVER
  1
AC1021
  9
$DWGCODEPAGE
  3
ANSI_1252
  9
$INSBASE
 10
0
 20
0
 30
0
  9
$EXTMIN
 10
1e+020
 20
1e+020
 30
1e+020
  9
$EXTMAX
 10
-1e+020
 20
-1e+020
 30
-1e+020
  9
$LIMMIN
 10
0
 20
0
  9
$LIMMAX
 10
420
 20
297
  9
$ORTHOMODE
 70
    0
  9
$REGENMODE
 70
    1
  9
$FILLMODE
 70
    1
  9
$QTEXTMODE
 70
    0
  9
$MIRRTEXT
 70
    0
  9
$LTSCALE
 40
1
  9
$ATTMODE
 70
    0
  9
$TEXTSIZE
 40
2.5
  9
$TRACEWID
 40
15.68
  9
$TEXTSTYLE
  7
STANDARD
  9
$CLAYER
  8
0
  9
$CELTYPE
  6
BYLAYER
  9
$CECOLOR
 62
  256
  9
$CELTSCALE
 40
1
  9
$DISPSILH
 70
    0
  9
$DIMSCALE
 40
1
  9
$DIMASZ
 40
2.5
  9
$DIMEXO
 40
0.625
  9
$DIMDLI
 40
3.75
  9
$DIMRND
 40
0
  9
$DIMDLE
 40
0
  9
$DIMEXE
 40
1.25
  9
$DIMTP
 40
0
  9
$DIMTM
 40
0
  9
$DIMTXT
 40
2.5
  9
$DIMCEN
 40
2.5
  9
$DIMTSZ
 40
0
  9
$DIMTOL
 70
    0
  9
$DIMLIM
 70
    0
  9
$DIMTIH
 70
    0
  9
$DIMTOH
 70
    0
  9
$DIMSE1
 70
    0
  9
$DIMSE2
 70
    0
  9
$DIMTAD
 70
    1
  9
$DIMZIN
 70
    8
  9
$DIMBLK
  1

  9
$DIMASO
 70
    1
  9
$DIMSHO
 70
    1
  9
$DIMPOST
  1

  9
$DIMAPOST
  1

  9
$DIMALT
 70
    0
  9
$DIMALTD
 70
    3
  9
$DIMALTF
 40
0.03937
  9
$DIMLFAC
 40
1
  9
$DIMTOFL
 70
    1
  9
$DIMTVP
 40
0
  9
$DIMTIX
 70
    0
  9
$DIMSOXD
 70
    0
  9
$DIMSAH
 70
    0
  9
$DIMBLK1
  1

  9
$DIMBLK2
  1

  9
$DIMSTYLE
  2
STANDARD
  9
$DIMCLRD
 70
    0
  9
$DIMCLRE
 70
    0
  9
$DIMCLRT
 70
    0
  9
$DIMTFAC
 40
1
  9
$DIMGAP
 40
0.625
  9
$DIMJUST
 70
    0
  9
$DIMSD1
 70
    0
  9
$DIMSD2
 70
    0
  9
$DIMTOLJ
 70
    0
  9
$DIMTZIN
 70
    8
  9
$DIMALTZ
 70
    0
  9
$DIMALTTZ
 70
    0
  9
$DIMUPT
 70
    0
  9
$DIMDEC
 70
    2
  9
$DIMTDEC
 70
    2
  9
$DIMALTU
 70
    2
  9
$DIMALTTD
 70
    3
  9
$DIMTXSTY
  7
STANDARD
  9
$DIMAUNIT
 70
    0
  9
$DIMADEC
 70
    0
  9
$DIMALTRND
 40
0
  9
$DIMAZIN
 70
    0
  9
$DIMDSEP
 70
   44
  9
$DIMATFIT
 70
    3
  9
$DIMFRAC
 70
    0
  9
$DIMLDRBLK
  1
STANDARD
  9
$DIMLUNIT
 70
    2
  9
$DIMLWD
 70
   -2
  9
$DIMLWE
 70
   -2
  9
$DIMTMOVE
 70
    0
  9
$DIMFXL
 40
1
  9
$DIMFXLON
 70
    0
  9
$DIMJOGANG
 40
0.7854
  9
$DIMTFILL
 70
    0
  9
$DIMTFILLCLR
 70
    0
  9
$DIMARCSYM
 70
    0
  9
$DIMLTYPE
  6

  9
$DIMLTEX1
  6

  9
$DIMLTEX2
  6

  9
$LUNITS
 70
    2
  9
$LUPREC
 70
    4
  9
$SKETCHINC
 40
1
  9
$FILLETRAD
 40
0
  9
$AUNITS
 70
    0
  9
$AUPREC
 70
    2
  9
$MENU
  1
.
  9
$ELEVATION
 40
0
  9
$PELEVATION
 40
0
  9
$THICKNESS
 40
0
  9
$LIMCHECK
 70
    0
  9
$CHAMFERA
 40
0
  9
$CHAMFERB
 40
0
  9
$CHAMFERC
 40
0
  9
$CHAMFERD
 40
0
  9
$SKPOLY
 70
    0
  9
$USRTIMER
 70
    1
  9
$ANGBASE
 50
0
  9
$ANGDIR
 70
    0
  9
$PDMODE
 70
   34
  9
$PDSIZE
 40
0
  9
$PLINEWID
 40
0
  9
$SPLFRAME
 70
    0
  9
$SPLINETYPE
 70
    2
  9
$SPLINESEGS
 70
    8
  9
$HANDSEED
  5
20000
  9
$SURFTAB1
 70
    6
  9
$SURFTAB2
 70
    6
  9
$SURFTYPE
 70
    6
  9
$SURFU
 70
    6
  9
$SURFV
 70
    6
  9
$UCSBASE
  2

  9
$UCSNAME
  2

  9
$UCSORG
 10
0
 20
0
 30
0
  9
$UCSXDIR
 10
1
 20
0
 30
0
  9
$UCSYDIR
 10
0
 20
1
 30
0
  9
$UCSORTHOREF
  2

  9
$UCSORTHOVIEW
 70
    0
  9
$UCSORGTOP
 10
0
 20
0
 30
0
  9
$UCSORGBOTTOM
 10
0
 20
0
 30
0
  9
$UCSORGLEFT
 10
0
 20
0
 30
0
  9
$UCSORGRIGHT
 10
0
 20
0
 30
0
  9
$UCSORGFRONT
 10
0
 20
0
 30
0
  9
$UCSORGBACK
 10
0
 20
0
 30
0
  9
$PUCSBASE
  2

  9
$PUCSNAME
  2

  9
$PUCSORG
 10
0
 20
0
 30
0
  9
$PUCSXDIR
 10
1
 20
0
 30
0
  9
$PUCSYDIR
 10
0
 20
1
 30
0
  9
$PUCSORTHOREF
  2

  9
$PUCSORTHOVIEW
 70
    0
  9
$PUCSORGTOP
 10
0
 20
0
 30
0
  9
$PUCSORGBOTTOM
 10
0
 20
0
 30
0
  9
$PUCSORGLEFT
 10
0
 20
0
 30
0
  9
$PUCSORGRIGHT
 10
0
 20
0
 30
0
  9
$PUCSORGFRONT
 10
0
 20
0
 30
0
  9
$PUCSORGBACK
 10
0
 20
0
 30
0
  9
$USERI1
 70
    0
  9
$USERI2
 70
    0
  9
$USERI3
 70
    0
  9
$USERI4
 70
    0
  9
$USERI5
 70
    0
  9
$USERR1
 40
0
  9
$USERR2
 40
0
  9
$USERR3
 40
0
  9
$USERR4
 40
0
  9
$USERR5
 40
0
  9
$WORLDVIEW
 70
    1
  9
$SHADEDGE
 70
    3
  9
$SHADEDIF
 70
   70
  9
$TILEMODE
 70
    1
  9
$MAXACTVP
 70
   64
  9
$PINSBASE
 10
0
 20
0
 30
0
  9
$PLIMCHECK
 70
    0
  9
$PEXTMIN
 10
0
 20
0
 30
0
  9
$PEXTMAX
 10
0
 20
0
 30
0
  9
$PLIMMIN
 10
0
 20
0
  9
$PLIMMAX
 10
297
 20
210
  9
$UNITMODE
 70
    0
  9
$VISRETAIN
 70
    1
  9
$PLINEGEN
 70
    0
  9
$PSLTSCALE
 70
    1
  9
$TREEDEPTH
 70
 3020
  9
$CMLSTYLE
  2
Standard
  9
$CMLJUST
 70
    0
  9
$CMLSCALE
 40
20
  9
$PROXYGRAPHICS
 70
    1
  9
$MEASUREMENT
 70
    1
  9
$CELWEIGHT
370
   -1
  9
$ENDCAPS
280
    0
  9
$JOINSTYLE
280
    0
  9
$LWDISPLAY
290
    0
  9
$INSUNITS
 70
    0
  9
$HYPERLINKBASE
  1

  9
$STYLESHEET
  1

  9
$XEDIT
290
    1
  9
$CEPSNTYPE
380
    0
  9
$PSTYLEMODE
290
    1
  9
$EXTNAMES
290
    1
  9
$PSVPSCALE
 40
0
  9
$OLESTARTUP
290
    0
  9
$SORTENTS
280
  127
  9
$INDEXCTL
280
    0
  9
$HIDETEXT
280
    1
  9
$XCLIPFRAME
290
    0
  9
$HALOGAP
280
    0
  9
$OBSCOLOR
 70
  257
  9
$OBSLTYPE
280
    0
  9
$INTERSECTIONDISPLAY
280
    0
  9
$INTERSECTIONCOLOR
 70
  257
  9
$DIMASSOC
280
    1
  9
$PROJECTNAME
  1

  9
$CAMERADISPLAY
290
    0
  9
$LENSLENGTH
 40
50
  9
$CAMERAHEIGHT
 40
0
  9
$STEPSPERSEC
 40
2
  9
$STEPSIZE
 40
50
  9
$3DDWFPREC
 40
2
  9
$PSOLWIDTH
 40
5
  9
$PSOLHEIGHT
 40
80
  9
$LOFTANG1
 40
1.570796326794897
  9
$LOFTANG2
 40
1.570796326794897
  9
$LOFTMAG1
 40
0
  9
$LOFTMAG2
 40
0
  9
$LOFTPARAM
 70
    7
  9
$LOFTNORMALS
280
    1
  9
$LATITUDE
 40
1
  9
$LONGITUDE
 40
1
  9
$NORTHDIRECTION
 40
0
  9
$TIMEZONE
 70
-8000
  9
$LIGHTGLYPHDISPLAY
280
    1
  9
$TILEMODELIGHTSYNCH
280
    1
  9
$SOLIDHIST
280
    1
  9
$SHOWHIST
280
    1
  9
$DWFFRAME
280
    2
  9
$DGNFRAME
280
    0
  9
$REALWORLDSCALE
290
    1
  9
$INTERFERECOLOR
 62
    1
  9
$CSHADOW
280
    0
  9
$SHADOWPLANELOCATION
 40
0
  0
ENDSEC
  0
SECTION
  2
CLASSES
  0
ENDSEC
  0
SECTION
  2
TABLES
  0
TABLE
  2
VPORT
  5
8
330
0
100
AcDbSymbolTable
 70
    1
  0
VPORT
  5
31
330
2
100
AcDbSymbolTableRecord
100
AcDbViewportTableRecord
  2
*ACTIVE
 70
    0
 10
0
 20
0
 11
1
 21
1
 12
0.651828
 22
-0.16
 13
0
 23
0
 14
10
 24
10
 15
10
 25
10
 16
0
 26
0
 36
1
 17
0
 27
0
 37
0
 40
5.13732
 41
2.4426877
 42
50
 43
0
 44
0
 50
0
 51
0
 71
    0
 72
  100
 73
    1
 74
    3
 75
    0
 76
    0
 77
    0
 78
    0
281
    0
 65
    1
110
0
120
0
130
0
111
1
121
0
131
0
112
0
122
1
132
0
 79
    0
146
0
348
10020
 60
    7
 61
    5
292
1
282
    1
141
0
142
0
 63
  250
421
3358443
  0
ENDTAB
  0
TABLE
  2
LTYPE
  5
5
330
0
100
AcDbSymbolTable
 70
    4
  0
LTYPE
  5
14
330
5
100
AcDbSymbolTableRecord
100
AcDbLinetypeTableRecord
  2
ByBlock
 70
    0
  3

 72
   65
 73
    0
 40
0
  0
LTYPE
  5
15
330
5
100
AcDbSymbolTableRecord
100
AcDbLinetypeTableRecord
  2
ByLayer
 70
    0
  3

 72
   65
 73
    0
 40
0
  0
LTYPE
  5
16
330
5
100
AcDbSymbolTableRecord
100
AcDbLinetypeTableRecord
  2
Continuous
 70
    0
  3
Solid line
 72
   65
 73
    0
 40
0
  0
LTYPE
  5
32
330
5
100
AcDbSymbolTableRecord
100
AcDbLinetypeTableRecord
  2
DASHED
 70
    0
  3

 72
   65
 73
    2
 40
3
 49
1
 74
    0
 49
-2
 74
    0
  0
LTYPE
  5
33
330
5
100
AcDbSymbolTableRecord
100
AcDbLinetypeTableRecord
  2
DASHED
 70
    0
  3

 72
   65
 73
    2
 40
2
 49
1
 74
    0
 49
-1
 74
    0
  0
LTYPE
  5
34
330
5
100
AcDbSymbolTableRecord
100
AcDbLinetypeTableRecord
  2
DASHEDX2
 70
    0
  3

 72
   65
 73
    2
 40
3
 49
2
 74
    0
 49
-1
 74
    0
  0
LTYPE
  5
35
330
5
100
AcDbSymbolTableRecord
100
AcDbLinetypeTableRecord
  2
DASHDOT
 70
    0
  3

 72
   65
 73
    4
 40
3
 49
1
 74
    0
 49
-1
 74
    0
 49
0
 74
    0
 49
-1
 74
    0
  0
LTYPE
  5
36
330
5
100
AcDbSymbolTableRecord
100
AcDbLinetypeTableRecord
  2
DIVIDE
 70
    0
  3

 72
   65
 73
    6
 40
4
 49
1
 74
    0
 49
-1
 74
    0
 49
0
 74
    0
 49
-1
 74
    0
 49
0
 74
    0
 49
-1
 74
    0
  0
LTYPE
  5
37
330
5
100
AcDbSymbolTableRecord
100
AcDbLinetypeTableRecord
  2
DOT
 70
    0
  3

 72
   65
 73
    2
 40
1
 49
1
 74
    0
 49
0
 74
    0
  0
ENDTAB
  0
TABLE
  2
LAYER
  5
2
330
0
100
AcDbSymbolTable
 70
    1
  0
LAYER
  5
38
330
2
100
AcDbSymbolTableRecord
100
AcDbLayerTableRecord
  2
dimensions
 70
    0
 62
    7
  6
CONTINUOUS
370
   -3
390
F
  0
LAYER
  5
39
330
2
100
AcDbSymbolTableRecord
100
AcDbLayerTableRecord
  2
text
 70
    0
 62
    7
  6
CONTINUOUS
370
   -3
390
F
  0
LAYER
  5
3A
330
2
100
AcDbSymbolTableRecord
100
AcDbLayerTableRecord
  2
s005-#def-solid-edge
 70
    0
 62
    7
  6
CONTINUOUS
370
   -3
390
F
  0
LAYER
  5
3B
330
2
100
AcDbSymbolTableRecord
100
AcDbLayerTableRecord
  2
s00e-#def-hidden-edge
 70
    0
 62
    7
  6
CONTINUOUS
370
   -3
390
F
  0
LAYER
  5
3C
330
2
100
AcDbSymbolTableRecord
100
AcDbLayerTableRecord
  2
s00f-#def-outline
 70
    0
 62
    7
  6
CONTINUOUS
370
   -3
390
F
  0
LAYER
  5
10
330
2
100
AcDbSymbolTableRecord
100
AcDbLayerTableRecord
  2
0
 70
    0
 62
    7
  6
CONTINUOUS
370
   -3
390
F
  0
ENDTAB
  0
TABLE
  2
STYLE
  5
3
330
0
100
AcDbSymbolTable
 70
    3
  0
STYLE
  5
3D
330
2
100
AcDbSymbolTableRecord
100
AcDbTextStyleTableRecord
  2
unicode
 70
    0
 40
0
 41
1
 50
0
 71
    0
 42
1
  3
unicode
  4

  0
STYLE
  5
3E
330
2
100
AcDbSymbolTableRecord
100
AcDbTextStyleTableRecord
  2
Standard
 70
    0
 40
0
 41
1
 50
0
 71
    0
 42
1
  3
txt
  4

  0
ENDTAB
  0
TABLE
  2
VIEW
  5
6
330
0
100
AcDbSymbolTable
 70
    0
  0
ENDTAB
  0
TABLE
  2
UCS
  5
7
330
0
100
AcDbSymbolTable
 70
    0
  0
ENDTAB
  0
TABLE
  2
APPID
  5
9
330
0
100
AcDbSymbolTable
 70
    1
  0
APPID
  5
12
330
9
100
AcDbSymbolTableRecord
100
AcDbRegAppTableRecord
  2
ACAD
 70
    0
  0
ENDTAB
  0
TABLE
  2
DIMSTYLE
  5
A
330
0
100
AcDbSymbolTable
 70
    1
100
AcDbDimStyleTable
 71
    1
  0
DIMSTYLE
105
3F
330
A
100
AcDbSymbolTableRecord
100
AcDbDimStyleTableRecord
  2
Standard
 70
    0
 40
1
 41
2.5
 42
0.625
 43
3.75
 44
1.25
 45
0
 46
0
 47
0
 48
0
140
2.5
141
2.5
142
0
143
0.03937007874015748
144
1
145
0
146
1
147
0.625
148
0
 71
    0
 72
    0
 73
    0
 74
    0
 75
    0
 76
    0
 77
    1
 78
    8
 79
    0
170
    0
171
    3
172
    1
173
    0
174
    0
175
    0
176
    0
177
    0
178
    0
179
    0
271
    2
272
    2
273
    2
274
    3
275
    0
276
    0
277
    2
278
   44
279
    0
280
    0
281
    0
282
    0
283
    0
284
    8
285
    0
286
    0
288
    0
289
    3
341

371
   -2
372
   -2
  0
ENDTAB
  0
TABLE
  2
BLOCK_RECORD
  5
1
330
0
100
AcDbSymbolTable
 70
    2
  0
BLOCK_RECORD
  5
1F
330
1
100
AcDbSymbolTableRecord
100
AcDbBlockTableRecord
  2
*Model_Space
 70
    0
280
    1
281
    0
  0
BLOCK_RECORD
  5
1E
330
1
100
AcDbSymbolTableRecord
100
AcDbBlockTableRecord
  2
*Paper_Space
 70
    0
280
    1
281
    0
  0
ENDTAB
  0
ENDSEC
  0
SECTION
  2
BLOCKS
  0
BLOCK
  5
20
330
1F
100
AcDbEntity
  8
0
100
AcDbBlockBegin
  2
*Model_Space
 70
    0
 10
0
 20
0
 30
0
  3
*Model_Space
  1

  0
ENDBLK
  5
21
330
1F
100
AcDbEntity
  8
0
100
AcDbBlockEnd
  0
BLOCK
  5
1C
330
1B
100
AcDbEntity
  8
0
100
AcDbBlockBegin
  2
*Paper_Space
 70
    0
 10
0
 20
0
 30
0
  3
*Paper_Space
  1

  0
ENDBLK
  5
1D
330
1F
100
AcDbEntity
  8
0
100
AcDbBlockEnd
  0
ENDSEC
  0
SECTION
  2
ENTITIES
  0
LWPOLYLINE
  5
40
100
AcDbEntity
  8
s005-#def-solid-edge
  6
CONTINUOUS
 62
    7
420
    0
370
   25
100
AcDbPolyline
 90
   65
 70
    0
 43
0
 10
113.4748611111112
 20
53.11908576227877
 10
113.3342120008337
 20
49.98239265296446
 10
112.9133928130949
 20
46.85827921323219
 10
112.2157654305079
 20
43.75915750411762
 10
111.2468586724346
 20
40.69710903746672
 10
110.0142596981453
 20
37.68373094956169
 10
108.5274675580257
 20
34.72999530825484
 10
106.7977140876365
 20
31.8461249704145
 10
104.8377583010331
 20
29.04148867034469
 10
102.6616610700694
 20
26.32451719891019
 10
100.2845471605993
 20
23.70264167911093
 10
97.72236164446215
 20
21.18225410691307
 10
94.99162734951646
 20
18.76868955083684
 10
92.10920939743139
 20
16.46622872619636
 10
89.09209207041468
 20
14.27811910569177
 10
85.95717230874348
 20
12.20661231194313
 10
82.72107313569862
 20
10.25301526357314
 10
79.33734379040521
 20
8.384652534891352
 10
75.74938877540848
 20
6.574705766602605
 10
71.95947174016423
 20
4.832772265672851
 10
67.97149260944998
 20
3.168607485119516
 10
63.79107617097856
 20
1.592017304847275
 10
59.42563684116667
 20
0.1127388073917288
 10
54.88441522975327
 20
-1.259688548135237
 10
50.17848259851353
 20
-2.51605887021492
 10
45.32071003004072
 20
-3.647639871210149
 10
40.3257000824604
 20
-4.64631350297109
 10
35.20967987958986
 20
-5.504713345298132
 10
29.99035592892358
 20
-6.21635469490694
 10
24.68673240944584
 20
-6.775753272500172
 10
19.31889615041972
 20
-7.178528629630787
 10
13.9077729425646
 20
-7.421488701000701
 10
8.474861111111089
 20
-7.502692502631966
 10
3.041949279657565
 20
-7.421488701000701
 10
-2.369173928197547
 20
-7.178528629630783
 10
-7.737010187223667
 20
-6.775753272500165
 10
-13.04063370670136
 20
-6.216354694906933
 10
-18.25995765736767
 20
-5.504713345298129
 10
-23.37597786023819
 20
-4.646313502971076
 10
-28.37098780781849
 20
-3.647639871210146
 10
-33.22876037629135
 20
-2.516058870214909
 10
-37.93469300753107
 20
-1.259688548135253
 10
-42.47591461894448
 20
0.1127388073917448
 10
-46.84135394875636
 20
1.59201730484725
 10
-51.02177038722779
 20
3.168607485119533
 10
-55.00974951794203
 20
4.83277226567285
 10
-58.79966655318624
 20
6.57470576660261
 10
-62.38762156818301
 20
8.384652534891366
 10
-65.77135091347641
 20
10.25301526357315
 10
-69.00745008652126
 20
12.20661231194315
 10
-72.14236984819249
 20
14.27811910569177
 10
-75.15948717520917
 20
16.46622872619637
 10
-78.04190512729426
 20
18.76868955083685
 10
-80.77263942223996
 20
21.18225410691305
 10
-83.33482493837713
 20
23.70264167911093
 10
-85.71193884784722
 20
26.32451719891021
 10
-87.88803607881087
 20
29.04148867034472
 10
-89.84799186541424
 20
31.8461249704145
 10
-91.57774533580351
 20
34.72999530825483
 10
-93.06453747592309
 20
37.68373094956171
 10
-94.29713645021242
 20
40.69710903746675
 10
-95.26604320828565
 20
43.75915750411764
 10
-95.96367059087257
 20
46.85827921323219
 10
-96.38448977861143
 20
49.98239265296446
 10
-96.52513888888893
 20
53.11908576227878
  0
LWPOLYLINE
  5
41
100
AcDbEntity
  8
s00e-#def-hidden-edge
  6
DASHED
 62
    7
420
    0
370
   25
100
AcDbPolyline
 90
   65
 70
    0
 43
0
 10
113.4748611111112
 20
18.33302534883239
 10
113.3342120009181
 20
21.46971845720557
 10
112.9133928130948
 20
24.59383189787896
 10
112.2157654305079
 20
27.69295360699352
 10
111.2468586724347
 20
30.75500207364442
 10
110.0142596981453
 20
33.76838016154946
 10
108.5274675580258
 20
36.72211580285633
 10
106.7977140876365
 20
39.60598614069667
 10
104.8377583010331
 20
42.41062244076645
 10
102.6616610700695
 20
45.12759391220096
 10
100.2845471605993
 20
47.74946943200023
 10
97.72236164446223
 20
50.2698570041981
 10
94.99162734951646
 20
52.6834215602743
 10
92.10920939743141
 20
54.98588238491481
 10
89.09209207041474
 20
57.17399200541941
 10
85.95717230874354
 20
59.24549879916804
 10
82.72107313569867
 20
61.19909584753803
 10
79.33734379040523
 20
63.06745857621982
 10
75.74938877540851
 20
64.87740534450856
 10
71.95947174016428
 20
66.61933884543834
 10
67.97149260945
 20
68.28350362599164
 10
63.7910761709786
 20
69.86009380626392
 10
59.42563684116671
 20
71.33937230371944
 10
54.88441522975329
 20
72.71179965924641
 10
50.17848259851361
 20
73.9681699813261
 10
45.32071003004072
 20
75.09975098232133
 10
40.32570008246044
 20
76.09842461408226
 10
35.20967987958991
 20
76.95682445640934
 10
29.99035592892358
 20
77.66846580601812
 10
24.68673240944587
 20
78.22786438361138
 10
19.31889615041977
 20
78.63063974074196
 10
13.90777294419472
 20
78.87359981206312
 10
8.474861111111139
 20
78.95480361374312
 10
3.041949278027552
 20
78.87359981206313
 10
-2.369173928197505
 20
78.63063974074196
 10
-7.737010187223604
 20
78.22786438361138
 10
-13.04063370670131
 20
77.66846580601811
 10
-18.25995765736764
 20
76.95682445640932
 10
-23.37597786023817
 20
76.09842461408226
 10
-28.37098780781846
 20
75.09975098232133
 10
-33.22876037629131
 20
73.96816998132611
 10
-37.93469300753102
 20
72.71179965924641
 10
-42.47591461894444
 20
71.33937230371943
 10
-46.84135394875631
 20
69.86009380626391
 10
-51.02177038722772
 20
68.28350362599164
 10
-55.009749517942
 20
66.61933884543832
 10
-58.79966655318621
 20
64.87740534450856
 10
-62.38762156818297
 20
63.06745857621981
 10
-65.77135091347638
 20
61.19909584753803
 10
-69.00745008652125
 20
59.24549879916805
 10
-72.14236984819246
 20
57.17399200541941
 10
-75.15948717520914
 20
54.98588238491482
 10
-78.04190512729417
 20
52.68342156027432
 10
-80.77263942223991
 20
50.26985700419809
 10
-83.33482493837704
 20
47.74946943200024
 10
-85.71193884784717
 20
45.12759391220094
 10
-87.88803607881086
 20
42.41062244076647
 10
-89.8479918654142
 20
39.60598614069668
 10
-91.5777453358035
 20
36.72211580285634
 10
-93.06453747592309
 20
33.76838016154949
 10
-94.29713645021239
 20
30.75500207364442
 10
-95.26604320828565
 20
27.69295360699354
 10
-95.96367059087254
 20
24.59383189787898
 10
-96.3844897786114
 20
21.4697184581467
 10
-96.5251388888889
 20
18.33302534883239
  0
LWPOLYLINE
  5
42
100
AcDbEntity
  8
s005-#def-solid-edge
  6
CONTINUOUS
 62
    7
420
    0
370
   25
100
AcDbPolyline
 90
   49
 70
    0
 43
0
 10
-74.0251388888889
 20
53.11908576227878
 10
-73.9146288737372
 20
55.58363034742914
 10
-73.58398522616176
 20
58.03829090795824
 10
-73.03584942555777
 20
60.47331510797683
 10
-72.2745655442145
 20
62.87921033177395
 10
-71.3060949215586
 20
65.24686454369933
 10
-70.13790109717891
 20
67.56765683329759
 10
-68.77880908473023
 20
69.83355495588643
 10
-67.23884382382757
 20
72.03719776308412
 10
-63.6613207849153
 20
76.23200611333922
 10
-59.50259807620734
 20
80.10868278555458
 10
-54.86724892834335
 20
83.63698813531028
 10
-49.86144833677906
 20
86.79956972554749
 10
-44.38369633940822
 20
89.68967004459577
 10
-38.27249220901227
 20
92.36589012290391
 10
-31.55789124821826
 20
94.76692979826146
 10
-24.29227005756221
 20
96.83241368780954
 10
-20.47544875376213
 20
97.72151304573436
 10
-16.55079808066333
 20
98.5061851849751
 10
-12.53106792126506
 20
99.18064220394635
 10
-8.430170531455808
 20
99.739788978639
 10
-4.263037766151903
 20
100.1793164324622
 10
-0.04545213405994986
 20
100.4957827844934
 10
4.206144670831158
 20
100.6866799833886
 10
8.474861111111125
 20
100.7504829704229
 10
12.74357755139109
 20
100.6866799833886
 10
16.99517435628219
 20
100.4957827844934
 10
21.21275998837417
 20
100.1793164324622
 10
25.37989275367805
 20
99.73978897863897
 10
29.48079014348731
 20
99.18064220394635
 10
33.50052030288556
 20
98.5061851849751
 10
37.42517097598439
 20
97.72151304573436
 10
41.24199227978447
 20
96.83241368780955
 10
48.5076134704405
 20
94.76692979826143
 10
55.22221443123455
 20
92.36589012290393
 10
61.33341856163045
 20
89.68967004459573
 10
66.81117055900134
 20
86.79956972554747
 10
71.81697115056392
 20
83.6369881353114
 10
76.45232029842964
 20
80.10868278555458
 10
80.61104300713755
 20
76.2320061133392
 10
84.18856604604983
 20
72.0371977630841
 10
85.72853130695251
 20
69.83355495588643
 10
87.08762331940119
 20
67.56765683329759
 10
88.25581714378086
 20
65.24686454369935
 10
89.22428776643677
 20
62.87921033177391
 10
89.98557164777998
 20
60.4733151079768
 10
90.53370744838401
 20
58.03829090795824
 10
90.86435109589309
 20
55.58363034816858
 10
90.97486111111113
 20
53.11908576227879
  0
LWPOLYLINE
  5
43
100
AcDbEntity
  8
s005-#def-solid-edge
  6
CONTINUOUS
 62
    7
420
    0
370
   25
100
AcDbPolyline
 90
    9
 70
    0
 43
0
 10
61.33341856163047
 20
85.04418862185453
 10
55.22221443123362
 20
87.72040870016306
 10
48.50761347044018
 20
90.12144837552035
 10
41.24199227979058
 20
92.1869322650667
 10
37.42517097598439
 20
93.07603162299316
 10
33.50052030288558
 20
93.86070376223388
 10
29.48079014348731
 20
94.53516078120512
 10
25.37989275367807
 20
95.09430755589777
 10
21.3101378512082
 20
95.52356410007627
  0
LWPOLYLINE
  5
44
100
AcDbEntity
  8
s00e-#def-hidden-edge
  6
DASHED
 62
    7
420
    0
370
   25
100
AcDbPolyline
 90
    3
 70
    0
 43
0
 10
21.3101378512082
 20
95.52356410007627
 10
21.21275998837415
 20
95.53383500972103
 10
20.9283921592957
 20
95.55517253724361
  0
LWPOLYLINE
  5
45
100
AcDbEntity
  8
s005-#def-solid-edge
  6
CONTINUOUS
 62
    7
420
    0
370
   25
100
AcDbPolyline
 90
   13
 70
    0
 43
0
 10
20.9283921592957
 20
95.55517253724361
 10
16.9951743562822
 20
95.85030136175222
 10
12.74357755011032
 20
96.04119856068573
 10
8.474861111111125
 20
96.10500154768171
 10
4.206144672111925
 20
96.04119856068573
 10
-0.04545213405994986
 20
95.85030136175222
 10
-4.263037766151918
 20
95.53383500972102
 10
-8.430170531455808
 20
95.09430755589776
 10
-12.53106792126506
 20
94.53516078120512
 10
-16.5507980806633
 20
93.86070376223387
 10
-20.47544875376212
 20
93.07603162299314
 10
-24.29227005756222
 20
92.18693226506832
 10
-28.31671881842001
 20
91.04285471660576
  0
LWPOLYLINE
  5
46
100
AcDbEntity
  8
s005-#def-solid-edge
  6
CONTINUOUS
 62
    7
420
    0
370
   25
100
AcDbPolyline
 90
    4
 70
    0
 43
0
 10
-29.3899108109915
 20
90.73776576235375
 10
-31.55789124821792
 20
90.12144837552035
 10
-38.27249220901135
 20
87.72040870016306
 10
-44.38369633940621
 20
85.04418862185551
  0
LWPOLYLINE
  5
47
100
AcDbEntity
  8
s00e-#def-hidden-edge
  6
DASHED
 62
    7
420
    0
370
   25
100
AcDbPolyline
 90
   51
 70
    0
 43
0
 10
-73.92098734998301
 20
50.79634505125711
 10
-74.0251388888889
 20
48.47360433953756
 10
-73.9146288737372
 20
46.0090597543872
 10
-73.58398522616179
 20
43.5543991938581
 10
-73.03584942555779
 20
41.11937499383953
 10
-72.27456554421451
 20
38.71347977004239
 10
-71.30609492155861
 20
36.345825558117
 10
-70.13790109717897
 20
34.02503326851875
 10
-68.77880908473024
 20
31.75913514592991
 10
-67.23884382382759
 20
29.55549233873222
 10
-63.66132078491552
 20
25.36068398847731
 10
-59.50259807620802
 20
21.4840073162623
 10
-54.86724892834337
 20
17.95570196650607
 10
-49.86144833677908
 20
14.79312037626885
 10
-44.38369633940825
 20
11.90302005722057
 10
-38.27249220901136
 20
9.226799978912055
 10
-31.55789124821795
 20
6.825760303554769
 10
-24.29227005756216
 20
4.760276414006784
 10
-20.47544875376214
 20
3.871177056081974
 10
-16.55079808066335
 20
3.086504916841239
 10
-12.53106792126506
 20
2.412047897869988
 10
-8.430170531455826
 20
1.852901123177364
 10
-4.263037766151939
 20
1.413373669354108
 10
-0.04545213405996051
 20
1.096907317322906
 10
4.206144672111915
 20
0.9060101183893963
 10
8.474861111111103
 20
0.8422071313934119
 10
12.74357755011031
 20
0.9060101183893963
 10
16.99517435628217
 20
1.096907317322895
 10
21.21275998837411
 20
1.413373669354098
 10
25.37989275367802
 20
1.852901123177357
 10
29.48079014348727
 20
2.412047897869982
 10
33.50052030288556
 20
3.086504916841239
 10
37.42517097598436
 20
3.871177056081976
 10
41.24199227978448
 20
4.760276414006807
 10
48.50761347044015
 20
6.82576030355477
 10
55.22221443123358
 20
9.226799978912055
 10
61.33341856162845
 20
11.90302005721961
 10
66.8111705590013
 20
14.79312037626884
 10
71.81697115056559
 20
17.95570196650606
 10
76.45232029843024
 20
21.48400731626229
 10
80.61104300713774
 20
25.3606839884773
 10
84.18856604604984
 20
29.55549233873227
 10
85.72853130695246
 20
31.7591351459299
 10
87.08762331940118
 20
34.02503326851874
 10
88.25581714378083
 20
36.34582555811699
 10
89.22428776643673
 20
38.71347977004238
 10
89.98557164778002
 20
41.1193749938395
 10
90.53370744839154
 20
43.55439919385151
 10
90.86435109590097
 20
46.00905975364176
 10
90.97486111111115
 20
48.47360433953756
 10
90.97486111111113
 20
53.11908576227879
  0
LWPOLYLINE
  5
48
100
AcDbEntity
  8
s005-#def-solid-edge
  6
CONTINUOUS
 62
    7
420
    0
370
   25
100
AcDbPolyline
 90
   33
 70
    0
 43
0
 10
-49.02513888888889
 20
53.11908576227878
 10
-48.71766815426091
 20
49.69054884256279
 10
-47.80504231532795
 20
46.31657469869124
 10
-46.31585194315166
 20
43.04886956126567
 10
-44.29529687384616
 20
39.93373497383869
 10
-41.80187172551337
 20
37.01008066911543
 10
-38.90336801944419
 20
34.308154503632
 10
-35.67267012850751
 20
31.84903259319541
 10
-32.18377880711538
 20
29.64480906060664
 10
-28.36595165743267
 20
27.63049671702754
 10
-24.10662756655001
 20
25.76525242002465
 10
-19.42675416963336
 20
24.09180052507866
 10
-14.36283637008547
 20
22.65222084448461
 10
-8.967264992246816
 20
21.48565283130862
 10
-3.307433670071905
 20
20.62586836905802
 10
2.536460970537334
 20
20.09896359528069
 10
8.474861111111107
 20
19.92144528387528
 10
14.4132612516849
 20
20.09896359528068
 10
20.25715589229413
 20
20.62586836905803
 10
25.91698721446906
 20
21.48565283130862
 10
31.31255859230769
 20
22.65222084448461
 10
36.3764763918556
 20
24.09180052507866
 10
41.05634978877287
 20
25.7652524200249
 10
45.3156738796549
 20
27.63049671702754
 10
49.13350102933761
 20
29.64480906060664
 10
52.62239235073091
 20
31.84903259319623
 10
55.85309024166642
 20
34.308154503632
 10
58.7515939477356
 20
37.01008066911543
 10
61.24501909606839
 20
39.9337349738387
 10
63.26557416537388
 20
43.04886956126566
 10
64.75476453755019
 20
46.31657469869124
 10
65.66739037648316
 20
49.69054884256279
 10
65.97486111111113
 20
53.11908576227877
  0
LWPOLYLINE
  5
49
100
AcDbEntity
  8
s005-#def-solid-edge
  6
CONTINUOUS
 62
    7
420
    0
370
   25
100
AcDbPolyline
 90
   33
 70
    0
 43
0
 10
-26.52513888888888
 20
53.11908576227877
 10
-26.33798278955011
 20
55.20602127862765
 10
-25.78247140933005
 20
57.25974467054945
 10
-24.87600770452708
 20
59.24878258028676
 10
-23.64610461886286
 20
61.14495145959013
 10
-22.12836757205169
 20
62.92456712333464
 10
-20.3640609683576
 20
64.56921783275921
 10
-18.39754920865673
 20
66.06607464780778
 10
-16.27387623041805
 20
67.40777592851399
 10
-13.94998144365466
 20
68.63387909417084
 10
-11.35734938833517
 20
69.76924518799854
 10
-8.508730798907401
 20
70.78786808057446
 10
-5.426346051356322
 20
71.66413397311001
 10
-2.142085212671979
 20
72.37421885069537
 10
1.30302950517363
 20
72.897565914674
 10
4.860182764674921
 20
73.21829055958196
 10
8.474861111111117
 20
73.32634518391568
 10
12.08953945754732
 20
73.21829055958196
 10
15.64669271704861
 20
72.89756591467402
 10
19.09180743489424
 20
72.3742188506954
 10
22.37606827357857
 20
71.66413397311001
 10
25.45845302112965
 20
70.78786808057446
 10
28.30707161055702
 20
69.76924518799869
 10
30.89970366587691
 20
68.63387909417082
 10
33.2235984526403
 20
67.40777592851399
 10
35.34727143087898
 20
66.0660746478078
 10
37.31378319057958
 20
64.56921783275942
 10
39.07808979427387
 20
62.92456712333472
 10
40.59582684108511
 20
61.14495145959012
 10
41.82572992674934
 20
59.24878258028676
 10
42.7321936315523
 20
57.25974467054944
 10
43.28770501177233
 20
55.20602127862763
 10
43.47486111111113
 20
53.11908576227877
  0
LWPOLYLINE
  5
4A
100
AcDbEntity
  8
s00e-#def-hidden-edge
  6
DASHED
 62
    7
420
    0
370
   25
100
AcDbPolyline
 90
   33
 70
    0
 43
0
 10
-49.02513888888889
 20
48.47360433953756
 10
-48.71766815426089
 20
51.90214125925354
 10
-47.80504231532795
 20
55.2761154031251
 10
-46.31585194315165
 20
58.54382054055067
 10
-44.29529687384617
 20
61.65895512797761
 10
-41.80187172551348
 20
64.58260943270076
 10
-38.90336801944464
 20
67.28453559818397
 10
-35.67267012850866
 20
69.74365750862012
 10
-32.18377880711537
 20
71.9478810412097
 10
-28.36595165743266
 20
73.96219338478878
 10
-24.10662756654999
 20
75.82743768179171
 10
-19.42675416963336
 20
77.50088957673768
 10
-14.36283637008538
 20
78.94046925733174
 10
-8.967264992246818
 20
80.10703727050772
 10
-3.307433670071887
 20
80.96682173275831
 10
2.536460970537348
 20
81.49372650653565
 10
8.474861111111125
 20
81.67124481794106
 10
14.41326125168492
 20
81.49372650653567
 10
20.25715589229413
 20
80.96682173275831
 10
25.91698721446906
 20
80.10703727050772
 10
31.31255859230764
 20
78.94046925733174
 10
36.37647639185561
 20
77.50088957673769
 10
41.05634978877225
 20
75.82743768179171
 10
45.31567387965352
 20
73.96219338478947
 10
49.13350102933763
 20
71.94788104120968
 10
52.62239235072977
 20
69.74365750862091
 10
55.85309024166689
 20
67.28453559818395
 10
58.75159394773574
 20
64.58260943270076
 10
61.24501909606841
 20
61.65895512797759
 10
63.26557416537391
 20
58.54382054055066
 10
64.7547645375502
 20
55.27611540312509
 10
65.66739037648314
 20
51.90214125925353
 10
65.97486111111113
 20
48.47360433953756
  0
LWPOLYLINE
  5
4B
100
AcDbEntity
  8
s005-#def-solid-edge
  6
CONTINUOUS
 62
    7
420
    0
370
   25
100
AcDbPolyline
 90
   15
 70
    0
 43
0
 10
-28.36595165743129
 20
22.98501529428565
 10
-24.10662756655001
 20
21.11977099728342
 10
-19.42675416963338
 20
19.44631910233744
 10
-14.36283636923493
 20
18.00673942151811
 10
-8.967264992246824
 20
16.8401714085674
 10
-3.307433670071902
 20
15.98038694631682
 10
2.536460970810293
 20
15.45348217248818
 10
8.474861111111117
 20
15.27596386113406
 10
14.4132612516849
 20
15.45348217253947
 10
20.25715589229413
 20
15.98038694631681
 10
25.91698721446905
 20
16.8401714085674
 10
31.31255859230762
 20
18.00673942174338
 10
36.3764763918556
 20
19.44631910233744
 10
41.05634978877223
 20
21.11977099728342
 10
45.3156738796549
 20
22.98501529428632
  0
LWPOLYLINE
  5
4C
100
AcDbEntity
  8
s00e-#def-hidden-edge
  6
DASHED
 62
    7
420
    0
370
   25
100
AcDbPolyline
 90
   13
 70
    0
 43
0
 10
26.22960454032726
 20
35.72605555555558
 10
28.30707161055743
 20
34.98318477455216
 10
30.89970366587691
 20
33.84781868072446
 10
33.22359845264029
 20
32.62171551506761
 10
35.34727143087901
 20
31.2800142343614
 10
37.31378319057959
 20
29.78315741931304
 10
39.07808979427387
 20
28.13850670988835
 10
40.59582684108511
 20
26.35889104614375
 10
41.82572992674934
 20
24.46272216684038
 10
42.73219363155231
 20
22.47368425710306
 10
43.28770501177236
 20
20.41996086518124
 10
43.47486111111113
 20
18.3330253488324
 10
43.47486111111113
 20
53.11908576227877
  0
LWPOLYLINE
  5
4D
100
AcDbEntity
  8
s00e-#def-hidden-edge
  6
DASHED
 62
    7
420
    0
370
   25
100
AcDbPolyline
 90
   13
 70
    0
 43
0
 10
-9.279882318104978
 20
35.72605555555558
 10
-11.35734938833478
 20
34.9831847745523
 10
-13.94998144365381
 20
33.84781868072486
 10
-16.27387623041804
 20
32.62171551506761
 10
-18.39754920865673
 20
31.2800142343614
 10
-20.36406096835732
 20
29.78315741931304
 10
-22.1283675720516
 20
28.13850670988835
 10
-23.64610461886288
 20
26.35889104614374
 10
-24.87600770452708
 20
24.46272216684037
 10
-25.78247140933005
 20
22.47368425710307
 10
-26.33798278955011
 20
20.41996086518125
 10
-26.52513888888889
 20
18.33302534883239
 10
-26.52513888888888
 20
53.11908576227877
  0
LWPOLYLINE
  5
4E
100
AcDbEntity
  8
s00e-#def-hidden-edge
  6
DASHED
 62
    7
420
    0
370
   25
100
AcDbPolyline
 90
   33
 70
    0
 43
0
 10
-26.52513888888889
 20
18.33302534883239
 10
-26.3379827895501
 20
16.24608983248353
 10
-25.78247140933005
 20
14.19236644056172
 10
-24.87600770452708
 20
12.20332853082442
 10
-23.64610461886289
 20
10.30715965152106
 10
-22.12836757205169
 20
8.527543987776529
 10
-20.3640609683576
 20
6.882893278351975
 10
-18.39754920865745
 20
5.38603646330388
 10
-16.27387623041805
 20
4.044335182597179
 10
-13.94998144365466
 20
2.818232016940347
 10
-11.35734938833478
 20
1.682865923112475
 10
-8.508730798907266
 20
0.6642430305366632
 10
-5.426346051356324
 20
-0.2120228619988405
 10
-2.142085212671975
 20
-0.9221077395842299
 10
1.30302950517363
 20
-1.445454803562847
 10
4.860182764674912
 20
-1.766179448470791
 10
8.474861111111117
 20
-1.874234072804521
 10
12.08953945754733
 20
-1.766179448470792
 10
15.6466927170486
 20
-1.445454803562847
 10
19.09180743489421
 20
-0.9221077395842166
 10
22.37606827357855
 20
-0.2120228619988485
 10
25.4584530211295
 20
0.6642430305366656
 10
28.30707161055702
 20
1.682865923112477
 10
30.89970366587605
 20
2.818232016939925
 10
33.22359845264029
 20
4.044335182597179
 10
35.34727143087969
 20
5.386036463303871
 10
37.31378319057984
 20
6.882893278351968
 10
39.07808979427394
 20
8.527543987776523
 10
40.59582684108513
 20
10.30715965152106
 10
41.82572992674933
 20
12.20332853082441
 10
42.7321936315523
 20
14.19236644056171
 10
43.28770501177235
 20
16.24608983248353
 10
43.47486111111113
 20
18.3330253488324
  0
LWPOLYLINE
  5
4F
100
AcDbEntity
  8
s00f-#def-outline
  6
CONTINUOUS
 62
    7
420
    0
370
   80
100
AcDbPolyline
 90
   49
 70
    0
 43
0
 10
90.97486111111113
 20
53.11908576227879
 10
90.86435109595945
 20
50.65454117712842
 10
90.53370744838404
 20
48.19988061659932
 10
89.98557164778001
 20
45.76485641658073
 10
89.22428776643673
 20
43.35896119278361
 10
88.25581714378083
 20
40.99130698085821
 10
87.08762331940118
 20
38.67051469125997
 10
85.72853130695246
 20
36.40461656867112
 10
84.1885660460498
 20
34.20097376147344
 10
80.61104300713772
 20
30.00616541121852
 10
76.45232029843025
 20
26.12948873900352
 10
71.81697115056561
 20
22.60118338924729
 10
66.8111705590013
 20
19.43860179901006
 10
61.33341856163045
 20
16.5485014799618
 10
55.22221443123358
 20
13.87228140165328
 10
48.50761347044015
 20
11.47124172629599
 10
41.24199227978436
 20
9.405757836747991
 10
37.42517097598436
 20
8.516658478823199
 10
33.50052030288554
 20
7.731986339582445
 10
29.48079014348728
 20
7.057529320611202
 10
25.37989275367803
 20
6.498382545918563
 10
21.21275998837411
 20
6.058855092095318
 10
16.99517435628216
 20
5.742388740064126
 10
12.7435775501103
 20
5.55149154113062
 10
8.4748611111111
 20
5.487688554134628
 10
4.206144672111908
 20
5.55149154113062
 10
-0.04545213405994986
 20
5.742388740064119
 10
-4.263037766151943
 20
6.058855092095314
 10
-8.430170531455833
 20
6.498382545918586
 10
-12.53106792126506
 20
7.057529320611213
 10
-16.55079808066334
 20
7.731986339582466
 10
-20.47544875376214
 20
8.516658478823194
 10
-24.29227005756224
 20
9.405757836748022
 10
-31.55789124821794
 20
11.471241726296
 10
-38.27249220901138
 20
13.87228140165329
 10
-44.38369633940624
 20
16.54850147996083
 10
-49.86144833677908
 20
19.43860179901007
 10
-54.8672489283417
 20
22.60118338924614
 10
-59.50259807620802
 20
26.12948873900352
 10
-63.66132078491552
 20
30.00616541121853
 10
-67.23884382382762
 20
34.20097376147349
 10
-68.77880908473024
 20
36.40461656867113
 10
-70.13790109717897
 20
38.67051469125998
 10
-71.30609492155861
 20
40.99130698085821
 10
-72.27456554421453
 20
43.35896119278362
 10
-73.03584942555779
 20
45.76485641658076
 10
-73.58398522616177
 20
48.19988061659933
 10
-73.9146288737372
 20
50.65454117712841
 10
-74.0251388888889
 20
53.11908576227878
  0
LWPOLYLINE
  5
50
100
AcDbEntity
  8
s00e-#def-hidden-edge
  6
DASHED
 62
    7
420
    0
370
   25
100
AcDbPolyline
 90
   36
 70
    0
 43
0
 10
50.89534727563105
 20
16.63281765022157
 10
51.04440975901775
 20
14.60356832842458
 10
51.31032566494925
 20
13.24154577838375
 10
52.27514011855651
 20
10.07006018850513
 10
52.87092139681936
 20
8.676854038534877
 10
54.73319440831413
 20
5.559596142973533
 10
55.72032906879019
 20
4.492621303223928
 10
58.31636934852872
 20
1.807240465750347
 10
61.28958460444356
 20
-0.1757184663941196
 10
65.12233057651915
 20
-1.784341769490332
 10
69.20221932598724
 20
-2.551486357019055
 10
72.78490245273619
 20
-2.494490414726947
 10
74.2970521455232
 20
-2.189967119237288
 10
77.79893818281863
 20
-1.36868663190894
 10
81.08236529309846
 20
0.2570149161431701
 10
82.27743397040133
 20
0.9931862975025929
 10
84.67971109078542
 20
3.015431535898156
 10
84.85623355183759
 20
3.178974818562175
 10
85.76037259234299
 20
4.054278275231926
 10
86.67436230705789
 20
5.220976735618415
 10
88.02223289378098
 20
7.282150012551345
 10
88.64438905629665
 20
8.308844438512573
 10
89.24309177038825
 20
9.545071576161462
 10
89.77755712001203
 20
10.93151473183529
 10
90.21171794503384
 20
12.38469796540024
 10
90.52188337805248
 20
13.81291046651826
 10
90.70076736675176
 20
15.13454691553255
 10
90.84495807667109
 20
17.44750345587203
 10
90.64622584957601
 20
20.15292756990417
 10
90.38030994364452
 20
21.514950119945
 10
89.41549549003729
 20
24.6864357098236
 10
88.81971421177441
 20
26.07964185979385
 10
86.95744120027965
 20
29.1968997553552
 10
85.97030653980357
 20
30.2638745951048
 10
83.37426626006504
 20
32.94925543257838
 10
83.21285445127739
 20
33.05690757359048
  0
LWPOLYLINE
  5
51
100
AcDbEntity
  8
s00f-#def-outline
  6
CONTINUOUS
 62
    7
420
    0
370
   80
100
AcDbPolyline
 90
    9
 70
    0
 43
0
 10
83.21285445127739
 20
33.05690757359048
 10
80.40105100415019
 20
34.93221436472285
 10
76.56830503207461
 20
36.54083766781906
 10
72.48841628260652
 20
37.30798225534778
 10
68.90573315585758
 20
37.25098631305566
 10
67.39358346307056
 20
36.94646301756602
 10
63.89169742577512
 20
36.12518253023767
 10
60.60827031549529
 20
34.49948098218556
 10
60.53252401126413
 20
34.4528206835117
  0
LWPOLYLINE
  5
52
100
AcDbEntity
  8
s00f-#def-outline
  6
CONTINUOUS
 62
    7
420
    0
370
   80
100
AcDbPolyline
 90
   14
 70
    0
 43
0
 10
90.87070957220524
 20
50.79634505125726
 10
90.86435109590087
 20
50.93814892542298
 10
90.5337074483914
 20
53.39280948521354
 10
89.98557164778671
 20
55.82783368523302
 10
89.22428776644264
 20
58.233728909031
 10
88.25581714378575
 20
60.60138312095715
 10
87.08762331940507
 20
62.92217541055608
 10
85.72853130695536
 20
65.18807353314546
 10
84.18856604649699
 20
67.39171634051549
 10
80.61104300719109
 20
71.58652469087798
 10
76.45232029823619
 20
75.46320136310366
 10
71.81697115081657
 20
78.99150671245421
 10
66.81117055900133
 20
82.15408830280627
 10
61.33341856163047
 20
85.04418862185453
  0
LWPOLYLINE
  5
53
100
AcDbEntity
  8
s00f-#def-outline
  6
CONTINUOUS
 62
    7
420
    0
370
   80
100
AcDbPolyline
 90
   55
 70
    0
 43
0
 10
44.27053878785964
 20
22.51646652830432
 10
45.3156738796549
 20
22.98501529428632
 10
49.13350102933761
 20
24.99932763786542
 10
52.62239235085723
 20
27.20355117065305
 10
55.85309024170014
 20
29.66267308109799
 10
58.7515939476565
 20
32.3645992465675
 10
61.2450190958715
 20
35.28825355124958
 10
63.26557416506883
 20
38.4033881386052
 10
64.75476453715811
 20
41.67109327592836
 10
65.66739037603212
 20
45.04506741966748
 10
65.97486111111113
 20
48.47360433953756
 10
65.97486111111113
 20
53.11908576227877
 10
65.66739037648313
 20
56.54762268199474
 10
64.7547645375502
 20
59.9215968258663
 10
63.26557416537391
 20
63.18930196329187
 10
61.24501909606842
 20
66.30443655071882
 10
58.75159394773574
 20
69.22809085544198
 10
55.85309024166689
 20
71.93001702092518
 10
52.62239235073093
 20
74.38913893136133
 10
49.13350102933763
 20
76.59336246395091
 10
45.31567387965491
 20
78.60767480753
 10
41.05634978877225
 20
80.47291910453293
 10
36.3764763918556
 20
82.1463709994789
 10
31.31255859230764
 20
83.58595068007297
 10
25.91698721446906
 20
84.75251869324895
 10
20.25715589229414
 20
85.61230315549953
 10
14.4132612516849
 20
86.13920792927688
 10
8.474861111111125
 20
86.31672624068227
 10
2.536460970537341
 20
86.13920792927689
 10
-3.307433670071887
 20
85.61230315549952
 10
-8.967264992246804
 20
84.75251869324893
 10
-14.36283637008538
 20
83.58595068007296
 10
-19.42675416963336
 20
82.1463709994789
 10
-24.10662756654999
 20
80.47291910453292
 10
-28.36595165743126
 20
78.60767480753069
 10
-32.18377880711537
 20
76.59336246395091
 10
-35.6726701285075
 20
74.38913893136214
 10
-38.90336801944463
 20
71.93001702092519
 10
-41.80187172551348
 20
69.22809085544199
 10
-44.29529687384618
 20
66.30443655071883
 10
-46.31585194315165
 20
63.18930196329188
 10
-47.80504231532795
 20
59.92159682586632
 10
-48.71766815426089
 20
56.54762268199477
 10
-49.02513888888889
 20
53.11908576227878
 10
-49.02513888888889
 20
48.47360433953756
 10
-48.71766815379037
 20
45.04506741965955
 10
-47.80504231490217
 20
41.67109327592236
 10
-46.31585194280783
 20
38.40338813860793
 10
-44.29529687361577
 20
35.28825355126397
 10
-41.80187172541491
 20
32.36459924659288
 10
-38.90336801947799
 20
29.66267308113113
 10
-35.67267012865544
 20
27.20355117068957
 10
-32.18377880711538
 20
24.99932763786543
 10
-28.36595165743129
 20
22.98501529428565
 10
-27.32081656563741
 20
22.51646652830432
  0
LWPOLYLINE
  5
54
100
AcDbEntity
  8
s00e-#def-hidden-edge
  6
DASHED
 62
    7
420
    0
370
   25
100
AcDbPolyline
 90
    7
 70
    0
 43
0
 10
60.53252401126413
 20
34.4528206835117
 10
59.41320163819242
 20
33.76330960082613
 10
57.01092451780832
 20
31.74106436243056
 10
56.83440205675616
 20
31.57752107976656
 10
55.93026301625079
 20
30.70221762309681
 10
55.01627330153588
 20
29.53551916271032
 10
54.35248841956928
 20
28.52045460546091
  0
LWPOLYLINE
  5
55
100
AcDbEntity
  8
s00f-#def-outline
  6
CONTINUOUS
 62
    7
420
    0
370
   80
100
AcDbPolyline
 90
   10
 70
    0
 43
0
 10
54.35248841956928
 20
28.52045460546091
 10
53.66840271481275
 20
27.4743458857774
 10
53.0462465522971
 20
26.44765145981616
 10
52.44754383820551
 20
25.21142432216728
 10
51.91307848858175
 20
23.82498116649344
 10
51.47891766355992
 20
22.37179793292849
 10
51.16875223054126
 20
20.94358543181048
 10
50.989868241842
 20
19.62194898279618
 10
50.84567753192266
 20
17.30899244245671
 10
50.89534727563105
 20
16.63281765022157
  0
LWPOLYLINE
  5
56
100
AcDbEntity
  8
s00f-#def-outline
  6
CONTINUOUS
 62
    7
420
    0
370
   80
100
AcDbPolyline
 90
   17
 70
    0
 43
0
 10
54.55288948773089
 20
13.63294093236257
 10
54.08891119695183
 20
14.07900344630501
 10
50.99243235656554
 20
16.58770354760192
 10
48.62812548953544
 20
17.68636444994531
 10
45.97878832230199
 20
18.87915502160875
 10
43.01102744934181
 20
19.41502923282749
 10
40.77610267563871
 20
19.6699312788924
 10
37.99984805871568
 20
19.58471155374588
 10
34.53135935596023
 20
18.8790945224845
 10
31.54103584192298
 20
17.67130717545211
 10
29.19558150104822
 20
16.36335663919459
 10
26.93854385638081
 20
14.62788773725476
 10
24.92367339483382
 20
12.53530055335141
 10
23.28693899752792
 20
10.20743677740809
 10
22.11765240182596
 20
7.795168215266301
 10
21.4174736511673
 20
6.297751496208655
 10
21.353103257822
 20
6.073657768985125
  0
LWPOLYLINE
  5
57
100
AcDbEntity
  8
s00e-#def-hidden-edge
  6
DASHED
 62
    7
420
    0
370
   25
100
AcDbPolyline
 90
   33
 70
    0
 43
0
 10
54.55288948773089
 20
13.63294093236257
 10
55.16956531712334
 20
13.0400770501226
 10
56.08353300122927
 20
11.87329462225458
 10
58.1986930168624
 20
8.547799692930898
 10
59.13645364706505
 20
5.834888743464674
 10
59.88874063389328
 20
3.485073042532775
 10
60.16535433056727
 20
0.803619739147468
 10
60.25384233795687
 20
-0.3522225724714545
 10
59.88915461974387
 20
-4.085927670520611
 10
59.09091853459149
 20
-6.864840307678904
 10
58.39073978393282
 20
-8.362257026736533
 10
57.22145318823087
 20
-10.77452558887834
 10
55.58471879092496
 20
-13.10238936482165
 10
53.56984832937798
 20
-15.19497654872501
 10
51.31281068471058
 20
-16.93044545066485
 10
48.9673563438358
 20
-18.23839598692235
 10
45.97703282979854
 20
-19.44618333395474
 10
42.50854412704311
 20
-20.15180036521613
 10
39.73228951012007
 20
-20.23702009036264
 10
37.49736473641697
 20
-19.98211804429774
 10
34.52960386345679
 20
-19.44624383307898
 10
31.88026669622335
 20
-18.25345326141554
 10
29.51595982919324
 20
-17.15479235907216
 10
26.41948098880695
 20
-14.64609225777524
 10
25.33882686863545
 20
-13.60716586159283
 10
24.42485918452948
 20
-12.44038343372479
 10
22.30969916889638
 20
-9.114888504401117
 10
21.37193853869373
 20
-6.401977554934907
 10
20.61965155186551
 20
-4.052161854003021
 10
20.34303785519208
 20
-1.370708550621213
 10
20.25454984780191
 20
-0.2148662389987699
 10
20.61923756601492
 20
3.518838859050373
 10
21.353103257822
 20
6.073657768985125
  0
LWPOLYLINE
  5
58
100
AcDbEntity
  8
s00f-#def-outline
  6
CONTINUOUS
 62
    7
420
    0
370
   80
100
AcDbPolyline
 90
   17
 70
    0
 43
0
 10
14.79947600198601
 20
5.643801624519264
 10
14.04908431909102
 20
6.909822763705325
 10
13.07534022969598
 20
8.263697667539015
 10
10.92775917831079
 20
10.64559021519959
 10
8.284020749316742
 20
12.66269247088935
 10
5.322531526673593
 20
14.20181476365907
 10
2.245029576666987
 20
15.21471571559467
 10
-0.5035962929384361
 20
15.67538258863286
 10
-0.7635486372853926
 20
15.71801623338268
 10
-3.772126851237783
 20
15.76494435150667
 10
-6.849628801244384
 20
15.31487726312686
 10
-9.811118023887538
 20
14.31737166082115
 10
-11.37447668262529
 20
13.63458324640751
 10
-14.31128955587044
 20
11.93097668489909
 10
-16.69694299604274
 20
9.721340940441445
 10
-18.16406402264043
 20
8.157702342215977
 10
-18.22460221282918
 20
8.066637134889945
  0
LWPOLYLINE
  5
59
100
AcDbEntity
  8
s00e-#def-hidden-edge
  6
DASHED
 62
    7
420
    0
370
   25
100
AcDbPolyline
 90
   33
 70
    0
 43
0
 10
14.79947600198601
 20
5.643801624519264
 10
15.75340029984841
 20
4.034391027619012
 10
16.73634297555082
 20
1.118387682319266
 10
17.19346536780639
 20
-0.9403914834145581
 10
17.5177419384954
 20
-3.891884124930639
 10
17.1934653678064
 20
-6.784070927536954
 10
16.94843351087539
 20
-8.938530968537753
 10
15.89126984191743
 20
-11.88137766804038
 10
15.01536854936158
 20
-13.82819909094895
 10
13.21296113923033
 20
-16.53948933563291
 10
11.74584011263264
 20
-18.10312793385839
 10
9.360186672460333
 20
-20.31276367831604
 10
6.42337379921517
 20
-22.01637023982444
 10
4.860015140477426
 20
-22.69915865423808
 10
1.898525917834277
 20
-23.69666425654379
 10
-1.178976032172322
 20
-24.1467313449236
 10
-4.187554246124702
 20
-24.09980322679962
 10
-4.447506590471669
 20
-24.05716958204979
 10
-7.196132460077102
 20
-23.5965027090116
 10
-10.27363441008369
 20
-22.583601757076
 10
-13.23512363272685
 20
-21.04447946430629
 10
-15.8788620617209
 20
-19.0273772086165
 10
-18.02644311310609
 20
-16.64548466095594
 10
-19.00018720250111
 20
-15.29160975712225
 10
-20.70450318325851
 20
-12.41617802103593
 10
-21.68744585896094
 20
-9.500174675736187
 10
-22.14456825121648
 20
-7.441395510002352
 10
-22.46884482187399
 20
-4.489902869188854
 10
-22.14456825121648
 20
-1.597716065879962
 10
-21.89953639443878
 20
0.5567439746092129
 10
-20.84237272532754
 20
3.499590674623433
 10
-19.96647143277168
 20
5.446412097532018
 10
-18.22460221282918
 20
8.066637134889945
  0
LWPOLYLINE
  5
5A
100
AcDbEntity
  8
s00e-#def-hidden-edge
  6
DASHED
 62
    7
420
    0
370
   25
100
AcDbPolyline
 90
  119
 70
    0
 43
0
 10
44.27053878785964
 20
22.51646652830432
 10
47.98005819868732
 20
24.47363495029468
 10
51.36997334454404
 20
26.61532698070019
 10
50.22748335243166
 20
25.80917000781003
 10
53.28292280348433
 20
28.13488982245895
 10
56.0241888925826
 20
30.69024228144604
 10
54.87956325713687
 20
29.55371950058384
 10
57.18095884916522
 20
32.25221042340288
 10
56.17196557722441
 20
30.87934487303315
 10
57.99827480009375
 20
33.6950063286017
 10
57.17265880276184
 20
32.13038741449189
 10
58.49624609385576
 20
35.03471252412719
 10
57.89032898764185
 20
33.33403206280056
 10
58.691642246575
 20
36.2964840353888
 10
58.32662593344844
 20
34.52204762026855
 10
58.59463224387588
 20
37.5105256330755
 10
58.47486111111114
 20
35.72605555555558
 10
58.59463224387589
 20
33.94158547803566
 10
58.32662593344844
 20
36.9300634908426
 10
58.69164224657501
 20
35.15562707572237
 10
57.89032898764187
 20
38.11807904831061
 10
58.49624609385576
 20
36.41739858698398
 10
57.17265880276185
 20
39.32172369661928
 10
57.99827480009375
 20
37.75710478250947
 10
56.17196557722443
 20
40.57276623807801
 10
57.18095884916523
 20
39.19990068770829
 10
54.87956325713689
 20
41.89839161052733
 10
56.02418889258263
 20
40.76186882966513
 10
53.28292280348433
 20
43.31722128865223
 10
50.22748335243168
 20
45.64294110330115
 10
51.36997334454407
 20
44.83678413041099
 10
47.98005819868734
 20
46.97847616081651
 10
44.27053878785966
 20
48.93564458280686
 10
45.31567387863838
 20
48.46709581726179
 10
49.13350102933764
 20
46.45278347324576
 10
52.62239235137757
 20
44.24855993956719
 10
55.85309024170017
 20
41.78943803001317
 10
58.75159394765653
 20
39.08751186454367
 10
61.24501909587153
 20
36.16385755986161
 10
63.26557416506886
 20
33.04872297250596
 10
64.75476453755022
 20
29.78101783516116
 10
65.66739037603213
 20
26.4070436914437
 10
65.97486111063303
 20
22.97850677188617
 10
65.97486111111115
 20
18.33302534883239
 10
65.66739037648316
 20
21.76156226854837
 10
64.75476453755022
 20
25.13553641241992
 10
63.26557416537391
 20
28.40324154984549
 10
61.24501909606843
 20
31.51837613727244
 10
58.75159394773575
 20
34.4420304419956
 10
55.85309024166691
 20
37.14395660747878
 10
52.62239235072978
 20
39.60307851791576
 10
49.13350102933764
 20
41.80730205050453
 10
45.31567387965353
 20
43.8216143940843
 10
41.05634978877225
 20
45.68685869108654
 10
36.37647639185562
 20
47.36031058603251
 10
31.31255859230764
 20
48.79989026662658
 10
25.91698721446907
 20
49.96645827980255
 10
20.25715589229414
 20
50.82624274205314
 10
14.41326125168491
 20
51.35314751583049
 10
8.474861111111132
 20
51.53066582723589
 10
2.536460970537362
 20
51.35314751583049
 10
-3.30743367007188
 20
50.82624274205314
 10
-8.967264992246811
 20
49.96645827980255
 10
-14.36283637008543
 20
48.79989026662657
 10
-19.42675416963359
 20
47.36031058603245
 10
-24.10662756655065
 20
45.68685869108628
 10
-28.36595165743266
 20
43.82161439408362
 10
-32.18377880711537
 20
41.80730205050453
 10
-35.67267012850748
 20
39.60307851791576
 10
-38.90336801944418
 20
37.14395660747918
 10
-41.80187172551336
 20
34.44203044199576
 10
-44.29529687384613
 20
31.51837613727248
 10
-46.31585194315163
 20
28.40324154984551
 10
-47.80504231532794
 20
25.13553641241993
 10
-48.71766815426089
 20
21.76156226854838
 10
-49.02513888888888
 20
18.3330253488324
 10
-49.02513888841077
 20
22.97850677188618
 10
-48.71766815379037
 20
26.40704369145162
 10
-47.80504231490218
 20
29.78101783518883
 10
-46.31585194280782
 20
33.04872297250326
 10
-44.29529687361578
 20
36.16385755984721
 10
-41.80187172541489
 20
39.0875118645183
 10
-38.90336801947799
 20
41.78943802998006
 10
-35.67267012865543
 20
44.24855994042161
 10
-32.18377880711537
 20
46.45278347324576
 10
-28.36595165743266
 20
48.46709581682485
 10
-27.3208165656374
 20
48.93564458280686
 10
-31.03033597757948
 20
46.97847616017131
 10
-34.4202511223218
 20
44.83678413041099
 10
-33.27776113020941
 20
45.64294110330116
 10
-36.33320058126208
 20
43.31722128865223
 10
-39.07446667036037
 20
40.76186882966513
 10
-37.92984103491463
 20
41.89839161052733
 10
-40.23123662694296
 20
39.19990068770829
 10
-39.22224335500217
 20
40.57276623807802
 10
-41.0485525778715
 20
37.75710478250947
 10
-40.2229365805396
 20
39.32172369661929
 10
-41.5465238716335
 20
36.41739858698398
 10
-40.94060676541961
 20
38.11807904831061
 10
-41.74192002435275
 20
35.15562707572236
 10
-41.37690371122619
 20
36.93006349084261
 10
-41.64491002165364
 20
33.94158547803566
 10
-41.52513888888888
 20
35.72605555555559
 10
-41.64491002165362
 20
37.51052563307551
 10
-41.37690371122618
 20
34.52204762026857
 10
-41.74192002435275
 20
36.2964840353888
 10
-40.94060676541961
 20
33.33403206280056
 10
-41.54652387163351
 20
35.0347125241272
 10
-40.2229365805396
 20
32.13038741449189
 10
-41.0485525778715
 20
33.6950063286017
 10
-39.22224335500218
 20
30.87934487303316
 10
-40.23123662694296
 20
32.25221042340289
 10
-37.92984103491465
 20
29.55371950058384
 10
-39.07446667036037
 20
30.69024228144604
 10
-36.33320058126208
 20
28.13488982245896
 10
-33.27776113020943
 20
25.80917000781003
 10
-34.42025112232182
 20
26.61532698070019
 10
-31.0303359764651
 20
24.47363495029468
 10
-27.32081656563741
 20
22.51646652830432
  0
LWPOLYLINE
  5
5B
100
AcDbEntity
  8
s00f-#def-outline
  6
CONTINUOUS
 62
    7
420
    0
370
   80
100
AcDbPolyline
 90
   33
 70
    0
 43
0
 10
43.47486111111113
 20
53.11908576227877
 10
43.28770501177235
 20
51.03215024592992
 10
42.7321936315523
 20
48.9784268540081
 10
41.82572992674933
 20
46.9893889442708
 10
40.59582684108513
 20
45.09322006496744
 10
39.07808979427394
 20
43.31360440122291
 10
37.31378319057984
 20
41.66895369179838
 10
35.34727143087969
 20
40.17209687675026
 10
33.22359845264029
 20
38.83039559604357
 10
30.8997036658769
 20
37.60429243038673
 10
28.30707161055702
 20
36.46892633655886
 10
25.45845302112949
 20
35.45030344398306
 10
22.37606827357855
 20
34.57403755144754
 10
19.09180743489421
 20
33.86395267386216
 10
15.64669271704859
 20
33.34060560988354
 10
12.08953945754733
 20
33.01988096497559
 10
8.474861111111112
 20
32.91182634064187
 10
4.860182764674908
 20
33.0198809649756
 10
1.303029505173625
 20
33.34060560988355
 10
-2.142085212671979
 20
33.86395267386216
 10
-5.426346051356322
 20
34.57403755144755
 10
-8.508730798907269
 20
35.45030344398305
 10
-11.35734938833479
 20
36.46892633655887
 10
-13.94998144365382
 20
37.60429243038632
 10
-16.27387623041805
 20
38.83039559604357
 10
-18.39754920865674
 20
40.17209687674978
 10
-20.36406096835761
 20
41.66895369179836
 10
-22.12836757205169
 20
43.31360440122293
 10
-23.64610461886289
 20
45.09322006496745
 10
-24.8760077045271
 20
46.9893889442708
 10
-25.78247140933006
 20
48.9784268540081
 10
-26.33798278955011
 20
51.03215024592993
 10
-26.52513888888888
 20
53.11908576227877
  0
LWPOLYLINE
  5
5C
100
AcDbEntity
  8
s00e-#def-hidden-edge
  6
DASHED
 62
    7
420
    0
370
   25
100
AcDbPolyline
 90
   56
 70
    0
 43
0
 10
65.34779760970346
 20
57.72915588616502
 10
64.95216340820318
 20
57.4747374877339
 10
62.08098793249364
 20
54.63876284746797
 10
59.868917979794
 20
51.26850885806407
 10
58.4320849223264
 20
47.5883641835328
 10
58.28248329752879
 20
47.17246927521746
 10
57.71259948556931
 20
43.63590565178189
 10
57.65975915118801
 20
43.29616179729096
 10
57.62928415696854
 20
42.85403622417603
 10
57.61977749253313
 20
42.34786571873126
 10
57.62928415696854
 20
41.77238694958141
 10
57.65975915118802
 20
41.1080836665839
 10
57.71259948556932
 20
40.38310776257351
 10
57.78656389529135
 20
39.6382485636576
 10
57.87761636208133
 20
38.92028887260433
 10
57.97961242044183
 20
38.27269243768259
 10
58.0856040499563
 20
37.72726518118722
 10
58.18922189086682
 20
37.29993340855356
 10
58.29283973175193
 20
36.97184011275724
 10
59.45608670933308
 20
33.693621324665
 10
59.67046711269055
 20
33.23387273995813
 10
61.70980672805284
 20
29.93016760035905
 10
64.45973438780449
 20
27.06593766887511
 10
64.85600362594596
 20
26.69294439002835
 10
68.23687886683265
 20
24.39598333589501
 10
71.93383947023261
 20
22.87222813269202
 10
75.70215453155451
 20
22.14303266325182
 10
79.32509425348283
 20
22.13935862834473
 10
79.58505195715325
 20
22.18203381165583
 10
82.89087300512787
 20
22.80039279790382
 10
86.4759510674257
 20
24.20200679530022
 10
86.94109653069253
 20
24.47859551231042
 10
90.27392649733838
 20
26.62182089358903
 10
93.14510197304794
 20
29.45779553385494
 10
95.35717192574758
 20
32.82804952325881
 10
96.79400498321516
 20
36.50819419779009
 10
96.94360660801277
 20
36.92408910610543
 10
97.51349041997226
 20
40.460652729541
 10
97.56633075435352
 20
40.80039658403194
 10
97.59680574857303
 20
41.24252215714687
 10
97.60631241301059
 20
41.74869266264678
 10
97.59680574857303
 20
42.32417143174149
 10
97.56633075435353
 20
42.988474714739
 10
97.51349041997226
 20
43.71345061874938
 10
97.43952601025021
 20
44.45830981766531
 10
97.34847354346022
 20
45.17626950871858
 10
97.24647748509969
 20
45.82386594364031
 10
97.14048585558525
 20
46.36929320013569
 10
97.03686801468818
 20
46.79662497270945
 10
96.93325017378963
 20
47.12471826856566
 10
95.77000319620848
 20
50.40293705665791
 10
95.55562279285101
 20
50.86268564136478
 10
93.51628317748875
 20
54.16639078096385
 10
90.76635551773707
 20
57.0306207124478
 10
90.37008627959561
 20
57.40361399129456
 10
89.24511125742473
 20
58.16792016312526
  0
LWPOLYLINE
  5
5D
100
AcDbEntity
  8
s00f-#def-outline
  6
CONTINUOUS
 62
    7
420
    0
370
   80
100
AcDbPolyline
 90
   10
 70
    0
 43
0
 10
89.24511125742473
 20
58.16792016312526
 10
86.98921103870893
 20
59.70057504542788
 10
83.29225043530897
 20
61.22433024863089
 10
79.52393537398704
 20
61.9535257180711
 10
75.90099565205875
 20
61.95719975297818
 10
75.64103794838833
 20
61.91452456966707
 10
72.33521690041368
 20
61.29616558341909
 10
68.75013883811586
 20
59.89455158602269
 10
68.28499337484907
 20
59.61796286901249
 10
65.34779760970346
 20
57.72915588616502
  0
LWPOLYLINE
  5
5E
100
AcDbEntity
  8
s00f-#def-outline
  6
CONTINUOUS
 62
    7
420
    0
370
   80
100
AcDbPolyline
 90
   12
 70
    0
 43
0
 10
77.74828741927914
 20
61.95532640841347
 10
77.80538529847949
 20
62.29835524950442
 10
77.97233578791948
 20
64.30314721289133
 10
77.80538529847949
 20
66.50071699631725
 10
77.41888515145027
 20
68.36984014716026
 10
77.00471141782059
 20
70.27229897083767
 10
76.28657908876025
 20
72.28754553910235
 10
75.28135770923619
 20
74.29680435009891
 10
74.04389922589748
 20
76.17198100669226
 10
72.65771066742103
 20
77.80152513106975
 10
71.21721986327736
 20
79.111439517812
 10
70.21595750130754
 20
80.00300051865369
  0
LWPOLYLINE
  5
5F
100
AcDbEntity
  8
s00e-#def-hidden-edge
  6
DASHED
 62
    7
420
    0
370
   25
100
AcDbPolyline
 90
   35
 70
    0
 43
0
 10
77.74828741927914
 20
61.95532640841347
 10
77.35026656338935
 20
59.56412318268917
 10
76.71678281947042
 20
57.38577338090689
 10
75.40385517711201
 20
54.66119267439053
 10
74.18369965057009
 20
52.64606633626296
 10
72.18491487694973
 20
50.28243957663968
 10
70.37867561696025
 20
48.75775388817729
 10
68.95162786476872
 20
47.67181335215152
 10
67.97233579416948
 20
46.98292781233722
 10
66.88609738109092
 20
46.47927877138075
 10
65.23212141379754
 20
45.7863894335823
 10
63.00858524480782
 20
44.98448319334981
 10
59.96223203909917
 20
44.43529818250867
 10
57.60700367517464
 20
44.38617566901919
 10
54.59098374749131
 20
44.61143733066417
 10
52.38773560885959
 20
45.15199921643704
 10
49.79226181161049
 20
46.12497086351837
 10
47.97258579729454
 20
46.98278348018254
 10
46.15290978297863
 20
48.22615173692478
 10
44.72745172506157
 20
49.49543225824002
 10
43.28696092091791
 20
50.80534664498227
 10
41.90077236244149
 20
52.43489076935977
 10
40.66331387910275
 20
54.31006742595311
 10
39.65809249957871
 20
56.31932623694969
 10
38.93996017051834
 20
58.33457280521434
 10
38.52578643688867
 20
60.23703162889176
 10
38.13928628985946
 20
62.10615477973477
 10
37.97233580041946
 20
64.30372456316069
 10
38.13928628985945
 20
66.30851652654761
 10
38.59440502494958
 20
69.04274859336285
 10
39.22788876886852
 20
71.22109839514513
 10
40.54081641122694
 20
73.9456791016615
 10
41.76097193776883
 20
75.96080543978906
 10
43.75975671138922
 20
78.32443219941237
 10
44.5121582033966
 20
78.95955059831601
  0
LWPOLYLINE
  5
60
100
AcDbEntity
  8
s00e-#def-hidden-edge
  6
DASHED
 62
    7
420
    0
370
   25
100
AcDbPolyline
 90
  153
 70
    0
 43
0
 10
61.33341856163047
 20
85.04418862185453
 10
62.37855365342574
 20
84.57563985587254
 10
67.96461338965159
 20
81.62839561523555
 10
73.06939015674965
 20
78.40328252281621
 10
74.21188014886205
 20
77.59712554992605
 10
79.02248773661172
 20
73.93541810438151
 10
83.33844806229055
 20
69.91216772566985
 10
84.48307369773627
 20
68.77564494480764
 10
88.25262629295301
 20
64.3556732126483
 10
89.26161956489381
 20
62.98280766227858
 10
90.90476728387897
 20
60.63151393894971
 10
92.35492268468134
 20
58.21379360063362
 10
93.18053868201324
 20
56.64917468652381
 10
94.43927386251792
 20
54.1485084095791
 10
95.4828062101312
 20
51.59734815720989
 10
96.08872331634512
 20
49.89666769588328
 10
96.91472325023659
 20
47.28624950037414
 10
97.50945557829218
 20
44.64422610078422
 10
97.87447189141874
 20
42.86978968566399
 10
98.23469403337766
 20
40.19554177166073
 10
98.35430473094566
 20
38.4146496484469
 10
98.47486111111113
 20
35.72605555555558
 10
98.35430473094566
 20
33.03746146266427
 10
98.23469403337768
 20
31.25656933945041
 10
97.87447189141875
 20
28.58232142544717
 10
97.50945557829218
 20
26.80788501032692
 10
96.91472325023661
 20
24.16586161073703
 10
96.0887233163451
 20
21.5554434152279
 10
95.48280621013117
 20
19.85476295390127
 10
94.43927386251789
 20
17.30360270153208
 10
93.18053868201324
 20
14.80293642458735
 10
92.35492268468131
 20
13.23831751047753
 10
90.90476728387893
 20
10.82059717216145
 10
89.26161956489378
 20
8.469303448832584
 10
88.25262629295301
 20
7.096437898462856
 10
84.48307369773625
 20
2.676466166303523
 10
83.33844806229052
 20
1.53994338544133
 10
79.02248773661171
 20
-2.483306993270357
 10
74.21188014886199
 20
-6.145014438814862
 10
73.06939015674961
 20
-6.951171411705026
 10
67.96461338965156
 20
-10.17628450412436
 10
62.37855365342572
 20
-13.12352874476136
 10
61.33341856244328
 20
-13.59207751037807
 10
66.8111705590013
 20
-10.7019771916951
 10
71.81697115026458
 20
-7.539395601702918
 10
76.45232029823615
 20
-4.011090251992478
 10
80.61104300719107
 20
-0.1344135797668109
 10
84.18856604649696
 20
4.060394770595675
 10
85.72853130695535
 20
6.264037577965716
 10
87.08762331940508
 20
8.529935700555104
 10
88.25581714378576
 20
10.85072799015401
 10
89.22428776644262
 20
13.21838220208016
 10
89.98557164778671
 20
15.62427742587816
 10
90.5337074483914
 20
18.05930162589764
 10
90.8643510959009
 20
20.51396218568816
 10
90.97486111111915
 20
22.97850677157883
 10
90.97486111111115
 20
18.33302534883239
 10
90.86435109589311
 20
15.86848076294256
 10
90.53370744838404
 20
13.41382020315293
 10
89.98557164778003
 20
10.97879600313435
 10
89.22428776643679
 20
8.572900779337232
 10
88.25581714378085
 20
6.205246567411816
 10
87.08762331940119
 20
3.884454277813578
 10
85.72853130695248
 20
1.618556155224741
 10
84.18856604604987
 20
-0.5850866519728974
 10
80.61104300713772
 20
-4.779895002227864
 10
76.45232029843025
 20
-8.65657167444288
 10
71.8169711505639
 20
-12.18487702420027
 10
66.81117055900131
 20
-15.34745861443632
 10
61.33341856163045
 20
-18.23755893348461
 10
55.22221443123452
 20
-20.91377901179274
 10
48.50761347044049
 20
-23.31481868715029
 10
41.24199227978444
 20
-25.38030257669837
 10
37.42517097598436
 20
-26.26940193462319
 10
33.50052030288556
 20
-27.05407407386394
 10
29.48079014348729
 20
-27.72853109283518
 10
25.37989275367802
 20
-28.28767786752781
 10
21.21275998837412
 20
-28.72720532135106
 10
16.99517435628216
 20
-29.04367167338227
 10
12.74357755139107
 20
-29.23456887227746
 10
8.474861111111096
 20
-29.29837185931176
 10
4.206144670831151
 20
-29.23456887227746
 10
-0.04545213405994986
 20
-29.04367167338227
 10
-4.263037766151925
 20
-28.72720532135109
 10
-8.430170531455822
 20
-28.28767786752782
 10
-12.53106792126506
 20
-27.72853109283518
 10
-16.55079808066333
 20
-27.05407407386391
 10
-20.47544875376212
 20
-26.26940193462319
 10
-24.29227005756226
 20
-25.38030257669836
 10
-31.55789124821829
 20
-23.31481868715029
 10
-38.27249220901229
 20
-20.91377901179273
 10
-44.38369633940823
 20
-18.23755893348459
 10
-49.86144833677908
 20
-15.34745861443632
 10
-54.86724892834168
 20
-12.18487702420025
 10
-59.50259807620737
 20
-8.656571674443397
 10
-63.6613207849153
 20
-4.779895002228061
 10
-67.23884382382755
 20
-0.5850866519729507
 10
-68.77880908473023
 20
1.618556155224727
 10
-70.13790109717894
 20
3.884454277813578
 10
-71.30609492155861
 20
6.205246567411821
 10
-72.27456554421451
 20
8.572900779337221
 10
-73.03584942555776
 20
10.97879600313435
 10
-73.58398522616176
 20
13.41382020315293
 10
-73.91462887367084
 20
15.86848076294258
 10
-74.0251388888889
 20
18.33302534883239
 10
-73.91462887367085
 20
20.7975699347222
 10
-73.58398522616176
 20
23.25223049451184
 10
-73.03584942555779
 20
25.68725469453044
 10
-72.27456554421448
 20
28.09314991832754
 10
-71.3060949215586
 20
30.46080413025296
 10
-70.13790109717891
 20
32.78159641985121
 10
-68.77880908473021
 20
35.04749454244005
 10
-67.23884382382752
 20
37.25113734963772
 10
-63.66132078491527
 20
41.44594569989283
 10
-59.50259807620737
 20
45.32262237210821
 10
-54.86724892834168
 20
48.85092772186506
 10
-49.86144833677905
 20
52.01350931210111
 10
-44.38369633940621
 20
54.90360963115034
 10
-38.27249220901133
 20
57.57982970945789
 10
-31.55789124821792
 20
59.98086938481518
 10
-24.29227005756221
 20
62.04635327436314
 10
-20.47544875376211
 20
62.93545263228798
 10
-16.55079808066332
 20
63.72012477152871
 10
-12.53106792126506
 20
64.39458179049996
 10
-8.430170531455801
 20
64.95372856519259
 10
-4.263037766151911
 20
65.39325601901585
 10
-0.04545213405994275
 20
65.70972237104704
 10
4.206144672111932
 20
65.90061956998055
 10
8.474861111111132
 20
65.96442255697654
 10
12.74357755011032
 20
65.90061956998055
 10
16.9951743562822
 20
65.70972237104706
 10
21.21275998837416
 20
65.39325601901585
 10
25.37989275367806
 20
64.95372856519261
 10
29.48079014348731
 20
64.39458179049996
 10
33.50052030288558
 20
63.72012477152872
 10
37.42517097598439
 20
62.93545263228797
 10
41.24199227978438
 20
62.04635327436318
 10
48.50761347044019
 20
59.98086938481519
 10
55.22221443123361
 20
57.57982970945789
 10
61.33341856163049
 20
54.90360963114939
 10
66.81117055900133
 20
52.0135093121011
 10
71.81697115056565
 20
48.85092772186388
 10
76.45232029843027
 20
45.32262237210765
 10
80.61104300713777
 20
41.44594569989264
 10
84.18856604604983
 20
37.25113734963773
 10
85.72853130695251
 20
35.04749454244005
 10
87.08762331940119
 20
32.7815964198512
 10
88.25581714378086
 20
30.46080413025295
 10
89.22428776643677
 20
28.09314991832754
 10
89.98557164778003
 20
25.68725469453042
 10
90.53370744838404
 20
23.25223049451184
 10
90.86435109595945
 20
20.79756993398275
 10
90.97486111111115
 20
18.33302534883239
  0
LWPOLYLINE
  5
61
100
AcDbEntity
  8
s00e-#def-hidden-edge
  6
DASHED
 62
    7
420
    0
370
   25
100
AcDbPolyline
 90
    4
 70
    0
 43
0
 10
70.21595750130754
 20
80.00300051865369
 10
69.79176180536032
 20
80.38072003912724
 10
67.97208579104439
 20
81.62408829586948
 10
66.50392367741671
 20
82.31619390943476
  0
LWPOLYLINE
  5
62
100
AcDbEntity
  8
s00f-#def-outline
  6
CONTINUOUS
 62
    7
420
    0
370
   80
100
AcDbPolyline
 90
   13
 70
    0
 43
0
 10
66.50392367741671
 20
82.31619390943476
 10
66.15240977672846
 20
82.48190091253366
 10
63.55693597947936
 20
83.45487255961498
 10
61.35368784084764
 20
83.99543444538786
 10
58.3376679131643
 20
84.22069610703284
 10
55.98243954923977
 20
84.17157359354336
 10
52.93608634353112
 20
83.62238858270221
 10
50.71255017454139
 20
82.82048234246973
 10
49.05857420724805
 20
82.12759300467128
 10
47.97233579416947
 20
81.62394396371479
 10
46.9930437235702
 20
80.9350584239005
 10
45.56599597137868
 20
79.84911788787474
 10
44.5121582033966
 20
78.95955059831601
  0
LWPOLYLINE
  5
63
100
AcDbEntity
  8
s00f-#def-outline
  6
CONTINUOUS
 62
    7
420
    0
370
   80
100
AcDbPolyline
 90
   13
 70
    0
 43
0
 10
-9.279882318104978
 20
35.72605555555558
 10
-8.508730798907404
 20
36.00180766712808
 10
-5.426346051356344
 20
36.87807355966363
 10
-2.142085212671987
 20
37.58815843724902
 10
1.303029505173633
 20
38.11150550122763
 10
4.860182764674928
 20
38.43223014613557
 10
8.474861111111121
 20
38.5402847704693
 10
12.08953945754733
 20
38.43223014613558
 10
15.64669271704862
 20
38.11150550122763
 10
19.09180743489425
 20
37.58815843724901
 10
22.3760682735786
 20
36.87807355966363
 10
25.45845302112965
 20
36.00180766712808
 10
26.22960454032726
 20
35.72605555555558
  0
LWPOLYLINE
  5
64
100
AcDbEntity
  8
s00f-#def-outline
  6
CONTINUOUS
 62
    7
420
    0
370
   80
100
AcDbPolyline
 90
    9
 70
    0
 43
0
 10
38.48933634459244
 20
81.39084425937679
 10
37.65422540548075
 20
83.86828913214711
 10
35.94990942472336
 20
86.74372086823342
 10
34.97616533532834
 20
88.09759577206711
 10
32.82858428394315
 20
90.47948831972767
 10
30.1848458549491
 20
92.49659057541746
 10
27.22335663230594
 20
94.03571286818718
 10
24.14585468229933
 20
95.04861382012277
 10
21.47084228509996
 20
95.49694315078321
  0
LWPOLYLINE
  5
65
100
AcDbEntity
  8
s00e-#def-hidden-edge
  6
DASHED
 62
    7
420
    0
370
   25
100
AcDbPolyline
 90
    3
 70
    0
 43
0
 10
21.47084228509996
 20
95.49694315078321
 10
21.39722881269389
 20
95.50928069316095
 10
21.38480258719974
 20
95.51131866394604
  0
LWPOLYLINE
  5
66
100
AcDbEntity
  8
s00f-#def-outline
  6
CONTINUOUS
 62
    7
420
    0
370
   80
100
AcDbPolyline
 90
   10
 70
    0
 43
0
 10
21.38480258719974
 20
95.51131866394604
 10
21.13727646834693
 20
95.55191433791079
 10
18.12869825439455
 20
95.59884245603476
 10
15.05119630438796
 20
95.14877536765495
 10
12.08970708174481
 20
94.15126976534924
 10
10.52634842300705
 20
93.46848135093561
 10
7.589535549761898
 20
91.76487478942718
 10
5.203882109589614
 20
89.55523904496951
 10
3.736761082991905
 20
87.99160044674406
 10
2.503345503981706
 20
86.13622212982509
  0
LWPOLYLINE
  5
67
100
AcDbEntity
  8
s00e-#def-hidden-edge
  6
DASHED
 62
    7
420
    0
370
   25
100
AcDbPolyline
 90
   32
 70
    0
 43
0
 10
2.503345503981706
 20
86.13622212982509
 10
1.934353672860667
 20
85.28031020206009
 10
1.058452380304821
 20
83.33348877915154
 10
0.001288711193566883
 20
80.39064207913731
 10
-0.2437431455841406
 20
78.23618203864811
 10
-0.5680197162586751
 20
75.34399523580547
 10
-0.2437431455841406
 20
72.39250259452572
 10
0.2133792466714226
 20
70.3337234287919
 10
1.196321922373855
 20
67.41772008349214
 10
2.900637903131241
 20
64.54228834740583
 10
3.874381992526281
 20
63.18841344357215
 10
6.021963043911448
 20
60.80652089591158
 10
8.665701472905518
 20
58.78941864022181
 10
11.62719069554865
 20
57.25029634745209
 10
14.70469264555526
 20
56.23739539551649
 10
17.45331851516066
 20
55.7767285224783
 10
17.71327085950765
 20
55.73409487772848
 10
20.72184907346003
 20
55.68716675960451
 10
23.79935102346664
 20
56.13723384798431
 10
26.76084024610977
 20
57.13473945029002
 10
28.32419890484753
 20
57.81752786470366
 10
31.26101177809269
 20
59.52113442621208
 10
33.64666521826499
 20
61.73077017066972
 10
35.11378624486268
 20
63.2944087688952
 10
36.91619365499391
 20
66.00569901357915
 10
37.79209494754977
 20
67.95252043648773
 10
38.84925861650773
 20
70.89536713599034
 10
39.09429047343873
 20
73.04982717699113
 10
39.41856704412777
 20
75.94201397959745
 10
39.09429047343873
 20
78.89350662111353
 10
38.63716808118318
 20
80.95228578684736
 10
38.48933634459244
 20
81.39084425937679
  0
LWPOLYLINE
  5
68
100
AcDbEntity
  8
s00f-#def-outline
  6
CONTINUOUS
 62
    7
420
    0
370
   80
100
AcDbPolyline
 90
   13
 70
    0
 43
0
 10
-32.29144286176044
 20
25.06734799763056
 10
-32.84253958938823
 20
25.32714024759281
 10
-35.43801338663734
 20
26.30011189467414
 10
-37.64126152526907
 20
26.840673780447
 10
-40.6572814529524
 20
27.06593544209198
 10
-43.01250981687692
 20
27.01681292860251
 10
-46.05886302258558
 20
26.46762791776137
 10
-48.28239919157531
 20
25.66572167752888
 10
-49.93637515886867
 20
24.97283233973042
 10
-51.02261357194724
 20
24.46918329877395
 10
-52.00190564254648
 20
23.78029775895966
 10
-53.42895339473802
 20
22.69435722293389
 10
-54.10776741992292
 20
22.12135559892256
  0
LWPOLYLINE
  5
69
100
AcDbEntity
  8
s00e-#def-hidden-edge
  6
DASHED
 62
    7
420
    0
370
   25
100
AcDbPolyline
 90
    3
 70
    0
 43
0
 10
-32.29144286176044
 20
25.06734799763056
 10
-31.02286357507229
 20
24.46932763092863
 10
-30.49289904106794
 20
24.10720763066697
  0
LWPOLYLINE
  5
6A
100
AcDbEntity
  8
s00f-#def-outline
  6
CONTINUOUS
 62
    7
420
    0
370
   80
100
AcDbPolyline
 90
   11
 70
    0
 43
0
 10
-30.49289904106794
 20
24.10720763066697
 10
-29.20318756075637
 20
23.22595937418639
 10
-27.77772950283933
 20
21.95667885287116
 10
-26.33723869869566
 20
20.6467644661289
 10
-24.95105014021923
 20
19.01722034175141
 10
-23.7135916568805
 20
17.14204368515807
 10
-22.70837027735647
 20
15.13278487416149
 10
-21.99023794829611
 20
13.11753830589683
 10
-21.57606421466643
 20
11.21507948221941
 10
-21.1895640676372
 20
9.345956331376399
 10
-21.13829206139716
 20
8.671062762470507
  0
LWPOLYLINE
  5
6B
100
AcDbEntity
  8
s00e-#def-hidden-edge
  6
DASHED
 62
    7
420
    0
370
   25
100
AcDbPolyline
 90
   37
 70
    0
 43
0
 10
-21.13829206139716
 20
8.671062762470507
 10
-21.02261357819721
 20
7.14838654795048
 10
-21.1895640676372
 20
5.143594584563571
 10
-21.64468280272735
 20
2.409362517748313
 10
-22.27816654664628
 20
0.2310127159660387
 10
-23.5910941890047
 20
-2.493567990550329
 10
-24.81124971554658
 20
-4.508694328677892
 10
-26.81003448916697
 20
-6.872321088301178
 10
-28.61627374915643
 20
-8.397006776763565
 10
-30.04332150134794
 20
-9.482947312789325
 10
-31.02261357194722
 20
-10.17183285260363
 10
-32.10885198502579
 20
-10.67548189356011
 10
-33.76282795231915
 20
-11.36837123135855
 10
-35.98636412130888
 20
-12.17027747159105
 10
-39.03271732701752
 20
-12.71946248243217
 10
-41.38794569094206
 20
-12.76858499592166
 10
-44.4039656186254
 20
-12.54332333427669
 10
-46.60721375725709
 20
-12.00276144850381
 10
-49.20268755450622
 20
-11.02978980142249
 10
-51.02236356882216
 20
-10.17197718475831
 10
-52.84203958313808
 20
-8.928608928016068
 10
-54.26749764105512
 20
-7.659328406700833
 10
-55.70798844519878
 20
-6.349414019958576
 10
-57.09417700367523
 20
-4.719869895581089
 10
-58.33163548701394
 20
-2.844693238987734
 10
-59.336856866538
 20
-0.8354344279911681
 10
-60.05498919559834
 20
1.1798121402735
 10
-60.46916292922802
 20
3.082270963950919
 10
-60.85566307625725
 20
4.951394114793924
 10
-61.02261356569726
 20
7.148963898219833
 10
-60.85566307625724
 20
9.153755861606756
 10
-60.40054434116712
 20
11.88798792842201
 10
-59.76706059724818
 20
14.06633773020429
 10
-58.45413295488976
 20
16.79091843672065
 10
-57.23397742834786
 20
18.80604477484821
 10
-55.23519265472748
 20
21.16967153447151
 10
-54.10776741992292
 20
22.12135559892256
  0
LWPOLYLINE
  5
6C
100
AcDbEntity
  8
s00f-#def-outline
  6
CONTINUOUS
 62
    7
420
    0
370
   80
100
AcDbPolyline
 90
   10
 70
    0
 43
0
 10
-48.74300905576763
 20
45.32763810577588
 10
-51.28715664461039
 20
47.05612777521615
 10
-54.98411724801035
 20
48.57988297841914
 10
-58.75243230933227
 20
49.30907844785935
 10
-62.37537203126055
 20
49.31275248276644
 10
-62.63532973493101
 20
49.27007729945534
 10
-65.94115078290562
 20
48.65171831320735
 10
-69.52622884520343
 20
47.25010431581095
 10
-69.99137430847028
 20
46.97351559880075
 10
-72.83888360892733
 20
45.14238281757808
  0
LWPOLYLINE
  5
6D
100
AcDbEntity
  8
s00e-#def-hidden-edge
  6
DASHED
 62
    7
420
    0
370
   25
100
AcDbPolyline
 90
   13
 70
    0
 43
0
 10
-40.79866787883216
 20
31.4294330373451
 10
-40.8368416730691
 20
31.81386254745357
 10
-40.92789413985909
 20
32.53182223850684
 10
-41.0298901982196
 20
33.17941867342859
 10
-41.13588182773405
 20
33.72484592992395
 10
-41.23949966886341
 20
34.15217770351494
 10
-41.34311750952968
 20
34.48027099835392
 10
-42.50636448711082
 20
37.75848978644618
 10
-42.72074489046828
 20
38.21823837115304
 10
-44.76008450583059
 20
41.52194351075211
 10
-47.51001216558225
 20
44.38617344223606
 10
-47.90628140372371
 20
44.75916672108282
 10
-48.74300905576763
 20
45.32763810577588
  0
LWPOLYLINE
  5
6E
100
AcDbEntity
  8
s00f-#def-outline
  6
CONTINUOUS
 62
    7
420
    0
370
   80
100
AcDbPolyline
 90
    9
 70
    0
 43
0
 10
-40.79866787883216
 20
31.4294330373451
 10
-40.76287726334706
 20
31.06900334853766
 10
-40.71003692896576
 20
30.34402744452727
 10
-40.67956193474628
 20
29.67972416152976
 10
-40.67005527030874
 20
29.10424539243503
 10
-40.67956193474628
 20
28.59807488693514
 10
-40.71003692896577
 20
28.15594931382021
 10
-40.76287726334706
 20
27.81620545932928
 10
-40.8845399751031
 20
27.06119555784511
  0
LWPOLYLINE
  5
6F
100
AcDbEntity
  8
s00e-#def-hidden-edge
  6
DASHED
 62
    7
420
    0
370
   25
100
AcDbPolyline
 90
   38
 70
    0
 43
0
 10
-72.83888360892733
 20
45.14238281757808
 10
-73.32420427511613
 20
44.83029021752215
 10
-76.19537975082568
 20
41.99431557725623
 10
-78.40744970352532
 20
38.62406158785235
 10
-79.84428276099291
 20
34.94391691332108
 10
-79.99388438579054
 20
34.52802200500572
 10
-80.56376819774999
 20
30.99145838157017
 10
-80.6166085321313
 20
30.65171452707924
 10
-80.64708352635077
 20
30.2095889539643
 10
-80.65659019078619
 20
29.70341844851953
 10
-80.64708352635077
 20
29.12793967936968
 10
-80.61660853213127
 20
28.46363639637216
 10
-80.56376819774999
 20
27.73866049236178
 10
-80.48980378802798
 20
26.99380129344585
 10
-80.39875132123797
 20
26.27584160239259
 10
-80.29675526287745
 20
25.62824516747085
 10
-80.19076363336301
 20
25.08281791097548
 10
-80.0871457924525
 20
24.65548613834182
 10
-79.98352795156738
 20
24.3273928425455
 10
-78.82028097398623
 20
21.04917405445325
 10
-78.60590057062878
 20
20.58942546974638
 10
-76.5665609552665
 20
17.28572033014731
 10
-73.81663329551481
 20
14.42149039866338
 10
-73.42036405737335
 20
14.04849711981661
 10
-70.03948881648668
 20
11.75153606568327
 10
-66.3425282130867
 20
10.22778086248029
 10
-62.5742131517648
 20
9.498585393040077
 10
-58.95127342983652
 20
9.494911358132976
 10
-58.6913157261661
 20
9.537586541444084
 10
-55.38549467819144
 20
10.15594552769207
 10
-51.80041661589362
 20
11.55755952508848
 10
-51.3352711526268
 20
11.83414824209867
 10
-48.00244118598093
 20
13.97737362337729
 10
-45.13126571027138
 20
16.81334826364321
 10
-42.91919575757174
 20
20.1836022530471
 10
-41.48236270010415
 20
23.86374692757836
 10
-41.33276107530654
 20
24.27964183589371
 10
-40.8845399751031
 20
27.06119555784511
  0
LWPOLYLINE
  5
70
100
AcDbEntity
  8
s00f-#def-outline
  6
CONTINUOUS
 62
    7
420
    0
370
   80
100
AcDbPolyline
 90
   10
 70
    0
 43
0
 10
-73.92098734998301
 20
50.79634505125711
 10
-73.91462887367874
 20
50.93814892542295
 10
-73.58398522616929
 20
53.39280948521345
 10
-73.03584942556466
 20
55.82783368523293
 10
-72.27456554422065
 20
58.23372890903089
 10
-71.3060949215638
 20
60.60138312095708
 10
-70.1379010971831
 20
62.92217541055602
 10
-68.77880908473338
 20
65.18807353314541
 10
-67.23884382382971
 20
67.39171634034355
 10
-65.21273650708085
 20
69.76741924941103
  0
LWPOLYLINE
  5
71
100
AcDbEntity
  8
s00e-#def-hidden-edge
  6
DASHED
 62
    7
420
    0
370
   25
100
AcDbPolyline
 90
   65
 70
    0
 43
0
 10
-44.38369633940621
 20
85.04418862185551
 10
-45.42883143120348
 20
84.57563985587254
 10
-51.01489116761061
 20
81.62839561513115
 10
-56.11966793452738
 20
78.4032825228162
 10
-57.26215792663977
 20
77.59712554992605
 10
-62.07276551438947
 20
73.93541810438153
 10
-66.38872584006832
 20
69.91216772566986
 10
-67.533351475514
 20
68.77564494480764
 10
-71.30290407073075
 20
64.3556732126483
 10
-72.31189734267154
 20
62.98280766227859
 10
-73.95504506165668
 20
60.63151393894971
 10
-75.40520046245908
 20
58.21379360063362
 10
-76.23081645979099
 20
56.64917468652381
 10
-77.48955164029565
 20
54.14850840957909
 10
-78.53308398790895
 20
51.59734815720989
 10
-79.13900109412288
 20
49.89666769588327
 10
-79.96500102801434
 20
47.28624950037414
 10
-80.55973335606991
 20
44.64422610078425
 10
-80.9247496691965
 20
42.869789685664
 10
-81.2849718111554
 20
40.19554177166075
 10
-81.40458250872342
 20
38.4146496484469
 10
-81.5251388888889
 20
35.72605555555558
 10
-81.40458250872339
 20
33.03746146266428
 10
-81.2849718111554
 20
31.25656933945042
 10
-80.9247496691965
 20
28.58232142544716
 10
-80.55973335606991
 20
26.80788501032692
 10
-79.96500102801434
 20
24.16586161073703
 10
-79.13900109412286
 20
21.5554434152279
 10
-78.53308398790895
 20
19.85476295390127
 10
-77.48955164029565
 20
17.30360270153208
 10
-76.23081645979099
 20
14.80293642458735
 10
-75.40520046245908
 20
13.23831751047754
 10
-73.95504506165671
 20
10.82059717216146
 10
-72.31189734267153
 20
8.469303448832598
 10
-71.30290407073075
 20
7.096437898462872
 10
-67.53335147551402
 20
2.676466166303531
 10
-66.38872584006828
 20
1.539943385441333
 10
-62.07276551438947
 20
-2.483306993270354
 10
-57.26215792663977
 20
-6.145014438814866
 10
-56.11966793452739
 20
-6.951171411705031
 10
-51.01489116761062
 20
-10.17628450401997
 10
-45.42883143120349
 20
-13.12352874476135
 10
-44.38369633947632
 20
-13.59207751073389
 10
-38.27249220991167
 20
-16.26829758871089
 10
-31.55789124941212
 20
-18.66933726403066
 10
-24.29227005894992
 20
-20.73482115358673
 10
-20.4754487537679
 20
-21.62392051188056
 10
-16.55079808066895
 20
-22.4085926511214
 10
-12.53106792127025
 20
-23.08304967009282
 10
-8.430170531460398
 20
-23.64219644478561
 10
-4.263037766155584
 20
-24.08172389860901
 10
-0.04545213406253623
 20
-24.39819025064031
 10
4.206144670829833
 20
-24.5890874495356
 10
8.474861111111107
 20
-24.65289043656993
 10
12.74357755139241
 20
-24.58908744953559
 10
16.9951743562848
 20
-24.39819025064029
 10
21.21275998837789
 20
-24.08172389860898
 10
25.37989275368278
 20
-23.64219644478558
 10
29.48079014349272
 20
-23.08304967009276
 10
33.50052030289147
 20
-22.40859265112133
 10
37.42517097599047
 20
-21.62392051188046
 10
41.24199227979055
 20
-20.73482115395552
 10
48.50761347189156
 20
-18.66933726394949
 10
55.22221443238815
 20
-16.26829758861739
 10
61.33341856244328
 20
-13.59207751037807
  0
LWPOLYLINE
  5
72
100
AcDbEntity
  8
s00e-#def-hidden-edge
  6
DASHED
 62
    7
420
    0
370
   25
100
AcDbPolyline
 90
   32
 70
    0
 43
0
 10
-72.00179522045774
 20
45.68068483073095
 10
-71.86999198955218
 20
45.37246925131731
 10
-70.0077189780574
 20
42.25521135575596
 10
-69.02058431758134
 20
41.18823651600636
 10
-66.42454403784282
 20
38.50285567853278
 10
-63.45132878192796
 20
36.51989674638831
 10
-59.61858280985241
 20
34.9112734432921
 10
-55.53869406038429
 20
34.14412885576338
 10
-51.95601093363533
 20
34.20112479805548
 10
-50.44386124084832
 20
34.50564809354514
 10
-46.94197520355288
 20
35.32692858087349
 10
-43.65854809327306
 20
36.9526301289256
 10
-42.46347941597018
 20
37.68880151028502
 10
-40.06120229558609
 20
39.71104674868059
 10
-39.88467983453392
 20
39.87459003134461
 10
-38.98054079402855
 20
40.74989348801435
 10
-38.06655107931363
 20
41.91659194840084
 10
-36.71868049259051
 20
43.97776522533377
 10
-36.09652433007486
 20
45.00445965129501
 10
-35.49782161598328
 20
46.24068678894389
 10
-34.96335626635951
 20
47.62712994461772
 10
-34.52919544133768
 20
49.08031317818268
 10
-34.21903000831902
 20
50.50852567930068
 10
-34.04014601961976
 20
51.83016212831499
 10
-33.89595530970043
 20
54.14311866865445
 10
-34.0946875367955
 20
56.84854278268659
 10
-34.36060344272701
 20
58.21056533272743
 10
-35.32541789633426
 20
61.38205092260604
 10
-35.92119917459712
 20
62.77525707257629
 10
-37.78347218609189
 20
65.89251496813763
 10
-38.77060684656796
 20
66.95948980788724
 10
-41.36101694685587
 20
69.63904670798732
  0
LWPOLYLINE
  5
73
100
AcDbEntity
  8
s00f-#def-outline
  6
CONTINUOUS
 62
    7
420
    0
370
   80
100
AcDbPolyline
 90
    9
 70
    0
 43
0
 10
-41.36101694685587
 20
69.63904670798732
 10
-41.36664712630649
 20
69.64487064536081
 10
-44.33986238222133
 20
71.62782957750528
 10
-48.17260835429691
 20
73.23645288060149
 10
-52.25249710376501
 20
74.00359746813021
 10
-55.83518023051395
 20
73.94660152583811
 10
-57.34732992330097
 20
73.64207823034845
 10
-60.84921596059641
 20
72.82079774302011
 10
-63.89465509550047
 20
71.31292960712899
  0
LWPOLYLINE
  5
74
100
AcDbEntity
  8
s00f-#def-outline
  6
CONTINUOUS
 62
    7
420
    0
370
   80
100
AcDbPolyline
 90
   10
 70
    0
 43
0
 10
-8.235848375276619
 20
84.86362812512176
 10
-8.389104646413202
 20
85.059276972704
 10
-9.469758766584718
 20
86.09820336888642
 10
-12.566237606971
 20
88.60690347018333
 10
-14.93054447400111
 20
89.70556437252672
 10
-17.57988164123456
 20
90.89835494419015
 10
-20.54764251419475
 20
91.43422915540891
 10
-22.78256728789785
 20
91.68913120147383
 10
-25.55882190482087
 20
91.6039114763273
 10
-28.60480758607717
 20
90.98424696020381
  0
LWPOLYLINE
  5
75
100
AcDbEntity
  8
s00e-#def-hidden-edge
  6
DASHED
 62
    7
420
    0
370
   25
100
AcDbPolyline
 90
   30
 70
    0
 43
0
 10
-8.235848375276619
 20
84.86362812512176
 10
-7.475136962307246
 20
83.89249454483597
 10
-5.359976946674145
 20
80.5669996155123
 10
-4.422216316471491
 20
77.8540886660461
 10
-3.669929329643274
 20
75.5042729651142
 10
-3.393315632969276
 20
72.82281966172887
 10
-3.304827625579669
 20
71.66697735010993
 10
-3.669515343792689
 20
67.93327225206082
 10
-4.467751428945057
 20
65.15435961490252
 10
-5.167930179603715
 20
63.65694289584489
 10
-6.337216775305699
 20
61.24467433370308
 10
-7.973951172611592
 20
58.91681055775977
 10
-9.98882163415858
 20
56.82422337385641
 10
-12.24585927882597
 20
55.08875447191657
 10
-14.59131361970074
 20
53.78080393565907
 10
-17.581637133738
 20
52.57301658862667
 10
-21.05012583649344
 20
51.86739955736529
 10
-23.82638045341646
 20
51.78217983221877
 10
-26.06130522711957
 20
52.03708187828367
 10
-29.02906610007975
 20
52.57295608950243
 10
-31.6784032673132
 20
53.76574666116586
 10
-34.04271013434331
 20
54.86440756350925
 10
-37.13918897472959
 20
57.37310766480618
 10
-38.21984309490109
 20
58.41203406098857
 10
-39.13381077900704
 20
59.5788164888566
 10
-41.24897079464017
 20
62.90431141818027
 10
-42.18673142484282
 20
65.61722236764649
 10
-42.93901841167104
 20
67.96703806857838
 10
-43.21563210834445
 20
70.64849137196018
 10
-43.23415081994659
 20
70.89038528569822
  0
LWPOLYLINE
  5
76
100
AcDbEntity
  8
s00e-#def-hidden-edge
  6
DASHED
 62
    7
420
    0
370
   25
100
AcDbPolyline
 90
    3
 70
    0
 43
0
 10
-28.60480758607717
 20
90.98424696020381
 10
-29.02731060757631
 20
90.89829444506592
 10
-30.01750371511754
 20
90.49835687951726
  0
LWPOLYLINE
  5
77
100
AcDbEntity
  8
s00f-#def-outline
  6
CONTINUOUS
 62
    7
420
    0
370
   80
100
AcDbPolyline
 90
   11
 70
    0
 43
0
 10
-30.01750371511754
 20
90.49835687951726
 10
-32.01763412161357
 20
89.69050709803352
 10
-34.36308846248835
 20
88.382556561776
 10
-36.62012610715574
 20
86.64708765983616
 10
-38.63499656870273
 20
84.55450047593283
 10
-40.27173096600863
 20
82.22663669998951
 10
-41.44101756171062
 20
79.81436813784771
 10
-42.14119631236926
 20
78.31695141879007
 10
-42.93943239752164
 20
75.53803878163178
 10
-43.30412011573465
 20
71.80433368358263
 10
-43.23415081994659
 20
70.89038528569822
  0
LWPOLYLINE
  5
78
100
AcDbEntity
  8
s00f-#def-outline
  6
CONTINUOUS
 62
    7
420
    0
370
   80
100
AcDbPolyline
 90
    6
 70
    0
 43
0
 10
-44.38369633940621
 20
85.04418862185551
 10
-49.86144833677905
 20
82.15408830280627
 10
-54.8672489280121
 20
78.99150671286445
 10
-59.50259807603129
 20
75.46320136314691
 10
-63.66132078504366
 20
71.58652469090211
 10
-64.72881381249901
 20
70.33484060156732
  0
LWPOLYLINE
  5
79
100
AcDbEntity
  8
s00e-#def-hidden-edge
  6
DASHED
 62
    7
420
    0
370
   25
100
AcDbPolyline
 90
   16
 70
    0
 43
0
 10
-63.89465509550047
 20
71.31292960712899
 10
-64.13264307087624
 20
71.195096194968
 10
-65.3277117481791
 20
70.45892481360858
 10
-67.72998886856321
 20
68.43667957521301
 10
-67.90651132961537
 20
68.27313629254898
 10
-68.81065037012074
 20
67.39783283587923
 10
-69.72464008483563
 20
66.23113437549273
 10
-71.07251067155875
 20
64.16996109855981
 10
-71.69466683407443
 20
63.1432666725986
 10
-72.29336954816603
 20
61.9070395349497
 10
-72.82783489778979
 20
60.52059637927587
 10
-73.26199572281162
 20
59.06741314571092
 10
-73.57216115583029
 20
57.63920064459291
 10
-73.75104514452951
 20
56.3175641955786
 10
-73.89523585444886
 20
54.00460765523913
 10
-73.75631654288848
 20
52.11344153239207
  0
LWPOLYLINE
  5
7A
100
AcDbEntity
  8
s00f-#def-outline
  6
CONTINUOUS
 62
    7
420
    0
370
   80
100
AcDbPolyline
 90
    5
 70
    0
 43
0
 10
-72.00179522045774
 20
45.68068483073095
 10
-72.46577326781502
 20
46.76567540128756
 10
-73.43058772142227
 20
49.93716099116617
 10
-73.69650362735376
 20
51.29918354120699
 10
-73.75631654288848
 20
52.11344153239207
  0
LWPOLYLINE
  5
7B
100
AcDbEntity
  8
s00e-#def-hidden-edge
  6
DASHED
 62
    7
420
    0
370
   25
100
AcDbPolyline
 90
   50
 70
    0
 43
0
 10
-74.0251388888889
 20
18.33302534883239
 10
-74.02513888889686
 20
22.97850677157883
 10
-73.91462887367864
 20
25.44305135746935
 10
-73.58398522616915
 20
27.89771191725953
 10
-73.03584942556446
 20
30.33273611727848
 10
-72.27456554422037
 20
32.73863134107577
 10
-71.3060949215635
 20
35.10628555300116
 10
-70.13790109718282
 20
37.4270778425992
 10
-68.77880908473308
 20
39.69297596518765
 10
-67.23884382427471
 20
41.89661877380871
 10
-63.66132078496879
 20
46.09142712373261
 10
-59.50259807601393
 20
49.96810379559764
 10
-54.86724892859428
 20
53.49640914480088
 10
-49.86144833677905
 20
56.65899073484233
 10
-44.38369634022103
 20
59.54909105387537
 10
-38.27249221016589
 20
62.22531113242959
 10
-31.5578912496693
 20
64.62635080816406
 10
-24.2922700575683
 20
66.69183469710849
 10
-20.47544875376823
 20
67.58093405503436
 10
-16.55079808066925
 20
68.36560619427613
 10
-12.53106792127051
 20
69.04006321324837
 10
-8.43017053146054
 20
69.59920998794192
 10
-4.263037766151903
 20
70.03873744175706
 10
-0.04545213406256465
 20
70.35520379379769
 10
4.206144670829829
 20
70.54610099269324
 10
8.474861111111139
 20
70.60990397972759
 10
12.74357755139241
 20
70.54610099269311
 10
16.99517435628478
 20
70.35520379379747
 10
21.21275998837783
 20
70.03873744176565
 10
25.37989275368264
 20
69.59920998794158
 10
29.48079014349251
 20
69.04006321324798
 10
33.50052030289118
 20
68.36560619427571
 10
37.42517097599009
 20
67.58093405503391
 10
41.24199228117217
 20
66.69183469799113
 10
48.50761347163434
 20
64.62635080799649
 10
55.22221443213392
 20
62.22531113231602
 10
61.33341856169855
 20
59.54909105419173
 10
66.81117055900133
 20
56.65899073484233
 10
71.81697115023439
 20
53.49640914525057
 10
76.45232029825355
 20
49.96810379584793
 10
80.61104300726592
 20
46.09142712400549
 10
84.188566046052
 20
41.89661877238535
 10
85.72853130695563
 20
39.69297596518813
 10
87.08762331940541
 20
37.42707784259964
 10
88.25581714378606
 20
35.10628555300151
 10
89.22428776644291
 20
32.73863134107607
 10
89.98557164778696
 20
30.33273611727869
 10
90.53370744839154
 20
27.89771191725965
 10
90.86435109590099
 20
25.44305135746941
 10
90.97486111111915
 20
22.97850677157883
  0
LWPOLYLINE
  5
7C
100
AcDbEntity
  8
s00e-#def-hidden-edge
  6
DASHED
 62
    7
420
    0
370
   25
100
AcDbPolyline
 90
   33
 70
    0
 43
0
 10
-49.02513888888888
 20
18.3330253488324
 10
-48.71766815426089
 20
14.90448842911641
 10
-47.80504231532794
 20
11.53051428524486
 10
-46.31585194315166
 20
8.262809147819286
 10
-44.29529687384617
 20
5.147674560392311
 10
-41.80187172551337
 20
2.224020255669053
 10
-38.90336801944419
 20
-0.4779059098143748
 10
-35.67267012850751
 20
-2.937027820250976
 10
-32.18377880711539
 20
-5.141251352839736
 10
-28.36595165743266
 20
-7.155563696418826
 10
-24.10662756655066
 20
-9.02080799342148
 10
-19.42675416963362
 20
-10.69425988836765
 10
-14.36283637008546
 20
-12.13383956896178
 10
-8.967264992246831
 20
-13.30040758213776
 10
-3.307433670071898
 20
-14.16019204438835
 10
2.536460970537345
 20
-14.6870968181657
 10
8.474861111111112
 20
-14.8646151295711
 10
14.41326125168489
 20
-14.6870968181657
 10
20.25715589229413
 20
-14.16019204438835
 10
25.91698721446907
 20
-13.30040758213776
 10
31.3125585923077
 20
-12.13383956896178
 10
36.37647639185584
 20
-10.69425988836765
 10
41.05634978877289
 20
-9.020807993421478
 10
45.31567387965491
 20
-7.155563696418842
 10
49.13350102933762
 20
-5.141251352839738
 10
52.62239235072974
 20
-2.937027820250979
 10
55.85309024166688
 20
-0.4779059098140124
 10
58.75159394773574
 20
2.224020255669178
 10
61.24501909606841
 20
5.14767456039235
 10
63.26557416537391
 20
8.26280914781929
 10
64.7547645375502
 20
11.53051428524485
 10
65.66739037648316
 20
14.90448842911641
 10
65.97486111111115
 20
18.33302534883239
  0
LWPOLYLINE
  5
7D
100
AcDbEntity
  8
s00e-#def-hidden-edge
  6
DASHED
 62
    7
420
    0
370
   25
100
AcDbPolyline
 90
   14
 70
    0
 43
0
 10
-74.02513888889686
 20
22.97850677157883
 10
-73.91462887367874
 20
20.51396218568822
 10
-73.58398522616179
 20
18.05930162589418
 10
-73.03584942556472
 20
15.62427742587827
 10
-72.27456554422065
 20
13.21838220208028
 10
-71.3060949215638
 20
10.8507279901541
 10
-70.13790109718313
 20
8.529935700555178
 10
-68.77880908473338
 20
6.264037577965766
 10
-67.23884382382974
 20
4.060394770767637
 10
-63.66132078504369
 20
-0.1344135797909338
 10
-59.50259807603132
 20
-4.011090252035739
 10
-54.86724892801215
 20
-7.539395601753273
 10
-49.86144833677908
 20
-10.7019771916951
 10
-44.38369633947632
 20
-13.59207751073389
  0
LWPOLYLINE
  5
7E
100
AcDbEntity
  8
s00e-#def-hidden-edge
  6
DASHED
 62
    7
420
    0
370
   25
100
AcDbPolyline
 90
   33
 70
    0
 43
0
 10
65.97486111063303
 20
22.97850677188617
 10
65.66739037601261
 20
19.54996985234564
 10
64.75476453712443
 20
16.17599570865118
 10
63.26557416503007
 20
12.90829057138377
 10
61.24501909583802
 20
9.793155984074499
 10
58.75159394763715
 20
6.869501679412032
 10
55.85309024170022
 20
4.167575513926035
 10
52.62239235087768
 20
1.708453603428676
 10
49.13350102933761
 20
-0.4957699300985148
 10
45.31567387965491
 20
-2.510082273677611
 10
41.05634978785929
 20
-4.375326570379485
 10
36.376476390939
 20
-6.048778465244713
 10
31.31255859145715
 20
-7.488358145767915
 10
25.9169872137547
 20
-8.654926158888733
 10
20.25715589177716
 20
-9.514710621100637
 10
14.41326125141193
 20
-10.04161539485239
 10
8.474861111111112
 20
-10.21913370624128
 10
2.53646097081964
 20
-10.0416153948278
 10
-3.307433669519863
 20
-9.514710621054915
 10
-8.967264991461576
 20
-8.65492615882815
 10
-14.36283636912638
 20
-7.488358145700314
 10
-19.42675416857669
 20
-6.048778465178038
 10
-24.10662756547719
 20
-4.375326570320349
 10
-28.36595165641613
 20
-2.5100822734115
 10
-32.18377880711538
 20
-0.495769930098509
 10
-35.67267012850751
 20
1.708453602490265
 10
-38.90336801947792
 20
4.167575513774566
 10
-41.80187172543427
 20
6.869501679275665
 10
-44.29529687364926
 20
9.793155983963555
 10
-46.31585194284661
 20
12.90829057130464
 10
-47.80504231493588
 20
16.17599570860469
 10
-48.71766815380988
 20
19.54996985232693
 10
-49.02513888841077
 20
22.97850677188618
  0
LWPOLYLINE
  5
7F
100
AcDbEntity
  8
s00e-#def-hidden-edge
  6
DASHED
 62
    7
420
    0
370
   25
100
AcDbPolyline
 90
   15
 70
    0
 43
0
 10
-28.36595165743266
 20
48.46709581682485
 10
-24.10662756563706
 20
50.33234011416723
 10
-19.42675416871677
 20
52.00579200906405
 10
-14.36283636923491
 20
53.44537168959307
 10
-8.967264991532446
 20
54.61193970269935
 10
-3.307433669554918
 20
55.47172416488813
 10
2.53646097081031
 20
55.99862893862301
 10
8.474861111111132
 20
56.17614725001364
 10
14.41326125140261
 20
55.99862893862507
 10
20.25715589174212
 20
55.47172416489494
 10
25.91698721368382
 20
54.61193970271518
 10
31.31255859134862
 20
53.44537168962201
 10
36.37647639079894
 20
52.00579200910837
 10
41.05634978769943
 20
50.33234011422644
 10
45.31567387863838
 20
48.46709581726179
  0
LWPOLYLINE
  5
80
100
AcDbEntity
  8
s00e-#def-hidden-edge
  6
DASHED
 62
    7
420
    0
370
   25
100
AcDbPolyline
 90
   11
 70
    0
 43
0
 10
-26.88047796589394
 20
15.31282452557529
 10
-26.88097796573064
 20
15.3133523467388
 10
-26.88118507267512
 20
15.31404927044668
 10
-26.88097796601763
 20
15.31450704744317
 10
-55.16524917800054
 20
-1.015424550582124
 10
-55.16474917800052
 20
-1.015474079404967
 10
-55.16424917787683
 20
-1.016001901110978
 10
-55.16404207121933
 20
-1.016698824276359
 10
-55.16424917816354
 20
-1.017156601438382
 10
-26.87997796577023
 20
15.31277499686928
 10
-26.88047796589394
 20
15.31282452557529
  0
LWPOLYLINE
  5
81
100
AcDbEntity
  8
s00e-#def-hidden-edge
  6
DASHED
 62
    7
420
    0
370
   25
100
AcDbPolyline
 90
    5
 70
    0
 43
0
 10
-26.88097796601763
 20
15.31450704744317
 10
-26.88047796589394
 20
15.31445751873714
 10
-26.87997796590224
 20
15.31392969729989
 10
-26.87977085911275
 20
15.31323277386576
 10
-26.87997796577023
 20
15.31277499686928
  0
LWPOLYLINE
  5
82
100
AcDbEntity
  8
s00e-#def-hidden-edge
  6
DASHED
 62
    7
420
    0
370
   25
100
AcDbPolyline
 90
   13
 70
    0
 43
0
 10
-40.90955594333799
 20
31.2093650316411
 10
-40.90966655917294
 20
31.21000739975509
 10
-40.90971237780301
 20
31.21075177035134
 10
-40.90966655923639
 20
31.21116210047928
 10
-80.41720013363013
 20
27.59846288502315
 10
-80.41708951775908
 20
27.59829880925833
 10
-80.41697890188806
 20
27.59765644087004
 10
-80.41693308329406
 20
27.59691207054809
 10
-80.41697890188806
 20
27.59650174033165
 10
-80.41708951775908
 20
27.59666581609647
 10
-80.41720013363013
 20
27.59730818448477
 10
-80.41724595222414
 20
27.59805255480672
 10
-80.41720013363013
 20
27.59846288502315
  0
LWPOLYLINE
  5
83
100
AcDbEntity
  8
s00e-#def-hidden-edge
  6
DASHED
 62
    7
420
    0
370
   25
100
AcDbPolyline
 90
    6
 70
    0
 43
0
 10
-40.90966655923639
 20
31.21116210047928
 10
-40.90955594333797
 20
31.21099802480295
 10
-40.90944532746877
 20
31.21035565642563
 10
-40.90939950887294
 20
31.20961128609272
 10
-40.90944532743956
 20
31.20920095596478
 10
-80.41697890188806
 20
27.59650174033165
  0
LWPOLYLINE
  5
84
100
AcDbEntity
  8
s00e-#def-hidden-edge
  6
DASHED
 62
    7
420
    0
370
   25
100
AcDbPolyline
 90
   15
 70
    0
 43
0
 10
53.02550836262977
 20
22.62141978941158
 10
53.02564133330442
 20
22.62099311015138
 10
53.02550836281138
 20
22.62026508963633
 10
53.02518734280469
 20
22.61966219071385
 10
53.02486632301724
 20
22.61953758515293
 10
88.66512724602814
 20
12.13507610887446
 10
88.66499427528935
 20
12.13550278817736
 10
88.66512724613281
 20
12.13623080967428
 10
88.66544826578908
 20
12.13683370761488
 10
88.66576928562947
 20
12.13695831309517
 10
53.02550836262977
 20
22.62141978941158
 10
53.02518734280469
 20
22.62129518387571
 10
53.02486632289492
 20
22.62069228523745
 10
53.02473335230494
 20
22.6199642644382
 10
53.02486632301724
 20
22.61953758515293
  0
LWPOLYLINE
  5
85
100
AcDbEntity
  8
s00e-#def-hidden-edge
  6
DASHED
 62
    7
420
    0
370
   25
100
AcDbPolyline
 90
   12
 70
    0
 43
0
 10
31.17438610943822
 20
10.00572920978259
 10
31.175016146235
 20
10.00567540429046
 10
31.17527711596241
 20
10.00517482473889
 10
31.17501614612712
 20
10.00452070369743
 10
31.17438610943822
 20
10.00409621662073
 10
31.17375607247464
 20
10.00415002221664
 10
49.33337603956525
 20
-10.57276421578651
 10
49.33311506979638
 20
-10.57226363620913
 10
49.33337603977066
 20
-10.57160951504484
 10
49.33400607632056
 20
-10.57118502809097
 10
49.33463611323178
 20
-10.57123883369972
 10
31.175016146235
 20
10.00567540429046
  0
LWPOLYLINE
  5
86
100
AcDbEntity
  8
s00e-#def-hidden-edge
  6
DASHED
 62
    7
420
    0
370
   25
100
AcDbPolyline
 90
    4
 70
    0
 43
0
 10
31.17375607247464
 20
10.00415002221664
 10
31.17349510291403
 20
10.00465060166442
 10
31.17375607276223
 20
10.00530472272152
 10
31.17438610943822
 20
10.00572920978259
  0
LWPOLYLINE
  5
87
100
AcDbEntity
  8
s00e-#def-hidden-edge
  6
DASHED
 62
    7
420
    0
370
   25
100
AcDbPolyline
 90
   15
 70
    0
 43
0
 10
0.6541255435292896
 20
7.213858757916144
 10
0.6538362564848281
 20
7.213307861196986
 10
0.6531378551887066
 20
7.213132578815714
 10
0.6524394541855454
 20
7.21343558912004
 10
0.6521501668481111
 20
7.214039392877144
 10
-5.605228426939416
 20
-15.59564575133307
 10
-5.604939139722152
 20
-15.59509485444147
 10
-5.604240738598818
 20
-15.59491957223264
 10
-5.603542337475485
 20
-15.59522258264731
 10
-5.603253050258228
 20
-15.59582638629408
 10
0.6541255435292896
 20
7.213858757916144
 10
0.6538362563004352
 20
7.21446256156824
 10
0.6531378551887048
 20
7.214765571977562
 10
0.6524394538925904
 20
7.2145902895963
 10
0.6521501668481111
 20
7.214039392877144
  0
LWPOLYLINE
  5
88
100
AcDbEntity
  8
s00e-#def-hidden-edge
  6
DASHED
 62
    7
420
    0
370
   25
100
AcDbPolyline
 90
   15
 70
    0
 43
0
 10
-36.07546512058244
 20
48.83081592723546
 10
-36.07578614058915
 20
48.83069132182041
 10
-36.07591911108217
 20
48.83111800095979
 10
-36.07578614033806
 20
48.8318460222056
 10
-36.07546512058244
 20
48.8324489203973
 10
-36.07514410074206
 20
48.83257352587759
 10
-71.7154050238059
 20
59.31703500223669
 10
-71.71527205306711
 20
59.31660832293381
 10
-71.71540502380591
 20
59.31588030169831
 10
-71.71572604356686
 20
59.31527740349629
 10
-71.71604706332784
 20
59.31515279791773
 10
-71.71618003406658
 20
59.31557947722062
 10
-71.71604706332784
 20
59.31630749845612
 10
-71.71572604356686
 20
59.31691039665815
 10
-71.7154050238059
 20
59.31703500223669
  0
LWPOLYLINE
  5
89
100
AcDbEntity
  8
s00e-#def-hidden-edge
  6
DASHED
 62
    7
420
    0
370
   25
100
AcDbPolyline
 90
    4
 70
    0
 43
0
 10
-36.07514410074206
 20
48.83257352587759
 10
-36.0750111300827
 20
48.83214684667297
 10
-36.075144100795
 20
48.83141882551519
 10
-36.07546512058244
 20
48.83081592723546
  0
LWPOLYLINE
  5
8A
100
AcDbEntity
  8
s00e-#def-hidden-edge
  6
DASHED
 62
    7
420
    0
370
   25
100
AcDbPolyline
 90
   14
 70
    0
 43
0
 10
57.85938878141991
 20
40.2409490105255
 10
57.85927816556023
 20
40.24111308630821
 10
57.85916754968248
 20
40.24175545475604
 10
57.85912173109519
 20
40.24249982501846
 10
57.85916754966355
 20
40.24291015519452
 10
97.36670112411031
 20
43.85560937077951
 10
97.36681173998133
 20
43.85544529501469
 10
97.3669223558163
 20
43.8548029269007
 10
97.36696817444637
 20
43.85405855630444
 10
97.36692235585238
 20
43.85364822608801
 10
97.36681173998133
 20
43.85381230185283
 10
97.36670112414637
 20
43.85445466996683
 10
97.3666553055163
 20
43.85519904056308
 10
97.36670112411031
 20
43.85560937077951
  0
LWPOLYLINE
  5
8B
100
AcDbEntity
  8
s00e-#def-hidden-edge
  6
DASHED
 62
    7
420
    0
370
   25
100
AcDbPolyline
 90
    6
 70
    0
 43
0
 10
57.85916754966355
 20
40.24291015519452
 10
57.85927816556023
 20
40.24274607947007
 10
57.85938878142656
 20
40.24210371112331
 10
57.85943460002527
 20
40.24135934075983
 10
57.85938878141991
 20
40.2409490105255
 10
97.36692235585238
 20
43.85364822608801
  0
LWPOLYLINE
  5
8C
100
AcDbEntity
  8
s00e-#def-hidden-edge
  6
DASHED
 62
    7
420
    0
370
   25
100
AcDbPolyline
 90
   15
 70
    0
 43
0
 10
43.83090729489738
 20
56.13806184066449
 10
43.83070018795288
 20
56.13760406345688
 10
43.83020018811619
 20
56.13765359237403
 10
43.82970018783356
 20
56.13818141430986
 10
43.829493081335
 20
56.13887833724542
 10
43.8297001883988
 20
56.1393361145219
 10
72.11397140022277
 20
72.46926771250085
 10
72.11447140022275
 20
72.46921818367801
 10
72.11497140005973
 20
72.46869036246864
 10
72.11517850700395
 20
72.46799343880662
 10
72.11497140022279
 20
72.4675356616933
 10
72.11447140022275
 20
72.46758519051615
 10
72.11397140038581
 20
72.46811301172552
 10
72.11376429344158
 20
72.46880993538754
 10
72.11397140022277
 20
72.46926771250085
  0
LWPOLYLINE
  5
8D
100
AcDbEntity
  8
s00e-#def-hidden-edge
  6
DASHED
 62
    7
420
    0
370
   25
100
AcDbPolyline
 90
    4
 70
    0
 43
0
 10
43.8297001883988
 20
56.1393361145219
 10
43.83020018811619
 20
56.13928658553589
 10
43.83070018833914
 20
56.13875876370339
 10
43.83090729489738
 20
56.13806184066449
  0
LWPOLYLINE
  5
8E
100
AcDbEntity
  8
s00e-#def-hidden-edge
  6
DASHED
 62
    7
420
    0
370
   25
100
AcDbPolyline
 90
    5
 70
    0
 43
0
 10
88.66576928562947
 20
12.13695831309517
 10
88.66590225628883
 20
12.13653163389055
 10
88.66576928555006
 20
12.13580361265505
 10
88.66544826578908
 20
12.13520071445302
 10
88.66512724602814
 20
12.13507610887446
  0
LWPOLYLINE
  5
8F
100
AcDbEntity
  8
s00e-#def-hidden-edge
  6
DASHED
 62
    7
420
    0
370
   25
100
AcDbPolyline
 90
   12
 70
    0
 43
0
 10
16.29658436703354
 20
64.23897853229546
 10
16.2972827678945
 20
64.23867552212168
 10
16.29757205537414
 20
64.23807171823403
 10
22.55495064916165
 20
87.04775686244423
 10
22.55466136194438
 20
87.04720596555262
 10
22.55396296082105
 20
87.04703068334379
 10
22.55326455969772
 20
87.04733369375846
 10
22.55297527248046
 20
87.04793749740523
 10
22.55326455969771
 20
87.04848839429684
 10
22.55396296082105
 20
87.04866367650567
 10
22.55466136194438
 20
87.048360666091
 10
22.55495064916165
 20
87.04775686244423
  0
LWPOLYLINE
  5
90
100
AcDbEntity
  8
s00e-#def-hidden-edge
  6
DASHED
 62
    7
420
    0
370
   25
100
AcDbPolyline
 90
    6
 70
    0
 43
0
 10
16.29757205537414
 20
64.23807171823403
 10
16.29728276786641
 20
64.23752082112885
 10
16.29658436703354
 20
64.2373455391336
 10
16.29588596629937
 20
64.23764854919098
 10
16.29559667869295
 20
64.23825235319502
 10
22.55297527248046
 20
87.04793749740523
  0
LWPOLYLINE
  5
91
100
AcDbEntity
  8
s00e-#def-hidden-edge
  6
DASHED
 62
    7
420
    0
370
   25
100
AcDbPolyline
 90
    3
 70
    0
 43
0
 10
16.29559667869295
 20
64.23825235319502
 10
16.2958859659652
 20
64.23880325012708
 10
16.29658436703354
 20
64.23897853229546
  0
LWPOLYLINE
  5
92
100
AcDbEntity
  8
s00e-#def-hidden-edge
  6
DASHED
 62
    7
420
    0
370
   25
100
AcDbPolyline
 90
   15
 70
    0
 43
0
 10
-14.22466388721598
 20
61.44801489449044
 10
-14.22403384997833
 20
61.44796108872401
 10
-14.22377288069179
 20
61.44746050944676
 10
-14.2240338502524
 20
61.44680638873781
 10
-14.22466388721598
 20
61.44638190132859
 10
-14.22529392426337
 20
61.44643570697664
 10
-32.38491389085367
 20
82.02334994466848
 10
-32.38517486062253
 20
82.02385052424583
 10
-32.3849138908537
 20
82.02450464520688
 10
-32.38428385409834
 20
82.02492913236401
 10
-32.38365381734302
 20
82.02487532689767
 10
-32.38339284757414
 20
82.02437474732031
 10
-32.38365381734301
 20
82.02372062635929
 10
-32.38428385409834
 20
82.02329613920215
 10
-32.38491389085367
 20
82.02334994466848
  0
LWPOLYLINE
  5
93
100
AcDbEntity
  8
s00e-#def-hidden-edge
  6
DASHED
 62
    7
420
    0
370
   25
100
AcDbPolyline
 90
    4
 70
    0
 43
0
 10
-14.22529392426337
 20
61.44643570697664
 10
-14.22555489374017
 20
61.44693628637228
 10
-14.22529392378248
 20
61.44759040756189
 10
-14.22466388721598
 20
61.44801489449044
  0
LWPOLYLINE
  5
94
100
AcDbEntity
  8
s00e-#def-hidden-edge
  6
DASHED
 62
    7
420
    0
370
   25
100
AcDbPolyline
 90
    5
 70
    0
 43
0
 10
49.33463611323178
 20
-10.57123883369972
 10
49.33489708284476
 20
-10.57173941313466
 10
49.3346361130759
 20
-10.57239353409569
 10
49.33400607632056
 20
-10.57281802125283
 10
49.33337603956525
 20
-10.57276421578651
  0
LWPOLYLINE
  5
95
100
AcDbEntity
  8
s00e-#def-hidden-edge
  6
DASHED
 62
    7
420
    0
370
   25
100
AcDbPolyline
 90
    5
 70
    0
 43
0
 10
-5.603253050258228
 20
-15.59582638629408
 10
-5.603542337475499
 20
-15.59637728318569
 10
-5.604240738598818
 20
-15.5965525653945
 10
-5.604939139722163
 20
-15.59624955497985
 10
-5.605228426939416
 20
-15.59564575133307
  0
LWPOLYLINE
  5
96
100
AcDbEntity
  8
s00e-#def-hidden-edge
  6
DASHED
 62
    7
420
    0
370
   25
100
AcDbPolyline
 90
    5
 70
    0
 43
0
 10
-55.16424917816354
 20
-1.017156601438382
 10
-55.16474917800052
 20
-1.017107072566826
 10
-55.16524917800054
 20
-1.016579251120506
 10
-55.16545628478171
 20
-1.01588232769543
 10
-55.16524917800054
 20
-1.015424550582124
  0
LWPOLYLINE
  5
97
100
AcDbEntity
  8
s00f-#def-outline
  6
CONTINUOUS
 62
    7
420
    0
370
   80
100
AcDbPolyline
 90
  131
 70
    0
 43
0
 10
92.10920939743139
 20
-18.31983168725004
 10
94.99162734951645
 20
-16.01737086260956
 10
97.72236164446218
 20
-13.60380630653334
 10
100.2845471605993
 20
-11.08341873433546
 10
102.6616610700694
 20
-8.461543214536203
 10
104.8377583010331
 20
-5.744571743101705
 10
106.7977140876365
 20
-2.939935443031871
 10
108.5274675580257
 20
-0.05606510519156416
 10
110.0142596981453
 20
2.897670536115307
 10
111.2468586724347
 20
5.911048624020381
 10
112.2157654305079
 20
8.973097090671239
 10
112.9133928130948
 20
12.07221879978582
 10
113.3342120008337
 20
15.19633223951808
 10
113.4748611111112
 20
18.33302534883239
 10
113.4748611111112
 20
53.11908576227877
 10
113.3342120009181
 20
56.25577887065195
 10
112.9133928130948
 20
59.37989231132535
 10
112.2157654305079
 20
62.47901402043991
 10
111.2468586724347
 20
65.54106248709081
 10
110.0142596981453
 20
68.55444057499584
 10
108.5274675580258
 20
71.5081762163027
 10
106.7977140876365
 20
74.39204655414306
 10
104.8377583010331
 20
77.19668285421284
 10
102.6616610700694
 20
79.91365432564734
 10
100.2845471605993
 20
82.5355298454466
 10
97.72236164446223
 20
85.05591741764449
 10
94.99162734951651
 20
87.46948197372072
 10
92.10920939743143
 20
89.7719427983612
 10
89.09209207041474
 20
91.96005241886577
 10
85.95717230874354
 20
94.03155921261443
 10
82.72107313569867
 20
95.98515626098441
 10
79.33734379040523
 20
97.85351898966619
 10
75.74938877540848
 20
99.66346575795494
 10
71.95947174016426
 20
101.4053992588847
 10
67.97149260945002
 20
103.0695640394381
 10
63.79107617097859
 20
104.6461542197103
 10
59.42563684116671
 20
106.1254327171658
 10
54.88441522975332
 20
107.4978600726928
 10
50.17848259851357
 20
108.7542303947725
 10
45.32071003004072
 20
109.8858113957677
 10
40.32570008246044
 20
110.8844850275286
 10
35.20967987958989
 20
111.7428848698557
 10
29.9903559289236
 20
112.4545262194645
 10
24.6867324094459
 20
113.0139247970577
 10
19.31889615041977
 20
113.4167001541883
 10
13.90777294256467
 20
113.6596602255583
 10
8.474861111111132
 20
113.7408640271895
 10
3.041949279657601
 20
113.6596602255583
 10
-2.369173928197512
 20
113.4167001541883
 10
-7.737010187223639
 20
113.0139247970577
 10
-13.04063370670132
 20
112.4545262194645
 10
-18.25995765736764
 20
111.7428848698557
 10
-23.37597786023817
 20
110.8844850275286
 10
-28.37098780781847
 20
109.8858113957677
 10
-33.22876037629131
 20
108.7542303947725
 10
-37.93469300753105
 20
107.4978600726928
 10
-42.47591461894445
 20
106.1254327171658
 10
-46.84135394875634
 20
104.6461542197103
 10
-51.02177038722773
 20
103.069564039438
 10
-55.009749517942
 20
101.4053992588847
 10
-58.79966655318622
 20
99.66346575795495
 10
-62.38762156818298
 20
97.85351898966621
 10
-65.77135091347638
 20
95.98515626098441
 10
-69.00745008652123
 20
94.03155921261443
 10
-72.14236984819246
 20
91.96005241886579
 10
-75.15948717520914
 20
89.7719427983612
 10
-78.04190512729421
 20
87.46948197372072
 10
-80.77263942223995
 20
85.05591741764449
 10
-83.33482493837704
 20
82.53552984544663
 10
-85.71193884784717
 20
79.91365432564734
 10
-87.88803607881084
 20
77.19668285421284
 10
-89.84799186541423
 20
74.39204655414306
 10
-91.5777453358035
 20
71.5081762163027
 10
-93.06453747592306
 20
68.55444057499585
 10
-94.29713645021241
 20
65.54106248709081
 10
-95.26604320828567
 20
62.47901402043992
 10
-95.96367059087258
 20
59.37989231132536
 10
-96.38448977869584
 20
56.25577887065199
 10
-96.52513888888893
 20
53.11908576227878
 10
-96.5251388888889
 20
18.33302534883239
 10
-96.3844897786114
 20
15.19633223951808
 10
-95.96367059087257
 20
12.07221879978581
 10
-95.26604320828567
 20
8.97309709067126
 10
-94.29713645021242
 20
5.911048624020374
 10
-93.06453747592308
 20
2.897670536115328
 10
-91.57774533580354
 20
-0.05606510519154995
 10
-89.84799186541426
 20
-2.939935443031875
 10
-87.88803607881087
 20
-5.744571743101663
 10
-85.71193884784719
 20
-8.461543214536178
 10
-83.33482493837708
 20
-11.08341873433547
 10
-80.77263942223995
 20
-13.60380630653333
 10
-78.04190512729423
 20
-16.01737086260953
 10
-75.15948717520914
 20
-18.31983168725001
 10
-72.14236984819249
 20
-20.50794130775462
 10
-69.00745008652126
 20
-22.57944810150325
 10
-65.77135091347641
 20
-24.53304514987324
 10
-62.38762156818299
 20
-26.40140787855502
 10
-58.79966655318625
 20
-28.21135464684378
 10
-55.00974951794204
 20
-29.95328814777354
 10
-51.02177038722779
 20
-31.61745292832686
 10
-46.84135394875636
 20
-33.19404310859913
 10
-42.47591461894447
 20
-34.67332160605466
 10
-37.93469300753105
 20
-36.04574896158163
 10
-33.22876037629135
 20
-37.30211928366131
 10
-28.37098780781848
 20
-38.43370028465652
 10
-23.37597786023819
 20
-39.43237391641748
 10
-18.25995765736766
 20
-40.2907737587445
 10
-13.04063370670135
 20
-41.00241510835332
 10
-7.737010187223639
 20
-41.56181368594655
 10
-2.36917392819754
 20
-41.96458904307717
 10
3.041949278027516
 20
-42.20754911439835
 10
8.474861111111096
 20
-42.28875291607835
 10
13.90777294419468
 20
-42.20754911439835
 10
19.31889615041973
 20
-41.96458904307715
 10
24.68673240944586
 20
-41.56181368594656
 10
29.99035592892357
 20
-41.00241510835333
 10
35.20967987958986
 20
-40.29077375874452
 10
40.32570008246042
 20
-39.43237391641747
 10
45.32071003004067
 20
-38.43370028465654
 10
50.17848259851355
 20
-37.30211928366132
 10
54.8844152297533
 20
-36.04574896158165
 10
59.42563684116669
 20
-34.67332160605468
 10
63.7910761709786
 20
-33.19404310859915
 10
67.97149260945001
 20
-31.61745292832688
 10
71.95947174016425
 20
-29.95328814777354
 10
75.74938877540848
 20
-28.21135464684378
 10
79.33734379040517
 20
-26.40140787855501
 10
82.72107313569862
 20
-24.53304514987325
 10
85.95717230874348
 20
-22.57944810150326
 10
89.09209207041468
 20
-20.50794130775463
 10
92.10920939743139
 20
-18.31983168725004
  0
LINE
  5
98
100
AcDbEntity
  8
s00e-#def-hidden-edge
  6
DASHED
 62
    7
420
    0
370
   25
100
AcDbLine
 10
-40.90944532743956
 20
31.20920095596478
 11
-40.90955594333799
 21
31.2093650316411
  0
LINE
  5
99
100
AcDbEntity
  8
s00e-#def-hidden-edge
  6
DASHED
 62
    7
420
    0
370
   25
100
AcDbLine
 10
-28.31671881842001
 20
91.04285471660576
 11
-29.3899108109915
 21
90.73776576235375
  0
LINE
  5
9A
100
AcDbEntity
  8
s00e-#def-hidden-edge
  6
DASHED
 62
    7
420
    0
370
   25
100
AcDbLine
 10
-64.72881381249901
 20
70.33484060156732
 11
-65.21273650708085
 21
69.76741924941103
  0
LINE
  5
9B
100
AcDbEntity
  8
s00e-#def-hidden-edge
  6
DASHED
 62
    7
420
    0
370
   25
100
AcDbLine
 10
90.97486111111115
 20
48.47360433953756
 11
90.87070957220524
 21
50.79634505125726
  0
LINE
  5
9C
100
AcDbEntity
  8
s00e-#def-hidden-edge
  6
DASHED
 62
    7
420
    0
370
   25
100
AcDbLine
 10
72.11497140022279
 20
72.4675356616933
 11
43.83070018795288
 21
56.13760406345688
  0
LINE
  5
9D
100
AcDbEntity
  8
s00e-#def-hidden-edge
  6
DASHED
 62
    7
420
    0
370
   25
100
AcDbLine
 10
-74.0251388888889
 20
48.47360433953756
 11
-74.0251388888889
 21
53.11908576227878
  0
LINE
  5
9E
100
AcDbEntity
  8
s00e-#def-hidden-edge
  6
DASHED
 62
    7
420
    0
370
   25
100
AcDbLine
 10
-32.38365381734302
 20
82.02487532689767
 11
-14.22403384997833
 21
61.44796108872401
  0
LINE
  5
9F
100
AcDbEntity
  8
s00e-#def-hidden-edge
  6
DASHED
 62
    7
420
    0
370
   25
100
AcDbLine
 10
-36.07578614058915
 20
48.83069132182041
 11
-71.71604706332784
 21
59.31515279791773
  0
ENDSEC
  0
SECTION
  2
OBJECTS
  0
DICTIONARY
  5
C
330
0
100
AcDbDictionary
281
    1
  3
ACAD_GROUP
350
D
  0
DICTIONARY
  5
D
330
C
100
AcDbDictionary
281
    1
  0
ENDSEC
  0
EOF
